<svg width="26" height="26" viewBox="0 0 26 26" fill="none" xmlns="http://www.w3.org/2000/svg">
<path d="M2 12.1045C2.09411 11.7655 2.20704 11.4379 2.45066 11.1689C2.78623 10.7982 3.2186 10.6373 3.69668 10.5636C3.97202 10.5211 4.24898 10.4807 4.52002 10.4183C4.59907 10.4 4.69264 10.3225 4.72652 10.2483C4.89646 9.87059 5.05349 9.48751 5.20192 9.10067C5.22881 9.03126 5.21913 8.91935 5.17933 8.85748C4.99702 8.57501 4.79643 8.30492 4.60552 8.02783C4.05054 7.22239 4.12206 6.34916 4.80396 5.64864C5.07823 5.36671 5.3568 5.08801 5.63913 4.81362C6.33985 4.13139 7.21266 4.05929 8.01771 4.61454C8.29466 4.80555 8.56463 5.00623 8.84696 5.18863C8.9088 5.22844 9.02066 5.23866 9.09003 5.21176C9.4697 5.06649 9.84131 4.8997 10.221 4.75282C10.3431 4.70547 10.399 4.64037 10.42 4.5107C10.4823 4.12278 10.5415 3.73271 10.6345 3.35178C10.8265 2.56679 11.4589 2.04974 12.271 2.01584C12.7496 1.99593 13.2304 1.99647 13.709 2.01476C14.5802 2.04866 15.2379 2.63673 15.3992 3.50566C15.4621 3.843 15.5078 4.18412 15.5826 4.51877C15.6014 4.60324 15.6842 4.70386 15.7638 4.7399C16.1338 4.90831 16.5108 5.06219 16.8915 5.20638C16.9668 5.2349 17.0862 5.22575 17.1529 5.18324C17.4417 4.99762 17.7154 4.7894 17.9999 4.59679C18.7587 4.0835 19.5917 4.12493 20.2629 4.7356C20.6431 5.08209 21.0061 5.45065 21.3476 5.83588C21.8251 6.37499 21.8934 7.18312 21.5234 7.79701C21.3056 8.15749 21.0459 8.49269 20.8184 8.84779C20.7754 8.91451 20.7657 9.03449 20.7942 9.10981C20.9383 9.4902 21.0927 9.86737 21.261 10.2375C21.297 10.3172 21.3976 10.4 21.482 10.4189C21.8654 10.5044 22.258 10.5491 22.6388 10.6427C23.4309 10.8374 23.9472 11.4605 23.9832 12.2718C24.0052 12.7647 24.0063 13.2602 23.9821 13.753C23.9418 14.5811 23.3744 15.2256 22.5688 15.3984C22.2871 15.4586 21.9913 15.2891 21.9063 15.0185C21.8219 14.7495 21.9725 14.4455 22.244 14.3363C22.8135 14.1071 22.8743 14.0167 22.8743 13.399C22.8743 13.0913 22.8748 12.7835 22.8743 12.4752C22.8727 12.0023 22.6882 11.7736 22.2284 11.6886C21.7928 11.6079 21.3567 11.5267 20.9179 11.4637C20.5888 11.4164 20.4091 11.2442 20.2951 10.9311C20.0956 10.3823 19.8714 9.84046 19.6267 9.30996C19.4922 9.01781 19.4863 8.77301 19.6794 8.51098C19.9472 8.14835 20.201 7.77603 20.4575 7.40532C20.72 7.02655 20.6942 6.73816 20.3699 6.40942C20.1085 6.14417 19.8461 5.88054 19.5804 5.62013C19.2604 5.30699 18.9717 5.28332 18.6011 5.53942C18.2247 5.79983 17.8477 6.0597 17.4777 6.32979C17.2309 6.51004 16.9943 6.51165 16.7162 6.38683C16.1639 6.13879 15.603 5.90744 15.0368 5.6933C14.7587 5.58838 14.5963 5.42106 14.549 5.12998C14.478 4.69256 14.3979 4.25621 14.3247 3.81933C14.2408 3.3195 14.0171 3.12634 13.5138 3.1258C13.1486 3.12527 12.7835 3.12311 12.4189 3.12634C12.0059 3.13011 11.7784 3.3082 11.6966 3.71387C11.6052 4.16959 11.5224 4.62692 11.4541 5.0864C11.4052 5.41568 11.2304 5.59376 10.9185 5.70621C10.3759 5.90206 9.83969 6.1205 9.31751 6.36638C9.00937 6.51165 8.755 6.51219 8.48181 6.30773C8.12688 6.04248 7.75904 5.79337 7.39443 5.54104C7.01691 5.27955 6.72866 5.30645 6.39901 5.63196C6.13926 5.88861 5.88113 6.14632 5.62461 6.40673C5.29979 6.73655 5.2729 7.02493 5.53426 7.40263C5.79455 7.77926 6.05483 8.15642 6.32425 8.52659C6.50495 8.77462 6.5028 9.01136 6.37803 9.28844C6.13227 9.83401 5.89995 10.3876 5.69237 10.9488C5.57944 11.2544 5.39498 11.4158 5.07769 11.4626C4.6394 11.5272 4.20327 11.6079 3.76713 11.687C3.30787 11.7704 3.12072 12.0001 3.11911 12.472C3.11804 12.8373 3.11696 13.2021 3.11911 13.5674C3.1218 14.0043 3.30034 14.2297 3.73056 14.3142C4.1796 14.4025 4.62972 14.4832 5.08199 14.5515C5.40089 14.5994 5.58051 14.7656 5.69291 15.0702C5.89726 15.6249 6.1242 16.1726 6.36943 16.7112C6.49849 16.9947 6.50871 17.2363 6.32157 17.4918C6.05106 17.8615 5.79186 18.2386 5.53157 18.6153C5.27559 18.9854 5.29979 19.276 5.61224 19.595C5.8779 19.8662 6.14571 20.1347 6.41675 20.3999C6.7292 20.705 7.0196 20.7303 7.37937 20.4828C7.76227 20.2191 8.14409 19.9539 8.52053 19.6806C8.76844 19.5003 9.0056 19.5057 9.28256 19.6305C9.82786 19.8764 10.3823 20.1056 10.9427 20.3154C11.2282 20.4225 11.3982 20.5893 11.446 20.8906C11.5154 21.3286 11.5961 21.7644 11.6703 22.2013C11.7542 22.6979 11.9784 22.8878 12.4872 22.8883C12.8163 22.8883 13.1454 22.8883 13.4751 22.8883C13.9908 22.8883 14.1387 22.7839 14.3134 22.2992C14.421 22 14.7055 21.8375 14.9878 21.9134C15.2503 21.9839 15.4573 22.2766 15.3901 22.5391C15.3325 22.7646 15.2508 22.9927 15.1325 23.1918C14.8964 23.5905 14.5307 23.8336 14.0822 23.9504C14.0209 23.9665 13.9601 23.987 13.8994 24.0053H12.0957C12.0559 23.9913 12.0166 23.9746 11.9757 23.9644C11.2013 23.7718 10.7453 23.2762 10.5931 22.4982C10.5286 22.1684 10.4705 21.837 10.4216 21.505C10.4022 21.3759 10.3474 21.3092 10.2242 21.2618C9.84453 21.1155 9.47293 20.9487 9.09326 20.8034C9.02335 20.7765 8.91149 20.7857 8.85019 20.8255C8.56194 21.0122 8.28714 21.2183 8.00319 21.412C7.23847 21.9338 6.40008 21.8913 5.72302 21.2726C5.35357 20.9353 5.00025 20.5769 4.66791 20.2035C4.16186 19.6343 4.09356 18.8471 4.48775 18.1902C4.70071 17.8351 4.95723 17.5064 5.18202 17.1577C5.22181 17.0958 5.23203 16.9839 5.20514 16.9145C5.05725 16.5282 4.89969 16.1446 4.72975 15.7669C4.69641 15.6921 4.60283 15.6146 4.52378 15.5963C4.25274 15.5339 3.97579 15.4936 3.70045 15.4511C3.22236 15.3768 2.78945 15.217 2.45442 14.8458C2.21135 14.5768 2.09626 14.2491 2.00323 13.9096V12.105L2 12.1045Z" fill="#404041"/>
<path d="M12.635 8.70259C13.0959 9.17229 13.5417 9.62532 13.9865 10.0794C14.229 10.3275 14.436 10.6002 14.5355 10.9381C14.7609 11.7021 14.5764 12.3666 14.0263 12.9294C13.6509 13.313 13.2691 13.6918 12.8754 14.056C12.0413 14.8281 10.9195 14.8039 10.1059 14.0006C9.68856 13.5879 9.28201 13.1645 8.87276 12.7438C8.81898 12.6883 8.77865 12.62 8.73186 12.5581C8.70175 12.5716 8.67163 12.5845 8.64205 12.598C8.66571 12.9342 8.65926 13.2759 8.71842 13.6057C9.09432 15.7019 10.8598 17.1465 12.9964 17.0905C13.9074 17.0669 14.7453 17.2363 15.474 17.8072C15.6202 17.9218 15.759 18.0472 15.888 18.1806C17.0314 19.3551 18.1736 20.5313 19.3104 21.7122C19.4046 21.8102 19.4847 21.9431 19.5186 22.0733C19.5826 22.3191 19.4686 22.5435 19.2647 22.6576C19.069 22.7668 18.8017 22.741 18.621 22.5903C18.5662 22.5446 18.5172 22.4919 18.4672 22.4407C17.3857 21.3259 16.293 20.2214 15.2277 19.0909C14.6377 18.4652 13.9515 18.1644 13.0889 18.208C11.7396 18.2764 10.5243 17.8771 9.49281 17.0082C8.02469 15.7707 7.38796 14.1755 7.58532 12.2611C7.62727 11.856 7.88594 11.5848 8.25969 11.4433C8.64474 11.2975 9.0228 11.3492 9.32126 11.6333C9.84452 12.1315 10.342 12.6571 10.8534 13.1677C10.9437 13.2576 11.0416 13.3469 11.1519 13.4088C11.4466 13.5734 11.8036 13.5309 12.0661 13.2839C12.4834 12.8917 12.8948 12.4925 13.2917 12.0804C13.617 11.7425 13.5944 11.2814 13.2519 10.9263C12.7695 10.4264 12.2769 9.93684 11.7956 9.43701C11.3481 8.97268 11.3245 8.36309 11.7257 7.91114C11.9332 7.67763 12.2032 7.58402 12.507 7.56196C15.1303 7.36934 17.5681 9.18682 18.0849 11.7602C18.1908 12.287 18.1924 12.8411 18.1833 13.3819C18.1709 14.1136 18.4091 14.7194 18.9173 15.2392C20.0585 16.4062 21.1905 17.5818 22.329 18.7514C22.4817 18.908 22.5844 19.0748 22.5441 19.3035C22.4656 19.743 21.9859 19.9217 21.6401 19.6376C21.5852 19.5924 21.5363 19.5391 21.4863 19.488C20.3946 18.363 19.3164 17.2245 18.208 16.1156C17.375 15.2822 16.991 14.3046 17.0803 13.1311C17.1351 12.4102 16.9862 11.7242 16.6861 11.0672C16.008 9.58335 14.336 8.57346 12.7114 8.67354C12.699 8.67407 12.6867 8.68268 12.6356 8.70313L12.635 8.70259Z" fill="#404041"/>
</svg>
