<svg width="26" height="26" viewBox="0 0 26 26" fill="none" xmlns="http://www.w3.org/2000/svg">
<path d="M12.4749 22.9987C10.0511 22.9987 7.62738 23.0007 5.20363 22.9974C4.15336 22.9961 3.33509 22.4024 3.0826 21.4521C3.02444 21.2336 3.00461 20.9986 3.00395 20.7715C2.99866 18.0546 2.99998 15.3371 3.00065 12.6195C3.00065 11.2788 3.89823 10.3877 5.2532 10.387C9.82904 10.3857 14.4042 10.387 18.9801 10.387C19.2603 10.387 19.5405 10.3837 19.8208 10.3877C21.0978 10.4055 21.996 11.3032 21.998 12.5721C22.0013 14.567 21.9987 16.5619 21.9987 18.5568C21.9987 19.3038 22 20.0508 21.9987 20.7978C21.9954 22.103 21.107 22.9955 19.795 22.9981C17.3547 23.0027 14.9145 22.9994 12.4742 22.9994L12.4749 22.9987ZM5.12696 20.8887H19.8697V12.5103H5.12696V20.8887Z" fill="#404041"/>
<path d="M19.8724 6.20044V8.27102H5.13226V6.20044H19.8724Z" fill="#404041"/>
<path d="M7.23413 4.06268V2H17.7659V4.06268H7.23413Z" fill="#404041"/>
</svg>
