<svg width="26" height="26" viewBox="0 0 26 26" fill="none" xmlns="http://www.w3.org/2000/svg">
<mask id="mask0_3_64" style="mask-type:luminance" maskUnits="userSpaceOnUse" x="0" y="0" width="26" height="26">
<rect width="26" height="26" fill="white"/>
</mask>
<g mask="url(#mask0_3_64)">
<path fill-rule="evenodd" clip-rule="evenodd" d="M5 2C3.34315 2 2 3.34315 2 5V9C2 10.6569 3.34315 12 5 12H9C10.6569 12 12 10.6569 12 9V5C12 3.34315 10.6569 2 9 2H5ZM5 4C4.44772 4 4 4.44772 4 5V9C4 9.55228 4.44772 10 5 10H9C9.55228 10 10 9.55228 10 9V5C10 4.44772 9.55228 4 9 4H5Z" fill="#404041"/>
<path fill-rule="evenodd" clip-rule="evenodd" d="M5 14C3.34315 14 2 15.3431 2 17V21C2 22.6569 3.34315 24 5 24H9C10.6569 24 12 22.6569 12 21V17C12 15.3431 10.6569 14 9 14H5ZM5 16C4.44772 16 4 16.4477 4 17V21C4 21.5523 4.44772 22 5 22H9C9.55228 22 10 21.5523 10 21V17C10 16.4477 9.55228 16 9 16H5Z" fill="#404041"/>
<path fill-rule="evenodd" clip-rule="evenodd" d="M17 2C15.3431 2 14 3.34315 14 5V9C14 10.6569 15.3431 12 17 12H21C22.6569 12 24 10.6569 24 9V5C24 3.34315 22.6569 2 21 2H17ZM17 4C16.4477 4 16 4.44772 16 5V9C16 9.55228 16.4477 10 17 10H21C21.5523 10 22 9.55228 22 9V5C22 4.44772 21.5523 4 21 4H17Z" fill="#404041"/>
<path fill-rule="evenodd" clip-rule="evenodd" d="M17 14C15.3431 14 14 15.3431 14 17V21C14 22.6569 15.3431 24 17 24H21C22.6569 24 24 22.6569 24 21V17C24 15.3431 22.6569 14 21 14H17ZM17 16C16.4477 16 16 16.4477 16 17V21C16 21.5523 16.4477 22 17 22H21C21.5523 22 22 21.5523 22 21V17C22 16.4477 21.5523 16 21 16H17Z" fill="#404041"/>
</g>
</svg>
