<svg width="20" height="20" viewBox="0 0 20 20" fill="none" xmlns="http://www.w3.org/2000/svg">
<g clip-path="url(#clip0_1602_1242)">
<mask id="mask0_1602_1242" style="mask-type:luminance" maskUnits="userSpaceOnUse" x="0" y="0" width="20" height="20">
<path d="M20 0H0V20H20V0Z" fill="white"/>
</mask>
<g mask="url(#mask0_1602_1242)">
<path d="M20 9.41406V10.5859C19.9883 10.6548 19.9741 10.7236 19.9648 10.793C19.9149 11.1597 19.885 11.5303 19.8146 11.8936C19.3908 14.0796 18.3476 15.9233 16.701 17.417C15.2747 18.7114 13.6051 19.5249 11.7026 19.8477C11.3317 19.9106 10.9574 19.9497 10.5845 20H9.41261C9.15523 19.9697 8.89687 19.9453 8.63997 19.9077C6.30347 19.5669 4.29872 18.564 2.70109 16.8228C0.43113 14.3496 -0.405119 11.4297 0.181087 8.12988C0.571565 5.93115 1.6422 4.08398 3.29414 2.58447C4.721 1.28906 6.39057 0.475098 8.29353 0.152344C8.66444 0.0893555 9.03926 0.050293 9.41212 0C9.8026 0 10.1936 0 10.584 0C10.6472 0.0117187 10.7103 0.0258789 10.7744 0.0341797C11.1477 0.0844727 11.525 0.114746 11.8944 0.186035C14.0802 0.610352 15.9245 1.65332 17.4184 3.30029C18.7126 4.72656 19.5259 6.39648 19.8483 8.29883C19.911 8.66846 19.9496 9.04199 20 9.41406ZM1.66813 10C1.66813 14.6074 5.40312 18.3398 10.0032 18.3291C14.6146 18.3184 18.3065 14.6294 18.3285 10.0103C18.3505 5.42139 14.618 1.68262 10.0032 1.67139C5.40312 1.66064 1.66813 5.39258 1.66813 10Z" fill="#61626D"/>
</g>
</g>
<g clip-path="url(#clip1_1602_1242)">
<path d="M14.4071 7.53219C14.3369 7.96722 14.077 8.28278 13.765 8.56974C13.5937 8.72727 13.4349 8.89858 13.2825 9.05202C12.6419 8.41146 12.0072 7.77677 11.3613 7.1311C11.3751 7.1168 11.4083 7.08055 11.443 7.04583C11.6498 6.83852 11.8553 6.62994 12.0644 6.42493C12.4548 6.04223 12.9195 5.90564 13.4428 6.06597C13.9647 6.22579 14.2787 6.59317 14.3857 7.13187C14.3887 7.14719 14.3997 7.16097 14.4071 7.17552V7.53219Z" fill="#61626D"/>
<path d="M10.754 7.74219C11.3948 8.383 12.0277 9.01616 12.6698 9.65825C12.6417 9.68812 12.609 9.72463 12.5743 9.75935C11.2293 11.1046 9.88184 12.4477 8.542 13.798C8.38677 13.9543 8.21955 14.0413 8.00662 14.0799C7.46436 14.1782 6.92464 14.2905 6.38416 14.3988C6.10741 14.4542 5.95627 14.3043 6.01193 14.0286C6.13448 13.4217 6.25396 12.8143 6.38033 12.2082C6.39514 12.1378 6.43267 12.0614 6.48271 12.0109C7.89455 10.5942 9.30919 9.18058 10.7236 7.76644C10.7325 7.75751 10.7435 7.75061 10.754 7.74219Z" fill="#61626D"/>
</g>
<defs>
<clipPath id="clip0_1602_1242">
<rect width="20" height="20" fill="white"/>
</clipPath>
<clipPath id="clip1_1602_1242">
<rect width="8.40719" height="8.41" fill="white" transform="translate(6 6)"/>
</clipPath>
</defs>
</svg>
