<svg width="20" height="20" viewBox="0 0 20 20" fill="none" xmlns="http://www.w3.org/2000/svg">
<g clip-path="url(#clip0_210_12)">
<path d="M0 14.1791C0.0495339 13.9057 0.0891611 13.6296 0.148602 13.3589C0.371054 12.3537 0.862791 11.4947 1.58148 10.7665C2.58207 9.75317 3.58626 8.74437 4.59765 7.74279C5.23709 7.10936 6.22326 7.37104 6.43851 8.22103C6.51957 8.54225 6.45292 8.84092 6.25839 9.10711C6.19714 9.19102 6.12419 9.26592 6.05034 9.339C5.08218 10.3108 4.11042 11.279 3.14585 12.2544C2.09754 13.3146 1.86067 14.8432 2.53614 16.1173C3.56014 18.0464 6.1296 18.4182 7.70478 16.8599C8.69816 15.8772 9.67983 14.8811 10.6678 13.893C11.0812 13.4798 11.5693 13.3959 12.0304 13.6548C12.5987 13.9733 12.7491 14.7466 12.3421 15.2564C12.3132 15.2916 12.2853 15.3286 12.2538 15.3602C11.1821 16.4304 10.1238 17.515 9.03409 18.5662C8.16859 19.4017 7.10857 19.8439 5.91525 19.9693C5.86482 19.9747 5.81438 19.99 5.76485 20H5.02454C4.8201 19.9693 4.61296 19.9503 4.41122 19.9052C2.19751 19.4089 0.769127 18.0744 0.16031 15.8772C0.0828567 15.5912 0.0531364 15.2925 0 14.9993C0 14.7259 0 14.4525 0 14.1791Z" fill="#404041"/>
<path d="M19.9469 5.38233C19.9307 6.89102 19.3984 8.18676 18.3384 9.25872C17.3513 10.2567 16.3597 11.251 15.3636 12.2409C14.7152 12.8852 13.7263 12.637 13.5075 11.7789C13.4255 11.4577 13.4921 11.159 13.6858 10.8919C13.7461 10.808 13.82 10.7331 13.8929 10.6591C14.8602 9.68732 15.831 8.71822 16.7974 7.74372C17.8691 6.66273 18.097 5.04757 17.3603 3.79785C16.2534 1.91831 13.7821 1.6034 12.2268 3.14908C11.2352 4.13442 10.2526 5.12788 9.26465 6.11592C8.86028 6.52016 8.37304 6.59867 7.91733 6.34421C7.34724 6.02569 7.19503 5.25511 7.60121 4.74439C7.62913 4.7092 7.65705 4.67221 7.68947 4.64062C8.79003 3.5443 9.85726 2.41189 11.0001 1.36068C12.2151 0.243602 13.6948 -0.185904 15.3249 0.0730632C17.517 0.42136 18.9715 1.69725 19.6893 3.79064C19.8622 4.29413 19.9 4.84365 20 5.37151C19.982 5.37512 19.9649 5.37873 19.9469 5.38233Z" fill="#404041"/>
<path d="M6.8717 14.1403C6.49434 14.1195 6.15571 13.9354 5.96028 13.5348C5.76574 13.136 5.81168 12.7534 6.07646 12.3979C6.12689 12.3302 6.18453 12.2679 6.24397 12.2084C8.22173 10.2242 10.1995 8.23997 12.179 6.25756C12.6591 5.77662 13.267 5.72699 13.7299 6.12582C14.1658 6.50209 14.2279 7.14815 13.8713 7.60112C13.8155 7.6724 13.7542 7.74008 13.6894 7.80414C11.7206 9.77933 9.75097 11.7527 7.78313 13.7288C7.54446 13.9679 7.27788 14.1339 6.8717 14.1403Z" fill="#404041"/>
</g>
<defs>
<clipPath id="clip0_210_12">
<rect width="20" height="20" fill="white"/>
</clipPath>
</defs>
</svg>
