<svg width="26" height="26" viewBox="0 0 26 26" fill="none" xmlns="http://www.w3.org/2000/svg">
<path d="M24 16.0661C23.957 16.2213 23.9201 16.3788 23.8694 16.5311C23.5879 17.3768 22.863 17.9562 22.0428 17.9946C21.9427 17.9993 21.8425 18.0007 21.7424 18.0007C17.1323 18.0007 12.5218 17.9913 7.91163 18.0087C6.90445 18.0124 6.21179 17.5169 5.7821 16.5785C5.65406 16.2986 5.66781 15.9255 5.66695 15.5955C5.65921 12.3226 5.66222 9.04967 5.66222 5.77677C5.66222 5.29254 5.65878 4.80831 5.66308 4.32408C5.67554 2.96138 6.56414 2.00136 7.81453 2.00089C10.9285 1.99948 14.0424 1.99995 17.1568 1.99995C18.7101 1.99995 20.2639 1.99995 21.8172 1.99995C22.9447 1.99995 23.7078 2.66372 23.9669 3.86516C23.9712 3.88578 23.9888 3.90313 24 3.92235V16.0661ZM22.616 12.1744C22.6207 12.0741 22.6246 12.0296 22.6246 11.9855C22.6246 9.42327 22.6259 6.86055 22.6237 4.29829C22.6237 3.79953 22.3324 3.50187 21.8563 3.50187C17.174 3.5014 12.4912 3.5014 7.80894 3.50187C7.31394 3.50187 7.0398 3.8 7.03937 4.34564C7.03808 7.63448 7.03851 10.9238 7.03937 14.2126C7.03937 14.2689 7.04968 14.3256 7.05828 14.4128C7.13347 14.335 7.18546 14.2834 7.23531 14.229C8.1471 13.2352 9.05933 12.2419 9.96898 11.2458C10.1963 10.9969 10.4532 10.8047 10.7686 10.7246C11.3758 10.5703 11.9004 10.7424 12.3409 11.2214C12.6941 11.6058 13.046 11.9921 13.4099 12.3905C13.7146 11.9926 14.0033 11.6157 14.2912 11.2383C15.1115 10.1639 15.9326 9.09092 16.7503 8.01464C17.2041 7.41744 17.776 7.18728 18.4703 7.34947C18.8949 7.44838 19.1694 7.78214 19.4376 8.12433C20.483 9.46077 21.5323 10.7939 22.616 12.1749V12.1744ZM7.26238 16.2883C7.46863 16.5021 7.6766 16.5002 7.88585 16.5002C12.5114 16.4992 17.137 16.4997 21.7622 16.4997C21.8193 16.4997 21.8769 16.5006 21.9341 16.4983C22.341 16.4819 22.616 16.1814 22.6233 15.737C22.6284 15.4248 22.6117 15.1112 22.6289 14.8C22.6409 14.5801 22.573 14.4207 22.4437 14.2571C21.0743 12.5237 19.7104 10.7841 18.3457 9.04592C18.0875 8.71732 18.005 8.71825 17.7493 9.05342C16.5174 10.6683 15.2855 12.2832 14.0523 13.8976C13.6995 14.3598 13.2857 14.3781 12.8939 13.9515C12.4075 13.4218 11.9219 12.8907 11.4359 12.3605C11.1828 12.0844 11.1489 12.084 10.9023 12.3535C9.84394 13.5076 8.78605 14.6631 7.72644 15.8158C7.58035 15.9747 7.4248 16.1238 7.26238 16.2888V16.2883Z" fill="#404041"/>
<path d="M2 17.285C2.22902 16.3358 2.45891 15.387 2.68707 14.4378C2.99859 13.1402 3.30668 11.8418 3.62121 10.5447C3.7093 10.1805 3.95078 9.96859 4.26016 9.95641C4.56523 9.94422 4.83465 10.1195 4.92273 10.4397C4.96742 10.6019 4.97086 10.7992 4.93219 10.9638C4.44105 13.0568 3.94004 15.1465 3.43988 17.2368C3.28648 17.8785 3.46051 18.2146 4.0466 18.3857C8.68594 19.7413 13.3257 21.0965 17.965 22.4508C18.4592 22.5952 18.7909 22.3824 18.9159 21.8409C19.0659 21.1903 19.2098 20.5382 19.3594 19.8876C19.4634 19.4352 19.8114 19.1765 20.1839 19.2698C20.5827 19.3696 20.7971 19.7709 20.6927 20.2448C20.5423 20.9273 20.3919 21.6098 20.2269 22.2881C19.9175 23.5589 18.8171 24.2537 17.6518 23.9143C12.9704 22.5492 8.28934 21.1828 3.60918 19.8126C2.75926 19.5637 2.23117 18.9632 2.03867 18.0205C2.03309 17.9924 2.01375 17.9676 2.00043 17.9413C2.00043 17.7224 2.00043 17.5035 2.00043 17.285H2Z" fill="#404041"/>
<path d="M9.99009 8.99998C8.89136 8.99482 7.9958 8.09328 8.00001 6.99744C8.0047 5.89081 8.9157 4.99115 10.0224 5.00007C11.1146 5.00898 12.0143 5.92742 11.9998 7.01762C11.9848 8.12331 11.0912 9.00467 9.99056 8.99998H9.99009ZM10.0088 7.49538C10.2794 7.49162 10.4962 7.27387 10.498 7.00448C10.4999 6.72994 10.2658 6.49904 9.99103 6.5042C9.72512 6.50936 9.50322 6.73369 9.50135 6.99885C9.49948 7.2748 9.72887 7.4996 10.0088 7.49538Z" fill="#404041"/>
</svg>
