<svg width="26" height="26" viewBox="0 0 26 26" fill="none" xmlns="http://www.w3.org/2000/svg">
<path d="M22.2779 24H3.7232C3.70433 23.9904 3.68601 23.9758 3.66606 23.9721C2.64465 23.78 2.00377 23.0407 2.00323 22.0125C1.99892 16.0056 1.99892 9.99877 2.00323 3.99246C2.00431 2.83564 2.84354 2.00327 4.0051 2.00273C10.0021 1.99896 15.999 1.99789 21.996 2.00919C22.2946 2.00973 22.618 2.07698 22.887 2.20343C23.6588 2.56554 24 3.21712 24 4.05703C24 7.99451 24 11.9325 24 15.87C24 17.9033 24 19.9366 24 21.97C24 22.6049 23.7817 23.1408 23.2864 23.5572C22.9915 23.8053 22.6417 23.915 22.2779 24ZM3.29253 8.45347V8.68753C3.29253 13.098 3.29253 17.5079 3.29253 21.9183C3.29253 22.4784 3.527 22.7114 4.0908 22.7114C10.0301 22.7114 15.9699 22.7114 21.9092 22.7114C22.4735 22.7114 22.708 22.479 22.708 21.9188C22.708 17.5084 22.708 13.0985 22.708 8.68807V8.45347H3.29253ZM22.7085 7.15031C22.7085 7.07283 22.7085 7.01687 22.7085 6.96037C22.7085 5.98703 22.7096 5.01315 22.7085 4.03981C22.708 3.5378 22.459 3.29084 21.9529 3.29084C15.9855 3.29084 10.0177 3.29084 4.05037 3.29084C3.54317 3.29084 3.29415 3.53726 3.29361 4.03873C3.29253 5.01207 3.29307 5.98595 3.29361 6.9593C3.29361 7.02117 3.30116 7.08305 3.30547 7.15031H22.7085Z" fill="#404041"/>
<path d="M12.9714 21.3791C12.5628 21.3791 12.1537 21.3818 11.7451 21.3786C11.3091 21.3748 11.0476 21.1166 11.0423 20.6851C11.0385 20.3843 11.0498 20.0835 11.0358 19.7833C11.0326 19.7106 10.9695 19.6272 10.9113 19.5734C10.5749 19.263 10.2424 19.2985 9.89903 19.5794C9.76266 19.6907 9.59449 19.7677 9.43387 19.8451C9.12664 19.9931 8.79677 19.9194 8.62213 19.6283C8.16613 18.8675 7.72199 18.0997 7.29025 17.3249C7.11292 17.0064 7.22772 16.676 7.55167 16.4764C7.80769 16.3187 8.06857 16.1692 8.33322 16.0255C8.43455 15.9706 8.45288 15.9023 8.47228 15.7925C8.55206 15.3336 8.36556 15.0581 7.93975 14.9015C7.78775 14.8455 7.64869 14.7471 7.51232 14.6551C7.22179 14.4592 7.121 14.1326 7.29133 13.8281C7.72037 13.0597 8.1602 12.2979 8.61135 11.5424C8.79838 11.2293 9.14658 11.155 9.47645 11.3315C9.75404 11.48 10.0203 11.6506 10.2995 11.7953C10.3647 11.8292 10.4688 11.8201 10.5442 11.7964C10.976 11.6581 11.1253 11.3589 11.046 10.9183C11.0175 10.759 11.0369 10.5895 11.0433 10.4254C11.0568 10.0552 11.3155 9.78459 11.6848 9.78137C12.5455 9.77329 13.4058 9.77383 14.2666 9.78137C14.646 9.78459 14.9064 10.0574 14.9145 10.4405C14.9209 10.7552 14.9096 11.0705 14.9215 11.3853C14.9242 11.4526 14.9894 11.5214 15.0368 11.5806C15.0616 11.6113 15.1182 11.6145 15.1479 11.643C15.4303 11.9196 15.696 11.8292 15.9741 11.6264C16.1348 11.5091 16.3164 11.4171 16.4948 11.3261C16.8252 11.1572 17.1664 11.2379 17.3556 11.5553C17.7987 12.2989 18.232 13.0484 18.6562 13.8028C18.8422 14.1337 18.7403 14.4737 18.4153 14.6755C18.1539 14.838 17.879 14.979 17.6197 15.1447C17.5577 15.1845 17.5114 15.2798 17.4958 15.3567C17.4052 15.8006 17.5691 16.0987 18.0089 16.2515C18.1614 16.3042 18.3 16.4054 18.4369 16.4963C18.7376 16.6965 18.8384 17.0252 18.6622 17.3394C18.2363 18.1008 17.7992 18.8567 17.3524 19.6063C17.16 19.9291 16.8096 20.0044 16.4706 19.8215C16.1935 19.6719 15.9267 19.5029 15.648 19.3566C15.5882 19.3248 15.495 19.341 15.4217 19.3566C15.3694 19.3674 15.3279 19.4265 15.2751 19.4427C14.9527 19.5422 14.8703 19.7639 14.9107 20.0781C14.936 20.2751 14.9177 20.4784 14.915 20.6786C14.9091 21.1133 14.6514 21.3743 14.2186 21.3786C13.8025 21.3824 13.3869 21.3797 12.9708 21.3797L12.9714 21.3791ZM13.6246 20.0808C13.6246 19.8199 13.6316 19.5772 13.623 19.3351C13.609 18.9487 13.7879 18.7131 14.1405 18.5587C14.4261 18.4333 14.7016 18.2724 14.957 18.0927C15.3419 17.8221 15.5338 17.7957 15.9402 18.0287C16.1482 18.1481 16.3563 18.2665 16.5724 18.3897C16.7929 18.0072 16.9999 17.6493 17.2144 17.2776C16.9794 17.1414 16.7584 17.0112 16.5353 16.8848C16.242 16.719 16.1229 16.4796 16.1493 16.1374C16.1768 15.7834 16.1881 15.4234 16.1531 15.071C16.1143 14.683 16.2458 14.4221 16.5838 14.2435C16.7956 14.1315 16.9993 14.0035 17.2144 13.8781C16.9939 13.4972 16.787 13.1394 16.5708 12.7665C16.3364 12.9015 16.1116 13.0258 15.8917 13.1582C15.5861 13.3417 15.3085 13.3153 15.0136 13.1098C14.728 12.9107 14.4234 12.7315 14.1081 12.5841C13.7831 12.4318 13.6165 12.2091 13.623 11.8518C13.6279 11.5962 13.6241 11.3406 13.6241 11.0813H12.3326C12.3326 11.3374 12.3256 11.5801 12.3343 11.8222C12.3483 12.2085 12.1693 12.4442 11.8168 12.5992C11.5311 12.7245 11.2557 12.8854 11.0002 13.0651C10.6148 13.3358 10.4235 13.3621 10.0171 13.1291C9.80902 13.0097 9.60042 12.8913 9.38482 12.7681C9.16437 13.1501 8.95739 13.5085 8.74233 13.8819C8.9714 14.0137 9.18539 14.1418 9.40368 14.2623C9.71469 14.4334 9.8392 14.6814 9.80632 15.0419C9.77506 15.3879 9.76913 15.7414 9.80416 16.0868C9.84405 16.4748 9.71199 16.7357 9.37404 16.9149C9.16221 17.0268 8.95847 17.1543 8.74233 17.2797C8.96278 17.6606 9.16976 18.0185 9.3859 18.3913C9.6209 18.2568 9.84567 18.1331 10.065 18.0007C10.3707 17.8167 10.6477 17.8425 10.9425 18.048C11.2282 18.2471 11.5328 18.4263 11.8481 18.5737C12.1731 18.726 12.3396 18.9488 12.3332 19.306C12.3283 19.5616 12.3321 19.8172 12.3321 20.0814H13.6235L13.6246 20.0808Z" fill="#404041"/>
<path d="M16.8754 5.86764C15.591 5.86764 14.307 5.87033 13.0226 5.86602C12.5262 5.86441 12.2082 5.42751 12.3801 4.9933C12.4787 4.74472 12.6706 4.60966 12.9364 4.58222C13.0075 4.57469 13.0797 4.57846 13.1514 4.57846C15.6335 4.57846 18.1162 4.57846 20.5983 4.57846C20.6554 4.57846 20.7131 4.57684 20.7702 4.57953C21.14 4.59621 21.4149 4.87062 21.4149 5.22251C21.4149 5.5744 21.1405 5.85903 20.7708 5.86441C20.1466 5.87302 19.5225 5.8671 18.8983 5.86764C18.224 5.86764 17.5497 5.86764 16.8749 5.86764H16.8754Z" fill="#404041"/>
<path d="M5.87372 5.23051C5.86941 5.58079 5.57241 5.87026 5.22152 5.86596C4.87009 5.86165 4.58118 5.5668 4.5855 5.21545C4.58927 4.8641 4.88518 4.5757 5.23661 4.58C5.58751 4.58431 5.87803 4.88078 5.87372 5.23051Z" fill="#404041"/>
<path d="M8.45573 5.2295C8.45195 5.57977 8.1555 5.86978 7.80515 5.86602C7.45318 5.86279 7.16427 5.56847 7.16751 5.21712C7.17074 4.86577 7.46558 4.57684 7.81701 4.5806C8.1679 4.58383 8.45896 4.87976 8.45573 5.2295Z" fill="#404041"/>
<path d="M10.387 4.58061C10.7374 4.57631 11.0349 4.86578 11.0392 5.21606C11.0436 5.56525 10.753 5.86226 10.4021 5.86657C10.0507 5.87087 9.7548 5.58247 9.75102 5.23112C9.74671 4.87977 10.0356 4.58492 10.387 4.58061Z" fill="#404041"/>
<path d="M14.9143 15.6091C14.8841 16.6755 13.998 17.5348 12.9539 17.5101C11.8786 17.4842 11.0049 16.5814 11.0448 15.537C11.0857 14.4647 11.974 13.6129 13.0154 13.6474C14.0869 13.6829 14.9439 14.5685 14.9143 15.6091ZM12.9728 14.9355C12.6214 14.9392 12.3314 15.2346 12.3351 15.5849C12.3389 15.9357 12.6348 16.2247 12.9857 16.2209C13.3372 16.2171 13.6271 15.9217 13.6234 15.5715C13.6196 15.2206 13.3237 14.9317 12.9728 14.9349V14.9355Z" fill="#404041"/>
</svg>
