<svg width="26" height="26" viewBox="0 0 26 26" fill="none" xmlns="http://www.w3.org/2000/svg">
<path d="M7.05627 4.19774C7.09488 3.89832 7.11097 3.60559 7.17275 3.32359C7.4591 2.0147 8.57686 1.03136 9.8658 1.01528C11.9939 0.989157 14.1213 1.00456 16.2493 1.00255C17.2049 1.00188 18.1605 0.995856 19.1161 1.00389C20.5395 1.01595 21.6431 1.93499 21.9327 3.35373C21.9842 3.60493 21.9977 3.86818 21.9977 4.1254C22.0016 8.62144 22.0009 13.1168 22.0003 17.6128C22.0003 19.4315 20.8484 20.6928 19.1071 20.7859C19.0524 20.7886 18.9977 20.7973 18.972 20.8C18.8928 21.2093 18.8549 21.6119 18.7345 21.9863C18.36 23.1518 17.3124 23.9684 16.1335 23.9838C14.2628 24.0086 12.3922 23.9945 10.5209 23.9965C9.16374 23.9972 7.80659 24.0019 6.45009 23.9952C5.25061 23.9892 4.32075 23.2389 4.06657 22.0714C4.01895 21.8537 4.0035 21.6239 4.0035 21.4002C4.00029 16.7213 3.99964 12.0417 4.00157 7.36212C4.00222 5.73304 4.98163 4.50587 6.48549 4.24597C6.67339 4.21315 6.86644 4.21315 7.05627 4.19774ZM8.62706 11.1361C8.62706 13.4926 8.62641 15.8498 8.62706 18.2063C8.62706 18.8239 8.94752 19.1803 9.51573 19.181C12.6959 19.1836 15.8761 19.1857 19.0556 19.1796C19.8767 19.1783 20.454 18.5788 20.4546 17.7247C20.4597 13.153 20.4591 8.58192 20.4546 4.01018C20.454 3.16684 19.9147 2.6102 19.1078 2.60886C16.0884 2.60551 13.0685 2.60484 10.0492 2.60886C9.19849 2.6102 8.63414 3.20636 8.62641 4.09124C8.62255 4.55879 8.62577 5.02635 8.62577 5.4939C8.62577 7.37418 8.62577 9.25512 8.62577 11.1354L8.62706 11.1361ZM17.3465 20.7879H17.0486C14.5749 20.7879 12.1013 20.7906 9.6277 20.7839C9.36515 20.7839 9.09424 20.7652 8.84134 20.6962C7.75833 20.4008 7.08652 19.4308 7.08587 18.1869C7.08459 14.1752 7.08587 10.1628 7.08587 6.15103V5.80338C6.89089 5.82548 6.72937 5.82414 6.57751 5.86433C5.91985 6.03782 5.54405 6.58643 5.54405 7.36145C5.5434 12.0169 5.54405 16.673 5.54405 21.3285C5.54405 22.0861 5.83813 22.3922 6.56592 22.3922C9.65022 22.3922 12.7339 22.3922 15.8182 22.3922C15.9308 22.3922 16.0434 22.3922 16.1554 22.3822C16.8973 22.3152 17.4572 21.5851 17.3478 20.7879H17.3465Z" fill="#404041"/>
<path d="M14.5257 15.7099C13.619 15.7099 12.713 15.7113 11.8063 15.7099C11.2979 15.7092 10.9434 15.3777 10.9421 14.9088C10.9414 14.4365 11.2928 14.1056 11.8024 14.1056C13.6313 14.1043 15.4601 14.1043 17.2896 14.1056C17.7915 14.1056 18.1499 14.4506 18.1422 14.9181C18.1345 15.3797 17.7851 15.7086 17.2934 15.7092C16.3707 15.7113 15.4485 15.7092 14.5257 15.7092V15.7099Z" fill="#404041"/>
<path d="M14.518 11.9595C13.5798 11.9595 12.641 11.9635 11.7027 11.9575C11.3591 11.9548 11.0727 11.723 10.9794 11.4028C10.8823 11.0706 10.9859 10.7008 11.2684 10.52C11.4112 10.4282 11.5959 10.3646 11.7626 10.3639C13.6152 10.3532 15.4679 10.3545 17.3211 10.3592C17.7928 10.3606 18.1377 10.7075 18.1429 11.157C18.148 11.6165 17.7993 11.9588 17.3102 11.9608C16.3797 11.9648 15.4492 11.9622 14.5193 11.9622V11.9608L14.518 11.9595Z" fill="#404041"/>
<path d="M14.5425 7.68521C13.9646 7.68521 13.3874 7.68722 12.8102 7.68521C12.3179 7.6832 11.9788 7.35363 11.9781 6.8834C11.9781 6.41115 12.3147 6.08292 12.8089 6.08159C13.964 6.07958 15.1191 6.07958 16.2742 6.08159C16.7645 6.08226 17.1062 6.4145 17.1062 6.88273C17.1062 7.35229 16.7664 7.6832 16.2748 7.68521C15.6976 7.68789 15.1197 7.68521 14.5425 7.68521Z" fill="#404041"/>
</svg>
