<svg width="26" height="26" viewBox="0 0 26 26" fill="none" xmlns="http://www.w3.org/2000/svg">
<g clip-path="url(#clip0_164_31)">
<path d="M16.9301 13.7844C16.6494 13.7844 16.4048 13.7883 16.1602 13.7837C15.7025 13.7739 15.3575 13.4316 15.3595 12.9948C15.3615 12.5561 15.7044 12.2222 16.1668 12.2144C16.4107 12.2104 16.6553 12.2137 16.9301 12.2137V11.912C16.9301 9.44093 16.9301 6.96916 16.9301 4.49805C16.9301 3.86322 17.2239 3.57269 17.8639 3.57204C18.2974 3.57204 18.7315 3.56286 19.165 3.57597C19.3499 3.58187 19.4483 3.53466 19.5322 3.35365C20.0044 2.33779 21.1008 1.81052 22.1783 2.06169C23.257 2.31287 24.019 3.29528 23.9993 4.40951C23.9803 5.47456 23.2137 6.41631 22.1717 6.65437C21.1028 6.89834 20.0089 6.37762 19.5394 5.37684C19.4509 5.18862 19.3538 5.12435 19.1571 5.13944C18.9472 5.15518 18.7361 5.14272 18.5131 5.14272V12.2118C18.7944 12.2118 19.0777 12.2222 19.3591 12.2026C19.4148 12.1986 19.4771 12.0872 19.5119 12.0137C20.1526 10.668 21.7946 10.224 22.998 11.0739C23.802 11.6419 24.1698 12.6393 23.9226 13.5824C23.6682 14.553 22.8544 15.2482 21.8569 15.3466C20.9001 15.4416 19.9558 14.9118 19.5388 14.0185C19.4509 13.831 19.3545 13.7647 19.1571 13.7798C18.9472 13.7962 18.7354 13.7837 18.5125 13.7837V20.8528C18.7925 20.8528 19.0764 20.8652 19.3571 20.8429C19.4181 20.8384 19.483 20.7144 19.5217 20.6337C20.1617 19.3057 21.8005 18.8703 22.996 19.7149C23.8 20.2822 24.1685 21.2804 23.9213 22.2228C23.6675 23.1934 22.8544 23.8886 21.8563 23.9882C20.8995 24.084 19.9552 23.5541 19.5374 22.6609C19.4502 22.4746 19.3545 22.4143 19.1564 22.4208C18.6987 22.4353 18.2397 22.4274 17.7819 22.4248C17.2501 22.4222 16.9281 22.1001 16.9281 21.5663C16.9268 19.0703 16.9281 16.5742 16.9281 14.0789V13.7837L16.9301 13.7844ZM22.4288 4.35639C22.4288 3.93011 22.0753 3.57532 21.649 3.57269C21.2234 3.57007 20.8647 3.92159 20.8588 4.34656C20.8529 4.78267 21.2149 5.146 21.651 5.14206C22.0766 5.13813 22.4294 4.78202 22.4288 4.35639ZM21.6523 12.2144C21.2267 12.2098 20.866 12.56 20.8588 12.985C20.8516 13.4112 21.1979 13.7733 21.6228 13.7844C22.0583 13.7956 22.4268 13.4375 22.4281 13.002C22.4294 12.5757 22.0779 12.2196 21.6517 12.215L21.6523 12.2144ZM21.6549 20.8561C21.23 20.8502 20.868 21.1997 20.8595 21.624C20.851 22.0503 21.1959 22.4136 21.6215 22.4254C22.0576 22.4379 22.4268 22.0805 22.4294 21.645C22.432 21.2187 22.0812 20.8613 21.6556 20.8554L21.6549 20.8561Z" fill="#404041"/>
<path d="M2.00197 13.0006C2.00197 11.9861 2.0059 10.9722 2 9.95764C1.99738 9.5412 2.17312 9.26445 2.56003 9.09984C4.34834 8.33909 6.13467 7.57178 7.9197 6.80251C8.16889 6.69496 8.40366 6.6943 8.65285 6.8012C10.4457 7.57244 12.2393 8.34106 14.0342 9.10705C14.3994 9.26313 14.5739 9.53267 14.5732 9.92879C14.5712 11.9736 14.5712 14.0191 14.5732 16.0639C14.5732 16.4601 14.4014 16.7316 14.0368 16.8876C12.2426 17.655 10.4477 18.4223 8.65548 19.1942C8.39645 19.3056 8.15512 19.2971 7.89871 19.1863C6.12156 18.4203 4.34243 17.6563 2.562 16.8981C2.1764 16.7355 1.99738 16.4607 2 16.0436C2.0059 15.0291 2.00197 14.0152 2.00197 13.0006ZM3.59747 11.0581C3.5837 11.1053 3.57583 11.1211 3.57583 11.1361C3.57452 12.5835 3.57124 14.0309 3.58108 15.4783C3.58108 15.5518 3.67354 15.66 3.74896 15.6928C4.65327 16.0902 5.56152 16.4778 6.46977 16.866C6.80488 17.0096 7.14129 17.1493 7.47967 17.2916C7.49147 17.251 7.49934 17.2352 7.49934 17.2195C7.50065 15.7721 7.50393 14.3247 7.4941 12.8773C7.4941 12.8032 7.40229 12.6963 7.32687 12.6616C6.90455 12.4675 6.47371 12.2904 6.04549 12.1074C5.23626 11.7605 4.42703 11.4136 3.59681 11.0574L3.59747 11.0581ZM9.07321 17.2831C9.13092 17.27 9.17157 17.2661 9.20764 17.251C10.4241 16.7309 11.6386 16.2082 12.8564 15.6928C12.9921 15.635 13.0033 15.5485 13.0033 15.4265C13.0007 14.4041 13.002 13.3823 13.002 12.3599C13.002 11.9356 13.002 11.5119 13.002 11.0712C12.9443 11.087 12.9043 11.0922 12.8682 11.1079C11.6524 11.6274 10.4379 12.1507 9.21944 12.6649C9.0837 12.7219 9.07124 12.8072 9.07124 12.9291C9.07452 13.9188 9.07321 14.9077 9.07321 15.8974C9.07321 16.3545 9.07321 16.8116 9.07321 17.2831ZM11.7901 9.85665C10.6136 9.35167 9.50536 8.87227 8.39251 8.40533C8.31185 8.37122 8.18463 8.40402 8.09413 8.44205C7.08686 8.86702 6.08286 9.2992 5.07821 9.73073C5.00018 9.76418 4.92607 9.80681 4.82115 9.85927C4.88804 9.89468 4.92083 9.91501 4.95624 9.9301C6.02057 10.3865 7.08424 10.8469 8.15315 11.2929C8.24824 11.3329 8.39382 11.3106 8.49547 11.268C9.32371 10.9217 10.1467 10.5636 10.971 10.2095C11.2228 10.1013 11.4753 9.99306 11.7901 9.8573V9.85665Z" fill="#404041"/>
</g>
<defs>
<clipPath id="clip0_164_31">
<rect width="22" height="22" fill="white" transform="translate(2 2)"/>
</clipPath>
</defs>
</svg>
