<svg width="26" height="26" viewBox="0 0 26 26" fill="none" xmlns="http://www.w3.org/2000/svg">
<path d="M20.659 7.00004H18.4844C18.4844 3.96671 16.0923 1.58337 13.0478 1.58337C10.0033 1.58337 7.61121 3.96671 7.61121 7.00004H5.43658C4.24053 7.00004 3.26195 7.97504 3.26195 9.16671V22.1667C3.26195 23.3584 4.24053 24.3334 5.43658 24.3334H20.659C21.8551 24.3334 22.8336 23.3584 22.8336 22.1667V9.16671C22.8336 7.97504 21.8551 7.00004 20.659 7.00004ZM13.0478 3.75004C14.8962 3.75004 16.3097 5.15837 16.3097 7.00004H9.78584C9.78584 5.15837 11.1994 3.75004 13.0478 3.75004ZM20.659 22.1667H5.43658V9.16671H20.659V22.1667ZM13.0478 13.5C11.1994 13.5 9.78584 12.0917 9.78584 10.25H7.61121C7.61121 13.2834 10.0033 15.6667 13.0478 15.6667C16.0923 15.6667 18.4844 13.2834 18.4844 10.25H16.3097C16.3097 12.0917 14.8962 13.5 13.0478 13.5Z" fill="#404041"/>
</svg>
