<svg width="26" height="26" viewBox="0 0 26 26" fill="none" xmlns="http://www.w3.org/2000/svg">
<g clip-path="url(#clip0_164_12)">
<path d="M13.1729 1.99984C13.0576 1.99984 12.9429 1.99984 12.8277 1.99984C12.7908 2.01822 12.7557 2.0412 12.717 2.05384C11.0637 2.60529 9.40979 3.15444 7.75644 3.70762C7.29542 3.86156 7.17671 4.03217 7.17671 4.51296C7.17671 6.83422 7.17498 9.15606 7.18017 11.4773C7.18017 11.629 7.14098 11.6985 6.98826 11.7485C5.50204 12.2344 4.0187 12.729 2.53594 13.2247C2.1337 13.3591 2.00115 13.5522 2.00115 13.9761C2.00115 16.4984 2.00115 19.0201 2.00115 21.5424C2.00115 21.9641 2.14119 22.1611 2.53767 22.2932C4.19159 22.8441 5.84608 23.391 7.49885 23.9453C7.72072 24.0194 7.92587 24.0182 8.14831 23.9436C9.69159 23.4248 11.2372 22.9113 12.7856 22.407C12.9153 22.3644 13.0836 22.3673 13.2138 22.4098C14.7617 22.9142 16.3073 23.4277 17.8511 23.9447C18.073 24.0188 18.2781 24.0182 18.5006 23.9436C20.1533 23.3892 21.8084 22.8429 23.4629 22.2932C23.8571 22.1623 24 21.9623 24 21.543C24 19.0207 24 16.499 24 13.9767C24 13.5441 23.8623 13.3574 23.445 13.219C21.9744 12.7307 20.5049 12.2396 19.0325 11.7576C18.8659 11.7031 18.8193 11.6272 18.8198 11.4555C18.8262 9.13423 18.8244 6.8124 18.8239 4.49113C18.8239 4.03963 18.6919 3.85697 18.2649 3.71508C17.053 3.31241 15.8405 2.91261 14.6297 2.50706C14.1422 2.34392 13.6587 2.1693 13.1729 1.99927V1.99984ZM13.6541 12.968C13.6506 12.9036 13.6477 12.8749 13.6477 12.8468C13.6477 10.8058 13.6489 8.76545 13.6437 6.72451C13.6437 6.5809 13.6979 6.52863 13.8235 6.48727C14.8792 6.14147 15.9333 5.78934 16.9878 5.43951C17.1619 5.3815 17.3365 5.32463 17.5163 5.26604C17.5226 5.31027 17.5284 5.33152 17.5284 5.35278C17.529 7.41497 17.5284 9.47717 17.5319 11.5394C17.5319 11.6548 17.4898 11.6973 17.3832 11.7312C16.8709 11.8944 16.362 12.0678 15.852 12.2373C15.1253 12.4791 14.3986 12.7204 13.6535 12.968H13.6541ZM12.3534 12.9645C12.2681 12.9392 12.1996 12.9214 12.1327 12.899C10.9825 12.5176 9.83393 12.1327 8.68195 11.7582C8.51771 11.7048 8.46584 11.633 8.46642 11.4584C8.47391 9.46797 8.47103 7.47701 8.47161 5.48662C8.47161 5.41883 8.47737 5.35105 8.4814 5.26719C8.56727 5.29533 8.63469 5.31716 8.70154 5.33899C9.85122 5.71984 11.0003 6.10413 12.1523 6.47808C12.3079 6.52863 12.358 6.59641 12.3575 6.76185C12.3505 8.75971 12.3534 10.7576 12.3528 12.7548C12.3528 12.818 12.3528 12.8818 12.3528 12.9634L12.3534 12.9645ZM18.8337 22.4701C18.8291 22.4156 18.8244 22.3869 18.8244 22.3587C18.8244 20.3109 18.8256 18.263 18.8204 16.2152C18.8204 16.0791 18.8717 16.0314 18.991 15.9929C19.5776 15.8039 20.162 15.6069 20.7475 15.4127C21.3923 15.1985 22.0372 14.9842 22.7068 14.7619C22.7068 14.863 22.7068 14.94 22.7068 15.0164C22.7068 16.9137 22.7068 18.8116 22.7068 20.7089C22.7068 21.0241 22.5591 21.2311 22.2637 21.3299C21.1284 21.7079 19.9931 22.0847 18.8342 22.4701H18.8337ZM13.6558 14.774C13.7336 14.7975 13.8016 14.8165 13.8685 14.8389C15.0187 15.2197 16.1672 15.6046 17.3192 15.978C17.484 16.0314 17.5347 16.1032 17.5342 16.2767C17.5272 18.2671 17.5295 20.258 17.529 22.2484C17.529 22.3162 17.5226 22.3846 17.5192 22.4673C17.4673 22.4512 17.4339 22.4414 17.401 22.4305C16.2035 22.033 15.0072 21.6326 13.8074 21.242C13.6662 21.1961 13.6449 21.122 13.6449 20.9927C13.6483 18.9805 13.6472 16.9683 13.6477 14.9566C13.6477 14.9003 13.6523 14.8446 13.6558 14.774ZM8.48659 22.4684C8.47794 22.4271 8.47276 22.4133 8.47276 22.3995C8.47161 20.3298 8.47276 18.2607 8.46757 16.1916C8.46757 16.0544 8.54076 16.0274 8.64103 15.994C9.26745 15.7878 9.89328 15.5793 10.5191 15.3714C11.1231 15.1709 11.7276 14.9704 12.3534 14.7625V17.3175C12.3534 18.5422 12.3505 19.7663 12.3569 20.991C12.3575 21.138 12.3194 21.2076 12.1736 21.246C11.9523 21.3041 11.7374 21.3873 11.5195 21.4597C10.5139 21.794 9.50775 22.1284 8.48659 22.4678V22.4684ZM7.17671 22.4673C7.09084 22.442 7.02284 22.4242 6.95599 22.4018C5.80574 22.0204 4.65722 21.6355 3.50524 21.261C3.341 21.2076 3.28913 21.1357 3.28971 20.9611C3.2972 18.9707 3.29432 16.9798 3.2949 14.9894C3.2949 14.9216 3.30066 14.8538 3.3047 14.7699C3.39056 14.7981 3.45799 14.8199 3.52483 14.8417C4.67451 15.2226 5.82361 15.6069 6.97559 15.9808C7.13118 16.0314 7.18132 16.0992 7.18074 16.2646C7.17383 18.2625 7.17613 20.2603 7.17613 22.2576V22.4661L7.17671 22.4673ZM9.94745 4.38946C9.94861 4.3728 9.94976 4.35557 9.95091 4.33891C10.9023 4.02183 11.8532 3.70015 12.8075 3.39283C12.9251 3.35492 13.0772 3.35894 13.1959 3.39685C14.0632 3.67372 14.9259 3.96381 15.7898 4.2516C15.8785 4.28089 15.9644 4.31938 16.0981 4.37165C15.1726 4.6807 14.2995 4.96159 13.4357 5.26776C13.1291 5.37633 12.8525 5.39299 12.5494 5.26317C12.267 5.14196 11.9667 5.06326 11.674 4.96561C11.0983 4.77375 10.5232 4.58189 9.94745 4.39061V4.38946ZM15.07 13.8738C15.1524 13.8382 15.1766 13.8256 15.2025 13.817C16.1551 13.5005 17.1066 13.1816 18.0615 12.8715C18.141 12.8456 18.2453 12.8554 18.3271 12.8818C19.0567 13.1185 19.7839 13.362 20.5118 13.6044C20.7504 13.6837 20.9889 13.7658 21.2269 13.8463C20.5216 14.1249 19.8064 14.3184 19.1293 14.6028C18.4729 14.8779 17.873 14.8762 17.2178 14.6028C16.5401 14.3202 15.8249 14.1254 15.07 13.8733V13.8738ZM4.71369 13.8727C4.80129 13.8371 4.82665 13.825 4.85258 13.8164C5.80517 13.4999 6.7566 13.1811 7.7115 12.8709C7.79102 12.845 7.89533 12.8565 7.97774 12.8829C8.87039 13.1742 9.76074 13.4723 10.6517 13.7687C10.7272 13.794 10.8015 13.8239 10.9312 13.8715C9.99125 14.1852 9.1107 14.4661 8.24109 14.7757C7.94604 14.8808 7.68383 14.8929 7.39627 14.7711C7.14617 14.6648 6.88108 14.5953 6.62233 14.5092C6.00571 14.3035 5.38909 14.0979 4.71369 13.8733V13.8727Z" fill="#404041"/>
</g>
<defs>
<clipPath id="clip0_164_12">
<rect width="22" height="22" fill="white" transform="matrix(-1 0 0 1 24 2)"/>
</clipPath>
</defs>
</svg>
