<svg width="26" height="26" viewBox="0 0 26 26" fill="none" xmlns="http://www.w3.org/2000/svg">
<path d="M18.9416 21.714C18.4516 21.7154 18.0276 21.5579 17.6332 21.3235C17.3549 21.1579 17.1047 21.1572 16.7852 21.2555C16.0382 21.4858 15.6136 21.9635 15.3875 22.6943C15.1497 23.4649 14.5567 23.8595 13.7878 23.9543C13.3074 24.0135 12.8099 24.0148 12.3275 23.9674C11.4232 23.878 10.804 23.3817 10.534 22.5045C10.3533 21.9161 9.98974 21.5353 9.41182 21.3325C8.98303 21.1819 8.58034 21.1833 8.17422 21.404C7.66228 21.6817 7.10223 21.8577 6.54287 21.6453C5.4482 21.2294 4.66207 20.478 4.32879 19.3224C4.22984 18.9808 4.22228 18.6357 4.414 18.3057C4.50334 18.1517 4.55762 17.9764 4.61809 17.8073C4.71567 17.533 4.9287 17.2924 4.8105 16.959C4.60641 16.383 4.37277 15.8365 3.76669 15.5649C3.68079 15.5264 3.59558 15.4824 3.50556 15.4577C2.53596 15.1965 2.08448 14.52 2.02195 13.5624C1.9924 13.1115 1.98415 12.6481 2.05218 12.2034C2.18137 11.3626 2.67202 10.7873 3.49731 10.5336C4.03056 10.37 4.40851 10.0538 4.62634 9.53201C4.82356 9.05906 4.83799 8.6081 4.58855 8.14958C4.30955 7.63607 4.19548 7.09163 4.35216 6.51281C4.3769 6.42207 4.40576 6.33064 4.44974 6.24815C4.86616 5.47272 5.4537 4.8561 6.2412 4.46495C6.86859 4.15354 7.51866 4.23534 8.11925 4.56187C8.55217 4.79698 8.9576 4.89872 9.43313 4.6753C9.95607 4.4292 10.3691 4.09923 10.5278 3.52591C10.7882 2.58619 11.4411 2.11805 12.368 2.02937C12.8504 1.98332 13.35 1.98744 13.8283 2.06031C14.6495 2.18542 15.1875 2.68587 15.4741 3.47367C15.5799 3.76514 15.694 4.11436 15.9194 4.29034C16.4574 4.71036 17.1116 5.00664 17.8277 4.61137C18.8673 4.03805 19.7091 4.19341 20.5633 5.01695C20.7791 5.22456 20.9914 5.43904 21.1838 5.66795C21.8009 6.40282 21.9376 7.29442 21.4257 8.0994C20.9454 8.8542 21.4003 10.2084 22.3589 10.4759C23.391 10.7639 24.0356 11.5599 23.9985 12.8434C23.9882 13.194 24.0019 13.5521 23.9332 13.8924C23.7724 14.6857 23.2955 15.2281 22.5114 15.4666C21.9569 15.6357 21.5769 15.9739 21.357 16.5122C21.1735 16.9611 21.1749 17.3845 21.392 17.8252C21.5226 18.0905 21.6264 18.3793 21.6848 18.6687C21.7899 19.1891 21.6841 19.6978 21.348 20.102C20.9838 20.5406 20.5743 20.9489 20.1421 21.3215C19.8053 21.6116 19.3731 21.7284 18.9395 21.7133L18.9416 21.714ZM12.9363 22.5341C12.9961 22.5382 13.0559 22.543 13.1157 22.5458C13.7128 22.5781 13.9884 22.3904 14.1684 21.8267C14.2282 21.6391 14.2743 21.4466 14.3437 21.263C14.4969 20.8554 14.7457 20.5302 15.1635 20.357C15.606 20.1735 16.0534 19.9989 16.4856 19.7933C16.9728 19.5616 17.4415 19.5726 17.9163 19.8153C18.1678 19.9439 18.4214 20.069 18.6811 20.1783C18.9491 20.2917 19.2075 20.2477 19.4219 20.0497C19.6232 19.8641 19.8136 19.6661 20.0026 19.4675C20.2568 19.2007 20.2946 18.8948 20.1386 18.5662C19.9984 18.2727 19.8521 17.9819 19.7016 17.6932C19.549 17.4004 19.5373 17.1089 19.6665 16.803C19.9173 16.2118 20.1627 15.6185 20.4039 15.0232C20.5248 14.7249 20.7268 14.5303 21.0361 14.4334C21.3707 14.3289 21.7013 14.2107 22.0318 14.0924C22.2922 13.9989 22.4798 13.825 22.5094 13.5411C22.5389 13.2606 22.5451 12.976 22.5437 12.6935C22.5417 12.2756 22.3314 12.0006 21.9349 11.8686C21.6587 11.7765 21.3852 11.6775 21.1055 11.5964C20.7495 11.4926 20.5166 11.2747 20.3812 10.9282C20.1943 10.4504 20.0005 9.97334 19.784 9.50864C19.5559 9.01987 19.5662 8.55104 19.8143 8.07878C19.9256 7.86636 20.0321 7.65188 20.1352 7.43534C20.3015 7.08613 20.2541 6.76991 19.9764 6.49493C19.8122 6.33201 19.6466 6.17047 19.4789 6.01029C19.1876 5.73326 18.8632 5.70164 18.5107 5.88449C18.2901 5.99861 18.073 6.12097 17.8476 6.22409C17.4662 6.39801 17.0766 6.43719 16.6773 6.27152C16.1874 6.06735 15.6988 5.86112 15.2033 5.6707C14.7505 5.4961 14.4866 5.15994 14.3347 4.71792C14.2488 4.46701 14.1746 4.21197 14.0846 3.96243C13.9836 3.68127 13.7891 3.50254 13.4799 3.48192C13.2408 3.46611 13.0002 3.45442 12.7604 3.45373C12.2615 3.45167 12.0059 3.63865 11.8458 4.11711C11.7778 4.3199 11.7214 4.52682 11.652 4.72892C11.5036 5.16063 11.2555 5.4961 10.8047 5.6652C10.3244 5.84531 9.85162 6.04742 9.3809 6.25296C8.91912 6.45506 8.48139 6.39594 8.04572 6.17665C7.77841 6.04192 7.51179 5.90237 7.23211 5.79857C7.12147 5.75732 6.94281 5.76007 6.85347 5.824C6.55043 6.04192 6.26319 6.28458 5.99038 6.5403C5.71964 6.79397 5.69833 7.11019 5.85432 7.4374C5.96839 7.67732 6.10308 7.90692 6.21371 8.14821C6.38826 8.52905 6.43224 8.91813 6.26525 9.31822C6.06116 9.80767 5.8557 10.2971 5.66397 10.7921C5.48874 11.2444 5.14791 11.5063 4.71018 11.6624C4.46073 11.7517 4.2051 11.8246 3.95497 11.914C3.68285 12.0116 3.50212 12.202 3.47876 12.4955C3.45608 12.7856 3.45814 13.0778 3.46089 13.3693C3.46433 13.7625 3.67873 14.0058 4.03812 14.1316C4.32124 14.2299 4.60298 14.3323 4.89159 14.4135C5.26335 14.5173 5.48462 14.7565 5.62206 15.1091C5.8021 15.5718 5.99038 16.0317 6.19997 16.4813C6.43086 16.9769 6.42605 17.4554 6.17592 17.9372C6.07353 18.1345 5.97733 18.336 5.87562 18.5339C5.6839 18.9093 5.73407 19.2447 6.0378 19.5396C6.19791 19.695 6.35527 19.8531 6.51745 20.005C6.793 20.2628 7.10567 20.3048 7.44238 20.1432C7.73581 20.003 8.02579 19.8552 8.31509 19.7067C8.59065 19.5644 8.87033 19.5431 9.15757 19.6627C9.7183 19.8971 10.277 20.1363 10.8391 20.3673C11.1937 20.5131 11.428 20.7743 11.5785 21.1146C11.6513 21.2782 11.7077 21.45 11.7599 21.6219C12.0155 22.4571 12.0554 22.4894 12.9329 22.5348L12.9363 22.5341Z" fill="#404041"/>
<path d="M13.0114 7.86218C15.8062 7.86218 18.1425 10.2022 18.1364 12.9939C18.1302 15.8206 15.8082 18.1448 12.9984 18.1372C10.1741 18.1297 7.85761 15.8103 7.86035 12.9932C7.8631 10.1775 10.1878 7.86218 13.0114 7.86218ZM13.0066 9.34497C10.9698 9.34085 9.34671 10.9598 9.34328 12.9987C9.34053 15.0177 10.9691 16.6572 12.9784 16.6579C14.987 16.6579 16.6266 15.0252 16.6383 13.0131C16.65 11.0065 15.009 9.34979 13.0059 9.34566L13.0066 9.34497Z" fill="#404041"/>
</svg>
