<svg width="26" height="26" viewBox="0 0 26 26" fill="none" xmlns="http://www.w3.org/2000/svg">
<path d="M13.0478 9.16663C14.2013 9.16663 15.3075 9.62317 16.1232 10.4358C16.9388 11.2485 17.3971 12.3507 17.3971 13.5C17.3971 14.6492 16.9388 15.7514 16.1232 16.5641C15.3075 17.3767 14.2013 17.8333 13.0478 17.8333C11.8943 17.8333 10.788 17.3767 9.9724 16.5641C9.15676 15.7514 8.69853 14.6492 8.69853 13.5C8.69853 12.3507 9.15676 11.2485 9.9724 10.4358C10.788 9.62317 11.8943 9.16663 13.0478 9.16663ZM13.0478 11.3333C12.471 11.3333 11.9179 11.5616 11.5101 11.9679C11.1023 12.3742 10.8732 12.9253 10.8732 13.5C10.8732 14.0746 11.1023 14.6257 11.5101 15.032C11.9179 15.4384 12.471 15.6666 13.0478 15.6666C13.6245 15.6666 14.1777 15.4384 14.5855 15.032C14.9933 14.6257 15.2224 14.0746 15.2224 13.5C15.2224 12.9253 14.9933 12.3742 14.5855 11.9679C14.1777 11.5616 13.6245 11.3333 13.0478 11.3333ZM10.8732 24.3333C10.6013 24.3333 10.373 24.1383 10.3295 23.8783L9.9272 21.0075C9.24219 20.7366 8.65504 20.3683 8.08964 19.935L5.38222 21.0291C5.14301 21.1158 4.84944 21.0291 4.71896 20.7908L2.54432 17.0425C2.47778 16.9308 2.45432 16.7989 2.47833 16.6713C2.50234 16.5437 2.57219 16.4291 2.6748 16.3491L4.96904 14.5508L4.89293 13.5L4.96904 12.4166L2.6748 10.6508C2.57219 10.5708 2.50234 10.4562 2.47833 10.3286C2.45432 10.201 2.47778 10.0691 2.54432 9.95746L4.71896 6.20913C4.84944 5.97079 5.14301 5.87329 5.38222 5.97079L8.08964 7.05413C8.65504 6.63163 9.24219 6.26329 9.9272 5.99246L10.3295 3.12163C10.373 2.86163 10.6013 2.66663 10.8732 2.66663H15.2224C15.4943 2.66663 15.7226 2.86163 15.7661 3.12163L16.1684 5.99246C16.8534 6.26329 17.4406 6.63163 18.006 7.05413L20.7134 5.97079C20.9526 5.87329 21.2462 5.97079 21.3766 6.20913L23.5513 9.95746C23.6926 10.1958 23.6274 10.4883 23.4208 10.6508L21.1266 12.4166L21.2027 13.5L21.1266 14.5833L23.4208 16.3491C23.6274 16.5116 23.6926 16.8041 23.5513 17.0425L21.3766 20.7908C21.2462 21.0291 20.9526 21.1266 20.7134 21.0291L18.006 19.9458C17.4406 20.3683 16.8534 20.7366 16.1684 21.0075L15.7661 23.8783C15.7226 24.1383 15.4943 24.3333 15.2224 24.3333H10.8732ZM12.2323 4.83329L11.83 7.66079C10.5252 7.93163 9.37267 8.62496 8.53544 9.58913L5.915 8.46246L5.09952 9.87079L7.39375 11.55C6.95883 12.8138 6.95883 14.1861 7.39375 15.45L5.08864 17.14L5.90413 18.5483L8.54631 17.4216C9.38354 18.375 10.5252 19.0683 11.8191 19.3283L12.2214 22.1666H13.8742L14.2765 19.3391C15.5704 19.0683 16.7121 18.375 17.5493 17.4216L20.1915 18.5483L21.007 17.14L18.7018 15.4608C19.1368 14.1933 19.1368 12.8175 18.7018 11.55L20.9961 9.87079L20.1806 8.46246L17.5602 9.58913C16.7058 8.60364 15.5468 7.92911 14.2656 7.67163L13.8633 4.83329H12.2323Z" fill="#404041"/>
</svg>
