<svg width="26" height="26" viewBox="0 0 26 26" fill="none" xmlns="http://www.w3.org/2000/svg">
<path fill-rule="evenodd" clip-rule="evenodd" d="M17.757 18.0384L21.4776 13.7131C21.6553 13.5112 21.7462 13.2563 21.7463 13C21.7464 12.8247 21.704 12.6487 21.6178 12.4886C21.5795 12.4173 21.5327 12.3495 21.4776 12.2869L17.757 7.96163C17.3663 7.50734 16.6798 7.45469 16.2239 7.84404C15.7679 8.23339 15.7151 8.91729 16.1059 9.37158L18.2951 11.9166L9.8742 11.9166C9.27369 11.9166 8.78688 12.4016 8.78688 12.9999C8.78688 13.5982 9.27369 14.0833 9.8742 14.0833L18.2952 14.0833L16.1059 16.6284C15.7151 17.0827 15.7679 17.7666 16.2239 18.156C16.6798 18.5453 17.3663 18.4927 17.757 18.0384ZM10.8731 6.49992C11.4737 6.49992 11.9605 6.98494 11.9605 7.58325L11.9605 9.20825C11.9605 9.80656 12.4473 10.2916 13.0478 10.2916C13.6483 10.2916 14.1351 9.80656 14.1351 9.20825L14.1351 7.58325C14.1351 5.78833 12.6747 4.33325 10.8731 4.33325L7.61119 4.33325C5.80967 4.33325 4.34925 5.78833 4.34924 7.58325L4.34924 18.4166C4.34924 20.2115 5.80967 21.6666 7.61119 21.6666L10.8731 21.6666C12.6747 21.6666 14.1351 20.2115 14.1351 18.4166L14.1351 16.7916C14.1351 16.1933 13.6483 15.7083 13.0478 15.7083C12.4473 15.7083 11.9605 16.1933 11.9605 16.7916L11.9605 18.4166C11.9605 19.0149 11.4737 19.4999 10.8731 19.4999L7.61119 19.4999C7.01069 19.4999 6.52388 19.0149 6.52388 18.4166L6.52388 7.58325C6.52388 6.98494 7.01069 6.49992 7.61119 6.49992L10.8731 6.49992Z" fill="#404041"/>
</svg>
