<svg width="26" height="26" viewBox="0 0 26 26" fill="none" xmlns="http://www.w3.org/2000/svg">
<g clip-path="url(#clip0_164_34)">
<path d="M23.116 4.73144C22.9929 3.76679 22.2335 3.00735 21.2688 2.88422L14.4754 2.01708C14.3861 2.00578 14.2952 2 14.2051 2C13.9244 2 13.6504 2.05427 13.3906 2.16142C13.1295 2.26912 12.8956 2.42531 12.6959 2.62501L2.6253 12.6955C2.22202 13.0988 2 13.6348 2 14.205C2 14.7752 2.22202 15.3112 2.6253 15.7145L10.2859 23.375C10.6892 23.7783 11.2252 24.0003 11.7954 24.0003C12.3656 24.0003 12.9017 23.7783 13.3049 23.375L23.3753 13.3048C23.6044 13.0756 23.781 12.7922 23.8857 12.4856C23.9904 12.179 24.0242 11.8468 23.9832 11.5253L23.1163 4.73172L23.116 4.73144ZM22.2627 12.1922L12.1923 22.2624C12.0827 22.372 11.9389 22.4269 11.7951 22.4269C11.6513 22.4269 11.5076 22.372 11.3979 22.2624L3.73734 14.6022C3.51807 14.3829 3.51807 14.027 3.73734 13.8078L13.8079 3.73731C13.914 3.63126 14.0572 3.57286 14.2051 3.57286C14.2288 3.57286 14.2525 3.57424 14.2762 3.57727L21.0699 4.44414C21.3239 4.47664 21.5236 4.67635 21.5561 4.93032L22.423 11.7239C22.445 11.8964 22.3861 12.0694 22.2629 12.1922H22.2627Z" fill="#404041"/>
<path d="M17.6079 5.94128C16.9531 5.94128 16.3378 6.19636 15.8747 6.65913C15.4117 7.12217 15.1569 7.73755 15.1569 8.39231C15.1569 9.04707 15.4117 9.66245 15.8747 10.1255C16.3378 10.5883 16.9531 10.8433 17.6079 10.8433C18.2627 10.8433 18.8781 10.5883 19.3411 10.1255C19.8042 9.66272 20.059 9.04707 20.059 8.39231C20.059 7.73755 19.8042 7.12217 19.3411 6.6594C18.8783 6.19636 18.2627 5.94156 17.6079 5.94156V5.94128ZM18.2288 9.01319C18.0575 9.18453 17.8327 9.27047 17.6079 9.27047C17.3831 9.27047 17.1586 9.1848 16.987 9.01319C16.6441 8.67025 16.6441 8.11437 16.987 7.77143C17.1584 7.60009 17.3831 7.51415 17.6079 7.51415C17.8327 7.51415 18.0572 7.59982 18.2288 7.77143C18.5718 8.11437 18.5718 8.67025 18.2288 9.01319Z" fill="#404041"/>
</g>
<defs>
<clipPath id="clip0_164_34">
<rect width="22" height="22" fill="white" transform="translate(2 2)"/>
</clipPath>
</defs>
</svg>
