<svg width="26" height="26" viewBox="0 0 26 26" fill="none" xmlns="http://www.w3.org/2000/svg">
<g clip-path="url(#clip0_342_28)">
<path d="M4.06416 0H21.9476V21.9475H24.3711V22.7548H20.3339V23.5617H25.9934V24.3716H25.6977C23.9114 24.3716 22.1247 24.3741 20.3385 24.3675C20.1756 24.367 20.0759 24.4158 19.9817 24.5461C19.6747 24.9714 19.351 25.3844 19.0441 25.8097C18.9453 25.9461 18.8399 26.001 18.6679 26C16.6786 25.9934 14.6887 25.9959 12.6989 25.9959C11.66 25.9959 10.8954 25.5396 10.4403 24.6046C10.3446 24.4082 10.2291 24.367 10.0321 24.3675C6.68773 24.3726 3.34387 24.3711 -0.000488281 24.3711V23.5586H9.90534C9.79895 23.3424 9.69613 23.1679 9.62486 22.9812C9.5536 22.7945 9.44466 22.7406 9.24461 22.7411C6.80633 22.7492 4.36805 22.7462 1.92977 22.7462H1.63861V21.9292H4.06416V0ZM9.75568 9.74618C9.75568 9.15301 9.74652 8.58781 9.75721 8.02262C9.79641 6.0106 11.7399 4.5002 13.7027 4.94991C15.211 5.29584 16.2474 6.58648 16.2566 8.13454C16.2596 8.66514 16.2566 9.19523 16.2566 9.75331H17.0502V16.2553H14.6475V17.4666C14.9254 17.4666 15.1866 17.4625 15.4477 17.4676C15.8234 17.4748 16.1909 17.5933 16.3655 17.9174C16.5635 18.2847 16.8359 18.3065 17.1723 18.2801C17.2899 18.2709 17.4095 18.274 17.5276 18.2821C17.9425 18.3096 18.2917 18.4825 18.4907 18.8478C18.6042 19.0564 18.7356 19.0971 18.9473 19.0951C19.8417 19.0864 20.3202 19.5738 20.3207 20.4752C20.3207 20.955 20.3207 21.4342 20.3207 21.917H21.1143V0.824646H4.89185V21.9165H5.70376V13.8252H6.51058V21.9175H9.08528C8.95446 21.6519 8.83433 21.4118 8.71725 21.1696C8.55232 20.8283 8.51465 20.4701 8.61697 20.1074C8.78801 19.499 9.19218 19.1113 9.81117 18.9969C10.4617 18.8763 10.9942 19.1062 11.377 19.6511C11.5083 19.8383 11.6218 20.0377 11.7725 20.2778V16.2396H8.96362V9.74669H9.7567L9.75568 9.74618ZM17.8829 21.1157C17.8829 20.577 17.8819 20.0627 17.8829 19.5483C17.8835 19.3153 17.7827 19.1327 17.5511 19.1068C17.2624 19.0747 16.9672 19.0991 16.6567 19.0991V20.2936H15.8504C15.8504 19.763 15.8499 19.2482 15.8504 18.7333C15.8504 18.5004 15.748 18.3187 15.5164 18.2938C15.2278 18.2628 14.9331 18.2862 14.6231 18.2862V19.4802H13.8188V19.1876C13.8188 17.6645 13.8188 16.1414 13.8188 14.6183C13.8188 14.5338 13.8229 14.4483 13.8137 14.3644C13.7801 14.052 13.5246 13.817 13.2187 13.8119C12.903 13.8068 12.6358 14.0475 12.6037 14.37C12.5956 14.4539 12.5997 14.5389 12.5997 14.6239C12.5997 16.9594 12.5997 19.295 12.5997 21.63C12.5997 21.7277 12.5997 21.8249 12.5997 21.9337C12.4276 21.9337 12.2907 21.9195 12.1583 21.9368C11.9104 21.9699 11.7633 21.8808 11.6386 21.656C11.3556 21.1462 11.0441 20.6523 10.7361 20.1568C10.5075 19.789 10.1013 19.6725 9.7511 19.8607C9.40292 20.0484 9.27363 20.464 9.46451 20.8486C10.0428 22.0146 10.621 23.1811 11.2161 24.339C11.4986 24.8884 11.9761 25.1774 12.5936 25.1799C14.4984 25.1886 16.4037 25.1855 18.3085 25.1774C18.4067 25.1774 18.535 25.1118 18.5971 25.0349C18.8781 24.686 19.1428 24.3232 19.4075 23.9615C19.4548 23.8969 19.5042 23.8135 19.5047 23.7387C19.5108 22.5966 19.5108 21.454 19.5063 20.3119C19.5052 20.0891 19.3754 19.9436 19.155 19.9121C19.0094 19.8912 18.8583 19.908 18.6826 19.908V21.1157H17.8835H17.8829ZM11.7867 15.4241C11.7867 15.0909 11.7852 14.7866 11.7867 14.4824C11.7918 13.64 12.3961 13.0041 13.1968 12.9985C14.0102 12.9929 14.6256 13.6293 14.6312 14.4834C14.6333 14.7938 14.6312 15.1041 14.6312 15.418H16.2367V10.5749H9.77095V15.4241H11.7862H11.7867ZM10.6114 9.72889H15.4396C15.4396 9.12605 15.4625 8.54152 15.435 7.95954C15.3775 6.75742 14.367 5.76031 13.1688 5.69163C11.9216 5.6199 10.7824 6.47558 10.6272 7.69093C10.5421 8.35482 10.6119 9.03855 10.6119 9.72889H10.6114Z" fill="#404041"/>
<path d="M0 21.9342H0.79514V22.7466H0V21.9342Z" fill="#404041"/>
<path d="M25.9998 21.9485V22.7279H25.2158V21.9485H25.9998Z" fill="#404041"/>
<path d="M6.4985 2.45508V8.11059H5.70898V1.64111H20.3071V18.2648H19.5212V2.45508H6.4985Z" fill="#404041"/>
<path d="M8.1276 10.9646C8.1276 11.2434 8.13371 11.5227 8.12658 11.8014C8.10877 12.4765 7.56614 13.002 6.89879 12.9975C6.24417 12.9929 5.7051 12.4684 5.69289 11.806C5.6822 11.2485 5.68271 10.6899 5.69289 10.1323C5.70459 9.45875 6.25283 8.93222 6.91966 8.9368C7.5753 8.94138 8.10775 9.46384 8.12608 10.1277C8.13371 10.4065 8.1276 10.6858 8.1276 10.9646ZM6.50327 10.9666C6.50327 11.2291 6.49767 11.4911 6.5048 11.7536C6.51192 12.0126 6.67838 12.1835 6.90846 12.184C7.13855 12.184 7.30958 12.0136 7.31264 11.7541C7.31925 11.2296 7.31925 10.7051 7.31264 10.1806C7.30958 9.92067 7.13956 9.75076 6.90897 9.75076C6.67787 9.75076 6.51192 9.92017 6.5048 10.1801C6.49767 10.4421 6.50327 10.7046 6.50327 10.9666Z" fill="#404041"/>
<path d="M11.1975 12.8748C11.0163 12.6784 10.8458 12.4938 10.6758 12.3101C11.9051 11.053 14.1617 11.0881 15.3345 12.3127C15.1639 12.4968 14.9929 12.682 14.8168 12.8723C13.6144 11.956 12.4152 11.9443 11.1975 12.8748Z" fill="#404041"/>
</g>
<defs>
<clipPath id="clip0_342_28">
<rect width="26" height="26" fill="white"/>
</clipPath>
</defs>
</svg>
