<svg width="26" height="26" viewBox="0 0 26 26" fill="none" xmlns="http://www.w3.org/2000/svg">
<g clip-path="url(#clip0_342_11)">
<path d="M6.49159 11.2581C6.21002 10.9872 5.92635 10.7199 5.64898 10.4449C5.366 10.1642 5.366 9.96829 5.64758 9.68626C6.85162 8.48115 8.05636 7.27745 9.2625 6.07444C9.53427 5.80291 9.73599 5.79941 10.0036 6.06605C11.2167 7.27465 12.4277 8.48465 13.6374 9.69605C13.9057 9.96409 13.9036 10.1656 13.6332 10.4372C13.3558 10.715 13.0714 10.9858 12.8081 11.3225H13.0756C15.5054 11.3225 17.9352 11.3225 20.3643 11.3225C20.8693 11.3225 21.0108 11.4904 20.9282 11.9782C20.7671 12.9328 20.6081 13.8873 20.4505 14.8426C20.4379 14.9175 20.4386 14.9951 20.4316 15.0945C21.118 15.0945 21.7897 15.0945 22.4614 15.0945C22.9412 15.0945 23.0624 15.2163 23.0624 15.6992C23.0624 17.0701 23.0624 18.4404 23.0624 19.8114V20.1235C23.1759 20.1235 23.269 20.1235 23.3622 20.1235C24.0787 20.1235 24.7953 20.1214 25.5118 20.1249C25.8284 20.1263 25.9958 20.2781 25.9965 20.5805C26.0007 22.2307 26 23.8809 25.9965 25.5311C25.9965 25.825 25.834 25.9782 25.5412 25.9908C25.4887 25.9929 25.4362 25.9908 25.3836 25.9908C21.5992 25.9908 17.8148 25.9908 14.031 25.9908C13.5295 25.9908 13.4126 25.8747 13.4126 25.3778C13.4126 24.7584 13.4126 24.1384 13.4126 23.4974H9.44041C9.82985 24.4379 9.65754 25.2357 8.75259 25.7816C8.14881 26.1455 7.38324 26.0377 6.85022 25.5709C6.27376 25.0664 6.14628 24.3714 6.48949 23.4764C6.07134 23.4764 5.66789 23.4764 5.26514 23.4764C4.73351 23.4764 4.65366 23.4148 4.56541 22.885C4.01557 19.5902 3.46853 16.2954 2.9194 13.0006C2.80383 12.305 2.68475 11.6101 2.56428 10.8977H0V10.0824C0.0658405 10.0761 0.132381 10.0649 0.198222 10.0649C1.07236 10.0635 1.9465 10.0628 2.81994 10.0649C3.16455 10.0649 3.29273 10.1726 3.34946 10.51C3.89159 13.753 4.43233 16.996 4.97446 20.2383C5.10684 21.0291 5.24063 21.8192 5.37651 22.6226H13.3936V22.2195H13.0897C10.8784 22.2195 8.66713 22.2195 6.45587 22.2195C6.0188 22.2195 5.91584 22.1404 5.8444 21.7156C5.39332 19.0325 4.94574 16.3486 4.49747 13.6648C4.39941 13.0797 4.30205 12.4947 4.20329 11.9103C4.13815 11.5282 4.30415 11.3246 4.69429 11.3232C5.27915 11.3204 5.86401 11.3225 6.44887 11.3225L6.49159 11.2574V11.2581ZM16.3502 20.1249V15.9343C16.3502 15.1288 16.3831 15.0952 17.1886 15.0952H19.5602C19.6303 14.6697 19.6975 14.2645 19.7655 13.8516H5.38001C5.80027 16.3689 6.21773 18.8687 6.63448 21.3692H13.3831C13.395 21.3412 13.4077 21.3265 13.4077 21.3111C13.4105 21.1018 13.4119 20.8919 13.4126 20.6826C13.4147 20.2579 13.5491 20.1249 13.9813 20.1249C14.7581 20.1242 15.5349 20.1249 16.3495 20.1249H16.3502ZM20.9653 15.9462C20.9653 16.4627 20.966 16.9666 20.9653 17.4704C20.9646 17.8945 20.828 18.0282 20.3966 18.0289C19.942 18.0296 19.4881 18.0289 19.0335 18.0289C18.5733 18.0289 18.4487 17.9015 18.4487 17.4347C18.4487 16.9407 18.4487 16.4459 18.4487 15.9525H17.2033V20.1088H22.2058V15.9462H20.966H20.9653ZM14.2713 20.9759V25.142H19.2717V20.9815H18.0284C18.0284 21.5056 18.0298 22.0109 18.0284 22.5162C18.027 22.9116 17.8848 23.0565 17.4961 23.0579C17.024 23.06 16.5526 23.0593 16.0805 23.0579C15.649 23.0572 15.5131 22.9242 15.5124 22.4994C15.511 21.9955 15.5124 21.4916 15.5124 20.9752H14.2727L14.2713 20.9759ZM23.9022 20.9759C23.9022 21.5245 23.9057 22.0557 23.9008 22.5862C23.898 22.8738 23.7488 23.0495 23.4827 23.0537C22.9237 23.0635 22.3641 23.0628 21.8051 23.0537C21.5558 23.0495 21.4038 22.8871 21.3877 22.6387C21.3793 22.4994 21.3849 22.3594 21.3849 22.2195C21.3849 21.8045 21.3849 21.3895 21.3849 20.9752H20.1423V25.135H25.1483V20.9752H23.9022V20.9759ZM20.0435 12.1727H5.10474C5.14957 12.452 5.1923 12.7151 5.23642 12.9873H19.9112C19.9553 12.7144 19.998 12.4513 20.0428 12.1727H20.0435ZM12.7724 10.1285C11.6937 9.05151 10.6416 8.00107 9.62462 6.98562C9.43621 7.15638 9.21837 7.35373 8.97462 7.57487C9.27091 7.8632 9.56158 8.13964 9.84526 8.42167C10.1366 8.71209 10.1338 8.90315 9.83895 9.19988C9.50065 9.54069 9.15954 9.87941 8.81913 10.2188C8.46051 10.5764 8.29731 10.5799 7.94779 10.2265C7.67883 9.95499 7.41616 9.67786 7.17241 9.42592C6.92796 9.67156 6.71713 9.88431 6.5 10.1027C6.86703 10.4708 7.24596 10.8578 7.6354 11.2329C7.69423 11.2896 7.8042 11.3183 7.89036 11.3183C9.05237 11.3239 10.2151 11.3232 11.3771 11.3197C11.4584 11.3197 11.5648 11.3085 11.6173 11.2588C12.0208 10.8753 12.4144 10.4813 12.7717 10.1285H12.7724ZM8.79741 24.3232C8.80302 23.8697 8.42759 23.4841 7.97371 23.4785C7.51492 23.4729 7.13249 23.8389 7.12198 24.2945C7.11078 24.7612 7.49111 25.151 7.9583 25.1517C8.41568 25.1517 8.79181 24.7801 8.79741 24.3225V24.3232ZM20.1045 17.1849V15.9511H19.3067V17.1849H20.1045ZM17.1802 20.9836H16.3642V22.2034H17.1802V20.9836ZM22.2366 22.2055H23.047V20.9822H22.2366V22.2055ZM8.38066 8.19072C8.16703 8.39647 7.9562 8.59942 7.75727 8.79118C7.97651 9.00532 8.19154 9.21457 8.39327 9.41122C8.59149 9.22017 8.80232 9.01652 9.01945 8.80727C8.80302 8.59802 8.59149 8.39437 8.38066 8.19072Z" fill="#404041"/>
<path d="M22.263 4.18773C22.1888 4.3144 22.1453 4.44317 22.0592 4.52995C20.8341 5.76235 19.6049 6.99054 18.3728 8.21664C18.1361 8.45248 17.9231 8.45388 17.6885 8.22084C16.4564 6.99544 15.2272 5.76725 14 4.53625C13.7668 4.30251 13.7696 4.08906 14.0042 3.85322C15.2251 2.62922 16.4487 1.40732 17.6738 0.186819C17.9217 -0.0602203 18.1312 -0.0637194 18.377 0.18122C19.6028 1.40102 20.8257 2.62292 22.0452 3.84902C22.1327 3.9365 22.1832 4.06107 22.263 4.18773ZM18.0716 1.0903C17.0147 2.14634 15.9633 3.19678 14.9547 4.20453C15.9731 5.22278 17.0203 6.26972 18.0338 7.28307C19.0578 6.26062 20.1057 5.21438 21.1101 4.21083C20.9259 4.01348 20.7207 3.79513 20.5056 3.56489C20.229 3.84412 19.9481 4.13105 19.663 4.41378C19.3821 4.69161 19.1874 4.68881 18.903 4.40678C18.5682 4.07506 18.2355 3.74054 17.9014 3.40673C17.5036 3.00922 17.5015 2.86996 17.8937 2.48085C18.1578 2.21912 18.4261 1.96088 18.6733 1.71944C18.4373 1.4724 18.2341 1.25965 18.0716 1.0896V1.0903ZM19.9019 2.97073C19.6805 2.74889 19.4683 2.53684 19.2841 2.35209C19.0873 2.54314 18.8771 2.74819 18.6901 2.93014C18.8932 3.13169 19.1062 3.34234 19.3233 3.55789C19.5096 3.36894 19.7106 3.16459 19.9019 2.97003V2.97073Z" fill="#404041"/>
</g>
<defs>
<clipPath id="clip0_342_11">
<rect width="26" height="26" fill="white"/>
</clipPath>
</defs>
</svg>
