<svg width="26" height="26" viewBox="0 0 26 26" fill="none" xmlns="http://www.w3.org/2000/svg">
<path d="M11.5813 1.99976H14.4169C14.7291 2.11082 14.8939 2.3364 14.9564 2.65755C15.0067 2.91671 15.0704 3.17458 15.1488 3.42685C15.1729 3.50477 15.2538 3.60292 15.3266 3.62186C16.2685 3.86337 17.1562 4.23015 17.9922 4.72694C18.0533 4.7631 18.1713 4.7588 18.2363 4.72393C18.4821 4.59306 18.7163 4.44023 18.9569 4.2986C19.3336 4.07689 19.5967 4.10574 19.9032 4.4101C20.4671 4.97017 21.0293 5.53196 21.589 6.09634C21.8929 6.40242 21.9213 6.6646 21.6988 7.04257C21.5571 7.28279 21.4043 7.51698 21.2734 7.76322C21.239 7.82822 21.2351 7.94618 21.2717 8.00731C21.7676 8.84376 22.1349 9.73101 22.3768 10.6729C22.3953 10.7457 22.4947 10.8266 22.5727 10.8499C22.8529 10.9338 23.1409 10.9928 23.425 11.0651C23.8138 11.1637 23.9955 11.388 23.9972 11.7845C24.0006 12.5938 24.0006 13.4027 23.9972 14.212C23.9955 14.6102 23.8151 14.8337 23.4263 14.9327C23.1422 15.005 22.8546 15.064 22.5744 15.1484C22.496 15.1716 22.3957 15.2517 22.3772 15.324C22.1361 16.2659 21.7689 17.1536 21.2734 17.99C21.2351 18.0546 21.2463 18.1808 21.2842 18.2522C21.4176 18.5049 21.5769 18.7438 21.719 18.9918C21.9162 19.3362 21.8847 19.6027 21.6045 19.8855C21.0354 20.4607 20.4632 21.0328 19.8881 21.6019C19.5992 21.8877 19.3302 21.9175 18.9759 21.7117C18.7283 21.5679 18.489 21.4103 18.2372 21.2752C18.1717 21.2403 18.0538 21.2343 17.9931 21.2704C17.1566 21.7663 16.2694 22.134 15.3279 22.3759C15.2547 22.3949 15.172 22.4922 15.1488 22.5697C15.0644 22.8499 15.0054 23.1379 14.9335 23.422C14.8324 23.8211 14.6098 23.9963 14.1948 23.9976C13.3928 24.0002 12.5908 24.0006 11.7888 23.9976C11.3893 23.9959 11.165 23.8168 11.066 23.4293C10.9954 23.1525 10.9187 22.8762 10.8649 22.5955C10.8378 22.4538 10.7737 22.3936 10.6376 22.3591C9.64577 22.109 8.71375 21.7155 7.85276 21.1615C7.70639 21.0672 7.6289 21.0952 7.51482 21.2114C6.80149 21.936 6.083 22.6553 5.35934 23.3699C4.44324 24.2744 3.12421 24.2012 2.37472 23.1784C2.18874 22.9235 2.12159 22.5813 1.99976 22.2795C1.99976 22.1361 1.99976 21.9932 1.99976 21.8499C2.09705 21.3186 2.36008 20.8868 2.74796 20.511C3.44105 19.839 4.11435 19.1459 4.80098 18.467C4.90172 18.3676 4.93444 18.3004 4.84748 18.1644C4.28784 17.2918 3.88575 16.349 3.63434 15.3429C3.60507 15.2254 3.5547 15.1634 3.42771 15.1385C3.16855 15.0881 2.91585 15.0059 2.65669 14.9559C2.33554 14.8935 2.11082 14.7282 1.99976 14.4169V11.5813C2.11082 11.2696 2.3364 11.1039 2.65669 11.041C2.91585 10.9902 3.17415 10.9278 3.42642 10.8499C3.50433 10.8258 3.60292 10.7453 3.62143 10.6725C3.86294 9.73058 4.23058 8.84333 4.72651 8.00731C4.76267 7.94618 4.7588 7.82822 4.72393 7.76322C4.59306 7.51741 4.44023 7.28322 4.2986 7.04257C4.07646 6.66503 4.10487 6.40286 4.40923 6.09634C4.96931 5.53239 5.5311 4.9706 6.09505 4.41053C6.40113 4.1066 6.6646 4.07775 7.04128 4.29946C7.2815 4.44109 7.51568 4.59392 7.76193 4.72479C7.82736 4.75966 7.94489 4.76396 8.00602 4.72737C8.84204 4.23058 9.72972 3.8638 10.6712 3.62229C10.744 3.60378 10.8249 3.5052 10.849 3.42728C10.9274 3.17501 10.9911 2.91714 11.0414 2.65798C11.1039 2.33683 11.2692 2.11082 11.5813 1.99976ZM6.78686 16.4338C4.85307 12.806 6.34345 8.99831 8.94234 7.18808C11.7505 5.23234 15.5646 5.55392 18 7.97201C20.338 10.2932 20.7478 14.0265 19.0129 16.7601C17.1829 19.644 13.1875 21.174 9.58249 19.2243C9.26995 19.539 8.96602 19.8446 8.66166 20.1507C8.66812 20.1546 8.69739 20.1739 8.72753 20.1916C9.54676 20.6772 10.4237 21.016 11.3574 21.2015C11.7251 21.2743 11.9369 21.4801 12.01 21.8456C12.0578 22.0836 12.1314 22.3165 12.1762 22.5554C12.2003 22.6833 12.2597 22.7126 12.3794 22.7109C12.7948 22.7048 13.2103 22.704 13.6253 22.7109C13.7518 22.713 13.7983 22.6691 13.8224 22.5477C13.8724 22.2954 13.943 22.0475 13.9998 21.7965C14.0743 21.4676 14.2753 21.2739 14.6059 21.2101C15.7089 20.9979 16.727 20.5782 17.6577 19.9505C17.9547 19.7499 18.2376 19.7491 18.5363 19.9419C18.7757 20.0965 19.025 20.2359 19.2376 20.3625C19.6212 19.9807 19.9893 19.6143 20.3659 19.2389C20.2458 19.0383 20.1249 18.8101 19.9789 18.5988C19.7413 18.2544 19.7534 17.938 19.9901 17.5897C20.5963 16.6977 20.9958 15.714 21.1998 14.655C21.2726 14.277 21.4762 14.0609 21.8512 13.9847C22.137 13.9266 22.4185 13.8478 22.6954 13.7794V12.2115C22.394 12.1392 22.1039 12.0656 21.8116 12.0006C21.4745 11.9252 21.2743 11.7233 21.2093 11.3832C21.0001 10.2868 20.5816 9.27555 19.9578 8.35127C19.7534 8.04821 19.7456 7.76021 19.9454 7.45369C20.1008 7.2152 20.239 6.96508 20.3569 6.76748C19.9712 6.37875 19.6053 6.00981 19.2325 5.63399C19.0086 5.76831 18.7606 5.9108 18.5191 6.06363C18.2255 6.2496 17.947 6.24013 17.6586 6.04598C16.7274 5.41917 15.711 4.99557 14.6072 4.78549C14.277 4.72263 14.0747 4.5302 13.9994 4.20088C13.9421 3.9499 13.8694 3.70236 13.8224 3.44966C13.7966 3.31147 13.7316 3.28306 13.605 3.28521C13.2042 3.2921 12.803 3.29253 12.4022 3.28521C12.2675 3.28263 12.1969 3.30975 12.1711 3.45999C12.1284 3.70581 12.0544 3.94645 11.9997 4.19054C11.9239 4.52848 11.7182 4.7235 11.3785 4.7885C10.2898 4.99686 9.28372 5.4097 8.36548 6.03048C8.05639 6.2397 7.76322 6.25433 7.44896 6.04813C7.21175 5.89229 6.96207 5.75539 6.74596 5.62624C6.36325 6.00895 5.99991 6.37272 5.62538 6.74725C5.75754 6.96853 5.89229 7.21262 6.04511 7.44465C6.25175 7.75762 6.24271 8.05122 6.03263 8.36118C5.41143 9.27899 4.99815 10.2851 4.78936 11.3733C4.7222 11.7233 4.52116 11.9287 4.17461 12.0032C3.92321 12.0574 3.67137 12.1138 3.42512 12.1878C3.36787 12.2051 3.29468 12.2955 3.29339 12.3536C3.2822 12.7828 3.2822 13.2129 3.29339 13.6421C3.29511 13.7002 3.36873 13.7893 3.42642 13.8069C3.65802 13.8784 3.89522 13.9374 4.13372 13.983C4.50825 14.0545 4.69594 14.274 4.80098 14.6417C4.99083 15.3059 5.2177 15.9611 5.45663 16.6099C5.55564 16.8785 5.72526 17.1209 5.85742 17.3654C6.17857 17.043 6.48034 16.7395 6.78556 16.4325L6.78686 16.4338ZM7.77699 15.491C8.04605 15.2207 8.29531 14.9533 8.56351 14.7071C8.70772 14.5749 8.74432 14.4565 8.68232 14.265C8.47224 13.6141 8.44813 12.9459 8.54973 12.2714C8.98324 9.39565 12.1035 7.68874 14.7867 8.86055C15.3937 9.12573 15.4837 9.60014 15.0153 10.0694C14.5147 10.5713 14.014 11.0729 13.5112 11.5727C13.3454 11.7375 13.2395 11.9257 13.2736 12.1659C13.3101 12.4207 13.4522 12.6028 13.6946 12.6902C13.9567 12.7849 14.1896 12.7152 14.3834 12.5228C14.912 11.9984 15.4364 11.4698 15.9654 10.9454C16.3856 10.5287 16.8802 10.6221 17.1161 11.1594C17.4614 11.9446 17.569 12.7604 17.4687 13.6128C17.2617 15.3718 15.8204 16.9904 14.0954 17.377C13.2843 17.5587 12.4789 17.5548 11.6794 17.3051C11.6019 17.281 11.4754 17.2685 11.4289 17.312C11.1159 17.603 10.818 17.9108 10.5115 18.2169C12.5792 19.2574 15.5926 18.997 17.51 16.6159C19.3728 14.3033 19.2187 11.0884 17.1209 8.92943C15.1376 6.88845 11.9016 6.59959 9.59196 8.31856C7.10069 10.1727 6.67062 13.212 7.77656 15.4897L7.77699 15.491ZM13.4552 9.81194C12.3282 9.68753 11.3987 10.0001 10.6682 10.79C9.74134 11.7922 9.53858 12.9619 10.0388 14.231C10.2071 14.658 10.1314 14.9658 9.80807 15.2865C7.73438 17.343 5.67317 19.4124 3.60851 21.4783C3.53791 21.5489 3.46473 21.62 3.40833 21.7013C3.15865 22.0621 3.32482 22.5399 3.74283 22.6743C4.05278 22.7741 4.2775 22.6342 4.48758 22.4241C6.57678 20.3324 8.6707 18.2449 10.756 16.1493C11.0457 15.8578 11.3462 15.767 11.7203 15.9495C11.7905 15.9839 11.8663 16.0085 11.9403 16.0343C12.5004 16.2315 13.0755 16.2788 13.652 16.1488C15.1505 15.81 16.1307 14.6404 16.2173 13.1091C16.2272 12.9373 16.2186 12.7651 16.2186 12.5929L16.1372 12.5718C15.8686 12.8478 15.6038 13.1285 15.33 13.3993C14.8668 13.8577 14.3179 14.0652 13.6571 13.9955C12.565 13.8801 11.7548 12.7143 12.0333 11.6476C12.1362 11.2545 12.3372 10.9265 12.6218 10.6437C12.8887 10.378 13.1547 10.1116 13.4552 9.81194Z" fill="#404041"/>
</svg>
