<svg width="26" height="26" viewBox="0 0 26 26" fill="none" xmlns="http://www.w3.org/2000/svg">
<path fill-rule="evenodd" clip-rule="evenodd" d="M12.9778 24.0006C12.1482 24.0006 11.3187 24.0008 10.4891 24.0009C8.41608 24.0013 6.34305 24.0017 4.27003 23.9997C3.0953 23.9988 2.21736 23.2518 2.02533 22.0954C2.00281 21.9608 2.00235 21.8216 2.00235 21.6847C2.00098 16.3826 2.00098 11.081 2.00098 5.77932C2.00144 4.40659 2.94324 3.46663 4.31689 3.46525L4.90748 3.46459C5.82594 3.46343 6.74414 3.46228 7.66235 3.46984C7.83646 3.47122 7.887 3.42712 7.87138 3.25713C7.85737 3.1054 7.8622 2.95157 7.86701 2.79809V2.79808L7.86908 2.73019C7.88011 2.31579 8.19435 2.00155 8.59542 1.9988C8.99511 1.99604 9.31946 2.30982 9.33278 2.72008C9.33921 2.91855 9.34151 3.11747 9.33186 3.31594C9.32589 3.43631 9.36356 3.46938 9.48393 3.46801C9.89833 3.46329 10.313 3.46401 10.7275 3.46473H10.7276C10.8783 3.46499 11.029 3.46525 11.1796 3.46525L12.309 3.465C13.6893 3.46453 15.0697 3.46407 16.45 3.46984C16.6297 3.47076 16.6894 3.4262 16.671 3.24657C16.6588 3.12629 16.6622 3.00444 16.6655 2.8828V2.88279L16.6655 2.88265C16.6666 2.84358 16.6677 2.80453 16.6683 2.76556C16.6742 2.32039 16.9871 1.99604 17.4056 1.9988C17.8214 2.00155 18.1283 2.32866 18.1338 2.77613C18.1342 2.81615 18.1351 2.8562 18.1359 2.89626C18.1385 3.02446 18.1412 3.15268 18.131 3.28011C18.1195 3.4285 18.1655 3.46938 18.3166 3.46847C19.2172 3.4629 20.1181 3.46363 21.0188 3.46436H21.0188L21.6621 3.46479C23.0693 3.46571 24.0001 4.39511 24.0001 5.80183C24.0005 11.0883 24.0005 16.3748 24.0001 21.6613C24.0001 23.0685 23.0693 23.9993 21.6626 23.9997C19.7324 24 17.8025 23.9999 15.8725 23.9998H15.8725L12.9773 23.9997L12.9778 24.0006ZM13.0017 9.33241L11.3104 9.33228C8.77388 9.33201 6.23721 9.33174 3.70085 9.337C3.51755 9.337 3.46012 9.30484 3.46196 9.10683C3.47025 8.30155 3.4692 7.49628 3.46815 6.691C3.46775 6.38128 3.46734 6.07156 3.46747 5.76183C3.46747 5.22202 3.76012 4.93259 4.30406 4.93213C4.64698 4.93185 4.98994 4.93204 5.33291 4.93223H5.33293C6.11249 4.93267 6.89215 4.9331 7.67158 4.92799C7.83145 4.92708 7.87739 4.96429 7.87142 5.12692C7.8581 5.49308 7.86315 5.86015 7.86958 6.2263C7.87142 6.33932 7.8558 6.38939 7.72441 6.41742C7.32885 6.50195 7.09088 6.84651 7.13819 7.22415C7.18414 7.58939 7.49424 7.8609 7.88428 7.86458C8.36529 7.86917 8.8463 7.87009 9.32731 7.86458C9.71413 7.85998 10.0224 7.58158 10.0637 7.2145C10.1051 6.84605 9.87034 6.50287 9.48856 6.42155C9.34706 6.39123 9.3296 6.33702 9.3319 6.21573C9.33879 5.84177 9.34017 5.46735 9.33144 5.09338C9.32823 4.96337 9.36636 4.92983 9.49545 4.92983C11.832 4.93351 14.1686 4.93351 16.5052 4.92983C16.6315 4.92983 16.6743 4.95878 16.6711 5.09155C16.6632 5.41881 16.6654 5.74607 16.6677 6.07334L16.6688 6.23687C16.6692 6.3338 16.6674 6.38847 16.5374 6.41558C16.1354 6.49873 15.8979 6.83319 15.9378 7.21175C15.9783 7.59398 16.2966 7.8632 16.7175 7.86549C17.1681 7.86825 17.6184 7.86733 18.0691 7.86549C18.4968 7.86366 18.8124 7.60822 18.8629 7.22691C18.9135 6.84651 18.6695 6.50425 18.2565 6.41328C18.1416 6.38802 18.132 6.34483 18.1329 6.25111C18.1366 5.86153 18.1389 5.47194 18.132 5.08282C18.1297 4.96475 18.1605 4.92891 18.2827 4.92937C18.8361 4.93175 19.3895 4.93169 19.9428 4.93162C20.5654 4.93155 21.1879 4.93148 21.8105 4.93489C22.2107 4.93718 22.5286 5.24775 22.5309 5.64606C22.5349 6.24682 22.5348 6.84746 22.5347 7.44811C22.5347 8.03115 22.5346 8.61419 22.5382 9.19734C22.539 9.34158 22.4682 9.33808 22.3888 9.33417C22.3757 9.33352 22.3623 9.33286 22.349 9.33286H19.6917H13.0017V9.33241ZM13.0022 22.5337H4.36472C3.73716 22.5337 3.46794 22.2682 3.46794 21.6489L3.46806 19.8038C3.46832 16.8824 3.46858 13.9612 3.46289 11.0396C3.46289 10.8375 3.51067 10.7943 3.7096 10.7943C9.90343 10.8003 16.0968 10.8003 22.2906 10.7943C22.484 10.7943 22.5406 10.8292 22.5401 11.0369C22.5337 13.9186 22.5341 16.7999 22.5344 19.6815V19.6815L22.5346 21.6462C22.5346 22.2677 22.2663 22.5333 21.6401 22.5333H13.0026L13.0022 22.5337ZM12.2534 19.5966C12.0512 19.5828 11.8734 19.5089 11.7259 19.3614C11.4762 19.1112 11.226 18.8613 10.9758 18.6115L10.974 18.6097L10.9736 18.6093C10.5056 18.1419 10.0375 17.6746 9.57221 17.2045C9.26716 16.8962 9.26716 16.4492 9.55751 16.1579C9.8474 15.8671 10.2949 15.8662 10.6041 16.1694C11.1002 16.6564 11.5932 17.1466 12.0769 17.6455C12.1936 17.7659 12.2465 17.7525 12.3471 17.6312C12.8521 17.0205 13.359 16.4115 13.866 15.8026L13.8668 15.8016C14.3415 15.2314 14.8161 14.6613 15.2892 14.0896C15.483 13.8553 15.7118 13.7088 16.0206 13.7533C16.6049 13.8374 16.8539 14.4934 16.4745 14.9584C16.0596 15.4664 15.639 15.9696 15.2184 16.4729L15.2183 16.4731L15.218 16.4734C15.056 16.6672 14.894 16.861 14.7324 17.0551C14.5288 17.2997 14.325 17.544 14.1212 17.7883L14.1209 17.7886C13.7134 18.2771 13.3058 18.7656 12.9007 19.2562C12.7307 19.462 12.5276 19.5897 12.2529 19.5971L12.2534 19.5966Z" fill="#404041"/>
</svg>
