<svg width="26" height="26" viewBox="0 0 26 26" fill="none" xmlns="http://www.w3.org/2000/svg">
<path fill-rule="evenodd" clip-rule="evenodd" d="M23.955 11.2975C23.9605 11.2721 23.9658 11.2471 23.9993 11.2384H23.9997V3.0328C23.9644 2.50569 23.4954 2.03671 22.9683 2.00183H14.8045C13.975 2.34247 13.7813 2.6379 13.7817 3.56121C13.7817 4.37025 13.7816 5.1793 13.7816 5.98834C13.7815 7.60643 13.7814 9.22452 13.7817 10.8426C13.7821 11.7018 14.2985 12.2177 15.1589 12.2185C15.937 12.2191 16.7152 12.2189 17.4934 12.2187C17.8824 12.2186 18.2715 12.2185 18.6605 12.2185C19.043 12.2185 19.4256 12.2187 19.8082 12.2188C20.7646 12.2192 21.7212 12.2195 22.6776 12.2177C23.3042 12.2168 23.7374 11.908 23.9484 11.3228C23.9514 11.3147 23.9532 11.3061 23.955 11.2975ZM15.1563 6.26479C15.1561 6.541 15.1559 6.81721 15.1559 7.09342C15.1559 7.38075 15.1562 7.66809 15.1564 7.95541C15.1571 8.84933 15.1578 9.74319 15.1516 10.6368C15.1508 10.8091 15.1986 10.8478 15.3657 10.8478C17.7213 10.8422 20.0765 10.8418 22.4322 10.8482C22.5997 10.8487 22.6281 10.8 22.6281 10.645C22.623 8.28287 22.6225 5.92034 22.6281 3.55823C22.6286 3.40578 22.5889 3.37305 22.4404 3.37305C20.0774 3.37822 17.7149 3.37865 15.3523 3.37305C15.1926 3.37262 15.1503 3.40879 15.1516 3.57158C15.1576 4.46932 15.1569 5.36705 15.1563 6.26479Z" fill="#404041"/>
<path fill-rule="evenodd" clip-rule="evenodd" d="M23.9414 23.109C23.9474 23.0697 23.9534 23.0296 23.9994 23.0093L23.9998 23.0089V14.8037C23.6527 13.9709 23.3624 13.7805 22.4417 13.7805H15.1849C14.2844 13.7805 13.7814 14.2865 13.7814 15.1926V19.2713C13.7814 19.6181 13.781 19.965 13.7806 20.3119C13.7797 21.1099 13.7788 21.9079 13.7827 22.7057C13.7865 23.449 14.3184 23.9942 15.0449 23.9955C17.6137 23.9994 20.183 23.9989 22.7522 23.9955C23.2987 23.9951 23.7393 23.6699 23.9309 23.157C23.9364 23.1423 23.9389 23.1257 23.9414 23.109ZM19.7697 15.1555C19.4858 15.1553 19.2019 15.1551 18.9181 15.1551H18.9176C18.6303 15.1551 18.343 15.1553 18.0557 15.1555C17.1617 15.1563 16.2678 15.157 15.3738 15.1508C15.1943 15.1495 15.1512 15.1986 15.1516 15.3752C15.1581 17.723 15.1581 20.0709 15.1516 22.4188C15.1508 22.5933 15.2029 22.6255 15.3652 22.6255C17.7209 22.6208 20.0761 22.6204 22.4317 22.6264C22.5945 22.6268 22.6281 22.5855 22.6281 22.4275C22.6225 20.0722 22.6225 17.7174 22.6281 15.3622C22.6285 15.1964 22.5898 15.1495 22.4188 15.1508C21.536 15.157 20.6529 15.1563 19.7697 15.1555Z" fill="#404041"/>
<path fill-rule="evenodd" clip-rule="evenodd" d="M11.3658 2.07197C11.3084 2.0499 11.251 2.02784 11.1953 2.00183H3.03148C3.02881 2.00504 3.02631 2.00882 3.0238 2.01261C3.01822 2.02103 3.01264 2.02947 3.00521 2.03155C2.3489 2.20424 2.00094 2.64522 2.00051 3.31531C1.99965 5.85011 1.99922 8.38447 2.00094 10.9188C2.00137 11.6703 2.52848 12.2142 3.2791 12.216C5.83543 12.222 8.39219 12.2224 10.9485 12.2155C11.6772 12.2138 12.2138 11.6785 12.2159 10.9503C12.2228 8.38706 12.2202 5.82384 12.2164 3.26062C12.2155 2.84289 12.0402 2.50181 11.7065 2.24342C11.6029 2.16307 11.4843 2.1175 11.3658 2.07197ZM7.98392 3.37682C7.701 3.37661 7.41807 3.37641 7.13515 3.37641V3.37598C6.84699 3.37598 6.55886 3.37618 6.27075 3.37638C5.37043 3.37702 4.47024 3.37765 3.56981 3.3721C3.41133 3.37081 3.37085 3.40613 3.37085 3.56848C3.37731 5.9237 3.37688 8.27848 3.37171 10.6337C3.37128 10.7956 3.40358 10.8482 3.57842 10.8477C5.92675 10.8417 8.27507 10.8417 10.6234 10.8477C10.8 10.8482 10.8482 10.8051 10.8478 10.6255C10.8417 8.27762 10.8417 5.92973 10.8478 3.58183C10.8482 3.41172 10.803 3.37167 10.6363 3.37253C9.75219 3.37808 8.86805 3.37745 7.98392 3.37682Z" fill="#404041"/>
<path fill-rule="evenodd" clip-rule="evenodd" d="M5.8456 23.9974C6.26323 23.9973 6.68085 23.9972 7.09842 23.9972V23.9968C7.51844 23.9968 7.93847 23.997 8.3585 23.9971C9.19855 23.9974 10.0386 23.9977 10.8787 23.9968C11.6865 23.9964 12.2167 23.4762 12.2175 22.6739C12.2201 20.1541 12.2197 17.6344 12.2175 15.1147C12.2171 14.3107 11.6891 13.7823 10.886 13.7814C8.36582 13.7792 5.84566 13.7792 3.32551 13.7814C2.52278 13.7823 2.0004 14.312 2.0004 15.1181C1.99954 17.6305 1.99954 20.1434 2.0004 22.6558C2.00083 23.4762 2.52019 23.9964 3.33972 23.9972C4.17491 23.9978 5.01028 23.9976 5.8456 23.9974ZM3.37532 18.0677C3.37518 18.3403 3.37504 18.6128 3.37504 18.8855H3.37547C3.37547 19.1439 3.37558 19.4023 3.37568 19.6606C3.37604 20.5907 3.37641 21.5205 3.37203 22.4504C3.3716 22.5903 3.40691 22.6261 3.5473 22.6261C5.91673 22.6213 8.28659 22.6213 10.6564 22.6261C10.8033 22.6265 10.8472 22.5938 10.8472 22.44C10.8421 20.0779 10.8416 17.7154 10.8472 15.3533C10.8477 15.1926 10.8076 15.1517 10.6461 15.1517C8.28314 15.1569 5.92061 15.1569 3.55807 15.1517C3.40476 15.1513 3.37074 15.1948 3.3716 15.3421C3.37624 16.2507 3.37578 17.1591 3.37532 18.0677Z" fill="#404041"/>
</svg>
