<svg width="223" height="79" viewBox="0 0 223 79" fill="none" xmlns="http://www.w3.org/2000/svg">
<g clip-path="url(#clip0_0_931)">
<path d="M205.036 71.752C205.032 71.0996 204.866 70.5948 204.54 70.2375C204.216 69.8803 203.717 69.701 203.054 69.701C202.382 69.701 201.851 69.8982 201.453 70.2886C201.056 70.6816 200.832 71.1685 200.778 71.752H205.036ZM206.247 72.7023H200.776C200.776 73.1547 200.844 73.5478 200.981 73.8857C201.118 74.2236 201.307 74.4981 201.545 74.7146C201.775 74.9243 202.05 75.0829 202.367 75.1891C202.684 75.2953 203.034 75.3477 203.415 75.3477C203.917 75.3477 204.425 75.2484 204.939 75.0456C205.45 74.8456 205.815 74.647 206.034 74.4512H206.099V75.8097C205.678 75.9877 205.248 76.1325 204.809 76.2511C204.372 76.3725 203.91 76.4318 203.429 76.4318C202.2 76.4318 201.238 76.0994 200.55 75.436C199.855 74.7753 199.512 73.8291 199.512 72.6085C199.512 71.4002 199.841 70.4403 200.504 69.7313C201.166 69.0224 202.038 68.6679 203.118 68.6679C204.122 68.6679 204.891 68.959 205.435 69.541C205.978 70.1244 206.248 70.9492 206.248 72.0251L206.247 72.7023ZM198.436 75.807C198.021 76.0042 197.624 76.1559 197.252 76.269C196.879 76.3794 196.478 76.4332 196.061 76.4332C195.523 76.4332 195.032 76.3546 194.587 76.1973C194.139 76.0401 193.757 75.8029 193.438 75.4856C193.114 75.167 192.862 74.7656 192.688 74.2774C192.51 73.7933 192.422 73.2264 192.422 72.5781C192.422 71.3685 192.759 70.4182 193.424 69.7313C194.088 69.0403 194.969 68.6969 196.063 68.6969C196.483 68.6969 196.902 68.7562 197.312 68.8748C197.721 68.9934 198.099 69.141 198.438 69.3107V70.6927H198.371C197.991 70.4017 197.598 70.1768 197.193 70.0182C196.787 69.861 196.389 69.7824 196.007 69.7824C195.299 69.7824 194.738 70.0196 194.33 70.4941C193.92 70.9672 193.713 71.6623 193.713 72.5795C193.713 73.4691 193.915 74.156 194.316 74.6319C194.72 75.1091 195.28 75.3491 196.009 75.3491C196.263 75.3491 196.519 75.3174 196.779 75.2525C197.038 75.1877 197.276 75.0994 197.482 74.996C197.663 74.9022 197.836 74.8056 197.995 74.7022C198.154 74.6029 198.28 74.5132 198.373 74.4388H198.439V75.807H198.436ZM189.295 74.4457V72.3754C188.915 72.3988 188.468 72.4319 187.955 72.4733C187.442 72.5188 187.037 72.5837 186.734 72.6705C186.377 72.7712 186.091 72.9299 185.869 73.145C185.648 73.3602 185.537 73.6581 185.537 74.0346C185.537 74.4622 185.663 74.7836 185.92 74.9987C186.178 75.2139 186.569 75.3215 187.093 75.3215C187.53 75.3215 187.926 75.2346 188.29 75.0649C188.649 74.8925 188.987 74.6856 189.295 74.4457ZM190.547 76.269H189.297V75.4801C189.186 75.556 189.037 75.6608 188.851 75.7932C188.662 75.9297 188.478 76.0359 188.304 76.1173C188.096 76.218 187.857 76.3021 187.587 76.3739C187.32 76.4401 186.998 76.4746 186.637 76.4746C185.97 76.4746 185.406 76.2539 184.941 75.8125C184.477 75.3684 184.247 74.807 184.247 74.1201C184.247 73.5574 184.366 73.1023 184.605 72.7561C184.847 72.4071 185.193 72.1354 185.641 71.934C186.089 71.7354 186.63 71.6016 187.259 71.5285C187.894 71.4609 188.572 71.4071 189.297 71.3699V71.1754C189.297 70.8941 189.248 70.6554 189.146 70.4692C189.046 70.2817 188.905 70.1368 188.721 70.0293C188.543 69.9286 188.33 69.8569 188.084 69.8251C187.836 69.7893 187.579 69.77 187.305 69.77C186.98 69.77 186.613 69.8127 186.214 69.901C185.807 69.9906 185.395 70.1175 184.966 70.2872H184.901V69.021C185.142 68.9548 185.496 68.8831 185.958 68.8045C186.42 68.7259 186.871 68.6859 187.319 68.6859C187.84 68.6859 188.295 68.7272 188.683 68.8141C189.071 68.901 189.406 69.0472 189.691 69.2555C189.969 69.4569 190.182 69.7203 190.328 70.0431C190.476 70.3672 190.547 70.7672 190.547 71.2444V76.269ZM182.283 76.269H181.03V65.9563H182.283V76.269ZM177.804 72.5147C177.804 71.6209 177.654 70.9547 177.345 70.5148C177.04 70.0748 176.567 69.8527 175.934 69.8527C175.575 69.8527 175.211 69.93 174.849 70.0831C174.482 70.2389 174.135 70.4403 173.803 70.6941V74.8815C174.16 75.0429 174.463 75.1518 174.719 75.207C174.975 75.2636 175.265 75.2939 175.589 75.2939C176.282 75.2939 176.828 75.0594 177.221 74.5919C177.609 74.1243 177.804 73.4333 177.804 72.5147ZM179.096 72.4871C179.096 73.0857 179.008 73.6346 178.836 74.1298C178.666 74.6277 178.42 75.0484 178.106 75.3918C177.809 75.7201 177.467 75.9725 177.07 76.1504C176.673 76.3283 176.251 76.418 175.809 76.418C175.423 76.418 175.071 76.3766 174.757 76.2925C174.446 76.207 174.131 76.0801 173.805 75.9035V78.9986H172.551V68.8734H173.805V69.65C174.136 69.37 174.513 69.1383 174.925 68.9493C175.341 68.7603 175.785 68.6693 176.253 68.6693C177.152 68.6693 177.851 69.0058 178.352 69.6789C178.846 70.3534 179.096 71.2885 179.096 72.4871ZM171.04 76.207C170.807 76.269 170.55 76.3201 170.272 76.3601C169.997 76.3973 169.748 76.418 169.535 76.418C168.776 76.418 168.2 76.2166 167.809 75.8084C167.415 75.4042 167.217 74.7519 167.217 73.8553V69.9189H166.372V68.8734H167.217V66.7425H168.466V68.8734H171.038V69.9189H168.466V73.2954C168.466 73.6843 168.475 73.9891 168.495 74.2098C168.511 74.4277 168.576 74.6319 168.68 74.8208C168.776 74.9974 168.91 75.1284 169.081 75.2111C169.25 75.2925 169.51 75.3325 169.861 75.3325C170.062 75.3325 170.275 75.3008 170.496 75.2401C170.717 75.1767 170.876 75.1284 170.975 75.0884H171.04V76.207ZM164.091 71.752C164.087 71.0996 163.922 70.5948 163.593 70.2375C163.269 69.8803 162.774 69.701 162.108 69.701C161.438 69.701 160.906 69.8982 160.506 70.2886C160.112 70.6816 159.888 71.1685 159.83 71.752H164.091ZM165.303 72.7023H159.828C159.828 73.1547 159.9 73.5478 160.036 73.8857C160.174 74.2236 160.361 74.4981 160.601 74.7146C160.831 74.9243 161.103 75.0829 161.423 75.1891C161.74 75.2953 162.087 75.3477 162.469 75.3477C162.971 75.3477 163.478 75.2484 163.996 75.0456C164.506 74.8456 164.868 74.647 165.087 74.4512H165.155V75.8097C164.734 75.9877 164.304 76.1325 163.866 76.2511C163.429 76.3725 162.967 76.4318 162.482 76.4318C161.253 76.4318 160.292 76.0994 159.603 75.436C158.909 74.7753 158.566 73.8291 158.566 72.6085C158.566 71.4002 158.897 70.4403 159.56 69.7313C160.221 69.0224 161.091 68.6679 162.173 68.6679C163.175 68.6679 163.947 68.959 164.491 69.541C165.032 70.1244 165.304 70.9492 165.304 72.0251L165.303 72.7023ZM157.911 76.269H156.259L153.271 73.0388L152.469 73.8015V76.269H151.218V65.9563H152.469V72.5795L156.077 68.8748H157.655L154.202 72.2926L157.911 76.269ZM149.993 70.232H149.925C149.739 70.1893 149.56 70.1562 149.382 70.1382C149.206 70.1162 149.001 70.1093 148.759 70.1093C148.375 70.1093 148.003 70.1961 147.642 70.3658C147.282 70.5354 146.935 70.7548 146.604 71.0237V76.2718H145.35V68.8776H146.604V69.9686C147.098 69.5727 147.539 69.29 147.917 69.1258C148.297 68.9617 148.687 68.8776 149.082 68.8776C149.3 68.8776 149.451 68.8803 149.552 68.8928C149.649 68.9052 149.798 68.9231 149.992 68.9562V70.232H149.993ZM141.708 74.4457V72.3754C141.331 72.3988 140.884 72.4319 140.369 72.4733C139.858 72.5188 139.45 72.5837 139.15 72.6705C138.793 72.7712 138.502 72.9299 138.285 73.145C138.062 73.3602 137.952 73.6581 137.952 74.0346C137.952 74.4622 138.08 74.7836 138.336 74.9987C138.592 75.2139 138.985 75.3215 139.506 75.3215C139.943 75.3215 140.342 75.2346 140.703 75.0649C141.064 74.8925 141.403 74.6856 141.708 74.4457ZM142.961 76.269H141.708V75.4801C141.598 75.556 141.451 75.6608 141.263 75.7932C141.073 75.9297 140.892 76.0359 140.717 76.1173C140.509 76.218 140.268 76.3021 139.997 76.3739C139.73 76.4401 139.414 76.4746 139.051 76.4746C138.385 76.4746 137.819 76.2539 137.354 75.8125C136.89 75.3684 136.657 74.807 136.657 74.1201C136.657 73.5574 136.779 73.1023 137.02 72.7561C137.259 72.4071 137.605 72.1354 138.051 71.934C138.501 71.7354 139.043 71.6016 139.672 71.5285C140.307 71.4609 140.985 71.4071 141.707 71.3699V71.1754C141.707 70.8941 141.659 70.6554 141.559 70.4692C141.459 70.2817 141.317 70.1368 141.132 70.0293C140.956 69.9286 140.743 69.8569 140.494 69.8251C140.248 69.7893 139.989 69.77 139.718 69.77C139.392 69.77 139.026 69.8127 138.627 69.901C138.22 69.9906 137.805 70.1175 137.376 70.2872H137.311V69.021C137.553 68.9548 137.909 68.8831 138.371 68.8045C138.83 68.7245 139.284 68.6859 139.729 68.6859C140.252 68.6859 140.707 68.7272 141.096 68.8141C141.481 68.901 141.818 69.0472 142.104 69.2555C142.379 69.4569 142.595 69.7203 142.741 70.0431C142.887 70.3672 142.96 70.7672 142.96 71.2444V76.269H142.961ZM134.623 76.269H133.302V67.77L130.552 73.556H129.772L127.041 67.77V76.269H125.816V66.4046H127.608L130.241 71.8968L132.791 66.4046H134.623V76.269ZM119.292 68.8748L114.965 79H113.638L115.008 75.9132L112.052 68.8748H113.41L115.685 74.3615L117.988 68.8748H119.292ZM111.702 70.232H111.637C111.447 70.1893 111.266 70.1562 111.091 70.1382C110.918 70.1162 110.71 70.1093 110.468 70.1093C110.086 70.1093 109.709 70.1961 109.351 70.3658C108.988 70.5354 108.645 70.7548 108.311 71.0237V76.2718H107.059V68.8776H108.311V69.9686C108.81 69.5727 109.246 69.29 109.626 69.1258C110.003 68.9617 110.396 68.8776 110.788 68.8776C111.006 68.8776 111.163 68.8803 111.261 68.8928C111.359 68.9052 111.507 68.9231 111.701 68.9562V70.232H111.702ZM104.58 76.269H103.326V65.9563H104.58V76.269ZM100.229 71.752C100.224 71.0996 100.059 70.5948 99.7326 70.2375C99.4089 69.8803 98.911 69.701 98.2471 69.701C97.5749 69.701 97.0424 69.8982 96.6441 70.2886C96.2486 70.6816 96.0245 71.1685 95.9706 71.752H100.229ZM101.438 72.7023H95.9692C95.9692 73.1547 96.0369 73.5478 96.1739 73.8857C96.3108 74.2236 96.5003 74.4981 96.7409 74.7146C96.9705 74.9243 97.2416 75.0829 97.5597 75.1891C97.8765 75.2953 98.2264 75.3477 98.6054 75.3477C99.1088 75.3477 99.6164 75.2484 100.13 75.0456C100.643 74.8456 101.008 74.647 101.226 74.4512H101.291V75.8097C100.869 75.9877 100.441 76.1325 100.002 76.2511C99.5625 76.3725 99.1047 76.4318 98.6192 76.4318C97.3896 76.4318 96.4284 76.0994 95.7396 75.436C95.048 74.7753 94.7023 73.8291 94.7023 72.6085C94.7023 71.4002 95.0342 70.4403 95.6953 69.7313C96.3578 69.0224 97.2306 68.6679 98.3121 68.6679C99.3121 68.6679 100.084 68.959 100.625 69.541C101.168 70.1244 101.439 70.9492 101.439 72.0251V72.7023H101.438ZM93.4326 68.8748L91.4976 76.269H90.3427L88.4313 70.5686L86.5364 76.269H85.3857L83.43 68.8748H84.7246L86.0994 74.6015L87.9541 68.8748H88.9845L90.8863 74.6015L92.1809 68.8748H93.4326ZM80.9847 71.752C80.9791 71.0996 80.8145 70.5948 80.4881 70.2375C80.1631 69.8803 79.6666 69.701 79.0027 69.701C78.3333 69.701 77.8008 69.8982 77.4011 70.2886C77.0069 70.6816 76.78 71.1685 76.7247 71.752H80.9847ZM82.1949 72.7023H76.7233C76.7233 73.1547 76.7953 73.5478 76.9308 73.8857C77.0663 74.2236 77.2544 74.4981 77.4965 74.7146C77.7233 74.9243 77.9986 75.0829 78.3139 75.1891C78.6306 75.2953 78.9806 75.3477 79.3637 75.3477C79.8657 75.3477 80.3761 75.2484 80.8878 75.0456C81.3982 74.8456 81.7634 74.647 81.9805 74.4512H82.0469V75.8097C81.625 75.9877 81.1977 76.1325 80.7565 76.2511C80.3208 76.3725 79.8616 76.4318 79.3775 76.4318C78.1479 76.4318 77.1825 76.0994 76.4951 75.436C75.805 74.7753 75.4592 73.8291 75.4592 72.6085C75.4592 71.4002 75.7897 70.4403 76.455 69.7313C77.1175 69.0224 77.9861 68.6679 79.0677 68.6679C80.0704 68.6679 80.8422 68.959 81.383 69.541C81.9266 70.1244 82.1963 70.9492 82.1963 72.0251L82.1949 72.7023ZM73.5311 73.7022C73.5311 74.5698 73.2656 75.2374 72.7345 75.7049C72.202 76.1725 71.4897 76.407 70.5976 76.407C70.3832 76.407 70.101 76.3877 69.7442 76.3504C69.3874 76.3132 69.09 76.2649 68.8507 76.2125V74.9808H68.9213C69.108 75.0415 69.332 75.1022 69.599 75.167C69.8659 75.2346 70.1398 75.2663 70.4178 75.2663C70.8244 75.2663 71.1522 75.2208 71.3984 75.1256C71.6391 75.0346 71.8202 74.8994 71.935 74.7284C72.0526 74.5519 72.1314 74.3381 72.1633 74.0815C72.1978 73.825 72.2144 73.5312 72.2144 73.1933V67.4473H70.1315V66.4018H73.5325L73.5311 73.7022ZM63.2187 74.1243C63.2187 74.7987 62.9449 75.3546 62.3834 75.7849C61.8246 76.2166 61.0597 76.4346 60.0874 76.4346C59.5397 76.4346 59.0363 76.3697 58.5771 76.2401C58.1193 76.1077 57.7334 75.9656 57.4263 75.8084V74.4112H57.4913C57.8827 74.7105 58.3212 74.9477 58.8039 75.1243C59.2824 75.3008 59.7444 75.3891 60.1842 75.3891C60.7305 75.3891 61.1593 75.3008 61.4664 75.1229C61.7762 74.9463 61.9283 74.665 61.9283 74.2843C61.9283 73.9919 61.8453 73.7726 61.678 73.6236C61.5092 73.4719 61.1884 73.3436 60.7139 73.2374C60.5355 73.1974 60.3032 73.1533 60.0196 73.0967C59.7333 73.0457 59.4761 72.9892 59.2396 72.9257C58.5909 72.7533 58.1317 72.5023 57.862 72.1671C57.5895 71.8361 57.4512 71.4265 57.4512 70.941C57.4512 70.6348 57.5162 70.3479 57.6462 70.0789C57.7679 69.8113 57.9616 69.5713 58.2216 69.3589C58.4678 69.1534 58.7831 68.9852 59.1704 68.8652C59.5508 68.7452 59.9809 68.6859 60.4553 68.6859C60.8993 68.6859 61.3502 68.7383 61.8052 68.8472C62.2589 68.9534 62.6378 69.0858 62.9394 69.2403V70.5699H62.8744C62.5521 70.3355 62.169 70.1382 61.7125 69.9741C61.2561 69.81 60.8108 69.7286 60.3723 69.7286C59.9159 69.7286 59.5328 69.8155 59.2188 69.9906C58.9021 70.1672 58.7444 70.4279 58.7444 70.7741C58.7444 71.0775 58.8398 71.3092 59.0321 71.4623C59.216 71.6154 59.519 71.7423 59.9311 71.8389C60.1607 71.8913 60.418 71.9437 60.7029 71.9975C60.9878 72.0513 61.2257 72.0995 61.4179 72.1423C61.9947 72.2747 62.4387 72.5037 62.754 72.8223C63.0666 73.156 63.2187 73.5864 63.2187 74.1243ZM56.1317 74.1243C56.1317 74.7987 55.8537 75.3546 55.295 75.7849C54.7334 76.2166 53.9686 76.4346 52.9963 76.4346C52.4499 76.4346 51.9437 76.3697 51.4887 76.2401C51.0295 76.1077 50.6464 75.9656 50.3324 75.8084V74.4112H50.4002C50.7916 74.7105 51.2286 74.9477 51.71 75.1243C52.1913 75.3008 52.6532 75.3891 53.0931 75.3891C53.6394 75.3891 54.0668 75.3008 54.3766 75.1229C54.6864 74.9463 54.8385 74.665 54.8385 74.2843C54.8385 73.9919 54.7542 73.7726 54.5868 73.6236C54.4195 73.4719 54.0972 73.3436 53.62 73.2374C53.443 73.1974 53.2148 73.1533 52.9285 73.0967C52.6422 73.0457 52.3835 72.9892 52.1498 72.9257C51.5011 72.7533 51.0392 72.5023 50.7681 72.1671C50.497 71.8361 50.3614 71.4265 50.3614 70.941C50.3614 70.6348 50.4237 70.3479 50.5509 70.0789C50.6768 69.8113 50.869 69.5713 51.1263 69.3589C51.378 69.1534 51.6906 68.9852 52.0779 68.8652C52.461 68.7452 52.887 68.6859 53.3642 68.6859C53.8095 68.6859 54.2563 68.7383 54.7113 68.8472C55.1663 68.9534 55.5439 69.0858 55.8468 69.2403V70.5699H55.7804C55.4623 70.3355 55.075 70.1382 54.6172 69.9741C54.165 69.8113 53.7168 69.7286 53.277 69.7286C52.8247 69.7286 52.4389 69.8155 52.1249 69.9906C51.8082 70.1672 51.6546 70.4279 51.6546 70.7741C51.6546 71.0775 51.7487 71.3092 51.9409 71.4623C52.1221 71.6154 52.425 71.7423 52.84 71.8389C53.0668 71.8913 53.324 71.9437 53.6103 71.9975C53.8939 72.0513 54.1318 72.0995 54.324 72.1423C54.9022 72.2747 55.3448 72.5037 55.6615 72.8223C55.9754 73.156 56.1317 73.5864 56.1317 74.1243ZM47.7253 71.752C47.7197 71.0996 47.5551 70.5948 47.2287 70.2375C46.9051 69.8803 46.4072 69.701 45.7433 69.701C45.0739 69.701 44.5414 69.8982 44.1416 70.2886C43.7475 70.6816 43.5206 71.1685 43.4695 71.752H47.7253ZM48.9382 72.7023H43.4681C43.4681 73.1547 43.5331 73.5478 43.67 73.8857C43.8097 74.2236 43.9978 74.4981 44.2385 74.7146C44.4681 74.9243 44.7433 75.0829 45.0573 75.1891C45.3726 75.2953 45.7225 75.3477 46.1056 75.3477C46.6077 75.3477 47.1153 75.2484 47.6298 75.0456C48.1388 74.8456 48.5053 74.647 48.7239 74.4512H48.7875V75.8097C48.3698 75.9877 47.9369 76.1325 47.4984 76.2511C47.0614 76.3725 46.6036 76.4318 46.1195 76.4318C44.8885 76.4318 43.9286 76.0994 43.2399 75.436C42.5483 74.7753 42.2025 73.8291 42.2025 72.6085C42.2025 71.4002 42.5317 70.4403 43.197 69.7313C43.8581 69.0224 44.7281 68.6679 45.8097 68.6679C46.8124 68.6679 47.5842 68.959 48.125 69.541C48.6685 70.1244 48.941 70.9492 48.941 72.0251V72.7023H48.9382ZM40.2358 76.269H38.9841V65.9563H40.2358V76.269ZM35.8845 71.752C35.8818 71.0996 35.713 70.5948 35.388 70.2375C35.0671 69.8803 34.5692 69.701 33.9026 69.701C33.229 69.701 32.7006 69.8982 32.3037 70.2886C31.904 70.6816 31.6799 71.1685 31.626 71.752H35.8845ZM37.0961 72.7023H31.6246C31.6246 73.1547 31.6951 73.5478 31.8293 73.8857C31.9676 74.2236 32.1557 74.4981 32.3964 74.7146C32.6232 74.9243 32.8984 75.0829 33.2152 75.1891C33.5333 75.2953 33.8818 75.3477 34.2622 75.3477C34.7684 75.3477 35.2732 75.2484 35.7863 75.0456C36.2981 74.8456 36.6646 74.647 36.8818 74.4512H36.9468V75.8097C36.5277 75.9877 36.0961 76.1325 35.6577 76.2511C35.2206 76.3725 34.7615 76.4318 34.2774 76.4318C33.0478 76.4318 32.0865 76.0994 31.3978 75.436C30.7034 74.7753 30.3604 73.8291 30.3604 72.6085C30.3604 71.4002 30.6882 70.4403 31.3549 69.7313C32.0174 69.0224 32.886 68.6679 33.9662 68.6679C34.9703 68.6679 35.7393 68.959 36.2829 69.541C36.825 70.1244 37.0975 70.9492 37.0975 72.0251V72.7023H37.0961ZM28.4725 76.269H27.2222V72.0554C27.2222 71.7395 27.2056 71.4306 27.1765 71.1341C27.1489 70.8375 27.0894 70.6017 26.9981 70.4279C26.893 70.2362 26.7464 70.0913 26.5583 69.9948C26.366 69.8982 26.0936 69.8513 25.7326 69.8513C25.3854 69.8513 25.0369 69.9382 24.6856 70.112C24.337 70.2872 23.9885 70.5092 23.6372 70.7768C23.6482 70.8775 23.6579 70.9961 23.669 71.1341C23.6773 71.2665 23.6814 71.4002 23.6814 71.5327V76.269H22.4297V72.0554C22.4297 71.7299 22.4145 71.4196 22.3869 71.1258C22.3578 70.8306 22.2983 70.5961 22.2057 70.4196C22.1061 70.2306 21.9553 70.0872 21.7672 69.9906C21.5764 69.8968 21.3039 69.8486 20.9443 69.8486C20.604 69.8486 20.261 69.9313 19.918 70.0996C19.575 70.2679 19.2334 70.4803 18.8904 70.7423V76.2677H17.6414V68.8734H18.8904V69.6927C19.2818 69.3727 19.6718 69.1217 20.0591 68.941C20.4478 68.7576 20.8613 68.6693 21.297 68.6693C21.8046 68.6693 22.232 68.7755 22.5833 68.9852C22.9373 69.1989 23.1987 69.4913 23.3716 69.8679C23.8765 69.4431 24.3384 69.1396 24.7547 68.9507C25.171 68.7617 25.6136 68.6707 26.0894 68.6707C26.9054 68.6707 27.5071 68.919 27.8944 69.4086C28.283 69.8996 28.4753 70.5879 28.4753 71.4706V76.269H28.4725ZM15.1602 76.269H13.9071V68.8748H15.1602V76.269ZM15.239 67.6252H13.8255V66.3356H15.2376L15.239 67.6252ZM12.6941 67.5714H9.15474V76.2704H7.83388V67.5714H4.29314V66.4046H12.6927V67.5714H12.6941Z" fill="#404041"/>
<path d="M141.349 50.6727V14.7691C141.349 14.5746 141.317 14.3926 141.245 14.2202C141.176 14.0491 141.061 13.8878 140.901 13.7319L140.127 13.0133V12.5678H147.817V13.0119L147.014 13.7305C146.873 13.8657 146.77 14.0271 146.7 14.1884C146.627 14.3608 146.596 14.5553 146.596 14.7677V50.6713C146.596 50.9168 146.627 51.1182 146.7 51.3002C146.77 51.474 146.873 51.6354 147.014 51.7788L147.817 52.5195V52.936H140.127V52.5195L140.901 51.7788C141.061 51.6354 141.176 51.474 141.245 51.3002C141.317 51.1196 141.349 50.9182 141.349 50.6727ZM123.429 48.0052H131.276C131.632 48.0052 131.927 47.9638 132.151 47.8824C132.374 47.7997 132.61 47.67 132.854 47.4687L134.013 46.4935L134.37 46.6645L130.768 52.936H123.247C118.619 52.936 114.988 51.7388 112.34 49.3444C109.696 46.9418 108.374 43.6522 108.374 39.4744C108.374 34.9381 109.777 31.4775 112.573 29.0734C115.385 26.6804 119.443 25.4818 124.772 25.4818H134.551L125.161 43.3695H119.707L126.566 30.4127H122.72C119.879 30.4127 117.681 31.163 116.136 32.6747C114.58 34.1767 113.804 36.3063 113.804 39.0565C113.804 41.9902 114.62 44.2205 116.247 45.7322C117.877 47.2425 120.279 48.0052 123.429 48.0052ZM75.7759 43.6315L84.1617 25.4818L92.676 43.4495L99.8889 27.7949C99.9511 27.6418 99.9912 27.5314 100.002 27.4583C100.009 27.388 100.009 27.3259 100.009 27.2666C100.009 27.1232 99.9705 26.9921 99.8889 26.8597C99.8073 26.7273 99.6966 26.5963 99.5348 26.4639L98.7299 25.926V25.4805H106.36V25.926L92.564 53.6657L84.0399 35.9022L75.7164 53.6684L61.9214 25.9273V25.4818H69.6723V25.9273L68.8978 26.4652C68.7359 26.577 68.6225 26.708 68.552 26.8294C68.4814 26.9645 68.451 27.1052 68.451 27.268C68.451 27.308 68.4607 27.3687 68.4759 27.4597C68.4925 27.5521 68.534 27.6735 68.5935 27.8266L75.7759 43.6315ZM48.6436 48.0052H56.4872C56.8427 48.0052 57.14 47.9638 57.3599 47.8824C57.5881 47.7997 57.8191 47.67 58.0639 47.4687L59.2257 46.4935L59.5798 46.6645L55.9782 52.936H48.4611C43.8291 52.936 40.1998 51.7388 37.5553 49.3444C34.9108 46.9418 33.5872 43.6522 33.5872 39.4744C33.5872 34.9381 34.9924 31.4775 37.7891 29.0734C40.5968 26.6804 44.6575 25.4818 49.9852 25.4818H59.761L50.3725 43.3695H44.9217L51.7777 30.4127H47.93C45.0946 30.4127 42.8955 31.163 41.3478 32.6747C39.7918 34.1767 39.0186 36.3063 39.0186 39.0565C39.0186 41.9902 39.8319 44.2205 41.4612 45.7322C43.0863 47.2425 45.4915 48.0052 48.6436 48.0052ZM25.9456 40.2041C25.9456 44.3198 24.7644 47.6024 22.4145 50.0244C20.0577 52.4505 16.9001 53.6684 12.9403 53.6684C9.74809 53.6684 7.00125 52.8643 4.70254 51.263C2.40245 49.6589 0.835393 47.4466 0 44.637L5.54623 40.7516L6.17831 41.3102C6.03447 41.5544 5.9335 41.7751 5.87264 41.9999C5.82009 42.2123 5.79104 42.4357 5.79104 42.6509C5.79104 44.0798 6.47153 45.3253 7.8242 46.4039C9.18655 47.47 10.838 48.0066 12.7688 48.0066C14.9568 48.0066 16.6664 47.3873 17.9167 46.1611C19.1573 44.9322 19.7797 43.2371 19.7797 41.0758C19.7797 40.9944 19.7714 40.862 19.7507 40.6592C19.7313 40.4675 19.7189 40.3144 19.7189 40.2124V10.5596C19.7189 10.3375 19.6898 10.1541 19.6303 10.0134C19.5653 9.86169 19.4658 9.70721 19.3025 9.54584L18.5612 8.80517V8.39001H27.1088V8.80517L26.3923 9.54446C26.2443 9.70031 26.1199 9.83962 26.0465 10.012C25.9788 10.1748 25.9456 10.3582 25.9456 10.5582V40.2041Z" fill="#404041"/>
<path d="M196.48 42.6495L203.624 27.9769C203.664 27.9148 203.693 27.8445 203.715 27.7645C203.735 27.6928 203.744 27.5824 203.744 27.4404C203.744 27.2459 203.692 27.0638 203.601 26.8914C203.502 26.7204 203.368 26.5769 203.216 26.4652L202.465 25.9273V25.4818H210.094V25.9273L191.68 63.0212C191.577 63.1922 191.496 63.395 191.445 63.6088C191.385 63.8336 191.356 64.0446 191.356 64.2694C191.375 64.5025 191.416 64.697 191.478 64.8377C191.529 64.9701 191.629 65.0804 191.772 65.1604C191.985 65.2735 192.147 65.3549 192.262 65.3949C192.373 65.4349 192.475 65.468 192.579 65.4859V65.9038H184.826L193.615 48.1886L182.507 25.9273V25.4818H190.139V25.9273L189.366 26.4652C189.182 26.5976 189.049 26.7383 188.977 26.8818C188.898 27.0156 188.855 27.1659 188.855 27.3176C188.876 27.4404 188.898 27.5397 188.918 27.621C188.937 27.7052 188.967 27.7645 188.996 27.8252L196.48 42.6495ZM167.374 34.8649L172.98 28.039C173.124 27.8762 173.222 27.7162 173.294 27.541C173.367 27.3797 173.396 27.2073 173.396 27.0238C173.396 26.8294 173.333 26.6404 173.204 26.4666C173.071 26.2859 172.876 26.1025 172.622 25.9287V25.4832H181.951L170.416 38.3172L183.234 52.9388H173.845V52.5222C174.12 52.3209 174.331 52.136 174.477 51.954C174.605 51.7816 174.679 51.5981 174.679 51.4257C174.679 51.2023 174.648 50.9995 174.576 50.8175C174.503 50.6244 174.403 50.4616 174.26 50.3223L167.109 42.175L160.281 50.3223C160.139 50.4837 160.036 50.6451 159.965 50.8285C159.896 51.012 159.864 51.2023 159.864 51.4271C159.864 51.5995 159.938 51.783 160.066 51.9554C160.21 52.1374 160.423 52.3223 160.698 52.5236V52.9402H151.306L164.127 38.7062L152.592 25.4859H161.92V25.9315C161.643 26.1052 161.43 26.2887 161.299 26.479C161.157 26.6721 161.086 26.8528 161.086 27.0252C161.086 27.1893 161.115 27.3411 161.188 27.5024C161.257 27.6638 161.38 27.8376 161.563 28.0417L167.374 34.8649Z" fill="#E0B667"/>
<path fill-rule="evenodd" clip-rule="evenodd" d="M87.1298 9.44239L92.1352 14.4822C92.2998 14.6312 92.5598 14.6312 92.7244 14.4684L94.6373 12.4644C94.7036 12.3816 94.7479 12.2864 94.7479 12.1789V10.4093H94.7507L94.7479 8.53898L94.7507 8.17347C94.7507 8.15968 94.7507 8.14451 94.7507 8.12796V4.89773C94.7507 4.78738 94.7106 4.69359 94.64 4.61222L92.7272 2.60815C92.6428 2.52402 92.5349 2.48402 92.4271 2.48264H92.4201C92.3192 2.48264 92.2168 2.5185 92.1352 2.5916L91.1601 3.51295C91.1352 3.53088 91.1103 3.55019 91.0896 3.57363L86.2875 8.11416L84.513 9.87548L81.762 12.6175C80.6168 13.6491 79.2807 14.2298 77.6638 14.387C76.0456 14.387 74.5242 13.9429 73.379 12.805C72.2366 11.6616 71.6059 10.1458 71.6059 8.5307C71.6059 6.91697 72.2366 5.40116 73.379 4.26051C74.5242 3.11848 76.0456 2.49091 77.6638 2.49091C79.2807 2.49091 80.8035 3.11848 81.9459 4.26051L83.7287 6.03562L82.3885 7.39281L80.596 5.60667C79.8118 4.826 78.7717 4.39567 77.6638 4.39567C76.556 4.39567 75.5145 4.82738 74.7303 5.60942C73.9475 6.38871 73.5159 7.42729 73.5159 8.53208C73.5159 9.63687 73.7635 10.4906 74.5463 11.2713C75.3292 12.052 76.3693 12.4837 77.4771 12.4837C78.585 12.4837 79.6278 12.052 80.4107 11.2713L83.3442 8.34864L84.69 6.99834L91.8102 0.262026C92.1919 -0.107617 92.7922 -0.0800314 93.1642 0.288232L96.3896 3.68535C96.5542 3.86052 96.651 4.095 96.651 4.33774V12.725C96.651 12.9719 96.5542 13.2023 96.3896 13.3788L93.1642 16.7608C92.9748 16.9566 92.7244 17.0559 92.4755 17.0559H92.4672C92.232 17.0559 91.9941 16.9676 91.8102 16.7897L85.7992 10.7872M94.2071 5.11013C92.9914 4.55705 92.8669 4.52946 92.8641 3.16951C92.6373 4.52119 92.5183 4.49222 91.2445 4.88255C92.4188 5.41357 92.4132 5.30875 92.5972 6.60111C93.0301 5.35288 92.8752 5.46322 94.2071 5.11013Z" fill="#404041"/>
<path d="M213.633 28.5463V25.1432H212.362V24.6878H215.42V25.1432H214.144V28.5463H213.633ZM215.931 28.5463V24.6878H216.699L217.613 27.4198C217.697 27.6742 217.758 27.8646 217.797 27.9909C217.841 27.8506 217.909 27.6444 218.002 27.3724L218.926 24.6878H219.613V28.5463H219.121V25.3169L218 28.5463H217.539L216.423 25.2616V28.5463H215.931Z" fill="#404041"/>
</g>
<defs>
<clipPath id="clip0_0_931">
<rect width="223" height="79" fill="white"/>
</clipPath>
</defs>
</svg>
