<svg width="26" height="26" viewBox="0 0 26 26" fill="none" xmlns="http://www.w3.org/2000/svg">
<path d="M2.03895 17.8426C2.16815 17.1808 2.36669 16.5365 2.53465 15.8845C2.88134 14.5386 3.23923 13.1957 3.59195 11.8511C3.69186 11.4698 3.89557 11.2616 4.20523 11.2295C4.71945 11.1756 5.07518 11.6092 4.93952 12.1303C4.61393 13.3791 4.28533 14.6275 3.95802 15.8759C3.77628 16.5685 3.59281 17.2611 3.41451 17.9546C3.29694 18.4112 3.50323 18.7502 3.96405 18.8725C6.31595 19.4975 8.66741 20.1222 11.0193 20.7472C13.3368 21.3629 15.6538 21.9789 17.9712 22.5937C18.454 22.722 18.7878 22.5309 18.9101 22.0521C19.063 21.4544 19.2081 20.8545 19.3588 20.256C19.4618 19.8468 19.8136 19.6108 20.1853 19.6976C20.5772 19.7891 20.7943 20.1491 20.6939 20.5647C20.5428 21.1919 20.3907 21.8195 20.2245 22.4428C19.9157 23.5989 18.8149 24.2308 17.6525 23.9221C13.4315 22.8015 9.21135 21.6788 4.99077 20.5565C4.54244 20.4373 4.09497 20.3158 3.64621 20.1987C2.76807 19.9695 2.225 19.4223 2.03507 18.5365C2.03119 18.5185 2.01181 18.504 1.99976 18.4877C1.99976 18.3453 1.99976 18.2034 1.99976 18.061C2.05187 17.9948 1.99502 17.9093 2.03895 17.8417V17.8426Z" fill="#404041"/>
<path fill-rule="evenodd" clip-rule="evenodd" d="M12.8373 16.5538H12.8372C11.1907 16.5508 9.54418 16.5478 7.89783 16.563C6.88876 16.572 6.22337 16.094 5.76299 15.2586C5.6551 15.0626 5.66077 14.842 5.66627 14.6279C5.66751 14.5796 5.66875 14.5316 5.66867 14.4844C5.65962 11.0154 5.65575 7.54637 5.66608 4.0778C5.66953 2.8743 6.57523 2.00171 7.78413 2.00128C12.4815 1.99957 17.1788 1.99957 21.8761 2.00128C23.1057 2.00171 23.9972 2.88927 23.9981 4.11543C24.0006 7.55578 24.0002 10.9966 23.9981 14.4369C23.9972 15.6772 23.1165 16.5528 21.8611 16.5549C20.2024 16.5579 18.5438 16.5573 16.8852 16.5567C16.2023 16.5564 15.5193 16.5562 14.8364 16.5562C14.17 16.5562 13.5037 16.555 12.8373 16.5538ZM22.594 11.2382L22.5928 11.2368C22.6288 11.1752 22.6247 11.1191 22.6209 11.066C22.6197 11.0499 22.6186 11.0341 22.6186 11.0185C22.6199 8.74444 22.6199 6.4704 22.6199 4.19635C22.6199 3.61705 22.3684 3.3678 21.7852 3.3678H7.89048C7.27462 3.3678 7.03345 3.60722 7.03345 4.21859V13.0664V13.2758C7.10981 13.2646 7.14701 13.2207 7.18195 13.1794C7.19233 13.1671 7.20252 13.155 7.21347 13.1442C7.67239 12.6901 8.13055 12.2354 8.58872 11.7807L8.58966 11.7797C9.04744 11.3254 9.50521 10.8711 9.96374 10.4174C10.6761 9.71237 11.6304 9.70681 12.3475 10.4045C12.6541 10.703 12.9599 11.0027 13.2562 11.3113C13.3678 11.4276 13.4246 11.443 13.54 11.3041C13.927 10.8383 14.3179 10.3756 14.7087 9.91291L14.7087 9.91289C15.38 9.11818 16.0512 8.32352 16.7029 7.51315C17.3454 6.71452 18.5931 6.5093 19.3558 7.47894C19.6598 7.86545 19.9858 8.23461 20.3117 8.60377L20.3117 8.6038C20.4577 8.76916 20.6037 8.93452 20.7478 9.10143C21.1249 9.53839 21.5023 9.97504 21.8813 10.4134L21.8848 10.4176L22.5928 11.2368L22.5928 11.2369L22.594 11.2382ZM7.86688 15.195H14.8265H14.827H16.0083C16.5648 15.195 17.1213 15.1951 17.6779 15.1951C19.0688 15.1953 20.4598 15.1955 21.8508 15.1946C22.353 15.1941 22.6195 14.9278 22.6213 14.4331C22.6217 14.3416 22.6207 14.2501 22.6197 14.1587C22.6177 13.9728 22.6158 13.787 22.6256 13.6016C22.6346 13.4314 22.5756 13.3104 22.4671 13.1852C21.3875 11.94 20.3108 10.6923 19.2341 9.44464C18.9277 9.08964 18.6214 8.73465 18.315 8.37971C18.0945 8.12448 17.9915 8.12576 17.7741 8.38527C17.3605 8.87844 16.947 9.37161 16.5335 9.86478C15.7064 10.8513 14.8793 11.8378 14.0518 12.8243C13.6977 13.2467 13.2847 13.266 12.8945 12.8791C12.6813 12.6677 12.4682 12.456 12.2551 12.2442C11.9622 11.9531 11.6693 11.6619 11.3756 11.3716C11.1955 11.1937 11.1301 11.1942 10.9501 11.372C10.6007 11.7168 10.2523 12.0627 9.90404 12.4086C9.81702 12.495 9.73001 12.5815 9.64297 12.6679C9.44315 12.8662 9.24364 13.0649 9.04413 13.2636C8.49543 13.8099 7.94677 14.3563 7.39185 14.8962C7.24456 15.0394 7.31778 15.0791 7.44569 15.1386C7.5689 15.1962 7.6989 15.1957 7.82886 15.1951C7.84153 15.1951 7.85421 15.195 7.86688 15.195Z" fill="#404041"/>
<path fill-rule="evenodd" clip-rule="evenodd" d="M8.41333 6.54807C8.41161 7.54465 9.23419 8.36166 10.2424 8.36508V8.36465C11.2519 8.36807 12.0727 7.56431 12.0839 6.5609C12.0951 5.56988 11.2687 4.73747 10.2665 4.73063C9.25142 4.72379 8.41506 5.54423 8.41333 6.54807ZM9.78931 6.5477C9.78802 6.79908 9.99991 7.00302 10.2579 6.99917L10.2575 6.9996C10.506 6.99575 10.7066 6.79609 10.7079 6.55154C10.7092 6.30186 10.493 6.09152 10.2398 6.09665C9.99517 6.10135 9.7906 6.30614 9.78931 6.5477Z" fill="#404041"/>
</svg>
