<svg width="26" height="26" viewBox="0 0 26 26" fill="none" xmlns="http://www.w3.org/2000/svg">
<g clip-path="url(#clip0_348_14)">
<path d="M6.1123 12.9973C6.1123 11.9345 6.1123 10.8717 6.1123 9.80886C6.1123 9.42217 6.20653 9.28725 6.56608 9.16137C8.64801 8.43246 10.7299 7.70205 12.8149 6.98069C12.9287 6.94149 13.0795 6.94149 13.1925 6.98069C15.2782 7.69979 17.3594 8.4302 19.4443 9.15081C19.7361 9.25182 19.8725 9.44026 19.8725 9.73725C19.8732 11.9194 19.8732 14.1016 19.8725 16.2845C19.8725 16.5717 19.7353 16.7526 19.4572 16.8499C17.3835 17.575 15.3129 18.3092 13.2378 19.0283C13.0923 19.0788 12.8986 19.0705 12.7516 19.02C10.7013 18.3145 8.65479 17.5969 6.60829 16.8815C6.23216 16.7504 6.13567 16.6185 6.13492 16.2152C6.13266 15.1426 6.13416 14.0707 6.13416 12.9981H6.11306L6.1123 12.9973ZM13.5114 14.9865C13.5114 15.8232 13.5106 16.6592 13.5114 17.4959C13.5114 17.8042 13.5528 17.8351 13.8378 17.7348C15.4214 17.1778 17.0029 16.6155 18.5888 16.066C18.7931 15.9951 18.8639 15.8933 18.8632 15.68C18.8556 14.0451 18.8594 12.4094 18.8587 10.7744C18.8587 10.4496 18.8195 10.4209 18.5164 10.5257C16.9297 11.0729 15.3446 11.6255 13.7548 12.1659C13.5581 12.233 13.5031 12.3355 13.5061 12.5338C13.5166 13.3509 13.5106 14.1687 13.5106 14.9865H13.5114ZM12.4659 15.0039C12.4659 14.177 12.4621 13.3501 12.4689 12.5232C12.4704 12.3295 12.4199 12.2164 12.2171 12.1523C11.645 11.9722 11.0797 11.7679 10.5113 11.5757C10.2091 11.474 10.1714 11.5018 10.1699 11.8245C10.1676 12.3981 10.1759 12.971 10.1669 13.5446C10.1608 13.9282 9.88571 14.18 9.56309 14.1212C9.28947 14.0707 9.11912 13.8506 9.11686 13.522C9.11233 12.7983 9.10932 12.0747 9.11987 11.3511C9.12289 11.1506 9.06409 11.0443 8.86585 10.9847C8.39926 10.8438 7.93946 10.6802 7.47589 10.5287C7.17287 10.4292 7.14046 10.4548 7.1397 10.785C7.1397 12.4199 7.14272 14.0556 7.13518 15.6906C7.13443 15.9016 7.19623 16.0057 7.40277 16.0773C8.98042 16.6237 10.5536 17.1823 12.1282 17.7363C12.4229 17.8403 12.4644 17.8117 12.4651 17.4853C12.4681 16.6584 12.4659 15.8315 12.4659 15.0039ZM9.94676 10.2672C9.97767 10.2596 10.0229 10.2521 10.0659 10.237C11.492 9.73951 12.9174 9.24202 14.342 8.74076C14.3956 8.72191 14.434 8.66237 14.48 8.62166C14.4302 8.57493 14.3888 8.50709 14.3292 8.48447C13.9976 8.35482 13.6553 8.24854 13.3282 8.10909C13.1036 8.01336 12.9016 8.02618 12.6777 8.10759C11.893 8.39176 11.1038 8.66387 10.3154 8.93976C9.76661 9.13197 9.21636 9.32041 8.66911 9.51866C8.59901 9.54353 8.54022 9.60986 8.49122 9.67016C8.48142 9.68222 8.53419 9.7772 8.57338 9.79077C9.02339 9.95283 9.47641 10.1066 9.94601 10.2679L9.94676 10.2672ZM13.0056 11.3337C13.3041 11.2297 13.5867 11.1317 13.8702 11.033C15.0121 10.6342 16.1556 10.2378 17.2953 9.83373C17.3805 9.80358 17.4476 9.72067 17.523 9.66187C17.4476 9.60383 17.3798 9.52619 17.2946 9.49152C17.0519 9.39127 16.8076 9.28649 16.5536 9.2277C16.3833 9.18775 16.1797 9.1772 16.0177 9.23222C15.236 9.49604 14.4634 9.787 13.687 10.0674C13.1141 10.2747 12.5405 10.482 11.9669 10.6893C11.8365 10.7368 11.7023 10.8513 11.8727 10.932C12.2345 11.1023 12.6279 11.2049 13.0056 11.3337Z" fill="#404041"/>
<path d="M13.033 0C15.2288 0 17.2896 0.530658 19.2208 1.57313C19.5667 1.76007 19.673 2.01258 19.5343 2.30655C19.3964 2.59827 19.122 2.6744 18.8009 2.5342C18.0712 2.21459 17.3559 1.84524 16.6014 1.60253C10.0345 -0.506538 2.98592 3.45154 1.38716 10.1662C0.502231 13.8823 1.25676 17.2841 3.55201 20.3399C3.61683 20.4258 3.7299 20.4756 3.82035 20.5427C3.82714 20.4228 3.86332 20.2962 3.83694 20.1846C3.72462 19.7075 3.9304 19.3781 4.3495 19.4037C4.59071 19.4188 4.75805 19.5462 4.81986 19.7821C5.0671 20.7168 5.32037 21.6507 5.55027 22.5899C5.65655 23.0233 5.35052 23.3256 4.92011 23.2186C3.98166 22.9849 3.04773 22.7354 2.11531 22.4806C1.80852 22.3969 1.67058 22.1339 1.74672 21.8497C1.82963 21.5399 2.06255 21.4057 2.39798 21.4804C2.54421 21.5128 2.68743 21.564 2.83441 21.5912C2.90828 21.6047 2.98818 21.5829 3.06582 21.5768C3.04321 21.4932 3.0417 21.3944 2.99421 21.3288C2.81859 21.0854 2.61808 20.8585 2.44396 20.6143C0.551226 17.9625 -0.280943 15.0017 0.083885 11.7747C0.665046 6.64152 3.38392 3.03244 8.11386 0.955788C9.5792 0.312063 11.3174 0 13.033 0Z" fill="#404041"/>
<path d="M22.8213 4.42089C23.0685 4.742 23.2607 4.98321 23.4431 5.2312C25.3366 7.81213 26.1771 10.7096 25.972 13.8951C25.5951 19.7572 21.1954 24.6937 15.4267 25.7656C12.5292 26.3045 9.76133 25.9126 7.1216 24.6048C6.69421 24.3929 6.60074 23.9407 6.92939 23.6814C7.14421 23.5118 7.36206 23.5525 7.58819 23.6686C8.49573 24.1329 9.447 24.4736 10.4427 24.6945C16.9878 26.144 23.4793 21.913 24.7479 15.3348C25.4376 11.7574 24.6348 8.51013 22.421 5.61487C22.3652 5.54176 22.268 5.49955 22.1903 5.44301C22.1768 5.54327 22.1353 5.64955 22.1549 5.74302C22.2619 6.25558 22.1873 6.47493 21.8496 6.57669C21.5564 6.66488 21.2783 6.54277 21.1976 6.2488C20.9406 5.30658 20.6903 4.36285 20.4589 3.41385C20.3572 2.99701 20.6609 2.69098 21.074 2.79274C22.0124 3.02415 22.9471 3.27515 23.8796 3.53068C24.1803 3.61284 24.325 3.88647 24.2512 4.16386C24.175 4.44954 23.9368 4.59803 23.6218 4.5415C23.465 4.51361 23.3142 4.45557 23.1582 4.42542C23.0768 4.40959 22.9893 4.4224 22.8205 4.4224L22.8213 4.42089Z" fill="#404041"/>
<path d="M18.1969 15.031C18.1879 15.2308 18.0748 15.4026 17.8494 15.4855C17.2954 15.6883 16.7421 15.8911 16.1836 16.0795C15.8918 16.1783 15.6243 16.0388 15.5233 15.7644C15.4245 15.4968 15.5481 15.2149 15.8398 15.1056C16.4006 14.8961 16.9652 14.6941 17.5343 14.5079C17.8698 14.3986 18.1916 14.6481 18.1969 15.0318V15.031Z" fill="#404041"/>
</g>
<defs>
<clipPath id="clip0_348_14">
<rect width="26.0015" height="26" fill="white"/>
</clipPath>
</defs>
</svg>
