<svg width="26" height="26" viewBox="0 0 26 26" fill="none" xmlns="http://www.w3.org/2000/svg">
<path fill-rule="evenodd" clip-rule="evenodd" d="M1.99976 22.2828V3.7404C2.02818 3.41771 2.09149 3.10835 2.28485 2.83556C2.68837 2.26719 3.23272 1.99914 3.9321 2C7.09483 2.00387 10.2576 2.00339 13.4203 2.00291C14.4745 2.00274 15.5288 2.00258 16.583 2.00258L17.9415 2.00242C19.3 2.00218 20.6585 2.00194 22.017 2.00387C22.3103 2.00387 22.6014 2.02108 22.8736 2.15877C23.5984 2.52535 23.9946 3.10964 23.9954 3.92111C24.0015 9.97915 24.001 16.0368 23.9954 22.0948C23.9946 22.9153 23.5954 23.5043 22.8607 23.8705C22.7304 23.9353 22.5922 23.9514 22.4541 23.9675H22.4541C22.3813 23.9759 22.3086 23.9844 22.2371 24H3.7185C3.12549 23.9634 2.66512 23.6924 2.31844 23.2152C2.11603 22.9364 2.02258 22.6223 1.99976 22.2828ZM12.9953 8.46165L14.683 8.46179C17.2704 8.4621 19.8579 8.46242 22.4452 8.45606C22.6428 8.45563 22.6713 8.51285 22.6708 8.69098C22.6665 12.3623 22.6667 16.0337 22.6669 19.7051L22.667 21.9072C22.667 22.4834 22.4387 22.7118 21.8629 22.7118H4.10143C3.51273 22.7118 3.28922 22.4864 3.28922 21.8939L3.28928 19.8106V19.8103C3.28945 16.1066 3.28963 12.4027 3.28491 8.69915C3.28491 8.50812 3.32669 8.45606 3.52436 8.45649C6.07431 8.46205 8.62426 8.46171 11.1742 8.46138L12.9957 8.46122L12.9953 8.46165ZM11.3201 7.17418L12.9633 7.17428V7.17471L14.7888 7.17455H14.7891H14.7892H14.7892H14.7898C17.3449 7.17422 19.8998 7.17388 22.455 7.17944C22.6393 7.17987 22.6729 7.1291 22.6712 6.95657C22.6652 6.31443 22.6658 5.6721 22.6664 5.02983V5.02982V5.0298V5.02978V5.02977C22.6667 4.69948 22.667 4.36921 22.6664 4.03898C22.6656 3.56613 22.4106 3.31185 21.936 3.31185C15.9663 3.31142 9.99656 3.31142 4.02683 3.31185C3.54019 3.31185 3.28955 3.56441 3.28912 4.05318C3.28871 4.35392 3.28911 4.65465 3.2895 4.95538C3.29036 5.62011 3.29123 6.28479 3.28352 6.94925C3.28136 7.13814 3.32788 7.17901 3.51478 7.17901C6.11611 7.17368 8.71774 7.17393 11.3192 7.17418H11.3198H11.3201ZM15.7441 5.88698C16.1101 5.88677 16.476 5.88656 16.8419 5.88656H16.8424H18.0443C18.288 5.88656 18.5318 5.88685 18.7755 5.88713H18.7756H18.7757H18.7757H18.7758H18.7758H18.7758H18.7759H18.7759C19.4262 5.8879 20.0768 5.88867 20.7273 5.88398C21.0964 5.88139 21.372 5.6013 21.3767 5.25107C21.381 4.90901 21.1158 4.60525 20.7652 4.60439C18.1533 4.59836 15.5418 4.59879 12.9303 4.60396C12.656 4.60439 12.4583 4.75971 12.3575 5.01571C12.1874 5.44941 12.5057 5.88355 12.9996 5.88527C13.9145 5.88803 14.8293 5.88751 15.7441 5.88698ZM5.86484 5.23302C5.87044 5.57981 5.58405 5.87712 5.23608 5.88486C4.88725 5.89304 4.58924 5.61079 4.5789 5.26271C4.56814 4.90473 4.85926 4.60226 5.21713 4.60011C5.5651 4.59796 5.85967 4.88537 5.86484 5.23302ZM7.15631 5.25149C7.16104 5.6 7.45303 5.88698 7.80229 5.88526C8.1505 5.8833 8.44095 5.59297 8.44224 5.24504C8.44353 4.89782 8.15456 4.60481 7.80616 4.60051C7.44915 4.59621 7.15157 4.89395 7.15631 5.25149ZM11.0206 5.23302C11.0262 5.57981 10.7398 5.87712 10.3918 5.88486C10.043 5.89304 9.745 5.61079 9.73466 5.26271C9.7239 4.90473 10.015 4.60226 10.3729 4.60011C10.7209 4.59796 11.0154 4.88537 11.0206 5.23302Z" fill="#404041"/>
<path fill-rule="evenodd" clip-rule="evenodd" d="M13.3427 9.79196C13.2152 9.79217 13.0877 9.79238 12.9603 9.79238L12.9586 9.79152C12.8272 9.79152 12.6959 9.79142 12.5646 9.79133C12.302 9.79114 12.0397 9.79095 11.7773 9.79152C11.2717 9.79238 11.0232 10.0376 11.0211 10.5363C11.0208 10.5914 11.0189 10.6467 11.017 10.7021C11.0126 10.8334 11.0081 10.9648 11.0254 11.0935C11.0671 11.4063 10.9849 11.6274 10.6632 11.7255C10.6106 11.7419 10.5628 11.7806 10.5189 11.8167C10.4418 11.88 10.3768 11.8731 10.2915 11.8215C10.0232 11.6584 9.75148 11.5005 9.47586 11.3503C9.13694 11.1653 8.78466 11.2359 8.59388 11.556C8.14428 12.3098 7.7063 13.0701 7.27866 13.8364C7.10855 14.1414 7.20674 14.4663 7.49614 14.6625C7.50787 14.6704 7.51961 14.6784 7.53138 14.6865C7.6558 14.7713 7.78318 14.8582 7.92206 14.9077C8.3609 15.0639 8.53144 15.3556 8.45607 15.8139C8.43928 15.9167 8.42033 15.9765 8.32645 16.0277C8.05686 16.174 7.78985 16.3263 7.5293 16.4881C7.21019 16.6864 7.10209 17.0199 7.27995 17.3387C7.70759 18.1046 8.14643 18.8648 8.59561 19.6186C8.77863 19.9254 9.1167 20.0007 9.43926 19.8381C9.46008 19.8276 9.48105 19.8172 9.50207 19.8067C9.63534 19.7405 9.77055 19.6733 9.88326 19.5808C10.2235 19.302 10.5447 19.2749 10.8957 19.567C10.9836 19.6401 11.0254 19.6918 11.0232 19.8015C11.0176 20.116 11.015 20.431 11.0241 20.7455C11.0344 21.1022 11.2962 21.3732 11.6515 21.3767C12.5176 21.3848 13.3841 21.3848 14.2501 21.3771C14.6162 21.3741 14.8746 21.1009 14.887 20.7321C14.8883 20.6946 14.8904 20.6568 14.8924 20.6189C14.8993 20.491 14.9063 20.3623 14.884 20.2395C14.8048 19.8002 14.9564 19.5132 15.3801 19.3562L15.383 19.3551C15.4757 19.3209 15.5357 19.2987 15.6278 19.3549C15.8952 19.5188 16.1669 19.6772 16.4434 19.826C16.7875 20.0119 17.1359 19.9258 17.3345 19.5902C17.7707 18.8536 18.1996 18.1123 18.6195 17.3662C18.806 17.0354 18.7074 16.6963 18.3874 16.4915C18.3709 16.4809 18.3543 16.4703 18.3377 16.4596C18.18 16.3581 18.0201 16.2553 17.8482 16.1852C17.5369 16.0582 17.3861 15.862 17.4636 15.5204C17.4731 15.48 17.4688 15.4335 17.4598 15.3922C17.4296 15.2562 17.4959 15.1878 17.6101 15.1272C17.856 14.9968 18.0967 14.8561 18.3357 14.7137C18.7229 14.4831 18.8142 14.1423 18.5885 13.7473C18.185 13.0413 17.7789 12.3365 17.3689 11.6339C17.1368 11.2359 16.7935 11.1494 16.3857 11.3792C16.3711 11.3874 16.3564 11.3957 16.3418 11.404C16.1079 11.536 15.8736 11.6681 15.6454 11.8099C15.5399 11.8757 15.4598 11.8723 15.3608 11.8008C15.257 11.726 15.1446 11.6601 15.0283 11.6072C14.9241 11.5599 14.8819 11.5018 14.8862 11.3818C14.8948 11.1364 14.8926 10.8908 14.8904 10.6454C14.89 10.5977 14.8895 10.55 14.8892 10.5023C14.8857 10.0553 14.6286 9.79582 14.1842 9.79281C13.9038 9.79104 13.6232 9.7915 13.3427 9.79196ZM12.709 20.1048C12.7795 20.0965 12.8483 20.0883 12.9056 20.0937C12.9644 20.0937 13.02 20.0922 13.0732 20.0908C13.1866 20.0877 13.2892 20.085 13.3901 20.0976C13.58 20.1212 13.617 20.0438 13.6041 19.8734C13.5938 19.7373 13.5962 19.5999 13.5986 19.4626C13.5997 19.3994 13.6008 19.3362 13.6007 19.2732C13.6002 18.9535 13.7432 18.7216 14.0404 18.6037C14.3956 18.463 14.7217 18.278 15.0192 18.0388C15.2772 17.8314 15.5524 17.8258 15.8358 17.9906C15.8985 18.0271 15.9616 18.0631 16.0246 18.0991C16.16 18.1764 16.2954 18.2537 16.4279 18.3356C16.5145 18.389 16.5571 18.3813 16.6084 18.2883C16.7737 17.9884 16.9438 17.6911 17.1234 17.3994C17.1893 17.2923 17.1475 17.2566 17.0592 17.2088C16.9087 17.1273 16.761 17.0406 16.6134 16.954C16.5701 16.9286 16.5268 16.9032 16.4835 16.8779C16.2083 16.7174 16.0726 16.4834 16.1256 16.1633C16.1893 15.7786 16.1898 15.3961 16.1256 15.0115C16.0722 14.6914 16.2074 14.4573 16.483 14.2972C16.5391 14.2648 16.5949 14.232 16.6508 14.1993C16.7859 14.12 16.921 14.0408 17.0584 13.9659C17.1458 13.9182 17.1893 13.8833 17.123 13.7753C16.9434 13.484 16.7733 13.1863 16.6079 12.8864C16.5571 12.7939 16.5149 12.7849 16.4279 12.8382C16.2766 12.931 16.1222 13.0186 15.9677 13.1063C15.9172 13.1349 15.8667 13.1635 15.8164 13.1923C15.5472 13.3459 15.2837 13.3416 15.0378 13.1467C14.7273 12.901 14.3892 12.7083 14.0218 12.5603C13.7316 12.4437 13.6007 12.21 13.6007 11.9011C13.6005 11.8417 13.6001 11.7822 13.5996 11.7228C13.5984 11.5606 13.5971 11.3985 13.6028 11.2364C13.6071 11.1228 13.5864 11.0729 13.4555 11.0767C13.1196 11.0866 12.7828 11.0862 12.4465 11.0767C12.3242 11.0733 12.307 11.1215 12.31 11.2248C12.3137 11.3607 12.313 11.4969 12.3123 11.633C12.3119 11.7187 12.3115 11.8043 12.3121 11.8899C12.3147 12.2191 12.1687 12.454 11.8625 12.5749C11.5141 12.7122 11.1937 12.8933 10.9026 13.1295C10.6386 13.3438 10.3574 13.3494 10.0671 13.1794C10.0001 13.1402 9.9327 13.1017 9.86529 13.0632C9.73431 12.9883 9.60336 12.9135 9.47542 12.8339C9.39445 12.7836 9.35483 12.7969 9.31004 12.8769C9.13907 13.182 8.96681 13.4866 8.78551 13.7852C8.72565 13.8838 8.76182 13.916 8.84408 13.9608C8.95482 14.0215 9.06387 14.0856 9.17292 14.1497C9.25471 14.1978 9.3365 14.2458 9.419 14.2925C9.70582 14.4543 9.84104 14.6931 9.78592 15.0218C9.72261 15.3991 9.72261 15.7747 9.78592 16.1521C9.84104 16.4808 9.70582 16.7205 9.42029 16.8827C9.34206 16.9271 9.26448 16.9725 9.18689 17.018C9.07356 17.0845 8.96023 17.1509 8.84494 17.214C8.76397 17.2583 8.72435 17.2893 8.78508 17.3891C8.96638 17.6877 9.13821 17.9923 9.30961 18.2969C9.35397 18.3761 9.39273 18.3916 9.47456 18.3408C9.60886 18.2572 9.74669 18.1794 9.88457 18.1017C9.93327 18.0742 9.98197 18.0467 10.0305 18.019C10.4026 17.8069 10.6145 17.8185 10.953 18.0835C11.1795 18.2608 11.4138 18.4312 11.686 18.5198C12.1614 18.6747 12.3586 18.9853 12.3152 19.4767C12.3122 19.5106 12.3081 19.5468 12.3039 19.584C12.2838 19.7621 12.2611 19.9633 12.3449 20.0541C12.423 20.1387 12.5694 20.1213 12.709 20.1048Z" fill="#404041"/>
<path fill-rule="evenodd" clip-rule="evenodd" d="M12.9353 17.5173C13.9762 17.538 14.8564 16.6822 14.8879 15.6186C14.9184 14.5816 14.0688 13.7 12.9986 13.6579C11.9568 13.617 11.0563 14.4827 11.0245 15.5553C10.9939 16.5987 11.8677 17.4958 12.9353 17.5173ZM12.9534 16.2295C13.3022 16.2308 13.5951 15.9434 13.5994 15.5949C13.6037 15.2468 13.3177 14.9517 12.9693 14.9444C12.6214 14.937 12.3234 15.2201 12.313 15.5682C12.3023 15.9245 12.5964 16.2282 12.9534 16.2295Z" fill="#404041"/>
</svg>
