<svg width="26" height="26" viewBox="0 0 26 26" fill="none" xmlns="http://www.w3.org/2000/svg">
<path d="M15.6256 1.41882C15.5349 1.49453 15.4447 1.4832 15.354 1.41882H15.6256Z" fill="#404041"/>
<path fill-rule="evenodd" clip-rule="evenodd" d="M16.1135 1.49414C16.0117 1.47022 15.91 1.4463 15.8092 1.41882H15.7185C15.6278 1.456 15.5376 1.456 15.4469 1.41882H14.9496C14.9387 1.45111 14.9134 1.4547 14.8857 1.45864L14.8789 1.45963C13.3284 1.69084 12.1415 2.81109 11.8146 4.34707C11.7247 4.76951 11.7323 5.19557 11.7399 5.62154C11.7423 5.76014 11.7448 5.89873 11.7439 6.03719C11.743 6.19632 11.7013 6.2344 11.5449 6.23304C11.1049 6.22929 10.6649 6.2294 10.2249 6.22952H10.2247C9.76032 6.22964 9.29592 6.22975 8.83152 6.22533C8.66061 6.22352 8.60258 6.26296 8.59578 6.4434C8.56605 7.22821 8.53258 8.01279 8.49911 8.79731C8.46673 9.55636 8.43435 10.3154 8.40537 11.0745C8.39902 11.2404 8.35958 11.2839 8.19047 11.283C7.34464 11.279 6.49868 11.2787 5.65266 11.2783H5.65264H5.65263H5.65261H5.65259C4.86302 11.278 4.0734 11.2777 3.28377 11.2744C3.10968 11.2735 3.05981 11.3134 3.05981 11.4943C3.06525 15.783 3.06571 20.0718 3.05981 24.3606C3.05981 24.5433 3.11286 24.5796 3.28513 24.5796C8.84219 24.5761 14.3989 24.5766 19.9556 24.5771L22.732 24.5773C22.7389 24.5773 22.7459 24.577 22.753 24.5768L22.7531 24.5768C22.7686 24.5762 22.7843 24.5756 22.7995 24.5777C22.9237 24.5963 22.9441 24.5406 22.9391 24.4245C22.8796 23.0452 22.8226 21.6657 22.7656 20.2861L22.7656 20.2844L22.7655 20.2826L22.7654 20.2809L22.7653 20.2792L22.7651 20.2742L22.7649 20.2693L22.7647 20.2644L22.7645 20.2595C22.7341 19.5244 22.7038 18.7894 22.673 18.0544L22.5509 15.135C22.4292 12.2302 22.3076 9.32562 22.1897 6.42073C22.1829 6.25752 22.1317 6.22443 21.9803 6.22533C21.5418 6.22863 21.1033 6.22852 20.6647 6.2284C20.1988 6.22828 19.7329 6.22816 19.2669 6.23213C19.0978 6.23349 19.0321 6.20176 19.0384 6.01407C19.0516 5.63053 19.0584 5.24381 19.0289 4.86163C18.9156 3.39773 18.1766 2.35954 16.8564 1.72665C16.6189 1.61291 16.3662 1.55352 16.1135 1.49414ZM21.0979 15.1856L21.0482 14.0063H21.0514L20.9935 12.6468V12.6468V12.6468V12.6467V12.6467C20.9239 11.0145 20.8544 9.38223 20.7898 7.74998C20.7839 7.60173 20.7318 7.58043 20.603 7.58224C20.1134 7.58904 19.6233 7.59176 19.1337 7.58133C18.9768 7.57816 18.9437 7.63438 18.9478 7.77673C18.9528 7.94735 18.952 8.1181 18.9512 8.28884C18.9505 8.42706 18.9499 8.56528 18.9523 8.7034C18.9541 8.81356 18.9315 8.86751 18.8045 8.86479C18.4505 8.85754 18.0959 8.85754 17.7419 8.86479C17.6181 8.86706 17.5886 8.81991 17.5909 8.70612C17.5937 8.56057 17.5931 8.41493 17.5926 8.26928V8.26918C17.592 8.1059 17.5913 7.94261 17.5954 7.77945C17.599 7.64163 17.5741 7.58043 17.4127 7.58133C15.996 7.58768 14.5792 7.58677 13.1625 7.58224C13.0301 7.58179 12.9979 7.62486 13.0011 7.74998C13.0055 7.92319 13.0049 8.09654 13.0043 8.26994V8.26996V8.26998V8.27V8.27002C13.0038 8.42065 13.0033 8.57132 13.0061 8.72198C13.0083 8.82898 12.9775 8.86615 12.8669 8.86434C12.5128 8.85845 12.1583 8.85618 11.8042 8.86525C11.67 8.86842 11.6415 8.819 11.6446 8.69614C11.6484 8.54169 11.6477 8.38723 11.6471 8.23278C11.6464 8.07079 11.6457 7.9088 11.6501 7.74681C11.6537 7.6176 11.6143 7.58043 11.486 7.58224L11.3056 7.58522C10.8985 7.59215 10.4907 7.5991 10.0846 7.57816C9.84163 7.56547 9.80309 7.65659 9.79629 7.86786C9.76093 8.93733 9.7165 10.0063 9.6621 11.0749C9.65303 11.2544 9.70653 11.2816 9.86928 11.2812C10.6395 11.2786 11.4098 11.2783 12.1801 11.278C13.128 11.2777 14.076 11.2773 15.024 11.2726C15.2384 11.2717 15.3105 11.3057 15.3096 11.546C15.3037 13.1667 15.3029 14.7876 15.302 16.4085V16.4085V16.4085V16.4086V16.4086C15.3014 17.659 15.3008 18.9094 15.2978 20.1598C15.2973 20.3511 15.3472 20.391 15.5322 20.3901C17.3864 20.3824 19.2402 20.3819 21.094 20.3901C21.2917 20.391 21.3216 20.333 21.313 20.1493C21.2371 18.495 21.1675 16.8403 21.0979 15.1856ZM14.0386 17.9262C14.0386 18.3073 14.0384 18.6885 14.0382 19.0696C14.0377 20.3763 14.0371 21.683 14.0431 22.9897C14.044 23.1779 13.9978 23.2237 13.8096 23.2232C10.7581 23.2169 7.7065 23.2169 4.65494 23.2232C4.4736 23.2232 4.41602 23.1892 4.41648 22.9938C4.42328 19.6181 4.42282 16.2424 4.41693 12.8671C4.41693 12.6835 4.45365 12.6223 4.64724 12.63C5.05347 12.646 5.46058 12.6394 5.86727 12.6327L5.89035 12.6323C6.00958 12.6305 6.04177 12.6663 6.03995 12.7842C6.03361 13.2511 6.03542 13.7185 6.03769 14.1855C6.04585 15.8303 7.2604 17.2008 8.86665 17.3794C10.4888 17.5598 11.9595 16.5112 12.3444 14.9054C12.425 14.5687 12.4225 14.229 12.42 13.889C12.4192 13.7855 12.4185 13.682 12.4201 13.5785L12.4217 13.4764V13.4764V13.4764V13.4764C12.4252 13.2618 12.4287 13.0467 12.4174 12.8327C12.4092 12.6785 12.4468 12.6255 12.6114 12.6305C13.0181 12.6432 13.4252 12.6436 13.8318 12.6305C14.0014 12.625 14.0431 12.6704 14.0422 12.8404C14.0366 14.0592 14.0372 15.278 14.0378 16.4967V16.4972V16.4972C14.0379 16.8681 14.0381 17.2389 14.0381 17.6097V17.9262H14.0386ZM14.7367 6.22793H14.7367H14.7367C14.9176 6.22817 15.0985 6.22841 15.2793 6.22841V6.22796C15.4622 6.22796 15.645 6.22771 15.8279 6.22747C16.3536 6.22678 16.8794 6.22608 17.4051 6.23113C17.5479 6.23249 17.6023 6.19985 17.5964 6.04616C17.5902 5.87872 17.5904 5.7111 17.5906 5.54353C17.5908 5.33409 17.5911 5.12473 17.5787 4.91594C17.5125 3.78798 16.6199 2.8799 15.496 2.78198C14.3925 2.68586 13.3702 3.40942 13.085 4.48388C12.9932 4.82914 12.999 5.1788 13.0047 5.52834V5.52836V5.52838C13.0076 5.70528 13.0105 5.88215 13.0007 6.0584C12.9926 6.20166 13.0397 6.23294 13.1762 6.23158C13.6962 6.22654 14.2165 6.22723 14.7367 6.22793ZM9.57423 12.635H9.57428C9.97736 12.6357 10.3806 12.6364 10.7835 12.6318C10.9186 12.6304 10.9803 12.6485 10.9762 12.8095C10.9695 13.0627 10.9705 13.3161 10.9715 13.5695C10.9723 13.798 10.9732 14.0265 10.9685 14.2548C10.9476 15.2526 10.1284 16.041 9.12786 16.036C8.13818 16.0311 7.3244 15.2418 7.30536 14.2584C7.30049 14.0085 7.30119 13.7585 7.30189 13.5085V13.5085C7.30255 13.2691 7.30322 13.0297 7.29901 12.7904C7.29674 12.6576 7.34117 12.6309 7.46403 12.6322C7.87263 12.6369 8.28122 12.6362 8.68981 12.6355C8.8384 12.6352 8.98698 12.6349 9.13556 12.6349L9.13466 12.6345C9.28116 12.6345 9.42769 12.6347 9.57423 12.635ZM17.6405 23.2196C17.8796 23.2198 18.1186 23.22 18.3576 23.22C18.5986 23.22 18.8396 23.2197 19.0806 23.2195C19.8035 23.2188 20.5263 23.2181 21.2492 23.2236C21.4001 23.2245 21.4359 23.1832 21.426 23.0364C21.4001 22.6605 21.387 22.2842 21.3784 21.9079C21.3757 21.7887 21.3507 21.7393 21.2156 21.7393C19.2956 21.7438 17.3752 21.7438 15.4552 21.7393C15.3133 21.7388 15.2993 21.7987 15.3006 21.9138L15.301 21.9408C15.3059 22.3081 15.3108 22.6763 15.2984 23.0432C15.2929 23.2005 15.3505 23.2236 15.4888 23.2227C16.2059 23.2186 16.9233 23.2191 17.6405 23.2196Z" fill="#404041"/>
</svg>
