<svg width="26" height="24" viewBox="0 0 26 24" fill="none" xmlns="http://www.w3.org/2000/svg">
<g clip-path="url(#clip0_342_19)">
<path d="M26 2.72313C25.8569 2.85596 25.7329 3.02231 25.5663 3.11604C24.7409 3.58096 23.9047 4.02663 23.0716 4.47789C22.9978 4.51762 22.9241 4.5592 22.8452 4.58652C22.601 4.67155 22.353 4.58527 22.2297 4.37982C22.1018 4.16567 22.1394 3.87704 22.3727 3.74607C23.3444 3.20046 24.3225 2.6654 25.3113 2.1502C25.5765 2.01178 25.801 2.1471 26 2.47484V2.7225V2.72313Z" fill="#404041"/>
<path d="M10.2794 15.9326C10.4842 16.2789 10.675 16.598 10.8619 16.9195C11.0896 17.3112 11.0228 17.5595 10.6285 17.7848C10.2355 18.0095 9.84 18.2298 9.42984 18.4607C9.8222 19.1249 10.2196 19.7673 10.584 20.4265C10.8104 20.8362 11.0502 21.2564 11.1722 21.7009C11.3821 22.4625 10.9363 23.3284 10.2088 23.7393C9.47881 24.1521 8.48614 24.0733 7.89093 23.5289C7.68489 23.3402 7.50111 23.1136 7.35739 22.8759C6.56059 21.5538 5.77588 20.2236 4.99561 18.8921C4.90849 18.7432 4.84044 18.7072 4.66366 18.7649C2.94987 19.3198 1.10254 18.5296 0.33054 16.9232C-0.41666 15.3677 0.133406 13.4683 1.65451 12.5577C3.04462 11.7253 4.47416 10.9569 5.88207 10.1531C6.01625 10.0767 6.1428 9.96934 6.23882 9.85016C8.38948 7.18418 10.5395 4.51821 12.6781 1.84354C13.0844 1.33579 13.5665 1.03537 14.2405 1.1322C14.7499 1.20544 15.1181 1.49097 15.3731 1.92423C15.9372 2.88262 16.5076 3.8379 17.0659 4.79939C17.1562 4.95519 17.2484 5.02285 17.4392 5.00733C17.9784 4.96264 18.5196 4.9434 19.0595 4.90491C19.3476 4.88443 19.5415 4.99926 19.6801 5.24072C19.9746 5.75095 20.2703 6.26056 20.5806 6.7621C20.7415 7.0228 20.7256 7.25122 20.5526 7.4964C20.2601 7.91104 19.9892 8.33996 19.6929 8.75149C19.5765 8.91288 19.5657 9.03268 19.6725 9.20834C20.1984 10.0736 20.7186 10.9432 21.221 11.8222C21.7456 12.7408 21.221 13.8476 20.1927 14.0344C19.5034 14.1598 18.8147 14.2883 18.1266 14.4199C15.5893 14.904 13.0526 15.3894 10.516 15.8755C10.4498 15.8879 10.385 15.9071 10.2788 15.9332L10.2794 15.9326ZM12.7162 3.38167C12.6838 3.43506 12.6692 3.46547 12.6482 3.49154C10.8155 5.77205 8.98343 8.05256 7.14564 10.3287C7.05025 10.4467 7.07632 10.5224 7.14182 10.6323C7.97296 12.0314 8.80156 13.4317 9.62507 14.8351C9.70392 14.9698 9.77323 15.0114 9.93984 14.9785C11.9786 14.5819 14.0192 14.1964 16.0592 13.8066C16.8955 13.6471 17.7311 13.4838 18.5927 13.3175C16.6335 10.0053 14.6863 6.71306 12.7162 3.38167ZM8.77866 15.3807C7.93226 13.9506 7.09031 12.5267 6.24454 11.0972C5.1584 11.7086 4.0977 12.3045 3.03763 12.9028C2.72349 13.0804 2.40362 13.2504 2.10411 13.4497C1.19093 14.0586 0.798573 15.2132 1.14387 16.2268C1.66278 17.7475 3.40582 18.3968 4.85889 17.5948C6.12308 16.8972 7.37647 16.1796 8.63368 15.4707C8.67692 15.4465 8.71825 15.418 8.77803 15.3801L8.77866 15.3807ZM13.4049 2.55364C13.4552 2.64116 13.4997 2.72061 13.5461 2.79882C14.2806 4.04212 15.0157 5.28541 15.7508 6.52871C17.0055 8.65094 18.2602 10.7732 19.5154 12.8948C19.5574 12.9649 19.6197 13.0915 19.6553 13.0866C19.8576 13.0555 20.0751 13.027 20.2467 12.9295C20.4261 12.8271 20.4591 12.6192 20.3886 12.4205C20.3587 12.3355 20.3091 12.2567 20.2626 12.1785C18.353 8.94888 16.4427 5.71991 14.5318 2.49095C14.4981 2.43384 14.4656 2.37549 14.4262 2.32211C14.2119 2.03844 13.8653 2.01982 13.625 2.28052C13.5468 2.36556 13.4793 2.46053 13.4049 2.55426V2.55364ZM5.78033 18.2273C5.81403 18.2907 5.83565 18.3335 5.86045 18.3751C6.65852 19.7245 7.45596 21.074 8.25467 22.4228C8.30109 22.501 8.35006 22.5792 8.40856 22.6493C8.83399 23.1577 9.6505 23.1273 10.0244 22.586C10.2845 22.2092 10.2508 21.8294 10.0231 21.4458C9.22253 20.0982 8.42637 18.7481 7.62766 17.3987C7.59904 17.3503 7.56534 17.305 7.52464 17.2435C6.94023 17.5731 6.36537 17.8971 5.78033 18.2273ZM17.7705 5.97875C18.1819 6.67395 18.5698 7.33005 18.9775 8.01781C19.1841 7.71303 19.3692 7.44861 19.5428 7.17798C19.5701 7.13515 19.5708 7.04949 19.5453 7.00418C19.3577 6.67271 19.1625 6.34497 18.9647 6.0191C18.938 5.97503 18.8808 5.91544 18.8395 5.9173C18.4967 5.92972 18.154 5.95516 17.7711 5.97937L17.7705 5.97875ZM8.92174 17.6004C9.22826 17.4272 9.50742 17.2683 9.79867 17.1039C9.61934 16.8009 9.45718 16.5266 9.29121 16.2466C8.98534 16.4204 8.7049 16.58 8.41492 16.7445C8.5898 17.0399 8.74878 17.3087 8.92174 17.6004Z" fill="#404041"/>
<path d="M22.9744 6.785C23.0978 6.81728 23.3006 6.87004 23.5041 6.9228C23.9601 7.04136 24.4173 7.15619 24.8714 7.28033C25.2167 7.37468 25.3756 7.61304 25.3006 7.89794C25.2256 8.18285 24.9623 8.31879 24.6208 8.23313C24.0008 8.07733 23.3814 7.91905 22.7652 7.74835C22.46 7.66393 22.3099 7.43241 22.3601 7.17853C22.4097 6.92839 22.617 6.77321 22.9744 6.78438V6.785Z" fill="#404041"/>
<path d="M19.4939 2.30847C19.5105 2.23957 19.5384 2.11108 19.5734 1.98446C19.7165 1.45995 19.8564 0.934825 20.009 0.413423C20.1012 0.0993406 20.3632 -0.0564592 20.6354 0.0186474C20.9203 0.0974784 21.064 0.343282 20.9813 0.66171C20.8204 1.28305 20.6526 1.90376 20.4701 2.51951C20.3829 2.81249 20.1432 2.94036 19.8698 2.88139C19.6275 2.82925 19.4812 2.63186 19.4939 2.30847Z" fill="#404041"/>
<path d="M3.67616 16.958C3.01608 16.9388 2.58429 16.7203 2.28287 16.2721C2.11562 16.0232 2.15314 15.7557 2.37126 15.5862C2.58811 15.418 2.8641 15.4503 3.0714 15.6682C3.41607 16.0307 3.54643 16.0499 3.99094 15.8004C4.20333 15.6812 4.41255 15.5564 4.62812 15.4429C4.93845 15.279 5.23479 15.3429 5.38041 15.5956C5.52222 15.842 5.43701 16.1207 5.14766 16.2901C4.8367 16.4726 4.52193 16.6526 4.19507 16.8047C4.00175 16.8947 3.78108 16.9282 3.67616 16.958Z" fill="#404041"/>
<path d="M6.7234 14.3621C7.00193 14.3702 7.2156 14.5924 7.20543 14.8618C7.19462 15.1312 6.96378 15.3366 6.68461 15.3261C6.40417 15.3149 6.19114 15.0939 6.20259 14.8251C6.21404 14.5539 6.43979 14.3534 6.7234 14.3621Z" fill="#404041"/>
</g>
<defs>
<clipPath id="clip0_342_19">
<rect width="26" height="24" fill="white"/>
</clipPath>
</defs>
</svg>
