<svg width="26" height="26" viewBox="0 0 26 26" fill="none" xmlns="http://www.w3.org/2000/svg">
<path fill-rule="evenodd" clip-rule="evenodd" d="M11.0328 23.958C11.0603 23.9626 11.087 23.9672 11.0984 24L11.0993 23.9996H14.8345C14.8373 23.996 14.8398 23.9913 14.8423 23.9868C14.8473 23.9778 14.8521 23.9689 14.8584 23.9677C15.6186 23.8407 16.0534 23.3924 16.2276 22.6943C16.3489 22.2077 16.4667 21.7202 16.5713 21.2306C16.6002 21.0958 16.6597 21.0243 16.7901 20.9696C17.3468 20.7362 17.8701 20.4438 18.3568 20.0963C18.4588 20.0235 18.5445 20.014 18.6618 20.0506C19.1801 20.213 19.6998 20.3723 20.2222 20.5226C21.0319 20.7556 21.7821 20.4739 22.2057 19.7802C22.7182 18.9409 23.2271 18.0998 23.7341 17.2575C24.1879 16.5039 24.0571 15.7365 23.38 15.1448C23.2711 15.0495 23.1624 14.954 23.0537 14.8585C22.7817 14.6194 22.5096 14.3804 22.2337 14.1453C22.1453 14.0704 22.1133 13.9967 22.1259 13.8861C22.1931 13.2935 22.1936 12.6996 22.1245 12.1071C22.111 11.9917 22.1575 11.9232 22.2409 11.8513C22.5783 11.5609 22.9126 11.2674 23.247 10.9736C23.299 10.928 23.351 10.8823 23.403 10.8367C24.0458 10.2717 24.1803 9.49656 23.7486 8.77351C23.2374 7.91698 22.7205 7.06345 22.1994 6.21251C21.7817 5.52995 21.0274 5.24788 20.2321 5.47612C19.7215 5.6226 19.2139 5.78019 18.7068 5.93763L18.6717 5.94853C18.5495 5.98643 18.4556 5.97738 18.346 5.89814C17.8611 5.54761 17.3351 5.25951 16.7788 5.02567C16.6525 4.9727 16.6024 4.90509 16.5749 4.77935C16.496 4.41604 16.4092 4.05435 16.3223 3.69258C16.2904 3.55993 16.2586 3.42726 16.2271 3.29451C16.0408 2.50773 15.3939 2.00475 14.5557 2.00259C13.5132 1.99958 12.4707 1.99872 11.4281 2.00259C10.6211 2.00561 9.97555 2.50041 9.79105 3.25058C9.67639 3.71983 9.56713 4.19055 9.45792 4.66104C9.44896 4.69962 9.44001 4.73819 9.43106 4.77676C9.40624 4.88399 9.37602 4.96495 9.24926 5.01706C8.67634 5.25176 8.13951 5.54976 7.64193 5.90805C7.54765 5.97609 7.46825 5.98643 7.35683 5.95154C6.84571 5.79049 6.33325 5.63459 5.81852 5.4843C4.97313 5.23712 4.22924 5.51574 3.78444 6.24567C3.27649 7.07938 2.77169 7.91439 2.26869 8.75069C1.8248 9.48967 1.9457 10.2484 2.59936 10.8307C2.98867 11.1773 3.37979 11.5223 3.77542 11.8625C3.86249 11.9374 3.88955 12.0085 3.87737 12.1222C3.81422 12.7078 3.81241 13.2948 3.87873 13.88C3.89181 13.995 3.86113 14.0643 3.77497 14.1388C3.3631 14.4937 2.95213 14.8502 2.54929 15.2146C1.97908 15.73 1.82976 16.4893 2.20644 17.1369C2.74417 18.0611 3.30085 18.9753 3.8688 19.8827C4.21436 20.4348 4.91855 20.7198 5.57988 20.5648C6.11207 20.4399 6.63438 20.2747 7.15552 20.1098C7.20203 20.0951 7.24853 20.0804 7.29502 20.0657C7.45697 20.0145 7.56705 20.0368 7.69922 20.1307C8.16883 20.4649 8.67408 20.744 9.21136 20.9657C9.34219 21.0196 9.40489 21.0936 9.43421 21.225C9.50204 21.5307 9.57484 21.8354 9.64765 22.1402C9.69299 22.33 9.73833 22.5198 9.78247 22.7098C9.93315 23.3566 10.3491 23.7632 11.0073 23.9526C11.0155 23.955 11.0242 23.9565 11.0328 23.958ZM5.28982 6.77191C5.30664 6.77654 5.32607 6.78168 5.34724 6.78728C5.39309 6.79941 5.44711 6.81371 5.5005 6.82962C5.66257 6.87834 5.82478 6.92671 5.98698 6.97508L5.9872 6.97515L5.98721 6.97515C6.4457 7.11188 6.9042 7.24861 7.35999 7.39332C7.66811 7.49108 7.93066 7.43983 8.17651 7.24734C8.78326 6.77277 9.45137 6.3964 10.1862 6.13328C10.4975 6.02174 10.6671 5.81676 10.7361 5.51144C10.801 5.22486 10.8692 4.939 10.9375 4.65312L10.9376 4.65296C11.019 4.31212 11.1004 3.97126 11.176 3.62912C11.2184 3.43662 11.319 3.37246 11.517 3.37375C12.5068 3.37935 13.497 3.38021 14.4872 3.37332C14.701 3.3716 14.7944 3.45342 14.8377 3.64806C14.9086 3.96604 14.9844 4.28302 15.0602 4.60002C15.1343 4.90982 15.2084 5.21963 15.278 5.53038C15.3434 5.82236 15.5067 6.01916 15.799 6.12294C16.5424 6.38649 17.2164 6.76718 17.8304 7.24432C18.078 7.43682 18.3379 7.48849 18.6465 7.39117C18.9658 7.29042 19.2869 7.19505 19.6081 7.09968L19.6082 7.09963C19.9294 7.00424 20.2506 6.90886 20.57 6.80809C20.7689 6.74521 20.8898 6.78052 20.9954 6.95666C21.484 7.77573 21.9788 8.59222 22.4782 9.40526C22.5897 9.58656 22.5617 9.71317 22.3993 9.85183C22.1616 10.055 21.9276 10.262 21.6937 10.4689L21.6936 10.469C21.4435 10.6902 21.1935 10.9114 20.939 11.1278C20.6832 11.3453 20.6043 11.5994 20.6544 11.9163C20.7685 12.6355 20.769 13.3577 20.6553 14.0768C20.6034 14.4028 20.6877 14.6595 20.9508 14.8817C21.2047 15.0965 21.4535 15.317 21.7023 15.5374L21.7024 15.5375L21.7024 15.5376C21.9319 15.7408 22.1613 15.9441 22.3948 16.143C22.5657 16.2886 22.5874 16.4186 22.471 16.6073C21.9739 17.4134 21.4835 18.2239 20.999 19.0369C20.8957 19.2105 20.7816 19.2587 20.5781 19.1945C20.2702 19.0973 19.9603 19.0054 19.6504 18.9135C19.3178 18.8149 18.9852 18.7162 18.655 18.611C18.3374 18.5098 18.0749 18.5636 17.82 18.7617C17.2124 19.2346 16.5443 19.611 15.8085 19.8732C15.5162 19.9774 15.3456 20.1665 15.2798 20.4589C15.2145 20.7475 15.1455 21.0354 15.0765 21.3232L15.0765 21.3233C14.9953 21.6621 14.9142 22.0009 14.839 22.3408C14.7944 22.5436 14.7033 22.6306 14.4772 22.6284C13.4947 22.6198 12.5122 22.6211 11.5297 22.6276C11.3226 22.6289 11.2179 22.5638 11.1737 22.3614C11.1028 22.0373 11.0253 21.7144 10.9479 21.3916L10.9479 21.3916C10.8766 21.0947 10.8054 20.7979 10.7393 20.5002C10.6694 20.1859 10.4975 19.9783 10.1772 19.8637C9.44956 19.6036 8.78823 19.2298 8.18644 18.7609C7.93381 18.5636 7.6672 18.5107 7.34962 18.6123C7.01816 18.7182 6.68434 18.8176 6.35044 18.917L6.35038 18.917C6.04899 19.0068 5.74754 19.0965 5.44772 19.1911C5.24156 19.2561 5.11795 19.2208 5.00698 19.033C4.52428 18.2187 4.03347 17.4087 3.53453 16.6034C3.41589 16.4117 3.44431 16.2856 3.61438 16.1413C3.91216 15.8885 4.205 15.6304 4.49787 15.3722L4.49796 15.3721C4.69001 15.2029 4.88207 15.0336 5.07555 14.8658C5.31058 14.6621 5.4017 14.4261 5.35433 14.1182C5.2384 13.3633 5.2411 12.6053 5.35885 11.85C5.40125 11.5787 5.32321 11.3565 5.11434 11.173C4.98628 11.0606 4.85839 10.9479 4.73049 10.8351C4.35694 10.506 3.98331 10.1767 3.60491 9.8527C3.44431 9.71489 3.41499 9.59216 3.52957 9.40742C3.91844 8.77929 4.29974 8.14703 4.681 7.51484C4.79246 7.33003 4.90391 7.14523 5.01555 6.96053L5.02155 6.95058C5.07664 6.85913 5.13093 6.769 5.28982 6.77191ZM8.21216 12.6208C8.02404 15.2925 10.1488 17.484 12.8361 17.5822C15.384 17.7097 17.6536 15.7331 17.7979 13.2616C17.9468 10.7045 15.9037 8.56164 13.1807 8.41953C10.682 8.28948 8.37817 10.264 8.21216 12.6208ZM13.0088 9.78944C11.1601 9.7847 9.65022 11.2239 9.64661 12.9947C9.643 14.765 11.1434 16.2055 12.9966 16.2124C14.8389 16.2189 16.361 14.7698 16.3633 13.0063C16.3655 11.2403 14.8579 9.79418 13.0088 9.78944Z" fill="#404041"/>
</svg>
