<svg width="26" height="26" viewBox="0 0 26 26" fill="none" xmlns="http://www.w3.org/2000/svg">
<path d="M3.34277 4.42025C3.39807 4.22152 3.44084 4.01847 3.5104 3.82492C3.90052 2.7401 4.88943 2.01213 6.03733 2.00738C8.79627 1.99571 11.5552 2.0009 14.3137 2.00392C14.8611 2.00435 15.2534 2.39491 15.2542 2.91507C15.2551 3.43739 14.8732 3.82233 14.3163 3.82665C13.1667 3.83572 12.0175 3.8301 10.8678 3.8301C9.32334 3.8301 7.77841 3.8314 6.23391 3.82924C5.86063 3.82881 5.51372 3.91435 5.33399 4.26256C5.23117 4.46216 5.18494 4.71274 5.18408 4.94042C5.17501 8.48218 5.1776 12.0244 5.1776 15.5661C5.1776 17.4126 5.17933 19.2591 5.1763 21.1052C5.17587 21.427 5.23722 21.7169 5.49168 21.9407C5.71202 22.1343 5.97599 22.1727 6.25508 22.1727C8.8844 22.1719 11.5142 22.1719 14.1435 22.1727C14.2796 22.1727 14.4191 22.1693 14.5513 22.1965C14.9941 22.2881 15.284 22.7015 15.2486 23.1724C15.2158 23.6071 14.8602 23.9609 14.4213 23.9942C14.3642 23.9985 14.3064 23.9989 14.2489 23.9989C11.5474 23.9989 8.84638 24.0024 6.14491 23.9976C4.78964 23.995 3.72037 23.1461 3.41103 21.8465C3.38986 21.7575 3.36567 21.669 3.34277 21.5804C3.34277 15.8599 3.34277 10.1394 3.34277 4.41939L3.34277 4.42025Z" fill="#404041"/>
<path d="M19.4963 13.9136C19.3516 13.9136 19.2678 13.9136 19.184 13.9136C15.7709 13.9136 14.3579 13.908 10.9449 13.9188C10.3154 13.9209 9.99314 13.5243 9.92661 13.1515C9.83631 12.6464 10.2178 12.1384 10.7289 12.096C10.836 12.087 10.9445 12.0887 11.052 12.0887C14.4361 12.0887 15.8206 12.0887 19.2047 12.0887C19.2816 12.0887 19.3585 12.0887 19.4929 12.0887C19.4026 11.9928 19.3486 11.9323 19.2911 11.8757C18.0641 10.6639 16.8376 9.45159 15.6085 8.24234C15.3406 7.97881 15.1868 7.68287 15.2754 7.29707C15.4227 6.6555 16.1766 6.37425 16.7041 6.76697C16.7845 6.82659 16.8571 6.89744 16.9288 6.96786C18.7087 8.72405 20.4878 10.4807 22.2669 12.2377C22.7875 12.7519 22.7875 13.2508 22.2674 13.765C20.4779 15.532 18.6889 17.299 16.8985 19.0655C16.4803 19.4781 16.0047 19.5343 15.6046 19.2223C15.2007 18.9074 15.1307 18.3384 15.4499 17.9379C15.5122 17.8597 15.5839 17.788 15.6552 17.7172C16.8718 16.5153 18.0892 15.3146 19.3062 14.1132C19.3568 14.0635 19.4039 14.0099 19.4963 13.9136Z" fill="#404041"/>
</svg>
