<svg xmlns="http://www.w3.org/2000/svg" width="80.001" height="80.001" viewBox="0 0 80.001 80.001">
  <g id="Group_1343" data-name="Group 1343" transform="translate(-833.439 -2150.527)">
    <path id="Path_905" data-name="Path 905" d="M912.629,2167.828l-31.158-17.108a1.561,1.561,0,0,0-1.5,0l-11.744,6.449a1.584,1.584,0,0,0-.671.368l-18.743,10.291A1.562,1.562,0,0,0,848,2169.2v20.692a20.815,20.815,0,0,0-12.452,28.972,1.563,1.563,0,0,0,2.808-1.372,17.665,17.665,0,1,1,8.12,8.12,1.562,1.562,0,1,0-1.372,2.807,20.832,20.832,0,0,0,28.13-10.221l6.733,3.7a1.56,1.56,0,0,0,1.5,0l31.158-17.108a1.561,1.561,0,0,0,.811-1.37v-10.858a1.563,1.563,0,1,0-3.125,0v9.934l-28.027,15.39V2187.23l9.249-5.08v8.051a1.564,1.564,0,0,0,2.316,1.37l6.676-3.675a1.56,1.56,0,0,0,.809-1.368v-9.76l8.977-4.929v8.219a1.563,1.563,0,0,0,3.125,0V2169.2A1.566,1.566,0,0,0,912.629,2167.828Zm-31.909-13.956,27.91,15.327-8.8,4.834-27.91-15.326Zm0,30.653L852.809,2169.2l9.126-5.012,27.913,15.326Zm12.373-6.795-27.91-15.326,3.486-1.913,27.912,15.324Zm-24.159,17.3a20.652,20.652,0,0,0-14.7-6.089,21.175,21.175,0,0,0-3.107.229v-17.334l28.037,15.4v30.651l-4.867-2.672a20.9,20.9,0,0,0,.727-5.48A20.652,20.652,0,0,0,868.934,2195.033Zm29.279-9.429-3.551,1.955v-7.125l3.551-1.949Z" fill="#d7b402"/>
    <path id="Path_906" data-name="Path 906" d="M911.877,2184.738a1.564,1.564,0,1,0,1.1.458A1.566,1.566,0,0,0,911.877,2184.738Z" fill="#d7b402"/>
    <path id="Path_907" data-name="Path 907" d="M848.98,2211.3a1.563,1.563,0,0,0,1.1-2.667L849,2207.546h9.235a4.063,4.063,0,0,1,0,8.125h-5.472a1.562,1.562,0,1,0,0,3.124h5.472a7.187,7.187,0,1,0,0-14.374H849l1.082-1.082a1.562,1.562,0,1,0-2.208-2.21l-3.752,3.75a1.565,1.565,0,0,0,0,2.21l3.752,3.749A1.554,1.554,0,0,0,848.98,2211.3Z" fill="#d7b402"/>
    <path id="Path_908" data-name="Path 908" d="M840.639,2224.9a1.554,1.554,0,0,1-1.194-.557l0,0a1.559,1.559,0,1,1,1.2.56Z" fill="#d7b402"/>
  </g>
</svg>
