<svg width="102" height="102" viewBox="0 0 102 102" fill="none" xmlns="http://www.w3.org/2000/svg">
<g clip-path="url(#clip0_202_23)">
<path d="M101.978 90.154L96.96 33.2653C96.9086 32.6883 96.6443 32.1517 96.2193 31.7617C95.7944 31.3717 95.2397 31.1566 94.6649 31.1589H84.2508C84.2118 26.5953 82.3858 22.2319 79.1705 19.0187C75.9553 15.8055 71.6111 14.0024 67.0836 14.0024C62.556 14.0024 58.2117 15.8055 54.9964 19.0187C51.7812 22.2319 49.9554 26.5953 49.9164 31.1589H39.5033C38.9297 31.1607 38.3774 31.3772 37.9533 31.7664C37.5292 32.1557 37.2637 32.6898 37.2084 33.2653L32.1899 90.154V90.3648C32.1899 96.7729 38.0231 102 45.2167 102H88.9822C96.1541 102 102.009 96.7935 102.009 90.3648C102.011 90.2933 102 90.222 101.978 90.154ZM67.1007 18.6369C70.4069 18.642 73.5783 19.9583 75.9297 22.3011C78.281 24.6439 79.6237 27.8253 79.6672 31.1577H54.5127C54.5579 27.8221 55.9039 24.6382 58.2596 22.2952C60.6153 19.9521 63.7913 18.6379 67.1007 18.6369ZM88.9734 97.341H45.2076C40.6062 97.341 36.8438 94.2564 36.7813 90.4483L41.5906 35.7934H49.8921V43.2963C49.8921 43.9112 50.1343 44.501 50.5657 44.9358C50.997 45.3706 51.5821 45.6151 52.1921 45.6151C52.8022 45.6151 53.3872 45.3706 53.8186 44.9358C54.2499 44.501 54.4923 43.9112 54.4923 43.2963V35.7934H79.6468V43.2963C79.6468 43.9112 79.8891 44.501 80.3204 44.9358C80.7518 45.3706 81.3368 45.6151 81.9468 45.6151C82.5569 45.6151 83.1419 45.3706 83.5733 44.9358C84.0046 44.501 84.2469 43.9112 84.2469 43.2963V35.7934H92.5484L97.3578 90.4483C97.3374 94.2641 93.5697 97.341 88.9734 97.341Z" fill="#7CBDA8"/>
<path d="M26.8274 51.1401H11.0619C10.452 51.1401 9.86729 51.3845 9.43606 51.8191C9.00483 52.2538 8.76245 52.8432 8.76245 53.458C8.76245 54.0727 9.00483 54.6624 9.43606 55.0971C9.86729 55.5318 10.452 55.7761 11.0619 55.7761H26.8274C27.4372 55.7761 28.0221 55.5318 28.4534 55.0971C28.8846 54.6624 29.1268 54.0727 29.1268 53.458C29.1268 52.8432 28.8846 52.2538 28.4534 51.8191C28.0221 51.3845 27.4372 51.1401 26.8274 51.1401Z" fill="#7CBDA8"/>
<path d="M26.8273 62.437H2.30004C1.69002 62.437 1.10496 62.6812 0.673608 63.116C0.242256 63.5508 0 64.1406 0 64.7555C0 65.3704 0.242256 65.9601 0.673608 66.3949C1.10496 66.8298 1.69002 67.074 2.30004 67.074H26.8273C27.4373 67.074 28.0222 66.8298 28.4536 66.3949C28.8849 65.9601 29.1273 65.3704 29.1273 64.7555C29.1273 64.1406 28.8849 63.5508 28.4536 63.116C28.0222 62.6812 27.4373 62.437 26.8273 62.437Z" fill="#7CBDA8"/>
<path d="M26.8273 73.7344H11.0618C10.4517 73.7344 9.86684 73.9786 9.43548 74.4134C9.00413 74.8482 8.76172 75.4379 8.76172 76.0528C8.76172 76.6678 9.00413 77.2575 9.43548 77.6923C9.86684 78.1271 10.4517 78.3713 11.0618 78.3713H26.8273C27.4373 78.3713 28.0222 78.1271 28.4536 77.6923C28.8849 77.2575 29.1273 76.6678 29.1273 76.0528C29.1273 75.4379 28.8849 74.8482 28.4536 74.4134C28.0222 73.9786 27.4373 73.7344 26.8273 73.7344Z" fill="#7CBDA8"/>
</g>
<defs>
<clipPath id="clip0_202_23">
<rect width="102" height="102" fill="white"/>
</clipPath>
</defs>
</svg>
