<svg xmlns="http://www.w3.org/2000/svg" width="76.694" height="60.787" viewBox="0 0 76.694 60.787">
  <g id="Group_1337" data-name="Group 1337" transform="translate(-523.818 -2160.134)">
    <path id="Path_894" data-name="Path 894" d="M599.149,2166.685a5.726,5.726,0,0,0-3.919-2.021l-54.008-4.51A5.762,5.762,0,0,0,535,2165.4l-1.087,10.194h-4.338a5.767,5.767,0,0,0-5.761,5.76v33.808a5.768,5.768,0,0,0,5.761,5.761h54.2a5.768,5.768,0,0,0,5.761-5.761v-5.484l1.922.16c.163.014.324.021.484.021a5.77,5.77,0,0,0,5.737-5.282l2.813-33.69a5.723,5.723,0,0,0-1.343-4.2Zm-69.57,11.9h54.2a2.767,2.767,0,0,1,2.765,2.764v3.08H526.814v-3.08A2.767,2.767,0,0,1,529.579,2178.588Zm-2.765,8.84H586.54v6.215H526.814Zm56.961,30.5h-54.2a2.767,2.767,0,0,1-2.765-2.764v-18.521H586.54v18.521A2.767,2.767,0,0,1,583.775,2217.924Zm13.731-47.289-2.813,33.691a2.767,2.767,0,0,1-2.985,2.525l-2.172-.181v-25.318a5.767,5.767,0,0,0-5.761-5.76H536.93l1.054-9.893,0-.034a2.766,2.766,0,0,1,2.985-2.524l54.008,4.51a2.762,2.762,0,0,1,2.525,2.984Z" fill="#6A366D"/>
    <path id="Path_895" data-name="Path 895" d="M580.27,2201.092H565.855a1.5,1.5,0,0,0-1.5,1.5V2212a1.5,1.5,0,0,0,1.5,1.5H580.27a1.5,1.5,0,0,0,1.5-1.5v-9.406A1.5,1.5,0,0,0,580.27,2201.092Zm-1.5,9.406h-11.42v-6.41h11.42Z" fill="#6A366D"/>
  </g>
</svg>
