<svg xmlns="http://www.w3.org/2000/svg" width="80.001" height="80.001" viewBox="0 0 80.001 80.001">
  <g id="Group_1340" data-name="Group 1340" transform="translate(-210.894 -2150.527)">
    <path id="Path_896" data-name="Path 896" d="M250.9,2158.774a31.754,31.754,0,1,0,31.753,31.754A31.789,31.789,0,0,0,250.9,2158.774Zm0,60.953a29.2,29.2,0,1,1,29.2-29.2A29.232,29.232,0,0,1,250.9,2219.727Z" fill="#6A366D"/>
    <path id="Path_897" data-name="Path 897" d="M276.265,2191.81a1.274,1.274,0,0,0-1.4,1.142A24.147,24.147,0,0,1,253.32,2214.5a1.277,1.277,0,0,0,.126,2.548,1.144,1.144,0,0,0,.129-.008,26.71,26.71,0,0,0,23.833-23.832A1.277,1.277,0,0,0,276.265,2191.81Z" fill="#6A366D"/>
    <path id="Path_898" data-name="Path 898" d="M268.817,2170.823a26.636,26.636,0,1,0-20.6,46.217c.044,0,.086.007.129.007a1.277,1.277,0,0,0,.126-2.548,24.094,24.094,0,1,1,26.4-26.4,1.276,1.276,0,0,0,2.54-.256A26.6,26.6,0,0,0,268.817,2170.823Z" fill="#6A366D"/>
    <path id="Path_899" data-name="Path 899" d="M290.679,2189.817l-2.788-4.16,1.62-4.739a1.277,1.277,0,0,0-.368-1.375l-3.775-3.292.33-5a1.277,1.277,0,0,0-.713-1.231l-4.5-2.2-.969-4.913a1.278,1.278,0,0,0-1.005-1l-4.912-.97-2.2-4.5a1.279,1.279,0,0,0-1.232-.713l-4.995.33-3.293-3.775a1.279,1.279,0,0,0-1.375-.369l-4.738,1.622-4.161-2.789a1.277,1.277,0,0,0-1.421,0l-4.16,2.789-4.738-1.622a1.281,1.281,0,0,0-1.376.369l-3.291,3.775-5-.33a1.277,1.277,0,0,0-1.23.713l-2.2,4.5-4.912.97a1.276,1.276,0,0,0-1.005,1l-.97,4.913-4.5,2.2a1.276,1.276,0,0,0-.713,1.231l.329,5-3.773,3.292a1.274,1.274,0,0,0-.369,1.375l1.62,4.739-2.788,4.16a1.273,1.273,0,0,0,0,1.421l2.788,4.16-1.621,4.738a1.276,1.276,0,0,0,.37,1.375l3.774,3.292-.33,5a1.275,1.275,0,0,0,.713,1.231l4.5,2.2.97,4.912a1.278,1.278,0,0,0,1.005,1l4.912.97,2.2,4.5a1.278,1.278,0,0,0,1.23.713l5-.33,3.291,3.775a1.281,1.281,0,0,0,1.376.369l4.738-1.621,4.16,2.788a1.271,1.271,0,0,0,1.421,0l4.16-2.788,4.739,1.621a1.28,1.28,0,0,0,1.375-.369l3.292-3.775,5,.33a1.279,1.279,0,0,0,1.231-.713l2.2-4.5,4.912-.97a1.275,1.275,0,0,0,1.005-1l.97-4.912,4.5-2.2a1.274,1.274,0,0,0,.713-1.231l-.329-5,3.774-3.292a1.276,1.276,0,0,0,.369-1.374l-1.62-4.739,2.788-4.16A1.277,1.277,0,0,0,290.679,2189.817Zm-5.262,4.685a1.277,1.277,0,0,0-.147,1.123l1.547,4.526-3.6,3.144a1.282,1.282,0,0,0-.435,1.046l.316,4.773-4.3,2.1a1.273,1.273,0,0,0-.691.9l-.927,4.694-4.7.927a1.278,1.278,0,0,0-.9.691l-2.1,4.3-4.774-.316a1.275,1.275,0,0,0-1.046.435l-3.144,3.6-4.525-1.546a1.272,1.272,0,0,0-1.124.147l-3.974,2.663-3.975-2.663a1.266,1.266,0,0,0-1.124-.147l-4.526,1.546-3.143-3.6a1.278,1.278,0,0,0-1.046-.436l-4.774.316-2.1-4.3a1.277,1.277,0,0,0-.9-.691l-4.7-.928-.926-4.693a1.277,1.277,0,0,0-.692-.9l-4.3-2.1.315-4.774a1.277,1.277,0,0,0-.435-1.046l-3.6-3.143,1.548-4.526a1.277,1.277,0,0,0-.148-1.123l-2.664-3.974,2.664-3.975a1.28,1.28,0,0,0,.148-1.124l-1.548-4.526,3.6-3.144a1.271,1.271,0,0,0,.435-1.046l-.315-4.773,4.3-2.1a1.277,1.277,0,0,0,.691-.9l.928-4.7,4.694-.926a1.276,1.276,0,0,0,.9-.693l2.1-4.3,4.773.315a1.282,1.282,0,0,0,1.046-.435l3.143-3.6,4.527,1.548a1.274,1.274,0,0,0,1.123-.148l3.975-2.663L254.87,2156a1.274,1.274,0,0,0,1.123.148l4.526-1.548,3.144,3.6a1.277,1.277,0,0,0,1.045.435l4.774-.315,2.1,4.3a1.278,1.278,0,0,0,.9.692l4.7.927.927,4.694a1.277,1.277,0,0,0,.691.9l4.3,2.1-.316,4.774a1.278,1.278,0,0,0,.435,1.045l3.6,3.145-1.547,4.525a1.279,1.279,0,0,0,.147,1.124l2.664,3.975Z" fill="#6A366D"/>
    <g id="Group_1339" data-name="Group 1339">
      <g id="Group_1338" data-name="Group 1338">
        <path id="Path_900" data-name="Path 900" d="M253.946,2184.738l2.6-2.3a1.158,1.158,0,0,0,.214-1.478l-1.862-3a1.161,1.161,0,0,0-.984-.545h-6.03a1.161,1.161,0,0,0-.984.545l-1.862,3a1.157,1.157,0,0,0,.214,1.478l2.6,2.3a9.7,9.7,0,1,0,6.1,0Zm-6.429-3.388,1.007-1.619h4.742l1.008,1.619-3.263,2.9c-.039,0-.077,0-.116,0s-.077,0-.115,0Zm3.378,19.974a7.382,7.382,0,1,1,7.383-7.382A7.391,7.391,0,0,1,250.9,2201.324Z" fill="#6A366D"/>
      </g>
    </g>
  </g>
</svg>
