<svg xmlns="http://www.w3.org/2000/svg" width="80" height="68.471" viewBox="0 0 80 68.471">
  <g id="Group_1342" data-name="Group 1342" transform="translate(-1144.712 -2156.292)">
    <g id="Group_1341" data-name="Group 1341">
      <path id="Path_901" data-name="Path 901" d="M1224.695,2215.546l-3.936-44.264a1.8,1.8,0,0,0-1.8-1.639h-8.168a13.465,13.465,0,0,0-26.929,0h-8.167a1.814,1.814,0,0,0-1.8,1.639l-3.936,44.264v.164c0,4.986,4.575,9.053,10.217,9.053h34.326c5.625,0,10.217-4.051,10.217-9.053A.491.491,0,0,0,1224.695,2215.546ZM1197.34,2159.9a9.872,9.872,0,0,1,9.856,9.742h-19.729A9.877,9.877,0,0,1,1197.34,2159.9Zm17.155,61.238h-34.326c-3.609,0-6.56-2.4-6.609-5.363l3.772-42.526h6.511v5.838a1.8,1.8,0,1,0,3.608,0v-5.838h19.729v5.838a1.8,1.8,0,1,0,3.608,0v-5.838h6.511l3.772,42.526C1221.055,2218.744,1218.1,2221.139,1214.495,2221.139Z" fill="#6A366D"/>
      <path id="Path_902" data-name="Path 902" d="M1165.753,2185.19h-12.365a1.8,1.8,0,1,0,0,3.607h12.365a1.8,1.8,0,1,0,0-3.607Z" fill="#6A366D"/>
      <path id="Path_903" data-name="Path 903" d="M1165.753,2193.98h-19.237a1.8,1.8,0,1,0,0,3.608h19.237a1.8,1.8,0,1,0,0-3.608Z" fill="#6A366D"/>
      <path id="Path_904" data-name="Path 904" d="M1165.753,2202.77h-12.365a1.8,1.8,0,1,0,0,3.608h12.365a1.8,1.8,0,0,0,0-3.608Z" fill="#6A366D"/>
    </g>
  </g>
</svg>
