<svg width="51" height="51" viewBox="0 0 51 51" fill="none" xmlns="http://www.w3.org/2000/svg">
<circle cx="25.5" cy="25.5" r="25.5" fill="#62306C"/>
<g clip-path="url(#clip0_344_78)">
<path d="M24.5468 31.6985V29.5812C24.442 29.5812 24.3473 29.5812 24.2526 29.5812C23.3578 29.5812 22.4623 29.5713 21.5675 29.5847C20.9985 29.5932 20.5134 29.4384 20.1245 29.014C20.0786 28.9645 19.9731 28.9667 19.8942 28.949C19.8798 28.9454 19.8612 28.9603 19.844 28.966C19.4106 29.1053 18.9004 29.1484 18.5667 29.4101C18.2417 29.6646 18.0953 30.142 17.8729 30.5239C17.7171 30.7912 17.5665 31.0606 17.4115 31.3336C17.715 31.6865 17.8542 32.0804 17.7918 32.5379C17.6884 33.2932 17.0068 33.8214 16.206 33.7613C15.4647 33.7055 14.8756 33.0591 14.885 32.3116C14.8943 31.5585 15.5186 30.8944 16.2727 30.9072C16.6071 30.9128 16.7542 30.7926 16.8941 30.5225C17.174 29.9815 17.4796 29.4518 17.8018 28.9334C17.8908 28.7906 18.058 28.6626 18.2187 28.6018C18.6428 28.4405 19.0819 28.3139 19.5175 28.1852C19.6667 28.1407 19.7371 28.0799 19.7263 27.9116C19.7091 27.6499 19.722 27.3861 19.722 27.0912C19.1013 27.0912 18.5021 27.1238 17.908 27.082C17.3254 27.0417 17.1524 27.5389 16.8073 27.8083C16.7779 27.8309 16.8331 27.9667 16.8582 28.0466C17.1029 28.8203 16.6588 29.647 15.8745 29.8719C15.0859 30.0981 14.2585 29.6441 14.0547 28.8542C13.917 28.3182 14.0447 27.8338 14.4573 27.4498C14.8749 27.0608 15.3758 26.9392 15.9204 27.1308C16.1249 27.203 16.2591 27.1775 16.376 27.0149C16.8532 26.3522 17.5012 26.1394 18.3077 26.2341C18.7641 26.2879 19.2319 26.244 19.7084 26.244V24.7286C19.6732 24.7208 19.6323 24.7031 19.5914 24.7024C18.7411 24.7003 17.8908 24.708 17.0405 24.6946C16.8496 24.6918 16.8274 24.812 16.7685 24.9244C16.4686 25.4994 15.8321 25.8127 15.2 25.696C14.5635 25.5786 14.0677 25.0468 14.0153 24.4252C13.9593 23.7541 14.3195 23.1706 14.9366 22.9344C15.647 22.6622 16.4363 22.9613 16.7721 23.6487C16.8511 23.8099 16.9379 23.8594 17.1137 23.8573C17.9712 23.8481 18.8286 23.8531 19.704 23.8531V22.31C19.1458 22.31 18.594 22.3143 18.0422 22.3093C16.9931 22.2994 17.311 22.421 16.5511 21.7082C16.5253 21.6842 16.4966 21.6615 16.4751 21.634C16.3036 21.4084 16.1263 21.3518 15.8199 21.4494C15.1835 21.6523 14.5004 21.3299 14.1803 20.7514C13.8675 20.1849 13.9801 19.4714 14.453 19.0245C14.9366 18.5676 15.6664 18.4934 16.2368 18.8427C16.8001 19.1871 17.0699 19.8773 16.8489 20.5003C16.7786 20.6976 16.846 20.7846 16.9587 20.9261C17.3089 21.3673 17.7372 21.5335 18.3063 21.4727C18.7641 21.4239 19.2312 21.4628 19.7198 21.4628C19.7198 21.1609 19.7299 20.8893 19.7119 20.6192C19.7084 20.5605 19.6144 20.4841 19.5455 20.4579C19.0963 20.284 18.637 20.1354 18.1936 19.9487C18.0415 19.8851 17.8858 19.7606 17.8018 19.6227C17.4567 19.0563 17.1323 18.4771 16.8152 17.8951C16.7154 17.712 16.6107 17.6419 16.3846 17.6525C15.6147 17.6879 14.9632 17.1045 14.8893 16.3513C14.8189 15.6385 15.3327 14.9511 16.0409 14.8104C16.803 14.6591 17.5399 15.0968 17.7537 15.8287C17.8879 16.2877 17.7889 16.7056 17.4151 17.2268C17.7659 17.8421 18.1183 18.4644 18.477 19.0832C18.5086 19.1376 18.5739 19.1864 18.6349 19.2098C19.0346 19.3632 19.4357 19.5124 19.8404 19.6524C19.9014 19.6737 20.0054 19.6638 20.0513 19.6249C20.4651 19.2769 20.9698 19.0473 21.5654 18.9361C21.5654 18.4799 21.541 18.0139 21.5718 17.5514C21.6048 17.0621 21.63 16.5585 21.7649 16.0911C22.3224 14.1541 24.2289 12.8699 26.2718 13.0106C28.3226 13.1514 30.0167 14.7022 30.3045 16.7106C30.3403 16.9623 30.3489 17.2198 30.3525 17.475C30.3597 17.9595 30.3547 18.4439 30.3547 18.9608C31.0105 18.9538 31.5552 19.1652 31.9433 19.7331C32.4356 19.5541 32.9278 19.3774 33.4165 19.1928C33.4674 19.1737 33.5091 19.1122 33.5385 19.0612C33.8865 18.4559 34.2316 17.8484 34.5861 17.2261C34.3012 16.8803 34.147 16.4921 34.2051 16.0352C34.3027 15.2743 34.9815 14.7305 35.7722 14.7892C36.5371 14.8458 37.1277 15.4865 37.1155 16.2453C37.1026 17.0076 36.4654 17.6653 35.6962 17.6497C35.3962 17.6434 35.2599 17.7431 35.1314 17.987C34.843 18.5344 34.5366 19.0733 34.2101 19.5987C34.1161 19.75 33.9482 19.8879 33.7817 19.9587C33.3311 20.1503 32.8647 20.3073 32.4011 20.4664C32.2526 20.5173 32.1859 20.5887 32.1959 20.7507C32.2096 20.977 32.1995 21.2047 32.1995 21.4628C32.8195 21.4628 33.4129 21.4133 33.9934 21.4763C34.6134 21.5441 34.8293 21.0604 35.1838 20.7613C35.2175 20.733 35.1745 20.6022 35.1494 20.5244C34.8968 19.7479 35.3259 18.9205 36.1066 18.6857C36.9031 18.446 37.7433 18.9021 37.9471 19.7041C38.0842 20.2408 37.9514 20.7252 37.5388 21.1071C37.1205 21.4946 36.6182 21.6092 36.0729 21.4204C35.8827 21.3546 35.755 21.3652 35.638 21.525C35.1537 22.1877 34.5043 22.4189 33.6849 22.3199C33.2098 22.2626 32.7212 22.3093 32.2189 22.3093V23.8524C32.5805 23.8524 32.9357 23.8524 33.2909 23.8524C33.8276 23.8524 34.3651 23.846 34.9018 23.8566C35.0676 23.8601 35.1494 23.8113 35.2233 23.6586C35.5204 23.0398 36.1934 22.7209 36.8485 22.8666C37.5252 23.0172 37.9952 23.5985 37.9938 24.2802C37.9916 24.9549 37.5388 25.5156 36.865 25.6783C36.2056 25.8374 35.5333 25.5121 35.2104 24.8891C35.1702 24.8113 35.0726 24.708 35.0008 24.7073C34.0795 24.6953 33.1582 24.6996 32.2182 24.6996V26.2426C32.6257 26.2426 33.0254 26.2426 33.4251 26.2426C33.7918 26.2426 34.1613 26.22 34.5251 26.2525C34.7045 26.2681 34.9004 26.3529 35.0439 26.4633C35.2757 26.6408 35.4766 26.8586 35.6789 27.0707C35.7858 27.1832 35.8748 27.1973 36.0269 27.1429C36.865 26.843 37.7455 27.3062 37.9572 28.1449C38.1624 28.9568 37.6192 29.7587 36.7639 29.9065C35.6911 30.0925 34.8028 29.0572 35.1587 28.024C35.2132 27.8649 35.1766 27.7864 35.0776 27.6612C34.7124 27.1987 34.2632 27.0127 33.6633 27.0799C33.2127 27.1308 32.7513 27.0912 32.295 27.0934C32.2777 27.0934 32.2605 27.1011 32.1966 27.116C32.1966 27.4003 32.1873 27.6973 32.2053 27.9922C32.2081 28.0459 32.3122 28.1173 32.3825 28.1407C32.831 28.2906 33.2809 28.437 33.7344 28.5699C33.9633 28.6371 34.1197 28.7609 34.2345 28.9709C34.543 29.5374 34.8767 30.0911 35.1853 30.6582C35.2864 30.8435 35.3977 30.9079 35.6194 30.9001C36.3764 30.8718 36.9964 31.4093 37.1047 32.1518C37.2052 32.8434 36.7388 33.5251 36.0313 33.7196C35.4601 33.8766 34.8415 33.6651 34.4799 33.1899C34.124 32.7218 34.0946 32.0719 34.4103 31.574C34.462 31.4927 34.5222 31.4163 34.5861 31.3265C34.2374 30.7141 33.8901 30.0981 33.5327 29.4879C33.494 29.4214 33.4057 29.3662 33.3289 29.3401C32.9149 29.2 32.4959 29.0749 32.0811 28.937C31.9555 28.8952 31.8788 28.9115 31.7862 29.0169C31.4518 29.398 31.0191 29.5819 30.5061 29.5798C29.9607 29.5777 29.4154 29.5798 28.8457 29.5798C28.9921 29.8075 29.1277 30.0175 29.2769 30.2488C29.6343 30.1314 30.0174 30.0946 30.3963 30.2615C30.7752 30.4291 31.0285 30.7127 31.1612 31.0684C31.4525 31.0486 31.7295 30.9878 31.995 31.0196C32.6322 31.0967 33.1359 31.5995 33.1596 32.2515C33.222 33.9374 33.2084 35.6219 32.6609 37.2505C32.5798 37.4924 32.5073 37.7491 32.3674 37.9577C32.0897 38.3714 32.0273 38.8141 32.0661 39.2886C32.0725 39.3678 32.0696 39.4477 32.0661 39.5269C32.0531 39.8353 31.8931 39.9965 31.576 39.9972C29.3472 40 27.1185 40 24.8891 39.9972C24.5655 39.9972 24.4205 39.831 24.4026 39.4937C24.3739 38.9499 24.4284 38.3813 24.2835 37.8686C24.107 37.2413 23.7934 36.6438 23.4812 36.0632C22.7508 34.7012 21.9737 33.3632 21.2453 31.9997C21.0975 31.7225 21.0193 31.3788 21.0136 31.0642C20.9971 30.1618 21.8452 29.5847 22.7185 29.8683C23.0988 29.9914 23.3837 30.2396 23.6255 30.543C23.9175 30.9093 24.2088 31.2756 24.5468 31.6992V31.6985ZM27.3546 28.717C27.4601 28.7241 27.5383 28.7333 27.6158 28.7333C28.5465 28.734 29.4778 28.7354 30.4085 28.7333C31.0306 28.7319 31.337 28.4363 31.3377 27.8281C31.3399 25.464 31.3399 23.0992 31.3377 20.7351C31.3377 20.1206 31.0356 19.8193 30.4207 19.8193C27.4486 19.8179 24.4765 19.8179 21.5044 19.8193C20.8894 19.8193 20.5802 20.127 20.5795 20.7316C20.5787 23.0957 20.5787 25.4605 20.5795 27.8246C20.5795 28.4257 20.8923 28.7319 21.5087 28.7333C22.4394 28.7354 23.3707 28.734 24.3014 28.7333C24.3789 28.7333 24.4564 28.7234 24.5561 28.717C24.5561 28.6053 24.5561 28.5105 24.5561 28.4151C24.5561 27.5148 24.5518 26.6153 24.5597 25.7158C24.5612 25.5248 24.5791 25.3226 24.6458 25.1458C24.7133 24.9683 24.681 24.87 24.5533 24.737C23.967 24.1282 23.8752 23.2025 24.3122 22.4847C24.7513 21.7619 25.6167 21.4126 26.4419 21.6241C27.8626 21.9882 28.3592 23.6975 27.3596 24.7667C27.295 24.8353 27.247 24.9534 27.2527 25.0447C27.2678 25.2703 27.3467 25.493 27.3496 25.7179C27.3618 26.6174 27.3546 27.5177 27.3546 28.4172C27.3546 28.5119 27.3546 28.6067 27.3546 28.717ZM25.4158 29.2672C25.4158 30.4581 25.4208 31.649 25.4086 32.8399C25.4072 32.9834 25.349 33.1602 25.2522 33.2628C25.067 33.4587 24.8044 33.3943 24.592 33.1291C24.0431 32.4439 23.5049 31.7501 22.946 31.0726C22.8154 30.9142 22.6396 30.7693 22.4537 30.6837C22.1466 30.5423 21.8603 30.7346 21.8703 31.0698C21.8761 31.2565 21.9349 31.4517 22.011 31.6256C22.6295 33.0379 23.4468 34.344 24.2447 35.6601C24.6315 36.2973 24.9802 36.9535 25.1366 37.6869C25.1818 37.8997 25.2651 37.9648 25.489 37.9634C27.1809 37.9528 28.8729 37.9577 30.5642 37.9577C31.497 37.9577 31.4999 37.9591 31.8077 37.0829C32.3488 35.5441 32.3394 33.9459 32.3086 32.3484C32.3028 32.0401 32.0488 31.8385 31.7589 31.8477C31.4676 31.8569 31.2638 32.0648 31.2416 32.383C31.2287 32.5676 31.2423 32.755 31.2136 32.9368C31.1799 33.1482 31.0191 33.2585 30.8132 33.2599C30.5958 33.2621 30.4372 33.1475 30.3956 32.924C30.3769 32.8208 30.3798 32.7133 30.3784 32.6079C30.3733 32.2289 30.3855 31.8484 30.3619 31.4708C30.3446 31.1879 30.1172 31.0026 29.8431 30.9991C29.5697 30.9963 29.353 31.178 29.3085 31.4573C29.2934 31.5528 29.2949 31.6504 29.2941 31.7473C29.292 32.1087 29.2992 32.4707 29.2884 32.8321C29.2805 33.0895 29.1047 33.2606 28.8737 33.2649C28.6462 33.2691 28.4668 33.098 28.4395 32.8462C28.4302 32.7585 28.4345 32.6701 28.4345 32.5818C28.4331 31.9375 28.4395 31.294 28.4281 30.6497C28.4223 30.34 28.1949 30.1236 27.9071 30.1172C27.6215 30.1109 27.3933 30.3216 27.3582 30.6278C27.3496 30.7063 27.3532 30.7862 27.3524 30.8654C27.3517 31.4036 27.3567 31.9418 27.3489 32.4799C27.3453 32.7437 27.1809 32.9063 26.942 32.9134C26.7016 32.9205 26.5287 32.7663 26.4986 32.5103C26.4885 32.4233 26.4935 32.3342 26.4935 32.2458C26.4935 30.1024 26.4935 27.9582 26.4935 25.8148C26.4935 25.7179 26.4971 25.6203 26.4864 25.5241C26.4541 25.2278 26.213 25.0341 25.9109 25.0574C25.5952 25.0814 25.4158 25.307 25.4151 25.6946C25.4129 26.8854 25.4151 28.0763 25.4143 29.2672H25.4158ZM23.4403 18.9566C23.4454 18.8498 23.4525 18.755 23.4533 18.661C23.4576 18.1674 23.4425 17.6723 23.4669 17.1802C23.5315 15.8931 24.625 14.8726 25.9324 14.8592C27.3037 14.8451 28.4431 15.9285 28.4682 17.2806C28.4783 17.8336 28.4697 18.3873 28.4697 18.953H29.4943C29.4943 18.3894 29.4994 17.8442 29.4936 17.299C29.4757 15.6555 28.3104 14.2609 26.6744 13.9194C25.0756 13.5856 23.421 14.4229 22.7357 15.903C22.2801 16.8874 22.4638 17.9227 22.425 18.9573H23.4403V18.9566ZM24.3423 18.9523H27.6122C27.6122 18.4425 27.6122 17.9503 27.6122 17.4588C27.6122 17.3534 27.6151 17.2466 27.6022 17.142C27.5067 16.3535 26.8301 15.7382 26.0286 15.7064C25.2242 15.6753 24.4449 16.2375 24.3574 17.0133C24.2856 17.6462 24.343 18.2932 24.343 18.9516L24.3423 18.9523ZM25.8563 22.4126C25.5012 22.4253 25.1646 22.6318 24.9874 23.0426C24.8109 23.4514 24.8862 23.8361 25.1862 24.1734C25.2802 24.2795 25.3756 24.3028 25.5327 24.2816C25.8169 24.2427 26.1111 24.2788 26.401 24.271C26.5029 24.2682 26.6313 24.2576 26.6995 24.1982C27.0181 23.9188 27.1092 23.4493 26.9456 23.0575C26.7806 22.6622 26.3952 22.4111 25.8556 22.4133L25.8563 22.4126ZM25.2744 39.133H31.1914V38.8233H25.2744V39.133ZM37.1313 28.4957C37.1356 28.169 36.8787 27.901 36.5508 27.891C36.2185 27.8811 35.9329 28.1591 35.9351 28.4907C35.9373 28.8111 36.2092 29.0805 36.5321 29.0819C36.8579 29.0841 37.1262 28.8203 37.1305 28.4957H37.1313ZM14.867 20.0612C14.8656 20.3886 15.1253 20.6531 15.4533 20.6588C15.7762 20.6644 16.0546 20.4006 16.0632 20.0796C16.0718 19.7486 15.7934 19.4665 15.4597 19.4686C15.1339 19.4707 14.8685 19.7359 14.867 20.0605V20.0612ZM35.9358 20.0654C35.9365 20.3872 36.2049 20.6545 36.5307 20.6588C36.8586 20.6623 37.127 20.4028 37.132 20.076C37.1377 19.7394 36.8629 19.4636 36.5271 19.4693C36.202 19.4749 35.9351 19.7437 35.9358 20.0654ZM14.867 28.4844C14.8656 28.8111 15.1268 29.077 15.454 29.0833C15.7862 29.0897 16.0689 28.8083 16.0639 28.4773C16.0589 28.1577 15.7826 27.8903 15.4604 27.8918C15.1339 27.8939 14.8692 28.1584 14.8677 28.4844H14.867ZM16.3574 15.6314C16.0273 15.6272 15.7539 15.8818 15.7446 16.2035C15.7345 16.5324 16.0144 16.8145 16.3495 16.8131C16.676 16.8117 16.9436 16.5472 16.9458 16.2241C16.9486 15.8966 16.6896 15.6364 16.3567 15.6321L16.3574 15.6314ZM35.656 15.6314C35.3209 15.6293 35.0575 15.8811 35.0525 16.2092C35.0475 16.5324 35.3087 16.8032 35.6352 16.8124C35.9703 16.8216 36.2558 16.5472 36.2551 16.2177C36.2537 15.8966 35.9853 15.6343 35.656 15.6321V15.6314ZM16.3445 31.7409C16.0158 31.7423 15.7475 32.0047 15.7446 32.3265C15.7417 32.6588 16.0201 32.9254 16.3624 32.9191C16.6946 32.9127 16.9501 32.6511 16.9451 32.3222C16.94 31.9969 16.6738 31.7395 16.3437 31.7409H16.3445ZM35.6596 31.7409C35.3295 31.7367 35.0618 31.9913 35.0539 32.3173C35.0461 32.6461 35.2993 32.9092 35.6316 32.9184C35.9738 32.9276 36.2544 32.6631 36.2544 32.3314C36.2544 32.0104 35.9875 31.7452 35.6596 31.7409ZM15.4612 23.6883C15.1261 23.6883 14.8699 23.9408 14.8677 24.271C14.8656 24.6006 15.1203 24.8594 15.4525 24.8643C15.7948 24.8693 16.0682 24.602 16.0632 24.2668C16.0589 23.9415 15.7948 23.6876 15.4612 23.6883ZM37.1313 24.2802C37.1334 23.9492 36.8801 23.6925 36.5465 23.6883C36.2128 23.6833 35.9451 23.9337 35.9358 24.2576C35.9265 24.5928 36.1949 24.8643 36.5371 24.8636C36.8701 24.8636 37.1291 24.609 37.1313 24.2795V24.2802Z" fill="white"/>
</g>
<defs>
<clipPath id="clip0_344_78">
<rect width="24" height="27" fill="white" transform="translate(14 13)"/>
</clipPath>
</defs>
</svg>
