<svg width="50" height="50" viewBox="0 0 50 50" fill="none" xmlns="http://www.w3.org/2000/svg">
<circle cx="25" cy="25" r="25" fill="#E51982"/>
<g clip-path="url(#clip0_2627_50)">
<path d="M36.2531 39.9977H35.7843C35.1863 39.5711 34.5876 39.1445 33.9739 38.707C33.8596 38.797 33.7336 38.9034 33.5998 38.9997C33.138 39.3339 32.6731 39.665 32.2089 39.9977H31.7401C31.6415 39.9397 31.5397 39.8873 31.4458 39.8239C31.1163 39.6008 30.9965 39.276 30.9981 38.8909C31.0005 38.2702 30.9981 37.6496 30.9981 37.0023H30.5848C24.2982 37.0023 18.0116 37.0023 11.725 37.0015C11.5786 37.0015 11.4307 37.0031 11.2874 36.9804C10.5893 36.8708 10.2058 36.4176 9.99756 35.7789V11.2304C10.4046 10.2442 10.7693 10 11.8361 10C18.6503 10 25.4644 10 32.2786 10.0008C32.4437 10.0008 32.6128 9.99765 32.774 10.029C33.5567 10.1808 34.0068 10.7819 34.0068 11.6718C34.0084 15.6542 34.0068 19.6366 34.0068 23.6181C34.0068 23.741 34.0068 23.8647 34.0068 23.9876C34.0326 23.9633 34.0577 23.9391 34.0835 23.9148C34.4208 24.0745 34.7754 24.2067 35.0893 24.4032C35.3335 24.5558 35.5542 24.6466 35.8508 24.6028C36.7212 24.4736 37.435 24.8924 37.7583 25.7119C37.8624 25.9772 38.0291 26.1439 38.2952 26.2464C39.1209 26.5674 39.5178 27.3023 39.4137 28.1852C39.3878 28.402 39.4551 28.6798 39.5827 28.856C40.14 29.6293 40.1408 30.3783 39.5804 31.1446C39.4567 31.3136 39.3831 31.5805 39.409 31.7864C39.5232 32.706 39.1389 33.4113 38.2662 33.7635C38.0228 33.8613 37.8858 34.0304 37.763 34.2581C37.6088 34.5438 37.4123 34.8146 37.1924 35.0541C37.0789 35.1778 37.0045 35.2709 37.0061 35.4439C37.0131 36.5178 36.9897 37.5916 37.0178 38.6647C37.0343 39.2862 36.8488 39.7472 36.2555 39.9977H36.2531ZM15.5257 33.9818H28.5248C28.3862 33.3792 28.7424 32.8266 28.5858 32.2356C28.553 32.1112 28.5858 31.9625 28.6109 31.8302C28.661 31.5727 28.6015 31.3528 28.4434 31.1453C27.847 30.3666 27.8626 29.641 28.4356 28.8419C28.5577 28.6712 28.6265 28.4028 28.5999 28.1946C28.4864 27.3078 28.8723 26.5767 29.7012 26.2511C29.9783 26.1423 30.1332 25.9576 30.2632 25.6986C30.3954 25.4348 30.5723 25.1796 30.7813 24.9714C30.9245 24.829 31.0036 24.7155 31.0028 24.5081C30.9958 21.6184 30.9981 18.7286 30.9973 15.8389C30.9973 15.7348 30.9887 15.6315 30.9825 15.4977C30.2561 15.5478 29.6002 15.4296 29.0774 14.9028C28.5553 14.3768 28.4583 13.7147 28.513 13.0126H15.5007C15.5453 13.7311 15.4381 14.3901 14.9105 14.9153C14.3838 15.4397 13.7255 15.5454 13.0164 15.4977V31.4749C15.0068 31.7073 15.3222 32.0228 15.5257 33.9811V33.9818ZM32.007 24.573C32.1463 24.5965 32.2418 24.6216 32.3389 24.627C32.7067 24.6474 33.0057 24.3961 33.0057 24.0698C33.0057 19.9395 33.0057 15.8092 33.0057 11.6789C33.0057 11.1576 32.8429 10.9987 32.3201 10.9987C25.4449 10.9987 18.5689 10.9987 11.6937 10.9987C11.1552 10.9987 10.9994 11.156 10.9994 11.6985C10.9994 19.5685 10.9994 27.4385 10.9994 35.3085C10.9994 35.8462 11.1575 36.0028 11.7007 36.0028C18.0194 36.0028 24.3381 36.0028 30.6569 36.0028H31.0005C31.0005 35.8314 30.9895 35.6952 31.0028 35.5613C31.0271 35.3195 30.9425 35.1629 30.7516 34.9931C30.5418 34.8068 30.3735 34.5454 30.2585 34.2847C30.109 33.9451 29.8749 33.7705 29.5266 33.7016C29.4265 34.7685 29.1682 35.0025 28.1013 35.0025C23.9898 35.0025 19.8783 34.9923 15.7668 35.0119C15.0092 35.0158 14.4574 34.6346 14.4965 33.7533C14.5364 32.8516 14.1521 32.4978 13.2458 32.4978C12.3433 32.4978 11.9974 32.148 11.9974 31.2338C11.9974 26.3028 11.9974 21.3718 11.9974 16.4408C11.9974 16.1285 11.9903 15.8154 11.9997 15.5031C12.0177 14.9232 12.4286 14.5201 13.0086 14.5044C13.1064 14.5021 13.2043 14.5036 13.3013 14.5029C14.1224 14.5021 14.5388 14.1209 14.4965 13.3061C14.4448 12.3168 15.0303 11.9794 15.8216 11.9849C19.7374 12.0084 23.6541 11.9959 27.5707 11.9959C27.8736 11.9959 28.1765 11.9896 28.4786 11.9974C29.075 12.0131 29.4836 12.4201 29.5055 13.0157C29.511 13.1715 29.5047 13.328 29.5079 13.4846C29.5212 14.0661 29.9196 14.4755 30.5003 14.5013C30.6952 14.5099 30.8917 14.4966 31.0858 14.5091C31.5421 14.5373 31.9154 14.8793 31.982 15.3317C32.0031 15.4757 32.0047 15.6237 32.0047 15.7693C32.0062 18.5713 32.0054 21.3742 32.0054 24.1762V24.5715L32.007 24.573ZM38.422 27.9457C38.4306 27.5551 38.2756 27.3101 37.9289 27.1794C37.3927 26.9775 37.0319 26.6182 36.8276 26.0829C36.6805 25.6962 36.4081 25.5264 36.0003 25.5945C35.4203 25.6915 34.9257 25.5467 34.4725 25.1843C34.1555 24.9307 33.8495 24.9284 33.538 25.1796C33.0863 25.5436 32.5917 25.6915 32.0117 25.596C31.6 25.5279 31.3292 25.6907 31.1805 26.0774C30.9754 26.6112 30.6185 26.9744 30.0816 27.1771C29.6863 27.3266 29.5212 27.6224 29.5947 28.0326C29.6918 28.5773 29.5564 29.0532 29.219 29.4837C28.9255 29.8578 28.9216 30.1427 29.2143 30.5129C29.5619 30.952 29.6941 31.4365 29.5947 31.9907C29.5259 32.371 29.6855 32.6693 30.0503 32.8078C30.6052 33.0191 30.9801 33.3886 31.1914 33.9443C31.3347 34.3207 31.636 34.4789 32.032 34.4076C32.5651 34.3121 33.0355 34.4358 33.4597 34.7653C33.8651 35.08 34.1383 35.0823 34.5367 34.77C34.9601 34.4382 35.4313 34.3129 35.9628 34.4029C36.3776 34.4726 36.6758 34.3176 36.8237 33.9271C37.0264 33.3909 37.3849 33.0301 37.9195 32.825C38.3093 32.6755 38.4783 32.4063 38.4095 32C38.3093 31.4083 38.4627 30.9074 38.836 30.4495C39.056 30.1795 39.0795 29.8664 38.8728 29.6113C38.4596 29.1017 38.2686 28.5484 38.4204 27.948L38.422 27.9457ZM35.9901 35.4377C35.6755 35.3249 35.407 35.3578 35.1495 35.5566C34.3786 36.153 33.6436 36.1429 32.8492 35.5637C32.7028 35.4564 32.4985 35.4087 32.3138 35.379C32.097 35.3445 31.9921 35.4416 31.996 35.6952C32.0109 36.69 32.0015 37.6848 32.0031 38.6796C32.0031 38.7633 32.014 38.8471 32.0242 38.9809C32.4798 38.6178 32.8954 38.2812 33.3157 37.9525C33.7728 37.5956 34.2236 37.594 34.6791 37.9399C34.7879 38.0221 34.8928 38.1098 35 38.1943C35.3162 38.4463 35.6325 38.6992 35.9901 38.9841V35.4377Z" fill="white"/>
<path d="M22.5279 18.9761C22.5279 18.3914 22.4794 17.8013 22.5389 17.2221C22.6422 16.2116 23.5165 15.4923 24.5402 15.504C25.5366 15.5158 26.4156 16.2609 26.4688 17.2675C26.5299 18.4251 26.5291 19.5905 26.4665 20.7481C26.4117 21.75 25.5296 22.4834 24.5238 22.492C23.5133 22.5006 22.6438 21.786 22.5412 20.7888C22.4802 20.1908 22.5303 19.5811 22.5303 18.9769C22.5303 18.9769 22.5295 18.9769 22.5287 18.9769L22.5279 18.9761ZM25.5045 19.0097C25.5045 18.5519 25.5045 18.094 25.5045 17.6361C25.5045 17.6165 25.5045 17.597 25.5045 17.5774C25.4873 16.9403 25.0881 16.5067 24.5136 16.5012C23.9282 16.4957 23.5063 16.9379 23.5008 17.5845C23.4938 18.5292 23.4938 19.4747 23.5008 20.4194C23.5055 21.0542 23.9141 21.487 24.4909 21.4917C25.0827 21.4964 25.4928 21.0635 25.503 20.4123C25.51 19.9451 25.5045 19.477 25.5045 19.0097Z" fill="white"/>
<path d="M22.0152 25.4987C20.0921 25.4987 18.1683 25.4987 16.2452 25.4987C15.7317 25.4987 15.5063 25.3438 15.5071 24.9962C15.5079 24.6519 15.738 24.4961 16.2483 24.4961C20.0851 24.4961 23.9226 24.4961 27.7594 24.4961C28.2604 24.4961 28.5038 24.662 28.5022 25.0002C28.5006 25.3367 28.2588 25.4995 27.7555 25.4995C25.8418 25.4995 23.9281 25.4995 22.0144 25.4995L22.0152 25.4987Z" fill="white"/>
<path d="M18.4994 19.4955C18.4994 20.2696 18.4994 21.0085 18.4994 21.7474C18.4994 21.8546 18.5064 21.9634 18.4915 22.0691C18.4571 22.3195 18.2583 22.4878 18.0094 22.4917C17.7597 22.4956 17.5562 22.3336 17.5116 22.0855C17.4967 22.0002 17.5014 21.9102 17.5014 21.8225C17.5014 20.0959 17.5007 18.3692 17.5014 16.6426C17.5014 15.8904 17.8842 15.4999 18.6324 15.5054C19.07 15.5085 19.5184 15.4827 19.9427 15.5656C20.9617 15.7652 21.5996 16.7099 21.483 17.7619C21.3766 18.7199 20.5336 19.4744 19.5411 19.494C19.2101 19.5002 18.879 19.4948 18.4986 19.4948L18.4994 19.4955ZM18.5103 18.4945C18.8915 18.4945 19.2429 18.5101 19.592 18.4906C20.0773 18.4632 20.4671 18.053 20.4937 17.5732C20.5226 17.0512 20.1853 16.5823 19.6789 16.5236C19.2977 16.4798 18.9072 16.515 18.5103 16.515V18.4945Z" fill="white"/>
<path d="M22.0144 27.9942C20.424 27.9942 18.8336 27.9942 17.2431 27.9942C17.1453 27.9942 17.0474 27.9997 16.9504 27.9887C16.6937 27.959 16.5403 27.8064 16.5105 27.5559C16.48 27.3023 16.6005 27.116 16.8432 27.037C16.9598 26.9986 17.0921 26.9979 17.2173 26.9979C20.4076 26.9955 23.5986 26.9955 26.7889 26.9979C26.9235 26.9979 27.066 27.0041 27.1904 27.0487C27.4197 27.1309 27.5215 27.3211 27.4918 27.5583C27.4628 27.7946 27.3188 27.948 27.0777 27.9864C26.9822 28.0013 26.8828 27.995 26.7858 27.995C25.1953 27.995 23.6049 27.995 22.0144 27.995V27.9942Z" fill="white"/>
<path d="M22.0143 29.5035C23.2635 29.5035 24.5134 29.5035 25.7626 29.5035C25.8605 29.5035 25.9583 29.4988 26.0554 29.5097C26.305 29.5379 26.4937 29.7328 26.496 29.9762C26.4991 30.229 26.3755 30.4075 26.1289 30.4756C26.028 30.5038 25.9168 30.5006 25.8104 30.5006C23.2721 30.5022 20.7338 30.5014 18.1963 30.5014C18.1282 30.5014 18.0593 30.5053 17.9912 30.4983C17.6969 30.4701 17.4926 30.2509 17.5044 29.9786C17.5153 29.7125 17.7134 29.5183 18.003 29.5058C18.237 29.4956 18.4718 29.5019 18.7058 29.5019C19.8086 29.5019 20.9123 29.5019 22.0151 29.5019L22.0143 29.5035Z" fill="white"/>
<path d="M34.0185 26.5039C35.9557 26.5125 37.5101 28.0834 37.4984 30.0214C37.4859 31.9593 35.9173 33.5052 33.9739 33.495C32.0461 33.4848 30.4972 31.9061 30.5081 29.9611C30.5183 28.0466 32.0939 26.4961 34.0193 26.5039H34.0185ZM33.9935 27.505C32.612 27.5089 31.5061 28.6188 31.5061 30.0002C31.5061 31.3739 32.6245 32.4947 33.9982 32.4963C35.3874 32.4986 36.5044 31.3739 36.4973 29.9807C36.4903 28.5977 35.3804 27.5003 33.9935 27.505Z" fill="white"/>
</g>
<defs>
<clipPath id="clip0_2627_50">
<rect width="30" height="29.9977" fill="white" transform="translate(10 10)"/>
</clipPath>
</defs>
</svg>
