<svg width="50" height="50" viewBox="0 0 50 50" fill="none" xmlns="http://www.w3.org/2000/svg">
<circle cx="25" cy="25" r="25" fill="#FE957A"/>
<g clip-path="url(#clip0_2627_36)">
<path d="M24.0966 40.0011C23.9924 39.9831 23.8889 39.9556 23.7838 39.9486C23.2131 39.9094 22.8055 39.6296 22.5774 39.1091C22.3971 38.6977 22.2528 38.2713 22.0663 37.8629C22.0153 37.7508 21.8836 37.6325 21.766 37.6011C20.5501 37.2774 19.4001 36.8025 18.3144 36.1668C18.2117 36.1065 18.0345 36.1049 17.9185 36.1472C17.5164 36.2961 17.1268 36.4796 16.7309 36.6457C16.1813 36.8769 15.6679 36.8087 15.2367 36.3965C14.6644 35.8502 14.1039 35.2906 13.5583 34.7184C13.1468 34.2873 13.0754 33.7747 13.3083 33.2245C13.4713 32.8381 13.632 32.4493 13.8076 32.0684C13.8837 31.9031 13.8852 31.7737 13.7857 31.6091C13.1389 30.5416 12.6741 29.3957 12.3542 28.1895C12.3229 28.0711 12.2068 27.9379 12.0955 27.8862C11.7153 27.7106 11.3187 27.5703 10.929 27.4136C10.3427 27.1776 10.0181 26.7489 10.0095 26.1133C9.99853 25.342 9.99539 24.5708 10.0126 23.7995C10.0267 23.2031 10.3372 22.7893 10.8867 22.5612C11.2748 22.4005 11.6644 22.2445 12.0571 22.0972C12.2257 22.0337 12.3213 21.9443 12.3683 21.7562C12.6662 20.5539 13.1334 19.419 13.777 18.3601C13.8821 18.1869 13.8844 18.0513 13.8013 17.8742C13.6273 17.5026 13.4744 17.1225 13.313 16.7447C13.0739 16.1843 13.1444 15.6655 13.567 15.2258C14.1149 14.6552 14.6739 14.094 15.2477 13.5493C15.671 13.1472 16.1774 13.079 16.7168 13.3039C17.122 13.4732 17.5211 13.659 17.9318 13.8142C18.04 13.8549 18.207 13.8541 18.3026 13.7977C19.3954 13.1534 20.5549 12.6753 21.7809 12.3509C21.8969 12.3203 22.0224 12.1941 22.0741 12.0812C22.2489 11.7003 22.3916 11.3045 22.5492 10.915C22.7812 10.3397 23.2061 10.0215 23.8285 10.0105C24.6093 9.99716 25.3909 9.99481 26.1717 10.0136C26.7424 10.0277 27.1508 10.3232 27.3781 10.846C27.5569 11.2575 27.7027 11.6839 27.8892 12.0922C27.9402 12.2035 28.0727 12.3211 28.1895 12.3524C29.3975 12.6699 30.5413 13.1386 31.6098 13.7828C31.7752 13.8824 31.9037 13.8847 32.0683 13.8087C32.4407 13.637 32.8193 13.4795 33.1956 13.3173C33.7663 13.0704 34.2923 13.1456 34.7407 13.5759C35.3036 14.1175 35.8578 14.6693 36.3964 15.2352C36.8072 15.667 36.8785 16.1796 36.6465 16.7298C36.4834 17.117 36.3227 17.505 36.1479 17.8859C36.0718 18.0513 36.0703 18.1798 36.1706 18.3452C36.8166 19.4135 37.2814 20.5586 37.6021 21.7656C37.6334 21.8832 37.7502 22.0141 37.8616 22.0666C38.2143 22.2328 38.5804 22.3723 38.9465 22.5079C39.5823 22.7438 39.9342 23.1811 39.9538 23.8701C39.9562 23.9461 39.9852 24.0214 40.0017 24.0966V25.857C39.9852 25.9322 39.9554 26.0075 39.9538 26.0835C39.9342 26.7732 39.5823 27.2098 38.9473 27.4465C38.5812 27.5829 38.2167 27.7239 37.8639 27.8901C37.7526 27.9426 37.6342 28.0719 37.6029 28.1879C37.2822 29.3942 36.8181 30.5401 36.1714 31.6076C36.0719 31.7722 36.0719 31.9007 36.1487 32.0669C36.3243 32.4478 36.4842 32.8365 36.648 33.2229C36.8801 33.7732 36.808 34.2865 36.3987 34.7176C35.861 35.2843 35.306 35.8353 34.7431 36.3769C34.2947 36.808 33.7687 36.8808 33.1988 36.6347C32.8131 36.4686 32.4329 36.2899 32.0393 36.1441C31.9241 36.101 31.7477 36.1073 31.6435 36.1668C30.546 36.8009 29.392 37.29 28.1628 37.6058C28.0554 37.6333 27.9386 37.7532 27.89 37.859C27.727 38.2133 27.5851 38.5777 27.4495 38.9438C27.2135 39.5794 26.7753 39.9305 26.0862 39.9517C26.0102 39.9541 25.9349 39.9823 25.8597 39.9987H24.099L24.0966 40.0011ZM14.9851 18.183C14.9349 18.2998 14.8981 18.4322 14.8275 18.5443C14.0812 19.7294 13.5513 21.0038 13.2479 22.3699C13.1915 22.6254 13.0511 22.7783 12.8105 22.8708C12.3362 23.0518 11.8721 23.2587 11.3947 23.432C11.1297 23.5284 10.9933 23.6741 10.998 23.9665C11.009 24.6594 11.0067 25.3522 11.0027 26.0459C11.0012 26.288 11.1219 26.4197 11.3375 26.502C11.829 26.6917 12.3142 26.8978 12.8081 27.0828C13.0637 27.1784 13.1954 27.3454 13.255 27.6095C13.5591 28.9654 14.082 30.2328 14.8314 31.4038C14.978 31.6327 14.9906 31.8513 14.8816 32.0959C14.6676 32.5779 14.4708 33.067 14.2545 33.5474C14.158 33.7622 14.1729 33.9354 14.3438 34.1039C14.8518 34.6047 15.3551 35.1095 15.8568 35.6158C16.0159 35.7765 16.1837 35.7977 16.3883 35.7067C16.879 35.4889 17.3768 35.2866 17.8676 35.0695C18.102 34.9653 18.3144 34.9739 18.5331 35.1142C19.7121 35.8706 20.9884 36.3965 22.354 36.7029C22.6213 36.7633 22.7796 36.9051 22.8745 37.1575C23.0493 37.6239 23.2523 38.0792 23.4217 38.5472C23.5204 38.8215 23.6725 38.9634 23.9783 38.9579C24.661 38.9445 25.3446 38.9477 26.0282 38.9532C26.283 38.9555 26.4178 38.8301 26.5048 38.6036C26.6859 38.1294 26.8897 37.6638 27.0653 37.1881C27.1665 36.9138 27.3319 36.7617 27.6235 36.6967C28.9703 36.3965 30.2293 35.8768 31.391 35.1322C31.6294 34.9794 31.8551 34.9653 32.1099 35.0789C32.5912 35.2937 33.0804 35.492 33.5617 35.7067C33.7655 35.7977 33.9333 35.7836 34.0932 35.6213C34.5949 35.115 35.099 34.6102 35.6062 34.1094C35.7755 33.9425 35.799 33.7692 35.7018 33.5529C35.4855 33.0725 35.2887 32.5826 35.0747 32.1014C34.9665 31.8576 34.9751 31.6397 35.1225 31.4093C35.8767 30.2297 36.4019 28.9521 36.706 27.586C36.7633 27.3305 36.902 27.1769 37.1435 27.0852C37.6452 26.8947 38.1406 26.6878 38.6408 26.4926C38.8462 26.4127 38.9528 26.2786 38.9512 26.0498C38.9465 25.3467 38.9449 24.6437 38.9536 23.9414C38.9567 23.6741 38.8297 23.5346 38.5898 23.4445C38.1148 23.2666 37.6499 23.0612 37.174 22.8841C36.9114 22.7861 36.7617 22.6254 36.6998 22.3456C36.3972 20.9897 35.8735 19.7215 35.1249 18.5506C34.9783 18.3209 34.965 18.1038 35.0739 17.8593C35.2879 17.3772 35.4847 16.8882 35.7011 16.4077C35.7975 16.1929 35.7826 16.0189 35.6117 15.8504C35.1115 15.3559 34.6138 14.859 34.1207 14.3581C33.9451 14.1802 33.7655 14.1567 33.539 14.2594C33.0679 14.4741 32.5873 14.6661 32.1146 14.877C31.8606 14.9906 31.6348 14.9789 31.3957 14.826C30.2253 14.0752 28.957 13.554 27.6 13.253C27.3327 13.1934 27.1751 13.0508 27.0802 12.7976C26.8952 12.3046 26.6898 11.8187 26.4986 11.3272C26.4194 11.1242 26.2947 11.0043 26.0643 11.0051C25.3423 11.009 24.6195 11.009 23.8975 11.0051C23.667 11.0043 23.5408 11.1227 23.4616 11.3257C23.2735 11.8077 23.0697 12.2834 22.8902 12.7686C22.789 13.0429 22.6221 13.1942 22.3312 13.2593C20.9852 13.5602 19.7262 14.0799 18.5637 14.8245C18.3254 14.9773 18.1004 14.9898 17.8448 14.8754C17.3549 14.656 16.8571 14.4545 16.3656 14.2382C16.1821 14.1575 16.0261 14.1731 15.8834 14.315C15.3653 14.8331 14.8487 15.352 14.3281 15.8677C14.1643 16.0299 14.1643 16.2008 14.2537 16.4014C14.4645 16.8741 14.6652 17.3506 14.8667 17.8271C14.9114 17.9337 14.9412 18.0474 14.9851 18.1814V18.183Z" fill="white"/>
<path d="M35.998 24.9974C35.998 31.0897 31.0334 36.0017 24.8811 35.9954C18.9013 35.9899 13.9509 31.0004 13.9556 24.9817C13.9603 18.9082 18.8998 13.9539 24.9525 13.9531C31.0451 13.9516 35.998 18.9043 35.998 24.9974ZM18.3722 32.5413L18.4647 32.495C18.4647 32.3916 18.4647 32.2873 18.4647 32.1839C18.4647 30.0128 18.4647 27.8417 18.4647 25.6707C18.4647 24.8469 18.8379 24.473 19.6665 24.473C23.2067 24.4722 26.7469 24.4722 30.2871 24.473C31.1141 24.473 31.488 24.8477 31.4888 25.6714C31.4888 27.8519 31.4888 30.0332 31.4888 32.2137C31.4888 32.3124 31.4888 32.4112 31.4888 32.5099C31.5194 32.5217 31.5492 32.5327 31.5798 32.5444C31.8471 32.2599 32.1207 31.9809 32.3786 31.6877C32.4413 31.6164 32.4836 31.4996 32.4836 31.404C32.4891 28.4899 32.4883 25.5758 32.4875 22.6609C32.4875 22.2541 32.3104 21.9446 31.9568 21.7455C29.8034 20.5322 27.6492 19.3212 25.4949 18.1103C25.1524 17.9175 24.8043 17.9175 24.4609 18.1103C22.3067 19.3212 20.1525 20.5322 17.9991 21.7447C17.6455 21.9438 17.4652 22.2502 17.4652 22.6578C17.4652 25.5719 17.4636 28.486 17.4691 31.4009C17.4691 31.4965 17.5099 31.6141 17.5726 31.6846C17.8305 31.9777 18.1041 32.2568 18.3714 32.5413H18.3722ZM16.4649 30.1703C16.4649 29.9995 16.4649 29.8921 16.4649 29.7847C16.4649 27.4185 16.4649 25.0522 16.4649 22.686C16.4649 21.8717 16.8224 21.2595 17.5303 20.8606C19.6312 19.6755 21.7392 18.5014 23.8354 17.3085C24.6154 16.8649 25.3601 16.8743 26.137 17.3163C28.1909 18.4857 30.251 19.6442 32.3166 20.7932C33.1123 21.236 33.4949 21.8842 33.491 22.7957C33.48 25.1322 33.487 27.4694 33.487 29.8067V30.1554C35.6303 26.9474 35.7471 21.5464 31.978 17.8093C28.2755 14.1373 22.2769 13.986 18.304 17.5256C14.3577 21.0416 14.1649 26.5885 16.4641 30.1703H16.4649ZM30.4877 25.4935H19.4893C19.4799 25.5539 19.4666 25.6001 19.4666 25.6471C19.4658 28.1497 19.465 30.6524 19.4681 33.155C19.4681 33.2255 19.4877 33.3298 19.5355 33.3603C19.8256 33.5453 20.1266 33.7138 20.4661 33.9121C20.4661 33.4426 20.4653 33.0429 20.4661 32.6424C20.4684 31.8751 20.8549 31.4879 21.62 31.4863C22.0661 31.4855 22.5113 31.4863 22.9778 31.4863C22.9778 30.4791 22.9754 29.5135 22.9785 28.5471C22.9809 27.8888 23.3768 27.489 24.0376 27.4851C24.9956 27.4796 25.9535 27.4796 26.9115 27.4851C27.5872 27.489 27.9737 27.8856 27.9761 28.5714C27.9792 29.432 27.9768 30.2918 27.9768 31.1524C27.9768 31.2567 27.9768 31.3601 27.9768 31.4722C28.0819 31.4785 28.1501 31.4926 28.2159 31.4847C28.9912 31.3938 29.5604 31.8735 29.4922 32.7889C29.4663 33.1424 29.4882 33.4998 29.4882 33.9105C29.7697 33.7499 29.9907 33.608 30.2251 33.4944C30.4399 33.3901 30.4948 33.2396 30.494 33.0084C30.4854 30.6132 30.4885 28.2187 30.4885 25.8235V25.4935H30.4877ZM26.9656 28.5056H23.9961V31.4659H26.9656V28.5056ZM24.457 32.5021H21.4663C21.4663 33.0523 21.4758 33.5868 21.4616 34.1214C21.4569 34.3079 21.5338 34.3824 21.6953 34.4239C22.2142 34.5564 22.7285 34.7139 23.2521 34.8221C23.6457 34.9036 24.0517 34.924 24.4578 34.9718V32.5013L24.457 32.5021ZM25.4949 34.9608C26.496 34.9091 27.4281 34.7186 28.3335 34.3933C28.3939 34.3714 28.477 34.2969 28.4778 34.2452C28.488 33.6636 28.484 33.0813 28.484 32.5084H25.4949V34.9608Z" fill="white"/>
<path d="M20.967 23.4706C20.6441 23.4706 20.3211 23.4777 19.9989 23.4683C19.6861 23.4596 19.4807 23.2668 19.469 22.9932C19.4572 22.7133 19.6712 22.4805 19.9895 22.4743C20.6449 22.4617 21.3002 22.4617 21.9548 22.4743C22.2825 22.4813 22.4753 22.7008 22.4636 22.9971C22.4518 23.2793 22.2597 23.4589 21.9352 23.4675C21.613 23.4761 21.29 23.4691 20.967 23.4691V23.4706Z" fill="white"/>
<path d="M24.9707 23.4701C24.6477 23.4701 24.3255 23.4772 24.0025 23.4678C23.6897 23.4584 23.4875 23.2647 23.4781 22.9888C23.4687 22.7035 23.6764 22.48 24.001 22.4738C24.6461 22.4612 25.2913 22.4628 25.9373 22.473C26.2665 22.4785 26.4758 22.6878 26.4766 22.9723C26.4774 23.2585 26.2673 23.4592 25.9388 23.4686C25.6166 23.4772 25.2937 23.4701 24.9707 23.4701Z" fill="white"/>
<path d="M28.968 23.4692C28.645 23.4692 28.322 23.4778 27.9998 23.4668C27.6815 23.4558 27.4926 23.2661 27.4903 22.9792C27.4879 22.6954 27.6768 22.4822 27.9888 22.4751C28.6536 22.461 29.3192 22.4618 29.9831 22.4751C30.2857 22.4814 30.4903 22.7119 30.4856 22.9815C30.4801 23.2559 30.2748 23.4566 29.9651 23.466C29.6327 23.4762 29.3003 23.4684 28.968 23.4684V23.4692Z" fill="white"/>
</g>
<defs>
<clipPath id="clip0_2627_36">
<rect width="30" height="30" fill="white" transform="translate(10 10)"/>
</clipPath>
</defs>
</svg>
