<svg width="18" height="16" viewBox="0 0 18 16" fill="none" xmlns="http://www.w3.org/2000/svg">
<path d="M9.00006 16.0001C8.74241 16.0018 8.49309 15.9089 8.29943 15.7392C7.57178 15.1042 6.87014 14.5071 6.25159 13.9811C4.65125 12.7064 3.15641 11.305 1.78161 9.79018C0.673445 8.59517 0.0390599 7.03761 -0.00293614 5.40908C-0.0275045 3.9954 0.482536 2.6245 1.42534 1.57009C1.8828 1.07159 2.43985 0.674604 3.06052 0.404682C3.68118 0.134761 4.35162 -0.00210121 5.02851 0.003071C6.05468 -0.00130856 7.05183 0.343284 7.85604 0.980122C8.29279 1.3204 8.67811 1.72189 9.00006 2.17214C9.32192 1.72212 9.70683 1.32067 10.143 0.980122C10.9476 0.343282 11.9451 -0.00129691 12.9716 0.003071C13.6485 -0.00203898 14.3189 0.134887 14.9395 0.404804C15.5602 0.674722 16.1173 1.07164 16.5748 1.57009C17.5176 2.6245 18.0276 3.9954 18.0031 5.40908C17.9614 7.03788 17.3266 8.59567 16.2175 9.79018C14.8434 11.305 13.3492 12.7065 11.7495 13.9811C11.13 14.5081 10.4283 15.1071 9.69868 15.7421C9.50509 15.9103 9.25664 16.0021 9.00006 16.0001ZM5.02851 1.0541C4.49785 1.04983 3.97221 1.15683 3.48552 1.36818C2.99882 1.57953 2.56191 1.89059 2.203 2.28115C1.44089 3.14167 1.03105 4.25736 1.05501 5.40615C1.09523 6.78941 1.64392 8.10942 2.59636 9.11415C3.93343 10.5812 5.38532 11.9395 6.93823 13.1762C7.55878 13.7042 8.2634 14.3041 8.99505 14.9441C9.73171 14.3031 10.4363 13.7021 11.0599 13.1731C12.6117 11.9359 14.0629 10.5777 15.3997 9.1111C16.3529 8.10673 16.902 6.78657 16.9421 5.4031C16.9662 4.25411 16.5559 3.13827 15.7931 2.2781C15.4345 1.88746 14.9977 1.57649 14.5112 1.36513C14.0246 1.15377 13.4991 1.0468 12.9686 1.05117C12.1759 1.04906 11.4061 1.31555 10.7847 1.80715C10.2967 2.19763 9.88453 2.67418 9.56856 3.21315C9.50971 3.31222 9.42605 3.39431 9.32585 3.45131C9.22565 3.50831 9.11237 3.53823 8.99707 3.53823C8.88177 3.53823 8.76842 3.50831 8.66822 3.45131C8.56802 3.39431 8.48437 3.31222 8.42552 3.21315C8.10912 2.67419 7.69669 2.19766 7.20849 1.80715C6.58776 1.31748 5.8194 1.05204 5.02851 1.0541Z" fill="#DFAD42"/>
</svg>
