<svg width="24" height="25" viewBox="0 0 24 25" fill="none" xmlns="http://www.w3.org/2000/svg">
<path d="M10.3654 13.7485C9.06405 13.7485 7.81498 13.7485 6.56591 13.7485C4.94664 13.7485 3.32825 13.7511 1.70898 13.7476C0.726448 13.745 0 13.0466 0 12.1174C0 11.1882 0.726448 10.4907 1.70985 10.4898C4.44754 10.4872 7.18609 10.489 9.92377 10.489C10.0536 10.489 10.1833 10.489 10.3654 10.489C10.3654 10.3531 10.3654 10.2286 10.3654 10.1032C10.3654 7.33304 10.3628 4.5629 10.3671 1.79363C10.368 1.08477 10.6955 0.558782 11.3418 0.268792C11.9507 -0.00378037 12.536 0.0920119 13.0491 0.516981C13.4593 0.856609 13.6283 1.31206 13.6274 1.8424C13.624 4.57944 13.6257 7.31736 13.6257 10.0544C13.6257 10.1833 13.6257 10.313 13.6257 10.4881C13.7677 10.4881 13.8931 10.4881 14.0185 10.4881C16.7893 10.4881 19.5601 10.4855 22.33 10.4907C23.0382 10.4924 23.5643 10.8225 23.85 11.4713C24.1252 12.0957 24.0155 12.687 23.5721 13.2016C23.2324 13.5952 22.783 13.7503 22.2656 13.7503C19.5279 13.7468 16.7893 13.7485 14.0516 13.7485H13.6257C13.6257 13.8966 13.6257 14.0228 13.6257 14.1491C13.6257 16.9079 13.6301 19.6676 13.624 22.4264C13.6213 23.6465 12.4594 24.4485 11.3714 23.98C10.6929 23.6883 10.3671 23.1449 10.3671 22.4099C10.3654 19.6615 10.3671 16.9131 10.3671 14.1648C10.3671 14.0368 10.3671 13.9096 10.3671 13.7476L10.3654 13.7485Z" fill="#404041"/>
</svg>
