<svg width="50" height="50" viewBox="0 0 50 50" fill="none" xmlns="http://www.w3.org/2000/svg">
<circle cx="25" cy="25" r="25" fill="#62306C"/>
<g clip-path="url(#clip0_2627_28)">
<path d="M34.1204 25.4711H38.4589V33.1966H39.8881C39.8881 34.113 39.9404 34.9995 39.872 35.8771C39.8165 36.585 39.1803 37.0625 38.4645 37.0763C38.1556 37.0819 37.8468 37.0771 37.5025 37.0771C37.5025 37.2484 37.4953 37.3963 37.5034 37.5434C37.6232 39.5669 37.0915 40.0784 35.0623 39.9911C33.8301 39.9378 32.5946 39.983 31.36 39.9806C30.3981 39.979 29.7989 39.3802 29.7956 38.4185C29.794 37.9862 29.7956 37.5539 29.7956 37.0989H20.1624C20.1624 37.528 20.1632 37.9579 20.1624 38.3878C20.16 39.3907 19.5712 39.9798 18.5675 39.9806C17.0521 39.9814 15.5376 39.9822 14.0223 39.9806C13.0587 39.9798 12.4595 39.381 12.4563 38.421C12.4547 37.9886 12.4563 37.5555 12.4563 37.0779C12.1676 37.0779 11.8909 37.0779 11.615 37.0779C10.6514 37.0747 10.0514 36.4783 10.0482 35.5183C10.0458 34.7627 10.0482 34.0079 10.0482 33.2192H11.4887V25.4727H15.8167V17.7247H20.1552V10H29.7916V17.7133H34.1196V25.4703L34.1204 25.4711ZM11.0335 34.1849C11.0222 34.2366 11.0142 34.256 11.0142 34.2746C11.0126 34.6374 11.0118 35.0003 11.011 35.3631C11.011 35.9845 11.1332 36.109 11.7437 36.109C20.5702 36.109 29.3967 36.109 38.2232 36.109C38.3237 36.109 38.4492 36.1429 38.5184 36.0961C38.6728 35.991 38.9037 35.8552 38.9173 35.7138C38.9656 35.2096 38.9366 34.6972 38.9366 34.1849H11.0335ZM21.1469 10.9592V17.698H28.8071V10.9633H26.8969V13.8256H23.0426V10.9592H21.1469ZM16.8124 18.7016V25.4396H24.4832V18.7065H22.5617V21.568H18.7074V18.7016H16.8124ZM33.1464 25.4509V18.713H31.2297V21.5728H27.3755V18.7041H25.4781V25.4517H33.1472L33.1464 25.4509ZM20.1407 33.195V26.4457H18.2337V29.3145H14.369V26.4473H12.474V33.195H20.1415H20.1407ZM21.138 33.1861H28.8096V26.4473H26.9017V29.3145H23.037V26.4489H21.1388V33.1861H21.138ZM37.4808 33.1942V26.4562H35.5642V29.3161H31.7099V26.4473H29.8125V33.195H37.4808V33.1942ZM13.4207 37.0876C13.4207 37.5814 13.4134 38.0436 13.4231 38.505C13.4295 38.8226 13.6161 38.998 13.9378 39.0109C14.0979 39.0173 14.2588 39.0125 14.4188 39.0125C15.8111 39.0125 17.2041 39.0125 18.5964 39.0125C18.9399 39.0125 19.1675 38.8848 19.1819 38.6206C19.2093 38.1131 19.19 37.6032 19.19 37.0884H13.4207V37.0876ZM30.7624 37.0892C30.7624 37.5943 30.7487 38.0767 30.7672 38.5567C30.7785 38.8355 30.9603 39.0068 31.2386 39.0077C32.8416 39.0149 34.4446 39.0133 36.0475 39.0093C36.3122 39.0093 36.51 38.859 36.5245 38.5988C36.5527 38.101 36.5325 37.5999 36.5325 37.0892H30.7632H30.7624ZM25.9366 10.9641H24.0368V12.8575H25.9366V10.9641ZM19.7031 18.7016V20.5999H21.5917V18.7016H19.7031ZM30.2646 18.7097H28.3752V20.608H30.2646V18.7097ZM15.3599 28.3455H17.2492V26.4473H15.3599V28.3455ZM24.0336 26.4465V28.3472H25.9197V26.4465H24.0336ZM32.6984 28.3512H34.5934V26.453H32.6984V28.3512Z" fill="white"/>
<path d="M13.4634 10.8633C14.5661 11.9712 15.7323 13.1421 16.9114 14.3276H14.8757V18.6647H13.9218V13.3781H14.517C14.1478 13.0056 13.7602 12.6144 13.3982 12.2492C13.0733 12.5757 12.6816 12.97 12.3044 13.349H12.914V18.6671H11.9778V14.343H10C11.1478 13.1898 12.3148 12.0173 13.4634 10.8633Z" fill="white"/>
<path d="M37.9804 14.3176V18.6709H37.0442V13.373H37.7077C37.2935 12.9641 36.9002 12.5754 36.5214 12.202C36.1659 12.5616 35.7798 12.952 35.3841 13.352H36.0396V18.6733H35.1042V14.3379H33.0645C34.2387 13.1613 35.4042 11.9927 36.5471 10.8477C37.6707 11.9766 38.837 13.1483 40 14.3176H37.9804Z" fill="white"/>
</g>
<defs>
<clipPath id="clip0_2627_28">
<rect width="30" height="30" fill="white" transform="translate(10 10)"/>
</clipPath>
</defs>
</svg>
