<svg width="51" height="51" viewBox="0 0 51 51" fill="none" xmlns="http://www.w3.org/2000/svg">
<circle cx="25.5" cy="25.5" r="25.5" fill="#62306C"/>
<g clip-path="url(#clip0_344_57)">
<path d="M13.0049 29.877C13.0049 29.3211 13.0049 28.766 13.0049 28.2101C13.0049 27.9386 13.0905 27.7059 13.3673 27.6011C14.2203 27.2772 14.6011 26.6093 14.7405 25.7906C14.8579 25.0982 14.7346 24.4332 14.3302 23.8357C14.1126 23.5139 13.8329 23.259 13.4536 23.1261C13.1429 23.0177 13.0049 22.8008 13.0049 22.4891C13.0049 21.763 12.9953 21.0377 13.0079 20.3116C13.0234 19.3967 13.6041 18.7094 14.5236 18.5119C14.6896 18.476 14.7664 18.4027 14.8165 18.249C15.0305 17.5926 15.2578 16.9398 15.4814 16.2862C15.8482 15.2126 16.8052 14.7551 17.9143 15.1286C21.1243 16.2087 24.3321 17.2931 27.5435 18.3704C27.7132 18.4271 27.9007 18.4609 28.0807 18.4609C31.0324 18.4666 33.9841 18.4882 36.9351 18.4523C38.036 18.4386 39.044 19.2092 38.9983 20.4761C38.9747 21.1382 38.9931 21.8018 38.9946 22.4654C38.9946 22.7477 38.9053 22.9839 38.6175 23.0938C37.7637 23.4192 37.3904 24.0935 37.2553 24.9108C37.1417 25.6031 37.2671 26.2681 37.6774 26.8628C37.8981 27.1831 38.1807 27.4323 38.56 27.5659C38.8574 27.6707 38.9924 27.8862 38.9924 28.1857C38.9931 29.306 39.0064 30.4257 38.988 31.546C38.9732 32.4581 38.3696 33.1396 37.4494 33.3256C37.2966 33.3565 37.2184 33.4147 37.1697 33.5655C36.9602 34.214 36.7351 34.8575 36.5137 35.5024C36.1529 36.5531 35.2039 37.0163 34.1265 36.6601C30.9025 35.5936 27.6793 34.5228 24.4546 33.4592C24.293 33.4061 24.1144 33.3752 23.9439 33.3752C20.9922 33.3702 18.0405 33.3472 15.0896 33.3838C13.9406 33.3982 12.9496 32.6046 13.002 31.355C13.0226 30.863 13.0057 30.3696 13.0057 29.877H13.0049ZM19.5075 32.2319C19.6566 32.2319 19.7562 32.2319 19.8566 32.2319C25.529 32.2319 31.2007 32.2319 36.8731 32.2319C36.9469 32.2319 37.0207 32.234 37.0945 32.2297C37.5343 32.2039 37.7955 31.9546 37.7992 31.5266C37.8073 30.5592 37.8051 29.5911 37.7977 28.6238C37.7977 28.5419 37.7483 28.4248 37.6818 28.3839C36.6096 27.7232 36.1042 26.7414 36.0496 25.5485C35.9883 24.2113 36.4576 23.0909 37.6508 22.3218C37.7298 22.2708 37.794 22.1394 37.7962 22.0438C37.8102 21.5067 37.8043 20.9687 37.8029 20.4308C37.8006 19.8369 37.5608 19.6056 36.9447 19.6056C31.2353 19.6056 25.5268 19.6056 19.8174 19.6056C19.7208 19.6056 19.6234 19.6056 19.5083 19.6056C19.5083 19.7988 19.5142 19.9511 19.5068 20.1026C19.4898 20.4761 19.2566 20.7217 18.9216 20.7267C18.5792 20.7317 18.3342 20.4754 18.3202 20.0911C18.3143 19.9346 18.3195 19.7773 18.3195 19.6092C17.1299 19.6092 15.9869 19.6006 14.8446 19.6143C14.466 19.6186 14.2092 19.8893 14.2019 20.2577C14.1893 20.8668 14.1923 21.4765 14.2004 22.0855C14.2011 22.1588 14.252 22.2622 14.3133 22.3002C15.37 22.9574 15.8836 23.924 15.9456 25.109C16.0164 26.4592 15.5449 27.5838 14.3516 28.3681C14.2683 28.4227 14.2026 28.5649 14.2019 28.6676C14.19 29.5904 14.193 30.5133 14.1959 31.4361C14.1974 31.9906 14.4505 32.2304 15.0305 32.2319C15.888 32.234 16.7462 32.2319 17.6037 32.2319C17.8317 32.2319 18.0597 32.2319 18.3195 32.2319C18.3195 32.0257 18.3136 31.8491 18.3209 31.6724C18.3364 31.2997 18.5718 31.0576 18.9098 31.0555C19.25 31.0533 19.4891 31.2939 19.506 31.6652C19.5142 31.8426 19.5075 32.02 19.5075 32.2311V32.2319ZM24.0288 18.4537C24.031 18.4393 24.0332 18.425 24.0354 18.4106C23.9417 18.3776 23.8487 18.3431 23.7543 18.3115C22.9293 18.0328 22.1043 17.7542 21.2785 17.4763C20.01 17.049 18.7423 16.6202 17.4731 16.195C17.1056 16.0722 16.8067 16.1448 16.6931 16.4363C16.4378 17.0942 16.2208 17.7664 15.981 18.4537H24.028H24.0288ZM28.0372 33.3809C28.0305 33.3946 28.0239 33.4075 28.0165 33.4212C28.5183 33.5878 29.0201 33.7537 29.5219 33.9203C31.177 34.4704 32.8322 35.022 34.4874 35.5699C34.9729 35.7308 35.2349 35.6015 35.3994 35.1261C35.502 34.8295 35.5994 34.5307 35.6998 34.2334C35.7935 33.9562 35.8887 33.679 35.9898 33.3809H28.0364H28.0372Z" fill="white"/>
<path d="M31.7937 23.2396C31.7103 23.3703 31.6446 23.5333 31.5288 23.6468C29.6943 25.4386 27.8539 27.2254 26.012 29.0101C25.7272 29.2859 25.3745 29.2916 25.1288 29.046C24.8815 28.7989 24.9 28.4736 25.1922 28.1892C26.384 27.0272 27.5787 25.8688 28.7726 24.7089C29.4183 24.0813 30.061 23.4514 30.7111 22.828C31.0299 22.5228 31.4778 22.558 31.6771 22.8984C31.7295 22.9882 31.7472 23.0981 31.7944 23.2403L31.7937 23.2396Z" fill="white"/>
<path d="M25.5527 25.0401C24.4967 25.0401 23.6274 24.1998 23.6304 23.1814C23.6333 22.1659 24.5122 21.3199 25.56 21.3242C26.599 21.3285 27.4543 22.1609 27.4617 23.1757C27.4691 24.202 26.6109 25.0408 25.5527 25.0408V25.0401ZM25.546 22.474C25.1298 22.4769 24.817 22.7886 24.8221 23.1958C24.8273 23.5987 25.1557 23.9082 25.5667 23.8982C25.9666 23.8881 26.2766 23.58 26.278 23.1886C26.2803 22.7857 25.9578 22.4712 25.5453 22.4733L25.546 22.474Z" fill="white"/>
<path d="M31.1818 26.7931C32.2392 26.7967 33.0915 27.6341 33.0856 28.6632C33.0797 29.6708 32.2142 30.5089 31.1774 30.5111C30.1295 30.5139 29.2602 29.6672 29.2617 28.6445C29.2625 27.6161 30.1207 26.7888 31.1818 26.7924V26.7931ZM31.17 29.357C31.5818 29.3584 31.9116 29.0395 31.9079 28.6431C31.905 28.2574 31.5862 27.9443 31.1884 27.9371C30.7789 27.9292 30.4424 28.2431 30.4365 28.6388C30.4306 29.0352 30.7582 29.3563 31.17 29.3577V29.357Z" fill="white"/>
<path d="M19.5069 22.7771C19.5069 22.9825 19.5187 23.1886 19.5047 23.3926C19.4803 23.7438 19.2368 23.9671 18.904 23.9621C18.5845 23.9571 18.3403 23.7366 18.327 23.3976C18.31 22.9789 18.3093 22.5588 18.327 22.1401C18.3417 21.8026 18.5897 21.5857 18.9114 21.5842C19.2339 21.5828 19.4752 21.7975 19.5025 22.1351C19.5195 22.3477 19.5054 22.5631 19.5054 22.7771C19.5054 22.7771 19.5062 22.7771 19.5069 22.7771Z" fill="white"/>
<path d="M19.5076 25.9019C19.5076 26.0979 19.5172 26.2947 19.5054 26.4908C19.4847 26.8463 19.2508 27.0754 18.9209 27.079C18.5896 27.0825 18.3387 26.8563 18.3247 26.5051C18.3084 26.0951 18.3084 25.6843 18.3247 25.2742C18.338 24.9208 18.5859 24.6982 18.9202 24.7011C19.253 24.7039 19.4847 24.9295 19.5054 25.2871C19.5172 25.4918 19.5076 25.6972 19.5076 25.9026V25.9019Z" fill="white"/>
<path d="M19.5073 29.0266C19.5073 29.2227 19.5176 29.4202 19.505 29.6155C19.4822 29.9696 19.2431 30.1965 18.9125 30.1958C18.5841 30.1951 18.3369 29.9638 18.3244 29.6119C18.3103 29.2018 18.3089 28.7903 18.3258 28.381C18.3399 28.0406 18.5804 27.8215 18.9022 27.8165C19.2372 27.8115 19.4799 28.0319 19.5043 28.3846C19.5191 28.5979 19.5073 28.8126 19.5073 29.0266Z" fill="white"/>
</g>
<defs>
<clipPath id="clip0_344_57">
<rect width="26" height="21.7786" fill="white" transform="translate(13 15)"/>
</clipPath>
</defs>
</svg>
