<svg width="51" height="51" viewBox="0 0 51 51" fill="none" xmlns="http://www.w3.org/2000/svg">
<circle cx="25.5" cy="25.5" r="25.5" fill="#CCB936"/>
<g clip-path="url(#clip0_344_102)">
<path d="M24.6425 12C24.8249 12.0479 25.0088 12.093 25.1905 12.1444C26.1216 12.4058 26.8234 12.9483 27.2945 13.7607C27.3824 13.9122 27.4725 13.9728 27.6535 13.9657C28 13.9516 28.348 13.9594 28.6952 13.9622C29.3875 13.9671 29.7992 14.3652 29.8044 15.031C29.8051 15.1529 29.8044 15.2741 29.8044 15.4354C30.0293 15.4354 30.2359 15.4354 30.4417 15.4354C30.871 15.4354 31.3003 15.4347 31.7304 15.4354C32.7392 15.4375 33.3751 16.042 33.3765 17.0136C33.3795 20.2031 33.378 23.3934 33.378 26.5829C33.378 27.1085 33.378 27.6348 33.378 28.1597C33.8212 28.2245 34.2476 28.2619 34.6615 28.3506C37.2066 28.8967 39.052 31.1745 38.9992 33.6862C38.9458 36.2424 37.0161 38.4441 34.4337 38.9028C32.9751 39.162 31.6242 38.8992 30.3634 38.1559C30.2256 38.0749 30.0439 38.0235 29.8828 38.0235C25.515 38.0164 21.148 38.0186 16.7802 38.0164C16.5802 38.0164 16.3743 38.0164 16.1809 37.9742C15.5055 37.8262 15.0439 37.2731 15.0029 36.5897C14.9978 36.5023 15 36.4143 15 36.3262C15 29.9288 15 23.5315 15 17.1348C15 16.0124 15.6029 15.4354 16.7751 15.4347C17.3663 15.4347 17.9575 15.4347 18.5743 15.4347C18.5743 15.2741 18.5714 15.1437 18.5743 15.0141C18.589 14.3645 19.0051 13.9678 19.6791 13.9615C20.0447 13.958 20.4102 13.9692 20.7751 13.9551C20.8659 13.9516 20.9963 13.9009 21.0366 13.8326C21.6264 12.825 22.5062 12.2226 23.693 12.0345C23.7187 12.0303 23.7414 12.012 23.7655 12C24.0579 12 24.3502 12 24.6432 12H24.6425ZM18.5751 16.4232C17.934 16.4232 17.3326 16.4232 16.7311 16.4232C16.178 16.4232 16.0293 16.5648 16.0293 17.0897C16.0293 23.5139 16.0293 29.938 16.0293 36.3621C16.0293 36.8891 16.1846 37.0406 16.726 37.0406C20.7282 37.0406 24.7311 37.0406 28.7333 37.0406C28.8198 37.0406 28.9055 37.0322 29.0373 37.0251C28.1978 36.0049 27.7875 34.8748 27.7582 33.6052C27.622 33.6052 27.5128 33.6052 27.4044 33.6052C26.1985 33.6052 24.9919 33.6073 23.7861 33.6038C23.4088 33.6024 23.1692 33.4009 23.1721 33.1064C23.1751 32.8091 23.4117 32.6217 23.7941 32.6217C24.9179 32.6202 26.0417 32.6217 27.1663 32.6217C27.3934 32.6217 27.6205 32.6217 27.8447 32.6217C28.4366 30.2839 29.9392 28.8459 32.3663 28.2738C32.3663 28.1914 32.3663 28.104 32.3663 28.0174C32.3663 24.3791 32.3663 20.7407 32.3663 17.1024C32.3663 17.0496 32.3685 16.9967 32.3648 16.9446C32.3428 16.6099 32.1546 16.4302 31.8058 16.4267C31.3033 16.4218 30.8007 16.4253 30.2981 16.4253C30.1384 16.4253 29.9787 16.4253 29.8058 16.4253C29.8058 16.5402 29.8 16.6099 29.8066 16.679C29.8872 17.5075 29.3121 17.9211 28.5216 17.9077C26.7949 17.8788 25.0674 17.8985 23.3406 17.8985C22.1253 17.8985 20.9099 17.9021 19.6945 17.8971C19.0007 17.8943 18.589 17.4948 18.5765 16.829C18.5743 16.7071 18.5765 16.5845 18.5765 16.4246L18.5751 16.4232ZM36.7941 36.5193C38.2901 35.0242 38.5143 32.256 36.5927 30.4425C34.7238 28.6783 31.6894 28.7846 29.9575 30.6609C28.1839 32.5815 28.6476 35.2673 29.9743 36.508C31.8666 34.5655 34.9685 34.6332 36.7934 36.5193H36.7941ZM28.7736 14.9493C28.2923 14.9493 27.8271 14.9295 27.3641 14.9549C26.9289 14.9789 26.6886 14.8175 26.504 14.4293C26.0571 13.4873 25.2615 12.9927 24.1824 12.9948C23.1143 12.9969 22.3253 13.4937 21.8828 14.4223C21.6908 14.8253 21.441 14.9789 20.9992 14.9549C20.5384 14.9302 20.0754 14.9493 19.6183 14.9493V16.896H28.7736V14.9493ZM36.0154 37.1879C34.6916 35.6879 32.0036 35.6949 30.7509 37.1879C32.0586 38.2778 34.6725 38.2828 36.0154 37.1879Z" fill="white"/>
<path d="M27.2755 23.2898C26.1063 23.2898 24.9371 23.2877 23.7686 23.2913C23.5056 23.292 23.3034 23.2116 23.2067 22.9615C23.1026 22.691 23.2711 22.3915 23.5656 22.3324C23.6543 22.3147 23.7473 22.3147 23.8382 22.3147C26.1122 22.314 28.3869 22.314 30.6609 22.3147C30.7246 22.3147 30.7891 22.3133 30.8528 22.319C31.1415 22.345 31.3327 22.5353 31.3356 22.7959C31.3385 23.0658 31.1356 23.2772 30.8382 23.2863C30.4733 23.2976 30.1078 23.2905 29.7422 23.2905C28.9202 23.2905 28.0982 23.2905 27.2763 23.2905L27.2755 23.2898Z" fill="white"/>
<path d="M27.2571 27.2241C28.3802 27.2241 29.504 27.2241 30.6271 27.2241C30.7274 27.2241 30.8293 27.222 30.9274 27.2375C31.1626 27.2741 31.3296 27.4693 31.3347 27.6983C31.3399 27.9364 31.167 28.1485 30.9252 28.1872C30.8358 28.2013 30.7428 28.1971 30.652 28.1971C28.3868 28.1971 26.1223 28.1971 23.8571 28.1971C23.7838 28.1971 23.7106 28.1999 23.638 28.1929C23.375 28.1675 23.1794 27.9688 23.1721 27.7229C23.1641 27.47 23.3641 27.2488 23.641 27.2326C23.9047 27.2171 24.1706 27.2248 24.4351 27.2241C25.3758 27.2241 26.3164 27.2241 27.2571 27.2241Z" fill="white"/>
<path d="M18.792 27.6673C19.5378 26.9225 20.2484 26.2018 20.9715 25.4937C21.2923 25.1802 21.7685 25.2647 21.8535 25.6558C21.8865 25.8079 21.8235 26.0404 21.7121 26.1496C20.8953 26.955 20.0601 27.7419 19.2205 28.5254C18.9004 28.8241 18.4762 28.8023 18.1758 28.4838C17.918 28.2105 17.6718 27.9265 17.433 27.6384C17.2396 27.4052 17.266 27.1325 17.4777 26.9528C17.6975 26.7661 17.992 26.7866 18.2103 27.0099C18.3041 27.1057 18.3883 27.21 18.4769 27.3108C18.559 27.4038 18.641 27.4975 18.7905 27.6673H18.792Z" fill="white"/>
<path d="M18.7913 22.7564C19.5048 22.0434 20.1942 21.3529 20.8858 20.6639C20.9488 20.6012 21.0147 20.5378 21.088 20.487C21.3019 20.3419 21.5583 20.3637 21.7385 20.5343C21.9173 20.704 21.9429 20.9542 21.7949 21.1592C21.7429 21.2304 21.677 21.2931 21.6118 21.3544C20.8513 22.0772 20.0909 22.7994 19.329 23.5209C18.8799 23.9457 18.4814 23.9274 18.074 23.4652C17.8674 23.2306 17.6572 22.9988 17.4565 22.7592C17.2411 22.5014 17.2587 22.2181 17.4902 22.0343C17.7246 21.849 18.0103 21.8842 18.2389 22.1329C18.4015 22.3104 18.5583 22.4929 18.7905 22.7564H18.7913Z" fill="white"/>
<path d="M19.2491 33.0049C19.3304 32.931 19.403 32.8669 19.4733 32.8006C20.1297 32.1778 20.7847 31.5543 21.4411 30.9321C21.7238 30.6637 22.0359 30.6348 22.2557 30.8525C22.4718 31.066 22.444 31.3563 22.1729 31.6156C21.3825 32.3701 20.592 33.124 19.7964 33.8737C19.4088 34.2393 18.9905 34.221 18.6367 33.8314C18.4147 33.5869 18.1964 33.3389 17.9825 33.0881C17.7605 32.8281 17.7737 32.5223 18.0074 32.3406C18.2323 32.1658 18.5356 32.2081 18.7575 32.4498C18.9202 32.6273 19.077 32.8098 19.2506 33.0057L19.2491 33.0049Z" fill="white"/>
<path d="M33.3658 34.5782C32.2412 34.5732 31.3299 33.6862 31.3379 32.6054C31.346 31.5239 32.2647 30.6573 33.3966 30.6623C34.5226 30.6672 35.4383 31.5577 35.4237 32.6343C35.409 33.7214 34.4969 34.5831 33.3658 34.5782ZM32.3672 32.623C32.3687 33.1606 32.8149 33.596 33.3716 33.6031C33.9335 33.6101 34.4046 33.1599 34.4024 32.6174C34.4002 32.0848 33.9475 31.6451 33.3929 31.6381C32.8281 31.631 32.3665 32.0742 32.3672 32.623Z" fill="white"/>
<path d="M24.1918 14.6943C23.9098 14.6943 23.6922 14.4864 23.69 14.2152C23.687 13.9418 23.898 13.7318 24.1815 13.7269C24.4746 13.7213 24.7039 13.939 24.6988 14.218C24.6944 14.485 24.4717 14.6943 24.1918 14.6943Z" fill="white"/>
</g>
<defs>
<clipPath id="clip0_344_102">
<rect width="24" height="27" fill="white" transform="translate(15 12)"/>
</clipPath>
</defs>
</svg>
