<svg width="50" height="50" viewBox="0 0 50 50" fill="none" xmlns="http://www.w3.org/2000/svg">
<circle cx="25" cy="25" r="25" fill="#CBB93A"/>
<g clip-path="url(#clip0_2627_29)">
<path d="M37.8324 40.0009C37.3658 39.8319 36.9611 39.5831 36.6801 39.1551C36.6409 39.0956 36.5157 39.0698 36.4296 39.0675C36.0585 39.0581 35.6875 39.0667 35.3172 39.0628C34.9697 39.0589 34.7708 38.8828 34.7732 38.5902C34.7755 38.2983 34.9736 38.1293 35.3266 38.127C35.8245 38.1238 36.3223 38.1317 36.8202 38.1238C37.0723 38.1199 37.2484 38.2122 37.3627 38.4407C37.5302 38.7764 37.7486 39.0878 38.1705 39.0526C38.6198 39.015 38.8249 38.6653 38.9557 38.2803C39.149 37.7123 39.1028 37.1598 38.7694 36.6552C38.4116 36.1145 37.801 36.0965 37.4989 36.6669C37.257 37.1231 36.9407 37.2279 36.482 37.1935C35.7642 37.1395 35.0385 37.1591 34.3278 37.0605C33.7093 36.9744 33.1849 36.6262 32.7269 36.199C32.4608 35.951 32.4295 35.6701 32.6361 35.458C32.835 35.2538 33.0972 35.2671 33.3602 35.5065C33.7422 35.8547 34.1767 36.0941 34.7246 36.1951C34.482 34.5801 33.8808 33.149 32.9187 31.8243C32.6189 32.2171 32.4976 32.6373 32.4451 33.0841C32.4357 33.1615 32.442 33.2405 32.435 33.318C32.4068 33.638 32.2158 33.8243 31.9324 33.8086C31.6639 33.7937 31.4972 33.6013 31.5003 33.2875C31.5081 32.3705 31.8251 31.5669 32.4428 30.8948C32.8514 30.4495 33.296 30.0364 33.7187 29.6037C33.8917 29.4269 34.0874 29.4034 34.309 29.4754C34.6683 29.592 35.0346 29.6499 35.307 29.3205C35.5795 28.9918 35.4926 28.6178 35.3274 28.2712C35.0558 27.7008 34.6174 27.3221 33.9841 27.2063C33.4009 27.0999 33.0087 27.4989 33.1144 28.0826C33.1371 28.207 33.1833 28.3267 33.2076 28.4504C33.2624 28.7281 33.1332 28.9496 32.8804 29.0216C32.6494 29.0873 32.4193 28.973 32.3222 28.7172C32.0717 28.0576 32.0639 27.4074 32.5297 26.8362C32.9947 26.2665 33.6303 26.164 34.3113 26.319C35.4065 26.5686 36.2683 27.549 36.3959 28.6601C36.5188 29.732 35.6687 30.6146 34.6002 30.4832C34.3027 30.4464 34.1007 30.4957 33.9168 30.725C33.8142 30.8525 33.6741 30.9495 33.6005 31.016C34.0663 31.8814 34.5736 32.6725 34.9289 33.5269C35.2851 34.3829 35.4902 35.3023 35.7791 36.2514C35.9677 36.2514 36.2487 36.2585 36.5282 36.2459C36.59 36.2428 36.6691 36.1849 36.7067 36.1294C37.5365 34.9072 39.1381 35.0684 39.7737 36.5605C39.8676 36.7819 39.9256 37.0182 39.9999 37.2483V38.0683C39.7862 38.9697 39.3698 39.7044 38.4179 40.0017H37.8316L37.8324 40.0009Z" fill="white"/>
<path d="M40.0001 20.0245C39.8349 20.2632 39.6079 20.3375 39.3206 20.3226C38.9331 20.3023 38.5441 20.3179 38.1245 20.3179V20.6552C38.1245 22.6559 38.1245 24.6566 38.1245 26.6574C38.1245 26.7552 38.1346 26.8553 38.1151 26.9492C38.0626 27.1996 37.9022 27.3475 37.6438 27.342C37.3988 27.3365 37.2485 27.191 37.1976 26.9531C37.1796 26.8686 37.1882 26.7779 37.1882 26.6902C37.1882 24.4751 37.1882 22.2592 37.1882 20.0441C37.1882 19.5214 37.3268 19.3813 37.8419 19.3806C38.0556 19.3806 38.2701 19.3806 38.5558 19.3806C37.618 18.2084 36.7154 17.0794 35.7831 15.9135C34.8633 17.0629 33.9584 18.1928 33.0073 19.3806C33.311 19.3806 33.5568 19.3782 33.8026 19.3806C34.205 19.3853 34.3733 19.5488 34.3741 19.9502C34.3764 21.4431 34.3764 22.9368 34.3741 24.4297C34.3741 24.7912 34.1862 25.0095 33.8942 25.0017C33.6124 24.9947 33.4386 24.785 33.4386 24.436C33.4363 23.177 33.4379 21.918 33.4379 20.6591C33.4379 20.5542 33.4379 20.4502 33.4379 20.3179C32.9924 20.3179 32.5752 20.3132 32.158 20.3195C31.9286 20.3226 31.7306 20.2796 31.6163 20.055C31.5012 19.8273 31.5928 19.6458 31.736 19.4674C32.9384 17.9674 34.1377 16.4651 35.3408 14.966C35.6289 14.6068 35.9389 14.6107 36.2317 14.9753C37.4888 16.541 38.7444 18.1075 40.0008 19.674V20.0253L40.0001 20.0245Z" fill="white"/>
<path d="M11.5813 39.9994C9.88343 39.4994 9.5977 37.2241 10.5198 36.0394C11.2643 35.0825 12.4721 35.0645 13.2056 36.0293C13.3457 36.2131 13.4843 36.2609 13.6917 36.253C14.1786 36.2343 14.6695 36.2562 15.154 36.2124C15.7247 36.1607 16.2163 35.9025 16.6335 35.5089C16.83 35.3235 17.0413 35.2351 17.2911 35.3978C17.5643 35.5754 17.5713 35.915 17.3004 36.1724C16.6452 36.7953 15.8609 37.1396 14.9599 37.1795C14.3556 37.2061 13.7489 37.1842 13.1438 37.1889C12.9144 37.1904 12.7516 37.095 12.6491 36.8915C12.6444 36.8829 12.6412 36.8735 12.6365 36.8649C12.4612 36.5324 12.2459 36.2241 11.8216 36.2616C11.3989 36.2984 11.1923 36.6255 11.06 36.9862C10.8541 37.548 10.887 38.1028 11.204 38.6176C11.5688 39.2099 12.1942 39.2248 12.5262 38.6145C12.7438 38.2146 13.0131 38.0848 13.442 38.1176C13.8397 38.1489 14.2421 38.1231 14.6428 38.1247C15.0217 38.1262 15.2245 38.2874 15.2284 38.5863C15.2323 38.8876 15.028 39.0589 14.6562 39.0613C14.2945 39.0636 13.9336 39.0566 13.572 39.066C13.4859 39.0683 13.3606 39.0933 13.3207 39.1528C13.0389 39.5792 12.6373 39.8328 12.1684 39.9994H11.5821H11.5813Z" fill="white"/>
<path d="M24.8239 40.0002C24.5852 39.8351 24.5225 39.6074 24.5257 39.3218C24.539 38.1708 24.5312 37.019 24.5312 35.8681V35.5872C24.5069 35.5723 24.4834 35.5582 24.4591 35.5433C24.1108 35.9048 23.7758 36.2804 23.4063 36.6184C23.2802 36.7335 23.0548 36.8281 22.8959 36.8031C22.5123 36.7428 22.4317 36.2898 22.7331 35.9831C23.2599 35.4471 23.7945 34.9189 24.3253 34.3877C24.9727 33.7406 25.0274 33.7406 25.6748 34.3877C26.2063 34.9189 26.741 35.4471 27.267 35.9831C27.5496 36.271 27.5066 36.6294 27.1848 36.7843C26.9547 36.8946 26.7692 36.8125 26.6056 36.6466C26.2494 36.2859 25.894 35.9244 25.4682 35.4917V35.8688C25.4682 37.0198 25.4603 38.1716 25.4736 39.3226C25.4768 39.609 25.4126 39.8359 25.1754 40.0018H24.8239V40.0002Z" fill="white"/>
<path d="M29.2186 16.5686V16.9528C29.2186 19.4034 29.2186 21.8541 29.2186 24.3047C29.2186 24.4119 29.2296 24.523 29.2053 24.6255C29.1489 24.8602 28.9924 25.0011 28.7466 24.9987C28.5008 24.9964 28.3474 24.854 28.2933 24.6185C28.2722 24.5254 28.2824 24.4244 28.2824 24.3266C28.2824 21.6608 28.2824 18.9958 28.2824 16.33C28.2824 15.7549 28.4076 15.6312 28.9892 15.6312C29.1317 15.6312 29.275 15.6312 29.3963 15.6312C27.9199 14.1547 26.4475 12.6829 24.9978 11.2323C23.5558 12.6736 22.0826 14.1469 20.5984 15.6312C20.7597 15.6312 20.9397 15.6304 21.1198 15.6312C21.5589 15.6344 21.7186 15.7916 21.7194 16.2329C21.7202 18.9566 21.7194 21.6811 21.7194 24.4049C21.7194 24.4534 21.7217 24.5027 21.7163 24.5512C21.6889 24.8235 21.4877 25.0113 21.2341 25.0019C20.9906 24.9933 20.8074 24.8102 20.7847 24.5481C20.7769 24.4604 20.7816 24.3728 20.7816 24.2844C20.7816 21.8431 20.7816 19.4026 20.7816 16.9614V16.5678C20.355 16.5678 19.9393 16.5623 19.5236 16.5694C19.2724 16.5733 19.0532 16.5318 18.9451 16.2713C18.8356 16.0068 18.9796 15.8292 19.1542 15.6547C20.9515 13.8613 22.7456 12.0656 24.5414 10.2706C24.8999 9.91228 25.0995 9.90993 25.4533 10.2628C27.2491 12.057 29.044 13.8535 30.8406 15.6469C31.0136 15.8198 31.1646 15.9958 31.0598 16.2619C30.9502 16.5389 30.7184 16.5741 30.4578 16.5694C30.0585 16.5616 29.6593 16.567 29.2202 16.567L29.2186 16.5686Z" fill="white"/>
<path d="M16.9929 19.3783C16.048 18.1976 15.1439 17.0677 14.2186 15.9105C13.2918 17.0685 12.3884 18.1984 11.4444 19.3775C11.7504 19.3775 11.9908 19.3759 12.2303 19.3775C12.6358 19.3814 12.8096 19.5442 12.8096 19.9393C12.8119 22.2233 12.8119 24.5073 12.8096 26.792C12.8096 27.1347 12.6217 27.3452 12.3375 27.3421C12.0542 27.3397 11.8749 27.1293 11.8741 26.7834C11.8726 24.7436 11.8733 22.7029 11.8733 20.6631C11.8733 20.5574 11.8733 20.4518 11.8733 20.3149C11.4334 20.3149 11.0162 20.3102 10.5997 20.3165C10.3586 20.3204 10.1528 20.2734 10.0416 20.0309C9.93514 19.7977 10.0439 19.6209 10.1848 19.4456C11.3755 17.9605 12.5638 16.4738 13.7536 14.9887C14.0675 14.5967 14.3666 14.5975 14.6812 14.9911C15.8711 16.4762 17.0586 17.9636 18.2492 19.4479C18.3902 19.624 18.4974 19.8016 18.3894 20.034C18.2774 20.2758 18.07 20.3204 17.8297 20.3165C17.4203 20.3102 17.0116 20.3149 16.56 20.3149C16.56 20.4323 16.56 20.5348 16.56 20.6373C16.56 21.9064 16.5615 23.1755 16.5592 24.4439C16.5592 24.7655 16.4073 24.9611 16.1498 24.9955C15.8484 25.0354 15.6245 24.8077 15.6237 24.4439C15.6214 23.0871 15.623 21.7303 15.623 20.3736C15.623 20.2077 15.6183 20.0418 15.6245 19.8759C15.6378 19.5637 15.8077 19.3892 16.1193 19.3799C16.3878 19.3712 16.657 19.3783 16.9913 19.3783H16.9929Z" fill="white"/>
<path d="M26.4058 26.9747C27.6481 27.1484 28.8223 27.4755 29.8971 28.0694C30.5601 28.4356 31.1832 28.8776 31.8056 29.3135C32.1515 29.556 32.1515 29.8557 31.8431 30.1452C31.1535 30.7915 30.3347 31.1382 29.3859 31.1585C29.0579 31.1655 28.8567 30.9903 28.8489 30.7125C28.8411 30.4324 29.029 30.2376 29.3554 30.2266C29.883 30.2086 30.3644 30.0662 30.809 29.7704C30.0771 29.0083 27.6598 28.0021 26.4676 27.9614C26.5584 28.4684 26.7949 28.8894 27.1213 29.2751C27.2223 29.3941 27.342 29.5693 27.3225 29.7C27.2998 29.8526 27.1636 30.0279 27.0266 30.1163C26.8426 30.2352 26.65 30.1327 26.5044 29.9801C25.8743 29.3182 25.5165 28.531 25.4766 27.6179C25.4508 27.0138 25.4727 26.4074 25.4672 25.8018C25.4649 25.5577 25.5768 25.4004 25.7905 25.294C26.1271 25.125 26.4316 24.9044 26.3948 24.481C26.3573 24.0585 26.0308 23.8512 25.6692 23.7197C25.0962 23.5116 24.5326 23.546 24.0128 23.8801C23.4531 24.2401 23.4351 24.8535 24.0175 25.1673C24.4543 25.4028 24.5717 25.7064 24.5357 26.1594C24.4785 26.8863 24.5005 27.6234 24.3995 28.3432C24.3126 28.9614 23.9603 29.4848 23.5321 29.9418C23.295 30.1945 23.0225 30.2258 22.8112 30.0333C22.5998 29.8408 22.6022 29.567 22.8394 29.3103C23.3701 28.736 23.6128 28.0576 23.5948 27.2807C23.5916 27.1343 23.5822 26.9865 23.5963 26.8417C23.6425 26.3621 23.5494 25.9959 23.1407 25.6328C22.4307 25.0006 22.509 23.9811 23.2096 23.3269C24.1404 22.4592 25.7741 22.4349 26.733 23.2745C27.555 23.9944 27.551 25.1281 26.6907 25.8097C26.459 25.9927 26.3784 26.1711 26.4035 26.4427C26.4191 26.6148 26.4066 26.7893 26.4066 26.9747H26.4058Z" fill="white"/>
<path d="M19.1949 29.7653C19.5847 30.0415 20.0137 30.173 20.474 30.2168C20.5514 30.2238 20.6305 30.2176 20.708 30.2278C20.9898 30.2638 21.1605 30.4547 21.1511 30.716C21.1417 30.975 20.953 31.1581 20.6681 31.1573C19.7514 31.155 18.942 30.8475 18.2633 30.2379C17.7991 29.8209 17.3733 29.3616 16.9287 28.9218C16.7611 28.7568 16.7478 28.5635 16.8159 28.3538C16.9326 27.9946 16.9936 27.6277 16.6664 27.3538C16.3282 27.0698 15.9455 27.166 15.5916 27.3397C15.0249 27.6183 14.6484 28.0596 14.5458 28.6973C14.4558 29.2583 14.855 29.7004 15.3858 29.5314C15.9611 29.3483 16.3032 29.5564 16.6468 29.9586C16.9122 30.27 17.2285 30.5368 17.5087 30.8357C18.149 31.5188 18.4856 32.331 18.5005 33.2699C18.506 33.5986 18.3322 33.8004 18.0543 33.8083C17.7741 33.8161 17.5776 33.6275 17.5682 33.302C17.5525 32.7817 17.414 32.3044 17.1118 31.8412C17.0539 31.9061 17.0007 31.9554 16.9592 32.0133C16.3768 32.8294 15.9298 33.7128 15.6237 34.6674C15.5877 34.7785 15.5588 34.8927 15.5134 34.9999C15.41 35.2464 15.1791 35.3614 14.9482 35.291C14.7118 35.219 14.5748 35.0031 14.6311 34.7402C14.6773 34.5219 14.7517 34.3082 14.8261 34.097C15.2034 33.0211 15.7411 32.0305 16.4872 31.0556C16.2781 30.8725 16.0738 30.6785 15.8507 30.5079C15.7865 30.4586 15.6691 30.4555 15.5807 30.4672C14.2984 30.6393 13.4381 29.7708 13.6284 28.4892C13.8186 27.2051 15.176 26.1261 16.4128 26.2756C17.3052 26.3836 17.9259 27.1042 17.825 28.004C17.785 28.3632 17.8657 28.5948 18.131 28.8068C18.2351 28.8898 18.3064 29.015 18.3612 29.0823C19.0907 28.6636 19.7506 28.2497 20.4434 27.9007C20.9194 27.6613 21.4368 27.5025 21.9433 27.3264C22.29 27.2059 22.5492 27.3241 22.6353 27.605C22.719 27.8757 22.5585 28.1144 22.2055 28.2192C21.2724 28.4962 20.4051 28.9101 19.5956 29.4484C19.4821 29.5243 19.3718 29.6049 19.2614 29.6855C19.2395 29.7012 19.2254 29.727 19.1949 29.7638V29.7653Z" fill="white"/>
</g>
<defs>
<clipPath id="clip0_2627_29">
<rect width="30" height="30" fill="white" transform="translate(10 10)"/>
</clipPath>
</defs>
</svg>
