<svg width="50" height="50" viewBox="0 0 50 50" fill="none" xmlns="http://www.w3.org/2000/svg">
<circle cx="25" cy="25" r="25" fill="#E51982"/>
<g clip-path="url(#clip0_2627_43)">
<path d="M13.9865 24.6148C13.9865 23.7262 13.988 22.8383 13.9851 21.9497C13.9851 21.8338 13.9799 21.7127 13.9469 21.6034C13.8684 21.3407 13.6805 21.1983 13.4054 21.1961C13.1309 21.1947 12.9394 21.3326 12.8572 21.5946C12.8227 21.7039 12.8169 21.825 12.8161 21.9409C12.8139 23.7277 12.8132 25.5144 12.8161 27.3005C12.8161 27.4259 12.8242 27.558 12.8638 27.6747C12.9475 27.9205 13.1339 28.0526 13.3958 28.0555C13.6585 28.0585 13.8456 27.9271 13.9337 27.6835C13.9755 27.5676 13.9836 27.4355 13.9843 27.31C13.988 26.4119 13.9865 25.5137 13.9865 24.6156V24.6148ZM13.3973 19.9509C13.7026 19.9531 13.9792 19.6801 13.9821 19.3727C13.9851 19.063 13.718 18.7952 13.4046 18.793C13.0913 18.7908 12.8213 19.0557 12.8191 19.3653C12.8176 19.6706 13.0913 19.948 13.3973 19.9502V19.9509Z" fill="white"/>
<path d="M40 34.7913C39.8254 35.3358 39.7168 35.9125 39.4651 36.4181C38.3138 38.7332 35.507 39.6541 33.1956 38.5035C32.9542 38.3832 32.7656 38.3472 32.5 38.4844C30.0492 39.7561 26.9533 38.5549 25.9987 35.9668C25.9128 35.7342 25.8064 35.6645 25.5635 35.6653C21.3949 35.6733 17.2256 35.6733 13.0569 35.6697C11.8146 35.6689 10.8849 35.1252 10.3089 34.0157C10.0807 33.5762 10 33.0992 10 32.6017C10.0044 29.0575 10.0022 25.5134 10.0022 21.9692C10.0022 19.6746 10.0015 17.3801 10.0022 15.0863C10.0037 13.2636 11.2709 12 13.0995 12C19.9824 12 26.866 12 33.7489 12C35.5731 12 36.8352 13.265 36.8367 15.0944C36.8381 17.1834 36.8367 19.2733 36.8359 21.3623C36.8359 21.479 36.8359 21.5986 36.8088 21.7109C36.7464 21.978 36.5255 22.1453 36.2584 22.1482C35.9869 22.1512 35.769 21.9941 35.7008 21.7234C35.6699 21.6023 35.6663 21.4724 35.6663 21.3469C35.6641 19.2769 35.6655 17.2069 35.6648 15.1377C35.6648 13.8888 34.9508 13.1719 33.7071 13.1719C26.8535 13.1719 19.9993 13.1719 13.1457 13.1719C11.8836 13.1719 11.1748 13.8851 11.1748 15.1553C11.1748 20.9448 11.1748 26.7344 11.1748 32.5239C11.1748 33.7882 11.8866 34.4978 13.1538 34.4978C17.2058 34.4978 21.2577 34.4978 25.3089 34.4978H25.6494C25.6854 34.1404 25.6993 33.7926 25.7595 33.4522C26.0031 32.069 26.7295 30.9991 27.9227 30.2646C28.1817 30.1046 28.291 29.9351 28.3328 29.635C28.5941 27.7785 29.5905 26.4482 31.3436 25.7871C33.0826 25.1318 34.7094 25.4392 36.1249 26.6603C37.1353 27.532 37.6497 28.6598 37.726 29.9924C37.7326 30.1098 37.7987 30.2661 37.8889 30.3292C39.0769 31.1569 39.7703 32.281 39.9604 33.7171C39.964 33.7435 39.9861 33.7677 40 33.7926V34.7884V34.7913ZM28.4224 31.3433C26.8873 32.2708 26.3964 34.423 27.3202 36.0468C28.214 37.6171 30.3185 38.3061 31.8058 37.5026C31.7706 37.4549 31.7405 37.4065 31.7031 37.364C31.0713 36.6353 30.6729 35.7885 30.5995 34.8331C30.565 34.3863 30.4021 34.1294 30.0572 33.8711C29.2193 33.2423 28.699 32.3808 28.4224 31.344V31.3433ZM33.8949 37.5261C35.4293 38.2636 37.3863 37.6413 38.3196 36.1011C39.2112 34.6299 38.8612 32.5621 37.547 31.5803C37.522 31.6346 37.4949 31.6852 37.4758 31.7388C37.0737 32.8556 36.3729 33.7259 35.3302 34.3011C35.1247 34.4142 35.1321 34.5793 35.0859 34.7561C34.9472 35.2896 34.8349 35.837 34.6228 36.3418C34.4453 36.7652 34.1415 37.135 33.8957 37.5269L33.8949 37.5261ZM29.5201 29.624C29.5935 29.6145 29.6397 29.6093 29.6852 29.6027C30.7 29.4574 31.6694 29.5983 32.5741 30.0878C32.7686 30.1927 32.9153 30.1898 33.1068 30.0892C34.1107 29.5602 35.1724 29.4296 36.2812 29.6607C36.3524 29.6754 36.4257 29.6783 36.5035 29.6879C36.3524 28.0941 34.8657 26.7292 33.2257 26.6529C31.3802 26.5671 29.8701 27.7639 29.5201 29.6247V29.624ZM33.8707 31.0131C34.1026 31.355 34.3513 31.6683 34.5399 32.0139C34.7278 32.3596 34.8562 32.7375 35.0191 33.1234C35.7962 32.5973 36.2592 31.865 36.4822 30.9419C35.5973 30.6286 34.7336 30.6513 33.8707 31.0131ZM31.7567 30.994C31.0574 30.6902 30.3089 30.6447 29.5267 30.8333C29.6859 31.6691 30.0778 32.3515 30.6802 32.871C31.0346 32.2532 31.3883 31.636 31.7567 30.9933V30.994ZM32.8287 31.6955C32.3033 32.215 31.9548 32.813 31.8066 33.538C32.4971 33.7765 33.1751 33.8176 33.881 33.6327C33.7342 32.8556 33.3864 32.2253 32.8287 31.6955ZM32.8339 36.8496C33.4062 36.3036 33.7636 35.6572 33.8883 34.8559H31.7824C31.8895 35.611 32.252 36.2743 32.8339 36.8496Z" fill="white"/>
<path d="M29.9817 23.424C29.9824 27.0321 27.0399 29.9797 23.429 29.9877C19.8136 29.9958 16.8469 27.0277 16.8572 23.413C16.8675 19.8028 19.8202 16.8582 23.4253 16.8633C27.0348 16.8684 29.9809 19.816 29.9817 23.424ZM23.4143 18.0351C20.4527 18.0388 18.0305 20.4632 18.0298 23.424C18.0291 26.3863 20.4483 28.81 23.4121 28.8159C26.3861 28.8218 28.8186 26.3863 28.8105 23.4123C28.8025 20.4493 26.3758 18.0307 23.4143 18.0351Z" fill="white"/>
<path d="M13.9866 24.6148C13.9866 25.5129 13.9888 26.4111 13.9843 27.3092C13.9843 27.434 13.9755 27.5668 13.9337 27.6827C13.8464 27.9263 13.6593 28.0577 13.3959 28.0547C13.1339 28.0518 12.9475 27.9197 12.8639 27.6739C12.8242 27.5572 12.8162 27.4251 12.8162 27.2997C12.8132 25.5129 12.8132 23.7261 12.8162 21.9401C12.8162 21.8242 12.8228 21.7031 12.8573 21.5938C12.9394 21.3318 13.131 21.1939 13.4054 21.1953C13.6806 21.1968 13.8684 21.3399 13.9469 21.6026C13.9799 21.7119 13.9843 21.833 13.9851 21.9489C13.988 22.8375 13.9866 23.7254 13.9866 24.614V24.6148Z" fill="white"/>
<path d="M36.8322 23.9986C36.8322 24.3061 36.5578 24.5798 36.2511 24.5798C35.9451 24.5798 35.6699 24.3039 35.6699 23.9979C35.6699 23.6875 35.9385 23.4219 36.2518 23.4219C36.5659 23.4219 36.833 23.6875 36.833 23.9986H36.8322Z" fill="white"/>
<path d="M13.3973 19.9502C13.0913 19.948 12.8176 19.6706 12.8191 19.3653C12.8206 19.0549 13.0913 18.7908 13.4047 18.793C13.718 18.7952 13.9851 19.063 13.9821 19.3727C13.9792 19.6794 13.7033 19.9531 13.3973 19.9509V19.9502Z" fill="white"/>
<path d="M21.0735 23.3534C21.0735 22.7194 21.0757 22.0846 21.0728 21.4507C21.0699 20.9106 21.2672 20.4733 21.7486 20.2084C22.2292 19.9435 22.704 20.0124 23.1575 20.3038C24.1583 20.9465 25.1651 21.5798 26.1601 22.2314C27.0722 22.8287 27.07 23.9154 26.1557 24.5142C25.1607 25.1651 24.1554 25.8013 23.1523 26.4411C22.7011 26.7295 22.2248 26.8036 21.7427 26.5314C21.2643 26.2613 21.0691 25.8247 21.0721 25.2854C21.0765 24.6411 21.0728 23.9976 21.0728 23.3534H21.0735ZM22.3195 21.1777C22.2901 21.3017 22.2483 21.3978 22.2483 21.4947C22.2439 22.7421 22.2439 23.9895 22.2483 25.237C22.2483 25.3265 22.2909 25.416 22.3136 25.5055C22.4002 25.4769 22.4978 25.4637 22.5726 25.4168C23.5346 24.8055 24.4937 24.1906 25.452 23.5742C25.7279 23.3966 25.7294 23.3468 25.4615 23.1743C24.5032 22.5572 23.5442 21.943 22.5844 21.3281C22.5191 21.2863 22.4501 21.2511 22.3195 21.177V21.1777Z" fill="white"/>
</g>
<defs>
<clipPath id="clip0_2627_43">
<rect width="30" height="26.9981" fill="white" transform="translate(10 12)"/>
</clipPath>
</defs>
</svg>
