<svg width="131" height="71" viewBox="0 0 131 71" fill="none" xmlns="http://www.w3.org/2000/svg">
<path d="M88.0002 21.2C84.4002 19.7 79.3002 18.6 73.9002 18.1H73.3002C70.2002 18.1 67.7002 20.4 67.4002 23.5V23.6C67.3002 25.1 67.7002 26.6 68.7002 27.7C69.6002 28.9 71.0002 29.6 72.5002 29.7C77.1002 30 81.6002 30.9 86.0002 32.3L87.4002 32.6L86.5002 32.9C83.5002 33.9 80.3002 34.6 77.2002 35H76.9002L76.8002 34.8C76.3002 33.4 75.4002 32.3 74.2002 31.5C73.0002 30.7 71.6002 30.3 70.2002 30.3C69.4002 30.3 68.6002 30.4 67.8002 30.7C67.2002 30.9 66.6002 31.2 66.1002 31.6L65.9002 31.7L65.7002 31.6C62.6002 29.4 58.2002 30.1 55.9002 33.2C55.5002 33.7 55.2002 34.3 55.0002 34.9L54.9002 35H54.6002C51.4002 34.6 48.3002 33.9 45.3002 32.9L44.4002 32.6L45.3002 32.3C49.7002 30.9 54.3002 30 58.9002 29.7C61.8002 29.5 64.1002 27 64.1002 24.1C64.0002 20.9 61.4002 18.2 58.1002 18.2H57.5002C52.0002 18.7 47.0002 19.8 43.3002 21.3C39.0002 23 36.7002 25.2 36.7002 27.7V37.4C36.7002 42.3 45.8002 45.4 54.3002 46.6H54.5002V46.8C55.0002 50.3 57.9002 52.8 61.4002 52.8C61.7002 52.8 62.1002 52.8 62.4002 52.7C63.5002 52.6 64.6002 52.2 65.5002 51.5L65.7002 51.4L65.9002 51.5C67.1002 52.3 68.5002 52.8 70.0002 52.8H70.2002C73.5002 52.7 76.4002 50.2 76.9002 46.8V46.6H77.1002C87.6002 45.2 94.1002 41.9 94.6002 37.9V37.8C94.6002 37.8 94.6002 37.6 94.6002 37.3V27.6C94.6002 25.2 92.3002 23 88.0002 21.2ZM38.3002 27.7C38.3002 24.3 46.3002 21.1 57.4002 20H57.8002C59.9002 20 61.6002 21.5 61.8002 23.6V24C61.8002 25.9 60.3002 27.6 58.4002 27.7C52.7002 28 47.2002 29.3 41.9002 31.4L41.8002 31.5L41.2002 31.1C41.1002 31 40.9002 30.9 40.8002 30.8H40.7002C40.7002 30.7 40.6002 30.7 40.5002 30.6L40.3002 30.5C40.2002 30.5 40.2002 30.4 40.1002 30.4C40.0002 30.3 39.9002 30.3 39.8002 30.2C39.7002 30.1 39.6002 30 39.5002 29.9C39.4002 29.8 39.4002 29.8 39.3002 29.7C39.2002 29.6 39.1002 29.5 39.0002 29.4L38.9002 29.3L38.8002 29.2C38.8002 29.1 38.7002 29.1 38.7002 29V28.8C38.6002 28.8 38.6002 28.8 38.6002 28.7C38.6002 28.6 38.5002 28.5 38.5002 28.4C38.4002 28.3 38.4002 28.3 38.4002 28.2C38.3002 28.1 38.3002 28 38.3002 27.7ZM55.5002 41.6C55.3002 41.9 55.2002 42.2 55.0002 42.5L54.9002 42.7C54.6002 43.3 54.4002 43.8 54.3002 44.4L54.2002 44.7H53.9002C44.6002 43.3 38.2002 40.3 38.2002 37.4V31.5L38.8002 31.9L38.9002 32C39.1002 32.2 39.4002 32.3 39.6002 32.5L40.0002 32.7C40.5002 33 40.9002 33.2 41.3002 33.4C45.3002 35.2 49.5002 36.4 53.9002 36.9H54.2002V37.2C54.2002 38.7 54.6002 40.2 55.5002 41.2L55.6002 41.4L55.5002 41.6ZM75.0002 37.1C75.0002 37.1 75.0002 37.2 75.0002 37.3C75.0002 37.6 75.0002 38 74.9002 38.3C74.7002 39.3 74.2002 40.2 73.5002 40.9C73.5002 41 73.4002 41 73.4002 41.1C73.4002 41.2 73.3002 41.4 73.3002 41.5V41.8C73.3002 41.9 73.3002 41.9 73.3002 41.9V42C73.3002 42.1 73.4002 42.1 73.5002 42.2C75.4002 44.2 75.5002 47.4 73.5002 49.4C71.6002 51.5 68.3002 51.5 66.3002 49.5C66.1002 49.3 65.9002 49.2 65.6002 49.2C65.4002 49.2 65.2002 49.3 65.0002 49.5C63.0002 51.4 59.8002 51.4 57.8002 49.5C55.9002 47.6 55.8002 44.5 57.6002 42.5L57.7002 42.4C57.7002 42.3 57.8002 42.3 57.8002 42.2C58.0002 42 58.0002 41.8 58.0002 41.6C58.0002 41.4 57.9002 41.1 57.8002 40.9C56.7002 39.8 56.1002 38.1 56.4002 36.5V36.3C57.0002 33.6 59.6002 31.8 62.4002 32.3C63.4002 32.5 64.3002 33 65.0002 33.7C65.4002 34.1 66.0002 34.1 66.4002 33.7C67.2002 33 68.1002 32.5 69.1002 32.3C70.4002 32 71.8002 32.3 72.9002 33.1C74.0002 33.9 74.7002 35.1 75.0002 36.4V37.1ZM72.7002 27.6C70.8002 27.4 69.3002 25.8 69.3002 23.9C69.3002 21.7 71.1002 19.9 73.3002 19.9H73.5002C73.6002 19.9 73.6002 19.9 73.7002 19.9C84.7002 21 92.7002 24.2 92.7002 27.6V27.7C92.7002 27.9 92.6002 28 92.6002 28.2C92.5002 28.4 92.5002 28.6 92.4002 28.7C92.4002 28.8 92.3002 28.8 92.3002 28.9C92.3002 29 92.2002 29.1 92.1002 29.2L92.0002 29.3V29.4C91.9002 29.5 91.9002 29.5 91.8002 29.6L91.7002 29.7C91.6002 29.8 91.6002 29.8 91.5002 29.9C91.4002 30 91.3002 30.1 91.2002 30.2C91.1002 30.3 91.1002 30.3 91.0002 30.4C90.9002 30.5 90.9002 30.5 90.8002 30.6C90.7002 30.6 90.6002 30.7 90.6002 30.7L90.3002 30.9C90.1002 31 90.0002 31 89.8002 31L89.2002 31.4L89.1002 31.3C83.9002 29.1 78.4002 27.9 72.7002 27.6ZM92.9002 32.8C92.9002 35.2 92.8002 37.1 92.8002 37.4C92.8002 37.6 92.8002 37.9 92.8002 37.9C92.3002 40.7 85.9002 43.5 77.2002 44.8H76.9002L76.8002 44.5C76.7002 43.9 76.5002 43.3 76.2002 42.8L76.1002 42.6C76.0002 42.3 75.8002 42 75.6002 41.7L75.5002 41.5L75.6002 41.3C76.4002 40.1 76.9002 38.7 76.9002 37.2V36.9H77.2002C81.5002 36.4 85.7002 35.2 89.7002 33.4L89.9002 33.3C90.1002 33.2 90.4002 33 90.6002 32.9L90.9002 32.7C91.1002 32.5 91.4002 32.4 91.6002 32.2C91.7002 32.1 91.8002 32.1 91.9002 32L92.9002 31.6V32.8Z" fill="#404041"/>
</svg>
