<svg xmlns="http://www.w3.org/2000/svg" width="13.334" height="16" viewBox="0 0 13.334 16">
  <g id="Group_868" data-name="Group 868" transform="translate(-3748.245 -4941.71)">
    <path id="Path_566" data-name="Path 566" d="M3752.05,4946.181l2.2-2.2v9.724a.667.667,0,0,0,1.334,0v-9.724l2.195,2.2a.667.667,0,0,0,.943-.943l-3.333-3.332a.668.668,0,0,0-.944,0l-3.333,3.332a.667.667,0,0,0,.943.943Z" fill="#fff"/>
    <path id="Path_567" data-name="Path 567" d="M3760.912,4952.377a.666.666,0,0,0-.667.666v2.667a.668.668,0,0,1-.666.667h-9.334a.668.668,0,0,1-.666-.667v-2.667a.667.667,0,0,0-1.334,0v2.667a2,2,0,0,0,2,2h9.334a2,2,0,0,0,2-2v-2.667A.667.667,0,0,0,3760.912,4952.377Z" fill="#fff"/>
  </g>
</svg>
