<svg width="131" height="71" viewBox="0 0 131 71" fill="none" xmlns="http://www.w3.org/2000/svg">
<path d="M51.7999 14.2C51.0999 13.8 51.2999 13.1 51.1999 12.5C50.6999 13.3 50.8999 14.2 51.4999 14.6C52.0999 15 53.2999 15.1 53.6999 14.3C52.9999 14.6 52.3999 14.5 51.7999 14.2ZM58.7999 11.1C58.0999 10.7 58.2999 10 58.1999 9.4C57.6999 10.1 57.8999 11.1 58.4999 11.5C59.0999 11.9 60.2999 12 60.6999 11.2C59.9999 11.5 59.3999 11.4 58.7999 11.1ZM51.7999 14.2C51.0999 13.8 51.2999 13.1 51.1999 12.5C50.6999 13.3 50.8999 14.2 51.4999 14.6C52.0999 15 53.2999 15.1 53.6999 14.3C52.9999 14.6 52.3999 14.5 51.7999 14.2ZM58.7999 11.1C58.0999 10.7 58.2999 10 58.1999 9.4C57.6999 10.1 57.8999 11.1 58.4999 11.5C59.0999 11.9 60.2999 12 60.6999 11.2C59.9999 11.5 59.3999 11.4 58.7999 11.1ZM51.7999 14.2C51.0999 13.8 51.2999 13.1 51.1999 12.5C50.6999 13.3 50.8999 14.2 51.4999 14.6C52.0999 15 53.2999 15.1 53.6999 14.3C52.9999 14.6 52.3999 14.5 51.7999 14.2ZM58.7999 11.1C58.0999 10.7 58.2999 10 58.1999 9.4C57.6999 10.1 57.8999 11.1 58.4999 11.5C59.0999 11.9 60.2999 12 60.6999 11.2C59.9999 11.5 59.3999 11.4 58.7999 11.1ZM66.3999 10.2C65.6999 9.8 65.8999 9.1 65.7999 8.5C65.2999 9.3 65.3999 10.2 66.0999 10.6C66.6999 11 67.8999 11.1 68.2999 10.3C67.5999 10.6 66.9999 10.5 66.3999 10.2ZM73.9999 12.3C73.2999 11.9 73.4999 11.2 73.3999 10.6C72.8999 11.3 72.9999 12.3 73.6999 12.7C74.2999 13.1 75.4999 13.2 75.8999 12.4C75.1999 12.7 74.5999 12.6 73.9999 12.3ZM51.7999 14.2C51.0999 13.8 51.2999 13.1 51.1999 12.5C50.6999 13.3 50.8999 14.2 51.4999 14.6C52.0999 15 53.2999 15.1 53.6999 14.3C52.9999 14.6 52.3999 14.5 51.7999 14.2ZM58.7999 11.1C58.0999 10.7 58.2999 10 58.1999 9.4C57.6999 10.1 57.8999 11.1 58.4999 11.5C59.0999 11.9 60.2999 12 60.6999 11.2C59.9999 11.5 59.3999 11.4 58.7999 11.1ZM66.3999 10.2C65.6999 9.8 65.8999 9.1 65.7999 8.5C65.2999 9.3 65.3999 10.2 66.0999 10.6C66.6999 11 67.8999 11.1 68.2999 10.3C67.5999 10.6 66.9999 10.5 66.3999 10.2ZM73.9999 12.3C73.2999 11.9 73.4999 11.2 73.3999 10.6C72.8999 11.3 72.9999 12.3 73.6999 12.7C74.2999 13.1 75.4999 13.2 75.8999 12.4C75.1999 12.7 74.5999 12.6 73.9999 12.3ZM51.7999 14.2C51.0999 13.8 51.2999 13.1 51.1999 12.5C50.6999 13.3 50.8999 14.2 51.4999 14.6C52.0999 15 53.2999 15.1 53.6999 14.3C52.9999 14.6 52.3999 14.5 51.7999 14.2ZM58.7999 11.1C58.0999 10.7 58.2999 10 58.1999 9.4C57.6999 10.1 57.8999 11.1 58.4999 11.5C59.0999 11.9 60.2999 12 60.6999 11.2C59.9999 11.5 59.3999 11.4 58.7999 11.1ZM66.3999 10.2C65.6999 9.8 65.8999 9.1 65.7999 8.5C65.2999 9.3 65.3999 10.2 66.0999 10.6C66.6999 11 67.8999 11.1 68.2999 10.3C67.5999 10.6 66.9999 10.5 66.3999 10.2ZM73.9999 12.3C73.2999 11.9 73.4999 11.2 73.3999 10.6C72.8999 11.3 72.9999 12.3 73.6999 12.7C74.2999 13.1 75.4999 13.2 75.8999 12.4C75.1999 12.7 74.5999 12.6 73.9999 12.3ZM80.6999 16.6C79.9999 16.2 80.1999 15.5 80.0999 14.9C79.4999 15.7 79.6999 16.6 80.3999 17C80.9999 17.4 82.1999 17.5 82.5999 16.7C81.8999 17 81.2999 16.9 80.6999 16.6ZM85.8999 22.2C85.1999 21.8 85.3999 21.2 85.2999 20.5C84.7999 21.2 84.8999 22.1 85.5999 22.6C86.1999 23 87.3999 23.1 87.7999 22.3C87.0999 22.6 86.4999 22.5 85.8999 22.2ZM51.7999 14.2C51.0999 13.8 51.2999 13.1 51.1999 12.5C50.6999 13.3 50.8999 14.2 51.4999 14.6C52.0999 15 53.2999 15.1 53.6999 14.3C52.9999 14.6 52.3999 14.5 51.7999 14.2ZM58.7999 11.1C58.0999 10.7 58.2999 10 58.1999 9.4C57.6999 10.1 57.8999 11.1 58.4999 11.5C59.0999 11.9 60.2999 12 60.6999 11.2C59.9999 11.5 59.3999 11.4 58.7999 11.1ZM66.3999 10.2C65.6999 9.8 65.8999 9.1 65.7999 8.5C65.2999 9.3 65.3999 10.2 66.0999 10.6C66.6999 11 67.8999 11.1 68.2999 10.3C67.5999 10.6 66.9999 10.5 66.3999 10.2ZM73.9999 12.3C73.2999 11.9 73.4999 11.2 73.3999 10.6C72.8999 11.3 72.9999 12.3 73.6999 12.7C74.2999 13.1 75.4999 13.2 75.8999 12.4C75.1999 12.7 74.5999 12.6 73.9999 12.3ZM80.6999 16.6C79.9999 16.2 80.1999 15.5 80.0999 14.9C79.4999 15.7 79.6999 16.6 80.3999 17C80.9999 17.4 82.1999 17.5 82.5999 16.7C81.8999 17 81.2999 16.9 80.6999 16.6ZM85.8999 22.2C85.1999 21.8 85.3999 21.2 85.2999 20.5C84.7999 21.2 84.8999 22.1 85.5999 22.6C86.1999 23 87.3999 23.1 87.7999 22.3C87.0999 22.6 86.4999 22.5 85.8999 22.2ZM41.4999 25.3C40.7999 24.9 40.9999 24.2 40.8999 23.6C40.3999 24.4 40.5999 25.3 41.1999 25.7C41.7999 26.1 42.9999 26.2 43.3999 25.4C42.6999 25.7 42.0999 25.6 41.4999 25.3ZM46.2999 19.3C45.5999 18.9 45.7999 18.2 45.6999 17.6C45.1999 18.3 45.2999 19.2 45.9999 19.7C46.5999 20.1 47.7999 20.2 48.1999 19.4C47.4999 19.7 46.8999 19.6 46.2999 19.3ZM51.7999 14.2C51.0999 13.8 51.2999 13.1 51.1999 12.5C50.6999 13.3 50.8999 14.2 51.4999 14.6C52.0999 15 53.2999 15.1 53.6999 14.3C52.9999 14.6 52.3999 14.5 51.7999 14.2ZM58.7999 11.1C58.0999 10.7 58.2999 10 58.1999 9.4C57.6999 10.1 57.8999 11.1 58.4999 11.5C59.0999 11.9 60.2999 12 60.6999 11.2C59.9999 11.5 59.3999 11.4 58.7999 11.1ZM66.3999 10.2C65.6999 9.8 65.8999 9.1 65.7999 8.5C65.2999 9.3 65.3999 10.2 66.0999 10.6C66.6999 11 67.8999 11.1 68.2999 10.3C67.5999 10.6 66.9999 10.5 66.3999 10.2ZM73.9999 12.3C73.2999 11.9 73.4999 11.2 73.3999 10.6C72.8999 11.3 72.9999 12.3 73.6999 12.7C74.2999 13.1 75.4999 13.2 75.8999 12.4C75.1999 12.7 74.5999 12.6 73.9999 12.3ZM80.6999 16.6C79.9999 16.2 80.1999 15.5 80.0999 14.9C79.4999 15.7 79.6999 16.6 80.3999 17C80.9999 17.4 82.1999 17.5 82.5999 16.7C81.8999 17 81.2999 16.9 80.6999 16.6ZM85.8999 22.2C85.1999 21.8 85.3999 21.2 85.2999 20.5C84.7999 21.2 84.8999 22.1 85.5999 22.6C86.1999 23 87.3999 23.1 87.7999 22.3C87.0999 22.6 86.4999 22.5 85.8999 22.2ZM41.4999 25.3C40.7999 24.9 40.9999 24.2 40.8999 23.6C40.3999 24.4 40.5999 25.3 41.1999 25.7C41.7999 26.1 42.9999 26.2 43.3999 25.4C42.6999 25.7 42.0999 25.6 41.4999 25.3ZM46.2999 19.3C45.5999 18.9 45.7999 18.2 45.6999 17.6C45.1999 18.3 45.2999 19.2 45.9999 19.7C46.5999 20.1 47.7999 20.2 48.1999 19.4C47.4999 19.7 46.8999 19.6 46.2999 19.3ZM51.7999 14.2C51.0999 13.8 51.2999 13.1 51.1999 12.5C50.6999 13.3 50.8999 14.2 51.4999 14.6C52.0999 15 53.2999 15.1 53.6999 14.3C52.9999 14.6 52.3999 14.5 51.7999 14.2ZM58.7999 11.1C58.0999 10.7 58.2999 10 58.1999 9.4C57.6999 10.1 57.8999 11.1 58.4999 11.5C59.0999 11.9 60.2999 12 60.6999 11.2C59.9999 11.5 59.3999 11.4 58.7999 11.1ZM66.3999 10.2C65.6999 9.8 65.8999 9.1 65.7999 8.5C65.2999 9.3 65.3999 10.2 66.0999 10.6C66.6999 11 67.8999 11.1 68.2999 10.3C67.5999 10.6 66.9999 10.5 66.3999 10.2ZM73.9999 12.3C73.2999 11.9 73.4999 11.2 73.3999 10.6C72.8999 11.3 72.9999 12.3 73.6999 12.7C74.2999 13.1 75.4999 13.2 75.8999 12.4C75.1999 12.7 74.5999 12.6 73.9999 12.3ZM80.6999 16.6C79.9999 16.2 80.1999 15.5 80.0999 14.9C79.4999 15.7 79.6999 16.6 80.3999 17C80.9999 17.4 82.1999 17.5 82.5999 16.7C81.8999 17 81.2999 16.9 80.6999 16.6ZM85.8999 22.2C85.1999 21.8 85.3999 21.2 85.2999 20.5C84.7999 21.2 84.8999 22.1 85.5999 22.6C86.1999 23 87.3999 23.1 87.7999 22.3C87.0999 22.6 86.4999 22.5 85.8999 22.2ZM39.5999 32.8C38.8999 32.4 39.0999 31.7 38.9999 31.1C38.4999 31.8 38.5999 32.8 39.2999 33.2C39.8999 33.6 40.9999 33.7 41.4999 32.9C40.7999 33.2 40.1999 33.1 39.5999 32.8ZM39.7999 40.4C39.0999 40 39.2999 39.3 39.1999 38.7C38.6999 39.4 38.7999 40.3 39.4999 40.8C40.0999 41.2 41.1999 41.2 41.6999 40.5C40.9999 40.8 40.3999 40.7 39.7999 40.4ZM41.4999 25.3C40.7999 24.9 40.9999 24.2 40.8999 23.6C40.3999 24.4 40.5999 25.3 41.1999 25.7C41.7999 26.1 42.9999 26.2 43.3999 25.4C42.6999 25.7 42.0999 25.6 41.4999 25.3ZM46.2999 19.3C45.5999 18.9 45.7999 18.2 45.6999 17.6C45.1999 18.3 45.2999 19.2 45.9999 19.7C46.5999 20.1 47.7999 20.2 48.1999 19.4C47.4999 19.7 46.8999 19.6 46.2999 19.3ZM51.7999 14.2C51.0999 13.8 51.2999 13.1 51.1999 12.5C50.6999 13.3 50.8999 14.2 51.4999 14.6C52.0999 15 53.2999 15.1 53.6999 14.3C52.9999 14.6 52.3999 14.5 51.7999 14.2ZM58.7999 11.1C58.0999 10.7 58.2999 10 58.1999 9.4C57.6999 10.1 57.8999 11.1 58.4999 11.5C59.0999 11.9 60.2999 12 60.6999 11.2C59.9999 11.5 59.3999 11.4 58.7999 11.1ZM66.3999 10.2C65.6999 9.8 65.8999 9.1 65.7999 8.5C65.2999 9.3 65.3999 10.2 66.0999 10.6C66.6999 11 67.8999 11.1 68.2999 10.3C67.5999 10.6 66.9999 10.5 66.3999 10.2ZM73.9999 12.3C73.2999 11.9 73.4999 11.2 73.3999 10.6C72.8999 11.3 72.9999 12.3 73.6999 12.7C74.2999 13.1 75.4999 13.2 75.8999 12.4C75.1999 12.7 74.5999 12.6 73.9999 12.3ZM80.6999 16.6C79.9999 16.2 80.1999 15.5 80.0999 14.9C79.4999 15.7 79.6999 16.6 80.3999 17C80.9999 17.4 82.1999 17.5 82.5999 16.7C81.8999 17 81.2999 16.9 80.6999 16.6ZM85.8999 22.2C85.1999 21.8 85.3999 21.2 85.2999 20.5C84.7999 21.2 84.8999 22.1 85.5999 22.6C86.1999 23 87.3999 23.1 87.7999 22.3C87.0999 22.6 86.4999 22.5 85.8999 22.2ZM39.7999 40.4C39.0999 40 39.2999 39.3 39.1999 38.7C38.6999 39.4 38.7999 40.3 39.4999 40.8C40.0999 41.2 41.1999 41.2 41.6999 40.5C40.9999 40.8 40.3999 40.7 39.7999 40.4ZM39.5999 32.8C38.8999 32.4 39.0999 31.7 38.9999 31.1C38.4999 31.8 38.5999 32.8 39.2999 33.2C39.8999 33.6 40.9999 33.7 41.4999 32.9C40.7999 33.2 40.1999 33.1 39.5999 32.8ZM41.4999 25.3C40.7999 24.9 40.9999 24.2 40.8999 23.6C40.3999 24.4 40.5999 25.3 41.1999 25.7C41.7999 26.1 42.9999 26.2 43.3999 25.4C42.6999 25.7 42.0999 25.6 41.4999 25.3ZM46.2999 19.3C45.5999 18.9 45.7999 18.2 45.6999 17.6C45.1999 18.3 45.2999 19.2 45.9999 19.7C46.5999 20.1 47.7999 20.2 48.1999 19.4C47.4999 19.7 46.8999 19.6 46.2999 19.3ZM51.7999 14.2C51.0999 13.8 51.2999 13.1 51.1999 12.5C50.6999 13.3 50.8999 14.2 51.4999 14.6C52.0999 15 53.2999 15.1 53.6999 14.3C52.9999 14.6 52.3999 14.5 51.7999 14.2ZM58.7999 11.1C58.0999 10.7 58.2999 10 58.1999 9.4C57.6999 10.1 57.8999 11.1 58.4999 11.5C59.0999 11.9 60.2999 12 60.6999 11.2C59.9999 11.5 59.3999 11.4 58.7999 11.1ZM66.3999 10.2C65.6999 9.8 65.8999 9.1 65.7999 8.5C65.2999 9.3 65.3999 10.2 66.0999 10.6C66.6999 11 67.8999 11.1 68.2999 10.3C67.5999 10.6 66.9999 10.5 66.3999 10.2ZM73.9999 12.3C73.2999 11.9 73.4999 11.2 73.3999 10.6C72.8999 11.3 72.9999 12.3 73.6999 12.7C74.2999 13.1 75.4999 13.2 75.8999 12.4C75.1999 12.7 74.5999 12.6 73.9999 12.3ZM80.6999 16.6C79.9999 16.2 80.1999 15.5 80.0999 14.9C79.4999 15.7 79.6999 16.6 80.3999 17C80.9999 17.4 82.1999 17.5 82.5999 16.7C81.8999 17 81.2999 16.9 80.6999 16.6ZM85.8999 22.2C85.1999 21.8 85.3999 21.2 85.2999 20.5C84.7999 21.2 84.8999 22.1 85.5999 22.6C86.1999 23 87.3999 23.1 87.7999 22.3C87.0999 22.6 86.4999 22.5 85.8999 22.2ZM39.5999 32.8C38.8999 32.4 39.0999 31.7 38.9999 31.1C38.4999 31.8 38.5999 32.8 39.2999 33.2C39.8999 33.6 40.9999 33.7 41.4999 32.9C40.7999 33.2 40.1999 33.1 39.5999 32.8ZM39.7999 40.4C39.0999 40 39.2999 39.3 39.1999 38.7C38.6999 39.4 38.7999 40.3 39.4999 40.8C40.0999 41.2 41.1999 41.2 41.6999 40.5C40.9999 40.8 40.3999 40.7 39.7999 40.4ZM41.4999 25.3C40.7999 24.9 40.9999 24.2 40.8999 23.6C40.3999 24.4 40.5999 25.3 41.1999 25.7C41.7999 26.1 42.9999 26.2 43.3999 25.4C42.6999 25.7 42.0999 25.6 41.4999 25.3ZM41.6999 47.8C40.9999 47.4 41.1999 46.7 41.0999 46.1C40.5999 46.8 40.6999 47.7 41.3999 48.2C41.9999 48.6 43.0999 48.6 43.5999 47.9C42.8999 48.2 42.2999 48.1 41.6999 47.8ZM45.6999 53.7C44.9999 53.3 45.1999 52.6 45.0999 52C44.5999 52.7 44.6999 53.6 45.3999 54.1C45.9999 54.5 47.0999 54.6 47.5999 53.8C46.8999 54.1 46.2999 54 45.6999 53.7ZM46.2999 19.3C45.5999 18.9 45.7999 18.2 45.6999 17.6C45.1999 18.3 45.2999 19.2 45.9999 19.7C46.5999 20.1 47.7999 20.2 48.1999 19.4C47.4999 19.7 46.8999 19.6 46.2999 19.3ZM51.7999 14.2C51.0999 13.8 51.2999 13.1 51.1999 12.5C50.6999 13.3 50.8999 14.2 51.4999 14.6C52.0999 15 53.2999 15.1 53.6999 14.3C52.9999 14.6 52.3999 14.5 51.7999 14.2ZM58.7999 11.1C58.0999 10.7 58.2999 10 58.1999 9.4C57.6999 10.1 57.8999 11.1 58.4999 11.5C59.0999 11.9 60.2999 12 60.6999 11.2C59.9999 11.5 59.3999 11.4 58.7999 11.1ZM66.3999 10.2C65.6999 9.8 65.8999 9.1 65.7999 8.5C65.2999 9.3 65.3999 10.2 66.0999 10.6C66.6999 11 67.8999 11.1 68.2999 10.3C67.5999 10.6 66.9999 10.5 66.3999 10.2ZM73.9999 12.3C73.2999 11.9 73.4999 11.2 73.3999 10.6C72.8999 11.3 72.9999 12.3 73.6999 12.7C74.2999 13.1 75.4999 13.2 75.8999 12.4C75.1999 12.7 74.5999 12.6 73.9999 12.3ZM80.6999 16.6C79.9999 16.2 80.1999 15.5 80.0999 14.9C79.4999 15.7 79.6999 16.6 80.3999 17C80.9999 17.4 82.1999 17.5 82.5999 16.7C81.8999 17 81.2999 16.9 80.6999 16.6ZM85.8999 22.2C85.1999 21.8 85.3999 21.2 85.2999 20.5C84.7999 21.2 84.8999 22.1 85.5999 22.6C86.1999 23 87.3999 23.1 87.7999 22.3C87.0999 22.6 86.4999 22.5 85.8999 22.2ZM45.6999 53.7C44.9999 53.3 45.1999 52.6 45.0999 52C44.5999 52.7 44.6999 53.6 45.3999 54.1C45.9999 54.5 47.0999 54.6 47.5999 53.8C46.8999 54.1 46.2999 54 45.6999 53.7ZM41.6999 47.8C40.9999 47.4 41.1999 46.7 41.0999 46.1C40.5999 46.8 40.6999 47.7 41.3999 48.2C41.9999 48.6 43.0999 48.6 43.5999 47.9C42.8999 48.2 42.2999 48.1 41.6999 47.8ZM39.7999 40.4C39.0999 40 39.2999 39.3 39.1999 38.7C38.6999 39.4 38.7999 40.3 39.4999 40.8C40.0999 41.2 41.1999 41.2 41.6999 40.5C40.9999 40.8 40.3999 40.7 39.7999 40.4ZM39.5999 32.8C38.8999 32.4 39.0999 31.7 38.9999 31.1C38.4999 31.8 38.5999 32.8 39.2999 33.2C39.8999 33.6 40.9999 33.7 41.4999 32.9C40.7999 33.2 40.1999 33.1 39.5999 32.8ZM41.4999 25.3C40.7999 24.9 40.9999 24.2 40.8999 23.6C40.3999 24.4 40.5999 25.3 41.1999 25.7C41.7999 26.1 42.9999 26.2 43.3999 25.4C42.6999 25.7 42.0999 25.6 41.4999 25.3ZM46.2999 19.3C45.5999 18.9 45.7999 18.2 45.6999 17.6C45.1999 18.3 45.2999 19.2 45.9999 19.7C46.5999 20.1 47.7999 20.2 48.1999 19.4C47.4999 19.7 46.8999 19.6 46.2999 19.3ZM51.7999 14.2C51.0999 13.8 51.2999 13.1 51.1999 12.5C50.6999 13.3 50.8999 14.2 51.4999 14.6C52.0999 15 53.2999 15.1 53.6999 14.3C52.9999 14.6 52.3999 14.5 51.7999 14.2ZM58.7999 11.1C58.0999 10.7 58.2999 10 58.1999 9.4C57.6999 10.1 57.8999 11.1 58.4999 11.5C59.0999 11.9 60.2999 12 60.6999 11.2C59.9999 11.5 59.3999 11.4 58.7999 11.1ZM66.3999 10.2C65.6999 9.8 65.8999 9.1 65.7999 8.5C65.2999 9.3 65.3999 10.2 66.0999 10.6C66.6999 11 67.8999 11.1 68.2999 10.3C67.5999 10.6 66.9999 10.5 66.3999 10.2ZM73.9999 12.3C73.2999 11.9 73.4999 11.2 73.3999 10.6C72.8999 11.3 72.9999 12.3 73.6999 12.7C74.2999 13.1 75.4999 13.2 75.8999 12.4C75.1999 12.7 74.5999 12.6 73.9999 12.3ZM80.6999 16.6C79.9999 16.2 80.1999 15.5 80.0999 14.9C79.4999 15.7 79.6999 16.6 80.3999 17C80.9999 17.4 82.1999 17.5 82.5999 16.7C81.8999 17 81.2999 16.9 80.6999 16.6ZM85.8999 22.2C85.1999 21.8 85.3999 21.2 85.2999 20.5C84.7999 21.2 84.8999 22.1 85.5999 22.6C86.1999 23 87.3999 23.1 87.7999 22.3C87.0999 22.6 86.4999 22.5 85.8999 22.2ZM39.5999 32.8C38.8999 32.4 39.0999 31.7 38.9999 31.1C38.4999 31.8 38.5999 32.8 39.2999 33.2C39.8999 33.6 40.9999 33.7 41.4999 32.9C40.7999 33.2 40.1999 33.1 39.5999 32.8ZM39.7999 40.4C39.0999 40 39.2999 39.3 39.1999 38.7C38.6999 39.4 38.7999 40.3 39.4999 40.8C40.0999 41.2 41.1999 41.2 41.6999 40.5C40.9999 40.8 40.3999 40.7 39.7999 40.4ZM41.4999 25.3C40.7999 24.9 40.9999 24.2 40.8999 23.6C40.3999 24.4 40.5999 25.3 41.1999 25.7C41.7999 26.1 42.9999 26.2 43.3999 25.4C42.6999 25.7 42.0999 25.6 41.4999 25.3ZM41.6999 47.8C40.9999 47.4 41.1999 46.7 41.0999 46.1C40.5999 46.8 40.6999 47.7 41.3999 48.2C41.9999 48.6 43.0999 48.6 43.5999 47.9C42.8999 48.2 42.2999 48.1 41.6999 47.8ZM45.6999 53.7C44.9999 53.3 45.1999 52.6 45.0999 52C44.5999 52.7 44.6999 53.6 45.3999 54.1C45.9999 54.5 47.0999 54.6 47.5999 53.8C46.8999 54.1 46.2999 54 45.6999 53.7ZM46.2999 19.3C45.5999 18.9 45.7999 18.2 45.6999 17.6C45.1999 18.3 45.2999 19.2 45.9999 19.7C46.5999 20.1 47.7999 20.2 48.1999 19.4C47.4999 19.7 46.8999 19.6 46.2999 19.3ZM51.6999 59.2C50.9999 58.8 51.0999 58.1 51.0999 57.5C50.5999 58.2 50.6999 59.1 51.3999 59.6C51.9999 60 53.0999 60 53.5999 59.3C52.8999 59.6 52.2999 59.5 51.6999 59.2ZM51.7999 14.2C51.0999 13.8 51.2999 13.1 51.1999 12.5C50.6999 13.3 50.8999 14.2 51.4999 14.6C52.0999 15 53.2999 15.1 53.6999 14.3C52.9999 14.6 52.3999 14.5 51.7999 14.2ZM58.3999 62.3C57.6999 61.9 57.7999 61.2 57.7999 60.6C57.2999 61.3 57.3999 62.3 58.0999 62.7C58.6999 63.1 59.7999 63.2 60.2999 62.4C59.5999 62.7 58.9999 62.6 58.3999 62.3ZM58.7999 11.1C58.0999 10.7 58.2999 10 58.1999 9.4C57.6999 10.1 57.8999 11.1 58.4999 11.5C59.0999 11.9 60.2999 12 60.6999 11.2C59.9999 11.5 59.3999 11.4 58.7999 11.1ZM66.3999 10.2C65.6999 9.8 65.8999 9.1 65.7999 8.5C65.2999 9.3 65.3999 10.2 66.0999 10.6C66.6999 11 67.8999 11.1 68.2999 10.3C67.5999 10.6 66.9999 10.5 66.3999 10.2ZM73.9999 12.3C73.2999 11.9 73.4999 11.2 73.3999 10.6C72.8999 11.3 72.9999 12.3 73.6999 12.7C74.2999 13.1 75.4999 13.2 75.8999 12.4C75.1999 12.7 74.5999 12.6 73.9999 12.3ZM80.6999 16.6C79.9999 16.2 80.1999 15.5 80.0999 14.9C79.4999 15.7 79.6999 16.6 80.3999 17C80.9999 17.4 82.1999 17.5 82.5999 16.7C81.8999 17 81.2999 16.9 80.6999 16.6ZM85.8999 22.2C85.1999 21.8 85.3999 21.2 85.2999 20.5C84.7999 21.2 84.8999 22.1 85.5999 22.6C86.1999 23 87.3999 23.1 87.7999 22.3C87.0999 22.6 86.4999 22.5 85.8999 22.2ZM58.3999 62.3C57.6999 61.9 57.7999 61.2 57.7999 60.6C57.2999 61.3 57.3999 62.3 58.0999 62.7C58.6999 63.1 59.7999 63.2 60.2999 62.4C59.5999 62.7 58.9999 62.6 58.3999 62.3ZM51.6999 59.2C50.9999 58.8 51.0999 58.1 51.0999 57.5C50.5999 58.2 50.6999 59.1 51.3999 59.6C51.9999 60 53.0999 60 53.5999 59.3C52.8999 59.6 52.2999 59.5 51.6999 59.2ZM45.6999 53.7C44.9999 53.3 45.1999 52.6 45.0999 52C44.5999 52.7 44.6999 53.6 45.3999 54.1C45.9999 54.5 47.0999 54.6 47.5999 53.8C46.8999 54.1 46.2999 54 45.6999 53.7ZM41.6999 47.8C40.9999 47.4 41.1999 46.7 41.0999 46.1C40.5999 46.8 40.6999 47.7 41.3999 48.2C41.9999 48.6 43.0999 48.6 43.5999 47.9C42.8999 48.2 42.2999 48.1 41.6999 47.8ZM39.7999 40.4C39.0999 40 39.2999 39.3 39.1999 38.7C38.6999 39.4 38.7999 40.3 39.4999 40.8C40.0999 41.2 41.1999 41.2 41.6999 40.5C40.9999 40.8 40.3999 40.7 39.7999 40.4ZM39.5999 32.8C38.8999 32.4 39.0999 31.7 38.9999 31.1C38.4999 31.8 38.5999 32.8 39.2999 33.2C39.8999 33.6 40.9999 33.7 41.4999 32.9C40.7999 33.2 40.1999 33.1 39.5999 32.8ZM41.4999 25.3C40.7999 24.9 40.9999 24.2 40.8999 23.6C40.3999 24.4 40.5999 25.3 41.1999 25.7C41.7999 26.1 42.9999 26.2 43.3999 25.4C42.6999 25.7 42.0999 25.6 41.4999 25.3ZM46.2999 19.3C45.5999 18.9 45.7999 18.2 45.6999 17.6C45.1999 18.3 45.2999 19.2 45.9999 19.7C46.5999 20.1 47.7999 20.2 48.1999 19.4C47.4999 19.7 46.8999 19.6 46.2999 19.3ZM51.7999 14.2C51.0999 13.8 51.2999 13.1 51.1999 12.5C50.6999 13.3 50.8999 14.2 51.4999 14.6C52.0999 15 53.2999 15.1 53.6999 14.3C52.9999 14.6 52.3999 14.5 51.7999 14.2ZM58.7999 11.1C58.0999 10.7 58.2999 10 58.1999 9.4C57.6999 10.1 57.8999 11.1 58.4999 11.5C59.0999 11.9 60.2999 12 60.6999 11.2C59.9999 11.5 59.3999 11.4 58.7999 11.1ZM66.3999 10.2C65.6999 9.8 65.8999 9.1 65.7999 8.5C65.2999 9.3 65.3999 10.2 66.0999 10.6C66.6999 11 67.8999 11.1 68.2999 10.3C67.5999 10.6 66.9999 10.5 66.3999 10.2ZM73.9999 12.3C73.2999 11.9 73.4999 11.2 73.3999 10.6C72.8999 11.3 72.9999 12.3 73.6999 12.7C74.2999 13.1 75.4999 13.2 75.8999 12.4C75.1999 12.7 74.5999 12.6 73.9999 12.3ZM80.6999 16.6C79.9999 16.2 80.1999 15.5 80.0999 14.9C79.4999 15.7 79.6999 16.6 80.3999 17C80.9999 17.4 82.1999 17.5 82.5999 16.7C81.8999 17 81.2999 16.9 80.6999 16.6ZM85.8999 22.2C85.1999 21.8 85.3999 21.2 85.2999 20.5C84.7999 21.2 84.8999 22.1 85.5999 22.6C86.1999 23 87.3999 23.1 87.7999 22.3C87.0999 22.6 86.4999 22.5 85.8999 22.2ZM39.5999 32.8C38.8999 32.4 39.0999 31.7 38.9999 31.1C38.4999 31.8 38.5999 32.8 39.2999 33.2C39.8999 33.6 40.9999 33.7 41.4999 32.9C40.7999 33.2 40.1999 33.1 39.5999 32.8ZM39.7999 40.4C39.0999 40 39.2999 39.3 39.1999 38.7C38.6999 39.4 38.7999 40.3 39.4999 40.8C40.0999 41.2 41.1999 41.2 41.6999 40.5C40.9999 40.8 40.3999 40.7 39.7999 40.4ZM41.4999 25.3C40.7999 24.9 40.9999 24.2 40.8999 23.6C40.3999 24.4 40.5999 25.3 41.1999 25.7C41.7999 26.1 42.9999 26.2 43.3999 25.4C42.6999 25.7 42.0999 25.6 41.4999 25.3ZM41.6999 47.8C40.9999 47.4 41.1999 46.7 41.0999 46.1C40.5999 46.8 40.6999 47.7 41.3999 48.2C41.9999 48.6 43.0999 48.6 43.5999 47.9C42.8999 48.2 42.2999 48.1 41.6999 47.8ZM45.6999 53.7C44.9999 53.3 45.1999 52.6 45.0999 52C44.5999 52.7 44.6999 53.6 45.3999 54.1C45.9999 54.5 47.0999 54.6 47.5999 53.8C46.8999 54.1 46.2999 54 45.6999 53.7ZM46.2999 19.3C45.5999 18.9 45.7999 18.2 45.6999 17.6C45.1999 18.3 45.2999 19.2 45.9999 19.7C46.5999 20.1 47.7999 20.2 48.1999 19.4C47.4999 19.7 46.8999 19.6 46.2999 19.3ZM51.6999 59.2C50.9999 58.8 51.0999 58.1 51.0999 57.5C50.5999 58.2 50.6999 59.1 51.3999 59.6C51.9999 60 53.0999 60 53.5999 59.3C52.8999 59.6 52.2999 59.5 51.6999 59.2ZM51.7999 14.2C51.0999 13.8 51.2999 13.1 51.1999 12.5C50.6999 13.3 50.8999 14.2 51.4999 14.6C52.0999 15 53.2999 15.1 53.6999 14.3C52.9999 14.6 52.3999 14.5 51.7999 14.2ZM58.3999 62.3C57.6999 61.9 57.7999 61.2 57.7999 60.6C57.2999 61.3 57.3999 62.3 58.0999 62.7C58.6999 63.1 59.7999 63.2 60.2999 62.4C59.5999 62.7 58.9999 62.6 58.3999 62.3ZM58.7999 11.1C58.0999 10.7 58.2999 10 58.1999 9.4C57.6999 10.1 57.8999 11.1 58.4999 11.5C59.0999 11.9 60.2999 12 60.6999 11.2C59.9999 11.5 59.3999 11.4 58.7999 11.1ZM66.1999 62.9C65.4999 62.5 65.6999 61.8 65.5999 61.2C65.0999 61.9 65.1999 62.8 65.8999 63.3C66.4999 63.7 67.5999 63.7 68.0999 63C67.3999 63.3 66.7999 63.2 66.1999 62.9ZM66.3999 10.2C65.6999 9.8 65.8999 9.1 65.7999 8.5C65.2999 9.3 65.3999 10.2 66.0999 10.6C66.6999 11 67.8999 11.1 68.2999 10.3C67.5999 10.6 66.9999 10.5 66.3999 10.2ZM73.5999 61.1C72.8999 60.7 73.0999 60 72.9999 59.4C72.4999 60.1 72.5999 61 73.2999 61.5C73.8999 61.9 74.9999 62 75.4999 61.2C74.7999 61.5 74.1999 61.4 73.5999 61.1ZM73.9999 12.3C73.2999 11.9 73.4999 11.2 73.3999 10.6C72.8999 11.3 72.9999 12.3 73.6999 12.7C74.2999 13.1 75.4999 13.2 75.8999 12.4C75.1999 12.7 74.5999 12.6 73.9999 12.3ZM80.6999 16.6C79.9999 16.2 80.1999 15.5 80.0999 14.9C79.4999 15.7 79.6999 16.6 80.3999 17C80.9999 17.4 82.1999 17.5 82.5999 16.7C81.8999 17 81.2999 16.9 80.6999 16.6ZM85.8999 22.2C85.1999 21.8 85.3999 21.2 85.2999 20.5C84.7999 21.2 84.8999 22.1 85.5999 22.6C86.1999 23 87.3999 23.1 87.7999 22.3C87.0999 22.6 86.4999 22.5 85.8999 22.2ZM73.5999 61.1C72.8999 60.7 73.0999 60 72.9999 59.4C72.4999 60.1 72.5999 61 73.2999 61.5C73.8999 61.9 74.9999 62 75.4999 61.2C74.7999 61.5 74.1999 61.4 73.5999 61.1ZM66.1999 62.9C65.4999 62.5 65.6999 61.8 65.5999 61.2C65.0999 61.9 65.1999 62.8 65.8999 63.3C66.4999 63.7 67.5999 63.7 68.0999 63C67.3999 63.3 66.7999 63.2 66.1999 62.9ZM58.3999 62.3C57.6999 61.9 57.7999 61.2 57.7999 60.6C57.2999 61.3 57.3999 62.3 58.0999 62.7C58.6999 63.1 59.7999 63.2 60.2999 62.4C59.5999 62.7 58.9999 62.6 58.3999 62.3ZM51.6999 59.2C50.9999 58.8 51.0999 58.1 51.0999 57.5C50.5999 58.2 50.6999 59.1 51.3999 59.6C51.9999 60 53.0999 60 53.5999 59.3C52.8999 59.6 52.2999 59.5 51.6999 59.2ZM45.6999 53.7C44.9999 53.3 45.1999 52.6 45.0999 52C44.5999 52.7 44.6999 53.6 45.3999 54.1C45.9999 54.5 47.0999 54.6 47.5999 53.8C46.8999 54.1 46.2999 54 45.6999 53.7ZM41.6999 47.8C40.9999 47.4 41.1999 46.7 41.0999 46.1C40.5999 46.8 40.6999 47.7 41.3999 48.2C41.9999 48.6 43.0999 48.6 43.5999 47.9C42.8999 48.2 42.2999 48.1 41.6999 47.8ZM39.7999 40.4C39.0999 40 39.2999 39.3 39.1999 38.7C38.6999 39.4 38.7999 40.3 39.4999 40.8C40.0999 41.2 41.1999 41.2 41.6999 40.5C40.9999 40.8 40.3999 40.7 39.7999 40.4ZM39.5999 32.8C38.8999 32.4 39.0999 31.7 38.9999 31.1C38.4999 31.8 38.5999 32.8 39.2999 33.2C39.8999 33.6 40.9999 33.7 41.4999 32.9C40.7999 33.2 40.1999 33.1 39.5999 32.8ZM41.4999 25.3C40.7999 24.9 40.9999 24.2 40.8999 23.6C40.3999 24.4 40.5999 25.3 41.1999 25.7C41.7999 26.1 42.9999 26.2 43.3999 25.4C42.6999 25.7 42.0999 25.6 41.4999 25.3ZM46.2999 19.3C45.5999 18.9 45.7999 18.2 45.6999 17.6C45.1999 18.3 45.2999 19.2 45.9999 19.7C46.5999 20.1 47.7999 20.2 48.1999 19.4C47.4999 19.7 46.8999 19.6 46.2999 19.3ZM51.7999 14.2C51.0999 13.8 51.2999 13.1 51.1999 12.5C50.6999 13.3 50.8999 14.2 51.4999 14.6C52.0999 15 53.2999 15.1 53.6999 14.3C52.9999 14.6 52.3999 14.5 51.7999 14.2ZM58.7999 11.1C58.0999 10.7 58.2999 10 58.1999 9.4C57.6999 10.1 57.8999 11.1 58.4999 11.5C59.0999 11.9 60.2999 12 60.6999 11.2C59.9999 11.5 59.3999 11.4 58.7999 11.1ZM66.3999 10.2C65.6999 9.8 65.8999 9.1 65.7999 8.5C65.2999 9.3 65.3999 10.2 66.0999 10.6C66.6999 11 67.8999 11.1 68.2999 10.3C67.5999 10.6 66.9999 10.5 66.3999 10.2ZM73.9999 12.3C73.2999 11.9 73.4999 11.2 73.3999 10.6C72.8999 11.3 72.9999 12.3 73.6999 12.7C74.2999 13.1 75.4999 13.2 75.8999 12.4C75.1999 12.7 74.5999 12.6 73.9999 12.3ZM80.6999 16.6C79.9999 16.2 80.1999 15.5 80.0999 14.9C79.4999 15.7 79.6999 16.6 80.3999 17C80.9999 17.4 82.1999 17.5 82.5999 16.7C81.8999 17 81.2999 16.9 80.6999 16.6ZM85.8999 22.2C85.1999 21.8 85.3999 21.2 85.2999 20.5C84.7999 21.2 84.8999 22.1 85.5999 22.6C86.1999 23 87.3999 23.1 87.7999 22.3C87.0999 22.6 86.4999 22.5 85.8999 22.2ZM39.5999 32.8C38.8999 32.4 39.0999 31.7 38.9999 31.1C38.4999 31.8 38.5999 32.8 39.2999 33.2C39.8999 33.6 40.9999 33.7 41.4999 32.9C40.7999 33.2 40.1999 33.1 39.5999 32.8ZM39.7999 40.4C39.0999 40 39.2999 39.3 39.1999 38.7C38.6999 39.4 38.7999 40.3 39.4999 40.8C40.0999 41.2 41.1999 41.2 41.6999 40.5C40.9999 40.8 40.3999 40.7 39.7999 40.4ZM41.4999 25.3C40.7999 24.9 40.9999 24.2 40.8999 23.6C40.3999 24.4 40.5999 25.3 41.1999 25.7C41.7999 26.1 42.9999 26.2 43.3999 25.4C42.6999 25.7 42.0999 25.6 41.4999 25.3ZM41.6999 47.8C40.9999 47.4 41.1999 46.7 41.0999 46.1C40.5999 46.8 40.6999 47.7 41.3999 48.2C41.9999 48.6 43.0999 48.6 43.5999 47.9C42.8999 48.2 42.2999 48.1 41.6999 47.8ZM45.6999 53.7C44.9999 53.3 45.1999 52.6 45.0999 52C44.5999 52.7 44.6999 53.6 45.3999 54.1C45.9999 54.5 47.0999 54.6 47.5999 53.8C46.8999 54.1 46.2999 54 45.6999 53.7ZM46.2999 19.3C45.5999 18.9 45.7999 18.2 45.6999 17.6C45.1999 18.3 45.2999 19.2 45.9999 19.7C46.5999 20.1 47.7999 20.2 48.1999 19.4C47.4999 19.7 46.8999 19.6 46.2999 19.3ZM51.6999 59.2C50.9999 58.8 51.0999 58.1 51.0999 57.5C50.5999 58.2 50.6999 59.1 51.3999 59.6C51.9999 60 53.0999 60 53.5999 59.3C52.8999 59.6 52.2999 59.5 51.6999 59.2ZM51.7999 14.2C51.0999 13.8 51.2999 13.1 51.1999 12.5C50.6999 13.3 50.8999 14.2 51.4999 14.6C52.0999 15 53.2999 15.1 53.6999 14.3C52.9999 14.6 52.3999 14.5 51.7999 14.2ZM58.3999 62.3C57.6999 61.9 57.7999 61.2 57.7999 60.6C57.2999 61.3 57.3999 62.3 58.0999 62.7C58.6999 63.1 59.7999 63.2 60.2999 62.4C59.5999 62.7 58.9999 62.6 58.3999 62.3ZM58.7999 11.1C58.0999 10.7 58.2999 10 58.1999 9.4C57.6999 10.1 57.8999 11.1 58.4999 11.5C59.0999 11.9 60.2999 12 60.6999 11.2C59.9999 11.5 59.3999 11.4 58.7999 11.1ZM66.1999 62.9C65.4999 62.5 65.6999 61.8 65.5999 61.2C65.0999 61.9 65.1999 62.8 65.8999 63.3C66.4999 63.7 67.5999 63.7 68.0999 63C67.3999 63.3 66.7999 63.2 66.1999 62.9ZM66.3999 10.2C65.6999 9.8 65.8999 9.1 65.7999 8.5C65.2999 9.3 65.3999 10.2 66.0999 10.6C66.6999 11 67.8999 11.1 68.2999 10.3C67.5999 10.6 66.9999 10.5 66.3999 10.2ZM73.5999 61.1C72.8999 60.7 73.0999 60 72.9999 59.4C72.4999 60.1 72.5999 61 73.2999 61.5C73.8999 61.9 74.9999 62 75.4999 61.2C74.7999 61.5 74.1999 61.4 73.5999 61.1ZM73.9999 12.3C73.2999 11.9 73.4999 11.2 73.3999 10.6C72.8999 11.3 72.9999 12.3 73.6999 12.7C74.2999 13.1 75.4999 13.2 75.8999 12.4C75.1999 12.7 74.5999 12.6 73.9999 12.3ZM79.8999 56.5C79.1999 56.1 79.3999 55.4 79.2999 54.8C78.7999 55.5 78.8999 56.4 79.5999 56.9C80.1999 57.3 81.2999 57.4 81.7999 56.6C81.0999 56.9 80.4999 56.8 79.8999 56.5ZM80.6999 16.6C79.9999 16.2 80.1999 15.5 80.0999 14.9C79.4999 15.7 79.6999 16.6 80.3999 17C80.9999 17.4 82.1999 17.5 82.5999 16.7C81.8999 17 81.2999 16.9 80.6999 16.6ZM84.9999 50.6C84.2999 50.2 84.4999 49.5 84.3999 48.9C83.8999 49.6 83.9999 50.5 84.6999 51C85.2999 51.4 86.4999 51.5 86.8999 50.7C86.1999 51 85.5999 50.9 84.9999 50.6ZM85.8999 22.2C85.1999 21.8 85.3999 21.2 85.2999 20.5C84.7999 21.2 84.8999 22.1 85.5999 22.6C86.1999 23 87.3999 23.1 87.7999 22.3C87.0999 22.6 86.4999 22.5 85.8999 22.2ZM84.9999 50.6C84.2999 50.2 84.4999 49.5 84.3999 48.9C83.8999 49.6 83.9999 50.5 84.6999 51C85.2999 51.4 86.4999 51.5 86.8999 50.7C86.1999 51 85.5999 50.9 84.9999 50.6ZM79.8999 56.5C79.1999 56.1 79.3999 55.4 79.2999 54.8C78.7999 55.5 78.8999 56.4 79.5999 56.9C80.1999 57.3 81.2999 57.4 81.7999 56.6C81.0999 56.9 80.4999 56.8 79.8999 56.5ZM73.5999 61.1C72.8999 60.7 73.0999 60 72.9999 59.4C72.4999 60.1 72.5999 61 73.2999 61.5C73.8999 61.9 74.9999 62 75.4999 61.2C74.7999 61.5 74.1999 61.4 73.5999 61.1ZM66.1999 62.9C65.4999 62.5 65.6999 61.8 65.5999 61.2C65.0999 61.9 65.1999 62.8 65.8999 63.3C66.4999 63.7 67.5999 63.7 68.0999 63C67.3999 63.3 66.7999 63.2 66.1999 62.9ZM58.3999 62.3C57.6999 61.9 57.7999 61.2 57.7999 60.6C57.2999 61.3 57.3999 62.3 58.0999 62.7C58.6999 63.1 59.7999 63.2 60.2999 62.4C59.5999 62.7 58.9999 62.6 58.3999 62.3ZM51.6999 59.2C50.9999 58.8 51.0999 58.1 51.0999 57.5C50.5999 58.2 50.6999 59.1 51.3999 59.6C51.9999 60 53.0999 60 53.5999 59.3C52.8999 59.6 52.2999 59.5 51.6999 59.2ZM45.6999 53.7C44.9999 53.3 45.1999 52.6 45.0999 52C44.5999 52.7 44.6999 53.6 45.3999 54.1C45.9999 54.5 47.0999 54.6 47.5999 53.8C46.8999 54.1 46.2999 54 45.6999 53.7ZM41.6999 47.8C40.9999 47.4 41.1999 46.7 41.0999 46.1C40.5999 46.8 40.6999 47.7 41.3999 48.2C41.9999 48.6 43.0999 48.6 43.5999 47.9C42.8999 48.2 42.2999 48.1 41.6999 47.8ZM39.7999 40.4C39.0999 40 39.2999 39.3 39.1999 38.7C38.6999 39.4 38.7999 40.3 39.4999 40.8C40.0999 41.2 41.1999 41.2 41.6999 40.5C40.9999 40.8 40.3999 40.7 39.7999 40.4ZM39.5999 32.8C38.8999 32.4 39.0999 31.7 38.9999 31.1C38.4999 31.8 38.5999 32.8 39.2999 33.2C39.8999 33.6 40.9999 33.7 41.4999 32.9C40.7999 33.2 40.1999 33.1 39.5999 32.8ZM41.4999 25.3C40.7999 24.9 40.9999 24.2 40.8999 23.6C40.3999 24.4 40.5999 25.3 41.1999 25.7C41.7999 26.1 42.9999 26.2 43.3999 25.4C42.6999 25.7 42.0999 25.6 41.4999 25.3ZM46.2999 19.3C45.5999 18.9 45.7999 18.2 45.6999 17.6C45.1999 18.3 45.2999 19.2 45.9999 19.7C46.5999 20.1 47.7999 20.2 48.1999 19.4C47.4999 19.7 46.8999 19.6 46.2999 19.3ZM51.7999 14.2C51.0999 13.8 51.2999 13.1 51.1999 12.5C50.6999 13.3 50.8999 14.2 51.4999 14.6C52.0999 15 53.2999 15.1 53.6999 14.3C52.9999 14.6 52.3999 14.5 51.7999 14.2ZM58.7999 11.1C58.0999 10.7 58.2999 10 58.1999 9.4C57.6999 10.1 57.8999 11.1 58.4999 11.5C59.0999 11.9 60.2999 12 60.6999 11.2C59.9999 11.5 59.3999 11.4 58.7999 11.1ZM66.3999 10.2C65.6999 9.8 65.8999 9.1 65.7999 8.5C65.2999 9.3 65.3999 10.2 66.0999 10.6C66.6999 11 67.8999 11.1 68.2999 10.3C67.5999 10.6 66.9999 10.5 66.3999 10.2ZM73.9999 12.3C73.2999 11.9 73.4999 11.2 73.3999 10.6C72.8999 11.3 72.9999 12.3 73.6999 12.7C74.2999 13.1 75.4999 13.2 75.8999 12.4C75.1999 12.7 74.5999 12.6 73.9999 12.3ZM80.6999 16.6C79.9999 16.2 80.1999 15.5 80.0999 14.9C79.4999 15.7 79.6999 16.6 80.3999 17C80.9999 17.4 82.1999 17.5 82.5999 16.7C81.8999 17 81.2999 16.9 80.6999 16.6ZM85.8999 22.2C85.1999 21.8 85.3999 21.2 85.2999 20.5C84.7999 21.2 84.8999 22.1 85.5999 22.6C86.1999 23 87.3999 23.1 87.7999 22.3C87.0999 22.6 86.4999 22.5 85.8999 22.2ZM39.5999 32.8C38.8999 32.4 39.0999 31.7 38.9999 31.1C38.4999 31.8 38.5999 32.8 39.2999 33.2C39.8999 33.6 40.9999 33.7 41.4999 32.9C40.7999 33.2 40.1999 33.1 39.5999 32.8ZM39.7999 40.4C39.0999 40 39.2999 39.3 39.1999 38.7C38.6999 39.4 38.7999 40.3 39.4999 40.8C40.0999 41.2 41.1999 41.2 41.6999 40.5C40.9999 40.8 40.3999 40.7 39.7999 40.4ZM41.4999 25.3C40.7999 24.9 40.9999 24.2 40.8999 23.6C40.3999 24.4 40.5999 25.3 41.1999 25.7C41.7999 26.1 42.9999 26.2 43.3999 25.4C42.6999 25.7 42.0999 25.6 41.4999 25.3ZM41.6999 47.8C40.9999 47.4 41.1999 46.7 41.0999 46.1C40.5999 46.8 40.6999 47.7 41.3999 48.2C41.9999 48.6 43.0999 48.6 43.5999 47.9C42.8999 48.2 42.2999 48.1 41.6999 47.8ZM45.6999 53.7C44.9999 53.3 45.1999 52.6 45.0999 52C44.5999 52.7 44.6999 53.6 45.3999 54.1C45.9999 54.5 47.0999 54.6 47.5999 53.8C46.8999 54.1 46.2999 54 45.6999 53.7ZM46.2999 19.3C45.5999 18.9 45.7999 18.2 45.6999 17.6C45.1999 18.3 45.2999 19.2 45.9999 19.7C46.5999 20.1 47.7999 20.2 48.1999 19.4C47.4999 19.7 46.8999 19.6 46.2999 19.3ZM51.6999 59.2C50.9999 58.8 51.0999 58.1 51.0999 57.5C50.5999 58.2 50.6999 59.1 51.3999 59.6C51.9999 60 53.0999 60 53.5999 59.3C52.8999 59.6 52.2999 59.5 51.6999 59.2ZM51.7999 14.2C51.0999 13.8 51.2999 13.1 51.1999 12.5C50.6999 13.3 50.8999 14.2 51.4999 14.6C52.0999 15 53.2999 15.1 53.6999 14.3C52.9999 14.6 52.3999 14.5 51.7999 14.2ZM58.3999 62.3C57.6999 61.9 57.7999 61.2 57.7999 60.6C57.2999 61.3 57.3999 62.3 58.0999 62.7C58.6999 63.1 59.7999 63.2 60.2999 62.4C59.5999 62.7 58.9999 62.6 58.3999 62.3ZM58.7999 11.1C58.0999 10.7 58.2999 10 58.1999 9.4C57.6999 10.1 57.8999 11.1 58.4999 11.5C59.0999 11.9 60.2999 12 60.6999 11.2C59.9999 11.5 59.3999 11.4 58.7999 11.1ZM66.1999 62.9C65.4999 62.5 65.6999 61.8 65.5999 61.2C65.0999 61.9 65.1999 62.8 65.8999 63.3C66.4999 63.7 67.5999 63.7 68.0999 63C67.3999 63.3 66.7999 63.2 66.1999 62.9ZM66.3999 10.2C65.6999 9.8 65.8999 9.1 65.7999 8.5C65.2999 9.3 65.3999 10.2 66.0999 10.6C66.6999 11 67.8999 11.1 68.2999 10.3C67.5999 10.6 66.9999 10.5 66.3999 10.2ZM73.5999 61.1C72.8999 60.7 73.0999 60 72.9999 59.4C72.4999 60.1 72.5999 61 73.2999 61.5C73.8999 61.9 74.9999 62 75.4999 61.2C74.7999 61.5 74.1999 61.4 73.5999 61.1ZM73.9999 12.3C73.2999 11.9 73.4999 11.2 73.3999 10.6C72.8999 11.3 72.9999 12.3 73.6999 12.7C74.2999 13.1 75.4999 13.2 75.8999 12.4C75.1999 12.7 74.5999 12.6 73.9999 12.3ZM79.8999 56.5C79.1999 56.1 79.3999 55.4 79.2999 54.8C78.7999 55.5 78.8999 56.4 79.5999 56.9C80.1999 57.3 81.2999 57.4 81.7999 56.6C81.0999 56.9 80.4999 56.8 79.8999 56.5ZM80.6999 16.6C79.9999 16.2 80.1999 15.5 80.0999 14.9C79.4999 15.7 79.6999 16.6 80.3999 17C80.9999 17.4 82.1999 17.5 82.5999 16.7C81.8999 17 81.2999 16.9 80.6999 16.6ZM84.9999 50.6C84.2999 50.2 84.4999 49.5 84.3999 48.9C83.8999 49.6 83.9999 50.5 84.6999 51C85.2999 51.4 86.4999 51.5 86.8999 50.7C86.1999 51 85.5999 50.9 84.9999 50.6ZM85.8999 22.2C85.1999 21.8 85.3999 21.2 85.2999 20.5C84.7999 21.2 84.8999 22.1 85.5999 22.6C86.1999 23 87.3999 23.1 87.7999 22.3C87.0999 22.6 86.4999 22.5 85.8999 22.2ZM88.8999 44.2C88.1999 43.8 88.3999 43.1 88.2999 42.5C87.7999 43.2 87.8999 44.1 88.5999 44.6C89.1999 45 90.3999 45.1 90.7999 44.3C90.0999 44.6 89.4999 44.5 88.8999 44.2ZM89.6999 37.1C88.9999 36.7 89.1999 36 89.0999 35.4C88.5999 36.1 88.6999 37.1 89.3999 37.5C89.9999 37.9 91.1999 38 91.5999 37.2C90.8999 37.5 90.2999 37.4 89.6999 37.1ZM88.8999 44.2C88.1999 43.8 88.3999 43.1 88.2999 42.5C87.7999 43.2 87.8999 44.1 88.5999 44.6C89.1999 45 90.3999 45.1 90.7999 44.3C90.0999 44.6 89.4999 44.5 88.8999 44.2ZM84.9999 50.6C84.2999 50.2 84.4999 49.5 84.3999 48.9C83.8999 49.6 83.9999 50.5 84.6999 51C85.2999 51.4 86.4999 51.5 86.8999 50.7C86.1999 51 85.5999 50.9 84.9999 50.6ZM79.8999 56.5C79.1999 56.1 79.3999 55.4 79.2999 54.8C78.7999 55.5 78.8999 56.4 79.5999 56.9C80.1999 57.3 81.2999 57.4 81.7999 56.6C81.0999 56.9 80.4999 56.8 79.8999 56.5ZM73.5999 61.1C72.8999 60.7 73.0999 60 72.9999 59.4C72.4999 60.1 72.5999 61 73.2999 61.5C73.8999 61.9 74.9999 62 75.4999 61.2C74.7999 61.5 74.1999 61.4 73.5999 61.1ZM66.1999 62.9C65.4999 62.5 65.6999 61.8 65.5999 61.2C65.0999 61.9 65.1999 62.8 65.8999 63.3C66.4999 63.7 67.5999 63.7 68.0999 63C67.3999 63.3 66.7999 63.2 66.1999 62.9ZM58.3999 62.3C57.6999 61.9 57.7999 61.2 57.7999 60.6C57.2999 61.3 57.3999 62.3 58.0999 62.7C58.6999 63.1 59.7999 63.2 60.2999 62.4C59.5999 62.7 58.9999 62.6 58.3999 62.3ZM51.6999 59.2C50.9999 58.8 51.0999 58.1 51.0999 57.5C50.5999 58.2 50.6999 59.1 51.3999 59.6C51.9999 60 53.0999 60 53.5999 59.3C52.8999 59.6 52.2999 59.5 51.6999 59.2ZM45.6999 53.7C44.9999 53.3 45.1999 52.6 45.0999 52C44.5999 52.7 44.6999 53.6 45.3999 54.1C45.9999 54.5 47.0999 54.6 47.5999 53.8C46.8999 54.1 46.2999 54 45.6999 53.7ZM41.6999 47.8C40.9999 47.4 41.1999 46.7 41.0999 46.1C40.5999 46.8 40.6999 47.7 41.3999 48.2C41.9999 48.6 43.0999 48.6 43.5999 47.9C42.8999 48.2 42.2999 48.1 41.6999 47.8ZM39.7999 40.4C39.0999 40 39.2999 39.3 39.1999 38.7C38.6999 39.4 38.7999 40.3 39.4999 40.8C40.0999 41.2 41.1999 41.2 41.6999 40.5C40.9999 40.8 40.3999 40.7 39.7999 40.4ZM39.5999 32.8C38.8999 32.4 39.0999 31.7 38.9999 31.1C38.4999 31.8 38.5999 32.8 39.2999 33.2C39.8999 33.6 40.9999 33.7 41.4999 32.9C40.7999 33.2 40.1999 33.1 39.5999 32.8ZM41.4999 25.3C40.7999 24.9 40.9999 24.2 40.8999 23.6C40.3999 24.4 40.5999 25.3 41.1999 25.7C41.7999 26.1 42.9999 26.2 43.3999 25.4C42.6999 25.7 42.0999 25.6 41.4999 25.3ZM46.2999 19.3C45.5999 18.9 45.7999 18.2 45.6999 17.6C45.1999 18.3 45.2999 19.2 45.9999 19.7C46.5999 20.1 47.7999 20.2 48.1999 19.4C47.4999 19.7 46.8999 19.6 46.2999 19.3ZM51.7999 14.2C51.0999 13.8 51.2999 13.1 51.1999 12.5C50.6999 13.3 50.8999 14.2 51.4999 14.6C52.0999 15 53.2999 15.1 53.6999 14.3C52.9999 14.6 52.3999 14.5 51.7999 14.2ZM58.7999 11.1C58.0999 10.7 58.2999 10 58.1999 9.4C57.6999 10.1 57.8999 11.1 58.4999 11.5C59.0999 11.9 60.2999 12 60.6999 11.2C59.9999 11.5 59.3999 11.4 58.7999 11.1ZM66.3999 10.2C65.6999 9.8 65.8999 9.1 65.7999 8.5C65.2999 9.3 65.3999 10.2 66.0999 10.6C66.6999 11 67.8999 11.1 68.2999 10.3C67.5999 10.6 66.9999 10.5 66.3999 10.2ZM73.9999 12.3C73.2999 11.9 73.4999 11.2 73.3999 10.6C72.8999 11.3 72.9999 12.3 73.6999 12.7C74.2999 13.1 75.4999 13.2 75.8999 12.4C75.1999 12.7 74.5999 12.6 73.9999 12.3ZM80.6999 16.6C79.9999 16.2 80.1999 15.5 80.0999 14.9C79.4999 15.7 79.6999 16.6 80.3999 17C80.9999 17.4 82.1999 17.5 82.5999 16.7C81.8999 17 81.2999 16.9 80.6999 16.6ZM85.8999 22.2C85.1999 21.8 85.3999 21.2 85.2999 20.5C84.7999 21.2 84.8999 22.1 85.5999 22.6C86.1999 23 87.3999 23.1 87.7999 22.3C87.0999 22.6 86.4999 22.5 85.8999 22.2ZM89.6999 37.1C88.9999 36.7 89.1999 36 89.0999 35.4C88.5999 36.1 88.6999 37.1 89.3999 37.5C89.9999 37.9 91.1999 38 91.5999 37.2C90.8999 37.5 90.2999 37.4 89.6999 37.1ZM92.0999 39.5C93.7999 38.9 95.0999 37.4 95.0999 35.5C95.0999 33.5 93.6999 31.8 91.6999 31.4C92.9999 30.7 93.8999 29.3 93.8999 27.8C93.8999 25.6 92.1999 23.8 89.9999 23.6C90.4999 22.9 90.7999 22.1 90.7999 21.2C90.7999 18.9 88.7999 17 86.3999 17C85.9999 17 85.4999 17.1 85.0999 17.2C85.3999 16.7 85.5999 16.1 85.5999 15.4C85.5999 13.1 83.5999 11.2 81.1999 11.2C80.4999 11.2 79.7999 11.4 79.1999 11.7C79.2999 11.5 79.2999 11.3 79.2999 11.1C79.2999 8.8 77.2999 6.9 74.8999 6.9C73.5999 6.9 72.4999 7.4 71.6999 8.2C71.1999 6.4 69.4999 5 67.3999 5C65.5999 5 63.9999 6.1 63.6999 7.6C62.8999 6.5 61.4999 5.7 59.9999 5.7C57.5999 5.7 55.6999 7.4 55.5999 9.6C54.8999 9.1 53.9999 8.8 52.9999 8.8C50.5999 8.8 48.5999 10.7 48.5999 13C48.5999 13.4 48.6999 13.8 48.7999 14.2C48.2999 14 47.6999 13.9 47.0999 13.9C44.6999 13.9 42.6999 15.8 42.6999 18.1C42.6999 18.9 42.8999 19.5 43.1999 20.1H42.7999C40.3999 20.1 38.3999 22 38.3999 24.3C38.3999 25.6 38.9999 26.7 39.8999 27.5C37.6999 27.7 36.0999 29.5 36.0999 31.6C36.0999 33.2 37.0999 34.6 38.2999 35.3C36.8999 36 35.8999 37.4 35.8999 39C35.8999 41 37.4999 42.7 39.4999 43.1C38.4999 43.8 37.7999 45 37.7999 46.4C37.7999 48.7 39.7999 50.6 42.1999 50.6H42.4999C42.1999 51.2 41.9999 51.9 41.9999 52.6C41.9999 54.9 43.9999 56.8 46.3999 56.8C46.9999 56.8 47.5999 56.6 48.1999 56.4C47.9999 56.9 47.8999 57.4 47.8999 57.9C47.8999 60.2 49.8999 62.1 52.2999 62.1C53.2999 62.1 54.1999 61.8 54.8999 61.3C55.0999 63.5 56.9999 65.2 59.2999 65.2C60.8999 65.2 62.1999 64.4 62.9999 63.3C63.6999 64.9 65.2999 66 67.0999 66C69.1999 66 70.9999 64.5 71.2999 62.5C72.0999 63.3 73.2999 63.8 74.4999 63.8C76.8999 63.8 78.8999 61.9 78.8999 59.6C78.8999 59.4 78.8999 59.1 78.7999 58.8C79.3999 59.1 80.0999 59.3 80.7999 59.3C83.1999 59.3 85.1999 57.4 85.1999 55.1C85.1999 54.6 85.0999 54 84.8999 53.5C85.2999 53.5 85.5999 53.6 85.9999 53.6C88.3999 53.6 90.3999 51.7 90.3999 49.4C90.3999 48.5 90.0999 47.7 89.5999 47C91.8999 47 93.8999 45.1 93.8999 42.8C93.8999 41.5 93.1999 40.3 92.0999 39.5ZM93.6999 35.5C93.6999 37 92.3999 38.3 90.7999 38.3C89.1999 38.3 87.8999 37 87.8999 35.5C87.8999 34 89.1999 32.7 90.7999 32.7C92.3999 32.7 93.6999 34 93.6999 35.5ZM92.4999 27.8C92.4999 29.3 91.0999 30.6 89.4999 30.6C87.7999 30.6 86.4999 29.3 86.4999 27.8C86.4999 26.3 87.8999 25 89.4999 25C91.1999 25 92.4999 26.3 92.4999 27.8ZM86.3999 18.5C87.9999 18.5 89.2999 19.8 89.2999 21.3C89.2999 22.8 87.9999 24.1 86.3999 24.1C84.7999 24.1 83.3999 22.9 83.3999 21.3C83.3999 19.8 84.7999 18.5 86.3999 18.5ZM81.1999 12.7C82.7999 12.7 84.0999 14 84.0999 15.5C84.0999 17 82.7999 18.3 81.1999 18.3C79.4999 18.3 78.1999 17 78.1999 15.5C78.1999 14 79.5999 12.7 81.1999 12.7ZM74.7999 8.3C76.4999 8.3 77.7999 9.6 77.7999 11.1C77.7999 12.6 76.3999 13.9 74.7999 13.9C73.1999 13.9 71.8999 12.7 71.8999 11.1C71.8999 9.6 73.1999 8.3 74.7999 8.3ZM67.3999 6.4C68.9999 6.4 70.2999 7.7 70.2999 9.2C70.2999 10.7 68.9999 12 67.3999 12C65.7999 12 64.4999 10.7 64.4999 9.2C64.4999 7.7 65.7999 6.4 67.3999 6.4ZM59.6999 7.1C61.2999 7.1 62.5999 8.4 62.5999 9.9C62.5999 11.4 61.2999 12.7 59.6999 12.7C58.0999 12.7 56.7999 11.5 56.7999 9.9C56.7999 8.4 58.0999 7.1 59.6999 7.1ZM52.6999 10.2C54.3999 10.2 55.6999 11.5 55.6999 13C55.6999 14.5 54.2999 15.8 52.6999 15.8C51.0999 15.8 49.7999 14.6 49.7999 13C49.7999 11.5 51.0999 10.2 52.6999 10.2ZM46.8999 15.3C48.4999 15.3 49.7999 16.6 49.7999 18.1C49.7999 19.6 48.4999 20.9 46.8999 20.9C45.1999 20.9 43.8999 19.6 43.8999 18.1C43.8999 16.6 45.2999 15.3 46.8999 15.3ZM39.6999 24.2C39.6999 22.7 41.0999 21.4 42.6999 21.4C44.2999 21.4 45.5999 22.7 45.5999 24.2C45.5999 25.7 44.2999 27 42.6999 27C40.9999 27 39.6999 25.8 39.6999 24.2ZM37.3999 31.5C37.3999 30 38.7999 28.7 40.3999 28.7C42.0999 28.7 43.3999 30 43.3999 31.5C43.3999 33.1 42.0999 34.3 40.3999 34.3C38.6999 34.3 37.3999 33 37.3999 31.5ZM37.5999 39C37.5999 37.5 38.8999 36.2 40.4999 36.2C42.0999 36.2 43.3999 37.5 43.3999 39C43.3999 40.6 42.0999 41.8 40.4999 41.8C38.8999 41.8 37.5999 40.5 37.5999 39ZM42.2999 49.3C40.6999 49.3 39.3999 48 39.3999 46.5C39.3999 45 40.6999 43.7 42.2999 43.7C43.9999 43.7 45.2999 45 45.2999 46.5C45.2999 48 43.9999 49.3 42.2999 49.3ZM46.4999 55.4C44.7999 55.4 43.4999 54.1 43.4999 52.6C43.4999 51.1 44.8999 49.8 46.4999 49.8C48.1999 49.8 49.4999 51.1 49.4999 52.6C49.4999 54.1 48.0999 55.4 46.4999 55.4ZM52.3999 60.7C50.7999 60.7 49.4999 59.4 49.4999 57.9C49.4999 56.4 50.7999 55.1 52.3999 55.1C54.0999 55.1 55.3999 56.4 55.2999 57.9C55.2999 59.4 53.9999 60.7 52.3999 60.7ZM59.2999 63.8C57.5999 63.8 56.2999 62.5 56.2999 61C56.2999 59.5 57.6999 58.2 59.2999 58.2C60.9999 58.2 62.2999 59.5 62.2999 61C62.2999 62.5 60.8999 63.8 59.2999 63.8ZM67.0999 64.6C65.3999 64.6 64.0999 63.3 64.0999 61.8C64.0999 60.3 65.4999 59 67.0999 59C68.6999 59 69.9999 60.3 69.9999 61.8C69.9999 63.3 68.6999 64.6 67.0999 64.6ZM74.4999 62.5C72.7999 62.5 71.4999 61.2 71.4999 59.7C71.4999 58.2 72.8999 56.9 74.4999 56.9C76.1999 56.9 77.4999 58.2 77.3999 59.7C77.3999 61.2 76.0999 62.5 74.4999 62.5ZM76.2999 55.1C76.2999 55.3 76.2999 55.6 76.3999 55.9C75.7999 55.6 75.0999 55.4 74.3999 55.4C72.2999 55.4 70.4999 56.9 70.0999 58.8C69.2999 58 68.1999 57.5 66.8999 57.5C65.2999 57.5 63.9999 58.3 63.1999 59.4C62.4999 57.8 60.9999 56.7 59.0999 56.7C58.0999 56.7 57.1999 57 56.4999 57.5C56.3999 55.3 54.4999 53.6 52.1999 53.6C51.5999 53.6 50.9999 53.8 50.3999 54C50.5999 53.5 50.6999 53 50.6999 52.5C50.6999 50.2 48.6999 48.3 46.2999 48.3H45.9999C46.2999 47.8 46.4999 47.1 46.4999 46.4C46.4999 44.4 44.8999 42.7 42.8999 42.3C43.8999 41.6 44.5999 40.4 44.5999 39C44.5999 37.3 43.5999 35.9 42.0999 35.2C43.4999 34.5 44.4999 33.1 44.4999 31.5C44.4999 30.2 43.8999 29.1 42.9999 28.3C45.1999 28 46.7999 26.3 46.7999 24.2C46.7999 23.4 46.5999 22.8 46.2999 22.2H46.6999C49.0999 22.2 51.0999 20.3 51.0999 18C51.0999 17.6 50.9999 17.2 50.8999 16.8C51.3999 17 51.9999 17.1 52.5999 17.1C54.9999 17.1 56.8999 15.4 56.9999 13.2C57.6999 13.7 58.5999 14 59.5999 14C61.4999 14 62.9999 12.9 63.6999 11.4C64.4999 12.5 65.8999 13.3 67.3999 13.3C68.6999 13.3 69.7999 12.8 70.5999 12C71.0999 13.8 72.7999 15.2 74.8999 15.2C75.5999 15.2 76.2999 15 76.8999 14.7C76.7999 14.9 76.7999 15.1 76.7999 15.3C76.7999 17.6 78.7999 19.5 81.1999 19.5C81.5999 19.5 82.0999 19.4 82.4999 19.3C82.1999 19.9 81.9999 20.5 81.9999 21.2C81.9999 23.4 83.6999 25.2 85.8999 25.4C85.3999 26.1 85.0999 26.9 85.0999 27.8C85.0999 29.8 86.5999 31.5 88.4999 31.9C87.1999 32.6 86.2999 34 86.2999 35.5C86.2999 36.8 86.8999 38 87.9999 38.8C86.2999 39.4 84.9999 40.9 84.9999 42.8C84.9999 43.7 85.2999 44.5 85.7999 45.2C83.3999 45.2 81.4999 47.1 81.4999 49.4C81.4999 49.9 81.5999 50.5 81.7999 51C81.3999 51 81.0999 50.9 80.6999 50.9C78.2999 50.9 76.2999 52.8 76.2999 55.1ZM80.8999 58C79.1999 58 77.8999 56.7 77.8999 55.2C77.8999 53.6 79.1999 52.4 80.8999 52.4C82.4999 52.4 83.7999 53.7 83.7999 55.2C83.7999 56.7 82.4999 58 80.8999 58ZM85.9999 52.3C84.3999 52.3 83.0999 51.1 83.0999 49.5C83.0999 48 84.3999 46.7 85.9999 46.7C87.5999 46.7 88.8999 47.9 88.9999 49.5C88.9999 51.1 87.5999 52.3 85.9999 52.3ZM89.4999 45.6C87.7999 45.6 86.4999 44.3 86.4999 42.8C86.4999 41.3 87.8999 40 89.4999 40C91.1999 40 92.4999 41.3 92.4999 42.8C92.4999 44.3 91.0999 45.6 89.4999 45.6ZM89.6999 37.1C88.9999 36.7 89.1999 36 89.0999 35.4C88.5999 36.1 88.6999 37.1 89.3999 37.5C89.9999 37.9 91.1999 38 91.5999 37.2C90.8999 37.5 90.2999 37.4 89.6999 37.1ZM88.8999 44.2C88.1999 43.8 88.3999 43.1 88.2999 42.5C87.7999 43.2 87.8999 44.1 88.5999 44.6C89.1999 45 90.3999 45.1 90.7999 44.3C90.0999 44.6 89.4999 44.5 88.8999 44.2ZM88.3999 29.7C88.9999 30.1 90.1999 30.2 90.5999 29.4C89.8999 29.7 89.2999 29.6 88.6999 29.3C87.9999 28.9 88.1999 28.2 88.0999 27.6C87.5999 28.4 87.6999 29.3 88.3999 29.7ZM87.7999 22.3C87.0999 22.6 86.4999 22.5 85.8999 22.2C85.1999 21.8 85.3999 21.2 85.2999 20.5C84.7999 21.2 84.8999 22.1 85.5999 22.6C86.1999 23 87.3999 23.1 87.7999 22.3ZM84.9999 50.6C84.2999 50.2 84.4999 49.5 84.3999 48.9C83.8999 49.6 83.9999 50.5 84.6999 51C85.2999 51.4 86.4999 51.5 86.8999 50.7C86.1999 51 85.5999 50.9 84.9999 50.6ZM80.3999 17C80.9999 17.4 82.1999 17.5 82.5999 16.7C81.8999 17 81.2999 16.9 80.6999 16.6C79.9999 16.2 80.1999 15.5 80.0999 14.9C79.4999 15.7 79.6999 16.6 80.3999 17ZM79.8999 56.5C79.1999 56.1 79.3999 55.4 79.2999 54.8C78.7999 55.5 78.8999 56.4 79.5999 56.9C80.1999 57.3 81.2999 57.4 81.7999 56.6C81.0999 56.9 80.4999 56.8 79.8999 56.5ZM73.6999 12.7C74.2999 13.1 75.4999 13.2 75.8999 12.4C75.1999 12.7 74.5999 12.6 73.9999 12.3C73.2999 11.9 73.4999 11.2 73.3999 10.6C72.8999 11.3 72.9999 12.3 73.6999 12.7ZM73.5999 61.1C72.8999 60.7 73.0999 60 72.9999 59.4C72.4999 60.1 72.5999 61 73.2999 61.5C73.8999 61.9 74.9999 62 75.4999 61.2C74.7999 61.5 74.1999 61.4 73.5999 61.1ZM66.0999 10.6C66.6999 11 67.8999 11.1 68.2999 10.3C67.5999 10.6 66.9999 10.5 66.3999 10.2C65.6999 9.8 65.8999 9.1 65.7999 8.5C65.2999 9.3 65.3999 10.2 66.0999 10.6ZM66.1999 62.9C65.4999 62.5 65.6999 61.8 65.5999 61.2C65.0999 61.9 65.1999 62.8 65.8999 63.3C66.4999 63.7 67.5999 63.7 68.0999 63C67.3999 63.3 66.7999 63.2 66.1999 62.9ZM58.4999 11.5C59.0999 11.9 60.2999 12 60.6999 11.2C59.9999 11.5 59.3999 11.4 58.7999 11.1C58.0999 10.7 58.2999 10 58.1999 9.4C57.6999 10.1 57.8999 11.1 58.4999 11.5ZM58.3999 62.3C57.6999 61.9 57.7999 61.2 57.7999 60.6C57.2999 61.3 57.3999 62.3 58.0999 62.7C58.6999 63.1 59.7999 63.2 60.2999 62.4C59.5999 62.7 58.9999 62.6 58.3999 62.3ZM51.4999 14.6C52.0999 15 53.2999 15.1 53.6999 14.3C52.9999 14.6 52.3999 14.5 51.7999 14.2C51.0999 13.8 51.2999 13.1 51.1999 12.5C50.6999 13.3 50.8999 14.2 51.4999 14.6ZM51.6999 59.2C50.9999 58.8 51.0999 58.1 51.0999 57.5C50.5999 58.2 50.6999 59.1 51.3999 59.6C51.9999 60 53.0999 60 53.5999 59.3C52.8999 59.6 52.2999 59.5 51.6999 59.2ZM48.1999 19.4C47.4999 19.7 46.8999 19.6 46.2999 19.3C45.5999 18.9 45.7999 18.2 45.6999 17.6C45.1999 18.3 45.2999 19.2 45.9999 19.7C46.5999 20.1 47.7999 20.2 48.1999 19.4ZM45.6999 53.7C44.9999 53.3 45.1999 52.6 45.0999 52C44.5999 52.7 44.6999 53.6 45.3999 54.1C45.9999 54.5 47.0999 54.6 47.5999 53.8C46.8999 54.1 46.2999 54 45.6999 53.7ZM41.6999 47.8C40.9999 47.4 41.1999 46.7 41.0999 46.1C40.5999 46.8 40.6999 47.7 41.3999 48.2C41.9999 48.6 43.0999 48.6 43.5999 47.9C42.8999 48.2 42.2999 48.1 41.6999 47.8ZM41.1999 25.7C41.7999 26.1 42.9999 26.2 43.3999 25.4C42.6999 25.7 42.0999 25.6 41.4999 25.3C40.7999 24.9 40.9999 24.2 40.8999 23.6C40.3999 24.4 40.5999 25.3 41.1999 25.7ZM41.6999 40.5C40.9999 40.8 40.3999 40.7 39.7999 40.4C39.0999 40 39.2999 39.3 39.1999 38.7C38.6999 39.4 38.7999 40.3 39.4999 40.8C40.0999 41.2 41.1999 41.2 41.6999 40.5ZM41.4999 32.9C40.7999 33.2 40.1999 33.1 39.5999 32.8C38.8999 32.4 39.0999 31.7 38.9999 31.1C38.4999 31.8 38.5999 32.8 39.2999 33.2C39.8999 33.6 40.9999 33.7 41.4999 32.9ZM85.8999 22.2C85.1999 21.8 85.3999 21.2 85.2999 20.5C84.7999 21.2 84.8999 22.1 85.5999 22.6C86.1999 23 87.3999 23.1 87.7999 22.3C87.0999 22.6 86.4999 22.5 85.8999 22.2ZM80.6999 16.6C79.9999 16.2 80.1999 15.5 80.0999 14.9C79.4999 15.7 79.6999 16.6 80.3999 17C80.9999 17.4 82.1999 17.5 82.5999 16.7C81.8999 17 81.2999 16.9 80.6999 16.6ZM73.9999 12.3C73.2999 11.9 73.4999 11.2 73.3999 10.6C72.8999 11.3 72.9999 12.3 73.6999 12.7C74.2999 13.1 75.4999 13.2 75.8999 12.4C75.1999 12.7 74.5999 12.6 73.9999 12.3ZM66.3999 10.2C65.6999 9.8 65.8999 9.1 65.7999 8.5C65.2999 9.3 65.3999 10.2 66.0999 10.6C66.6999 11 67.8999 11.1 68.2999 10.3C67.5999 10.6 66.9999 10.5 66.3999 10.2ZM58.7999 11.1C58.0999 10.7 58.2999 10 58.1999 9.4C57.6999 10.1 57.8999 11.1 58.4999 11.5C59.0999 11.9 60.2999 12 60.6999 11.2C59.9999 11.5 59.3999 11.4 58.7999 11.1ZM51.7999 14.2C51.0999 13.8 51.2999 13.1 51.1999 12.5C50.6999 13.3 50.8999 14.2 51.4999 14.6C52.0999 15 53.2999 15.1 53.6999 14.3C52.9999 14.6 52.3999 14.5 51.7999 14.2ZM46.2999 19.3C45.5999 18.9 45.7999 18.2 45.6999 17.6C45.1999 18.3 45.2999 19.2 45.9999 19.7C46.5999 20.1 47.7999 20.2 48.1999 19.4C47.4999 19.7 46.8999 19.6 46.2999 19.3ZM41.4999 25.3C40.7999 24.9 40.9999 24.2 40.8999 23.6C40.3999 24.4 40.5999 25.3 41.1999 25.7C41.7999 26.1 42.9999 26.2 43.3999 25.4C42.6999 25.7 42.0999 25.6 41.4999 25.3ZM39.5999 32.8C38.8999 32.4 39.0999 31.7 38.9999 31.1C38.4999 31.8 38.5999 32.8 39.2999 33.2C39.8999 33.6 40.9999 33.7 41.4999 32.9C40.7999 33.2 40.1999 33.1 39.5999 32.8ZM39.7999 40.4C39.0999 40 39.2999 39.3 39.1999 38.7C38.6999 39.4 38.7999 40.3 39.4999 40.8C40.0999 41.2 41.1999 41.2 41.6999 40.5C40.9999 40.8 40.3999 40.7 39.7999 40.4ZM41.6999 47.8C40.9999 47.4 41.1999 46.7 41.0999 46.1C40.5999 46.8 40.6999 47.7 41.3999 48.2C41.9999 48.6 43.0999 48.6 43.5999 47.9C42.8999 48.2 42.2999 48.1 41.6999 47.8ZM45.6999 53.7C44.9999 53.3 45.1999 52.6 45.0999 52C44.5999 52.7 44.6999 53.6 45.3999 54.1C45.9999 54.5 47.0999 54.6 47.5999 53.8C46.8999 54.1 46.2999 54 45.6999 53.7ZM51.6999 59.2C50.9999 58.8 51.0999 58.1 51.0999 57.5C50.5999 58.2 50.6999 59.1 51.3999 59.6C51.9999 60 53.0999 60 53.5999 59.3C52.8999 59.6 52.2999 59.5 51.6999 59.2ZM58.3999 62.3C57.6999 61.9 57.7999 61.2 57.7999 60.6C57.2999 61.3 57.3999 62.3 58.0999 62.7C58.6999 63.1 59.7999 63.2 60.2999 62.4C59.5999 62.7 58.9999 62.6 58.3999 62.3ZM66.1999 62.9C65.4999 62.5 65.6999 61.8 65.5999 61.2C65.0999 61.9 65.1999 62.8 65.8999 63.3C66.4999 63.7 67.5999 63.7 68.0999 63C67.3999 63.3 66.7999 63.2 66.1999 62.9ZM73.5999 61.1C72.8999 60.7 73.0999 60 72.9999 59.4C72.4999 60.1 72.5999 61 73.2999 61.5C73.8999 61.9 74.9999 62 75.4999 61.2C74.7999 61.5 74.1999 61.4 73.5999 61.1ZM79.8999 56.5C79.1999 56.1 79.3999 55.4 79.2999 54.8C78.7999 55.5 78.8999 56.4 79.5999 56.9C80.1999 57.3 81.2999 57.4 81.7999 56.6C81.0999 56.9 80.4999 56.8 79.8999 56.5ZM84.9999 50.6C84.2999 50.2 84.4999 49.5 84.3999 48.9C83.8999 49.6 83.9999 50.5 84.6999 51C85.2999 51.4 86.4999 51.5 86.8999 50.7C86.1999 51 85.5999 50.9 84.9999 50.6ZM88.8999 44.2C88.1999 43.8 88.3999 43.1 88.2999 42.5C87.7999 43.2 87.8999 44.1 88.5999 44.6C89.1999 45 90.3999 45.1 90.7999 44.3C90.0999 44.6 89.4999 44.5 88.8999 44.2ZM88.8999 44.2C88.1999 43.8 88.3999 43.1 88.2999 42.5C87.7999 43.2 87.8999 44.1 88.5999 44.6C89.1999 45 90.3999 45.1 90.7999 44.3C90.0999 44.6 89.4999 44.5 88.8999 44.2ZM85.8999 22.2C85.1999 21.8 85.3999 21.2 85.2999 20.5C84.7999 21.2 84.8999 22.1 85.5999 22.6C86.1999 23 87.3999 23.1 87.7999 22.3C87.0999 22.6 86.4999 22.5 85.8999 22.2ZM84.9999 50.6C84.2999 50.2 84.4999 49.5 84.3999 48.9C83.8999 49.6 83.9999 50.5 84.6999 51C85.2999 51.4 86.4999 51.5 86.8999 50.7C86.1999 51 85.5999 50.9 84.9999 50.6ZM80.6999 16.6C79.9999 16.2 80.1999 15.5 80.0999 14.9C79.4999 15.7 79.6999 16.6 80.3999 17C80.9999 17.4 82.1999 17.5 82.5999 16.7C81.8999 17 81.2999 16.9 80.6999 16.6ZM79.8999 56.5C79.1999 56.1 79.3999 55.4 79.2999 54.8C78.7999 55.5 78.8999 56.4 79.5999 56.9C80.1999 57.3 81.2999 57.4 81.7999 56.6C81.0999 56.9 80.4999 56.8 79.8999 56.5ZM73.9999 12.3C73.2999 11.9 73.4999 11.2 73.3999 10.6C72.8999 11.3 72.9999 12.3 73.6999 12.7C74.2999 13.1 75.4999 13.2 75.8999 12.4C75.1999 12.7 74.5999 12.6 73.9999 12.3ZM73.5999 61.1C72.8999 60.7 73.0999 60 72.9999 59.4C72.4999 60.1 72.5999 61 73.2999 61.5C73.8999 61.9 74.9999 62 75.4999 61.2C74.7999 61.5 74.1999 61.4 73.5999 61.1ZM66.3999 10.2C65.6999 9.8 65.8999 9.1 65.7999 8.5C65.2999 9.3 65.3999 10.2 66.0999 10.6C66.6999 11 67.8999 11.1 68.2999 10.3C67.5999 10.6 66.9999 10.5 66.3999 10.2ZM66.1999 62.9C65.4999 62.5 65.6999 61.8 65.5999 61.2C65.0999 61.9 65.1999 62.8 65.8999 63.3C66.4999 63.7 67.5999 63.7 68.0999 63C67.3999 63.3 66.7999 63.2 66.1999 62.9ZM58.7999 11.1C58.0999 10.7 58.2999 10 58.1999 9.4C57.6999 10.1 57.8999 11.1 58.4999 11.5C59.0999 11.9 60.2999 12 60.6999 11.2C59.9999 11.5 59.3999 11.4 58.7999 11.1ZM58.3999 62.3C57.6999 61.9 57.7999 61.2 57.7999 60.6C57.2999 61.3 57.3999 62.3 58.0999 62.7C58.6999 63.1 59.7999 63.2 60.2999 62.4C59.5999 62.7 58.9999 62.6 58.3999 62.3ZM51.7999 14.2C51.0999 13.8 51.2999 13.1 51.1999 12.5C50.6999 13.3 50.8999 14.2 51.4999 14.6C52.0999 15 53.2999 15.1 53.6999 14.3C52.9999 14.6 52.3999 14.5 51.7999 14.2ZM51.6999 59.2C50.9999 58.8 51.0999 58.1 51.0999 57.5C50.5999 58.2 50.6999 59.1 51.3999 59.6C51.9999 60 53.0999 60 53.5999 59.3C52.8999 59.6 52.2999 59.5 51.6999 59.2ZM46.2999 19.3C45.5999 18.9 45.7999 18.2 45.6999 17.6C45.1999 18.3 45.2999 19.2 45.9999 19.7C46.5999 20.1 47.7999 20.2 48.1999 19.4C47.4999 19.7 46.8999 19.6 46.2999 19.3ZM45.6999 53.7C44.9999 53.3 45.1999 52.6 45.0999 52C44.5999 52.7 44.6999 53.6 45.3999 54.1C45.9999 54.5 47.0999 54.6 47.5999 53.8C46.8999 54.1 46.2999 54 45.6999 53.7ZM41.6999 47.8C40.9999 47.4 41.1999 46.7 41.0999 46.1C40.5999 46.8 40.6999 47.7 41.3999 48.2C41.9999 48.6 43.0999 48.6 43.5999 47.9C42.8999 48.2 42.2999 48.1 41.6999 47.8ZM41.4999 25.3C40.7999 24.9 40.9999 24.2 40.8999 23.6C40.3999 24.4 40.5999 25.3 41.1999 25.7C41.7999 26.1 42.9999 26.2 43.3999 25.4C42.6999 25.7 42.0999 25.6 41.4999 25.3ZM39.7999 40.4C39.0999 40 39.2999 39.3 39.1999 38.7C38.6999 39.4 38.7999 40.3 39.4999 40.8C40.0999 41.2 41.1999 41.2 41.6999 40.5C40.9999 40.8 40.3999 40.7 39.7999 40.4ZM39.5999 32.8C38.8999 32.4 39.0999 31.7 38.9999 31.1C38.4999 31.8 38.5999 32.8 39.2999 33.2C39.8999 33.6 40.9999 33.7 41.4999 32.9C40.7999 33.2 40.1999 33.1 39.5999 32.8ZM85.8999 22.2C85.1999 21.8 85.3999 21.2 85.2999 20.5C84.7999 21.2 84.8999 22.1 85.5999 22.6C86.1999 23 87.3999 23.1 87.7999 22.3C87.0999 22.6 86.4999 22.5 85.8999 22.2ZM80.6999 16.6C79.9999 16.2 80.1999 15.5 80.0999 14.9C79.4999 15.7 79.6999 16.6 80.3999 17C80.9999 17.4 82.1999 17.5 82.5999 16.7C81.8999 17 81.2999 16.9 80.6999 16.6ZM73.9999 12.3C73.2999 11.9 73.4999 11.2 73.3999 10.6C72.8999 11.3 72.9999 12.3 73.6999 12.7C74.2999 13.1 75.4999 13.2 75.8999 12.4C75.1999 12.7 74.5999 12.6 73.9999 12.3ZM66.3999 10.2C65.6999 9.8 65.8999 9.1 65.7999 8.5C65.2999 9.3 65.3999 10.2 66.0999 10.6C66.6999 11 67.8999 11.1 68.2999 10.3C67.5999 10.6 66.9999 10.5 66.3999 10.2ZM58.7999 11.1C58.0999 10.7 58.2999 10 58.1999 9.4C57.6999 10.1 57.8999 11.1 58.4999 11.5C59.0999 11.9 60.2999 12 60.6999 11.2C59.9999 11.5 59.3999 11.4 58.7999 11.1ZM51.7999 14.2C51.0999 13.8 51.2999 13.1 51.1999 12.5C50.6999 13.3 50.8999 14.2 51.4999 14.6C52.0999 15 53.2999 15.1 53.6999 14.3C52.9999 14.6 52.3999 14.5 51.7999 14.2ZM46.2999 19.3C45.5999 18.9 45.7999 18.2 45.6999 17.6C45.1999 18.3 45.2999 19.2 45.9999 19.7C46.5999 20.1 47.7999 20.2 48.1999 19.4C47.4999 19.7 46.8999 19.6 46.2999 19.3ZM41.4999 25.3C40.7999 24.9 40.9999 24.2 40.8999 23.6C40.3999 24.4 40.5999 25.3 41.1999 25.7C41.7999 26.1 42.9999 26.2 43.3999 25.4C42.6999 25.7 42.0999 25.6 41.4999 25.3ZM39.5999 32.8C38.8999 32.4 39.0999 31.7 38.9999 31.1C38.4999 31.8 38.5999 32.8 39.2999 33.2C39.8999 33.6 40.9999 33.7 41.4999 32.9C40.7999 33.2 40.1999 33.1 39.5999 32.8ZM39.7999 40.4C39.0999 40 39.2999 39.3 39.1999 38.7C38.6999 39.4 38.7999 40.3 39.4999 40.8C40.0999 41.2 41.1999 41.2 41.6999 40.5C40.9999 40.8 40.3999 40.7 39.7999 40.4ZM41.6999 47.8C40.9999 47.4 41.1999 46.7 41.0999 46.1C40.5999 46.8 40.6999 47.7 41.3999 48.2C41.9999 48.6 43.0999 48.6 43.5999 47.9C42.8999 48.2 42.2999 48.1 41.6999 47.8ZM45.6999 53.7C44.9999 53.3 45.1999 52.6 45.0999 52C44.5999 52.7 44.6999 53.6 45.3999 54.1C45.9999 54.5 47.0999 54.6 47.5999 53.8C46.8999 54.1 46.2999 54 45.6999 53.7ZM51.6999 59.2C50.9999 58.8 51.0999 58.1 51.0999 57.5C50.5999 58.2 50.6999 59.1 51.3999 59.6C51.9999 60 53.0999 60 53.5999 59.3C52.8999 59.6 52.2999 59.5 51.6999 59.2ZM58.3999 62.3C57.6999 61.9 57.7999 61.2 57.7999 60.6C57.2999 61.3 57.3999 62.3 58.0999 62.7C58.6999 63.1 59.7999 63.2 60.2999 62.4C59.5999 62.7 58.9999 62.6 58.3999 62.3ZM66.1999 62.9C65.4999 62.5 65.6999 61.8 65.5999 61.2C65.0999 61.9 65.1999 62.8 65.8999 63.3C66.4999 63.7 67.5999 63.7 68.0999 63C67.3999 63.3 66.7999 63.2 66.1999 62.9ZM73.5999 61.1C72.8999 60.7 73.0999 60 72.9999 59.4C72.4999 60.1 72.5999 61 73.2999 61.5C73.8999 61.9 74.9999 62 75.4999 61.2C74.7999 61.5 74.1999 61.4 73.5999 61.1ZM79.8999 56.5C79.1999 56.1 79.3999 55.4 79.2999 54.8C78.7999 55.5 78.8999 56.4 79.5999 56.9C80.1999 57.3 81.2999 57.4 81.7999 56.6C81.0999 56.9 80.4999 56.8 79.8999 56.5ZM85.8999 22.2C85.1999 21.8 85.3999 21.2 85.2999 20.5C84.7999 21.2 84.8999 22.1 85.5999 22.6C86.1999 23 87.3999 23.1 87.7999 22.3C87.0999 22.6 86.4999 22.5 85.8999 22.2ZM80.6999 16.6C79.9999 16.2 80.1999 15.5 80.0999 14.9C79.4999 15.7 79.6999 16.6 80.3999 17C80.9999 17.4 82.1999 17.5 82.5999 16.7C81.8999 17 81.2999 16.9 80.6999 16.6ZM79.8999 56.5C79.1999 56.1 79.3999 55.4 79.2999 54.8C78.7999 55.5 78.8999 56.4 79.5999 56.9C80.1999 57.3 81.2999 57.4 81.7999 56.6C81.0999 56.9 80.4999 56.8 79.8999 56.5ZM73.9999 12.3C73.2999 11.9 73.4999 11.2 73.3999 10.6C72.8999 11.3 72.9999 12.3 73.6999 12.7C74.2999 13.1 75.4999 13.2 75.8999 12.4C75.1999 12.7 74.5999 12.6 73.9999 12.3ZM73.5999 61.1C72.8999 60.7 73.0999 60 72.9999 59.4C72.4999 60.1 72.5999 61 73.2999 61.5C73.8999 61.9 74.9999 62 75.4999 61.2C74.7999 61.5 74.1999 61.4 73.5999 61.1ZM66.3999 10.2C65.6999 9.8 65.8999 9.1 65.7999 8.5C65.2999 9.3 65.3999 10.2 66.0999 10.6C66.6999 11 67.8999 11.1 68.2999 10.3C67.5999 10.6 66.9999 10.5 66.3999 10.2ZM66.1999 62.9C65.4999 62.5 65.6999 61.8 65.5999 61.2C65.0999 61.9 65.1999 62.8 65.8999 63.3C66.4999 63.7 67.5999 63.7 68.0999 63C67.3999 63.3 66.7999 63.2 66.1999 62.9ZM58.7999 11.1C58.0999 10.7 58.2999 10 58.1999 9.4C57.6999 10.1 57.8999 11.1 58.4999 11.5C59.0999 11.9 60.2999 12 60.6999 11.2C59.9999 11.5 59.3999 11.4 58.7999 11.1ZM58.3999 62.3C57.6999 61.9 57.7999 61.2 57.7999 60.6C57.2999 61.3 57.3999 62.3 58.0999 62.7C58.6999 63.1 59.7999 63.2 60.2999 62.4C59.5999 62.7 58.9999 62.6 58.3999 62.3ZM51.7999 14.2C51.0999 13.8 51.2999 13.1 51.1999 12.5C50.6999 13.3 50.8999 14.2 51.4999 14.6C52.0999 15 53.2999 15.1 53.6999 14.3C52.9999 14.6 52.3999 14.5 51.7999 14.2ZM51.6999 59.2C50.9999 58.8 51.0999 58.1 51.0999 57.5C50.5999 58.2 50.6999 59.1 51.3999 59.6C51.9999 60 53.0999 60 53.5999 59.3C52.8999 59.6 52.2999 59.5 51.6999 59.2ZM46.2999 19.3C45.5999 18.9 45.7999 18.2 45.6999 17.6C45.1999 18.3 45.2999 19.2 45.9999 19.7C46.5999 20.1 47.7999 20.2 48.1999 19.4C47.4999 19.7 46.8999 19.6 46.2999 19.3ZM45.6999 53.7C44.9999 53.3 45.1999 52.6 45.0999 52C44.5999 52.7 44.6999 53.6 45.3999 54.1C45.9999 54.5 47.0999 54.6 47.5999 53.8C46.8999 54.1 46.2999 54 45.6999 53.7ZM41.6999 47.8C40.9999 47.4 41.1999 46.7 41.0999 46.1C40.5999 46.8 40.6999 47.7 41.3999 48.2C41.9999 48.6 43.0999 48.6 43.5999 47.9C42.8999 48.2 42.2999 48.1 41.6999 47.8ZM41.4999 25.3C40.7999 24.9 40.9999 24.2 40.8999 23.6C40.3999 24.4 40.5999 25.3 41.1999 25.7C41.7999 26.1 42.9999 26.2 43.3999 25.4C42.6999 25.7 42.0999 25.6 41.4999 25.3ZM39.7999 40.4C39.0999 40 39.2999 39.3 39.1999 38.7C38.6999 39.4 38.7999 40.3 39.4999 40.8C40.0999 41.2 41.1999 41.2 41.6999 40.5C40.9999 40.8 40.3999 40.7 39.7999 40.4ZM39.5999 32.8C38.8999 32.4 39.0999 31.7 38.9999 31.1C38.4999 31.8 38.5999 32.8 39.2999 33.2C39.8999 33.6 40.9999 33.7 41.4999 32.9C40.7999 33.2 40.1999 33.1 39.5999 32.8ZM85.8999 22.2C85.1999 21.8 85.3999 21.2 85.2999 20.5C84.7999 21.2 84.8999 22.1 85.5999 22.6C86.1999 23 87.3999 23.1 87.7999 22.3C87.0999 22.6 86.4999 22.5 85.8999 22.2ZM80.6999 16.6C79.9999 16.2 80.1999 15.5 80.0999 14.9C79.4999 15.7 79.6999 16.6 80.3999 17C80.9999 17.4 82.1999 17.5 82.5999 16.7C81.8999 17 81.2999 16.9 80.6999 16.6ZM73.9999 12.3C73.2999 11.9 73.4999 11.2 73.3999 10.6C72.8999 11.3 72.9999 12.3 73.6999 12.7C74.2999 13.1 75.4999 13.2 75.8999 12.4C75.1999 12.7 74.5999 12.6 73.9999 12.3ZM66.3999 10.2C65.6999 9.8 65.8999 9.1 65.7999 8.5C65.2999 9.3 65.3999 10.2 66.0999 10.6C66.6999 11 67.8999 11.1 68.2999 10.3C67.5999 10.6 66.9999 10.5 66.3999 10.2ZM58.7999 11.1C58.0999 10.7 58.2999 10 58.1999 9.4C57.6999 10.1 57.8999 11.1 58.4999 11.5C59.0999 11.9 60.2999 12 60.6999 11.2C59.9999 11.5 59.3999 11.4 58.7999 11.1ZM51.7999 14.2C51.0999 13.8 51.2999 13.1 51.1999 12.5C50.6999 13.3 50.8999 14.2 51.4999 14.6C52.0999 15 53.2999 15.1 53.6999 14.3C52.9999 14.6 52.3999 14.5 51.7999 14.2ZM46.2999 19.3C45.5999 18.9 45.7999 18.2 45.6999 17.6C45.1999 18.3 45.2999 19.2 45.9999 19.7C46.5999 20.1 47.7999 20.2 48.1999 19.4C47.4999 19.7 46.8999 19.6 46.2999 19.3ZM41.4999 25.3C40.7999 24.9 40.9999 24.2 40.8999 23.6C40.3999 24.4 40.5999 25.3 41.1999 25.7C41.7999 26.1 42.9999 26.2 43.3999 25.4C42.6999 25.7 42.0999 25.6 41.4999 25.3ZM39.5999 32.8C38.8999 32.4 39.0999 31.7 38.9999 31.1C38.4999 31.8 38.5999 32.8 39.2999 33.2C39.8999 33.6 40.9999 33.7 41.4999 32.9C40.7999 33.2 40.1999 33.1 39.5999 32.8ZM39.7999 40.4C39.0999 40 39.2999 39.3 39.1999 38.7C38.6999 39.4 38.7999 40.3 39.4999 40.8C40.0999 41.2 41.1999 41.2 41.6999 40.5C40.9999 40.8 40.3999 40.7 39.7999 40.4ZM41.6999 47.8C40.9999 47.4 41.1999 46.7 41.0999 46.1C40.5999 46.8 40.6999 47.7 41.3999 48.2C41.9999 48.6 43.0999 48.6 43.5999 47.9C42.8999 48.2 42.2999 48.1 41.6999 47.8ZM45.6999 53.7C44.9999 53.3 45.1999 52.6 45.0999 52C44.5999 52.7 44.6999 53.6 45.3999 54.1C45.9999 54.5 47.0999 54.6 47.5999 53.8C46.8999 54.1 46.2999 54 45.6999 53.7ZM51.6999 59.2C50.9999 58.8 51.0999 58.1 51.0999 57.5C50.5999 58.2 50.6999 59.1 51.3999 59.6C51.9999 60 53.0999 60 53.5999 59.3C52.8999 59.6 52.2999 59.5 51.6999 59.2ZM58.3999 62.3C57.6999 61.9 57.7999 61.2 57.7999 60.6C57.2999 61.3 57.3999 62.3 58.0999 62.7C58.6999 63.1 59.7999 63.2 60.2999 62.4C59.5999 62.7 58.9999 62.6 58.3999 62.3ZM66.1999 62.9C65.4999 62.5 65.6999 61.8 65.5999 61.2C65.0999 61.9 65.1999 62.8 65.8999 63.3C66.4999 63.7 67.5999 63.7 68.0999 63C67.3999 63.3 66.7999 63.2 66.1999 62.9ZM85.8999 22.2C85.1999 21.8 85.3999 21.2 85.2999 20.5C84.7999 21.2 84.8999 22.1 85.5999 22.6C86.1999 23 87.3999 23.1 87.7999 22.3C87.0999 22.6 86.4999 22.5 85.8999 22.2ZM80.6999 16.6C79.9999 16.2 80.1999 15.5 80.0999 14.9C79.4999 15.7 79.6999 16.6 80.3999 17C80.9999 17.4 82.1999 17.5 82.5999 16.7C81.8999 17 81.2999 16.9 80.6999 16.6ZM73.9999 12.3C73.2999 11.9 73.4999 11.2 73.3999 10.6C72.8999 11.3 72.9999 12.3 73.6999 12.7C74.2999 13.1 75.4999 13.2 75.8999 12.4C75.1999 12.7 74.5999 12.6 73.9999 12.3ZM66.3999 10.2C65.6999 9.8 65.8999 9.1 65.7999 8.5C65.2999 9.3 65.3999 10.2 66.0999 10.6C66.6999 11 67.8999 11.1 68.2999 10.3C67.5999 10.6 66.9999 10.5 66.3999 10.2ZM66.1999 62.9C65.4999 62.5 65.6999 61.8 65.5999 61.2C65.0999 61.9 65.1999 62.8 65.8999 63.3C66.4999 63.7 67.5999 63.7 68.0999 63C67.3999 63.3 66.7999 63.2 66.1999 62.9ZM58.7999 11.1C58.0999 10.7 58.2999 10 58.1999 9.4C57.6999 10.1 57.8999 11.1 58.4999 11.5C59.0999 11.9 60.2999 12 60.6999 11.2C59.9999 11.5 59.3999 11.4 58.7999 11.1ZM58.3999 62.3C57.6999 61.9 57.7999 61.2 57.7999 60.6C57.2999 61.3 57.3999 62.3 58.0999 62.7C58.6999 63.1 59.7999 63.2 60.2999 62.4C59.5999 62.7 58.9999 62.6 58.3999 62.3ZM51.7999 14.2C51.0999 13.8 51.2999 13.1 51.1999 12.5C50.6999 13.3 50.8999 14.2 51.4999 14.6C52.0999 15 53.2999 15.1 53.6999 14.3C52.9999 14.6 52.3999 14.5 51.7999 14.2ZM51.6999 59.2C50.9999 58.8 51.0999 58.1 51.0999 57.5C50.5999 58.2 50.6999 59.1 51.3999 59.6C51.9999 60 53.0999 60 53.5999 59.3C52.8999 59.6 52.2999 59.5 51.6999 59.2ZM46.2999 19.3C45.5999 18.9 45.7999 18.2 45.6999 17.6C45.1999 18.3 45.2999 19.2 45.9999 19.7C46.5999 20.1 47.7999 20.2 48.1999 19.4C47.4999 19.7 46.8999 19.6 46.2999 19.3ZM45.6999 53.7C44.9999 53.3 45.1999 52.6 45.0999 52C44.5999 52.7 44.6999 53.6 45.3999 54.1C45.9999 54.5 47.0999 54.6 47.5999 53.8C46.8999 54.1 46.2999 54 45.6999 53.7ZM41.6999 47.8C40.9999 47.4 41.1999 46.7 41.0999 46.1C40.5999 46.8 40.6999 47.7 41.3999 48.2C41.9999 48.6 43.0999 48.6 43.5999 47.9C42.8999 48.2 42.2999 48.1 41.6999 47.8ZM41.4999 25.3C40.7999 24.9 40.9999 24.2 40.8999 23.6C40.3999 24.4 40.5999 25.3 41.1999 25.7C41.7999 26.1 42.9999 26.2 43.3999 25.4C42.6999 25.7 42.0999 25.6 41.4999 25.3ZM39.7999 40.4C39.0999 40 39.2999 39.3 39.1999 38.7C38.6999 39.4 38.7999 40.3 39.4999 40.8C40.0999 41.2 41.1999 41.2 41.6999 40.5C40.9999 40.8 40.3999 40.7 39.7999 40.4ZM39.5999 32.8C38.8999 32.4 39.0999 31.7 38.9999 31.1C38.4999 31.8 38.5999 32.8 39.2999 33.2C39.8999 33.6 40.9999 33.7 41.4999 32.9C40.7999 33.2 40.1999 33.1 39.5999 32.8ZM85.8999 22.2C85.1999 21.8 85.3999 21.2 85.2999 20.5C84.7999 21.2 84.8999 22.1 85.5999 22.6C86.1999 23 87.3999 23.1 87.7999 22.3C87.0999 22.6 86.4999 22.5 85.8999 22.2ZM80.6999 16.6C79.9999 16.2 80.1999 15.5 80.0999 14.9C79.4999 15.7 79.6999 16.6 80.3999 17C80.9999 17.4 82.1999 17.5 82.5999 16.7C81.8999 17 81.2999 16.9 80.6999 16.6ZM73.9999 12.3C73.2999 11.9 73.4999 11.2 73.3999 10.6C72.8999 11.3 72.9999 12.3 73.6999 12.7C74.2999 13.1 75.4999 13.2 75.8999 12.4C75.1999 12.7 74.5999 12.6 73.9999 12.3ZM66.3999 10.2C65.6999 9.8 65.8999 9.1 65.7999 8.5C65.2999 9.3 65.3999 10.2 66.0999 10.6C66.6999 11 67.8999 11.1 68.2999 10.3C67.5999 10.6 66.9999 10.5 66.3999 10.2ZM58.7999 11.1C58.0999 10.7 58.2999 10 58.1999 9.4C57.6999 10.1 57.8999 11.1 58.4999 11.5C59.0999 11.9 60.2999 12 60.6999 11.2C59.9999 11.5 59.3999 11.4 58.7999 11.1ZM51.7999 14.2C51.0999 13.8 51.2999 13.1 51.1999 12.5C50.6999 13.3 50.8999 14.2 51.4999 14.6C52.0999 15 53.2999 15.1 53.6999 14.3C52.9999 14.6 52.3999 14.5 51.7999 14.2ZM46.2999 19.3C45.5999 18.9 45.7999 18.2 45.6999 17.6C45.1999 18.3 45.2999 19.2 45.9999 19.7C46.5999 20.1 47.7999 20.2 48.1999 19.4C47.4999 19.7 46.8999 19.6 46.2999 19.3ZM41.4999 25.3C40.7999 24.9 40.9999 24.2 40.8999 23.6C40.3999 24.4 40.5999 25.3 41.1999 25.7C41.7999 26.1 42.9999 26.2 43.3999 25.4C42.6999 25.7 42.0999 25.6 41.4999 25.3ZM39.5999 32.8C38.8999 32.4 39.0999 31.7 38.9999 31.1C38.4999 31.8 38.5999 32.8 39.2999 33.2C39.8999 33.6 40.9999 33.7 41.4999 32.9C40.7999 33.2 40.1999 33.1 39.5999 32.8ZM39.7999 40.4C39.0999 40 39.2999 39.3 39.1999 38.7C38.6999 39.4 38.7999 40.3 39.4999 40.8C40.0999 41.2 41.1999 41.2 41.6999 40.5C40.9999 40.8 40.3999 40.7 39.7999 40.4ZM41.6999 47.8C40.9999 47.4 41.1999 46.7 41.0999 46.1C40.5999 46.8 40.6999 47.7 41.3999 48.2C41.9999 48.6 43.0999 48.6 43.5999 47.9C42.8999 48.2 42.2999 48.1 41.6999 47.8ZM45.6999 53.7C44.9999 53.3 45.1999 52.6 45.0999 52C44.5999 52.7 44.6999 53.6 45.3999 54.1C45.9999 54.5 47.0999 54.6 47.5999 53.8C46.8999 54.1 46.2999 54 45.6999 53.7ZM51.6999 59.2C50.9999 58.8 51.0999 58.1 51.0999 57.5C50.5999 58.2 50.6999 59.1 51.3999 59.6C51.9999 60 53.0999 60 53.5999 59.3C52.8999 59.6 52.2999 59.5 51.6999 59.2ZM85.8999 22.2C85.1999 21.8 85.3999 21.2 85.2999 20.5C84.7999 21.2 84.8999 22.1 85.5999 22.6C86.1999 23 87.3999 23.1 87.7999 22.3C87.0999 22.6 86.4999 22.5 85.8999 22.2ZM80.6999 16.6C79.9999 16.2 80.1999 15.5 80.0999 14.9C79.4999 15.7 79.6999 16.6 80.3999 17C80.9999 17.4 82.1999 17.5 82.5999 16.7C81.8999 17 81.2999 16.9 80.6999 16.6ZM73.9999 12.3C73.2999 11.9 73.4999 11.2 73.3999 10.6C72.8999 11.3 72.9999 12.3 73.6999 12.7C74.2999 13.1 75.4999 13.2 75.8999 12.4C75.1999 12.7 74.5999 12.6 73.9999 12.3ZM66.3999 10.2C65.6999 9.8 65.8999 9.1 65.7999 8.5C65.2999 9.3 65.3999 10.2 66.0999 10.6C66.6999 11 67.8999 11.1 68.2999 10.3C67.5999 10.6 66.9999 10.5 66.3999 10.2ZM58.7999 11.1C58.0999 10.7 58.2999 10 58.1999 9.4C57.6999 10.1 57.8999 11.1 58.4999 11.5C59.0999 11.9 60.2999 12 60.6999 11.2C59.9999 11.5 59.3999 11.4 58.7999 11.1ZM51.7999 14.2C51.0999 13.8 51.2999 13.1 51.1999 12.5C50.6999 13.3 50.8999 14.2 51.4999 14.6C52.0999 15 53.2999 15.1 53.6999 14.3C52.9999 14.6 52.3999 14.5 51.7999 14.2ZM51.6999 59.2C50.9999 58.8 51.0999 58.1 51.0999 57.5C50.5999 58.2 50.6999 59.1 51.3999 59.6C51.9999 60 53.0999 60 53.5999 59.3C52.8999 59.6 52.2999 59.5 51.6999 59.2ZM46.2999 19.3C45.5999 18.9 45.7999 18.2 45.6999 17.6C45.1999 18.3 45.2999 19.2 45.9999 19.7C46.5999 20.1 47.7999 20.2 48.1999 19.4C47.4999 19.7 46.8999 19.6 46.2999 19.3ZM45.6999 53.7C44.9999 53.3 45.1999 52.6 45.0999 52C44.5999 52.7 44.6999 53.6 45.3999 54.1C45.9999 54.5 47.0999 54.6 47.5999 53.8C46.8999 54.1 46.2999 54 45.6999 53.7ZM41.6999 47.8C40.9999 47.4 41.1999 46.7 41.0999 46.1C40.5999 46.8 40.6999 47.7 41.3999 48.2C41.9999 48.6 43.0999 48.6 43.5999 47.9C42.8999 48.2 42.2999 48.1 41.6999 47.8ZM41.4999 25.3C40.7999 24.9 40.9999 24.2 40.8999 23.6C40.3999 24.4 40.5999 25.3 41.1999 25.7C41.7999 26.1 42.9999 26.2 43.3999 25.4C42.6999 25.7 42.0999 25.6 41.4999 25.3ZM39.7999 40.4C39.0999 40 39.2999 39.3 39.1999 38.7C38.6999 39.4 38.7999 40.3 39.4999 40.8C40.0999 41.2 41.1999 41.2 41.6999 40.5C40.9999 40.8 40.3999 40.7 39.7999 40.4ZM39.5999 32.8C38.8999 32.4 39.0999 31.7 38.9999 31.1C38.4999 31.8 38.5999 32.8 39.2999 33.2C39.8999 33.6 40.9999 33.7 41.4999 32.9C40.7999 33.2 40.1999 33.1 39.5999 32.8ZM85.8999 22.2C85.1999 21.8 85.3999 21.2 85.2999 20.5C84.7999 21.2 84.8999 22.1 85.5999 22.6C86.1999 23 87.3999 23.1 87.7999 22.3C87.0999 22.6 86.4999 22.5 85.8999 22.2ZM80.6999 16.6C79.9999 16.2 80.1999 15.5 80.0999 14.9C79.4999 15.7 79.6999 16.6 80.3999 17C80.9999 17.4 82.1999 17.5 82.5999 16.7C81.8999 17 81.2999 16.9 80.6999 16.6ZM73.9999 12.3C73.2999 11.9 73.4999 11.2 73.3999 10.6C72.8999 11.3 72.9999 12.3 73.6999 12.7C74.2999 13.1 75.4999 13.2 75.8999 12.4C75.1999 12.7 74.5999 12.6 73.9999 12.3ZM66.3999 10.2C65.6999 9.8 65.8999 9.1 65.7999 8.5C65.2999 9.3 65.3999 10.2 66.0999 10.6C66.6999 11 67.8999 11.1 68.2999 10.3C67.5999 10.6 66.9999 10.5 66.3999 10.2ZM58.7999 11.1C58.0999 10.7 58.2999 10 58.1999 9.4C57.6999 10.1 57.8999 11.1 58.4999 11.5C59.0999 11.9 60.2999 12 60.6999 11.2C59.9999 11.5 59.3999 11.4 58.7999 11.1ZM51.7999 14.2C51.0999 13.8 51.2999 13.1 51.1999 12.5C50.6999 13.3 50.8999 14.2 51.4999 14.6C52.0999 15 53.2999 15.1 53.6999 14.3C52.9999 14.6 52.3999 14.5 51.7999 14.2ZM46.2999 19.3C45.5999 18.9 45.7999 18.2 45.6999 17.6C45.1999 18.3 45.2999 19.2 45.9999 19.7C46.5999 20.1 47.7999 20.2 48.1999 19.4C47.4999 19.7 46.8999 19.6 46.2999 19.3ZM41.4999 25.3C40.7999 24.9 40.9999 24.2 40.8999 23.6C40.3999 24.4 40.5999 25.3 41.1999 25.7C41.7999 26.1 42.9999 26.2 43.3999 25.4C42.6999 25.7 42.0999 25.6 41.4999 25.3ZM39.5999 32.8C38.8999 32.4 39.0999 31.7 38.9999 31.1C38.4999 31.8 38.5999 32.8 39.2999 33.2C39.8999 33.6 40.9999 33.7 41.4999 32.9C40.7999 33.2 40.1999 33.1 39.5999 32.8ZM39.7999 40.4C39.0999 40 39.2999 39.3 39.1999 38.7C38.6999 39.4 38.7999 40.3 39.4999 40.8C40.0999 41.2 41.1999 41.2 41.6999 40.5C40.9999 40.8 40.3999 40.7 39.7999 40.4ZM41.6999 47.8C40.9999 47.4 41.1999 46.7 41.0999 46.1C40.5999 46.8 40.6999 47.7 41.3999 48.2C41.9999 48.6 43.0999 48.6 43.5999 47.9C42.8999 48.2 42.2999 48.1 41.6999 47.8ZM85.8999 22.2C85.1999 21.8 85.3999 21.2 85.2999 20.5C84.7999 21.2 84.8999 22.1 85.5999 22.6C86.1999 23 87.3999 23.1 87.7999 22.3C87.0999 22.6 86.4999 22.5 85.8999 22.2ZM80.6999 16.6C79.9999 16.2 80.1999 15.5 80.0999 14.9C79.4999 15.7 79.6999 16.6 80.3999 17C80.9999 17.4 82.1999 17.5 82.5999 16.7C81.8999 17 81.2999 16.9 80.6999 16.6ZM73.9999 12.3C73.2999 11.9 73.4999 11.2 73.3999 10.6C72.8999 11.3 72.9999 12.3 73.6999 12.7C74.2999 13.1 75.4999 13.2 75.8999 12.4C75.1999 12.7 74.5999 12.6 73.9999 12.3ZM66.3999 10.2C65.6999 9.8 65.8999 9.1 65.7999 8.5C65.2999 9.3 65.3999 10.2 66.0999 10.6C66.6999 11 67.8999 11.1 68.2999 10.3C67.5999 10.6 66.9999 10.5 66.3999 10.2ZM58.7999 11.1C58.0999 10.7 58.2999 10 58.1999 9.4C57.6999 10.1 57.8999 11.1 58.4999 11.5C59.0999 11.9 60.2999 12 60.6999 11.2C59.9999 11.5 59.3999 11.4 58.7999 11.1ZM51.7999 14.2C51.0999 13.8 51.2999 13.1 51.1999 12.5C50.6999 13.3 50.8999 14.2 51.4999 14.6C52.0999 15 53.2999 15.1 53.6999 14.3C52.9999 14.6 52.3999 14.5 51.7999 14.2ZM46.2999 19.3C45.5999 18.9 45.7999 18.2 45.6999 17.6C45.1999 18.3 45.2999 19.2 45.9999 19.7C46.5999 20.1 47.7999 20.2 48.1999 19.4C47.4999 19.7 46.8999 19.6 46.2999 19.3ZM41.6999 47.8C40.9999 47.4 41.1999 46.7 41.0999 46.1C40.5999 46.8 40.6999 47.7 41.3999 48.2C41.9999 48.6 43.0999 48.6 43.5999 47.9C42.8999 48.2 42.2999 48.1 41.6999 47.8ZM41.4999 25.3C40.7999 24.9 40.9999 24.2 40.8999 23.6C40.3999 24.4 40.5999 25.3 41.1999 25.7C41.7999 26.1 42.9999 26.2 43.3999 25.4C42.6999 25.7 42.0999 25.6 41.4999 25.3ZM39.7999 40.4C39.0999 40 39.2999 39.3 39.1999 38.7C38.6999 39.4 38.7999 40.3 39.4999 40.8C40.0999 41.2 41.1999 41.2 41.6999 40.5C40.9999 40.8 40.3999 40.7 39.7999 40.4ZM39.5999 32.8C38.8999 32.4 39.0999 31.7 38.9999 31.1C38.4999 31.8 38.5999 32.8 39.2999 33.2C39.8999 33.6 40.9999 33.7 41.4999 32.9C40.7999 33.2 40.1999 33.1 39.5999 32.8ZM85.8999 22.2C85.1999 21.8 85.3999 21.2 85.2999 20.5C84.7999 21.2 84.8999 22.1 85.5999 22.6C86.1999 23 87.3999 23.1 87.7999 22.3C87.0999 22.6 86.4999 22.5 85.8999 22.2ZM80.6999 16.6C79.9999 16.2 80.1999 15.5 80.0999 14.9C79.4999 15.7 79.6999 16.6 80.3999 17C80.9999 17.4 82.1999 17.5 82.5999 16.7C81.8999 17 81.2999 16.9 80.6999 16.6ZM73.9999 12.3C73.2999 11.9 73.4999 11.2 73.3999 10.6C72.8999 11.3 72.9999 12.3 73.6999 12.7C74.2999 13.1 75.4999 13.2 75.8999 12.4C75.1999 12.7 74.5999 12.6 73.9999 12.3ZM66.3999 10.2C65.6999 9.8 65.8999 9.1 65.7999 8.5C65.2999 9.3 65.3999 10.2 66.0999 10.6C66.6999 11 67.8999 11.1 68.2999 10.3C67.5999 10.6 66.9999 10.5 66.3999 10.2ZM58.7999 11.1C58.0999 10.7 58.2999 10 58.1999 9.4C57.6999 10.1 57.8999 11.1 58.4999 11.5C59.0999 11.9 60.2999 12 60.6999 11.2C59.9999 11.5 59.3999 11.4 58.7999 11.1ZM51.7999 14.2C51.0999 13.8 51.2999 13.1 51.1999 12.5C50.6999 13.3 50.8999 14.2 51.4999 14.6C52.0999 15 53.2999 15.1 53.6999 14.3C52.9999 14.6 52.3999 14.5 51.7999 14.2ZM46.2999 19.3C45.5999 18.9 45.7999 18.2 45.6999 17.6C45.1999 18.3 45.2999 19.2 45.9999 19.7C46.5999 20.1 47.7999 20.2 48.1999 19.4C47.4999 19.7 46.8999 19.6 46.2999 19.3ZM41.4999 25.3C40.7999 24.9 40.9999 24.2 40.8999 23.6C40.3999 24.4 40.5999 25.3 41.1999 25.7C41.7999 26.1 42.9999 26.2 43.3999 25.4C42.6999 25.7 42.0999 25.6 41.4999 25.3ZM39.5999 32.8C38.8999 32.4 39.0999 31.7 38.9999 31.1C38.4999 31.8 38.5999 32.8 39.2999 33.2C39.8999 33.6 40.9999 33.7 41.4999 32.9C40.7999 33.2 40.1999 33.1 39.5999 32.8ZM85.8999 22.2C85.1999 21.8 85.3999 21.2 85.2999 20.5C84.7999 21.2 84.8999 22.1 85.5999 22.6C86.1999 23 87.3999 23.1 87.7999 22.3C87.0999 22.6 86.4999 22.5 85.8999 22.2ZM80.6999 16.6C79.9999 16.2 80.1999 15.5 80.0999 14.9C79.4999 15.7 79.6999 16.6 80.3999 17C80.9999 17.4 82.1999 17.5 82.5999 16.7C81.8999 17 81.2999 16.9 80.6999 16.6ZM73.9999 12.3C73.2999 11.9 73.4999 11.2 73.3999 10.6C72.8999 11.3 72.9999 12.3 73.6999 12.7C74.2999 13.1 75.4999 13.2 75.8999 12.4C75.1999 12.7 74.5999 12.6 73.9999 12.3ZM66.3999 10.2C65.6999 9.8 65.8999 9.1 65.7999 8.5C65.2999 9.3 65.3999 10.2 66.0999 10.6C66.6999 11 67.8999 11.1 68.2999 10.3C67.5999 10.6 66.9999 10.5 66.3999 10.2ZM58.7999 11.1C58.0999 10.7 58.2999 10 58.1999 9.4C57.6999 10.1 57.8999 11.1 58.4999 11.5C59.0999 11.9 60.2999 12 60.6999 11.2C59.9999 11.5 59.3999 11.4 58.7999 11.1ZM51.7999 14.2C51.0999 13.8 51.2999 13.1 51.1999 12.5C50.6999 13.3 50.8999 14.2 51.4999 14.6C52.0999 15 53.2999 15.1 53.6999 14.3C52.9999 14.6 52.3999 14.5 51.7999 14.2ZM46.2999 19.3C45.5999 18.9 45.7999 18.2 45.6999 17.6C45.1999 18.3 45.2999 19.2 45.9999 19.7C46.5999 20.1 47.7999 20.2 48.1999 19.4C47.4999 19.7 46.8999 19.6 46.2999 19.3ZM41.4999 25.3C40.7999 24.9 40.9999 24.2 40.8999 23.6C40.3999 24.4 40.5999 25.3 41.1999 25.7C41.7999 26.1 42.9999 26.2 43.3999 25.4C42.6999 25.7 42.0999 25.6 41.4999 25.3ZM39.5999 32.8C38.8999 32.4 39.0999 31.7 38.9999 31.1C38.4999 31.8 38.5999 32.8 39.2999 33.2C39.8999 33.6 40.9999 33.7 41.4999 32.9C40.7999 33.2 40.1999 33.1 39.5999 32.8ZM85.8999 22.2C85.1999 21.8 85.3999 21.2 85.2999 20.5C84.7999 21.2 84.8999 22.1 85.5999 22.6C86.1999 23 87.3999 23.1 87.7999 22.3C87.0999 22.6 86.4999 22.5 85.8999 22.2ZM80.6999 16.6C79.9999 16.2 80.1999 15.5 80.0999 14.9C79.4999 15.7 79.6999 16.6 80.3999 17C80.9999 17.4 82.1999 17.5 82.5999 16.7C81.8999 17 81.2999 16.9 80.6999 16.6ZM73.9999 12.3C73.2999 11.9 73.4999 11.2 73.3999 10.6C72.8999 11.3 72.9999 12.3 73.6999 12.7C74.2999 13.1 75.4999 13.2 75.8999 12.4C75.1999 12.7 74.5999 12.6 73.9999 12.3ZM66.3999 10.2C65.6999 9.8 65.8999 9.1 65.7999 8.5C65.2999 9.3 65.3999 10.2 66.0999 10.6C66.6999 11 67.8999 11.1 68.2999 10.3C67.5999 10.6 66.9999 10.5 66.3999 10.2ZM58.7999 11.1C58.0999 10.7 58.2999 10 58.1999 9.4C57.6999 10.1 57.8999 11.1 58.4999 11.5C59.0999 11.9 60.2999 12 60.6999 11.2C59.9999 11.5 59.3999 11.4 58.7999 11.1ZM51.7999 14.2C51.0999 13.8 51.2999 13.1 51.1999 12.5C50.6999 13.3 50.8999 14.2 51.4999 14.6C52.0999 15 53.2999 15.1 53.6999 14.3C52.9999 14.6 52.3999 14.5 51.7999 14.2ZM46.2999 19.3C45.5999 18.9 45.7999 18.2 45.6999 17.6C45.1999 18.3 45.2999 19.2 45.9999 19.7C46.5999 20.1 47.7999 20.2 48.1999 19.4C47.4999 19.7 46.8999 19.6 46.2999 19.3ZM85.8999 22.2C85.1999 21.8 85.3999 21.2 85.2999 20.5C84.7999 21.2 84.8999 22.1 85.5999 22.6C86.1999 23 87.3999 23.1 87.7999 22.3C87.0999 22.6 86.4999 22.5 85.8999 22.2ZM80.6999 16.6C79.9999 16.2 80.1999 15.5 80.0999 14.9C79.4999 15.7 79.6999 16.6 80.3999 17C80.9999 17.4 82.1999 17.5 82.5999 16.7C81.8999 17 81.2999 16.9 80.6999 16.6ZM73.9999 12.3C73.2999 11.9 73.4999 11.2 73.3999 10.6C72.8999 11.3 72.9999 12.3 73.6999 12.7C74.2999 13.1 75.4999 13.2 75.8999 12.4C75.1999 12.7 74.5999 12.6 73.9999 12.3ZM66.3999 10.2C65.6999 9.8 65.8999 9.1 65.7999 8.5C65.2999 9.3 65.3999 10.2 66.0999 10.6C66.6999 11 67.8999 11.1 68.2999 10.3C67.5999 10.6 66.9999 10.5 66.3999 10.2ZM58.7999 11.1C58.0999 10.7 58.2999 10 58.1999 9.4C57.6999 10.1 57.8999 11.1 58.4999 11.5C59.0999 11.9 60.2999 12 60.6999 11.2C59.9999 11.5 59.3999 11.4 58.7999 11.1ZM51.7999 14.2C51.0999 13.8 51.2999 13.1 51.1999 12.5C50.6999 13.3 50.8999 14.2 51.4999 14.6C52.0999 15 53.2999 15.1 53.6999 14.3C52.9999 14.6 52.3999 14.5 51.7999 14.2ZM46.2999 19.3C45.5999 18.9 45.7999 18.2 45.6999 17.6C45.1999 18.3 45.2999 19.2 45.9999 19.7C46.5999 20.1 47.7999 20.2 48.1999 19.4C47.4999 19.7 46.8999 19.6 46.2999 19.3ZM80.6999 16.6C79.9999 16.2 80.1999 15.5 80.0999 14.9C79.4999 15.7 79.6999 16.6 80.3999 17C80.9999 17.4 82.1999 17.5 82.5999 16.7C81.8999 17 81.2999 16.9 80.6999 16.6ZM73.9999 12.3C73.2999 11.9 73.4999 11.2 73.3999 10.6C72.8999 11.3 72.9999 12.3 73.6999 12.7C74.2999 13.1 75.4999 13.2 75.8999 12.4C75.1999 12.7 74.5999 12.6 73.9999 12.3ZM66.3999 10.2C65.6999 9.8 65.8999 9.1 65.7999 8.5C65.2999 9.3 65.3999 10.2 66.0999 10.6C66.6999 11 67.8999 11.1 68.2999 10.3C67.5999 10.6 66.9999 10.5 66.3999 10.2ZM58.7999 11.1C58.0999 10.7 58.2999 10 58.1999 9.4C57.6999 10.1 57.8999 11.1 58.4999 11.5C59.0999 11.9 60.2999 12 60.6999 11.2C59.9999 11.5 59.3999 11.4 58.7999 11.1ZM51.7999 14.2C51.0999 13.8 51.2999 13.1 51.1999 12.5C50.6999 13.3 50.8999 14.2 51.4999 14.6C52.0999 15 53.2999 15.1 53.6999 14.3C52.9999 14.6 52.3999 14.5 51.7999 14.2ZM80.6999 16.6C79.9999 16.2 80.1999 15.5 80.0999 14.9C79.4999 15.7 79.6999 16.6 80.3999 17C80.9999 17.4 82.1999 17.5 82.5999 16.7C81.8999 17 81.2999 16.9 80.6999 16.6ZM73.9999 12.3C73.2999 11.9 73.4999 11.2 73.3999 10.6C72.8999 11.3 72.9999 12.3 73.6999 12.7C74.2999 13.1 75.4999 13.2 75.8999 12.4C75.1999 12.7 74.5999 12.6 73.9999 12.3ZM66.3999 10.2C65.6999 9.8 65.8999 9.1 65.7999 8.5C65.2999 9.3 65.3999 10.2 66.0999 10.6C66.6999 11 67.8999 11.1 68.2999 10.3C67.5999 10.6 66.9999 10.5 66.3999 10.2ZM58.7999 11.1C58.0999 10.7 58.2999 10 58.1999 9.4C57.6999 10.1 57.8999 11.1 58.4999 11.5C59.0999 11.9 60.2999 12 60.6999 11.2C59.9999 11.5 59.3999 11.4 58.7999 11.1ZM51.7999 14.2C51.0999 13.8 51.2999 13.1 51.1999 12.5C50.6999 13.3 50.8999 14.2 51.4999 14.6C52.0999 15 53.2999 15.1 53.6999 14.3C52.9999 14.6 52.3999 14.5 51.7999 14.2ZM66.3999 10.2C65.6999 9.8 65.8999 9.1 65.7999 8.5C65.2999 9.3 65.3999 10.2 66.0999 10.6C66.6999 11 67.8999 11.1 68.2999 10.3C67.5999 10.6 66.9999 10.5 66.3999 10.2ZM58.7999 11.1C58.0999 10.7 58.2999 10 58.1999 9.4C57.6999 10.1 57.8999 11.1 58.4999 11.5C59.0999 11.9 60.2999 12 60.6999 11.2C59.9999 11.5 59.3999 11.4 58.7999 11.1ZM51.7999 14.2C51.0999 13.8 51.2999 13.1 51.1999 12.5C50.6999 13.3 50.8999 14.2 51.4999 14.6C52.0999 15 53.2999 15.1 53.6999 14.3C52.9999 14.6 52.3999 14.5 51.7999 14.2ZM66.3999 10.2C65.6999 9.8 65.8999 9.1 65.7999 8.5C65.2999 9.3 65.3999 10.2 66.0999 10.6C66.6999 11 67.8999 11.1 68.2999 10.3C67.5999 10.6 66.9999 10.5 66.3999 10.2ZM58.7999 11.1C58.0999 10.7 58.2999 10 58.1999 9.4C57.6999 10.1 57.8999 11.1 58.4999 11.5C59.0999 11.9 60.2999 12 60.6999 11.2C59.9999 11.5 59.3999 11.4 58.7999 11.1ZM51.7999 14.2C51.0999 13.8 51.2999 13.1 51.1999 12.5C50.6999 13.3 50.8999 14.2 51.4999 14.6C52.0999 15 53.2999 15.1 53.6999 14.3C52.9999 14.6 52.3999 14.5 51.7999 14.2ZM51.7999 14.2C51.0999 13.8 51.2999 13.1 51.1999 12.5C50.6999 13.3 50.8999 14.2 51.4999 14.6C52.0999 15 53.2999 15.1 53.6999 14.3C52.9999 14.6 52.3999 14.5 51.7999 14.2ZM51.7999 14.2C51.0999 13.8 51.2999 13.1 51.1999 12.5C50.6999 13.3 50.8999 14.2 51.4999 14.6C52.0999 15 53.2999 15.1 53.6999 14.3C52.9999 14.6 52.3999 14.5 51.7999 14.2Z" fill="#404041"/>
</svg>
