<svg width="131" height="71" viewBox="0 0 131 71" fill="none" xmlns="http://www.w3.org/2000/svg">
<path fill-rule="evenodd" clip-rule="evenodd" d="M89.0001 24.9C89.0001 23.1 88.2001 21.7 86.6001 20.8C83.1001 18.8 79.7001 16.8 76.3001 14.8C73.3001 13.1 70.4001 11.3 67.4001 9.60005C65.8001 8.70005 64.2001 8.70005 62.6001 9.60005L61.2001 10.4C55.3001 13.8 49.5001 17.2 43.6001 20.6C41.9001 21.6 41.1001 23 41.1001 25C41.1001 29 41.1001 33.1 41.1001 37.1C41.1001 40 41.1001 42.9 41.1001 45.8C41.1001 47.8 41.9001 49.2001 43.6001 50.2001C46.1001 51.6001 48.6001 53.1 51.1001 54.5C53.9001 56.1 56.7001 57.8001 59.5001 59.4001C59.9001 59.6001 60.3001 59.9 60.7001 60.1C61.9001 60.8 63.0001 61.5001 64.3001 61.9001H65.8001C66.4001 61.7001 67.0001 61.5001 67.5001 61.2001C72.0001 58.7001 76.5001 56.0001 81.0001 53.4001C82.9001 52.3001 84.7001 51.2001 86.6001 50.2001C88.2001 49.3001 89.0001 47.9 89.0001 46.1C89.0001 39 89.0001 32 89.0001 24.9ZM65.9001 13.6C65.9001 12.9 65.9001 12.3 65.9001 11.6V10.9L86.0001 22.6C85.5001 22.9 85.0001 23.2 84.6001 23.4L83.1001 24.3C81.8001 25.1 80.4001 25.9 79.0001 26.7C78.7001 26.9 78.5001 26.8 78.2001 26.7L76.0001 25.5C72.9001 23.8 69.9001 22 66.8001 20.4C66.0001 19.9 65.7001 19.5 65.8001 18.6C65.9001 16.8 65.9001 15.2 65.9001 13.6ZM64.1001 10.9V11.6C64.1001 14 64.1001 16.5 64.1001 18.9C64.1001 19.5 64.0001 19.8 63.4001 20.1C61.6001 21.1 59.8001 22.1 58.0001 23.1C57.3001 23.5 56.7001 23.9 56.0001 24.2C54.8001 24.9 53.6001 25.5 52.4001 26.2L50.9001 27.1L43.7001 22.8L64.1001 10.9ZM43.3001 46.3C43.2001 46.4 43.1001 46.4 43.0001 46.5L42.8001 46.6V24.4C42.9001 24.4 42.9001 24.5 43.0001 24.5C43.1001 24.5 43.2001 24.6 43.3001 24.6L45.2001 25.8C46.6001 26.7 48.1001 27.5 49.5001 28.4C49.8001 28.6 49.9001 28.8 49.9001 29.1V31.1C49.9001 34.6 49.9001 38.2001 49.9001 41.7001C49.9001 42.5001 49.7001 42.8 49.1001 43.1C47.7001 43.8 46.4001 44.6 45.0001 45.3C44.5001 45.7 43.9001 46 43.3001 46.3ZM64.1001 59.8C64.1001 59.9 64.1001 59.9 64.1001 59.8C64.0001 60 64.0001 60 64.0001 60L43.7001 48.2001C44.4001 47.8001 45.0001 47.5001 45.5001 47.2001C47.3001 46.2001 49.1001 45.3 50.8001 44.3C51.0001 44.2 51.2001 44.1 51.5001 44.3C53.6001 45.5 55.7001 46.7 57.9001 47.8C59.9001 48.9 61.9001 50 63.9001 51.1C64.0001 51.2 64.2001 51.3 64.2001 51.5C64.2001 53 64.2001 54.6 64.2001 56.1C64.1001 57.4 64.1001 58.6 64.1001 59.8ZM64.2001 49.4001C62.0001 48.2001 59.8001 46.9001 57.6001 45.7001C55.9001 44.7001 54.1001 43.8 52.4001 42.8C51.9001 42.5 51.7001 42.2001 51.7001 41.7001C51.7001 37.6001 51.7001 33.5 51.7001 29.5C51.7001 29 51.9001 28.7 52.3001 28.4C56.3001 26.2 60.3001 23.9 64.4001 21.6C64.9001 21.3 65.4001 21.4 65.9001 21.7C69.1001 23.5 72.4001 25.3 75.6001 27.2C76.2001 27.5 76.8001 27.9 77.4001 28.2C78.0001 28.5 78.3001 29 78.3001 29.7C78.3001 31.1 78.3001 32.5 78.3001 33.9V35.6H78.4001C78.4001 36.8 78.4001 38.1 78.4001 39.3C78.4001 40.1 78.4001 40.8 78.4001 41.6C78.4001 42.2 78.2001 42.6001 77.6001 42.9001C73.7001 45.1001 69.8001 47.3 65.8001 49.5C65.2001 49.7 64.8001 49.7001 64.2001 49.4001ZM65.9001 60.1V59.4001C65.9001 57.0001 65.9001 54.5 65.9001 52.1C65.9001 51.5 66.0001 51.2001 66.6001 50.9001C69.1001 49.6001 71.5001 48.2 74.0001 46.8C75.5001 46 77.0001 45.1 78.4001 44.3C78.6001 44.2 78.9001 44.2 79.0001 44.3C80.8001 45.3 82.7001 46.4 84.5001 47.5L85.8001 48.3C85.8001 48.3 85.9001 48.4 86.0001 48.5L65.9001 60.1ZM87.1001 46.8C86.9001 46.7 86.7001 46.6 86.6001 46.6L84.7001 45.5C83.3001 44.7 81.9001 43.9 80.4001 43C80.1001 42.8 79.9001 42.7001 80.0001 42.2001C80.1001 42.0001 80.1001 41.8001 80.0001 41.7001C80.0001 41.6001 80.0001 41.6 80.0001 41.5V41C80.0001 37.1 80.0001 33.3 80.0001 29.4C80.0001 29.1 80.0001 28.9 79.9001 28.6C79.9001 28.5 79.9001 28.3 79.9001 28.2L87.1001 24V46.8Z" fill="#404041"/>
</svg>
