<svg width="131" height="71" viewBox="0 0 131 71" fill="none" xmlns="http://www.w3.org/2000/svg">
<path d="M91.0998 30.4C91.0998 29.2 90.5998 28 89.6998 27.2C88.8998 26.4 87.6998 25.8 86.3998 25.8C87.2998 25.4 87.8998 24.7 88.2998 23.8C88.6998 22.9 88.6998 21.9 88.2998 21C87.7998 19.6 86.3998 18.7 84.8998 18.7C84.4998 18.7 84.0998 18.8 83.6998 18.9C85.3998 17.1 85.3998 14.3 83.5998 12.5C81.7998 10.7 78.7998 10.7 76.9998 12.5C77.5998 10.7 76.6998 8.69998 74.8998 7.89998C74.4998 7.69998 73.9998 7.59998 73.4998 7.59998C71.9998 7.59998 70.6998 8.39998 70.0998 9.69998C70.0998 7.09998 67.9998 5.09998 65.3998 5.09998C62.7998 5.09998 60.6998 7.19998 60.6998 9.69998C59.9998 8.39998 58.6998 7.59998 57.2998 7.59998C56.7998 7.59998 56.3998 7.69998 55.8998 7.89998C54.9998 8.29998 54.2998 8.99998 53.8998 9.89998C53.4998 10.7 53.4998 11.6 53.7998 12.5C51.9998 10.7 48.9998 10.7 47.1998 12.5C46.2998 13.4 45.7998 14.6 45.7998 15.7C45.7998 16.8 46.2998 18.1 47.1998 18.9C46.7998 18.8 46.3998 18.7 45.9998 18.7C44.4998 18.7 43.1998 19.6 42.5998 21C42.1998 21.9 42.1998 22.9 42.5998 23.8C42.9998 24.7 43.5998 25.3 44.3998 25.7C41.8998 25.7 39.7998 27.8 39.7998 30.3C39.7998 32.8 41.8998 34.9 44.4998 34.9C44.5998 34.9 44.5998 34.9 44.5998 34.9C43.2998 35.5 42.4998 36.8 42.4998 38.2C42.4998 38.6 42.5998 39 42.6998 39.5V39.6C43.1998 41 44.5998 41.9 46.0998 41.9C46.3998 41.9 46.7998 41.8 47.1998 41.7C45.4998 43.5 45.4998 46.3 47.2998 48.1C48.1998 49 49.3998 49.4 50.5998 49.4C51.7998 49.4 52.9998 49 53.8998 48.1C53.9998 48.1 53.9998 48 53.9998 48C53.5998 48.9 53.5998 49.8 53.9998 50.7C54.3998 51.6 55.0998 52.3 55.9998 52.7C56.3998 52.9 56.8998 53 57.3998 53C58.7998 53 60.0998 52.2 60.6998 51C60.6998 53.2 62.4998 55.1 64.6998 55.4V57.5C63.5998 57.1 62.3998 57.4 61.4998 58.2C60.2998 59.3 60.2998 61.2 61.4998 62.4L64.7998 65.7C64.9998 65.8 65.0998 65.9 65.2998 65.9C65.4998 65.9 65.6998 65.8 65.7998 65.7L69.2998 62.2C70.4998 61.1 70.4998 59.2 69.2998 58C68.4998 57.2 67.2998 56.9 66.1998 57.3V55.2C68.3998 54.9 70.0998 53 70.0998 50.7V50.6C70.6998 51.9 71.9998 52.8 73.4998 52.8C73.9998 52.8 74.3998 52.7 74.8998 52.5C75.7998 52.1 76.4998 51.4 76.8998 50.5C77.2998 49.7 77.2998 48.8 76.9998 48C77.8998 48.9 78.9998 49.3 80.1998 49.3C81.3998 49.3 82.5998 48.9 83.4998 48C84.3998 47.1 84.7998 45.9 84.7998 44.8C84.7998 43.6 84.2998 42.4 83.4998 41.6C83.8998 41.7 84.3998 41.8 84.7998 41.8C86.2998 41.8 87.5998 40.9 88.1998 39.5C88.9998 37.7 88.1998 35.6 86.3998 34.8C88.8998 34.7 91.0998 32.7 91.0998 30.4ZM83.8998 20.1C84.1998 20 84.4998 19.9 84.7998 19.9C85.7998 19.9 86.5998 20.4 86.9998 21.3C87.1998 21.9 87.1998 22.5 86.9998 23.1C86.6998 23.7 86.2998 24.2 85.6998 24.4C85.3998 24.5 85.0998 24.6 84.7998 24.6C83.8998 24.6 82.9998 24 82.5998 23.1C82.0998 21.9 82.5998 20.6 83.8998 20.1ZM77.8998 13.4C78.4998 12.7 79.2998 12.4 80.1998 12.4C80.9998 12.4 81.8998 12.8 82.4998 13.4C83.7998 14.7 83.7998 16.7 82.4998 18C81.1998 19.2 79.0998 19.2 77.8998 18C76.5998 16.6 76.5998 14.6 77.8998 13.4ZM71.0998 10.2C71.4998 9.39998 72.2998 8.79998 73.2998 8.79998C73.5998 8.79998 73.8998 8.89998 74.1998 8.99998C75.3998 9.39998 75.9998 10.8 75.4998 12C75.0998 12.8 74.2998 13.4 73.2998 13.4C72.9998 13.4 72.6998 13.3 72.3998 13.2C71.7998 13 71.3998 12.5 71.0998 12C70.8998 11.4 70.8998 10.9 71.0998 10.2ZM65.3998 6.19998C67.1998 6.19998 68.6998 7.69998 68.6998 9.49998C68.6998 11.3 67.1998 12.8 65.3998 12.8C63.5998 12.8 62.0998 11.3 62.0998 9.49998C62.0998 7.69998 63.5998 6.19998 65.3998 6.19998ZM55.0998 10.2C55.3998 9.59998 55.7998 9.09998 56.3998 8.89998C56.6998 8.79998 56.9998 8.69998 57.2998 8.69998C58.2998 8.69998 59.0998 9.19998 59.4998 10.1C59.6998 10.7 59.6998 11.3 59.4998 11.9C59.1998 12.5 58.7998 13 58.1998 13.2C57.8998 13.3 57.5998 13.4 57.2998 13.4C56.2998 13.4 55.4998 12.8 55.0998 12C54.8998 11.4 54.8998 10.9 55.0998 10.2ZM48.0998 13.4C48.7998 12.7 49.5998 12.4 50.4998 12.4C51.2998 12.4 52.1998 12.8 52.7998 13.4C54.0998 14.7 54.0998 16.7 52.7998 18C51.4998 19.2 49.3998 19.2 48.0998 18C46.8998 16.6 46.8998 14.6 48.0998 13.4ZM43.7998 23.1C43.5998 22.5 43.5998 21.9 43.7998 21.3C44.1998 20.5 44.9998 19.9 45.9998 19.9C46.2998 19.9 46.5998 20 46.8998 20.1C47.4998 20.4 47.9998 20.8 48.1998 21.4C48.3998 22 48.3998 22.6 48.1998 23.2C47.7998 24 46.9998 24.6 45.9998 24.6C45.6998 24.6 45.3998 24.5 45.0998 24.4C44.3998 24.1 43.8998 23.7 43.7998 23.1ZM44.3998 33.6C42.5998 33.6 41.0998 32.1 41.0998 30.3C41.0998 28.5 42.5998 27 44.3998 27C46.1998 27 47.6998 28.5 47.6998 30.3C47.5998 31.9 46.0998 33.4 44.3998 33.6ZM46.8998 40.4C46.5998 40.5 46.2998 40.6 45.9998 40.6C44.9998 40.6 44.1998 40.1 43.7998 39.2V39.1C43.2998 37.9 43.8998 36.6 45.0998 36.1C45.3998 36 45.6998 35.9 45.9998 35.9C46.9998 35.9 47.7998 36.4 48.1998 37.3C48.5998 38.4 48.0998 39.7 46.8998 40.4ZM52.8998 47.1C51.5998 48.4 49.4998 48.4 48.1998 47.1C46.8998 45.8 46.8998 43.8 48.1998 42.5C48.8998 41.8 49.6998 41.5 50.5998 41.5C51.3998 41.5 52.2998 41.8 52.8998 42.5C54.0998 43.9 54.0998 45.9 52.8998 47.1ZM59.5998 50.2C59.1998 51 58.3998 51.6 57.3998 51.6C57.0998 51.6 56.7998 51.5 56.4998 51.4C55.8998 51.1 55.3998 50.7 55.1998 50.1C54.9998 49.5 54.9998 48.9 55.1998 48.3C55.5998 47.5 56.3998 46.9 57.3998 46.9C57.6998 46.9 57.9998 47 58.2998 47.1C58.8998 47.3 59.3998 47.8 59.5998 48.4C59.7998 49.1 59.7998 49.6 59.5998 50.2ZM68.2998 59.1C68.8998 59.7 68.8998 60.8 68.2998 61.4L65.3998 64.2L62.5998 61.4C61.8998 60.8 61.8998 59.7 62.5998 59.1C62.8998 58.8 63.3998 58.6 63.7998 58.6C64.1998 58.6 64.6998 58.8 64.9998 59.1C65.1998 59.4 65.5998 59.4 65.8998 59.1C66.5998 58.6 67.5998 58.6 68.2998 59.1ZM65.3998 54.1C63.5998 54.1 62.0998 52.6 62.0998 50.8C62.0998 49 63.5998 47.5 65.3998 47.5C67.1998 47.5 68.6998 49 68.6998 50.8C68.6998 52.6 67.0998 54.1 65.3998 54.1ZM75.5998 50.1C75.2998 50.7 74.8998 51.2 74.2998 51.4C73.9998 51.5 73.6998 51.6 73.3998 51.6C72.3998 51.6 71.5998 51.1 71.1998 50.2C70.6998 49.1 71.2998 47.7 72.4998 47.2C72.7998 47.1 73.0998 47 73.3998 47C74.2998 47 75.1998 47.6 75.5998 48.3C75.8998 48.9 75.8998 49.4 75.5998 50.1ZM76.0998 46.6C75.3998 46 74.5998 45.7 73.6998 45.7C73.1998 45.7 72.7998 45.8 72.2998 46C70.8998 46.6 69.9998 47.9 69.9998 49.3C69.2998 47.6 67.5998 46.4 65.5998 46.4C63.6998 46.4 61.9998 47.5 61.2998 49.1C61.1998 48.7 61.0998 48.4 60.9998 48C60.5998 47.1 59.8998 46.4 58.9998 46C58.5998 45.8 58.0998 45.7 57.5998 45.7C56.5998 45.7 55.6998 46.1 54.9998 46.7C55.6998 45 55.3998 43 53.9998 41.6C52.5998 40.3 50.6998 40 48.9998 40.6C49.8998 39.6 50.1998 38.1 49.5998 36.8C49.0998 35.4 47.7998 34.6 46.2998 34.5C47.9998 33.8 49.1998 32.1 49.1998 30.2C49.1998 28.3 48.0998 26.7 46.3998 26C47.7998 25.9 49.0998 25 49.5998 23.7C49.9998 22.8 49.9998 21.8 49.5998 20.9C49.3998 20.5 49.1998 20.1 48.8998 19.8C49.4998 20 50.0998 20.1 50.6998 20.1C51.8998 20.1 53.0998 19.7 53.9998 18.8C55.2998 17.4 55.6998 15.5 54.9998 13.8C55.6998 14.4 56.5998 14.7 57.4998 14.7C57.9998 14.7 58.3998 14.6 58.8998 14.4C59.7998 14 60.4998 13.3 60.8998 12.4C61.0998 12 61.1998 11.6 61.1998 11.2C61.8998 12.8 63.5998 14 65.4998 14C67.3998 14 69.0998 12.9 69.7998 11.2C69.8998 11.6 69.8998 12 70.0998 12.4C70.4998 13.3 71.1998 14 72.0998 14.4C72.4998 14.6 72.9998 14.7 73.4998 14.7C74.4998 14.7 75.2998 14.4 75.9998 13.8C75.2998 15.5 75.5998 17.4 76.9998 18.8C77.8998 19.7 79.0998 20.1 80.2998 20.1C80.8998 20.1 81.4998 20 82.0998 19.8C81.4998 20.5 81.1998 21.3 81.1998 22.2C81.1998 22.6 81.2998 23.1 81.3998 23.5V23.6C81.9998 25 83.1998 25.8 84.6998 25.9C82.8998 26.6 81.6998 28.3 81.6998 30.2C81.6998 32.1 82.8998 33.7 84.5998 34.4C83.1998 34.5 81.8998 35.4 81.3998 36.7C80.7998 38.1 81.1998 39.6 82.0998 40.6C80.3998 39.9 78.2998 40.2 77.0998 41.7C75.7998 42.9 75.3998 44.9 76.0998 46.6ZM82.5998 47.1C81.2998 48.4 79.1998 48.4 77.8998 47.1C76.5998 45.8 76.5998 43.8 77.8998 42.5C78.4998 41.8 79.2998 41.5 80.1998 41.5C81.0998 41.5 81.8998 41.8 82.5998 42.5C83.8998 43.9 83.8998 45.9 82.5998 47.1ZM86.8998 38.9C86.4998 39.7 85.6998 40.3 84.6998 40.3C84.3998 40.3 84.0998 40.2 83.7998 40.1C82.5998 39.7 81.9998 38.3 82.4998 37.1C82.8998 36.3 83.6998 35.7 84.6998 35.7C84.9998 35.7 85.2998 35.8 85.5998 35.9C86.8998 36.4 87.3998 37.7 86.8998 38.9ZM86.3998 33.6C84.5998 33.6 83.0998 32.1 83.0998 30.3C83.0998 28.5 84.5998 27 86.3998 27C88.1998 27 89.6998 28.4 89.6998 30.3C89.5998 32.1 88.0998 33.6 86.3998 33.6Z" fill="#404041"/>
</svg>
