<svg xmlns="http://www.w3.org/2000/svg" width="17.352" height="24.68" viewBox="0 0 17.352 24.68">
  <g id="Group_844" data-name="Group 844" transform="translate(-3606.059 -5149.01)">
    <g id="Group_841" data-name="Group 841">
      <g id="Group_840" data-name="Group 840">
        <path id="Path_543" data-name="Path 543" d="M3614.734,5149.01a8.679,8.679,0,0,0-7.38,13.239l6.887,11.1a.724.724,0,0,0,.614.342h.006a.727.727,0,0,0,.615-.352l6.712-11.207a8.679,8.679,0,0,0-7.454-13.121Zm6.212,12.379-6.1,10.188-6.262-10.09a7.235,7.235,0,1,1,12.363-.1Z" fill="#6d6e71"/>
      </g>
    </g>
    <g id="Group_843" data-name="Group 843">
      <g id="Group_842" data-name="Group 842">
        <path id="Path_544" data-name="Path 544" d="M3614.734,5153.348a4.338,4.338,0,1,0,4.339,4.339A4.343,4.343,0,0,0,3614.734,5153.348Zm0,7.24a2.9,2.9,0,1,1,2.9-2.9A2.9,2.9,0,0,1,3614.734,5160.588Z" fill="#6d6e71"/>
      </g>
    </g>
  </g>
</svg>
