<svg xmlns="http://www.w3.org/2000/svg" width="24.68" height="18.799" viewBox="0 0 24.68 18.799">
  <g id="Group_815" data-name="Group 815" transform="translate(-4017.799 -5349.885)">
    <g id="Group_814" data-name="Group 814">
      <path id="Path_535" data-name="Path 535" d="M4040.31,5349.885h-20.342a2.173,2.173,0,0,0-2.169,2.17v14.46a2.173,2.173,0,0,0,2.169,2.169h20.342a2.173,2.173,0,0,0,2.169-2.169v-14.46A2.174,2.174,0,0,0,4040.31,5349.885Zm-.3,1.446-9.825,9.826-9.911-9.826Zm-20.765,14.884v-13.868l6.964,6.9Zm1.023,1.023,6.968-6.968,2.442,2.42a.722.722,0,0,0,1.02,0l2.381-2.381,6.931,6.931Zm20.764-1.023-6.93-6.931,6.93-6.93Z" fill="#6d6e71"/>
    </g>
  </g>
</svg>
