<svg xmlns="http://www.w3.org/2000/svg" width="14.808" height="24.679" viewBox="0 0 14.808 24.679">
  <g id="Group_812" data-name="Group 812" transform="translate(-4380.872 -4628.45)">
    <g id="Group_811" data-name="Group 811">
      <g id="Group_804" data-name="Group 804">
        <g id="Group_803" data-name="Group 803">
          <path id="Path_531" data-name="Path 531" d="M4390.538,4630.507h-2.468a.617.617,0,0,0,0,1.234h2.468a.617.617,0,0,0,0-1.234Z" fill="#6d6e71"/>
        </g>
      </g>
      <g id="Group_806" data-name="Group 806">
        <g id="Group_805" data-name="Group 805">
          <path id="Path_532" data-name="Path 532" d="M4393.212,4628.45h-9.872a2.47,2.47,0,0,0-2.468,2.468v19.743a2.47,2.47,0,0,0,2.468,2.468h9.872a2.471,2.471,0,0,0,2.468-2.468v-19.743A2.471,2.471,0,0,0,4393.212,4628.45Zm1.233,22.211a1.233,1.233,0,0,1-1.233,1.234h-9.872a1.234,1.234,0,0,1-1.234-1.234v-19.743a1.234,1.234,0,0,1,1.234-1.234h9.872a1.233,1.233,0,0,1,1.233,1.234v19.743Z" fill="#6d6e71"/>
        </g>
      </g>
      <g id="Group_808" data-name="Group 808">
        <g id="Group_807" data-name="Group 807">
          <path id="Path_533" data-name="Path 533" d="M4388.276,4648.6a1.234,1.234,0,1,1-1.234,1.233A1.234,1.234,0,0,1,4388.276,4648.6Z" fill="#6d6e71"/>
        </g>
      </g>
      <g id="Group_810" data-name="Group 810">
        <g id="Group_809" data-name="Group 809">
          <path id="Path_534" data-name="Path 534" d="M4386.014,4630.507a.617.617,0,1,1-.617.616A.618.618,0,0,1,4386.014,4630.507Z" fill="#6d6e71"/>
        </g>
      </g>
    </g>
  </g>
</svg>
