<svg xmlns="http://www.w3.org/2000/svg" width="24.585" height="24.679" viewBox="0 0 24.585 24.679">
  <g id="Group_819" data-name="Group 819" transform="translate(-4017.799 -5296)">
    <g id="Group_818" data-name="Group 818">
      <path id="Path_536" data-name="Path 536" d="M4022.781,5312.4a26.192,26.192,0,0,0,8.709,6.822,13.552,13.552,0,0,0,4.873,1.441c.118.006.231.011.348.011a4.035,4.035,0,0,0,3.13-1.345.127.127,0,0,0,.02-.026,13.071,13.071,0,0,1,.988-1.023c.24-.23.485-.47.72-.715a2.471,2.471,0,0,0-.009-3.677l-3.075-3.073a2.485,2.485,0,0,0-1.8-.828,2.57,2.57,0,0,0-1.82.823l-1.831,1.83c-.169-.1-.343-.184-.506-.266a6.326,6.326,0,0,1-.562-.306,19.4,19.4,0,0,1-4.628-4.214,11.112,11.112,0,0,1-1.565-2.5c.481-.435.93-.89,1.366-1.334.153-.159.311-.318.469-.476a2.419,2.419,0,0,0,0-3.682l-1.523-1.524c-.179-.179-.348-.353-.521-.531-.338-.349-.691-.706-1.039-1.029a2.55,2.55,0,0,0-1.8-.787,2.629,2.629,0,0,0-1.821.792l-1.912,1.913a3.929,3.929,0,0,0-1.171,2.516,9.465,9.465,0,0,0,.711,4.091A23.777,23.777,0,0,0,4022.781,5312.4Zm-3.713-11.077a2.707,2.707,0,0,1,.814-1.738l1.9-1.9a1.376,1.376,0,0,1,.941-.435,1.306,1.306,0,0,1,.921.445c.342.317.664.649,1.012,1,.174.179.353.358.532.542l1.524,1.524a1.192,1.192,0,0,1,0,1.912c-.158.159-.317.322-.476.481-.475.481-.921.936-1.411,1.371l-.025.025a1,1,0,0,0-.256,1.136.4.4,0,0,1,.014.041,12.145,12.145,0,0,0,1.795,2.92,20.491,20.491,0,0,0,4.93,4.489,7.225,7.225,0,0,0,.676.368c.2.1.393.2.562.307.021.01.036.02.056.031a1.072,1.072,0,0,0,.5.128,1.085,1.085,0,0,0,.762-.348l1.913-1.913a1.355,1.355,0,0,1,.935-.455,1.285,1.285,0,0,1,.906.455l3.084,3.079a1.234,1.234,0,0,1-.016,1.928c-.215.229-.44.45-.68.68a14.709,14.709,0,0,0-1.069,1.11,2.809,2.809,0,0,1-2.194.931c-.086,0-.179-.006-.266-.011a12.318,12.318,0,0,1-4.408-1.319,24.854,24.854,0,0,1-8.289-6.495,22.785,22.785,0,0,1-4.04-6.724A8.273,8.273,0,0,1,4019.068,5301.328Z" fill="#6d6e71"/>
    </g>
  </g>
</svg>
