<svg xmlns="http://www.w3.org/2000/svg" width="21.43" height="21.431" viewBox="0 0 21.43 21.431">
  <g id="Group_800" data-name="Group 800" transform="translate(-4377.668 -4544.81)">
    <path id="Path_528" data-name="Path 528" d="M4395.989,4547.89c-6.864-6.637-18.227-1.823-18.231,7.541a10.564,10.564,0,0,0,1.425,5.308l-1.515,5.5,5.656-1.476a10.689,10.689,0,0,0,15.774-9.33,10.536,10.536,0,0,0-3.121-7.509Z" fill="#37b24a"/>
    <path id="Path_529" data-name="Path 529" d="M4393.3,4557.585l-.007.067c-1.964-.979-2.169-1.109-2.423-.728-.176.263-.688.86-.843,1.037s-.312.188-.577.068a7.261,7.261,0,0,1-2.145-1.327,8.123,8.123,0,0,1-1.482-1.848c-.262-.452.285-.516.784-1.459a.493.493,0,0,0-.023-.468c-.066-.134-.6-1.446-.823-1.97s-.435-.455-.6-.455a1.326,1.326,0,0,0-1.221.307c-1.442,1.584-1.079,3.218.155,4.956,2.424,3.171,3.714,3.756,6.075,4.566a3.693,3.693,0,0,0,1.679.108,2.75,2.75,0,0,0,1.8-1.274,2.226,2.226,0,0,0,.161-1.272C4393.742,4557.773,4393.567,4557.706,4393.3,4557.585Z" fill="#fff"/>
  </g>
</svg>
