<svg xmlns="http://www.w3.org/2000/svg" version="1.1" xmlns:xlink="http://www.w3.org/1999/xlink" width="512" height="512" x="0" y="0" viewBox="0 0 512 512" style="enable-background:new 0 0 512 512" xml:space="preserve" class=""><g><circle cx="256.001" cy="346.888" r="17.133" fill="#404041" opacity="1" data-original="#000000" class=""></circle><circle cx="256.001" cy="165.11" r="17.133" fill="#404041" opacity="1" data-original="#404041" class=""></circle><path d="M498.198 13.815C489.301 4.906 477.464 0 464.867 0H285.379c-12.591 0-24.429 4.904-33.333 13.809L13.811 252.044C4.904 260.95 0 272.787 0 285.375c0 12.59 4.906 24.427 13.811 33.326l179.484 179.485c8.902 8.908 20.739 13.814 33.329 13.814 12.589 0 24.426-4.904 33.332-13.811l238.235-238.235C507.096 251.05 512 239.212 512 226.621V47.133c0-12.597-4.906-24.435-13.802-33.318zM256.001 117.977c25.989 0 47.133 21.144 47.133 47.133s-21.144 47.133-47.133 47.133-47.133-21.144-47.133-47.133 21.144-47.133 47.133-47.133zm0 276.044c-25.989 0-47.133-21.144-47.133-47.133s21.144-47.133 47.133-47.133 47.133 21.144 47.133 47.133-21.144 47.133-47.133 47.133zM352.4 270.999H159.602c-8.284 0-15-6.716-15-15s6.716-15 15-15H352.4c8.284 0 15 6.716 15 15s-6.715 15-15 15zm64.267-160.666c-8.28 0-15-6.72-15-15s6.72-15 15-15 15 6.72 15 15-6.72 15-15 15z" fill="#404041" opacity="1" data-original="#404041" class=""></path></g></svg>