<svg width="40" height="40" viewBox="0 0 40 40" fill="none" xmlns="http://www.w3.org/2000/svg">
<g clip-path="url(#clip0_191_5)">
<path d="M20.0028 4.12336C16.8626 4.12326 13.793 5.05436 11.182 6.79886C8.57099 8.54337 6.53595 11.0229 5.33419 13.924C4.13244 16.8251 3.81795 20.0174 4.4305 23.0972C5.04306 26.1771 6.55513 29.0062 8.77553 31.2267C10.9959 33.4471 13.8249 34.9593 16.9047 35.5719C19.9845 36.1846 23.1768 35.8702 26.078 34.6685C28.9791 33.4668 31.4588 31.4319 33.2033 28.8209C34.9479 26.21 35.8791 23.1404 35.8791 20.0002C35.8745 15.791 34.2003 11.7554 31.224 8.77894C28.2476 5.80248 24.2121 4.12812 20.0028 4.12336ZM20.0028 34.5995C17.1152 34.5995 14.2925 33.7432 11.8916 32.139C9.49065 30.5348 7.61935 28.2546 6.51432 25.5868C5.4093 22.9191 5.12017 19.9835 5.68351 17.1514C6.24684 14.3193 7.63735 11.7178 9.67917 9.67602C11.721 7.6342 14.3224 6.24381 17.1545 5.68047C19.9866 5.11713 22.9221 5.40624 25.5899 6.51127C28.2577 7.6163 30.5379 9.48759 32.1421 11.8885C33.7464 14.2894 34.6026 17.1122 34.6026 19.9997C34.5984 23.8706 33.0588 27.5816 30.3218 30.3187C27.5847 33.0558 23.8736 34.5953 20.0028 34.5995Z" fill="#7CBDA8"/>
<path d="M32.6853 20.6412C32.6018 20.6325 32.5174 20.6404 32.4369 20.6644C32.3565 20.6884 32.2816 20.7281 32.2165 20.7811C32.1515 20.8342 32.0976 20.8997 32.0579 20.9736C32.0182 21.0476 31.9935 21.1286 31.9853 21.2122C31.7012 23.9724 30.4751 26.5506 28.5131 28.5128C26.5511 30.4751 23.9731 31.7016 21.2129 31.9861C21.0496 32.002 20.8987 32.0801 20.7914 32.2043C20.6842 32.3285 20.6289 32.4892 20.637 32.6531C20.6451 32.8169 20.716 32.9714 20.835 33.0844C20.9539 33.1975 21.1118 33.2604 21.2759 33.2601C21.2975 33.26 21.319 33.2586 21.3404 33.2561C24.3935 32.9416 27.245 31.5851 29.4153 29.4149C31.5856 27.2447 32.9422 24.3932 33.2568 21.3402C33.2736 21.1717 33.2229 21.0034 33.1158 20.8723C33.0086 20.7412 32.8537 20.6582 32.6853 20.6412Z" fill="#7CBDA8"/>
<path d="M28.9612 10.1478C27.4022 8.7318 25.5296 7.7058 23.4971 7.15392C21.4646 6.60204 19.3302 6.54 17.2691 6.97301C15.2081 7.40602 13.279 8.32173 11.6405 9.64485C10.0019 10.968 8.7005 12.6608 7.84308 14.5845C6.98567 16.5081 6.59669 18.6076 6.7081 20.7108C6.81951 22.8139 7.42811 24.8607 8.48396 26.683C9.5398 28.5053 11.0128 30.0512 12.782 31.1938C14.5511 32.3364 16.5661 33.0432 18.6614 33.256C18.6834 33.256 18.7044 33.2596 18.7259 33.2596C18.89 33.2599 19.0479 33.1969 19.1668 33.0839C19.2858 32.9709 19.3567 32.8164 19.3648 32.6525C19.3729 32.4886 19.3176 32.328 19.2104 32.2038C19.1031 32.0796 18.9522 32.0014 18.7889 31.9855C16.5214 31.7558 14.3655 30.8875 12.5717 29.4815C10.7779 28.0756 9.41974 26.1896 8.65492 24.0426C7.89011 21.8956 7.75002 19.5757 8.25094 17.3523C8.75186 15.1289 9.87322 13.0932 11.4848 11.4816C13.0964 9.87003 15.1321 8.74869 17.3555 8.24778C19.5789 7.74686 21.8988 7.88689 24.0458 8.6517C26.1928 9.41652 28.0788 10.7747 29.4847 12.5685C30.8907 14.3623 31.759 16.5182 31.9887 18.7857C32.0057 18.9541 32.0889 19.1088 32.2199 19.2159C32.351 19.323 32.5193 19.3736 32.6877 19.3566C32.8561 19.3397 33.0109 19.2565 33.118 19.1254C33.225 18.9944 33.2757 18.8261 33.2587 18.6577C32.927 15.3875 31.3961 12.3559 28.9612 10.1478Z" fill="#7CBDA8"/>
<path d="M39.8919 19.6447L38.4979 17.5647L39.3079 15.1952C39.3489 15.0753 39.3533 14.946 39.3206 14.8235C39.2878 14.7011 39.2193 14.5911 39.1239 14.5078L37.2364 12.8618L37.4014 10.3618C37.4098 10.2354 37.3803 10.1095 37.3168 9.99988C37.2533 9.89028 37.1587 9.802 37.0449 9.74634L34.795 8.64638L34.3105 6.18986C34.2854 6.06623 34.2243 5.95279 34.1349 5.86382C34.0455 5.77484 33.9317 5.7143 33.808 5.68987L31.352 5.20489L30.252 2.95492C30.1962 2.84115 30.1079 2.74654 29.9982 2.68307C29.8885 2.6196 29.7625 2.59019 29.636 2.59848L27.1386 2.76339L25.4921 0.875966C25.4087 0.78055 25.2988 0.71204 25.1764 0.679191C25.054 0.646342 24.9246 0.650565 24.8046 0.691398L22.4356 1.50242L20.3551 0.107909C20.25 0.0375297 20.1264 0 19.9999 0C19.8734 0 19.7498 0.0375297 19.6447 0.107909L17.5647 1.50242L15.1957 0.691398C15.0756 0.650592 14.9462 0.646346 14.8237 0.679191C14.7012 0.712035 14.5912 0.780562 14.5077 0.875966L12.8622 2.76339L10.3623 2.59848C10.236 2.59025 10.1101 2.61972 10.0006 2.68319C9.89107 2.74667 9.80291 2.84123 9.74728 2.95492L8.64728 5.20489L6.19131 5.68987C6.0675 5.71418 5.95368 5.7747 5.86424 5.8637C5.7748 5.95269 5.71375 6.06617 5.68883 6.18986L5.20383 8.64638L2.95386 9.74634C2.84005 9.80195 2.74537 9.89014 2.68188 9.99975C2.61839 10.1094 2.58897 10.2354 2.59736 10.3618L2.76186 12.8618L0.875386 14.5078C0.779694 14.591 0.711014 14.7008 0.678145 14.8233C0.645277 14.9458 0.649713 15.0753 0.690886 15.1952L1.50087 17.5647L0.106894 19.6447C0.0362601 19.7497 -0.00146484 19.8734 -0.00146484 20C-0.00146484 20.1265 0.0362601 20.2502 0.106894 20.3552L1.50087 22.4351L0.690383 24.8041C0.649404 24.9241 0.645118 25.0536 0.678069 25.1761C0.71102 25.2985 0.779718 25.4084 0.875386 25.4916L2.76236 27.1376L2.59736 29.6376C2.5889 29.764 2.61829 29.89 2.68179 29.9996C2.74529 30.1092 2.84 30.1975 2.95386 30.253L5.20383 31.353L5.68883 33.809C5.71388 33.9327 5.77496 34.0461 5.86438 34.1351C5.9538 34.224 6.06756 34.2846 6.19131 34.309L8.64728 34.794L9.74728 37.044C9.80296 37.1576 9.89114 37.2522 10.0006 37.3157C10.1101 37.3792 10.236 37.4087 10.3623 37.4005L12.8622 37.2355L14.5077 39.1229C14.5912 39.2183 14.7012 39.2869 14.8237 39.3197C14.9462 39.3525 15.0756 39.3483 15.1957 39.3075L17.5647 38.497L19.6447 39.891C19.7496 39.9617 19.8733 39.9995 19.9999 39.9995C20.1265 39.9995 20.2502 39.9617 20.3551 39.891L22.4351 38.497L24.8046 39.3075C24.9246 39.3483 25.054 39.3524 25.1763 39.3196C25.2987 39.2867 25.4086 39.2183 25.4921 39.1229L27.1381 37.2355L29.638 37.4005C29.7644 37.4087 29.8903 37.3792 29.9999 37.3157C30.1095 37.2522 30.1977 37.1577 30.2535 37.044L31.3535 34.794L33.8095 34.309C33.9333 34.2848 34.0472 34.2243 34.1366 34.1353C34.2261 34.0463 34.2871 33.9327 34.312 33.809L34.797 31.353L37.0469 30.253C37.1608 30.1975 37.2556 30.1094 37.3191 29.9997C37.3826 29.8901 37.412 29.764 37.4034 29.6376L37.2389 27.1376L39.1259 25.4916C39.2214 25.4084 39.2899 25.2985 39.3228 25.1762C39.3556 25.0539 39.3513 24.9245 39.3104 24.8046L38.5004 22.4351L39.8944 20.3552C39.9644 20.2499 40.0015 20.1261 40.0011 19.9996C40.0006 19.8731 39.9626 19.7495 39.8919 19.6447ZM37.2609 21.9872C37.2063 22.0688 37.1713 22.162 37.1585 22.2594C37.1458 22.3568 37.1557 22.4557 37.1874 22.5487L37.9609 24.8116L36.1609 26.3836C36.0871 26.4483 36.029 26.5291 35.9913 26.6198C35.9536 26.7105 35.9372 26.8086 35.9435 26.9066L36.1014 29.2931L33.9515 30.3431C33.863 30.3863 33.7858 30.4494 33.7258 30.5275C33.6659 30.6055 33.6248 30.6965 33.606 30.7931L33.1425 33.1401L30.7925 33.6036C30.696 33.6226 30.6051 33.6636 30.5271 33.7236C30.449 33.7835 30.3858 33.8607 30.3425 33.949L29.2925 36.099L26.9056 35.941C26.8075 35.9345 26.7093 35.9507 26.6186 35.9884C26.5279 36.0262 26.4471 36.0844 26.3826 36.1585L24.8106 37.9585L22.5481 37.1854C22.4551 37.1534 22.356 37.1434 22.2585 37.1562C22.161 37.1689 22.0677 37.2041 21.9861 37.2589L19.9991 38.5905L18.0117 37.2589C17.9301 37.2038 17.8369 37.1685 17.7394 37.1558C17.6418 37.143 17.5426 37.1532 17.4497 37.1854L15.1867 37.9585L13.6152 36.1585C13.5507 36.0844 13.4699 36.0261 13.3792 35.9883C13.2885 35.9505 13.1903 35.9341 13.0922 35.9405L10.7053 36.0985L9.65527 33.9486C9.61197 33.8602 9.54882 33.783 9.47076 33.7231C9.3927 33.6632 9.30184 33.622 9.20528 33.603L6.85531 33.139L6.39231 30.7926C6.37325 30.696 6.33209 30.605 6.27207 30.527C6.21205 30.4489 6.13479 30.3858 6.04632 30.3425L3.89634 29.2926L4.05384 26.9057C4.06027 26.8076 4.04398 26.7094 4.00626 26.6187C3.96854 26.528 3.91039 26.4472 3.83635 26.3826L2.03637 24.8111L2.81036 22.5482C2.84205 22.4552 2.85186 22.3561 2.83902 22.2588C2.82619 22.1614 2.79106 22.0683 2.73636 21.9867L1.40438 19.9998L2.73636 18.0122C2.79103 17.9305 2.82614 17.8374 2.83897 17.7399C2.8518 17.6424 2.84201 17.5433 2.81036 17.4502L2.03637 15.1873L3.83635 13.6153C3.91057 13.5509 3.96885 13.4701 4.00659 13.3793C4.04433 13.2886 4.0605 13.1903 4.05384 13.0922L3.89634 10.7058L6.04632 9.65588C6.13469 9.61258 6.21186 9.54938 6.27179 9.47132C6.33173 9.39326 6.3728 9.30238 6.39181 9.20582L6.85581 6.85587L9.20278 6.39286C9.29945 6.37378 9.39038 6.33262 9.46846 6.2725C9.54653 6.21239 9.60962 6.13502 9.65277 6.04643L10.7028 3.89644L13.0892 4.0539C13.1872 4.06014 13.2854 4.04376 13.3761 4.00605C13.4667 3.96834 13.5475 3.91027 13.6122 3.83638L15.1837 2.03647L17.4472 2.81039C17.5401 2.84219 17.6392 2.85204 17.7366 2.8392C17.834 2.82636 17.9271 2.79122 18.0087 2.73642L19.9961 1.40489L21.9876 2.73642C22.0692 2.79122 22.1623 2.82636 22.2597 2.8392C22.3571 2.85204 22.4562 2.84219 22.5491 2.81039L24.8121 2.03647L26.3841 3.83638C26.4486 3.91035 26.5293 3.96845 26.6199 4.00618C26.7105 4.0439 26.8086 4.06025 26.9066 4.0539L29.2935 3.89644L30.3435 6.04643C30.3868 6.13488 30.4499 6.21212 30.528 6.27214C30.606 6.33216 30.6969 6.37327 30.7935 6.39238L33.1435 6.85587L33.607 9.20289C33.626 9.29945 33.6671 9.39021 33.727 9.46827C33.7869 9.54633 33.8641 9.60953 33.9525 9.65283L36.1024 10.7029L35.9444 13.0898C35.9381 13.1877 35.9545 13.2858 35.9922 13.3764C36.0299 13.467 36.088 13.5477 36.1619 13.6123L37.9619 15.1847L37.1884 17.4473C37.1567 17.5403 37.1468 17.6394 37.1595 17.7368C37.1723 17.8343 37.2073 17.9274 37.2619 18.0092L38.5939 19.9967L37.2609 21.9872Z" fill="#7CBDA8"/>
<path d="M21.5257 17.1053L22.8257 15.9552C22.9279 15.8645 22.9947 15.7405 23.0143 15.6053C23.0338 15.47 23.005 15.3322 22.9327 15.2162L22.0017 13.7163C21.9495 13.6329 21.877 13.5641 21.7909 13.5164C21.7049 13.4688 21.6081 13.4438 21.5097 13.4438H18.4948C18.3964 13.4438 18.2996 13.4688 18.2136 13.5164C18.1275 13.5641 18.055 13.6329 18.0028 13.7163L17.0718 15.2162C16.9995 15.3322 16.9705 15.47 16.9901 15.6053C17.0097 15.7405 17.0765 15.8646 17.1788 15.9552L18.4788 17.1053C17.3848 17.4676 16.4556 18.2076 15.8577 19.1928C15.2598 20.1779 15.0322 21.3438 15.2157 22.4815C15.3992 23.6192 15.9819 24.6544 16.8592 25.4015C17.7366 26.1487 18.8513 26.5591 20.0038 26.5591C21.1562 26.5591 22.2709 26.1487 23.1483 25.4015C24.0256 24.6544 24.6083 23.6192 24.7918 22.4815C24.9753 21.3438 24.7477 20.1779 24.1498 19.1928C23.5519 18.2076 22.6227 17.4676 21.5287 17.1053H21.5257ZM18.3113 15.4113L18.8148 14.6017H21.1857L21.6897 15.4113L20.0583 16.8612C20.0388 16.8612 20.0198 16.8612 20.0003 16.8612C19.9808 16.8612 19.9618 16.8612 19.9428 16.8612L18.3113 15.4113ZM20.0003 25.3981C19.2703 25.398 18.5567 25.1814 17.9498 24.7758C17.3429 24.3702 16.8699 23.7938 16.5906 23.1193C16.3113 22.4449 16.2383 21.7027 16.3808 20.9868C16.5233 20.2709 16.8748 19.6132 17.391 19.0971C17.9072 18.5809 18.5649 18.2294 19.2809 18.0871C19.9968 17.9447 20.7389 18.0179 21.4133 18.2973C22.0877 18.5766 22.6642 19.0497 23.0697 19.6566C23.4752 20.2636 23.6917 20.9771 23.6917 21.7071C23.6905 22.6853 23.3015 23.6231 22.6101 24.315C21.9186 25.0069 20.9809 25.3964 20.0028 25.3981H20.0003Z" fill="#7CBDA8"/>
</g>
<defs>
<clipPath id="clip0_191_5">
<rect width="40" height="40" fill="white"/>
</clipPath>
</defs>
</svg>
