<svg width="18" height="18" viewBox="0 0 18 18" fill="none" xmlns="http://www.w3.org/2000/svg">
<g clip-path="url(#clip0_90_486)">
<path d="M8.98524 1.20344e-05C13.9563 -0.00803878 18.0038 4.02434 18 8.99706C17.9962 13.9451 14.0449 17.9635 9.09742 17.9984C4.0458 18.0338 0.00322225 14.0133 1.93033e-06 9.00833C-0.00321839 4.04474 4.02326 0.00806284 8.98524 1.20344e-05ZM16.7242 9.00833C16.7221 4.76609 13.2753 1.2919 9.06682 1.29083C4.75588 1.28975 1.28598 4.74033 1.29511 9.02014C1.3037 13.2731 4.76018 16.7248 9.00832 16.7232C13.2779 16.7215 16.7264 13.2731 16.7242 9.00833Z" fill="white"/>
<path d="M9.95191 8.93425C10.6303 9.64165 11.2787 10.3185 11.9281 10.9942C12.021 11.0908 12.1203 11.181 12.2131 11.2776C12.4847 11.561 12.4874 11.9458 12.2217 12.2109C11.9576 12.4739 11.568 12.4729 11.2889 12.1954C10.5707 11.4831 9.85798 10.7661 9.14253 10.0506C9.10067 10.0088 9.05612 9.96905 9.00352 9.91967C8.95092 9.96851 8.90154 10.0115 8.85592 10.0576C8.15497 10.7682 7.45508 11.4794 6.75412 12.1895C6.56413 12.3821 6.33548 12.4541 6.07517 12.3709C5.83097 12.293 5.68498 12.1165 5.64204 11.8642C5.60179 11.627 5.69464 11.4359 5.86049 11.2684C6.54427 10.5788 7.22429 9.88532 7.907 9.19456C7.96336 9.13767 8.03098 9.09205 8.11042 9.0271C8.03796 8.95035 7.99073 8.89829 7.94028 8.84784C7.24898 8.15601 6.55661 7.46578 5.86693 6.77234C5.65438 6.55873 5.60769 6.28768 5.72631 6.03489C5.84009 5.79229 6.1004 5.62215 6.36232 5.67689C6.52172 5.71017 6.69187 5.79927 6.80887 5.91305C7.49104 6.5759 8.15926 7.25271 8.83016 7.92683C8.88169 7.97835 8.91818 8.04491 8.96917 8.11468C9.05719 8.03256 9.11086 7.98533 9.16185 7.93488C9.86281 7.23446 10.5627 6.53189 11.2653 5.83254C11.4977 5.60122 11.7907 5.55613 12.0553 5.6989C12.3129 5.83791 12.4546 6.11915 12.3731 6.41166C12.3339 6.55175 12.2421 6.69183 12.1385 6.79596C11.4537 7.48457 10.7591 8.16352 10.0668 8.84408C10.0195 8.89078 9.96157 8.9262 9.95298 8.93264L9.95191 8.93425Z" fill="white"/>
</g>
<defs>
<clipPath id="clip0_90_486">
<rect width="18" height="17.9989" fill="white"/>
</clipPath>
</defs>
</svg>
