<svg width="16" height="9" viewBox="0 0 16 9" fill="none" xmlns="http://www.w3.org/2000/svg">
<g clip-path="url(#clip0_137_20)">
<path d="M8.04191 6.9996C8.10143 6.91579 8.14455 6.83258 8.20771 6.76942C10.3638 4.60968 12.5229 2.45238 14.6784 0.292042C14.8776 0.0922246 15.0957 -0.0347113 15.3841 0.0084105C15.935 0.0904026 16.1889 0.74148 15.8409 1.18059C15.7892 1.24558 15.7273 1.30267 15.6684 1.36158C13.3228 3.70716 10.9778 6.05275 8.63164 8.39833C8.18342 8.84655 7.81719 8.84473 7.36653 8.39408C5.01002 6.03695 2.65472 3.67983 0.296386 1.32636C0.0904943 1.12107 -0.0400857 0.895747 0.011539 0.599361C0.105071 0.0600351 0.744609 -0.182297 1.17643 0.157211C1.24749 0.213087 1.30944 0.28111 1.37322 0.345489C3.5208 2.49247 5.66839 4.64005 7.81597 6.78703C7.87367 6.84473 7.9344 6.89939 8.0413 7.00021L8.04191 6.9996Z" fill="#404041"/>
</g>
<defs>
<clipPath id="clip0_137_20">
<rect width="16" height="8.73246" fill="white"/>
</clipPath>
</defs>
</svg>
