<svg width="277" height="150" viewBox="0 0 277 150" fill="none" xmlns="http://www.w3.org/2000/svg">
<path d="M110.645 36.9741L110.488 87.9765C110.488 87.9765 110.762 97.8964 120.306 98.054C125.378 98.1353 129.916 95.3758 131.425 92.7688C132.391 91.1019 132.935 89.1758 133.163 87.1989C133.545 83.9008 134.093 73.7978 147.713 66.119C156.256 61.3064 158.106 51.5491 157.907 43.2553C157.638 32.0751 152.053 21.7943 143.114 17.1189C137.595 14.2324 130.943 13.8817 123.03 18.6841C123.035 18.6841 112.505 25.5041 110.645 36.9741Z" stroke="#404041" stroke-width="5" stroke-miterlimit="10"/>
<path d="M122.142 105.626C122.142 105.626 105.3 135 122.518 135C139.735 135 122.142 105.809 122.142 105.809" stroke="#404041" stroke-width="5" stroke-miterlimit="10" stroke-linecap="round"/>
<path d="M122.655 102.669C125.335 102.669 127.508 100.496 127.508 97.8154C127.508 95.135 125.335 92.9622 122.655 92.9622C119.975 92.9622 117.802 95.135 117.802 97.8154C117.802 100.496 119.975 102.669 122.655 102.669Z" stroke="#404041" stroke-width="3" stroke-miterlimit="10" stroke-linecap="round"/>
<path d="M155.703 33.6716C158.99 33.6716 161.654 31.0072 161.654 27.7206C161.654 24.434 158.99 21.7697 155.703 21.7697C152.417 21.7697 149.752 24.434 149.752 27.7206C149.752 31.0072 152.417 33.6716 155.703 33.6716Z" stroke="#404041" stroke-width="3" stroke-miterlimit="10" stroke-linecap="round"/>
<path d="M158.333 48.6738C161.017 48.6738 163.192 46.4987 163.192 43.8155C163.192 41.1323 161.017 38.9572 158.333 38.9572C155.65 38.9572 153.475 41.1323 153.475 43.8155C153.475 46.4987 155.65 48.6738 158.333 48.6738Z" stroke="#404041" stroke-width="3" stroke-miterlimit="10" stroke-linecap="round"/>
<path d="M155.526 66.5798C158.209 66.5798 160.385 64.4047 160.385 61.7215C160.385 59.0383 158.209 56.8632 155.526 56.8632C152.843 56.8632 150.668 59.0383 150.668 61.7215C150.668 64.4047 152.843 66.5798 155.526 66.5798Z" stroke="#404041" stroke-width="3" stroke-miterlimit="10" stroke-linecap="round"/>
<path d="M142.518 79.5444C145.201 79.5444 147.376 77.3693 147.376 74.6861C147.376 72.0029 145.201 69.8278 142.518 69.8278C139.835 69.8278 137.66 72.0029 137.66 74.6861C137.66 77.3693 139.835 79.5444 142.518 79.5444Z" stroke="#404041" stroke-width="3" stroke-miterlimit="10" stroke-linecap="round"/>
<path d="M134.932 96.202C137.615 96.202 139.79 94.0269 139.79 91.3437C139.79 88.6605 137.615 86.4854 134.932 86.4854C132.249 86.4854 130.074 88.6605 130.074 91.3437C130.074 94.0269 132.249 96.202 134.932 96.202Z" stroke="#404041" stroke-width="3" stroke-miterlimit="10" stroke-linecap="round"/>
<path d="M144.369 42.8437C144.369 42.8437 142.199 31.2671 132.793 31.9887C123.386 32.7103 122.42 40.9126 122.42 40.9126C122.42 40.9126 131.588 42.117 131.344 48.6321C131.1 55.1471 123.142 55.8687 123.142 55.8687" stroke="#404041" stroke-width="5" stroke-miterlimit="10" stroke-linecap="round" stroke-linejoin="round"/>
</svg>
