<svg width="40" height="40" viewBox="0 0 40 40" fill="none" xmlns="http://www.w3.org/2000/svg">
<g clip-path="url(#clip0_191_16)">
<path d="M39.5947 8.6503L24.0159 0.0964572C23.9009 0.0334806 23.7719 0.000511169 23.6409 0.000511169C23.5098 0.000511169 23.3808 0.0334806 23.2659 0.0964572L17.3939 3.3209C17.2687 3.35389 17.1536 3.41715 17.0585 3.50498L7.68706 8.6503C7.56393 8.71759 7.4612 8.81682 7.38967 8.93753C7.31814 9.05825 7.28045 9.19602 7.28057 9.33633V19.6823C5.85326 20.1323 4.53979 20.8847 3.42973 21.8884C2.31967 22.8922 1.43913 24.1235 0.848185 25.4985C0.257239 26.8734 -0.0302387 28.3596 0.00539151 29.8557C0.0410218 31.3519 0.398907 32.8228 1.05463 34.1681C1.1483 34.3496 1.30938 34.4873 1.50333 34.5516C1.69727 34.6159 1.90867 34.6016 2.09225 34.5119C2.27583 34.4222 2.41698 34.2642 2.48546 34.0717C2.55395 33.8792 2.54432 33.6675 2.45864 33.482C1.54129 31.6039 1.31975 29.4613 1.8334 27.4352C2.34705 25.4091 3.56258 23.6309 5.2639 22.4166C6.96522 21.2023 9.04205 20.6308 11.1251 20.8036C13.2081 20.9764 15.1624 21.8822 16.6404 23.3602C18.1184 24.8382 19.0243 26.7925 19.1971 28.8755C19.3699 30.9586 18.7983 33.0355 17.5841 34.7368C16.3698 36.4381 14.5915 37.6536 12.5654 38.1673C10.5393 38.6809 8.39672 38.4594 6.51859 37.542C6.42643 37.497 6.32629 37.4705 6.22391 37.4642C6.12153 37.4578 6.01893 37.4717 5.92191 37.505C5.8249 37.5384 5.7354 37.5905 5.65852 37.6584C5.58164 37.7263 5.51887 37.8086 5.47383 37.9008C5.42879 37.9929 5.40236 38.093 5.39601 38.1953C5.38966 38.2977 5.40353 38.4005 5.43684 38.4975C5.47015 38.5945 5.52226 38.6839 5.59016 38.7608C5.65806 38.8376 5.74044 38.9004 5.83259 38.9455C7.08778 39.5563 8.45294 39.9086 9.84697 39.9815C11.241 40.0543 12.6355 39.8461 13.9475 39.3694C15.2595 38.8927 16.4623 38.1572 17.4844 37.2065C18.5065 36.2557 19.3271 35.1092 19.8974 33.835L23.2639 35.685C23.3788 35.748 23.5078 35.7811 23.6389 35.7811C23.7699 35.7811 23.8989 35.748 24.0138 35.685L39.5927 27.1312C39.7155 27.0639 39.8179 26.9647 39.8893 26.8442C39.9606 26.7236 39.9982 26.5862 39.9981 26.4461V21.0172C40.0008 20.913 39.9825 20.8093 39.9445 20.7122C39.9064 20.6151 39.8493 20.5266 39.7765 20.4519C39.7037 20.3772 39.6166 20.3179 39.5205 20.2774C39.4245 20.2368 39.3212 20.216 39.2169 20.216C39.1126 20.216 39.0094 20.2368 38.9133 20.2774C38.8172 20.3179 38.7302 20.3772 38.6574 20.4519C38.5846 20.5266 38.5275 20.6151 38.4894 20.7122C38.4513 20.8093 38.433 20.913 38.4357 21.0172V25.9842L24.4224 33.679V18.3512L29.0468 15.8112V19.8367C29.0469 19.9724 29.0824 20.1059 29.1497 20.2238C29.217 20.3417 29.3138 20.4399 29.4307 20.509C29.5475 20.5782 29.6803 20.6157 29.8161 20.6179C29.9518 20.6201 30.0858 20.587 30.2048 20.5217L33.5428 18.6842C33.6653 18.6169 33.7675 18.518 33.8386 18.3976C33.9098 18.2773 33.9473 18.1401 33.9472 18.0003V13.1203L38.4357 10.6559V14.7653C38.4408 14.9691 38.5254 15.1627 38.6713 15.305C38.8173 15.4473 39.0131 15.5271 39.2169 15.5271C39.4207 15.5271 39.6165 15.4473 39.7625 15.305C39.9084 15.1627 39.993 14.9691 39.9981 14.7653V9.33633C39.9983 9.19636 39.961 9.05891 39.8901 8.93827C39.8191 8.81762 39.7171 8.71815 39.5947 8.6503ZM23.6404 1.67249L37.5952 9.33584L33.1953 11.7528L19.2404 4.08994L23.6404 1.67249ZM23.6404 16.9987L9.68505 9.33633L14.248 6.83038L28.2043 14.4932L23.6404 16.9987ZM29.8268 13.6013L15.872 5.93843L17.6149 4.98189L31.5708 12.6438L29.8268 13.6013ZM17.7474 22.2512C16.7845 21.283 15.6391 20.5153 14.3775 19.9927C13.1158 19.4701 11.7631 19.2029 10.3975 19.2067C9.8776 19.2067 9.35837 19.2449 8.84406 19.3212V10.6543L22.8624 18.3543V33.6795L20.4289 32.3436C20.6709 31.4504 20.7931 30.529 20.7924 29.6037C20.7962 28.2379 20.529 26.8849 20.0064 25.6231C19.4837 24.3613 18.7159 23.2157 17.7474 22.2527V22.2512ZM32.3868 17.5368L30.6113 18.5142V14.9517L32.3868 13.9773V17.5368Z" fill="#7CBDA8"/>
<path d="M39.2185 17.1053C39.0375 17.1046 38.8618 17.1668 38.7215 17.2812C38.5812 17.3956 38.4849 17.5551 38.4491 17.7326C38.4132 17.91 38.4401 18.0944 38.5251 18.2543C38.61 18.4142 38.7479 18.5396 38.915 18.6091C39.0822 18.6787 39.2682 18.6882 39.4416 18.6359C39.6149 18.5836 39.7647 18.4727 39.8654 18.3223C39.9661 18.1718 40.0115 17.9911 39.9938 17.8109C39.9762 17.6308 39.8965 17.4623 39.7685 17.3343C39.6225 17.1884 39.4249 17.1061 39.2185 17.1053Z" fill="#7CBDA8"/>
<path d="M7.77063 30.3861C7.92485 30.3855 8.07543 30.3392 8.20342 30.2532C8.33141 30.1671 8.43108 30.0452 8.48989 29.9026C8.54869 29.76 8.56401 29.6032 8.53389 29.4519C8.50377 29.3007 8.42957 29.1618 8.32064 29.0526L7.78064 28.509H12.3981C12.9313 28.5174 13.4398 28.7351 13.8139 29.1151C14.188 29.4951 14.3977 30.007 14.3977 30.5403C14.3977 31.0735 14.188 31.5854 13.8139 31.9654C13.4398 32.3454 12.9313 32.5631 12.3981 32.5715H9.66211C9.55955 32.5715 9.45798 32.5917 9.36323 32.6309C9.26847 32.6702 9.1824 32.7277 9.10987 32.8002C9.03735 32.8728 8.97981 32.9589 8.94056 33.0537C8.90132 33.1484 8.88112 33.2499 8.88112 33.3525C8.88112 33.455 8.90132 33.5567 8.94056 33.6514C8.97981 33.7462 9.03735 33.8322 9.10987 33.9047C9.1824 33.9773 9.26847 34.0348 9.36323 34.074C9.45798 34.1133 9.55955 34.1335 9.66211 34.1335H12.3981C12.87 34.1335 13.3373 34.0405 13.7732 33.8599C14.2092 33.6793 14.6053 33.4147 14.939 33.081C15.2727 32.7473 15.5374 32.3512 15.718 31.9153C15.8986 31.4793 15.9915 31.0119 15.9915 30.54C15.9915 30.0681 15.8986 29.6009 15.718 29.1649C15.5374 28.7289 15.2727 28.3328 14.939 27.9992C14.6053 27.6655 14.2092 27.4007 13.7732 27.2201C13.3373 27.0395 12.87 26.9466 12.3981 26.9466H7.78064L8.32162 26.4057C8.3943 26.3332 8.45201 26.247 8.49141 26.1523C8.53081 26.0575 8.55112 25.9559 8.55123 25.8533C8.55133 25.7507 8.53123 25.649 8.49202 25.5541C8.45282 25.4593 8.39528 25.3731 8.32274 25.3005C8.2502 25.2279 8.16405 25.1703 8.06924 25.131C7.97442 25.0917 7.8728 25.0715 7.77017 25.0715C7.66754 25.0715 7.56591 25.0917 7.4711 25.131C7.37629 25.1703 7.29018 25.228 7.21766 25.3006L5.34167 27.1756C5.19542 27.3222 5.11328 27.5209 5.11328 27.728C5.11328 27.9352 5.19542 28.134 5.34167 28.2807L7.21766 30.155C7.28995 30.2282 7.37605 30.2864 7.47098 30.326C7.56591 30.3657 7.66775 30.3861 7.77063 30.3861Z" fill="#7CBDA8"/>
<path d="M3.59981 37.1859C3.48598 37.1861 3.37351 37.1613 3.27035 37.1132C3.16719 37.065 3.07587 36.9948 3.00284 36.9075C2.88924 36.7714 2.82544 36.6006 2.82193 36.4234C2.81842 36.2461 2.8754 36.073 2.98352 35.9325C3.09164 35.792 3.24443 35.6926 3.41665 35.6507C3.58887 35.6087 3.77026 35.6266 3.93089 35.7016C4.09153 35.7765 4.22183 35.904 4.30027 36.063C4.37872 36.222 4.40063 36.403 4.36241 36.5761C4.32419 36.7492 4.22813 36.904 4.09004 37.0151C3.95195 37.1263 3.7801 37.1871 3.60283 37.1875L3.59981 37.1859Z" fill="#7CBDA8"/>
</g>
<defs>
<clipPath id="clip0_191_16">
<rect width="40" height="40" fill="white"/>
</clipPath>
</defs>
</svg>
