<svg width="40" height="40" viewBox="0 0 40 40" fill="none" xmlns="http://www.w3.org/2000/svg">
<g clip-path="url(#clip0_124_221)">
<path d="M39.5947 8.65028L24.0159 0.0964343C23.9009 0.0334577 23.7719 0.000488281 23.6409 0.000488281C23.5098 0.000488281 23.3808 0.0334577 23.2659 0.0964343L17.3939 3.32088C17.2687 3.35387 17.1536 3.41713 17.0585 3.50496L7.68706 8.65028C7.56393 8.71757 7.4612 8.8168 7.38967 8.93751C7.31814 9.05822 7.28045 9.19599 7.28057 9.33631V19.6822C5.85326 20.1322 4.53979 20.8847 3.42973 21.8884C2.31967 22.8921 1.43913 24.1235 0.848185 25.4985C0.257239 26.8734 -0.0302387 28.3596 0.00539151 29.8557C0.0410218 31.3518 0.398907 32.8228 1.05463 34.168C1.1483 34.3496 1.30938 34.4873 1.50333 34.5516C1.69727 34.6158 1.90867 34.6016 2.09225 34.5119C2.27583 34.4222 2.41698 34.2642 2.48546 34.0717C2.55395 33.8792 2.54432 33.6675 2.45864 33.482C1.54129 31.6039 1.31975 29.4613 1.8334 27.4352C2.34705 25.4091 3.56258 23.6309 5.2639 22.4166C6.96522 21.2023 9.04205 20.6308 11.1251 20.8036C13.2081 20.9764 15.1624 21.8822 16.6404 23.3602C18.1184 24.8382 19.0243 26.7925 19.1971 28.8755C19.3699 30.9585 18.7983 33.0354 17.5841 34.7367C16.3698 36.4381 14.5915 37.6536 12.5654 38.1672C10.5393 38.6809 8.39672 38.4594 6.51859 37.542C6.42643 37.497 6.32629 37.4705 6.22391 37.4641C6.12153 37.4578 6.01893 37.4717 5.92191 37.505C5.8249 37.5383 5.7354 37.5904 5.65852 37.6583C5.58164 37.7262 5.51887 37.8086 5.47383 37.9008C5.42879 37.9929 5.40236 38.0929 5.39601 38.1953C5.38966 38.2977 5.40353 38.4004 5.43684 38.4974C5.47015 38.5945 5.52226 38.6839 5.59016 38.7607C5.65806 38.8376 5.74044 38.9004 5.83259 38.9454C7.08778 39.5563 8.45294 39.9086 9.84697 39.9814C11.241 40.0543 12.6355 39.8461 13.9475 39.3694C15.2595 38.8927 16.4623 38.1572 17.4844 37.2064C18.5065 36.2557 19.3271 35.1092 19.8974 33.835L23.2639 35.685C23.3788 35.748 23.5078 35.781 23.6389 35.781C23.7699 35.781 23.8989 35.748 24.0138 35.685L39.5927 27.1311C39.7155 27.0638 39.8179 26.9647 39.8893 26.8441C39.9606 26.7236 39.9982 26.5861 39.9981 26.4461V21.0172C40.0008 20.9129 39.9825 20.8092 39.9445 20.7121C39.9064 20.6151 39.8493 20.5266 39.7765 20.4519C39.7037 20.3772 39.6166 20.3179 39.5205 20.2773C39.4245 20.2368 39.3212 20.2159 39.2169 20.2159C39.1126 20.2159 39.0094 20.2368 38.9133 20.2773C38.8172 20.3179 38.7302 20.3772 38.6574 20.4519C38.5846 20.5266 38.5275 20.6151 38.4894 20.7121C38.4513 20.8092 38.433 20.9129 38.4357 21.0172V25.9842L24.4224 33.679V18.3512L29.0468 15.8112V19.8367C29.0469 19.9724 29.0824 20.1059 29.1497 20.2237C29.217 20.3416 29.3138 20.4399 29.4307 20.509C29.5475 20.5781 29.6803 20.6157 29.8161 20.6179C29.9518 20.6201 30.0858 20.587 30.2048 20.5217L33.5428 18.6842C33.6653 18.6169 33.7675 18.5179 33.8386 18.3976C33.9098 18.2773 33.9473 18.1401 33.9472 18.0003V13.1203L38.4357 10.6559V14.7653C38.4408 14.9691 38.5254 15.1627 38.6713 15.305C38.8173 15.4473 39.0131 15.527 39.2169 15.527C39.4207 15.527 39.6165 15.4473 39.7625 15.305C39.9084 15.1627 39.993 14.9691 39.9981 14.7653V9.33631C39.9983 9.19634 39.961 9.05889 39.8901 8.93824C39.8191 8.81759 39.7171 8.71812 39.5947 8.65028ZM23.6404 1.67246L37.5952 9.33582L33.1953 11.7528L19.2404 4.08991L23.6404 1.67246ZM23.6404 16.9987L9.68505 9.33631L14.248 6.83036L28.2043 14.4932L23.6404 16.9987ZM29.8268 13.6013L15.872 5.9384L17.6149 4.98187L31.5708 12.6438L29.8268 13.6013ZM17.7474 22.2512C16.7845 21.2829 15.6391 20.5153 14.3775 19.9927C13.1158 19.4701 11.7631 19.2029 10.3975 19.2067C9.8776 19.2066 9.35837 19.2449 8.84406 19.3212V10.6543L22.8624 18.3543V33.6795L20.4289 32.3436C20.6709 31.4504 20.7931 30.529 20.7924 29.6036C20.7962 28.2379 20.529 26.8849 20.0064 25.6231C19.4837 24.3613 18.7159 23.2157 17.7474 22.2527V22.2512ZM32.3868 17.5368L30.6113 18.5142V14.9517L32.3868 13.9772V17.5368Z" fill="#D57C67"/>
<path d="M39.2185 17.1052C39.0375 17.1046 38.8618 17.1667 38.7215 17.2811C38.5812 17.3955 38.4849 17.5551 38.4491 17.7325C38.4132 17.91 38.4401 18.0944 38.5251 18.2543C38.61 18.4141 38.7479 18.5395 38.915 18.6091C39.0822 18.6787 39.2682 18.6882 39.4416 18.6359C39.6149 18.5835 39.7647 18.4727 39.8654 18.3223C39.9661 18.1718 40.0115 17.9911 39.9938 17.8109C39.9762 17.6307 39.8965 17.4622 39.7685 17.3342C39.6225 17.1884 39.4249 17.1061 39.2185 17.1052Z" fill="#D57C67"/>
<path d="M7.77038 30.386C7.9246 30.3854 8.07519 30.3391 8.20318 30.2531C8.33117 30.1671 8.43084 30.0451 8.48964 29.9025C8.54845 29.76 8.56377 29.6031 8.53365 29.4518C8.50353 29.3006 8.42933 29.1617 8.32039 29.0526L7.78039 28.509H12.3978C12.931 28.5174 13.4396 28.735 13.8137 29.1151C14.1878 29.4951 14.3974 30.007 14.3974 30.5402C14.3974 31.0735 14.1878 31.5853 13.8137 31.9654C13.4396 32.3454 12.931 32.5631 12.3978 32.5714H9.66187C9.55931 32.5714 9.45774 32.5916 9.36298 32.6309C9.26823 32.6701 9.18215 32.7277 9.10963 32.8002C9.03711 32.8727 8.97957 32.9589 8.94032 33.0536C8.90107 33.1484 8.88087 33.2499 8.88087 33.3524C8.88087 33.455 8.90107 33.5566 8.94032 33.6514C8.97957 33.7461 9.03711 33.8322 9.10963 33.9047C9.18215 33.9772 9.26823 34.0347 9.36298 34.074C9.45774 34.1132 9.55931 34.1334 9.66187 34.1334H12.3978C12.8697 34.1334 13.337 34.0405 13.773 33.8599C14.209 33.6793 14.6051 33.4146 14.9388 33.081C15.2725 32.7473 15.5372 32.3512 15.7178 31.9152C15.8984 31.4792 15.9913 31.0119 15.9913 30.54C15.9913 30.0681 15.8984 29.6008 15.7178 29.1649C15.5372 28.7289 15.2725 28.3328 14.9388 27.9991C14.6051 27.6654 14.209 27.4007 13.773 27.2201C13.337 27.0395 12.8697 26.9465 12.3978 26.9465H7.78039L8.32137 26.4056C8.39406 26.3332 8.45177 26.247 8.49117 26.1522C8.53057 26.0574 8.55088 25.9559 8.55098 25.8533C8.55109 25.7506 8.53099 25.6489 8.49178 25.5541C8.45257 25.4592 8.39504 25.373 8.3225 25.3004C8.24996 25.2278 8.16381 25.1703 8.06899 25.131C7.97418 25.0917 7.87256 25.0714 7.76993 25.0714C7.66729 25.0714 7.56566 25.0917 7.47086 25.131C7.37605 25.1703 7.28994 25.2279 7.21741 25.3005L5.34143 27.1755C5.19518 27.3222 5.11304 27.5209 5.11304 27.728C5.11304 27.9351 5.19518 28.1339 5.34143 28.2806L7.21741 30.155C7.2897 30.2282 7.37581 30.2863 7.47073 30.326C7.56566 30.3656 7.66751 30.3861 7.77038 30.386Z" fill="#D57C67"/>
<path d="M3.60006 37.1859C3.48622 37.186 3.37376 37.1612 3.27059 37.1131C3.16743 37.065 3.07611 36.9947 3.00308 36.9074C2.88949 36.7713 2.82568 36.6005 2.82217 36.4233C2.81867 36.2461 2.87565 36.0729 2.98376 35.9325C3.09188 35.792 3.24467 35.6926 3.41689 35.6506C3.58912 35.6086 3.7705 35.6265 3.93114 35.7015C4.09177 35.7765 4.22207 35.904 4.30052 36.063C4.37897 36.2219 4.40087 36.4029 4.36265 36.576C4.32443 36.7491 4.22837 36.9039 4.09029 37.0151C3.9522 37.1262 3.78035 37.1871 3.60308 37.1875L3.60006 37.1859Z" fill="#D57C67"/>
</g>
<defs>
<clipPath id="clip0_124_221">
<rect width="40" height="40" fill="white"/>
</clipPath>
</defs>
</svg>
