<svg width="132" height="71" viewBox="0 0 132 71" fill="none" xmlns="http://www.w3.org/2000/svg">
<path fill-rule="evenodd" clip-rule="evenodd" d="M97.5 31.1C97.5 25.5 97.5 19.9 97.5 14.3C97.5 13.7 97.3 13.2 96.9 12.8C95.8 11.7 94.7 10.7 93.6 9.6C91.8 7.9 90 6.2 88.2 4.5C87.8 4.2 87.3 4 86.9 4C78 4 69.1 4 60.2 4C55.1 4 50 4 44.9 4C44.6 4 44.4 4 44.2 4.1C43.9 4.2 43.7 4.4 43.5 4.6C40.7 7.5 37.9 10.4 35.1 13.2C34.7 13.6 34.5 14 34.5 14.6C34.5 28.6 34.5 42.6 34.5 56.6C34.5 57.1 34.7 57.6 35 58C37.8 60.8 40.6 63.6 43.4 66.4C43.8 66.8 44.2 67 44.8 67C58.8 67 72.8 67 86.8 67C87.4 67 87.8 66.8 88.2 66.5C90.1 64.6 92 62.8 93.9 61C94.9 60.1 95.9 59.1 96.8 58.2C97.3 57.8 97.4 57.3 97.4 56.7C97.4 51.2 97.4 45.7 97.4 40.2L97.5 31.1ZM87.7 5.9L95.6 13.5L84.1 17.6L87.7 5.9ZM86.5 5.3L86.1 6.7C85.8 7.6 85.6 8.5 85.3 9.3C84.9 10.6 84.5 11.9 84.1 13.2C83.8 14.2 83.4 15.3 83.1 16.3C83 16.7 82.8 16.9 82.3 16.9C71.4 16.9 60.5 16.9 49.6 16.9C49.2 16.9 49 16.8 48.8 16.4C47.7 12.8 46.5 9.2 45.3 5.6C45.3 5.5 45.3 5.5 45.3 5.4C45.3 5.4 45.3 5.3 45.3 5.2L86.5 5.3ZM83.3 18.4V53.3H48.7V18.4H83.3ZM44 5.9L47.8 17.6L36.3 13.9L44 5.9ZM47.3 52.4C47.3 52.8 47.2 53 46.8 53.1L47.3 52.4ZM44 65L36.5 57.5L47.9 54.2L44 65ZM86.4 65.7H45.2L46.6 61.8C47.1 60.5 47.5 59.2 48 57.8C48.3 56.9 48.6 56 48.9 55.2C49 54.9 49.1 54.7 49.4 54.7C49.5 54.7 49.5 54.7 49.6 54.7C58.7 54.7 67.8 54.7 76.8 54.7H82.4C82.7 54.7 82.9 54.7 83 55C83.8 57.6 84.7 60.2 85.5 62.8L86.4 65.5C86.4 65.5 86.4 65.6 86.4 65.7ZM87.7 65.2L84.2 54.2L95.7 57.5L87.7 65.2ZM96.2 56.3L84.6 52.9V46.5C84.6 37.5 84.6 28.5 84.6 19.4C84.6 18.9 84.7 18.7 85.2 18.5C87.8 17.6 90.4 16.7 93.1 15.7L95.6 14.8C95.7 14.8 95.8 14.7 95.9 14.7L96.1 14.6L96.2 56.3Z" fill="#404041"/>
</svg>
