<svg width="44" height="40" viewBox="0 0 44 40" fill="none" xmlns="http://www.w3.org/2000/svg">
<g clip-path="url(#clip0_191_24)">
<path d="M43.9905 34.6155L41.8258 8.75697C41.8036 8.4947 41.6896 8.25081 41.5063 8.07352C41.3229 7.89623 41.0837 7.79848 40.8357 7.79954H36.3434C36.3265 5.72514 35.5389 3.74181 34.1519 2.28126C32.7649 0.82072 30.891 0.00112915 28.9379 0.00112915C26.9848 0.00112915 25.1108 0.82072 23.7238 2.28126C22.3369 3.74181 21.5493 5.72514 21.5324 7.79954H17.0405C16.7931 7.80034 16.5548 7.89873 16.3719 8.07566C16.1889 8.25259 16.0744 8.4954 16.0506 8.75697L13.8857 34.6155V34.7113C13.8857 37.6241 16.402 40 19.5051 40H38.3844C41.4781 40 44.0037 37.6334 44.0037 34.7113C44.0045 34.6788 44 34.6464 43.9905 34.6155ZM28.9453 2.10769C30.3715 2.11001 31.7395 2.70834 32.7539 3.77326C33.7682 4.83817 34.3473 6.28425 34.3661 7.79897H23.5152C23.5347 6.28277 24.1153 4.83557 25.1315 3.77055C26.1477 2.70552 27.5177 2.10816 28.9453 2.10769ZM38.3805 37.8823H19.5012C17.5163 37.8823 15.8933 36.4802 15.8663 34.7492L17.9409 9.9061H21.522V13.3165C21.522 13.596 21.6265 13.8641 21.8125 14.0617C21.9986 14.2594 22.251 14.3705 22.5141 14.3705C22.7773 14.3705 23.0297 14.2594 23.2157 14.0617C23.4018 13.8641 23.5064 13.596 23.5064 13.3165V9.9061H34.3573V13.3165C34.3573 13.596 34.4618 13.8641 34.6479 14.0617C34.834 14.2594 35.0864 14.3705 35.3495 14.3705C35.6127 14.3705 35.865 14.2594 36.0511 14.0617C36.2372 13.8641 36.3417 13.596 36.3417 13.3165V9.9061H39.9227L41.9974 34.7492C41.9886 36.4837 40.3633 37.8823 38.3805 37.8823Z" fill="#7CBDA8"/>
<path d="M11.5725 16.8819H4.77169C4.50862 16.8819 4.25638 16.9929 4.07036 17.1905C3.88434 17.3881 3.77979 17.656 3.77979 17.9354C3.77979 18.2149 3.88434 18.4829 4.07036 18.6805C4.25638 18.8781 4.50862 18.9891 4.77169 18.9891H11.5725C11.8356 18.9891 12.0879 18.8781 12.2739 18.6805C12.4599 18.4829 12.5644 18.2149 12.5644 17.9354C12.5644 17.656 12.4599 17.3881 12.2739 17.1905C12.0879 16.9929 11.8356 16.8819 11.5725 16.8819Z" fill="#7CBDA8"/>
<path d="M11.5726 22.0169H0.992175C0.729028 22.0169 0.47665 22.1279 0.290576 22.3255C0.104503 22.5232 0 22.7913 0 23.0708C0 23.3503 0.104503 23.6183 0.290576 23.816C0.47665 24.0136 0.729028 24.1246 0.992175 24.1246H11.5726C11.8357 24.1246 12.088 24.0136 12.2741 23.816C12.4602 23.6183 12.5647 23.3503 12.5647 23.0708C12.5647 22.7913 12.4602 22.5232 12.2741 22.3255C12.088 22.1279 11.8357 22.0169 11.5726 22.0169Z" fill="#7CBDA8"/>
<path d="M11.5728 27.1519H4.77196C4.50881 27.1519 4.2565 27.2629 4.07043 27.4606C3.88435 27.6582 3.77979 27.9263 3.77979 28.2058C3.77979 28.4853 3.88435 28.7534 4.07043 28.951C4.2565 29.1486 4.50881 29.2596 4.77196 29.2596H11.5728C11.8359 29.2596 12.0882 29.1486 12.2743 28.951C12.4604 28.7534 12.5649 28.4853 12.5649 28.2058C12.5649 27.9263 12.4604 27.6582 12.2743 27.4606C12.0882 27.2629 11.8359 27.1519 11.5728 27.1519Z" fill="#7CBDA8"/>
</g>
<defs>
<clipPath id="clip0_191_24">
<rect width="44" height="40" fill="white"/>
</clipPath>
</defs>
</svg>
