<svg width="44" height="40" viewBox="0 0 44 40" fill="none" xmlns="http://www.w3.org/2000/svg">
<g clip-path="url(#clip0_124_229)">
<path d="M43.9905 34.6156L41.8258 8.75707C41.8036 8.49479 41.6896 8.2509 41.5063 8.07361C41.3229 7.89632 41.0837 7.79857 40.8357 7.79963H36.3434C36.3265 5.72523 35.5389 3.7419 34.1519 2.28135C32.7649 0.820812 30.891 0.0012207 28.9379 0.0012207C26.9848 0.0012207 25.1108 0.820812 23.7238 2.28135C22.3369 3.7419 21.5493 5.72523 21.5324 7.79963H17.0405C16.7931 7.80043 16.5548 7.89882 16.3719 8.07575C16.1889 8.25268 16.0744 8.49549 16.0506 8.75707L13.8857 34.6156V34.7114C13.8857 37.6242 16.402 40 19.5051 40H38.3844C41.4781 40 44.0037 37.6335 44.0037 34.7114C44.0045 34.6789 44 34.6465 43.9905 34.6156ZM28.9453 2.10778C30.3715 2.1101 31.7395 2.70844 32.7539 3.77335C33.7682 4.83826 34.3473 6.28434 34.3661 7.79906H23.5152C23.5347 6.28286 24.1153 4.83566 25.1315 3.77064C26.1477 2.70561 27.5177 2.10825 28.9453 2.10778ZM38.3805 37.8824H19.5012C17.5163 37.8824 15.8933 36.4803 15.8663 34.7493L17.9409 9.90619H21.522V13.3166C21.522 13.5961 21.6265 13.8642 21.8125 14.0618C21.9986 14.2595 22.251 14.3706 22.5141 14.3706C22.7773 14.3706 23.0297 14.2595 23.2157 14.0618C23.4018 13.8642 23.5064 13.5961 23.5064 13.3166V9.90619H34.3573V13.3166C34.3573 13.5961 34.4618 13.8642 34.6479 14.0618C34.834 14.2595 35.0864 14.3706 35.3495 14.3706C35.6127 14.3706 35.865 14.2595 36.0511 14.0618C36.2372 13.8642 36.3417 13.5961 36.3417 13.3166V9.90619H39.9227L41.9974 34.7493C41.9886 36.4838 40.3633 37.8824 38.3805 37.8824Z" fill="#D57C67"/>
<path d="M11.5725 16.882H4.77169C4.50862 16.882 4.25638 16.993 4.07036 17.1906C3.88434 17.3882 3.77979 17.6561 3.77979 17.9355C3.77979 18.215 3.88434 18.483 4.07036 18.6806C4.25638 18.8782 4.50862 18.9892 4.77169 18.9892H11.5725C11.8356 18.9892 12.0879 18.8782 12.2739 18.6806C12.4599 18.483 12.5644 18.215 12.5644 17.9355C12.5644 17.6561 12.4599 17.3882 12.2739 17.1906C12.0879 16.993 11.8356 16.882 11.5725 16.882Z" fill="#D57C67"/>
<path d="M11.5726 22.017H0.992175C0.729028 22.017 0.47665 22.128 0.290576 22.3256C0.104503 22.5232 0 22.7913 0 23.0708C0 23.3503 0.104503 23.6184 0.290576 23.816C0.47665 24.0137 0.729028 24.1247 0.992175 24.1247H11.5726C11.8357 24.1247 12.088 24.0137 12.2741 23.816C12.4602 23.6184 12.5647 23.3503 12.5647 23.0708C12.5647 22.7913 12.4602 22.5232 12.2741 22.3256C12.088 22.128 11.8357 22.017 11.5726 22.017Z" fill="#D57C67"/>
<path d="M11.5725 27.152H4.77172C4.50857 27.152 4.25626 27.263 4.07018 27.4606C3.88411 27.6583 3.77954 27.9263 3.77954 28.2058C3.77954 28.4853 3.88411 28.7534 4.07018 28.951C4.25626 29.1487 4.50857 29.2597 4.77172 29.2597H11.5725C11.8357 29.2597 12.088 29.1487 12.2741 28.951C12.4601 28.7534 12.5647 28.4853 12.5647 28.2058C12.5647 27.9263 12.4601 27.6583 12.2741 27.4606C12.088 27.263 11.8357 27.152 11.5725 27.152Z" fill="#D57C67"/>
</g>
<defs>
<clipPath id="clip0_124_229">
<rect width="44" height="40" fill="white"/>
</clipPath>
</defs>
</svg>
