<svg width="32" height="32" viewBox="0 0 32 32" fill="none" xmlns="http://www.w3.org/2000/svg">
<path d="M14.999 0C15.6652 0 16.3323 0 16.9985 0C17.5337 0.0692966 18.0722 0.117721 18.6024 0.210395C22.4262 0.877479 25.6389 2.65832 28.1469 5.62137C31.3196 9.37007 32.5435 13.7191 31.7787 18.564C31.1175 22.7577 29.0294 26.1657 25.6523 28.733C22.1574 31.3897 18.1891 32.4133 13.8384 31.8472C10.6483 31.4314 7.83636 30.1257 5.42935 27.9892C2.6508 25.5204 0.914214 22.4504 0.249635 18.7869C0.141933 18.195 0.0818201 17.5947 0 16.9985C0 16.3323 0 15.6652 0 14.999C0.0475892 14.6082 0.0884993 14.2167 0.145272 13.8268C0.648716 10.3394 2.11897 7.32206 4.58777 4.80818C6.98309 2.36861 9.87101 0.839073 13.2432 0.24546C13.8251 0.142768 14.4137 0.0809852 14.999 0ZM13.5187 16.5586V25.8184H17.3801V16.5485H19.9783C20.0902 15.4515 20.1995 14.3828 20.3122 13.2791H17.3742C17.3742 12.6688 17.3742 12.0885 17.3742 11.5074C17.3751 10.7109 17.623 10.4646 18.4212 10.4638C19.0223 10.4638 19.6235 10.4638 20.2388 10.4638C20.2488 10.3611 20.2605 10.291 20.2613 10.2208C20.263 9.25402 20.2622 8.28721 20.2622 7.31872C20.197 7.30119 20.1586 7.28115 20.1194 7.28032C19.12 7.27698 18.1173 7.22605 17.1213 7.28449C15.1058 7.40138 13.9169 8.40994 13.6114 10.3152C13.4761 11.1601 13.5387 12.0376 13.512 12.9C13.5087 13.0194 13.512 13.1388 13.512 13.2974H11.7044V16.5586H13.5187Z" fill="#ADADAD"/>
</svg>
