<svg width="277" height="150" viewBox="0 0 277 150" fill="none" xmlns="http://www.w3.org/2000/svg">
<path d="M105.147 67.0912C105.147 67.0912 96.7498 108.905 136.639 111.864C176.101 114.793 171.13 67.2429 171.13 67.2429" stroke="#404041" stroke-width="8.5615" stroke-miterlimit="10" stroke-linecap="round" stroke-linejoin="round"/>
<path d="M119.227 107.178C119.227 107.178 122.337 141.36 76.6538 119.298C76.6538 119.298 90.6405 111.216 86.9119 62.1139C86.9119 62.1139 86.6902 30.7445 118.229 18.7243C131.27 13.7528 145.794 13.7528 158.818 18.7593C190.31 30.8612 190.088 62.4232 190.088 62.4232C186.359 111.525 200.346 119.607 200.346 119.607C154.663 141.669 157.773 107.488 157.773 107.488" stroke="#404041" stroke-width="8.5615" stroke-miterlimit="10" stroke-linecap="round" stroke-linejoin="round"/>
<path d="M168.008 60.521C169.8 60.521 171.252 59.0684 171.252 57.2767C171.252 55.4849 169.8 54.0323 168.008 54.0323C166.216 54.0323 164.764 55.4849 164.764 57.2767C164.764 59.0684 166.216 60.521 168.008 60.521Z" stroke="#404041" stroke-width="2.5" stroke-miterlimit="10" stroke-linecap="round" stroke-linejoin="round"/>
<path d="M148.67 44.7604C150.498 44.7604 151.979 43.2792 151.979 41.4519C151.979 39.6247 150.498 38.1434 148.67 38.1434C146.843 38.1434 145.362 39.6247 145.362 41.4519C145.362 43.2792 146.843 44.7604 148.67 44.7604Z" stroke="#404041" stroke-width="2.5" stroke-miterlimit="10" stroke-linecap="round" stroke-linejoin="round"/>
<path d="M179.538 66.1051C181.04 66.1051 182.257 64.8876 182.257 63.3859C182.257 61.8842 181.04 60.6667 179.538 60.6667C178.036 60.6667 176.819 61.8842 176.819 63.3859C176.819 64.8876 178.036 66.1051 179.538 66.1051Z" stroke="#404041" stroke-width="2.5" stroke-miterlimit="10" stroke-linecap="round" stroke-linejoin="round"/>
<path d="M157.943 52.5328C159.802 52.5328 161.309 51.0254 161.309 49.1659C161.309 47.3065 159.802 45.7991 157.943 45.7991C156.083 45.7991 154.576 47.3065 154.576 49.1659C154.576 51.0254 156.083 52.5328 157.943 52.5328Z" stroke="#404041" stroke-width="2.5" stroke-miterlimit="10" stroke-linecap="round" stroke-linejoin="round"/>
<path d="M138.412 38.0383C140.501 38.0383 142.194 36.3455 142.194 34.2572C142.194 32.1689 140.501 30.4761 138.412 30.4761C136.324 30.4761 134.631 32.1689 134.631 34.2572C134.631 36.3455 136.324 38.0383 138.412 38.0383Z" stroke="#404041" stroke-width="2.5" stroke-miterlimit="10" stroke-linecap="round" stroke-linejoin="round"/>
<path d="M138.412 26.3274C139.949 26.3274 141.196 25.0813 141.196 23.5441C141.196 22.0069 139.949 20.7607 138.412 20.7607C136.875 20.7607 135.629 22.0069 135.629 23.5441C135.629 25.0813 136.875 26.3274 138.412 26.3274Z" stroke="#404041" stroke-width="2.5" stroke-miterlimit="10" stroke-linecap="round" stroke-linejoin="round"/>
<path d="M138.413 62.7032C139.911 62.7032 141.126 61.4884 141.126 59.9899C141.126 58.4914 139.911 57.2766 138.413 57.2766C136.914 57.2766 135.699 58.4914 135.699 59.9899C135.699 61.4884 136.914 62.7032 138.413 62.7032Z" stroke="#404041" stroke-width="2.5" stroke-miterlimit="10" stroke-linecap="round" stroke-linejoin="round"/>
<path d="M138.821 42.4147C138.471 42.0821 137.911 42.1288 137.625 42.5139C136.376 44.2002 133.569 48.6582 136.055 51.7742C139.177 55.6895 141.272 51.1265 141.272 51.1265C141.272 51.1265 143.401 46.7677 138.821 42.4147Z" stroke="#404041" stroke-width="2.5" stroke-miterlimit="10" stroke-linecap="round" stroke-linejoin="round"/>
<path d="M109.068 60.521C110.859 60.521 112.312 59.0684 112.312 57.2767C112.312 55.4849 110.859 54.0323 109.068 54.0323C107.276 54.0323 105.823 55.4849 105.823 57.2767C105.823 59.0684 107.276 60.521 109.068 60.521Z" stroke="#404041" stroke-width="2.5" stroke-miterlimit="10" stroke-linecap="round" stroke-linejoin="round"/>
<path d="M128.405 44.7604C130.232 44.7604 131.714 43.2792 131.714 41.4519C131.714 39.6247 130.232 38.1434 128.405 38.1434C126.578 38.1434 125.097 39.6247 125.097 41.4519C125.097 43.2792 126.578 44.7604 128.405 44.7604Z" stroke="#404041" stroke-width="2.5" stroke-miterlimit="10" stroke-linecap="round" stroke-linejoin="round"/>
<path d="M97.5375 66.1051C99.0393 66.1051 100.257 64.8876 100.257 63.3859C100.257 61.8842 99.0393 60.6667 97.5375 60.6667C96.0358 60.6667 94.8184 61.8842 94.8184 63.3859C94.8184 64.8876 96.0358 66.1051 97.5375 66.1051Z" stroke="#404041" stroke-width="2.5" stroke-miterlimit="10" stroke-linecap="round" stroke-linejoin="round"/>
<path d="M119.139 52.5328C120.998 52.5328 122.506 51.0254 122.506 49.1659C122.506 47.3065 120.998 45.7991 119.139 45.7991C117.279 45.7991 115.772 47.3065 115.772 49.1659C115.772 51.0254 117.279 52.5328 119.139 52.5328Z" stroke="#404041" stroke-width="2.5" stroke-miterlimit="10" stroke-linecap="round" stroke-linejoin="round"/>
<path d="M107.527 126.487L84.7354 135" stroke="#404041" stroke-width="8" stroke-miterlimit="10" stroke-linecap="round" stroke-linejoin="round"/>
<path d="M170.202 126.487L192.994 135" stroke="#404041" stroke-width="8" stroke-miterlimit="10" stroke-linecap="round" stroke-linejoin="round"/>
</svg>
