<svg width="22" height="22" viewBox="0 0 22 22" fill="none" xmlns="http://www.w3.org/2000/svg">
<path d="M16.2541 5.77135C16.8002 5.77135 17.3119 5.76464 17.8236 5.77257C19.1188 5.79208 20.1244 6.53623 20.4115 7.71649C20.5171 8.15017 20.5557 8.60093 20.6158 9.04498C20.857 10.8071 21.0944 12.5699 21.3331 14.3327C21.5515 15.9448 21.7889 17.5545 21.9822 19.1696C22.1632 20.6848 20.9398 21.9968 19.3765 21.998C15.359 22.0016 11.3415 21.9992 7.32395 21.9992C5.96923 21.9992 4.61514 22.0004 3.26042 21.9992C1.56887 21.9974 0.403746 20.661 0.629532 18.9903C1.06576 15.7661 1.49831 12.5418 1.93455 9.31763C2.00204 8.82051 2.0591 8.32096 2.15297 7.82873C2.37201 6.68384 3.36104 5.83722 4.53599 5.78476C5.04769 5.7622 5.56123 5.7744 6.07354 5.77074C6.15575 5.77074 6.23736 5.77074 6.37602 5.77074C6.37602 5.27118 6.33798 4.79725 6.38277 4.33124C6.58033 2.26227 8.2866 0.448267 10.3481 0.0835133C13.1563 -0.41299 15.6952 1.35039 16.1891 4.14886C16.2376 4.42456 16.2406 4.7088 16.2517 4.98938C16.2615 5.23946 16.2535 5.49016 16.2535 5.77135H16.2541ZM6.33675 7.24134C5.73486 7.24134 5.16119 7.22426 4.58937 7.24622C4.06417 7.26635 3.66107 7.6555 3.57947 8.17396C3.54143 8.41428 3.51382 8.65582 3.48069 8.89737C3.01255 12.34 2.5438 15.7825 2.07566 19.2245C1.97627 19.954 2.47692 20.5359 3.21747 20.5365C8.60503 20.539 13.9932 20.539 19.3808 20.5365C20.1011 20.5365 20.5999 19.9717 20.5183 19.2623C20.4759 18.8921 20.4183 18.5243 20.368 18.1547C20.1299 16.3992 19.8919 14.6444 19.6538 12.8889C19.4403 11.3146 19.2292 9.73971 19.0096 8.16603C18.9451 7.70246 18.5789 7.29318 18.1304 7.26391C17.5156 7.22365 16.8965 7.25415 16.2541 7.25415C16.2541 7.33771 16.2541 7.41945 16.2541 7.50118C16.2541 8.23922 16.2572 8.97727 16.2529 9.71532C16.2504 10.1612 15.9357 10.4881 15.5203 10.4894C15.105 10.4906 14.7878 10.163 14.7853 9.71959C14.7816 9.07303 14.7841 8.42648 14.7841 7.77932C14.7841 7.60609 14.7841 7.43286 14.7841 7.24927H7.8062C7.8062 7.34869 7.8062 7.43103 7.8062 7.51338C7.8062 8.26667 7.8111 9.01997 7.80313 9.77326C7.79883 10.1539 7.50494 10.4546 7.13129 10.4881C6.76869 10.5205 6.41958 10.2557 6.35025 9.88915C6.33368 9.80071 6.33736 9.70739 6.33736 9.6165C6.33675 8.83393 6.33736 8.05136 6.33736 7.24134H6.33675ZM14.765 5.7561C14.773 5.72255 14.7828 5.70059 14.7828 5.67924C14.7841 5.39805 14.7976 5.11564 14.781 4.83506C14.6939 3.37239 13.9926 2.29704 12.633 1.73161C11.2721 1.16557 9.99963 1.41749 8.90874 2.40317C7.91541 3.30042 7.70251 4.47336 7.8289 5.7561H14.765Z" fill="#404041"/>
</svg>
