<svg width="25" height="21" viewBox="0 0 25 21" fill="none" xmlns="http://www.w3.org/2000/svg">
<path d="M0 6.55326C0.0825776 6.09408 0.128454 5.62567 0.253238 5.1763C0.911412 2.81118 2.37823 1.08291 4.89104 0.334727C7.57206 -0.463067 9.91053 0.180129 11.8459 2.1051C12.0741 2.33181 12.2765 2.58159 12.5035 2.83425C12.7218 2.59024 12.9261 2.3445 13.15 2.11606C14.2156 1.03042 15.4916 0.277618 17.0666 0.087832C19.5012 -0.205212 21.5809 0.49567 23.1817 2.26201C24.7825 4.02835 25.2492 6.11542 24.8815 8.38017C24.6485 9.81539 23.9506 11.0672 23.041 12.218C21.847 13.7288 20.393 15.0054 18.8931 16.2358C17.1248 17.6866 15.3472 19.127 13.5703 20.5686C12.887 21.123 12.1536 21.1489 11.4972 20.6124C9.17957 18.7169 6.85577 16.8271 4.56623 14.9015C3.40464 13.9249 2.36172 12.8352 1.50842 11.5967C0.702827 10.428 0.163932 9.16815 0.0360895 7.76812C0.031196 7.71562 0.0122337 7.66486 0 7.61294C0 7.25991 0 6.90687 0 6.55383V6.55326ZM12.4949 19.6047C12.5591 19.5574 12.6105 19.5222 12.6588 19.4829C14.6352 17.8718 16.6232 16.2739 18.5824 14.6448C19.9507 13.5067 21.2524 12.3016 22.2666 10.8543C23.2318 9.47677 23.7089 7.97752 23.4875 6.3179C23.2483 4.52733 22.4354 3.04019 20.7484 2.10453C19.1764 1.2329 17.5181 1.1256 15.8482 1.88128C14.8609 2.32777 14.1324 3.05692 13.5232 3.89913C13.4363 4.0197 13.358 4.14603 13.2669 4.26313C12.8644 4.7823 12.1475 4.77999 11.7389 4.26659C11.3829 3.81953 11.0568 3.34477 10.6519 2.94097C9.34228 1.6367 7.7262 1.13079 5.86117 1.51094C3.84995 1.92109 2.52932 3.12268 1.86014 4.93055C1.08268 7.03205 1.45337 9.00894 2.73729 10.852C3.53371 11.9953 4.50935 12.9968 5.58102 13.9065C7.35308 15.4103 9.16122 16.8767 10.9559 18.3563C11.463 18.7746 11.9774 19.1853 12.4949 19.6047Z" fill="#404041"/>
</svg>
