<svg width="20" height="20" viewBox="0 0 20 20" fill="none" xmlns="http://www.w3.org/2000/svg">
<g clip-path="url(#clip0_171_8)">
<path d="M-5.26247e-06 19.9218C0.0908149 19.6264 0.188681 19.3326 0.271281 19.035C0.63965 17.7085 1.00567 16.3816 1.36386 15.0523C1.39087 14.9526 1.38148 14.8164 1.33294 14.7272C0.32452 12.8734 -0.109616 10.8984 0.160887 8.80239C0.615379 5.27979 2.45214 2.68312 5.60305 1.0691C9.21902 -0.783148 13.6273 -0.183074 16.6569 2.51726C18.5719 4.22438 19.6868 6.36376 19.9483 8.91858C20.4639 13.9543 17.066 18.5753 12.0994 19.6073C9.75846 20.0939 7.5228 19.7719 5.39557 18.6817C5.33255 18.6496 5.24329 18.6309 5.17713 18.6477C3.50362 19.0795 1.83166 19.5173 0.159713 19.955C0.130353 19.9628 0.104908 19.9847 0.0778965 20C0.0516683 19.9738 0.0258315 19.948 -0.000396729 19.9218H-5.26247e-06ZM0.836166 19.1703C0.935599 19.1476 0.99197 19.1363 1.04756 19.1218C2.42474 18.7639 3.80152 18.4032 5.18066 18.0531C5.28596 18.0265 5.42767 18.0457 5.52397 18.0969C7.50949 19.1531 9.60814 19.4907 11.8176 19.0717C13.888 18.6794 15.6371 17.6912 17.0335 16.1167C18.9286 13.9805 19.6982 11.4734 19.3294 8.64709C19.0327 6.37276 18.0031 4.4497 16.2635 2.9546C13.5991 0.664228 10.5375 0.0242529 7.18692 1.0515C4.59972 1.84482 2.72656 3.53903 1.55255 5.97688C0.761788 7.61907 0.511641 9.35787 0.750044 11.1628C0.913677 12.4017 1.32276 13.5592 1.95067 14.6404C1.99647 14.7194 2.01918 14.8403 1.99608 14.9268C1.75572 15.8304 1.50362 16.7309 1.25582 17.6326C1.11841 18.1321 0.982966 18.632 0.836558 19.1699L0.836166 19.1703Z" fill="#404041"/>
<path d="M13.5968 15.2143C12.7062 15.208 12.1229 15.0046 11.5334 14.8203C9.39048 14.1506 7.87511 12.7017 6.62673 10.9109C6.2153 10.321 5.83597 9.71854 5.65746 9.01363C5.37873 7.91206 5.64376 6.95758 6.45566 6.15917C6.65609 5.96202 6.90114 5.88534 7.18339 5.88769C7.90917 5.89356 7.94558 5.9096 8.22626 6.57383C8.4537 7.1117 8.68427 7.6488 8.89057 8.19528C8.93755 8.31967 8.94147 8.51096 8.87648 8.61776C8.69915 8.90958 8.48502 9.18067 8.26579 9.44432C8.08807 9.6583 8.06223 9.76157 8.20473 9.99941C9.01349 11.3498 10.1366 12.3324 11.6089 12.9079C11.8642 13.0076 11.9605 12.992 12.1382 12.7803C12.3848 12.4869 12.6283 12.1904 12.8636 11.888C13.0429 11.6576 13.1356 11.6072 13.4128 11.7265C13.8959 11.9342 14.3691 12.1634 14.8452 12.3872C15.0507 12.4838 15.2507 12.593 15.4562 12.6907C15.5964 12.7573 15.6625 12.8637 15.659 13.0154C15.6434 13.7266 15.4457 14.34 14.7978 14.7448C14.346 15.0273 13.8786 15.2303 13.5976 15.2143H13.5968ZM13.3517 14.6322C13.4652 14.6201 13.6195 14.6248 13.7616 14.5852C14.339 14.4245 15.0264 14.0521 15.0597 13.2912C15.0644 13.1844 15.0499 13.1273 14.9489 13.08C14.4376 12.8394 13.9284 12.5941 13.421 12.3453C13.3165 12.2941 13.2636 12.3254 13.1967 12.4095C12.9826 12.6794 12.7653 12.9474 12.5363 13.2044C12.2239 13.5553 11.8591 13.6327 11.4241 13.4614C9.82344 12.8312 8.58875 11.7719 7.70835 10.2975C7.42688 9.82612 7.47268 9.44511 7.84927 9.04141C7.98668 8.89432 8.12408 8.7445 8.23957 8.58059C8.29202 8.50627 8.33548 8.37679 8.30651 8.30207C8.08494 7.73368 7.84536 7.17233 7.60891 6.6102C7.58973 6.56483 7.56116 6.51045 7.52123 6.48933C7.36621 6.4064 6.9583 6.48385 6.82755 6.61294C6.13113 7.30182 5.98276 8.11782 6.26384 9.03436C6.46779 9.69898 6.86669 10.2537 7.26638 10.8072C8.37266 12.3399 9.69465 13.6022 11.5412 14.2074C12.1213 14.3975 12.6933 14.6193 13.3525 14.6322H13.3517Z" fill="#404041"/>
</g>
<defs>
<clipPath id="clip0_171_8">
<rect width="20" height="20" fill="white"/>
</clipPath>
</defs>
</svg>
