<svg width="19" height="21" viewBox="0 0 19 21" fill="none" xmlns="http://www.w3.org/2000/svg">
<g clip-path="url(#clip0_90_520)">
<path d="M15.3569 5.61366C15.3544 8.70952 12.7185 11.234 9.49236 11.231C6.26747 11.2279 3.62968 8.68934 3.64115 5.60081C3.65199 2.50984 6.27065 0.00427978 9.49363 -2.18897e-06C12.7236 -0.00428416 15.3595 2.51963 15.3569 5.61366ZM9.49873 1.46565C7.11465 1.46565 5.16722 3.33137 5.16849 5.61366C5.16977 7.89534 7.12038 9.76533 9.49873 9.76533C11.8777 9.76533 13.8277 7.89595 13.8296 5.61305C13.8315 3.33137 11.8828 1.46504 9.49873 1.46565Z" fill="#404041"/>
<path d="M9.24186 12.6875C11.9504 12.7266 14.193 13.3591 16.1232 14.8474C17.6123 15.9956 18.6105 17.446 18.9216 19.2823C18.9777 19.612 18.9937 19.9503 18.9994 20.2849C19.0058 20.6464 18.7087 20.9492 18.3486 20.989C17.9489 21.033 17.5887 20.8085 17.5122 20.4336C17.4638 20.1962 17.4778 19.9472 17.4453 19.7062C17.2126 17.9824 16.2456 16.6942 14.8037 15.7148C13.0334 14.5128 11.0331 14.065 8.88935 14.1825C7.18033 14.2767 5.59434 14.7557 4.19066 15.7161C2.85456 16.6299 1.91431 17.8136 1.60323 19.393C1.54586 19.6836 1.54522 19.9846 1.51909 20.2806C1.48913 20.6195 1.26793 20.8917 0.954302 20.9743C0.643861 21.0557 0.287524 20.9407 0.124972 20.6654C0.0440156 20.5278 -0.00124377 20.3491 0.000668594 20.1901C0.0274417 18.2846 0.841472 16.7058 2.2375 15.3937C3.77632 13.947 5.65235 13.1395 7.7687 12.8337C8.34114 12.7511 8.92186 12.7193 9.24314 12.6881L9.24186 12.6875Z" fill="#404041"/>
</g>
<defs>
<clipPath id="clip0_90_520">
<rect width="19" height="21" fill="white"/>
</clipPath>
</defs>
</svg>
