<svg width="21" height="21" viewBox="0 0 21 21" fill="none" xmlns="http://www.w3.org/2000/svg">
<path d="M10.5 21C10.3892 21.0001 10.2795 20.9762 10.1771 20.9295C10.0748 20.8829 9.98178 20.8145 9.90354 20.7282L1.85011 11.8736C-0.616704 9.16143 -0.616704 4.74805 1.85011 2.03584C4.21907 -0.570629 8.01631 -0.675445 10.5 1.72789C12.982 -0.672662 16.7792 -0.571557 19.1499 2.03584C21.6167 4.74805 21.6167 9.16236 19.1499 11.8736L11.0965 20.7282C11.0182 20.8145 10.9253 20.8829 10.8229 20.9295C10.7205 20.9762 10.6108 21.0001 10.5 21ZM6.3248 1.85496C5.71541 1.85379 5.11181 1.98495 4.54863 2.2409C3.98546 2.49686 3.4738 2.87258 3.04303 3.3465C2.17393 4.30383 1.68581 5.60119 1.68581 6.95381C1.68581 8.30644 2.17393 9.6038 3.04303 10.5611L10.5 18.7599L17.957 10.5611C18.8261 9.6038 19.3142 8.30644 19.3142 6.95381C19.3142 5.60119 18.8261 4.30383 17.957 3.3465C17.0863 2.39094 15.9063 1.85426 14.676 1.85426C13.4458 1.85426 12.2658 2.39094 11.3951 3.3465L11.0965 3.67486C11.0182 3.76107 10.9252 3.82947 10.8229 3.87613C10.7205 3.9228 10.6108 3.94682 10.5 3.94682C10.3892 3.94682 10.2795 3.9228 10.1771 3.87613C10.0748 3.82947 9.98182 3.76107 9.90354 3.67486L9.60489 3.3465C9.17446 2.87259 8.6631 2.49687 8.1002 2.2409C7.5373 1.98494 6.93395 1.85378 6.3248 1.85496Z" fill="#404041"/>
</svg>
