<svg width="32" height="32" viewBox="0 0 32 32" fill="none" xmlns="http://www.w3.org/2000/svg">
<g clip-path="url(#clip0_90_1061)">
<path d="M15.9953 32C7.15634 31.9974 -0.010249 24.8155 1.10027e-05 15.9714C0.010271 7.1495 7.19225 -0.010249 16.0201 1.10132e-05C24.8471 0.010271 32.0051 7.18199 32 16.0116C31.994 24.8377 24.8232 32.0026 15.9953 32ZM6.14402 15.9987C6.13462 15.9987 6.12607 15.9987 6.11666 15.9987C6.11666 17.2034 6.10811 18.409 6.12094 19.6137C6.12521 20.0711 6.14488 20.5319 6.21328 20.9834C6.51338 22.9499 7.46671 24.4495 9.35198 25.2515C10.2266 25.6234 11.1517 25.7773 12.0957 25.7816C14.5905 25.7919 17.0863 25.7919 19.5812 25.7799C20.1224 25.7773 20.6704 25.7457 21.204 25.6559C23.2072 25.3191 24.6949 24.2965 25.4413 22.3445C25.7525 21.5297 25.8816 20.6781 25.8825 19.8077C25.8842 17.3445 25.8876 14.8812 25.8791 12.418C25.8774 11.9503 25.856 11.4784 25.7859 11.0167C25.473 8.97065 24.4555 7.4479 22.4702 6.67669C21.6674 6.36461 20.8243 6.22525 19.9676 6.22097C17.3231 6.20901 14.6786 6.20644 12.0341 6.22097C11.0466 6.22696 10.0821 6.40309 9.17927 6.82631C7.17857 7.76425 6.29279 9.45287 6.16198 11.5545C6.07049 13.031 6.14402 14.517 6.14402 15.9987Z" fill="#ADADAD"/>
<path d="M16.0038 8.06847C17.3051 8.06847 18.6064 8.0565 19.9069 8.07531C20.3412 8.08215 20.7824 8.13003 21.2056 8.22579C22.7857 8.58404 23.8091 9.74598 23.9972 11.3679C24.0391 11.727 24.0605 12.0904 24.0605 12.452C24.0656 14.8837 24.0818 17.3161 24.0502 19.7477C24.0425 20.3454 23.951 20.9678 23.7612 21.5321C23.2696 22.9916 22.1615 23.7722 20.6636 23.8552C18.8022 23.9595 16.9341 23.9492 15.0685 23.9552C13.8321 23.9586 12.5924 23.9535 11.3603 23.8637C9.47592 23.726 8.21138 22.4521 7.99677 20.5677C7.95915 20.2402 7.93778 19.9093 7.93692 19.5793C7.93179 17.1152 7.9164 14.6511 7.94804 12.1879C7.95573 11.6116 8.05491 11.0131 8.23874 10.4676C8.73207 9.00641 9.841 8.25401 11.3364 8.14029C12.6317 8.04197 13.9356 8.06505 15.236 8.03684C15.4917 8.03085 15.7482 8.03684 16.0038 8.03684C16.0038 8.04795 16.0038 8.05821 16.0038 8.06933V8.06847ZM21.2005 16.0217C21.2005 13.1266 18.8954 10.8036 16.0192 10.8002C13.1148 10.7968 10.8003 13.107 10.7977 16.0114C10.7952 18.8851 13.1148 21.1935 16.0107 21.2012C18.8664 21.2081 21.2005 18.8791 21.1997 16.0217H21.2005ZM21.2185 9.78958C20.6482 9.79386 20.1882 10.259 20.1908 10.8284C20.1925 11.4149 20.6644 11.8707 21.2569 11.8595C21.8264 11.8484 22.2812 11.3748 22.2693 10.8062C22.2573 10.235 21.7913 9.78445 21.2185 9.78958Z" fill="#ADADAD"/>
<path d="M19.3546 16.0022C19.3528 17.861 17.8557 19.3564 15.9978 19.3547C14.1399 19.353 12.642 17.8533 12.6445 15.998C12.6462 14.14 14.1451 12.6438 16.0021 12.6455C17.8617 12.6472 19.3571 14.1435 19.3546 16.0022Z" fill="#ADADAD"/>
</g>
<defs>
<clipPath id="clip0_90_1061">
<rect width="32" height="32" fill="white"/>
</clipPath>
</defs>
</svg>
