<svg width="32" height="32" viewBox="0 0 32 32" fill="none" xmlns="http://www.w3.org/2000/svg">
<path d="M0 17.017C0 16.3507 0 15.6852 0 15.0188C0.0375724 14.732 0.0759798 14.4442 0.112717 14.1574C0.687158 9.60892 2.80624 5.92948 6.47164 3.19408C11.6424 -0.664669 18.5032 -1.07665 24.0505 2.22835C29.1595 5.27231 31.8138 9.86495 31.9925 15.8119C32.0902 19.0819 31.1793 22.1092 29.3474 24.8237C26.8033 28.5958 23.2774 30.915 18.7912 31.7515C18.2001 31.8616 17.5998 31.9183 17.0036 31.9992H15.0031C14.9229 31.9817 14.8436 31.9541 14.7626 31.9475C11.5748 31.6939 8.70511 30.6031 6.19193 28.63C2.95904 26.0922 0.962689 22.793 0.238794 18.7408C0.136931 18.1704 0.0784846 17.5916 0 17.0162V17.017ZM13.6688 12.4911V22.2668H16.9209C16.9209 22.1234 16.9209 22.0008 16.9209 21.8782C16.9226 20.1419 16.9268 18.4047 16.9226 16.6684C16.9209 16.1013 17.1364 15.6351 17.5471 15.2599C18.4681 14.4176 19.8766 14.7953 20.2081 15.9904C20.315 16.3749 20.3467 16.7902 20.3509 17.1913C20.3668 18.7617 20.3576 20.332 20.3576 21.9024C20.3576 22.0225 20.3576 22.1426 20.3576 22.261H23.623C23.623 22.1617 23.623 22.0908 23.623 22.0191C23.623 20.2094 23.6297 18.3997 23.6163 16.5909C23.613 16.1772 23.5754 15.7577 23.4953 15.3516C23.1955 13.8363 22.4149 12.7054 20.8243 12.3643C19.3181 12.0408 17.9863 12.3402 17.042 13.6862C17.0228 13.7129 16.9886 13.7295 16.9076 13.7929V12.4911H13.6688ZM11.8295 12.5053H8.5974V22.2643H11.8295V12.5053ZM10.2264 7.75752C9.18019 7.76086 8.44294 8.40385 8.38867 9.35957C8.3369 10.2744 8.97897 10.9991 9.95669 11.1292C10.9185 11.2568 11.7911 10.7273 12.0031 9.88663C12.2945 8.72909 11.4805 7.75419 10.2264 7.75752Z" fill="#ADADAD"/>
</svg>
