<svg width="15" height="18" viewBox="0 0 15 18" fill="none" xmlns="http://www.w3.org/2000/svg">
<g opacity="0.5">
<rect x="7.5" y="6.59705" width="0.00727273" height="0.00727273" stroke="#404041" stroke-width="3" stroke-linejoin="round"/>
<path fill-rule="evenodd" clip-rule="evenodd" d="M11.363 3.70188C9.22951 1.53039 5.77049 1.53039 3.63704 3.70188C1.50358 5.87336 1.50358 9.39404 3.63704 11.5655L7.5 15.4974L11.363 11.5655C13.4964 9.39404 13.4964 5.87336 11.363 3.70188ZM2.1967 2.23586C5.12563 -0.745287 9.87437 -0.745287 12.8033 2.23586C15.7322 5.21701 15.7322 10.0504 12.8033 13.0315L8.22017 17.6964C7.82243 18.1012 7.17757 18.1012 6.77983 17.6964L2.1967 13.0315C-0.732234 10.0504 -0.732232 5.21701 2.1967 2.23586Z" fill="#404041"/>
</g>
</svg>
