<svg width="131" height="71" viewBox="0 0 131 71" fill="none" xmlns="http://www.w3.org/2000/svg">
<path d="M92.1999 37.8C92.1999 37.2 91.9999 36.6 91.5999 36.1L91.4999 36L91.6999 35.9C92.2999 35.4 92.5999 34.7 92.5999 33.9C92.5999 33.2 92.1999 32.5 91.6999 32L91.4999 31.9L91.5999 31.7C91.9999 31.2 92.1999 30.6 92.1999 30C92.1999 29.1 91.6999 28.3 90.9999 27.8L90.7999 27.7L90.8999 27.5C91.1999 27.1 91.2999 26.6 91.2999 26.1C91.2999 25.1 90.6999 24.2 89.7999 23.7L89.5999 23.6L89.6999 23.4C89.7999 23.1 89.8999 22.8 89.8999 22.4C89.8999 21.2 89.0999 20.2 87.9999 19.8L87.7999 19.7L87.8999 19.5C87.9999 19.3 87.9999 19 87.9999 18.8C87.9999 17.4 86.9999 16.3 85.6999 16.1H85.4999V15.6C85.4999 14.1 84.2999 12.9 82.7999 12.9H82.5999V12.7C82.4999 11.3 81.2999 10.2 79.8999 10.2C79.2999 10.2 78.7999 10.4 78.2999 10.7L78.1999 10.8L77.9999 10.7C74.3999 8.5 70.3999 7.3 66.2999 7.1H66.0999V6.7C66.0999 6.3 65.7999 6 65.3999 6C64.9999 6 64.6999 6.3 64.6999 6.7V7.1H64.4999C60.3999 7.2 56.2999 8.5 52.7999 10.7L52.6999 10.8L52.5999 10.7C52.0999 10.4 51.5999 10.2 50.9999 10.2C49.5999 10.2 48.3999 11.3 48.2999 12.7V12.9H48.0999C46.5999 12.9 45.3999 14.1 45.3999 15.6V16.1H45.1999C43.9999 16.4 42.9999 17.5 42.9999 18.8C42.9999 19 42.9999 19.3 43.0999 19.5L43.1999 19.6L42.9999 19.7C41.7999 20.1 41.0999 21.1 41.0999 22.3C41.0999 22.6 41.1999 23 41.2999 23.3L41.3999 23.5L41.1999 23.6C40.2999 24.1 39.6999 25 39.6999 26C39.6999 26.5 39.7999 27 40.0999 27.4L40.1999 27.7L39.9999 27.8C39.1999 28.3 38.7999 29.1 38.7999 30C38.7999 30.6 38.9999 31.2 39.3999 31.7L39.4999 31.9L39.2999 32C38.6999 32.5 38.3999 33.2 38.3999 33.9C38.3999 34.7 38.6999 35.4 39.2999 35.9L39.4999 36L39.3999 36.2C38.9999 36.7 38.7999 37.3 38.7999 37.9C38.7999 38.7 39.1999 39.5 39.8999 40V40.1L39.7999 40.3C39.3999 40.9 39.0999 41.7 39.0999 42.4C39.0999 43.7 39.9999 45 41.2999 45.5L41.5999 45.6L41.4999 45.8C41.1999 46.4 40.9999 47.1 40.9999 47.8C40.9999 50 42.7999 51.7 44.9999 51.8H45.2999L45.1999 52.1C45.0999 52.5 44.9999 52.9 44.9999 53.4C44.9999 56 47.0999 58 49.4999 58.1C50.0999 58.1 50.5999 58 51.0999 57.8L51.3999 57.7V58C51.3999 60.8 53.6999 63 56.4999 63C57.7999 63 58.9999 62.5 59.9999 61.6L60.1999 61.4L60.2999 61.7C61.1999 63.7 63.0999 65 65.2999 65C67.4999 65 69.4999 63.7 70.2999 61.7L70.3999 61.4L70.5999 61.6C71.4999 62.5 72.7999 63 74.0999 63C76.8999 63 79.1999 60.8 79.1999 58V57.5L79.4999 57.6C79.9999 57.8 80.5999 57.9 81.0999 57.9C83.6999 57.9 85.7999 55.8 85.7999 53.3C85.7999 52.9 85.6999 52.4 85.5999 52L85.4999 51.7H85.7999C88.0999 51.7 89.7999 49.9 89.7999 47.7C89.7999 47 89.5999 46.3 89.2999 45.7L89.1999 45.5L89.4999 45.4C90.7999 44.9 91.6999 43.7 91.6999 42.3C91.6999 41.5 91.4999 40.8 90.9999 40.2V40L91.1999 39.9C91.7999 39.4 92.1999 38.6 92.1999 37.8ZM90.7999 29.9C90.7999 30.6 90.1999 31.2 89.4999 31.2C88.7999 31.2 88.1999 30.6 88.1999 29.9C88.1999 29.2 88.6999 28.6 89.4999 28.6C90.1999 28.6 90.7999 29.2 90.7999 29.9ZM89.9999 26C89.9999 26.7 89.3999 27.3 88.6999 27.3C87.9999 27.3 87.3999 26.7 87.3999 26C87.3999 25.3 87.9999 24.7 88.6999 24.7C89.2999 24.7 89.9999 25.3 89.9999 26ZM88.4999 22.3C88.4999 23 87.8999 23.6 87.1999 23.6C86.4999 23.6 85.9999 23 85.9999 22.3C85.9999 21.6 86.5999 21 87.2999 21C87.9999 21 88.4999 21.6 88.4999 22.3ZM85.2999 17.5C85.9999 17.5 86.5999 18.1 86.5999 18.8C86.5999 19.5 85.9999 20.1 85.2999 20.1C84.5999 20.1 83.9999 19.5 83.9999 18.8C83.9999 18.1 84.5999 17.5 85.2999 17.5ZM82.9999 14.3C83.6999 14.3 84.2999 14.9 84.2999 15.6C84.2999 16.3 83.6999 16.9 82.9999 16.9C82.1999 16.9 81.6999 16.3 81.6999 15.6C81.5999 14.9 82.1999 14.3 82.9999 14.3ZM79.9999 11.6C80.6999 11.6 81.2999 12.2 81.2999 12.9C81.2999 13.6 80.6999 14.2 79.9999 14.2C79.2999 14.2 78.6999 13.6 78.6999 12.9C78.5999 12.2 79.1999 11.6 79.9999 11.6ZM51.0999 11.6C51.7999 11.6 52.3999 12.2 52.3999 12.9C52.3999 13.6 51.7999 14.2 51.0999 14.2C50.2999 14.2 49.7999 13.6 49.7999 12.9C49.7999 12.2 50.4999 11.6 51.0999 11.6ZM48.0999 14.3C48.7999 14.3 49.3999 14.9 49.3999 15.6C49.3999 16.3 48.7999 16.9 48.0999 16.9C47.3999 16.9 46.7999 16.3 46.7999 15.6C46.7999 14.9 47.4999 14.3 48.0999 14.3ZM45.7999 17.5C46.4999 17.5 47.0999 18.1 47.0999 18.8C47.0999 19.5 46.4999 20.1 45.7999 20.1C45.0999 20.1 44.4999 19.5 44.4999 18.8C44.4999 18.1 44.9999 17.5 45.7999 17.5ZM43.7999 21C44.4999 21 45.0999 21.6 45.0999 22.3C45.0999 23 44.4999 23.6 43.7999 23.6C42.9999 23.6 42.4999 23 42.4999 22.3C42.4999 21.6 43.0999 21 43.7999 21ZM42.4999 24.7C43.1999 24.7 43.7999 25.3 43.7999 26C43.7999 26.7 43.1999 27.3 42.4999 27.3C41.6999 27.3 41.1999 26.7 41.1999 26C41.1999 25.3 41.7999 24.7 42.4999 24.7ZM41.4999 28.6C42.1999 28.6 42.7999 29.2 42.7999 29.9C42.7999 30.6 42.1999 31.2 41.4999 31.2C40.7999 31.2 40.1999 30.6 40.1999 29.9C40.1999 29.2 40.7999 28.6 41.4999 28.6ZM39.9999 33.8C39.9999 33.1 40.5999 32.5 41.2999 32.5C41.9999 32.5 42.5999 33.1 42.5999 33.8C42.5999 34.5 41.9999 35.1 41.2999 35.1C40.5999 35.1 39.9999 34.6 39.9999 33.8ZM40.1999 37.9C40.1999 37.2 40.7999 36.6 41.4999 36.6C42.1999 36.6 42.7999 37.2 42.7999 37.9C42.7999 38.4 42.3999 38.9 41.8999 39.1H41.7999C41.7999 39.1 41.6999 39.1 41.4999 39.2C40.7999 39.2 40.1999 38.6 40.1999 37.9ZM40.5999 42.4C40.5999 41.5 41.0999 40.7 41.9999 40.5C42.0999 40.5 42.0999 40.5 42.0999 40.5H42.5999C43.6999 40.5 44.5999 41.3 44.5999 42.4C44.5999 43.1 44.0999 43.8 43.4999 44.1C43.3999 44.2 43.3999 44.2 43.2999 44.2C43.0999 44.2 42.8999 44.3 42.5999 44.3C41.4999 44.3 40.5999 43.5 40.5999 42.4ZM45.0999 50.4C43.6999 50.4 42.4999 49.2 42.4999 47.8C42.4999 46.8 43.0999 45.9 43.9999 45.5L44.1999 45.4C44.4999 45.3 44.8999 45.2 45.1999 45.2C46.5999 45.2 47.7999 46.4 47.7999 47.8C47.7999 49.2 46.5999 50.4 45.0999 50.4ZM49.7999 56.6C48.0999 56.6 46.5999 55.2 46.5999 53.4C46.5999 51.6 47.9999 50.2 49.7999 50.2C51.4999 50.2 52.9999 51.7 52.9999 53.4C52.9999 55.2 51.4999 56.6 49.7999 56.6ZM56.5999 61.5C54.5999 61.5 52.8999 59.9 52.8999 57.9C52.8999 55.9 54.5999 54.3 56.5999 54.3C58.6999 54.3 60.2999 56 60.2999 57.9C60.2999 59.9 58.5999 61.5 56.5999 61.5ZM65.4999 63.7C63.3999 63.7 61.5999 61.9 61.5999 59.8C61.5999 57.6 63.2999 55.9 65.4999 55.9C67.5999 55.9 69.3999 57.6 69.3999 59.8C69.3999 62 67.7999 63.7 65.4999 63.7ZM69.4999 56L69.3999 56.3L69.1999 56.1C68.1999 55.1 66.7999 54.6 65.3999 54.6C63.9999 54.6 62.5999 55.1 61.5999 56.1L61.3999 56.3L61.2999 56C60.4999 54.2 58.5999 53 56.5999 53C55.8999 53 55.1999 53.1 54.5999 53.4L54.2999 53.5V53.2C54.0999 50.8 52.0999 48.9 49.5999 48.9H48.9999L49.1999 48.6C49.2999 48.3 49.2999 48.1 49.2999 47.8C49.2999 46 47.9999 44.3 46.0999 43.9L45.7999 43.8L45.8999 43.6C45.9999 43.2 46.0999 42.8 46.0999 42.4C46.0999 41.1 45.3999 40 44.1999 39.4L43.9999 39.3L44.0999 39.1C44.2999 38.7 44.3999 38.3 44.3999 37.9C44.3999 37.1 44.0999 36.4 43.4999 35.9L43.2999 35.8L43.3999 35.6C43.7999 35.1 43.9999 34.5 43.9999 33.9C43.9999 33.3 43.7999 32.7 43.3999 32.2L43.2999 32L43.1999 31.9C43.6999 31.3 43.9999 30.6 43.9999 29.9C43.9999 29.4 43.8999 28.9 43.5999 28.5L43.4999 28.3L43.6999 28.2C44.4999 27.7 44.8999 26.9 44.8999 26C44.8999 25.7 44.7999 25.3 44.6999 25L44.5999 24.8L44.7999 24.7C45.6999 24.2 46.2999 23.3 46.2999 22.3C46.2999 22 46.2999 21.8 46.1999 21.6L46.0999 21.4L46.2999 21.3C47.4999 20.9 48.1999 19.9 48.1999 18.7V18.2H48.3999C49.6999 18 50.5999 16.9 50.6999 15.7V15.5H50.9999C52.4999 15.5 53.6999 14.3 53.6999 12.8C53.6999 12.5 53.6999 12.3 53.5999 12V11.8L53.6999 11.7C56.9999 9.7 60.6999 8.6 64.4999 8.4H64.6999V8.6C64.6999 9 64.9999 9.3 65.3999 9.3C65.7999 9.3 65.9999 9 65.9999 8.6V8.4H66.1999C69.9999 8.5 73.7999 9.7 76.9999 11.7L77.1999 11.8V12C77.0999 12.3 77.0999 12.5 77.0999 12.8C77.0999 14.3 78.2999 15.5 79.7999 15.5H79.9999V15.7C80.0999 16.9 81.0999 18 82.2999 18.2H82.4999V18.7C82.4999 19.9 83.2999 20.9 84.3999 21.3L84.5999 21.4V21.6C84.4999 21.9 84.4999 22.1 84.4999 22.3C84.4999 23.3 85.0999 24.2 85.9999 24.7L86.0999 24.8L85.9999 25C85.8999 25.3 85.7999 25.6 85.7999 26C85.7999 26.9 86.2999 27.7 86.9999 28.2H87.3999L87.2999 28.4C86.9999 28.8 86.9999 29.3 86.9999 29.8C86.9999 30.6 87.2999 31.3 87.7999 31.8L87.8999 31.9L87.7999 32.1C87.3999 32.6 87.1999 33.2 87.1999 33.8C87.1999 34.4 87.3999 35 87.7999 35.5L87.8999 35.7L87.6999 35.8C87.0999 36.4 86.7999 37.1 86.7999 37.8C86.7999 38.2 86.8999 38.6 87.0999 39L87.1999 39.2L86.9999 39.3C85.7999 39.9 85.0999 41 85.0999 42.3C85.0999 42.7 85.0999 43.1 85.2999 43.5L85.3999 43.7L84.9999 43.8C83.1999 44.2 81.7999 45.8 81.7999 47.7C81.7999 48 81.8999 48.3 81.8999 48.5L81.9999 48.8H81.3999C78.8999 48.8 76.8999 50.7 76.6999 53.1V53.4L76.3999 53.3C75.7999 53 75.0999 52.9 74.3999 52.9C72.2999 52.9 70.4999 54.1 69.4999 56ZM74.4999 61.5C72.3999 61.5 70.7999 59.9 70.7999 57.9C70.7999 55.9 72.4999 54.3 74.4999 54.3C76.4999 54.3 78.0999 56 78.1999 57.9C78.0999 59.9 76.4999 61.5 74.4999 61.5ZM81.2999 56.6C79.5999 56.6 78.0999 55.2 78.0999 53.4C78.0999 51.6 79.4999 50.2 81.2999 50.2C83.0999 50.2 84.5999 51.7 84.4999 53.4C84.4999 55.2 83.0999 56.6 81.2999 56.6ZM85.9999 50.4C84.5999 50.4 83.3999 49.2 83.3999 47.8C83.3999 46.4 84.4999 45.2 85.9999 45.2C86.2999 45.2 86.6999 45.3 86.9999 45.4L87.1999 45.5C88.0999 45.9 88.5999 46.8 88.5999 47.8C88.4999 49.2 87.4999 50.4 85.9999 50.4ZM88.4999 44.3C88.2999 44.3 87.9999 44.3 87.7999 44.2C87.6999 44.2 87.6999 44.1 87.5999 44.1C86.8999 43.8 86.4999 43.1 86.4999 42.4C86.4999 41.4 87.3999 40.5 88.4999 40.5H88.9999C89.7999 40.7 90.3999 41.5 90.4999 42.4C90.4999 43.4 89.4999 44.3 88.4999 44.3ZM89.4999 39.1H88.9999C88.4999 39 88.0999 38.5 88.0999 37.9C88.0999 37.2 88.6999 36.6 89.3999 36.6C90.0999 36.6 90.6999 37.1 90.6999 37.8C90.6999 38.5 90.0999 39.1 89.4999 39.1ZM89.7999 35.2C89.0999 35.2 88.4999 34.6 88.4999 33.9C88.4999 33.2 89.0999 32.6 89.7999 32.6C90.4999 32.6 91.0999 33.2 91.0999 33.9C90.9999 34.6 90.4999 35.2 89.7999 35.2Z" fill="#404041"/>
</svg>
