<svg width="131" height="71" viewBox="0 0 131 71" fill="none" xmlns="http://www.w3.org/2000/svg">
<path fill-rule="evenodd" clip-rule="evenodd" d="M65.4998 60C64.9998 60 64.4998 60.8 64.4998 61.5C64.4998 62.3 65.0998 62.7 65.5998 62.7C65.9998 62.7 66.5998 62.4 66.5998 61.5C66.5998 60.7 65.9998 60 65.4998 60ZM65.5998 61.9C65.5998 61.9 65.2998 61.9 65.2998 61.4C65.2998 61 65.4998 60.6999 65.5998 60.5999C65.6998 60.6999 65.8998 61 65.8998 61.4C65.8998 61.9 65.6998 61.9 65.5998 61.9ZM65.4998 60C64.9998 60 64.4998 60.8 64.4998 61.5C64.4998 62.3 65.0998 62.7 65.5998 62.7C65.9998 62.7 66.5998 62.4 66.5998 61.5C66.5998 60.7 65.9998 60 65.4998 60ZM65.5998 61.9C65.5998 61.9 65.2998 61.9 65.2998 61.4C65.2998 61 65.4998 60.6999 65.5998 60.5999C65.6998 60.6999 65.8998 61 65.8998 61.4C65.8998 61.9 65.6998 61.9 65.5998 61.9ZM65.4998 60C64.9998 60 64.4998 60.8 64.4998 61.5C64.4998 62.3 65.0998 62.7 65.5998 62.7C65.9998 62.7 66.5998 62.4 66.5998 61.5C66.5998 60.7 65.9998 60 65.4998 60ZM65.5998 61.9C65.5998 61.9 65.2998 61.9 65.2998 61.4C65.2998 61 65.4998 60.6999 65.5998 60.5999C65.6998 60.6999 65.8998 61 65.8998 61.4C65.8998 61.9 65.6998 61.9 65.5998 61.9ZM65.4998 60C64.9998 60 64.4998 60.8 64.4998 61.5C64.4998 62.3 65.0998 62.7 65.5998 62.7C65.9998 62.7 66.5998 62.4 66.5998 61.5C66.5998 60.7 65.9998 60 65.4998 60ZM65.5998 61.9C65.5998 61.9 65.2998 61.9 65.2998 61.4C65.2998 61 65.4998 60.6999 65.5998 60.5999C65.6998 60.6999 65.8998 61 65.8998 61.4C65.8998 61.9 65.6998 61.9 65.5998 61.9ZM65.4998 60C64.9998 60 64.4998 60.8 64.4998 61.5C64.4998 62.3 65.0998 62.7 65.5998 62.7C65.9998 62.7 66.5998 62.4 66.5998 61.5C66.5998 60.7 65.9998 60 65.4998 60ZM65.5998 61.9C65.5998 61.9 65.2998 61.9 65.2998 61.4C65.2998 61 65.4998 60.6999 65.5998 60.5999C65.6998 60.6999 65.8998 61 65.8998 61.4C65.8998 61.9 65.6998 61.9 65.5998 61.9ZM65.4998 60C64.9998 60 64.4998 60.8 64.4998 61.5C64.4998 62.3 65.0998 62.7 65.5998 62.7C65.9998 62.7 66.5998 62.4 66.5998 61.5C66.5998 60.7 65.9998 60 65.4998 60ZM65.5998 61.9C65.5998 61.9 65.2998 61.9 65.2998 61.4C65.2998 61 65.4998 60.6999 65.5998 60.5999C65.6998 60.6999 65.8998 61 65.8998 61.4C65.8998 61.9 65.6998 61.9 65.5998 61.9ZM66.0998 56.5L65.8998 56.4C67.1998 56.2 68.1998 55.1999 68.1998 53.7999C68.1998 52.3999 66.9998 51.2 65.5998 51.2C64.0998 51.2 62.9998 52.3999 62.9998 53.7999C62.9998 55.0999 63.9998 56.0999 65.1998 56.2999L64.9998 56.5C64.8998 56.6 62.2998 58.7 62.2998 61.5C62.2998 64.3 64.2998 65.4 65.5998 65.4C66.8998 65.4 68.9998 64.4 68.9998 61.5C68.8998 58.8 66.2998 56.7 66.0998 56.5ZM64.6998 53.9C64.6998 53.4 65.0998 53 65.5998 53C66.0998 53 66.4998 53.4 66.4998 53.9C66.4998 54.4 66.0998 54.7999 65.5998 54.7999C65.0998 54.6999 64.6998 54.3 64.6998 53.9ZM65.4998 63.5999C65.4998 63.5999 63.9998 63.6 63.9998 61.5C63.9998 60.2 64.8998 59 65.4998 58.4C66.0998 59 67.0998 60.2 67.0998 61.5C67.0998 63.6 65.4998 63.5999 65.4998 63.5999ZM64.5998 61.5C64.5998 62.3 65.1998 62.7 65.6998 62.7C66.0998 62.7 66.6998 62.4 66.6998 61.5C66.6998 60.7 66.0998 60 65.6998 60C65.0998 60 64.5998 60.7 64.5998 61.5ZM65.5998 60.7C65.6998 60.8 65.8998 61.1 65.8998 61.5C65.8998 61.9 65.6998 62 65.5998 62C65.5998 62 65.2998 62 65.2998 61.5C65.2998 61.1 65.3998 60.8 65.5998 60.7ZM65.4998 60C64.9998 60 64.4998 60.8 64.4998 61.5C64.4998 62.3 65.0998 62.7 65.5998 62.7C65.9998 62.7 66.5998 62.4 66.5998 61.5C66.5998 60.7 65.9998 60 65.4998 60ZM65.5998 61.9C65.5998 61.9 65.2998 61.9 65.2998 61.4C65.2998 61 65.4998 60.6999 65.5998 60.5999C65.6998 60.6999 65.8998 61 65.8998 61.4C65.8998 61.9 65.6998 61.9 65.5998 61.9ZM65.4998 60C64.9998 60 64.4998 60.8 64.4998 61.5C64.4998 62.3 65.0998 62.7 65.5998 62.7C65.9998 62.7 66.5998 62.4 66.5998 61.5C66.5998 60.7 65.9998 60 65.4998 60ZM65.5998 61.9C65.5998 61.9 65.2998 61.9 65.2998 61.4C65.2998 61 65.4998 60.6999 65.5998 60.5999C65.6998 60.6999 65.8998 61 65.8998 61.4C65.8998 61.9 65.6998 61.9 65.5998 61.9ZM65.4998 60C64.9998 60 64.4998 60.8 64.4998 61.5C64.4998 62.3 65.0998 62.7 65.5998 62.7C65.9998 62.7 66.5998 62.4 66.5998 61.5C66.5998 60.7 65.9998 60 65.4998 60ZM65.5998 61.9C65.5998 61.9 65.2998 61.9 65.2998 61.4C65.2998 61 65.4998 60.6999 65.5998 60.5999C65.6998 60.6999 65.8998 61 65.8998 61.4C65.8998 61.9 65.6998 61.9 65.5998 61.9ZM65.4998 60C64.9998 60 64.4998 60.8 64.4998 61.5C64.4998 62.3 65.0998 62.7 65.5998 62.7C65.9998 62.7 66.5998 62.4 66.5998 61.5C66.5998 60.7 65.9998 60 65.4998 60ZM65.5998 61.9C65.5998 61.9 65.2998 61.9 65.2998 61.4C65.2998 61 65.4998 60.6999 65.5998 60.5999C65.6998 60.6999 65.8998 61 65.8998 61.4C65.8998 61.9 65.6998 61.9 65.5998 61.9ZM65.4998 60C64.9998 60 64.4998 60.8 64.4998 61.5C64.4998 62.3 65.0998 62.7 65.5998 62.7C65.9998 62.7 66.5998 62.4 66.5998 61.5C66.5998 60.7 65.9998 60 65.4998 60ZM65.5998 61.9C65.5998 61.9 65.2998 61.9 65.2998 61.4C65.2998 61 65.4998 60.6999 65.5998 60.5999C65.6998 60.6999 65.8998 61 65.8998 61.4C65.8998 61.9 65.6998 61.9 65.5998 61.9ZM65.4998 60C64.9998 60 64.4998 60.8 64.4998 61.5C64.4998 62.3 65.0998 62.7 65.5998 62.7C65.9998 62.7 66.5998 62.4 66.5998 61.5C66.5998 60.7 65.9998 60 65.4998 60ZM65.5998 61.9C65.5998 61.9 65.2998 61.9 65.2998 61.4C65.2998 61 65.4998 60.6999 65.5998 60.5999C65.6998 60.6999 65.8998 61 65.8998 61.4C65.8998 61.9 65.6998 61.9 65.5998 61.9Z" fill="#404041"/>
<path fill-rule="evenodd" clip-rule="evenodd" d="M65.5 60C65 60 64.5 60.8 64.5 61.5C64.5 62.3 65.1 62.7 65.6 62.7C66 62.7 66.6 62.4 66.6 61.5C66.6 60.7 66 60 65.5 60ZM65.6 61.9C65.6 61.9 65.3 61.9 65.3 61.4C65.3 61 65.5 60.7 65.6 60.6C65.7 60.7 65.9 61 65.9 61.4C65.9 61.9 65.7 61.9 65.6 61.9Z" fill="#404041"/>
<path fill-rule="evenodd" clip-rule="evenodd" d="M65.5 60C65 60 64.5 60.8 64.5 61.5C64.5 62.3 65.1 62.7 65.6 62.7C66 62.7 66.6 62.4 66.6 61.5C66.6 60.7 66 60 65.5 60ZM65.6 61.9C65.6 61.9 65.3 61.9 65.3 61.4C65.3 61 65.5 60.7 65.6 60.6C65.7 60.7 65.9 61 65.9 61.4C65.9 61.9 65.7 61.9 65.6 61.9Z" fill="#404041"/>
<path fill-rule="evenodd" clip-rule="evenodd" d="M67.9997 42.8C67.7997 41.2 66.3997 40 65.3997 40C64.3997 40 62.9997 41.4 62.9997 43.2C62.9997 45 64.4997 45.8 65.5997 45.8C66.1997 45.8 66.8997 45.5 67.3997 44.9C67.8997 44.3 68.0997 43.5 67.9997 42.8ZM66.0997 43.6C65.8997 43.8 65.6997 43.9 65.5997 44C65.4997 44 64.6997 43.9 64.6997 43.2C64.6997 42.6 65.1997 42.1 65.3997 41.8C65.6997 42 66.0997 42.4 66.1997 43.1C66.2997 43.3 66.2997 43.5 66.0997 43.6ZM67.9997 42.8C67.7997 41.2 66.3997 40 65.3997 40C64.3997 40 62.9997 41.4 62.9997 43.2C62.9997 45 64.4997 45.8 65.5997 45.8C66.1997 45.8 66.8997 45.5 67.3997 44.9C67.8997 44.3 68.0997 43.5 67.9997 42.8ZM66.0997 43.6C65.8997 43.8 65.6997 43.9 65.5997 44C65.4997 44 64.6997 43.9 64.6997 43.2C64.6997 42.6 65.1997 42.1 65.3997 41.8C65.6997 42 66.0997 42.4 66.1997 43.1C66.2997 43.3 66.2997 43.5 66.0997 43.6ZM67.9997 42.8C67.7997 41.2 66.3997 40 65.3997 40C64.3997 40 62.9997 41.4 62.9997 43.2C62.9997 45 64.4997 45.8 65.5997 45.8C66.1997 45.8 66.8997 45.5 67.3997 44.9C67.8997 44.3 68.0997 43.5 67.9997 42.8ZM66.0997 43.6C65.8997 43.8 65.6997 43.9 65.5997 44C65.4997 44 64.6997 43.9 64.6997 43.2C64.6997 42.6 65.1997 42.1 65.3997 41.8C65.6997 42 66.0997 42.4 66.1997 43.1C66.2997 43.3 66.2997 43.5 66.0997 43.6ZM67.9997 42.8C67.7997 41.2 66.3997 40 65.3997 40C64.3997 40 62.9997 41.4 62.9997 43.2C62.9997 45 64.4997 45.8 65.5997 45.8C66.1997 45.8 66.8997 45.5 67.3997 44.9C67.8997 44.3 68.0997 43.5 67.9997 42.8ZM66.0997 43.6C65.8997 43.8 65.6997 43.9 65.5997 44C65.4997 44 64.6997 43.9 64.6997 43.2C64.6997 42.6 65.1997 42.1 65.3997 41.8C65.6997 42 66.0997 42.4 66.1997 43.1C66.2997 43.3 66.2997 43.5 66.0997 43.6ZM65.8997 35.9L65.3997 35.5L64.8997 35.9C64.6997 36 60.1997 39.5 60.1997 43.4C60.1997 47 63.1997 48.6 65.8997 48.6C66.3997 48.6 68.2997 48.5 69.6997 47.1C70.5997 46.2 71.0997 44.9 70.9997 43.4C70.7997 39.5 66.1997 36.1 65.8997 35.9ZM68.2997 45.8C67.5997 46.5 66.4997 46.8 65.7997 46.8C65.3997 46.8 61.7997 46.7 61.7997 43.3C61.7997 40.9 64.1997 38.6 65.2997 37.6C66.3997 38.5 68.9997 40.9 69.0997 43.3C69.1997 44.4 68.8997 45.2 68.2997 45.8ZM62.9997 43.2C62.9997 45 64.4997 45.8 65.5997 45.8C66.1997 45.8 66.8997 45.5 67.3997 44.9C67.8997 44.3 68.0997 43.6 67.9997 42.9C67.7997 41.3 66.3997 40.1 65.3997 40.1C64.3997 40.1 62.9997 41.4 62.9997 43.2ZM66.2997 43.1C66.2997 43.3 66.2997 43.5 66.0997 43.7C65.8997 43.9 65.6997 44 65.5997 44.1C65.4997 44.1 64.6997 44 64.6997 43.3C64.6997 42.7 65.1997 42.2 65.3997 41.9C65.6997 42 66.1997 42.4 66.2997 43.1ZM67.9997 42.8C67.7997 41.2 66.3997 40 65.3997 40C64.3997 40 62.9997 41.4 62.9997 43.2C62.9997 45 64.4997 45.8 65.5997 45.8C66.1997 45.8 66.8997 45.5 67.3997 44.9C67.8997 44.3 68.0997 43.5 67.9997 42.8ZM66.0997 43.6C65.8997 43.8 65.6997 43.9 65.5997 44C65.4997 44 64.6997 43.9 64.6997 43.2C64.6997 42.6 65.1997 42.1 65.3997 41.8C65.6997 42 66.0997 42.4 66.1997 43.1C66.2997 43.3 66.2997 43.5 66.0997 43.6ZM67.9997 42.8C67.7997 41.2 66.3997 40 65.3997 40C64.3997 40 62.9997 41.4 62.9997 43.2C62.9997 45 64.4997 45.8 65.5997 45.8C66.1997 45.8 66.8997 45.5 67.3997 44.9C67.8997 44.3 68.0997 43.5 67.9997 42.8ZM66.0997 43.6C65.8997 43.8 65.6997 43.9 65.5997 44C65.4997 44 64.6997 43.9 64.6997 43.2C64.6997 42.6 65.1997 42.1 65.3997 41.8C65.6997 42 66.0997 42.4 66.1997 43.1C66.2997 43.3 66.2997 43.5 66.0997 43.6Z" fill="#404041"/>
<path fill-rule="evenodd" clip-rule="evenodd" d="M68 42.8C67.8 41.2 66.4 40 65.4 40C64.4 40 63 41.4 63 43.2C63 45 64.5 45.8 65.6 45.8C66.2 45.8 66.9 45.5 67.4 44.9C67.9 44.3 68.1 43.5 68 42.8ZM66.1 43.6C65.9 43.8 65.7 43.9 65.6 44C65.5 44 64.7 43.9 64.7 43.2C64.7 42.6 65.2 42.1 65.4 41.8C65.7 42 66.1 42.4 66.2 43.1C66.3 43.3 66.3 43.5 66.1 43.6Z" fill="#404041"/>
<path fill-rule="evenodd" clip-rule="evenodd" d="M68 42.8C67.8 41.2 66.4 40 65.4 40C64.4 40 63 41.4 63 43.2C63 45 64.5 45.8 65.6 45.8C66.2 45.8 66.9 45.5 67.4 44.9C67.9 44.3 68.1 43.5 68 42.8ZM66.1 43.6C65.9 43.8 65.7 43.9 65.6 44C65.5 44 64.7 43.9 64.7 43.2C64.7 42.6 65.2 42.1 65.4 41.8C65.7 42 66.1 42.4 66.2 43.1C66.3 43.3 66.3 43.5 66.1 43.6Z" fill="#404041"/>
<path fill-rule="evenodd" clip-rule="evenodd" d="M65.5998 51.1C66.2998 51.1 66.8998 50.5 66.8998 49.8C66.8998 49.1 66.2998 48.5 65.5998 48.5C64.8998 48.5 64.2998 49.1 64.2998 49.8C64.2998 50.6 64.8998 51.1 65.5998 51.1Z" fill="#404041"/>
<path fill-rule="evenodd" clip-rule="evenodd" d="M66.5999 34.1C66.5999 34.7 66.0999 35.2 65.4999 35.2C64.8999 35.2 64.3999 34.7 64.3999 34.1C64.3999 33.5 64.8999 33 65.4999 33C66.0999 33 66.5999 33.5 66.5999 34.1Z" fill="#404041"/>
<path fill-rule="evenodd" clip-rule="evenodd" d="M76.4 44.2C77.2 44.2 77.8 43.6 77.8 42.8C77.8 42 77.2 41.4 76.4 41.4C75.6 41.4 75 42 75 42.8C75.1 43.6 75.7 44.2 76.4 44.2Z" fill="#404041"/>
<path fill-rule="evenodd" clip-rule="evenodd" d="M81.1999 41C81.1999 41.7 80.5999 42.4 79.7999 42.4C78.9999 42.4 78.3999 41.8 78.3999 41C78.3999 40.3 78.9999 39.6 79.7999 39.6C80.5999 39.6 81.1999 40.2 81.1999 41Z" fill="#404041"/>
<path fill-rule="evenodd" clip-rule="evenodd" d="M82.7999 39.7C83.5999 39.7 84.1999 39.1 84.1999 38.3C84.1999 37.5 83.5999 36.9 82.7999 36.9C81.9999 36.9 81.3999 37.5 81.3999 38.3C81.4999 39.1 82.0999 39.7 82.7999 39.7Z" fill="#404041"/>
<path fill-rule="evenodd" clip-rule="evenodd" d="M87.3 35.5999C87.3 36.2999 86.7 37 85.9 37C85.1 37 84.5 36.3999 84.5 35.5999C84.5 34.7999 85.1 34.2 85.9 34.2C86.7 34.3 87.3 34.8999 87.3 35.5999Z" fill="#404041"/>
<path fill-rule="evenodd" clip-rule="evenodd" d="M88.5997 33.9C89.3997 33.9 89.9997 33.3 89.9997 32.5C89.9997 31.7 89.3997 31.1 88.5997 31.1C87.7997 31.1 87.1997 31.7 87.1997 32.5C87.1997 33.3 87.7997 33.9 88.5997 33.9Z" fill="#404041"/>
<path fill-rule="evenodd" clip-rule="evenodd" d="M92.6999 29.5C92.6999 30.3 92.0999 30.9 91.2999 30.9C90.4999 30.9 89.8999 30.3 89.8999 29.5C89.8999 28.8 90.4999 28.1 91.2999 28.1C92.0999 28.2 92.6999 28.8 92.6999 29.5Z" fill="#404041"/>
<path fill-rule="evenodd" clip-rule="evenodd" d="M93.7999 27.6C94.5999 27.6 95.1999 27 95.1999 26.2C95.1999 25.4 94.5999 24.8 93.7999 24.8C92.9999 24.8 92.3999 25.4 92.3999 26.2C92.3999 27 92.9999 27.6 93.7999 27.6Z" fill="#404041"/>
<path fill-rule="evenodd" clip-rule="evenodd" d="M97.1999 22.6C97.1999 23.4 96.5999 24 95.7999 24C94.9999 24 94.3999 23.4 94.3999 22.6C94.3999 21.8 94.9999 21.2 95.7999 21.2C96.5999 21.3 97.1999 21.9 97.1999 22.6Z" fill="#404041"/>
<path fill-rule="evenodd" clip-rule="evenodd" d="M97.4 20.3C98.2 20.3 98.8 19.7 98.8 18.9C98.8 18.1 98.2 17.5 97.4 17.5C96.6 17.5 96 18.1 96 18.9C96.1 19.7 96.7 20.3 97.4 20.3Z" fill="#404041"/>
<path fill-rule="evenodd" clip-rule="evenodd" d="M99.9997 15C99.9997 15.7 99.3997 16.4 98.5997 16.4C97.7997 16.4 97.1997 15.8 97.1997 15C97.1997 14.2 97.7997 13.6 98.5997 13.6C99.2997 13.7 99.9997 14.3 99.9997 15Z" fill="#404041"/>
<path fill-rule="evenodd" clip-rule="evenodd" d="M99.0997 12.4C99.8997 12.4 100.5 11.8 100.5 11C100.5 10.2 99.8997 9.59998 99.0997 9.59998C98.2997 9.59998 97.6997 10.2 97.6997 11C97.6997 11.8 98.2997 12.4 99.0997 12.4Z" fill="#404041"/>
<path fill-rule="evenodd" clip-rule="evenodd" d="M100.6 6.99998C100.6 7.79998 99.9998 8.39998 99.1998 8.39998C98.3998 8.39998 97.7998 7.79998 97.7998 6.99998C97.7998 6.29998 98.3998 5.59998 99.1998 5.59998C99.9998 5.59998 100.6 6.29998 100.6 6.99998Z" fill="#404041"/>
<path fill-rule="evenodd" clip-rule="evenodd" d="M54.5001 44.2C53.7001 44.2 53.1001 43.6 53.1001 42.8C53.1001 42 53.7001 41.4 54.5001 41.4C55.3001 41.4 55.9001 42 55.9001 42.8C55.9001 43.6 55.3001 44.2 54.5001 44.2Z" fill="#404041"/>
<path fill-rule="evenodd" clip-rule="evenodd" d="M49.7998 41C49.7998 41.8 50.3998 42.4 51.1998 42.4C51.9998 42.4 52.5998 41.8 52.5998 41C52.5998 40.3 51.9998 39.6 51.1998 39.6C50.3998 39.6 49.7998 40.2 49.7998 41Z" fill="#404041"/>
<path fill-rule="evenodd" clip-rule="evenodd" d="M48.1998 39.7C47.3998 39.7 46.7998 39.1 46.7998 38.3C46.7998 37.6 47.3998 36.9 48.1998 36.9C48.9998 36.9 49.5998 37.5 49.5998 38.3C49.4998 39.1 48.8998 39.7 48.1998 39.7Z" fill="#404041"/>
<path fill-rule="evenodd" clip-rule="evenodd" d="M43.6997 35.5999C43.6997 36.3999 44.2997 37 45.0997 37C45.8997 37 46.4997 36.3999 46.4997 35.5999C46.4997 34.7999 45.8997 34.2 45.0997 34.2C44.2997 34.2 43.6997 34.8999 43.6997 35.5999Z" fill="#404041"/>
<path fill-rule="evenodd" clip-rule="evenodd" d="M42.4 33.9C41.6 33.9 41 33.3 41 32.5C41 31.7 41.6 31.1 42.4 31.1C43.2 31.1 43.8 31.7 43.8 32.5C43.8 33.3 43.2 33.9 42.4 33.9Z" fill="#404041"/>
<path fill-rule="evenodd" clip-rule="evenodd" d="M38.2998 29.5C38.2998 30.2 38.8998 30.9 39.6998 30.9C40.4998 30.9 41.0998 30.3 41.0998 29.5C41.0998 28.7 40.4998 28.1 39.6998 28.1C38.8998 28.2 38.2998 28.8 38.2998 29.5Z" fill="#404041"/>
<path fill-rule="evenodd" clip-rule="evenodd" d="M37.1998 27.5C36.3998 27.5 35.7998 26.9 35.7998 26.1C35.7998 25.3 36.3998 24.7 37.1998 24.7C37.9998 24.7 38.5998 25.3 38.5998 26.1C38.5998 26.9 37.9998 27.5 37.1998 27.5Z" fill="#404041"/>
<path fill-rule="evenodd" clip-rule="evenodd" d="M33.7998 22.6C33.7998 23.4 34.3998 24 35.1998 24C35.9998 24 36.5998 23.4 36.5998 22.6C36.5998 21.8 35.9998 21.2 35.1998 21.2C34.3998 21.3 33.7998 21.9 33.7998 22.6Z" fill="#404041"/>
<path fill-rule="evenodd" clip-rule="evenodd" d="M33.5997 20.3C32.7997 20.3 32.1997 19.7 32.1997 19C32.1997 18.2 32.7997 17.6 33.5997 17.6C34.3997 17.6 34.9997 18.2 34.9997 19C34.8997 19.7 34.2997 20.3 33.5997 20.3Z" fill="#404041"/>
<path fill-rule="evenodd" clip-rule="evenodd" d="M31.1001 15C31.1001 15.7 31.7001 16.4 32.5001 16.4C33.3001 16.4 33.9001 15.8 33.9001 15C33.9001 14.2 33.3001 13.6 32.5001 13.6C31.7001 13.7 31.1001 14.3 31.1001 15Z" fill="#404041"/>
<path fill-rule="evenodd" clip-rule="evenodd" d="M31.9 12.4C31.1 12.4 30.5 11.8 30.5 11C30.5 10.3 31.1 9.59998 31.9 9.59998C32.7 9.59998 33.3 10.2 33.3 11C33.3 11.8 32.7 12.4 31.9 12.4Z" fill="#404041"/>
<path fill-rule="evenodd" clip-rule="evenodd" d="M30.3999 6.99998C30.3999 7.79998 30.9999 8.39998 31.7999 8.39998C32.5999 8.39998 33.1999 7.79998 33.1999 6.99998C33.1999 6.29998 32.5999 5.59998 31.7999 5.59998C30.9999 5.59998 30.3999 6.19998 30.3999 6.99998Z" fill="#404041"/>
<path fill-rule="evenodd" clip-rule="evenodd" d="M68.9999 36.5C69.5999 36.5 70.0999 36 70.0999 35.4C70.0999 34.8 69.5999 34.3 68.9999 34.3C68.3999 34.3 67.8999 34.8 67.8999 35.4C67.8999 36 68.3999 36.5 68.9999 36.5Z" fill="#404041"/>
<path fill-rule="evenodd" clip-rule="evenodd" d="M72.0999 37.6C72.0999 38.2 71.5999 38.7 70.9999 38.7C70.3999 38.7 69.8999 38.2 69.8999 37.6C69.8999 37 70.3999 36.5 70.9999 36.5C71.6999 36.5 72.0999 37 72.0999 37.6Z" fill="#404041"/>
<path fill-rule="evenodd" clip-rule="evenodd" d="M72.6 41.5C73.2 41.5 73.7 41 73.7 40.4C73.7 39.8 73.2 39.3 72.6 39.3C72 39.3 71.5 39.8 71.5 40.4C71.5 41 72 41.5 72.6 41.5Z" fill="#404041"/>
<path fill-rule="evenodd" clip-rule="evenodd" d="M73.9998 43.2999C73.9998 43.8999 73.4998 44.4 72.8998 44.4C72.2998 44.4 71.7998 43.8999 71.7998 43.2999C71.7998 42.6999 72.2998 42.2 72.8998 42.2C73.4998 42.2 73.9998 42.6999 73.9998 43.2999Z" fill="#404041"/>
<path fill-rule="evenodd" clip-rule="evenodd" d="M71.9999 47.3C72.5999 47.3 73.0999 46.8 73.0999 46.2C73.0999 45.6 72.5999 45.1 71.9999 45.1C71.3999 45.1 70.8999 45.6 70.8999 46.2C70.8999 46.8 71.3999 47.3 71.9999 47.3Z" fill="#404041"/>
<path fill-rule="evenodd" clip-rule="evenodd" d="M70.9998 48.6C70.9998 49.2 70.4998 49.7 69.8998 49.7C69.2998 49.7 68.7998 49.2 68.7998 48.6C68.7998 48 69.2998 47.5 69.8998 47.5C70.5998 47.5 70.9998 48 70.9998 48.6Z" fill="#404041"/>
<path fill-rule="evenodd" clip-rule="evenodd" d="M61.9999 36.5C61.3999 36.5 60.8999 36 60.8999 35.4C60.8999 34.8 61.3999 34.3 61.9999 34.3C62.5999 34.3 63.0999 34.8 63.0999 35.4C63.0999 36 62.5999 36.5 61.9999 36.5Z" fill="#404041"/>
<path fill-rule="evenodd" clip-rule="evenodd" d="M58.8999 37.6C58.8999 38.2 59.3999 38.7 59.9999 38.7C60.5999 38.7 61.0999 38.2 61.0999 37.6C61.0999 37 60.5999 36.5 59.9999 36.5C59.3999 36.5 58.8999 37 58.8999 37.6Z" fill="#404041"/>
<path fill-rule="evenodd" clip-rule="evenodd" d="M58.4999 41.5C57.8999 41.5 57.3999 41 57.3999 40.4C57.3999 39.8 57.8999 39.3 58.4999 39.3C59.0999 39.3 59.5999 39.8 59.5999 40.4C59.5999 41 59.0999 41.5 58.4999 41.5Z" fill="#404041"/>
<path fill-rule="evenodd" clip-rule="evenodd" d="M57.1001 43.2999C57.1001 43.8999 57.6001 44.4 58.2001 44.4C58.8001 44.4 59.3001 43.8999 59.3001 43.2999C59.3001 42.6999 58.8001 42.2 58.2001 42.2C57.6001 42.2 57.1001 42.6999 57.1001 43.2999Z" fill="#404041"/>
<path fill-rule="evenodd" clip-rule="evenodd" d="M58.9999 47.3C58.3999 47.3 57.8999 46.8 57.8999 46.2C57.8999 45.6 58.3999 45.1 58.9999 45.1C59.5999 45.1 60.0999 45.6 60.0999 46.2C60.0999 46.8 59.5999 47.3 58.9999 47.3Z" fill="#404041"/>
<path fill-rule="evenodd" clip-rule="evenodd" d="M60 48.6C60 49.2 60.5 49.7 61.1 49.7C61.7 49.7 62.2 49.2 62.2 48.6C62.2 48 61.7 47.5 61.1 47.5C60.5 47.5 60 48 60 48.6Z" fill="#404041"/>
<path fill-rule="evenodd" clip-rule="evenodd" d="M65.4999 28.6C64.2999 28.6 63.3999 29.5 63.3999 30.6C63.3999 31.7 64.2999 32.6 65.4999 32.6C66.5999 32.6 67.5999 31.7 67.5999 30.6C67.5999 29.5 66.6999 28.6 65.4999 28.6ZM65.4999 31.3C65.0999 31.3 64.7999 31 64.7999 30.6C64.7999 30.2 65.0999 29.9 65.4999 29.9C65.8999 29.9 66.1999 30.2 66.1999 30.6C66.1999 31 65.8999 31.3 65.4999 31.3Z" fill="#404041"/>
<path fill-rule="evenodd" clip-rule="evenodd" d="M65.4999 24.4C64.2999 24.4 63.3999 25.3 63.3999 26.4C63.3999 27.5 64.2999 28.4 65.4999 28.4C66.5999 28.4 67.5999 27.5 67.5999 26.4C67.5999 25.3 66.6999 24.4 65.4999 24.4ZM65.4999 27.2C65.0999 27.2 64.7999 26.9 64.7999 26.5C64.7999 26.1 65.0999 25.8 65.4999 25.8C65.8999 25.8 66.1999 26.1 66.1999 26.5C66.1999 26.9 65.8999 27.2 65.4999 27.2Z" fill="#404041"/>
<path fill-rule="evenodd" clip-rule="evenodd" d="M65.4999 20.3C64.2999 20.3 63.3999 21.2 63.3999 22.3C63.3999 23.4 64.2999 24.3 65.4999 24.3C66.5999 24.3 67.5999 23.4 67.5999 22.3C67.5999 21.2 66.6999 20.3 65.4999 20.3ZM65.4999 23C65.0999 23 64.7999 22.7 64.7999 22.3C64.7999 21.9 65.0999 21.6 65.4999 21.6C65.8999 21.6 66.1999 21.9 66.1999 22.3C66.1999 22.7 65.8999 23 65.4999 23Z" fill="#404041"/>
</svg>
