<svg width="22" height="22" viewBox="0 0 22 22" fill="none" xmlns="http://www.w3.org/2000/svg">
<path opacity="0.5" d="M21.1332 22.0001C20.9651 21.8831 20.7765 21.7876 20.6326 21.6464C18.8269 19.8788 17.0274 18.1046 15.2261 16.3321C15.1809 16.2877 15.1334 16.2451 15.0782 16.194C15.0159 16.2366 14.9563 16.2734 14.9008 16.3155C13.7068 17.2255 12.3685 17.819 10.8927 18.0705C8.68714 18.4462 6.58785 18.1171 4.63825 16.9946C2.60977 15.8269 1.20203 14.1364 0.44908 11.9139C0.225885 11.2545 0.0896367 10.5753 0.0376474 9.88007C0.0331656 9.82403 0.0125491 9.77024 0 9.71555C0 9.31479 0 8.91359 0 8.51283C0.0551266 8.14659 0.0994968 7.77855 0.168069 7.41455C0.415915 6.09393 0.938049 4.89121 1.7403 3.81177C3.06468 2.03032 4.79243 0.826701 6.95088 0.302668C9.96402 -0.428917 12.7253 0.16415 15.1423 2.10653C17.0794 3.66294 18.2025 5.71514 18.4549 8.19724C18.6749 10.3593 18.16 12.3563 16.9319 14.1571C16.6832 14.5215 16.4008 14.8631 16.0961 15.2647C16.1512 15.302 16.2256 15.3365 16.2807 15.3907C18.0878 17.1659 19.8931 18.9428 21.6984 20.7203C22.0148 21.0318 22.095 21.3662 21.8794 21.6554C21.7714 21.8006 21.5854 21.8871 21.4344 22.0005H21.1337L21.1332 22.0001ZM1.42702 8.75579C1.43329 10.1567 1.61301 11.1783 2.05537 12.1295C3.30625 14.8196 5.41899 16.3827 8.35907 16.7521C10.4176 17.0108 12.3228 16.5083 13.9735 15.2396C16.3179 13.438 17.3671 11.0312 16.9929 8.09459C16.663 5.5058 15.2674 3.5558 12.9718 2.35173C10.3665 0.984942 7.70831 1.04277 5.17518 2.56108C2.72944 4.02694 1.52607 6.26742 1.42702 8.75579Z" fill="#404041"/>
</svg>
