<svg width="131" height="71" viewBox="0 0 131 71" fill="none" xmlns="http://www.w3.org/2000/svg">
<path d="M94.2001 25.9C93.3001 24.6 92.0001 23.7 90.4001 23.5C87.2001 23.1 82.8001 22.4 79.8001 21.5H79.7001C79.1001 21.3 78.5001 21.1 78.1001 20.9C73.8001 19 74.4001 7.10001 74.4001 7.00001C74.4001 6.70001 74.3001 6.50001 74.2001 6.40001C74.1001 6.30001 73.9001 6.20001 73.7001 6.20001H57.4001C57.2001 6.20001 57.0001 6.30001 56.9001 6.40001C56.8001 6.50001 56.7001 6.70001 56.7001 6.90001C56.7001 7.00001 57.3001 18.9 53.0001 20.8C52.5001 21 52.0001 21.2 51.4001 21.4H51.3001C48.3001 22.3 43.9001 23 40.7001 23.4C39.1001 23.6 37.8001 24.5 36.9001 25.8C36.1001 27.1 35.8001 28.7 36.3001 30.2C37.4001 33.8 39.6001 39.1 43.4001 43.5C45.3001 45.6 48.0001 47.5 51.3001 49C53.1001 49.8 55.0001 50.5 57.0001 51L57.2001 51.1V63.3H51.9001C51.4001 63.3 51.1001 63.6 51.1001 64C51.1001 64.4 51.5001 64.7 51.9001 64.7H79.2001C79.6001 64.7 79.9001 64.4 79.9001 64C79.9001 63.6 79.6001 63.3 79.2001 63.3H73.9001V51H74.1001C76.0001 50.5 78.0001 49.8 79.8001 49C83.1001 47.5 85.8001 45.7 87.7001 43.5C91.5001 39.1 93.7001 33.8 94.8001 30.2C95.2001 28.7 95.0001 27.1 94.2001 25.9ZM52.3001 22.8L52.4001 22.7C52.9001 22.5 53.3001 22.4 53.6001 22.2C58.1001 20.2 58.3001 10.8 58.2001 7.90001V7.70001H73.0001V7.90001C72.9001 10.7 73.1001 20.2 77.6001 22.2C77.9001 22.4 78.3001 22.5 78.8001 22.7H78.9001V22.8C79.1001 24.4 79.7001 29.9 76.6001 33.8C74.3001 36.6 70.6001 38 65.5001 38C60.4001 38 56.7001 36.6 54.6001 33.8C51.4001 30 52.0001 24.4 52.3001 22.8ZM74.2001 38.8C74.8001 38.8 75.3001 39.3 75.3001 39.9C75.3001 40.4 74.8001 40.9 74.2001 40.9C73.6001 40.9 73.1001 40.5 73.1001 39.9C73.1001 39.3 73.6001 38.8 74.2001 38.8ZM68.2001 43.5C68.2001 44.9 67.0001 46.1 65.5001 46.1C64.0001 46.1 62.8001 45 62.8001 43.5C62.8001 42.1 64.0001 40.8 65.5001 40.8C67.0001 40.8 68.2001 42 68.2001 43.5ZM57.9001 39.9C57.9001 40.4 57.4001 40.9 56.8001 40.9C56.2001 40.9 55.7001 40.5 55.7001 39.9C55.7001 39.3 56.2001 38.8 56.8001 38.8C57.4001 38.8 57.9001 39.3 57.9001 39.9ZM72.3001 63.5H58.7001V51.5H59.0001C63.3001 52.3 67.7001 52.3 72.0001 51.5H72.3001V63.5ZM92.8001 29.8C91.7001 33.3 89.7001 38.4 86.0001 42.6C84.2001 44.6 81.8001 46.4 78.6001 47.8C74.3001 49.7 69.7001 50.7 65.0001 50.7C60.3001 50.7 55.7001 49.7 51.4001 47.8C48.2001 46.3 45.8001 44.6 44.0001 42.6C40.3001 38.4 38.3001 33.3 37.2001 29.8C36.9001 28.7 37.1001 27.5 37.7001 26.6C38.3001 25.7 39.3001 25 40.4001 24.9C43.0001 24.6 46.8001 24.1 49.8001 23.3L50.1001 23.2V23.5C49.8001 26.1 49.8001 31 52.8001 34.8C53.6001 35.8 54.5001 36.5 55.5001 37.2L55.9001 37.4L55.5001 37.6C54.5001 37.9 53.9001 38.9 53.9001 39.9C53.9001 41.3 55.1001 42.4 56.5001 42.4C57.9001 42.4 59.1001 41.3 59.1001 39.9C59.1001 39.6 59.1001 39.3 59.0001 39L58.9001 38.6L59.3001 38.7C60.5001 39.1 61.9001 39.3 63.3001 39.4L64.1001 39.5L63.4001 39.9C62.0001 40.6 61.1001 42 61.1001 43.6C61.1001 45.9 63.0001 47.7 65.3001 47.7C67.6001 47.7 69.5001 45.9 69.5001 43.6C69.5001 42 68.6001 40.6 67.2001 39.9L66.5001 39.5L67.3001 39.4C68.7001 39.3 70.1001 39.1 71.3001 38.7L71.7001 38.6L71.6001 39C71.5001 39.3 71.5001 39.6 71.5001 39.9C71.5001 41.3 72.7001 42.4 74.1001 42.4C75.5001 42.4 76.7001 41.3 76.7001 39.9C76.7001 38.9 76.1001 38 75.1001 37.6L74.7001 37.4L75.1001 37.2C76.1001 36.5 77.0001 35.7 77.7001 34.8C80.8001 31 80.7001 26.1 80.4001 23.5V23.2L80.7001 23.3C83.7001 24 87.5001 24.6 90.1001 24.9C91.3001 25 92.3001 25.6 92.3001 26.6C93.0001 27.6 93.1001 28.7 92.8001 29.8Z" fill="#404041"/>
</svg>
