<svg width="131" height="71" viewBox="0 0 131 71" fill="none" xmlns="http://www.w3.org/2000/svg">
<path d="M55.6 49.3C55.6 49.8 55.2 50.2 54.7 50.2C54.2 50.2 53.8 49.8 53.8 49.3C53.7 48.8 54.1 48.4 54.7 48.4C55.2 48.4 55.6 48.8 55.6 49.3Z" fill="#404041"/>
<path d="M54.6998 45.4C52.3998 45.4 50.5998 47.2 50.6998 49.4C50.6998 51.6 52.4998 53.4 54.6998 53.4C56.8998 53.4 58.6998 51.6 58.6998 49.4C58.6998 47.2 56.8998 45.4 54.6998 45.4ZM54.6998 51.8C53.2998 51.8 52.0998 50.7 52.1998 49.3C52.1998 47.9 53.2998 46.8 54.6998 46.8C56.0998 46.8 57.1998 47.9 57.1998 49.3C57.1998 50.7 56.0998 51.8 54.6998 51.8Z" fill="#404041"/>
<path d="M46.9999 44.6L46.3999 42.3C46.2999 42.1 46.1999 42 46.0999 41.9C45.8999 41.8 45.7999 41.8 45.6999 41.7L43.3999 42.3C43.1999 42.4 43.0999 42.5 42.9999 42.6C42.8999 42.8 42.8999 42.9 42.8999 43.1L43.4999 45.4C43.5999 45.6 43.6999 45.7 43.7999 45.8C43.9999 45.9 44.0999 45.9 44.2999 45.9L46.5999 45.3C46.8999 45.3 47.0999 44.9 46.9999 44.6ZM44.3999 44.8L43.9999 43.3L45.4999 43L45.8999 44.4L44.3999 44.8ZM46.9999 44.6L46.3999 42.3C46.2999 42.1 46.1999 42 46.0999 41.9C45.8999 41.8 45.7999 41.8 45.6999 41.7L43.3999 42.3C43.1999 42.4 43.0999 42.5 42.9999 42.6C42.8999 42.8 42.8999 42.9 42.8999 43.1L43.4999 45.4C43.5999 45.6 43.6999 45.7 43.7999 45.8C43.9999 45.9 44.0999 45.9 44.2999 45.9L46.5999 45.3C46.8999 45.3 47.0999 44.9 46.9999 44.6ZM44.3999 44.8L43.9999 43.3L45.4999 43L45.8999 44.4L44.3999 44.8ZM46.9999 44.6L46.3999 42.3C46.2999 42.1 46.1999 42 46.0999 41.9C45.8999 41.8 45.7999 41.8 45.6999 41.7L43.3999 42.3C43.1999 42.4 43.0999 42.5 42.9999 42.6C42.8999 42.8 42.8999 42.9 42.8999 43.1L43.4999 45.4C43.5999 45.6 43.6999 45.7 43.7999 45.8C43.9999 45.9 44.0999 45.9 44.2999 45.9L46.5999 45.3C46.8999 45.3 47.0999 44.9 46.9999 44.6ZM44.3999 44.8L43.9999 43.3L45.4999 43L45.8999 44.4L44.3999 44.8ZM46.9999 44.6L46.3999 42.3C46.2999 42.1 46.1999 42 46.0999 41.9C45.8999 41.8 45.7999 41.8 45.6999 41.7L43.3999 42.3C43.1999 42.4 43.0999 42.5 42.9999 42.6C42.8999 42.8 42.8999 42.9 42.8999 43.1L43.4999 45.4C43.5999 45.6 43.6999 45.7 43.7999 45.8C43.9999 45.9 44.0999 45.9 44.2999 45.9L46.5999 45.3C46.8999 45.3 47.0999 44.9 46.9999 44.6ZM44.3999 44.8L43.9999 43.3L45.4999 43L45.8999 44.4L44.3999 44.8ZM46.4999 53.4L44.1999 52.8C43.9999 52.8 43.7999 52.8 43.6999 52.9C43.4999 53 43.3999 53.1 43.3999 53.3L42.7999 55.6C42.7999 55.8 42.7999 56 42.8999 56.1C42.9999 56.3 43.0999 56.4 43.2999 56.4L45.5999 57C45.7999 57 45.9999 57 46.0999 56.9C46.2999 56.8 46.3999 56.7 46.3999 56.5L46.9999 54.2C47.0999 53.9 46.8999 53.5 46.4999 53.4ZM45.4999 55.8L43.9999 55.4L44.3999 54L45.8999 54.4L45.4999 55.8ZM46.9999 44.6L46.3999 42.3C46.2999 42.1 46.1999 42 46.0999 41.9C45.8999 41.8 45.7999 41.8 45.6999 41.7L43.3999 42.3C43.1999 42.4 43.0999 42.5 42.9999 42.6C42.8999 42.8 42.8999 42.9 42.8999 43.1L43.4999 45.4C43.5999 45.6 43.6999 45.7 43.7999 45.8C43.9999 45.9 44.0999 45.9 44.2999 45.9L46.5999 45.3C46.8999 45.3 47.0999 44.9 46.9999 44.6ZM44.3999 44.8L43.9999 43.3L45.4999 43L45.8999 44.4L44.3999 44.8ZM46.9999 44.6L46.3999 42.3C46.2999 42.1 46.1999 42 46.0999 41.9C45.8999 41.8 45.7999 41.8 45.6999 41.7L43.3999 42.3C43.1999 42.4 43.0999 42.5 42.9999 42.6C42.8999 42.8 42.8999 42.9 42.8999 43.1L43.4999 45.4C43.5999 45.6 43.6999 45.7 43.7999 45.8C43.9999 45.9 44.0999 45.9 44.2999 45.9L46.5999 45.3C46.8999 45.3 47.0999 44.9 46.9999 44.6ZM44.3999 44.8L43.9999 43.3L45.4999 43L45.8999 44.4L44.3999 44.8ZM46.4999 53.4L44.1999 52.8C43.9999 52.8 43.7999 52.8 43.6999 52.9C43.4999 53 43.3999 53.1 43.3999 53.3L42.7999 55.6C42.7999 55.8 42.7999 56 42.8999 56.1C42.9999 56.3 43.0999 56.4 43.2999 56.4L45.5999 57C45.7999 57 45.9999 57 46.0999 56.9C46.2999 56.8 46.3999 56.7 46.3999 56.5L46.9999 54.2C47.0999 53.9 46.8999 53.5 46.4999 53.4ZM45.4999 55.8L43.9999 55.4L44.3999 54L45.8999 54.4L45.4999 55.8ZM46.4999 53.4L44.1999 52.8C43.9999 52.8 43.7999 52.8 43.6999 52.9C43.4999 53 43.3999 53.1 43.3999 53.3L42.7999 55.6C42.7999 55.8 42.7999 56 42.8999 56.1C42.9999 56.3 43.0999 56.4 43.2999 56.4L45.5999 57C45.7999 57 45.9999 57 46.0999 56.9C46.2999 56.8 46.3999 56.7 46.3999 56.5L46.9999 54.2C47.0999 53.9 46.8999 53.5 46.4999 53.4ZM45.4999 55.8L43.9999 55.4L44.3999 54L45.8999 54.4L45.4999 55.8ZM46.9999 44.6L46.3999 42.3C46.2999 42.1 46.1999 42 46.0999 41.9C45.8999 41.8 45.7999 41.8 45.6999 41.7L43.3999 42.3C43.1999 42.4 43.0999 42.5 42.9999 42.6C42.8999 42.8 42.8999 42.9 42.8999 43.1L43.4999 45.4C43.5999 45.6 43.6999 45.7 43.7999 45.8C43.9999 45.9 44.0999 45.9 44.2999 45.9L46.5999 45.3C46.8999 45.3 47.0999 44.9 46.9999 44.6ZM44.3999 44.8L43.9999 43.3L45.4999 43L45.8999 44.4L44.3999 44.8ZM56.7999 60L55.0999 58.3C54.8999 58 54.4999 58 54.2999 58.3L52.5999 60C52.4999 60.1 52.3999 60.2 52.3999 60.4C52.3999 60.5 52.4999 60.7 52.5999 60.8L54.2999 62.5C54.3999 62.6 54.4999 62.7 54.6999 62.7C54.7999 62.7 54.9999 62.6 55.0999 62.5L56.7999 60.8C56.8999 60.7 56.9999 60.6 56.9999 60.4C56.9999 60.3 56.8999 60.1 56.7999 60ZM54.6999 61.4L53.5999 60.4L54.6999 59.3L55.6999 60.4L54.6999 61.4ZM46.9999 44.6L46.3999 42.3C46.2999 42.1 46.1999 42 46.0999 41.9C45.8999 41.8 45.7999 41.8 45.6999 41.7L43.3999 42.3C43.1999 42.4 43.0999 42.5 42.9999 42.6C42.8999 42.8 42.8999 42.9 42.8999 43.1L43.4999 45.4C43.5999 45.6 43.6999 45.7 43.7999 45.8C43.9999 45.9 44.0999 45.9 44.2999 45.9L46.5999 45.3C46.8999 45.3 47.0999 44.9 46.9999 44.6ZM44.3999 44.8L43.9999 43.3L45.4999 43L45.8999 44.4L44.3999 44.8ZM46.4999 53.4L44.1999 52.8C43.9999 52.8 43.7999 52.8 43.6999 52.9C43.4999 53 43.3999 53.1 43.3999 53.3L42.7999 55.6C42.7999 55.8 42.7999 56 42.8999 56.1C42.9999 56.3 43.0999 56.4 43.2999 56.4L45.5999 57C45.7999 57 45.9999 57 46.0999 56.9C46.2999 56.8 46.3999 56.7 46.3999 56.5L46.9999 54.2C47.0999 53.9 46.8999 53.5 46.4999 53.4ZM45.4999 55.8L43.9999 55.4L44.3999 54L45.8999 54.4L45.4999 55.8ZM56.7999 60L55.0999 58.3C54.8999 58 54.4999 58 54.2999 58.3L52.5999 60C52.4999 60.1 52.3999 60.2 52.3999 60.4C52.3999 60.5 52.4999 60.7 52.5999 60.8L54.2999 62.5C54.3999 62.6 54.4999 62.7 54.6999 62.7C54.7999 62.7 54.9999 62.6 55.0999 62.5L56.7999 60.8C56.8999 60.7 56.9999 60.6 56.9999 60.4C56.9999 60.3 56.8999 60.1 56.7999 60ZM54.6999 61.4L53.5999 60.4L54.6999 59.3L55.6999 60.4L54.6999 61.4ZM46.4999 53.4L44.1999 52.8C43.9999 52.8 43.7999 52.8 43.6999 52.9C43.4999 53 43.3999 53.1 43.3999 53.3L42.7999 55.6C42.7999 55.8 42.7999 56 42.8999 56.1C42.9999 56.3 43.0999 56.4 43.2999 56.4L45.5999 57C45.7999 57 45.9999 57 46.0999 56.9C46.2999 56.8 46.3999 56.7 46.3999 56.5L46.9999 54.2C47.0999 53.9 46.8999 53.5 46.4999 53.4ZM45.4999 55.8L43.9999 55.4L44.3999 54L45.8999 54.4L45.4999 55.8ZM46.9999 44.6L46.3999 42.3C46.2999 42.1 46.1999 42 46.0999 41.9C45.8999 41.8 45.7999 41.8 45.6999 41.7L43.3999 42.3C43.1999 42.4 43.0999 42.5 42.9999 42.6C42.8999 42.8 42.8999 42.9 42.8999 43.1L43.4999 45.4C43.5999 45.6 43.6999 45.7 43.7999 45.8C43.9999 45.9 44.0999 45.9 44.2999 45.9L46.5999 45.3C46.8999 45.3 47.0999 44.9 46.9999 44.6ZM44.3999 44.8L43.9999 43.3L45.4999 43L45.8999 44.4L44.3999 44.8ZM56.7999 60L55.0999 58.3C54.8999 58 54.4999 58 54.2999 58.3L52.5999 60C52.4999 60.1 52.3999 60.2 52.3999 60.4C52.3999 60.5 52.4999 60.7 52.5999 60.8L54.2999 62.5C54.3999 62.6 54.4999 62.7 54.6999 62.7C54.7999 62.7 54.9999 62.6 55.0999 62.5L56.7999 60.8C56.8999 60.7 56.9999 60.6 56.9999 60.4C56.9999 60.3 56.8999 60.1 56.7999 60ZM54.6999 61.4L53.5999 60.4L54.6999 59.3L55.6999 60.4L54.6999 61.4ZM66.4999 55.6L65.8999 53.3C65.7999 53.1 65.6999 53 65.5999 52.9C65.3999 52.8 65.2999 52.8 65.0999 52.8L62.7999 53.4C62.5999 53.5 62.4999 53.6 62.3999 53.7C62.2999 53.8 62.2999 54 62.3999 54.1L62.9999 56.4C63.0999 56.6 63.1999 56.7 63.2999 56.8C63.4999 56.9 63.5999 56.9 63.7999 56.9L66.0999 56.3C66.3999 56.2 66.5999 55.9 66.4999 55.6ZM63.8999 55.7L63.4999 54.3L64.8999 53.9L65.2999 55.4L63.8999 55.7ZM46.9999 44.6L46.3999 42.3C46.2999 42.1 46.1999 42 46.0999 41.9C45.8999 41.8 45.7999 41.8 45.6999 41.7L43.3999 42.3C43.1999 42.4 43.0999 42.5 42.9999 42.6C42.8999 42.8 42.8999 42.9 42.8999 43.1L43.4999 45.4C43.5999 45.6 43.6999 45.7 43.7999 45.8C43.9999 45.9 44.0999 45.9 44.2999 45.9L46.5999 45.3C46.8999 45.3 47.0999 44.9 46.9999 44.6ZM44.3999 44.8L43.9999 43.3L45.4999 43L45.8999 44.4L44.3999 44.8ZM46.4999 53.4L44.1999 52.8C43.9999 52.8 43.7999 52.8 43.6999 52.9C43.4999 53 43.3999 53.1 43.3999 53.3L42.7999 55.6C42.7999 55.8 42.7999 56 42.8999 56.1C42.9999 56.3 43.0999 56.4 43.2999 56.4L45.5999 57C45.7999 57 45.9999 57 46.0999 56.9C46.2999 56.8 46.3999 56.7 46.3999 56.5L46.9999 54.2C47.0999 53.9 46.8999 53.5 46.4999 53.4ZM45.4999 55.8L43.9999 55.4L44.3999 54L45.8999 54.4L45.4999 55.8ZM66.4999 55.6L65.8999 53.3C65.7999 53.1 65.6999 53 65.5999 52.9C65.3999 52.8 65.2999 52.8 65.0999 52.8L62.7999 53.4C62.5999 53.5 62.4999 53.6 62.3999 53.7C62.2999 53.8 62.2999 54 62.3999 54.1L62.9999 56.4C63.0999 56.6 63.1999 56.7 63.2999 56.8C63.4999 56.9 63.5999 56.9 63.7999 56.9L66.0999 56.3C66.3999 56.2 66.5999 55.9 66.4999 55.6ZM63.8999 55.7L63.4999 54.3L64.8999 53.9L65.2999 55.4L63.8999 55.7ZM56.7999 60L55.0999 58.3C54.8999 58 54.4999 58 54.2999 58.3L52.5999 60C52.4999 60.1 52.3999 60.2 52.3999 60.4C52.3999 60.5 52.4999 60.7 52.5999 60.8L54.2999 62.5C54.3999 62.6 54.4999 62.7 54.6999 62.7C54.7999 62.7 54.9999 62.6 55.0999 62.5L56.7999 60.8C56.8999 60.7 56.9999 60.6 56.9999 60.4C56.9999 60.3 56.8999 60.1 56.7999 60ZM54.6999 61.4L53.5999 60.4L54.6999 59.3L55.6999 60.4L54.6999 61.4ZM46.4999 53.4L44.1999 52.8C43.9999 52.8 43.7999 52.8 43.6999 52.9C43.4999 53 43.3999 53.1 43.3999 53.3L42.7999 55.6C42.7999 55.8 42.7999 56 42.8999 56.1C42.9999 56.3 43.0999 56.4 43.2999 56.4L45.5999 57C45.7999 57 45.9999 57 46.0999 56.9C46.2999 56.8 46.3999 56.7 46.3999 56.5L46.9999 54.2C47.0999 53.9 46.8999 53.5 46.4999 53.4ZM45.4999 55.8L43.9999 55.4L44.3999 54L45.8999 54.4L45.4999 55.8ZM46.9999 44.6L46.3999 42.3C46.2999 42.1 46.1999 42 46.0999 41.9C45.8999 41.8 45.7999 41.8 45.6999 41.7L43.3999 42.3C43.1999 42.4 43.0999 42.5 42.9999 42.6C42.8999 42.8 42.8999 42.9 42.8999 43.1L43.4999 45.4C43.5999 45.6 43.6999 45.7 43.7999 45.8C43.9999 45.9 44.0999 45.9 44.2999 45.9L46.5999 45.3C46.8999 45.3 47.0999 44.9 46.9999 44.6ZM44.3999 44.8L43.9999 43.3L45.4999 43L45.8999 44.4L44.3999 44.8ZM56.7999 60L55.0999 58.3C54.8999 58 54.4999 58 54.2999 58.3L52.5999 60C52.4999 60.1 52.3999 60.2 52.3999 60.4C52.3999 60.5 52.4999 60.7 52.5999 60.8L54.2999 62.5C54.3999 62.6 54.4999 62.7 54.6999 62.7C54.7999 62.7 54.9999 62.6 55.0999 62.5L56.7999 60.8C56.8999 60.7 56.9999 60.6 56.9999 60.4C56.9999 60.3 56.8999 60.1 56.7999 60ZM54.6999 61.4L53.5999 60.4L54.6999 59.3L55.6999 60.4L54.6999 61.4ZM66.4999 55.6L65.8999 53.3C65.7999 53.1 65.6999 53 65.5999 52.9C65.3999 52.8 65.2999 52.8 65.0999 52.8L62.7999 53.4C62.5999 53.5 62.4999 53.6 62.3999 53.7C62.2999 53.8 62.2999 54 62.3999 54.1L62.9999 56.4C63.0999 56.6 63.1999 56.7 63.2999 56.8C63.4999 56.9 63.5999 56.9 63.7999 56.9L66.0999 56.3C66.3999 56.2 66.5999 55.9 66.4999 55.6ZM63.8999 55.7L63.4999 54.3L64.8999 53.9L65.2999 55.4L63.8999 55.7ZM46.9999 44.6L46.3999 42.3C46.2999 42.1 46.1999 42 46.0999 41.9C45.8999 41.8 45.7999 41.8 45.6999 41.7L43.3999 42.3C43.1999 42.4 43.0999 42.5 42.9999 42.6C42.8999 42.8 42.8999 42.9 42.8999 43.1L43.4999 45.4C43.5999 45.6 43.6999 45.7 43.7999 45.8C43.9999 45.9 44.0999 45.9 44.2999 45.9L46.5999 45.3C46.8999 45.3 47.0999 44.9 46.9999 44.6ZM44.3999 44.8L43.9999 43.3L45.4999 43L45.8999 44.4L44.3999 44.8ZM46.4999 53.4L44.1999 52.8C43.9999 52.8 43.7999 52.8 43.6999 52.9C43.4999 53 43.3999 53.1 43.3999 53.3L42.7999 55.6C42.7999 55.8 42.7999 56 42.8999 56.1C42.9999 56.3 43.0999 56.4 43.2999 56.4L45.5999 57C45.7999 57 45.9999 57 46.0999 56.9C46.2999 56.8 46.3999 56.7 46.3999 56.5L46.9999 54.2C47.0999 53.9 46.8999 53.5 46.4999 53.4ZM45.4999 55.8L43.9999 55.4L44.3999 54L45.8999 54.4L45.4999 55.8ZM66.4999 55.6L65.8999 53.3C65.7999 53.1 65.6999 53 65.5999 52.9C65.3999 52.8 65.2999 52.8 65.0999 52.8L62.7999 53.4C62.5999 53.5 62.4999 53.6 62.3999 53.7C62.2999 53.8 62.2999 54 62.3999 54.1L62.9999 56.4C63.0999 56.6 63.1999 56.7 63.2999 56.8C63.4999 56.9 63.5999 56.9 63.7999 56.9L66.0999 56.3C66.3999 56.2 66.5999 55.9 66.4999 55.6ZM63.8999 55.7L63.4999 54.3L64.8999 53.9L65.2999 55.4L63.8999 55.7ZM56.7999 60L55.0999 58.3C54.8999 58 54.4999 58 54.2999 58.3L52.5999 60C52.4999 60.1 52.3999 60.2 52.3999 60.4C52.3999 60.5 52.4999 60.7 52.5999 60.8L54.2999 62.5C54.3999 62.6 54.4999 62.7 54.6999 62.7C54.7999 62.7 54.9999 62.6 55.0999 62.5L56.7999 60.8C56.8999 60.7 56.9999 60.6 56.9999 60.4C56.9999 60.3 56.8999 60.1 56.7999 60ZM54.6999 61.4L53.5999 60.4L54.6999 59.3L55.6999 60.4L54.6999 61.4ZM46.4999 53.4L44.1999 52.8C43.9999 52.8 43.7999 52.8 43.6999 52.9C43.4999 53 43.3999 53.1 43.3999 53.3L42.7999 55.6C42.7999 55.8 42.7999 56 42.8999 56.1C42.9999 56.3 43.0999 56.4 43.2999 56.4L45.5999 57C45.7999 57 45.9999 57 46.0999 56.9C46.2999 56.8 46.3999 56.7 46.3999 56.5L46.9999 54.2C47.0999 53.9 46.8999 53.5 46.4999 53.4ZM45.4999 55.8L43.9999 55.4L44.3999 54L45.8999 54.4L45.4999 55.8ZM46.9999 44.6L46.3999 42.3C46.2999 42.1 46.1999 42 46.0999 41.9C45.8999 41.8 45.7999 41.8 45.6999 41.7L43.3999 42.3C43.1999 42.4 43.0999 42.5 42.9999 42.6C42.8999 42.8 42.8999 42.9 42.8999 43.1L43.4999 45.4C43.5999 45.6 43.6999 45.7 43.7999 45.8C43.9999 45.9 44.0999 45.9 44.2999 45.9L46.5999 45.3C46.8999 45.3 47.0999 44.9 46.9999 44.6ZM44.3999 44.8L43.9999 43.3L45.4999 43L45.8999 44.4L44.3999 44.8ZM56.7999 60L55.0999 58.3C54.8999 58 54.4999 58 54.2999 58.3L52.5999 60C52.4999 60.1 52.3999 60.2 52.3999 60.4C52.3999 60.5 52.4999 60.7 52.5999 60.8L54.2999 62.5C54.3999 62.6 54.4999 62.7 54.6999 62.7C54.7999 62.7 54.9999 62.6 55.0999 62.5L56.7999 60.8C56.8999 60.7 56.9999 60.6 56.9999 60.4C56.9999 60.3 56.8999 60.1 56.7999 60ZM54.6999 61.4L53.5999 60.4L54.6999 59.3L55.6999 60.4L54.6999 61.4ZM65.9999 42.3L63.6999 41.7C63.4999 41.7 63.2999 41.7 63.1999 41.8C62.9999 41.9 62.8999 42 62.8999 42.2L62.2999 44.5V44.9C62.3999 45.1 62.4999 45.2 62.6999 45.2L64.9999 45.8C65.1999 45.8 65.3999 45.8 65.4999 45.7C65.6999 45.6 65.7999 45.5 65.7999 45.3L66.3999 43C66.4999 42.7 66.2999 42.4 65.9999 42.3ZM64.8999 44.7L63.3999 44.4L63.7999 42.9L65.2999 43.3L64.8999 44.7ZM66.4999 55.6L65.8999 53.3C65.7999 53.1 65.6999 53 65.5999 52.9C65.3999 52.8 65.2999 52.8 65.0999 52.8L62.7999 53.4C62.5999 53.5 62.4999 53.6 62.3999 53.7C62.2999 53.8 62.2999 54 62.3999 54.1L62.9999 56.4C63.0999 56.6 63.1999 56.7 63.2999 56.8C63.4999 56.9 63.5999 56.9 63.7999 56.9L66.0999 56.3C66.3999 56.2 66.5999 55.9 66.4999 55.6ZM63.8999 55.7L63.4999 54.3L64.8999 53.9L65.2999 55.4L63.8999 55.7ZM46.9999 44.6L46.3999 42.3C46.2999 42.1 46.1999 42 46.0999 41.9C45.8999 41.8 45.7999 41.8 45.6999 41.7L43.3999 42.3C43.1999 42.4 43.0999 42.5 42.9999 42.6C42.8999 42.8 42.8999 42.9 42.8999 43.1L43.4999 45.4C43.5999 45.6 43.6999 45.7 43.7999 45.8C43.9999 45.9 44.0999 45.9 44.2999 45.9L46.5999 45.3C46.8999 45.3 47.0999 44.9 46.9999 44.6ZM44.3999 44.8L43.9999 43.3L45.4999 43L45.8999 44.4L44.3999 44.8ZM46.4999 53.4L44.1999 52.8C43.9999 52.8 43.7999 52.8 43.6999 52.9C43.4999 53 43.3999 53.1 43.3999 53.3L42.7999 55.6C42.7999 55.8 42.7999 56 42.8999 56.1C42.9999 56.3 43.0999 56.4 43.2999 56.4L45.5999 57C45.7999 57 45.9999 57 46.0999 56.9C46.2999 56.8 46.3999 56.7 46.3999 56.5L46.9999 54.2C47.0999 53.9 46.8999 53.5 46.4999 53.4ZM45.4999 55.8L43.9999 55.4L44.3999 54L45.8999 54.4L45.4999 55.8ZM65.9999 42.3L63.6999 41.7C63.4999 41.7 63.2999 41.7 63.1999 41.8C62.9999 41.9 62.8999 42 62.8999 42.2L62.2999 44.5V44.9C62.3999 45.1 62.4999 45.2 62.6999 45.2L64.9999 45.8C65.1999 45.8 65.3999 45.8 65.4999 45.7C65.6999 45.6 65.7999 45.5 65.7999 45.3L66.3999 43C66.4999 42.7 66.2999 42.4 65.9999 42.3ZM64.8999 44.7L63.3999 44.4L63.7999 42.9L65.2999 43.3L64.8999 44.7ZM66.4999 55.6L65.8999 53.3C65.7999 53.1 65.6999 53 65.5999 52.9C65.3999 52.8 65.2999 52.8 65.0999 52.8L62.7999 53.4C62.5999 53.5 62.4999 53.6 62.3999 53.7C62.2999 53.8 62.2999 54 62.3999 54.1L62.9999 56.4C63.0999 56.6 63.1999 56.7 63.2999 56.8C63.4999 56.9 63.5999 56.9 63.7999 56.9L66.0999 56.3C66.3999 56.2 66.5999 55.9 66.4999 55.6ZM63.8999 55.7L63.4999 54.3L64.8999 53.9L65.2999 55.4L63.8999 55.7ZM56.7999 60L55.0999 58.3C54.8999 58 54.4999 58 54.2999 58.3L52.5999 60C52.4999 60.1 52.3999 60.2 52.3999 60.4C52.3999 60.5 52.4999 60.7 52.5999 60.8L54.2999 62.5C54.3999 62.6 54.4999 62.7 54.6999 62.7C54.7999 62.7 54.9999 62.6 55.0999 62.5L56.7999 60.8C56.8999 60.7 56.9999 60.6 56.9999 60.4C56.9999 60.3 56.8999 60.1 56.7999 60ZM54.6999 61.4L53.5999 60.4L54.6999 59.3L55.6999 60.4L54.6999 61.4ZM46.4999 53.4L44.1999 52.8C43.9999 52.8 43.7999 52.8 43.6999 52.9C43.4999 53 43.3999 53.1 43.3999 53.3L42.7999 55.6C42.7999 55.8 42.7999 56 42.8999 56.1C42.9999 56.3 43.0999 56.4 43.2999 56.4L45.5999 57C45.7999 57 45.9999 57 46.0999 56.9C46.2999 56.8 46.3999 56.7 46.3999 56.5L46.9999 54.2C47.0999 53.9 46.8999 53.5 46.4999 53.4ZM45.4999 55.8L43.9999 55.4L44.3999 54L45.8999 54.4L45.4999 55.8ZM46.9999 44.6L46.3999 42.3C46.2999 42.1 46.1999 42 46.0999 41.9C45.8999 41.8 45.7999 41.8 45.6999 41.7L43.3999 42.3C43.1999 42.4 43.0999 42.5 42.9999 42.6C42.8999 42.8 42.8999 42.9 42.8999 43.1L43.4999 45.4C43.5999 45.6 43.6999 45.7 43.7999 45.8C43.9999 45.9 44.0999 45.9 44.2999 45.9L46.5999 45.3C46.8999 45.3 47.0999 44.9 46.9999 44.6ZM44.3999 44.8L43.9999 43.3L45.4999 43L45.8999 44.4L44.3999 44.8ZM56.7999 60L55.0999 58.3C54.8999 58 54.4999 58 54.2999 58.3L52.5999 60C52.4999 60.1 52.3999 60.2 52.3999 60.4C52.3999 60.5 52.4999 60.7 52.5999 60.8L54.2999 62.5C54.3999 62.6 54.4999 62.7 54.6999 62.7C54.7999 62.7 54.9999 62.6 55.0999 62.5L56.7999 60.8C56.8999 60.7 56.9999 60.6 56.9999 60.4C56.9999 60.3 56.8999 60.1 56.7999 60ZM54.6999 61.4L53.5999 60.4L54.6999 59.3L55.6999 60.4L54.6999 61.4ZM56.7999 37.9L55.0999 36.2C54.7999 36 54.3999 36 54.1999 36.2L52.4999 37.9C52.3999 38 52.2999 38.1 52.2999 38.3C52.2999 38.4 52.3999 38.6 52.4999 38.7L54.2999 40.4C54.3999 40.5 54.4999 40.6 54.6999 40.6C54.7999 40.6 54.9999 40.5 55.0999 40.4L56.7999 38.7C56.8999 38.6 56.9999 38.5 56.9999 38.3C56.9999 38.2 56.8999 38 56.7999 37.9ZM54.6999 39.4L53.5999 38.3L54.6999 37.3L55.6999 38.3L54.6999 39.4ZM65.9999 42.3L63.6999 41.7C63.4999 41.7 63.2999 41.7 63.1999 41.8C62.9999 41.9 62.8999 42 62.8999 42.2L62.2999 44.5V44.9C62.3999 45.1 62.4999 45.2 62.6999 45.2L64.9999 45.8C65.1999 45.8 65.3999 45.8 65.4999 45.7C65.6999 45.6 65.7999 45.5 65.7999 45.3L66.3999 43C66.4999 42.7 66.2999 42.4 65.9999 42.3ZM64.8999 44.7L63.3999 44.4L63.7999 42.9L65.2999 43.3L64.8999 44.7ZM66.4999 55.6L65.8999 53.3C65.7999 53.1 65.6999 53 65.5999 52.9C65.3999 52.8 65.2999 52.8 65.0999 52.8L62.7999 53.4C62.5999 53.5 62.4999 53.6 62.3999 53.7C62.2999 53.8 62.2999 54 62.3999 54.1L62.9999 56.4C63.0999 56.6 63.1999 56.7 63.2999 56.8C63.4999 56.9 63.5999 56.9 63.7999 56.9L66.0999 56.3C66.3999 56.2 66.5999 55.9 66.4999 55.6ZM63.8999 55.7L63.4999 54.3L64.8999 53.9L65.2999 55.4L63.8999 55.7ZM46.9999 44.6L46.3999 42.3C46.2999 42.1 46.1999 42 46.0999 41.9C45.8999 41.8 45.7999 41.8 45.6999 41.7L43.3999 42.3C43.1999 42.4 43.0999 42.5 42.9999 42.6C42.8999 42.8 42.8999 42.9 42.8999 43.1L43.4999 45.4C43.5999 45.6 43.6999 45.7 43.7999 45.8C43.9999 45.9 44.0999 45.9 44.2999 45.9L46.5999 45.3C46.8999 45.3 47.0999 44.9 46.9999 44.6ZM44.3999 44.8L43.9999 43.3L45.4999 43L45.8999 44.4L44.3999 44.8ZM46.4999 53.4L44.1999 52.8C43.9999 52.8 43.7999 52.8 43.6999 52.9C43.4999 53 43.3999 53.1 43.3999 53.3L42.7999 55.6C42.7999 55.8 42.7999 56 42.8999 56.1C42.9999 56.3 43.0999 56.4 43.2999 56.4L45.5999 57C45.7999 57 45.9999 57 46.0999 56.9C46.2999 56.8 46.3999 56.7 46.3999 56.5L46.9999 54.2C47.0999 53.9 46.8999 53.5 46.4999 53.4ZM45.4999 55.8L43.9999 55.4L44.3999 54L45.8999 54.4L45.4999 55.8ZM56.7999 37.9L55.0999 36.2C54.7999 36 54.3999 36 54.1999 36.2L52.4999 37.9C52.3999 38 52.2999 38.1 52.2999 38.3C52.2999 38.4 52.3999 38.6 52.4999 38.7L54.2999 40.4C54.3999 40.5 54.4999 40.6 54.6999 40.6C54.7999 40.6 54.9999 40.5 55.0999 40.4L56.7999 38.7C56.8999 38.6 56.9999 38.5 56.9999 38.3C56.9999 38.2 56.8999 38 56.7999 37.9ZM54.6999 39.4L53.5999 38.3L54.6999 37.3L55.6999 38.3L54.6999 39.4ZM65.9999 42.3L63.6999 41.7C63.4999 41.7 63.2999 41.7 63.1999 41.8C62.9999 41.9 62.8999 42 62.8999 42.2L62.2999 44.5V44.9C62.3999 45.1 62.4999 45.2 62.6999 45.2L64.9999 45.8C65.1999 45.8 65.3999 45.8 65.4999 45.7C65.6999 45.6 65.7999 45.5 65.7999 45.3L66.3999 43C66.4999 42.7 66.2999 42.4 65.9999 42.3ZM64.8999 44.7L63.3999 44.4L63.7999 42.9L65.2999 43.3L64.8999 44.7ZM66.4999 55.6L65.8999 53.3C65.7999 53.1 65.6999 53 65.5999 52.9C65.3999 52.8 65.2999 52.8 65.0999 52.8L62.7999 53.4C62.5999 53.5 62.4999 53.6 62.3999 53.7C62.2999 53.8 62.2999 54 62.3999 54.1L62.9999 56.4C63.0999 56.6 63.1999 56.7 63.2999 56.8C63.4999 56.9 63.5999 56.9 63.7999 56.9L66.0999 56.3C66.3999 56.2 66.5999 55.9 66.4999 55.6ZM63.8999 55.7L63.4999 54.3L64.8999 53.9L65.2999 55.4L63.8999 55.7ZM56.7999 60L55.0999 58.3C54.8999 58 54.4999 58 54.2999 58.3L52.5999 60C52.4999 60.1 52.3999 60.2 52.3999 60.4C52.3999 60.5 52.4999 60.7 52.5999 60.8L54.2999 62.5C54.3999 62.6 54.4999 62.7 54.6999 62.7C54.7999 62.7 54.9999 62.6 55.0999 62.5L56.7999 60.8C56.8999 60.7 56.9999 60.6 56.9999 60.4C56.9999 60.3 56.8999 60.1 56.7999 60ZM54.6999 61.4L53.5999 60.4L54.6999 59.3L55.6999 60.4L54.6999 61.4ZM77.6999 7.5C68.8999 3.3 58.3999 5 50.9999 11C42.7999 17.6 40.3999 29 44.0999 38.5C42.3999 38.8 40.8999 39.7 40.0999 41.2C39.3999 42.5 39.1999 44 39.5999 45.4C39.9999 46.8 40.8999 48 42.1999 48.7C43.0999 49.1 43.9999 49.4 44.8999 49.4C43.8999 49.4 42.9999 49.6 42.1999 50.1C40.8999 50.9 39.9999 52.1 39.5999 53.5C39.1999 54.9 39.3999 56.4 40.1999 57.7C41.1999 59.4 42.9999 60.4 44.9999 60.4C45.9999 60.4 46.9999 60.2 47.6999 59.7C48.4999 59.2 49.0999 58.6 49.5999 57.9C49.1999 58.7 48.9999 59.5 48.9999 60.4C48.9999 63.4 51.4999 65.9 54.5999 65.9C57.6999 65.9 60.1999 63.4 60.1999 60.4C60.1999 58.4 59.0999 56.7 57.4999 55.7C57.8999 55.5 58.2999 55.3 58.6999 55C58.6999 55.4 58.7999 55.9 58.8999 56.3C59.2999 57.7 60.1999 58.9 61.4999 59.6C62.3999 60.1 63.2999 60.3 64.2999 60.3C66.2999 60.3 68.1999 59.2 69.1999 57.5C69.8999 56.2 70.0999 54.7 69.6999 53.3C69.2999 51.9 68.3999 50.7 67.0999 50C66.2999 49.6 65.3999 49.3 64.4999 49.3C65.3999 49.3 66.2999 49.1 67.0999 48.6C68.3999 47.8 69.2999 46.6 69.6999 45.2C70.0999 43.8 69.7999 42.3 69.0999 41C68.0999 39.3 66.2999 38.3 64.2999 38.3C63.2999 38.3 62.3999 38.5 61.4999 39C60.6999 39.5 60.0999 40.1 59.5999 40.8C59.9999 40 60.1999 39.2 60.1999 38.3C60.1999 35.3 57.6999 32.8 54.5999 32.8C51.4999 32.8 48.9999 35.3 48.9999 38.3C48.9999 40.3 50.0999 42 51.6999 43C51.2999 43.2 50.8999 43.4 50.4999 43.7C50.4999 41.9 49.4999 40.1 47.6999 39.1C47.0999 38.8 46.4999 38.6 45.8999 38.5C45.8999 38.4 45.8999 38.4 45.8999 38.3C41.8999 28.6 44.6999 17.8 53.1999 11.4C60.9999 5.4 71.9999 5.6 79.9999 10.8C88.3999 16.3 91.4999 26.8 88.7999 36.1C87.2999 41.2 83.7999 45.2 79.4999 48.3C76.5999 50.4 76.0999 52.4 75.9999 55.8C75.9999 56.9 77.7999 56.9 77.7999 55.8C77.8999 53.4 78.0999 51.8 79.9999 50.2C82.1999 48.3 84.4999 46.8 86.3999 44.5C89.6999 40.5 91.3999 35.4 91.6999 30.3C92.1999 20.7 86.1999 11.7 77.6999 7.5ZM50.4999 54.9C50.8999 55.2 51.2999 55.4 51.6999 55.6C50.9999 56 50.3999 56.6 49.9999 57.2C50.1999 56.9 50.2999 56.6 50.3999 56.3C50.4999 55.9 50.5999 55.4 50.4999 54.9ZM58.7999 60.4C58.7999 62.6 56.9999 64.4 54.6999 64.4C52.3999 64.4 50.5999 62.6 50.5999 60.4C50.5999 58.2 52.3999 56.3 54.6999 56.4C56.9999 56.4 58.7999 58.2 58.7999 60.4ZM66.3999 51.3C67.2999 51.8 67.9999 52.7 68.2999 53.7C68.5999 54.8 68.3999 55.9 67.8999 56.8C67.0999 58 65.7999 58.8 64.2999 58.8C63.5999 58.8 62.8999 58.6 62.2999 58.3C61.3999 57.8 60.6999 56.9 60.3999 55.9C60.0999 54.8 60.2999 53.7 60.7999 52.8C61.5999 51.5 62.8999 50.8 64.3999 50.8C65.0999 50.8 65.7999 51 66.3999 51.3ZM61.6999 49.9V48.6C62.3999 48.9 63.0999 49.2 63.7999 49.2C63.0999 49.3 62.3999 49.6 61.6999 49.9ZM60.4999 42.6C60.7999 41.5 61.4999 40.6 62.3999 40.1C63.0999 39.8 63.7999 39.6 64.4999 39.6C65.8999 39.6 67.2999 40.4 67.9999 41.6C68.4999 42.6 68.6999 43.7 68.3999 44.7C68.0999 45.8 67.3999 46.7 66.4999 47.2C65.7999 47.6 65.0999 47.8 64.3999 47.8C62.8999 47.8 61.4999 47.1 60.8999 45.7C60.3999 44.7 60.1999 43.6 60.4999 42.6ZM50.5999 38.3C50.5999 36.1 52.3999 34.3 54.6999 34.3C56.9999 34.3 58.7999 36.1 58.7999 38.3C58.7999 40.5 56.8999 42.4 54.6999 42.3C52.3999 42.3 50.5999 40.5 50.5999 38.3ZM59.2999 41.5C59.0999 41.8 58.9999 42.1 58.8999 42.4C58.7999 42.8 58.7999 43.3 58.7999 43.8C58.3999 43.5 57.9999 43.3 57.5999 43.1C58.2999 42.7 58.8999 42.1 59.2999 41.5ZM54.6999 43.8C57.7999 43.8 60.2999 46.3 60.2999 49.3C60.2999 52.3 57.7999 54.8 54.6999 54.8C51.5999 54.8 49.0999 52.4 49.0999 49.3C49.0999 46.3 51.5999 43.8 54.6999 43.8ZM48.8999 55.9C48.5999 57 47.9999 57.9 46.9999 58.4C46.2999 58.8 45.5999 59 44.8999 59C43.4999 59 42.0999 58.2 41.3999 57C40.8999 56 40.6999 54.9 40.9999 53.9C41.2999 52.8 41.9999 52 42.8999 51.4C43.5999 51.1 44.2999 50.9 44.9999 50.9C46.3999 50.9 47.7999 51.6 48.4999 52.8C48.9999 53.8 49.1999 54.9 48.8999 55.9ZM44.9999 49.4C45.9999 49.4 46.7999 49.1 47.5999 48.7V50.1C46.7999 49.7 45.8999 49.4 44.9999 49.4ZM44.9999 39.9C45.6999 39.9 46.3999 40.1 46.9999 40.4C48.8999 41.5 49.5999 44 48.4999 45.9C47.6999 47.1 46.3999 47.9 44.8999 47.9C44.1999 47.9 43.4999 47.7 42.8999 47.4C41.9999 46.9 41.2999 46 40.9999 45C40.6999 43.9 40.8999 42.8 41.3999 41.9C42.0999 40.6 43.4999 39.9 44.9999 39.9ZM62.3999 53.7C62.2999 53.8 62.2999 54 62.3999 54.1L62.9999 56.4C63.0999 56.6 63.1999 56.7 63.2999 56.8C63.4999 56.9 63.5999 56.9 63.7999 56.9L66.0999 56.3C66.3999 56.2 66.5999 55.9 66.4999 55.6L65.8999 53.3C65.7999 53.1 65.6999 53 65.5999 52.9C65.3999 52.8 65.2999 52.8 65.0999 52.8L62.7999 53.4C62.5999 53.5 62.4999 53.6 62.3999 53.7ZM64.8999 53.9L65.2999 55.4L63.8999 55.7L63.4999 54.3L64.8999 53.9ZM62.6999 45.2L64.9999 45.8C65.1999 45.8 65.3999 45.8 65.4999 45.7C65.6999 45.6 65.7999 45.5 65.7999 45.3L66.3999 43C66.4999 42.7 66.2999 42.4 65.9999 42.3L63.6999 41.7C63.4999 41.7 63.2999 41.7 63.1999 41.8C62.9999 41.9 62.8999 42 62.8999 42.2L62.2999 44.5V44.9C62.3999 45.1 62.4999 45.2 62.6999 45.2ZM63.7999 42.9L65.2999 43.3L64.8999 44.7L63.3999 44.4L63.7999 42.9ZM54.2999 40.4C54.3999 40.5 54.4999 40.6 54.6999 40.6C54.7999 40.6 54.9999 40.5 55.0999 40.4L56.7999 38.7C56.8999 38.6 56.9999 38.5 56.9999 38.3C56.9999 38.2 56.8999 38 56.7999 37.9L55.0999 36.2C54.7999 36 54.3999 36 54.1999 36.2L52.4999 37.9C52.3999 38 52.2999 38.1 52.2999 38.3C52.2999 38.4 52.3999 38.6 52.4999 38.7L54.2999 40.4ZM54.6999 37.3L55.6999 38.3L54.6999 39.4L53.5999 38.3L54.6999 37.3ZM54.2999 58.3L52.5999 60C52.4999 60.1 52.3999 60.2 52.3999 60.4C52.3999 60.5 52.4999 60.7 52.5999 60.8L54.2999 62.5C54.3999 62.6 54.4999 62.7 54.6999 62.7C54.7999 62.7 54.9999 62.6 55.0999 62.5L56.7999 60.8C56.8999 60.7 56.9999 60.6 56.9999 60.4C56.9999 60.3 56.8999 60.1 56.7999 60L55.0999 58.3C54.8999 58 54.4999 58 54.2999 58.3ZM55.6999 60.4L54.6999 61.4L53.5999 60.4L54.6999 59.3L55.6999 60.4ZM43.7999 45.8C43.9999 45.9 44.0999 45.9 44.2999 45.9L46.5999 45.3C46.8999 45.3 47.0999 44.9 46.9999 44.6L46.3999 42.3C46.2999 42.1 46.1999 42 46.0999 41.9C45.8999 41.8 45.7999 41.8 45.6999 41.7L43.3999 42.3C43.1999 42.4 43.0999 42.5 42.9999 42.6C42.8999 42.8 42.8999 42.9 42.8999 43.1L43.4999 45.4C43.5999 45.6 43.6999 45.7 43.7999 45.8ZM45.4999 43L45.8999 44.4L44.3999 44.8L43.9999 43.3L45.4999 43ZM46.4999 53.4L44.1999 52.8C43.9999 52.8 43.7999 52.8 43.6999 52.9C43.4999 53 43.3999 53.1 43.3999 53.3L42.7999 55.6C42.7999 55.8 42.7999 56 42.8999 56.1C42.9999 56.3 43.0999 56.4 43.2999 56.4L45.5999 57C45.7999 57 45.9999 57 46.0999 56.9C46.2999 56.8 46.3999 56.7 46.3999 56.5L46.9999 54.2C47.0999 53.9 46.8999 53.5 46.4999 53.4ZM45.4999 55.8L43.9999 55.4L44.3999 54L45.8999 54.4L45.4999 55.8ZM56.7999 60L55.0999 58.3C54.8999 58 54.4999 58 54.2999 58.3L52.5999 60C52.4999 60.1 52.3999 60.2 52.3999 60.4C52.3999 60.5 52.4999 60.7 52.5999 60.8L54.2999 62.5C54.3999 62.6 54.4999 62.7 54.6999 62.7C54.7999 62.7 54.9999 62.6 55.0999 62.5L56.7999 60.8C56.8999 60.7 56.9999 60.6 56.9999 60.4C56.9999 60.3 56.8999 60.1 56.7999 60ZM54.6999 61.4L53.5999 60.4L54.6999 59.3L55.6999 60.4L54.6999 61.4ZM66.4999 55.6L65.8999 53.3C65.7999 53.1 65.6999 53 65.5999 52.9C65.3999 52.8 65.2999 52.8 65.0999 52.8L62.7999 53.4C62.5999 53.5 62.4999 53.6 62.3999 53.7C62.2999 53.8 62.2999 54 62.3999 54.1L62.9999 56.4C63.0999 56.6 63.1999 56.7 63.2999 56.8C63.4999 56.9 63.5999 56.9 63.7999 56.9L66.0999 56.3C66.3999 56.2 66.5999 55.9 66.4999 55.6ZM63.8999 55.7L63.4999 54.3L64.8999 53.9L65.2999 55.4L63.8999 55.7ZM65.9999 42.3L63.6999 41.7C63.4999 41.7 63.2999 41.7 63.1999 41.8C62.9999 41.9 62.8999 42 62.8999 42.2L62.2999 44.5V44.9C62.3999 45.1 62.4999 45.2 62.6999 45.2L64.9999 45.8C65.1999 45.8 65.3999 45.8 65.4999 45.7C65.6999 45.6 65.7999 45.5 65.7999 45.3L66.3999 43C66.4999 42.7 66.2999 42.4 65.9999 42.3ZM64.8999 44.7L63.3999 44.4L63.7999 42.9L65.2999 43.3L64.8999 44.7ZM46.4999 53.4L44.1999 52.8C43.9999 52.8 43.7999 52.8 43.6999 52.9C43.4999 53 43.3999 53.1 43.3999 53.3L42.7999 55.6C42.7999 55.8 42.7999 56 42.8999 56.1C42.9999 56.3 43.0999 56.4 43.2999 56.4L45.5999 57C45.7999 57 45.9999 57 46.0999 56.9C46.2999 56.8 46.3999 56.7 46.3999 56.5L46.9999 54.2C47.0999 53.9 46.8999 53.5 46.4999 53.4ZM45.4999 55.8L43.9999 55.4L44.3999 54L45.8999 54.4L45.4999 55.8ZM46.9999 44.6L46.3999 42.3C46.2999 42.1 46.1999 42 46.0999 41.9C45.8999 41.8 45.7999 41.8 45.6999 41.7L43.3999 42.3C43.1999 42.4 43.0999 42.5 42.9999 42.6C42.8999 42.8 42.8999 42.9 42.8999 43.1L43.4999 45.4C43.5999 45.6 43.6999 45.7 43.7999 45.8C43.9999 45.9 44.0999 45.9 44.2999 45.9L46.5999 45.3C46.8999 45.3 47.0999 44.9 46.9999 44.6ZM44.3999 44.8L43.9999 43.3L45.4999 43L45.8999 44.4L44.3999 44.8ZM66.4999 55.6L65.8999 53.3C65.7999 53.1 65.6999 53 65.5999 52.9C65.3999 52.8 65.2999 52.8 65.0999 52.8L62.7999 53.4C62.5999 53.5 62.4999 53.6 62.3999 53.7C62.2999 53.8 62.2999 54 62.3999 54.1L62.9999 56.4C63.0999 56.6 63.1999 56.7 63.2999 56.8C63.4999 56.9 63.5999 56.9 63.7999 56.9L66.0999 56.3C66.3999 56.2 66.5999 55.9 66.4999 55.6ZM63.8999 55.7L63.4999 54.3L64.8999 53.9L65.2999 55.4L63.8999 55.7ZM65.9999 42.3L63.6999 41.7C63.4999 41.7 63.2999 41.7 63.1999 41.8C62.9999 41.9 62.8999 42 62.8999 42.2L62.2999 44.5V44.9C62.3999 45.1 62.4999 45.2 62.6999 45.2L64.9999 45.8C65.1999 45.8 65.3999 45.8 65.4999 45.7C65.6999 45.6 65.7999 45.5 65.7999 45.3L66.3999 43C66.4999 42.7 66.2999 42.4 65.9999 42.3ZM64.8999 44.7L63.3999 44.4L63.7999 42.9L65.2999 43.3L64.8999 44.7ZM56.7999 60L55.0999 58.3C54.8999 58 54.4999 58 54.2999 58.3L52.5999 60C52.4999 60.1 52.3999 60.2 52.3999 60.4C52.3999 60.5 52.4999 60.7 52.5999 60.8L54.2999 62.5C54.3999 62.6 54.4999 62.7 54.6999 62.7C54.7999 62.7 54.9999 62.6 55.0999 62.5L56.7999 60.8C56.8999 60.7 56.9999 60.6 56.9999 60.4C56.9999 60.3 56.8999 60.1 56.7999 60ZM54.6999 61.4L53.5999 60.4L54.6999 59.3L55.6999 60.4L54.6999 61.4ZM46.9999 44.6L46.3999 42.3C46.2999 42.1 46.1999 42 46.0999 41.9C45.8999 41.8 45.7999 41.8 45.6999 41.7L43.3999 42.3C43.1999 42.4 43.0999 42.5 42.9999 42.6C42.8999 42.8 42.8999 42.9 42.8999 43.1L43.4999 45.4C43.5999 45.6 43.6999 45.7 43.7999 45.8C43.9999 45.9 44.0999 45.9 44.2999 45.9L46.5999 45.3C46.8999 45.3 47.0999 44.9 46.9999 44.6ZM44.3999 44.8L43.9999 43.3L45.4999 43L45.8999 44.4L44.3999 44.8ZM46.4999 53.4L44.1999 52.8C43.9999 52.8 43.7999 52.8 43.6999 52.9C43.4999 53 43.3999 53.1 43.3999 53.3L42.7999 55.6C42.7999 55.8 42.7999 56 42.8999 56.1C42.9999 56.3 43.0999 56.4 43.2999 56.4L45.5999 57C45.7999 57 45.9999 57 46.0999 56.9C46.2999 56.8 46.3999 56.7 46.3999 56.5L46.9999 54.2C47.0999 53.9 46.8999 53.5 46.4999 53.4ZM45.4999 55.8L43.9999 55.4L44.3999 54L45.8999 54.4L45.4999 55.8ZM56.7999 60L55.0999 58.3C54.8999 58 54.4999 58 54.2999 58.3L52.5999 60C52.4999 60.1 52.3999 60.2 52.3999 60.4C52.3999 60.5 52.4999 60.7 52.5999 60.8L54.2999 62.5C54.3999 62.6 54.4999 62.7 54.6999 62.7C54.7999 62.7 54.9999 62.6 55.0999 62.5L56.7999 60.8C56.8999 60.7 56.9999 60.6 56.9999 60.4C56.9999 60.3 56.8999 60.1 56.7999 60ZM54.6999 61.4L53.5999 60.4L54.6999 59.3L55.6999 60.4L54.6999 61.4ZM66.4999 55.6L65.8999 53.3C65.7999 53.1 65.6999 53 65.5999 52.9C65.3999 52.8 65.2999 52.8 65.0999 52.8L62.7999 53.4C62.5999 53.5 62.4999 53.6 62.3999 53.7C62.2999 53.8 62.2999 54 62.3999 54.1L62.9999 56.4C63.0999 56.6 63.1999 56.7 63.2999 56.8C63.4999 56.9 63.5999 56.9 63.7999 56.9L66.0999 56.3C66.3999 56.2 66.5999 55.9 66.4999 55.6ZM63.8999 55.7L63.4999 54.3L64.8999 53.9L65.2999 55.4L63.8999 55.7ZM65.9999 42.3L63.6999 41.7C63.4999 41.7 63.2999 41.7 63.1999 41.8C62.9999 41.9 62.8999 42 62.8999 42.2L62.2999 44.5V44.9C62.3999 45.1 62.4999 45.2 62.6999 45.2L64.9999 45.8C65.1999 45.8 65.3999 45.8 65.4999 45.7C65.6999 45.6 65.7999 45.5 65.7999 45.3L66.3999 43C66.4999 42.7 66.2999 42.4 65.9999 42.3ZM64.8999 44.7L63.3999 44.4L63.7999 42.9L65.2999 43.3L64.8999 44.7ZM46.4999 53.4L44.1999 52.8C43.9999 52.8 43.7999 52.8 43.6999 52.9C43.4999 53 43.3999 53.1 43.3999 53.3L42.7999 55.6C42.7999 55.8 42.7999 56 42.8999 56.1C42.9999 56.3 43.0999 56.4 43.2999 56.4L45.5999 57C45.7999 57 45.9999 57 46.0999 56.9C46.2999 56.8 46.3999 56.7 46.3999 56.5L46.9999 54.2C47.0999 53.9 46.8999 53.5 46.4999 53.4ZM45.4999 55.8L43.9999 55.4L44.3999 54L45.8999 54.4L45.4999 55.8ZM46.9999 44.6L46.3999 42.3C46.2999 42.1 46.1999 42 46.0999 41.9C45.8999 41.8 45.7999 41.8 45.6999 41.7L43.3999 42.3C43.1999 42.4 43.0999 42.5 42.9999 42.6C42.8999 42.8 42.8999 42.9 42.8999 43.1L43.4999 45.4C43.5999 45.6 43.6999 45.7 43.7999 45.8C43.9999 45.9 44.0999 45.9 44.2999 45.9L46.5999 45.3C46.8999 45.3 47.0999 44.9 46.9999 44.6ZM44.3999 44.8L43.9999 43.3L45.4999 43L45.8999 44.4L44.3999 44.8ZM66.4999 55.6L65.8999 53.3C65.7999 53.1 65.6999 53 65.5999 52.9C65.3999 52.8 65.2999 52.8 65.0999 52.8L62.7999 53.4C62.5999 53.5 62.4999 53.6 62.3999 53.7C62.2999 53.8 62.2999 54 62.3999 54.1L62.9999 56.4C63.0999 56.6 63.1999 56.7 63.2999 56.8C63.4999 56.9 63.5999 56.9 63.7999 56.9L66.0999 56.3C66.3999 56.2 66.5999 55.9 66.4999 55.6ZM63.8999 55.7L63.4999 54.3L64.8999 53.9L65.2999 55.4L63.8999 55.7ZM65.9999 42.3L63.6999 41.7C63.4999 41.7 63.2999 41.7 63.1999 41.8C62.9999 41.9 62.8999 42 62.8999 42.2L62.2999 44.5V44.9C62.3999 45.1 62.4999 45.2 62.6999 45.2L64.9999 45.8C65.1999 45.8 65.3999 45.8 65.4999 45.7C65.6999 45.6 65.7999 45.5 65.7999 45.3L66.3999 43C66.4999 42.7 66.2999 42.4 65.9999 42.3ZM64.8999 44.7L63.3999 44.4L63.7999 42.9L65.2999 43.3L64.8999 44.7ZM56.7999 60L55.0999 58.3C54.8999 58 54.4999 58 54.2999 58.3L52.5999 60C52.4999 60.1 52.3999 60.2 52.3999 60.4C52.3999 60.5 52.4999 60.7 52.5999 60.8L54.2999 62.5C54.3999 62.6 54.4999 62.7 54.6999 62.7C54.7999 62.7 54.9999 62.6 55.0999 62.5L56.7999 60.8C56.8999 60.7 56.9999 60.6 56.9999 60.4C56.9999 60.3 56.8999 60.1 56.7999 60ZM54.6999 61.4L53.5999 60.4L54.6999 59.3L55.6999 60.4L54.6999 61.4ZM46.9999 44.6L46.3999 42.3C46.2999 42.1 46.1999 42 46.0999 41.9C45.8999 41.8 45.7999 41.8 45.6999 41.7L43.3999 42.3C43.1999 42.4 43.0999 42.5 42.9999 42.6C42.8999 42.8 42.8999 42.9 42.8999 43.1L43.4999 45.4C43.5999 45.6 43.6999 45.7 43.7999 45.8C43.9999 45.9 44.0999 45.9 44.2999 45.9L46.5999 45.3C46.8999 45.3 47.0999 44.9 46.9999 44.6ZM44.3999 44.8L43.9999 43.3L45.4999 43L45.8999 44.4L44.3999 44.8ZM46.4999 53.4L44.1999 52.8C43.9999 52.8 43.7999 52.8 43.6999 52.9C43.4999 53 43.3999 53.1 43.3999 53.3L42.7999 55.6C42.7999 55.8 42.7999 56 42.8999 56.1C42.9999 56.3 43.0999 56.4 43.2999 56.4L45.5999 57C45.7999 57 45.9999 57 46.0999 56.9C46.2999 56.8 46.3999 56.7 46.3999 56.5L46.9999 54.2C47.0999 53.9 46.8999 53.5 46.4999 53.4ZM45.4999 55.8L43.9999 55.4L44.3999 54L45.8999 54.4L45.4999 55.8ZM56.7999 60L55.0999 58.3C54.8999 58 54.4999 58 54.2999 58.3L52.5999 60C52.4999 60.1 52.3999 60.2 52.3999 60.4C52.3999 60.5 52.4999 60.7 52.5999 60.8L54.2999 62.5C54.3999 62.6 54.4999 62.7 54.6999 62.7C54.7999 62.7 54.9999 62.6 55.0999 62.5L56.7999 60.8C56.8999 60.7 56.9999 60.6 56.9999 60.4C56.9999 60.3 56.8999 60.1 56.7999 60ZM54.6999 61.4L53.5999 60.4L54.6999 59.3L55.6999 60.4L54.6999 61.4ZM66.4999 55.6L65.8999 53.3C65.7999 53.1 65.6999 53 65.5999 52.9C65.3999 52.8 65.2999 52.8 65.0999 52.8L62.7999 53.4C62.5999 53.5 62.4999 53.6 62.3999 53.7C62.2999 53.8 62.2999 54 62.3999 54.1L62.9999 56.4C63.0999 56.6 63.1999 56.7 63.2999 56.8C63.4999 56.9 63.5999 56.9 63.7999 56.9L66.0999 56.3C66.3999 56.2 66.5999 55.9 66.4999 55.6ZM63.8999 55.7L63.4999 54.3L64.8999 53.9L65.2999 55.4L63.8999 55.7ZM46.4999 53.4L44.1999 52.8C43.9999 52.8 43.7999 52.8 43.6999 52.9C43.4999 53 43.3999 53.1 43.3999 53.3L42.7999 55.6C42.7999 55.8 42.7999 56 42.8999 56.1C42.9999 56.3 43.0999 56.4 43.2999 56.4L45.5999 57C45.7999 57 45.9999 57 46.0999 56.9C46.2999 56.8 46.3999 56.7 46.3999 56.5L46.9999 54.2C47.0999 53.9 46.8999 53.5 46.4999 53.4ZM45.4999 55.8L43.9999 55.4L44.3999 54L45.8999 54.4L45.4999 55.8ZM46.9999 44.6L46.3999 42.3C46.2999 42.1 46.1999 42 46.0999 41.9C45.8999 41.8 45.7999 41.8 45.6999 41.7L43.3999 42.3C43.1999 42.4 43.0999 42.5 42.9999 42.6C42.8999 42.8 42.8999 42.9 42.8999 43.1L43.4999 45.4C43.5999 45.6 43.6999 45.7 43.7999 45.8C43.9999 45.9 44.0999 45.9 44.2999 45.9L46.5999 45.3C46.8999 45.3 47.0999 44.9 46.9999 44.6ZM44.3999 44.8L43.9999 43.3L45.4999 43L45.8999 44.4L44.3999 44.8ZM66.4999 55.6L65.8999 53.3C65.7999 53.1 65.6999 53 65.5999 52.9C65.3999 52.8 65.2999 52.8 65.0999 52.8L62.7999 53.4C62.5999 53.5 62.4999 53.6 62.3999 53.7C62.2999 53.8 62.2999 54 62.3999 54.1L62.9999 56.4C63.0999 56.6 63.1999 56.7 63.2999 56.8C63.4999 56.9 63.5999 56.9 63.7999 56.9L66.0999 56.3C66.3999 56.2 66.5999 55.9 66.4999 55.6ZM63.8999 55.7L63.4999 54.3L64.8999 53.9L65.2999 55.4L63.8999 55.7ZM56.7999 60L55.0999 58.3C54.8999 58 54.4999 58 54.2999 58.3L52.5999 60C52.4999 60.1 52.3999 60.2 52.3999 60.4C52.3999 60.5 52.4999 60.7 52.5999 60.8L54.2999 62.5C54.3999 62.6 54.4999 62.7 54.6999 62.7C54.7999 62.7 54.9999 62.6 55.0999 62.5L56.7999 60.8C56.8999 60.7 56.9999 60.6 56.9999 60.4C56.9999 60.3 56.8999 60.1 56.7999 60ZM54.6999 61.4L53.5999 60.4L54.6999 59.3L55.6999 60.4L54.6999 61.4ZM46.9999 44.6L46.3999 42.3C46.2999 42.1 46.1999 42 46.0999 41.9C45.8999 41.8 45.7999 41.8 45.6999 41.7L43.3999 42.3C43.1999 42.4 43.0999 42.5 42.9999 42.6C42.8999 42.8 42.8999 42.9 42.8999 43.1L43.4999 45.4C43.5999 45.6 43.6999 45.7 43.7999 45.8C43.9999 45.9 44.0999 45.9 44.2999 45.9L46.5999 45.3C46.8999 45.3 47.0999 44.9 46.9999 44.6ZM44.3999 44.8L43.9999 43.3L45.4999 43L45.8999 44.4L44.3999 44.8ZM46.4999 53.4L44.1999 52.8C43.9999 52.8 43.7999 52.8 43.6999 52.9C43.4999 53 43.3999 53.1 43.3999 53.3L42.7999 55.6C42.7999 55.8 42.7999 56 42.8999 56.1C42.9999 56.3 43.0999 56.4 43.2999 56.4L45.5999 57C45.7999 57 45.9999 57 46.0999 56.9C46.2999 56.8 46.3999 56.7 46.3999 56.5L46.9999 54.2C47.0999 53.9 46.8999 53.5 46.4999 53.4ZM45.4999 55.8L43.9999 55.4L44.3999 54L45.8999 54.4L45.4999 55.8ZM56.7999 60L55.0999 58.3C54.8999 58 54.4999 58 54.2999 58.3L52.5999 60C52.4999 60.1 52.3999 60.2 52.3999 60.4C52.3999 60.5 52.4999 60.7 52.5999 60.8L54.2999 62.5C54.3999 62.6 54.4999 62.7 54.6999 62.7C54.7999 62.7 54.9999 62.6 55.0999 62.5L56.7999 60.8C56.8999 60.7 56.9999 60.6 56.9999 60.4C56.9999 60.3 56.8999 60.1 56.7999 60ZM54.6999 61.4L53.5999 60.4L54.6999 59.3L55.6999 60.4L54.6999 61.4ZM46.4999 53.4L44.1999 52.8C43.9999 52.8 43.7999 52.8 43.6999 52.9C43.4999 53 43.3999 53.1 43.3999 53.3L42.7999 55.6C42.7999 55.8 42.7999 56 42.8999 56.1C42.9999 56.3 43.0999 56.4 43.2999 56.4L45.5999 57C45.7999 57 45.9999 57 46.0999 56.9C46.2999 56.8 46.3999 56.7 46.3999 56.5L46.9999 54.2C47.0999 53.9 46.8999 53.5 46.4999 53.4ZM45.4999 55.8L43.9999 55.4L44.3999 54L45.8999 54.4L45.4999 55.8ZM46.9999 44.6L46.3999 42.3C46.2999 42.1 46.1999 42 46.0999 41.9C45.8999 41.8 45.7999 41.8 45.6999 41.7L43.3999 42.3C43.1999 42.4 43.0999 42.5 42.9999 42.6C42.8999 42.8 42.8999 42.9 42.8999 43.1L43.4999 45.4C43.5999 45.6 43.6999 45.7 43.7999 45.8C43.9999 45.9 44.0999 45.9 44.2999 45.9L46.5999 45.3C46.8999 45.3 47.0999 44.9 46.9999 44.6ZM44.3999 44.8L43.9999 43.3L45.4999 43L45.8999 44.4L44.3999 44.8ZM56.7999 60L55.0999 58.3C54.8999 58 54.4999 58 54.2999 58.3L52.5999 60C52.4999 60.1 52.3999 60.2 52.3999 60.4C52.3999 60.5 52.4999 60.7 52.5999 60.8L54.2999 62.5C54.3999 62.6 54.4999 62.7 54.6999 62.7C54.7999 62.7 54.9999 62.6 55.0999 62.5L56.7999 60.8C56.8999 60.7 56.9999 60.6 56.9999 60.4C56.9999 60.3 56.8999 60.1 56.7999 60ZM54.6999 61.4L53.5999 60.4L54.6999 59.3L55.6999 60.4L54.6999 61.4ZM46.9999 44.6L46.3999 42.3C46.2999 42.1 46.1999 42 46.0999 41.9C45.8999 41.8 45.7999 41.8 45.6999 41.7L43.3999 42.3C43.1999 42.4 43.0999 42.5 42.9999 42.6C42.8999 42.8 42.8999 42.9 42.8999 43.1L43.4999 45.4C43.5999 45.6 43.6999 45.7 43.7999 45.8C43.9999 45.9 44.0999 45.9 44.2999 45.9L46.5999 45.3C46.8999 45.3 47.0999 44.9 46.9999 44.6ZM44.3999 44.8L43.9999 43.3L45.4999 43L45.8999 44.4L44.3999 44.8ZM46.4999 53.4L44.1999 52.8C43.9999 52.8 43.7999 52.8 43.6999 52.9C43.4999 53 43.3999 53.1 43.3999 53.3L42.7999 55.6C42.7999 55.8 42.7999 56 42.8999 56.1C42.9999 56.3 43.0999 56.4 43.2999 56.4L45.5999 57C45.7999 57 45.9999 57 46.0999 56.9C46.2999 56.8 46.3999 56.7 46.3999 56.5L46.9999 54.2C47.0999 53.9 46.8999 53.5 46.4999 53.4ZM45.4999 55.8L43.9999 55.4L44.3999 54L45.8999 54.4L45.4999 55.8ZM46.4999 53.4L44.1999 52.8C43.9999 52.8 43.7999 52.8 43.6999 52.9C43.4999 53 43.3999 53.1 43.3999 53.3L42.7999 55.6C42.7999 55.8 42.7999 56 42.8999 56.1C42.9999 56.3 43.0999 56.4 43.2999 56.4L45.5999 57C45.7999 57 45.9999 57 46.0999 56.9C46.2999 56.8 46.3999 56.7 46.3999 56.5L46.9999 54.2C47.0999 53.9 46.8999 53.5 46.4999 53.4ZM45.4999 55.8L43.9999 55.4L44.3999 54L45.8999 54.4L45.4999 55.8ZM46.9999 44.6L46.3999 42.3C46.2999 42.1 46.1999 42 46.0999 41.9C45.8999 41.8 45.7999 41.8 45.6999 41.7L43.3999 42.3C43.1999 42.4 43.0999 42.5 42.9999 42.6C42.8999 42.8 42.8999 42.9 42.8999 43.1L43.4999 45.4C43.5999 45.6 43.6999 45.7 43.7999 45.8C43.9999 45.9 44.0999 45.9 44.2999 45.9L46.5999 45.3C46.8999 45.3 47.0999 44.9 46.9999 44.6ZM44.3999 44.8L43.9999 43.3L45.4999 43L45.8999 44.4L44.3999 44.8ZM46.9999 44.6L46.3999 42.3C46.2999 42.1 46.1999 42 46.0999 41.9C45.8999 41.8 45.7999 41.8 45.6999 41.7L43.3999 42.3C43.1999 42.4 43.0999 42.5 42.9999 42.6C42.8999 42.8 42.8999 42.9 42.8999 43.1L43.4999 45.4C43.5999 45.6 43.6999 45.7 43.7999 45.8C43.9999 45.9 44.0999 45.9 44.2999 45.9L46.5999 45.3C46.8999 45.3 47.0999 44.9 46.9999 44.6ZM44.3999 44.8L43.9999 43.3L45.4999 43L45.8999 44.4L44.3999 44.8ZM46.4999 53.4L44.1999 52.8C43.9999 52.8 43.7999 52.8 43.6999 52.9C43.4999 53 43.3999 53.1 43.3999 53.3L42.7999 55.6C42.7999 55.8 42.7999 56 42.8999 56.1C42.9999 56.3 43.0999 56.4 43.2999 56.4L45.5999 57C45.7999 57 45.9999 57 46.0999 56.9C46.2999 56.8 46.3999 56.7 46.3999 56.5L46.9999 54.2C47.0999 53.9 46.8999 53.5 46.4999 53.4ZM45.4999 55.8L43.9999 55.4L44.3999 54L45.8999 54.4L45.4999 55.8ZM46.4999 53.4L44.1999 52.8C43.9999 52.8 43.7999 52.8 43.6999 52.9C43.4999 53 43.3999 53.1 43.3999 53.3L42.7999 55.6C42.7999 55.8 42.7999 56 42.8999 56.1C42.9999 56.3 43.0999 56.4 43.2999 56.4L45.5999 57C45.7999 57 45.9999 57 46.0999 56.9C46.2999 56.8 46.3999 56.7 46.3999 56.5L46.9999 54.2C47.0999 53.9 46.8999 53.5 46.4999 53.4ZM45.4999 55.8L43.9999 55.4L44.3999 54L45.8999 54.4L45.4999 55.8ZM46.9999 44.6L46.3999 42.3C46.2999 42.1 46.1999 42 46.0999 41.9C45.8999 41.8 45.7999 41.8 45.6999 41.7L43.3999 42.3C43.1999 42.4 43.0999 42.5 42.9999 42.6C42.8999 42.8 42.8999 42.9 42.8999 43.1L43.4999 45.4C43.5999 45.6 43.6999 45.7 43.7999 45.8C43.9999 45.9 44.0999 45.9 44.2999 45.9L46.5999 45.3C46.8999 45.3 47.0999 44.9 46.9999 44.6ZM44.3999 44.8L43.9999 43.3L45.4999 43L45.8999 44.4L44.3999 44.8ZM46.9999 44.6L46.3999 42.3C46.2999 42.1 46.1999 42 46.0999 41.9C45.8999 41.8 45.7999 41.8 45.6999 41.7L43.3999 42.3C43.1999 42.4 43.0999 42.5 42.9999 42.6C42.8999 42.8 42.8999 42.9 42.8999 43.1L43.4999 45.4C43.5999 45.6 43.6999 45.7 43.7999 45.8C43.9999 45.9 44.0999 45.9 44.2999 45.9L46.5999 45.3C46.8999 45.3 47.0999 44.9 46.9999 44.6ZM44.3999 44.8L43.9999 43.3L45.4999 43L45.8999 44.4L44.3999 44.8ZM46.4999 53.4L44.1999 52.8C43.9999 52.8 43.7999 52.8 43.6999 52.9C43.4999 53 43.3999 53.1 43.3999 53.3L42.7999 55.6C42.7999 55.8 42.7999 56 42.8999 56.1C42.9999 56.3 43.0999 56.4 43.2999 56.4L45.5999 57C45.7999 57 45.9999 57 46.0999 56.9C46.2999 56.8 46.3999 56.7 46.3999 56.5L46.9999 54.2C47.0999 53.9 46.8999 53.5 46.4999 53.4ZM45.4999 55.8L43.9999 55.4L44.3999 54L45.8999 54.4L45.4999 55.8ZM46.9999 44.6L46.3999 42.3C46.2999 42.1 46.1999 42 46.0999 41.9C45.8999 41.8 45.7999 41.8 45.6999 41.7L43.3999 42.3C43.1999 42.4 43.0999 42.5 42.9999 42.6C42.8999 42.8 42.8999 42.9 42.8999 43.1L43.4999 45.4C43.5999 45.6 43.6999 45.7 43.7999 45.8C43.9999 45.9 44.0999 45.9 44.2999 45.9L46.5999 45.3C46.8999 45.3 47.0999 44.9 46.9999 44.6ZM44.3999 44.8L43.9999 43.3L45.4999 43L45.8999 44.4L44.3999 44.8ZM46.9999 44.6L46.3999 42.3C46.2999 42.1 46.1999 42 46.0999 41.9C45.8999 41.8 45.7999 41.8 45.6999 41.7L43.3999 42.3C43.1999 42.4 43.0999 42.5 42.9999 42.6C42.8999 42.8 42.8999 42.9 42.8999 43.1L43.4999 45.4C43.5999 45.6 43.6999 45.7 43.7999 45.8C43.9999 45.9 44.0999 45.9 44.2999 45.9L46.5999 45.3C46.8999 45.3 47.0999 44.9 46.9999 44.6ZM44.3999 44.8L43.9999 43.3L45.4999 43L45.8999 44.4L44.3999 44.8Z" fill="#404041"/>
</svg>
