<svg width="21" height="19" viewBox="0 0 21 19" fill="none" xmlns="http://www.w3.org/2000/svg">
<g clip-path="url(#clip0_468_2)">
<mask id="mask0_468_2" style="mask-type:luminance" maskUnits="userSpaceOnUse" x="0" y="0" width="21" height="19">
<path d="M20.5 0.5H0.5V18.5H20.5V0.5Z" fill="white"/>
</mask>
<g mask="url(#mask0_468_2)">
<mask id="mask1_468_2" style="mask-type:luminance" maskUnits="userSpaceOnUse" x="0" y="0" width="21" height="19">
<path d="M20.5 0.5H0.5V18.5H20.5V0.5Z" fill="white"/>
</mask>
<g mask="url(#mask1_468_2)">
<path d="M7.90499 12.5143C8.02655 12.5218 8.1524 12.5382 8.27825 12.5382C11.0326 12.5382 13.7885 12.5307 16.5428 12.5471C16.8846 12.5486 17.0176 12.4159 17.1063 12.1073C17.6168 10.3483 18.136 8.59232 18.6551 6.83481C18.7052 6.66487 18.7581 6.49493 18.8281 6.33245C19.2028 5.4604 19.6948 5.5394 20.3526 6.0671C20.4856 6.17294 20.5328 6.54114 20.4728 6.7394C19.802 8.94263 19.097 11.1354 18.4106 13.3342C18.1917 14.0333 17.9358 14.2539 17.2364 14.2539C13.9672 14.2554 10.6994 14.2569 7.4302 14.2539C6.69513 14.2539 6.36763 13.9468 6.24035 13.2C5.68404 9.92797 5.12058 6.65742 4.57285 3.38537C4.52709 3.11555 4.40124 3.01419 4.17671 2.95903C3.30435 2.74437 2.43199 2.52524 1.56105 2.30611C1.40946 2.26735 1.25358 2.23605 1.10628 2.18238C0.620043 2.0035 0.404097 1.58313 0.539957 1.09866C0.665806 0.645492 1.06337 0.42338 1.55962 0.551578C2.33331 0.75133 3.10413 0.964498 3.87496 1.17319C4.31543 1.29245 4.7559 1.41468 5.19638 1.53245C5.65973 1.65617 5.90428 1.95282 5.99723 2.45369C6.60789 5.76002 7.23427 9.06189 7.8578 12.3652C7.86638 12.4085 7.88497 12.4487 7.90642 12.5128L7.90499 12.5143Z" fill="#8C8E91"/>
<path d="M12.7645 5.5758C12.0451 6.33307 11.3458 7.07394 10.6422 7.80884C10.4448 8.01605 10.216 8.33207 9.92569 8.10996C9.60964 7.86847 9.35365 7.52114 9.1377 7.1753C9.08479 7.09033 9.24782 6.79369 9.37367 6.65953C10.0916 5.8963 10.8281 5.15394 11.6604 4.29829C11.1914 3.85108 10.7494 3.43965 10.3175 3.0163C10.0787 2.78226 9.86706 2.51841 9.62394 2.29033C8.83595 1.54499 9.019 1.36611 9.81414 0.617783C10.0644 0.382255 10.3175 0.537286 10.5278 0.756417C11.1713 1.43021 11.8163 2.10251 12.4613 2.77332C12.56 2.87617 12.6658 2.97456 12.7974 3.10425C13.5138 2.34847 14.2117 1.6076 14.9168 0.871199C15.3901 0.377783 15.5331 0.380764 16.0065 0.866727C16.6086 1.48387 16.6086 1.59866 15.9965 2.23071C15.3286 2.92089 14.6579 3.6081 13.92 4.36686C14.6336 5.08686 15.3215 5.77256 16.0008 6.46573C16.61 7.08585 16.4556 7.83418 15.6275 8.10548C15.4473 8.16511 15.1327 8.01903 14.974 7.864C14.2289 7.13207 13.5167 6.36437 12.7616 5.57729L12.7645 5.5758Z" fill="#8C8E91"/>
<path d="M10.1739 16.8461C10.171 17.7718 9.48742 18.4978 8.61506 18.5008C7.75271 18.5037 7.04194 17.7599 7.03908 16.8506C7.03479 15.9234 7.76558 15.1571 8.63651 15.1721C9.51602 15.1885 10.1767 15.907 10.1739 16.8461Z" fill="#8C8E91"/>
<path d="M16.0433 18.5007C15.1853 18.4978 14.4702 17.745 14.4688 16.8416C14.4673 15.9442 15.1838 15.1825 16.0376 15.172C16.9114 15.1616 17.6407 15.9338 17.6264 16.8565C17.6136 17.7718 16.9085 18.5022 16.0433 18.4993V18.5007Z" fill="#8C8E91"/>
</g>
</g>
</g>
<defs>
<clipPath id="clip0_468_2">
<rect width="20" height="18" fill="white" transform="translate(0.5 0.5)"/>
</clipPath>
</defs>
</svg>
