<svg xmlns="http://www.w3.org/2000/svg" width="16.271" height="18.8" viewBox="0 0 16.271 18.8">
  <path id="Path_688" data-name="Path 688" d="M2479.674,3365.033l-1.429-13.607a.56.56,0,0,0-.556-.5H2475v-.612a3.461,3.461,0,1,0-6.922,0v.612H2465.4a.56.56,0,0,0-.557.5l-1.429,13.607a.56.56,0,0,0,.556.618h15.153a.56.56,0,0,0,.556-.618Zm-10.475-14.72a2.343,2.343,0,0,1,4.685,0v.612H2469.2Zm-4.613,14.219,1.312-12.488h2.182v1.234a.559.559,0,0,0,1.119,0v-1.234h4.685v1.234a.559.559,0,0,0,1.118,0v-1.234h2.183l1.312,12.488Z" transform="translate(-2463.406 -3346.851)" fill="#8C8E91"/>
</svg>
