<svg width="46" height="40" viewBox="0 0 46 40" fill="none" xmlns="http://www.w3.org/2000/svg">
<g clip-path="url(#clip0_124_238)">
<path d="M45.1824 4.31078C44.8902 3.92967 44.532 3.61593 44.1285 3.38766C43.7251 3.15939 43.2843 3.02112 42.8319 2.98089L10.4386 0.0131425C9.52674 -0.0707296 8.62177 0.245583 7.92217 0.892719C7.22258 1.53985 6.7855 2.46488 6.70675 3.4651L6.0548 10.1732H3.45292C2.53689 10.1742 1.65865 10.5738 1.01087 11.2844C0.363086 11.995 -0.00133003 12.9585 -0.00244141 13.9635V36.2104C-0.00133033 37.2154 0.363066 38.1789 1.01083 38.8896C1.6586 39.6003 2.53684 40.0001 3.45292 40.0013H35.9613C36.8774 40.0001 37.7557 39.6003 38.4034 38.8896C39.0512 38.1789 39.4156 37.2154 39.4167 36.2104V32.6016L40.5695 32.7069C40.6672 32.7161 40.7638 32.7207 40.8598 32.7207C41.7257 32.7187 42.5594 32.3607 43.1965 31.7172C43.8335 31.0738 44.2275 30.1916 44.3008 29.245L45.9879 7.07578C46.0269 6.57955 45.9758 6.07972 45.8376 5.60532C45.6993 5.13092 45.4766 4.69141 45.1824 4.31206V4.31078ZM3.4553 12.1413H35.9637C36.4034 12.1417 36.8249 12.3334 37.1358 12.6744C37.4468 13.0154 37.6217 13.4779 37.6221 13.9602V15.9869H1.79692V13.9602C1.79787 13.4783 1.97297 13.0162 2.28384 12.6757C2.59472 12.3351 3.01597 12.1436 3.4553 12.1433V12.1413ZM1.79692 17.9584H37.6197V22.048H1.79692V17.9584ZM35.9613 38.0285H3.45292C3.01328 38.0282 2.59173 37.8365 2.2808 37.4955C1.96988 37.1545 1.79498 36.6919 1.7945 36.2096V24.0221H37.6197V36.2096C37.6191 36.6918 37.4441 37.1541 37.1332 37.495C36.8223 37.8358 36.4009 38.0282 35.9613 38.0285ZM44.197 6.91063L42.5098 29.0804C42.4728 29.5611 42.2635 30.0061 41.9279 30.3176C41.5922 30.6291 41.1576 30.7818 40.7194 30.7421L39.4167 30.6229V13.9628C39.4156 12.9578 39.0512 11.9943 38.4034 11.2838C37.7556 10.5732 36.8774 10.1736 35.9613 10.1725H7.86433L8.49652 3.66254V3.64021C8.53347 3.15962 8.74279 2.71475 9.07848 2.40334C9.41416 2.09193 9.84877 1.93948 10.2869 1.97938L42.6801 4.94712C42.8971 4.96678 43.1085 5.03312 43.3021 5.14248C43.4957 5.25183 43.6678 5.40206 43.8084 5.58443C43.9491 5.76681 44.0556 5.97779 44.1219 6.20536C44.1881 6.43293 44.2128 6.67256 44.1946 6.91063H44.197Z" fill="#D57C67"/>
<path d="M33.8591 26.9519H25.2132C24.9745 26.9519 24.7457 27.0558 24.577 27.2409C24.4083 27.426 24.3135 27.6772 24.3135 27.939V34.1297C24.3135 34.3915 24.4083 34.6425 24.577 34.8276C24.7457 35.0127 24.9745 35.1168 25.2132 35.1168H33.8591C34.0977 35.1168 34.3265 35.0127 34.4953 34.8276C34.664 34.6425 34.7588 34.3915 34.7588 34.1297V27.9402C34.7589 27.8105 34.7358 27.682 34.6906 27.5621C34.6455 27.4422 34.5792 27.3332 34.4957 27.2414C34.4121 27.1496 34.3129 27.0768 34.2037 27.0271C34.0944 26.9774 33.9773 26.9519 33.8591 26.9519ZM32.9594 33.1414H26.1098V28.9233H32.9594V33.1414Z" fill="#D57C67"/>
</g>
<defs>
<clipPath id="clip0_124_238">
<rect width="46" height="40" fill="white"/>
</clipPath>
</defs>
</svg>
