<svg width="46" height="40" viewBox="0 0 46 40" fill="none" xmlns="http://www.w3.org/2000/svg">
<g clip-path="url(#clip0_191_33)">
<path d="M45.1824 4.31075C44.8902 3.92965 44.532 3.61591 44.1285 3.38764C43.7251 3.15937 43.2843 3.0211 42.8319 2.98087L10.4386 0.0131196C9.52674 -0.0707525 8.62177 0.24556 7.92217 0.892696C7.22258 1.53983 6.7855 2.46486 6.70675 3.46507L6.0548 10.1731H3.45292C2.53689 10.1742 1.65865 10.5738 1.01087 11.2844C0.363086 11.995 -0.00133003 12.9585 -0.00244141 13.9634V36.2104C-0.00133033 37.2154 0.363066 38.1789 1.01083 38.8896C1.6586 39.6003 2.53684 40.0001 3.45292 40.0013H35.9613C36.8774 40.0001 37.7557 39.6003 38.4034 38.8896C39.0512 38.1789 39.4156 37.2154 39.4167 36.2104V32.6016L40.5695 32.7068C40.6672 32.7161 40.7638 32.7207 40.8598 32.7207C41.7257 32.7186 42.5594 32.3607 43.1965 31.7172C43.8335 31.0738 44.2275 30.1915 44.3008 29.2449L45.9879 7.07575C46.0269 6.57953 45.9758 6.0797 45.8376 5.6053C45.6993 5.13089 45.4766 4.69138 45.1824 4.31204V4.31075ZM3.4553 12.1413H35.9637C36.4034 12.1417 36.8249 12.3334 37.1358 12.6744C37.4468 13.0154 37.6217 13.4779 37.6221 13.9602V15.9869H1.79692V13.9602C1.79787 13.4782 1.97297 13.0162 2.28384 12.6756C2.59472 12.3351 3.01597 12.1436 3.4553 12.1432V12.1413ZM1.79692 17.9584H37.6197V22.048H1.79692V17.9584ZM35.9613 38.0285H3.45292C3.01328 38.0281 2.59173 37.8364 2.2808 37.4954C1.96988 37.1544 1.79498 36.6919 1.7945 36.2096V24.0221H37.6197V36.2096C37.6191 36.6918 37.4441 37.1541 37.1332 37.4949C36.8223 37.8358 36.4009 38.0281 35.9613 38.0285ZM44.197 6.9106L42.5098 29.0804C42.4728 29.5611 42.2635 30.0061 41.9279 30.3176C41.5922 30.6291 41.1576 30.7818 40.7194 30.7421L39.4167 30.6229V13.9628C39.4156 12.9578 39.0512 11.9943 38.4034 11.2837C37.7556 10.5732 36.8774 10.1735 35.9613 10.1725H7.86433L8.49652 3.66252V3.64019C8.53347 3.15959 8.74279 2.71473 9.07848 2.40332C9.41416 2.09191 9.84877 1.93946 10.2869 1.97935L42.6801 4.9471C42.8971 4.96676 43.1085 5.0331 43.3021 5.14245C43.4957 5.25181 43.6678 5.40204 43.8084 5.58441C43.9491 5.76678 44.0556 5.97776 44.1219 6.20534C44.1881 6.43291 44.2128 6.67254 44.1946 6.9106H44.197Z" fill="#7CBDA8"/>
<path d="M33.8591 26.9518H25.2132C24.9745 26.9518 24.7457 27.0557 24.577 27.2408C24.4083 27.4259 24.3135 27.6771 24.3135 27.9389V34.1296C24.3135 34.3914 24.4083 34.6424 24.577 34.8275C24.7457 35.0126 24.9745 35.1167 25.2132 35.1167H33.8591C34.0977 35.1167 34.3265 35.0126 34.4953 34.8275C34.664 34.6424 34.7588 34.3914 34.7588 34.1296V27.9402C34.7589 27.8104 34.7358 27.6819 34.6906 27.562C34.6455 27.4421 34.5792 27.3331 34.4957 27.2413C34.4121 27.1495 34.3129 27.0767 34.2037 27.027C34.0944 26.9773 33.9773 26.9518 33.8591 26.9518ZM32.9594 33.1413H26.1098V28.9232H32.9594V33.1413Z" fill="#7CBDA8"/>
</g>
<defs>
<clipPath id="clip0_191_33">
<rect width="46" height="40" fill="white"/>
</clipPath>
</defs>
</svg>
