<svg width="131" height="71" viewBox="0 0 131 71" fill="none" xmlns="http://www.w3.org/2000/svg">
<path d="M97.3004 6.09999C97.6004 5.69999 98.4004 5.69999 98.8004 6.09999C99.0004 6.29999 99.1004 6.59999 99.1004 6.89999C99.1004 7.19999 99.0004 7.39999 98.8004 7.69999H98.7004C98.5004 7.89999 98.2004 7.99999 97.9004 7.99999C97.6004 7.99999 97.4004 7.89999 97.1004 7.69999C97.0004 7.39999 96.9004 7.09999 96.9004 6.79999C96.9004 6.49999 97.0004 6.19999 97.3004 6.09999Z" fill="#404041"/>
<path d="M98 8.89997C98.3 8.89997 98.5 9.09997 98.7 9.39997C98.9 9.59997 98.9 9.89997 98.9 10.2C98.8 10.7 98.4 11.1 97.9 11.1H97.8C97.5 11.1 97.2 10.9 97 10.7C96.8 10.5 96.7 10.2 96.8 9.89997C96.7 9.19997 97.3 8.79997 98 8.89997Z" fill="#404041"/>
<path d="M95.9001 12.6C96.1001 12.1 96.7001 11.7 97.3001 12C97.6001 12.1 97.8001 12.2 97.9001 12.5C98.0001 12.8 98.1001 13.1 98.0001 13.3C97.8001 13.8 97.4001 14 96.9001 14C96.8001 14 96.7001 14 96.6001 14C96.0001 13.8 95.7001 13.2 95.9001 12.6Z" fill="#404041"/>
<path d="M94.7 15.4C95 14.9 95.7 14.7 96.2 15C96.5 15.1 96.6 15.4 96.7 15.6C96.8 15.9 96.7 16.2 96.6 16.4C96.4 16.7 96.1 17 95.6 17C95.4 17 95.2 17 95.1 16.9C94.8 16.8 94.6 16.5 94.5 16.2C94.6 15.9 94.6 15.6 94.7 15.4Z" fill="#404041"/>
<path d="M93.1004 17.9C93.4004 17.4 94.2004 17.3 94.6004 17.6C94.8004 17.8 95.0004 18 95.1004 18.3C95.2004 18.6 95.1004 18.9 94.9004 19.1C94.7004 19.4 94.4004 19.5 94.0004 19.5C93.8004 19.5 93.6004 19.4 93.4004 19.3C92.9004 19 92.8004 18.4 93.1004 17.9Z" fill="#404041"/>
<path d="M91.2004 20.2C91.6004 19.8 92.4004 19.7 92.8004 20.2C93.2004 20.6 93.2004 21.3 92.8004 21.7C92.6004 21.9 92.3004 22 92.0004 22C91.7004 22 91.4004 21.9 91.2004 21.7C91.1004 21.6 90.9004 21.3 90.9004 21C90.9004 20.7 91.0004 20.4 91.2004 20.2Z" fill="#404041"/>
<path d="M89 22.3C89.5 21.9 90.2 22 90.6 22.4C91 22.9 90.9 23.5 90.5 23.9C90.3 24.1 90 24.2 89.8 24.2C89.5 24.2 89.2 24.1 89 23.8C88.5 23.4 88.5 22.7 89 22.3Z" fill="#404041"/>
<path d="M81.2002 27C81.3002 26.9 81.5002 26.9 81.6002 26.9C82.0002 26.9 82.4002 27.2 82.6002 27.6C82.7002 27.8 82.7002 28.1 82.6002 28.4C82.5002 28.7 82.3002 28.9 82.0002 29H81.9002C81.8002 29 81.7002 29.1 81.5002 29.1C81.1002 29.1 80.7002 28.9 80.5002 28.5C80.3002 27.9 80.6002 27.2 81.2002 27Z" fill="#404041"/>
<path d="M78.2001 28.1C78.3001 28.1 78.4001 28 78.5001 28C79.0001 28 79.5001 28.3 79.6001 28.7C79.8001 29.3 79.5001 29.9 78.9001 30.1C78.7001 30.1 78.6001 30.1 78.5001 30.1C78.0001 30.1 77.6001 29.8 77.5001 29.4C77.4001 28.9 77.7001 28.3 78.2001 28.1Z" fill="#404041"/>
<path d="M74.6003 29.4C74.8003 29.2 75.0003 29 75.3003 28.9C75.4003 28.9 75.5003 28.9 75.5003 28.9C76.0003 28.9 76.5003 29.2 76.6003 29.7C76.7003 30.3 76.4003 30.9 75.8003 31H75.6003C75.1003 31 74.7003 30.7 74.5003 30.2C74.4003 29.9 74.4003 29.6 74.6003 29.4Z" fill="#404041"/>
<path d="M72.2 29.5C72.3 29.5 72.3 29.5 72.4 29.5C72.9 29.5 73.4 29.9 73.5 30.4C73.6 31 73.2 31.5 72.6 31.6C72.6 31.6 72.5 31.6 72.4 31.6C71.9 31.6 71.4 31.2 71.3 30.7C71.2 30.2 71.6 29.6 72.2 29.5Z" fill="#404041"/>
<path d="M68.4001 30.2C68.6001 30 68.9001 29.9 69.1001 29.8H69.2001C69.8001 29.8 70.3001 30.2 70.3001 30.8C70.3001 31.4 69.9001 31.9 69.3001 32H69.2001C68.6001 32 68.1001 31.6 68.1001 31C68.1001 30.7 68.2001 30.4 68.4001 30.2Z" fill="#404041"/>
<path d="M62.9004 29.9C63.3004 29.9 63.5004 30.1 63.7004 30.3C63.9004 30.5 64.0004 30.8 64.0004 31.1C63.9004 31.7 63.5004 32.1 62.9004 32.1H62.8004C62.2004 32.1 61.7004 31.5 61.8004 30.9C61.8004 30.3 62.3004 29.9 62.9004 29.9Z" fill="#404041"/>
<path d="M59.9002 29.5C60.5002 29.6 60.9002 30.1 60.8002 30.8C60.7002 31.3 60.2002 31.7 59.7002 31.7H59.6002C59.0002 31.6 58.5002 31 58.6002 30.5C58.7002 29.8 59.2002 29.4 59.9002 29.5Z" fill="#404041"/>
<path d="M55.5001 29.7C55.6001 29.1 56.3001 28.7 56.8001 28.9C57.4001 29 57.8001 29.6 57.6001 30.2C57.5001 30.7 57.0001 31 56.5001 31C56.4001 31 56.3001 31 56.2001 30.9C55.7001 30.9 55.4001 30.3 55.5001 29.7Z" fill="#404041"/>
<path d="M52.5003 28.8C52.7003 28.3 53.3003 27.9 53.9003 28.1C54.2003 28.2 54.4003 28.4 54.5003 28.6C54.6003 28.9 54.7003 29.2 54.6003 29.5C54.5003 29.9 54.0003 30.2 53.5003 30.2C53.4003 30.2 53.3003 30.2 53.1003 30.1C52.8003 30 52.6003 29.8 52.5003 29.5C52.4003 29.3 52.4003 29.1 52.5003 28.8Z" fill="#404041"/>
<path d="M49.5003 27.6C49.8003 27 50.4003 26.8 51.0003 27C51.3003 27.1 51.5003 27.3 51.6003 27.6C51.7003 27.9 51.7003 28.2 51.6003 28.4C51.4003 28.8 51.0003 29.1 50.6003 29.1C50.5003 29.1 50.4003 29.1 50.2003 29H50.1003C49.5003 28.8 49.3003 28.2 49.5003 27.6Z" fill="#404041"/>
<path d="M40.9004 20.4C41.3004 20.9 41.1004 21.6 40.7004 21.9C40.5004 22 40.2004 22.1 40.0004 22.1C39.6004 22.1 39.3004 21.9 39.1004 21.6C39.0004 21.4 38.9004 21.1 38.9004 20.8C38.9004 20.5 39.1004 20.3 39.3004 20.1C39.8004 19.8 40.6004 19.9 40.9004 20.4Z" fill="#404041"/>
<path d="M38.9004 18C39.3004 18.5 39.2004 19.2 38.7004 19.5C38.5004 19.7 38.3004 19.7 38.0004 19.7C37.6004 19.7 37.3004 19.5 37.1004 19.2C37.0004 19 36.9004 18.7 36.9004 18.4C36.9004 18.1 37.1004 17.9 37.3004 17.7C37.8004 17.4 38.5004 17.5 38.9004 18Z" fill="#404041"/>
<path d="M37.3001 15.5C37.4001 15.7 37.5001 16 37.4001 16.3C37.3001 16.6 37.1001 16.8 36.8001 16.9C36.7001 17 36.5001 17 36.3001 17C35.9001 17 35.6001 16.8 35.3001 16.5C35.0001 16 35.2001 15.3 35.7001 15C36.4001 14.7 37.0001 15 37.3001 15.5Z" fill="#404041"/>
<path d="M36.1004 12.7C36.2004 13 36.2004 13.2 36.1004 13.5C36.0004 13.8 35.8004 14 35.5004 14.1C35.3004 14.1 35.2004 14.1 35.1004 14.1C34.6004 14.1 34.2004 13.8 34.1004 13.4C34.0004 13.2 34.0004 12.9 34.1004 12.6C34.2004 12.3 34.4004 12.1 34.7004 12C34.8004 12 34.9004 11.9 35.0004 11.9C35.5004 12 35.9004 12.3 36.1004 12.7Z" fill="#404041"/>
<path d="M35.1003 10.7C34.9003 10.9 34.7003 11.1 34.4003 11.1C34.3003 11.1 34.2003 11.1 34.2003 11.1C33.7003 11.1 33.2003 10.7 33.1003 10.2C33.0003 9.59996 33.4003 8.99996 34.0003 8.89996C34.7003 8.79996 35.2003 9.19996 35.3003 9.79996C35.4003 10.2 35.3003 10.5 35.1003 10.7Z" fill="#404041"/>
<path d="M33.2004 6.09999C33.6004 5.69999 34.3004 5.69999 34.8004 6.09999C35.0004 6.29999 35.1004 6.59999 35.1004 6.89999C35.1004 7.19999 35.0004 7.39999 34.8004 7.69999C34.5004 7.89999 34.3004 7.99999 34.0004 7.99999C33.7004 7.99999 33.4004 7.89999 33.2004 7.69999C33.0004 7.39999 32.9004 7.09999 32.9004 6.79999C32.9004 6.59999 33.0004 6.29999 33.2004 6.09999Z" fill="#404041"/>
<path d="M40.7 38.5C40.6 37.2 39.7 36.4 38.4 36.4C37.8 36.4 37.2 36.6 36.7 36.9C36.2 36.6 35.6 36.4 35 36.4C33.8 36.4 32.8 37.2 32.7 38.5C32.4 41.3 36.2 43.3 36.4 43.4L36.7 43.5L37 43.4C37.2 43.5 41 41.4 40.7 38.5ZM36.8 42.2C35.8 41.6 33.8 40.1 34 38.6C34 37.8 34.6 37.6 35.1 37.6C35.5 37.6 36 37.8 36.3 38.1L36.7 38.5L37.1 38.1C37.5 37.8 37.9 37.6 38.4 37.6C38.8 37.6 39.4 37.8 39.6 38.6C39.8 40.2 37.8 41.7 36.8 42.2Z" fill="#404041"/>
<path d="M39.1002 34.7C38.6002 34.7 38.0002 34.8 37.5002 35V34.3C37.5002 33.9 37.2002 33.7 36.9002 33.7C36.6002 33.7 36.3002 34 36.3002 34.3V35C35.8002 34.8 35.2002 34.7 34.7002 34.7C32.5002 34.7 31.0002 36 30.8002 38.1C30.3002 42.3 35.8002 45.2 36.0002 45.3L36.7002 45.7L37.5002 45.3C37.7002 45.2 43.1002 42.3 43.0002 38.1C42.7002 36 41.2002 34.7 39.1002 34.7ZM36.8002 44.4L36.6002 44.5L36.4002 44.4C36.2002 44.3 31.4002 41.7 31.7002 38.3C31.8002 36.8 32.9002 35.8 34.4002 35.8C35.1002 35.8 35.7002 36 36.3002 36.3L36.6002 36.5L36.9002 36.3C37.5002 36 38.2002 35.8 38.8002 35.8C40.4002 35.8 41.4002 36.7 41.5002 38.3C41.8002 41.7 37.0002 44.2 36.8002 44.4Z" fill="#404041"/>
<path d="M43.2001 23.9C43.0001 24.2 42.7001 24.3 42.4001 24.3C42.1001 24.3 41.9001 24.2 41.7001 24C41.2001 23.6 41.2001 23 41.6001 22.5C41.9001 22.1 42.7001 22 43.2001 22.4C43.4001 22.6 43.5001 22.8 43.6001 23.1C43.5001 23.4 43.4001 23.7 43.2001 23.9Z" fill="#404041"/>
<path d="M45.8003 25.6C45.6003 25.9 45.3003 26.1 44.9003 26.1C44.6003 26.1 44.4003 26 44.3003 25.9C43.8003 25.6 43.7003 24.9 44.0003 24.4C44.4003 23.9 45.1003 23.8 45.6003 24.1C45.8003 24.2 46.0003 24.4 46.0003 24.7C46.0003 25.1 46.0003 25.4 45.8003 25.6Z" fill="#404041"/>
<path d="M47.7002 27.8C47.5002 27.8 47.3002 27.8 47.2002 27.7C46.7002 27.4 46.5002 26.8 46.7002 26.2C47.0002 25.7 47.7002 25.5 48.2002 25.7C48.5002 25.8 48.7002 26 48.8002 26.3C48.9002 26.6 48.9002 26.9 48.7002 27.2C48.4002 27.5 48.0002 27.8 47.7002 27.8Z" fill="#404041"/>
<path d="M80.2001 43.5C79.6001 38.4 75.9001 36.6 72.5001 36.6C70.2001 36.6 67.8001 37.4 66.0001 38.8C64.2001 37.4 61.7001 36.6 59.4001 36.6C56.1001 36.6 52.3001 38.4 51.8001 43.5C50.7001 53.5 65.0001 61 65.6001 61.4L66.0001 61.6L66.4001 61.4C67.0001 61 81.3001 53.5 80.2001 43.5ZM66.0001 59.9C63.8001 58.7 52.4001 51.9 53.3001 43.6C53.9001 38.6 57.8001 38.1 59.5001 38.1C61.7001 38.1 64.0001 38.9 65.6001 40.3L66.1001 40.7L66.6001 40.3C68.1001 39 70.4001 38.1 72.6001 38.1C74.2001 38.1 78.2001 38.7 78.7001 43.6C79.6001 51.9 68.2001 58.7 66.0001 59.9Z" fill="#404041"/>
<path d="M83.4 43.2C82.8 37.3 78.5 33.5 72.5 33.5C70.5 33.5 68.5 34 66.7 34.8V31.2C66.7 30.8 66.3 30.4 65.9 30.4C65.5 30.4 65.1 30.8 65.1 31.2V34.8C63.3 34 61.3 33.5 59.4 33.5C53.4 33.5 49.1 37.3 48.5 43.2C47.2 55.4 63.4 63.9 64.1 64.3L66 65.3L67.9 64.3C68.6 63.9 84.7 55.4 83.4 43.2ZM67.1 62.9L66 63.5L64.9 62.9C64.2 62.5 49 54.5 50.1 43.3C50.6 38.3 54.3 35 59.4 35C61.5 35 63.7 35.6 65.6 36.6L66 36.8L66.4 36.6C68.3 35.6 70.5 35 72.6 35C77.7 35 81.3 38.3 81.8 43.4C83 54.5 67.7 62.5 67.1 62.9Z" fill="#404041"/>
<path d="M85.0003 27.6C84.8003 27.7 84.6003 27.7 84.5003 27.7C84.1003 27.7 83.7003 27.5 83.5003 27.1C83.2003 26.5 83.4003 25.9 83.9003 25.7C84.0003 25.6 84.2003 25.6 84.4003 25.6C84.8003 25.6 85.2003 25.8 85.4003 26.2C85.7003 26.7 85.5003 27.3 85.0003 27.6Z" fill="#404041"/>
<path d="M87.2001 26.1C86.8001 26.1 86.5001 25.9 86.3001 25.6C86.0001 25.1 86.1001 24.4 86.6001 24.1C87.1001 23.8 87.8001 23.9 88.2001 24.4C88.4001 24.6 88.4001 24.9 88.4001 25.2C88.3001 25.5 88.2001 25.8 87.9001 25.9C87.6001 26 87.4001 26.1 87.2001 26.1Z" fill="#404041"/>
<path d="M98.1004 38.5C98.0004 37.2 97.1004 36.4 95.8004 36.4C95.2004 36.4 94.6004 36.6 94.1004 36.9C93.6004 36.6 93.0004 36.4 92.4004 36.4C91.1004 36.4 90.2004 37.2 90.1004 38.5C89.8004 41.3 93.6004 43.3 93.8004 43.4L94.1004 43.5L94.4004 43.4C94.5004 43.5 98.4004 41.4 98.1004 38.5ZM94.0004 42.2C93.0004 41.6 91.0004 40.1 91.2004 38.6C91.3004 37.8 91.9004 37.6 92.4004 37.6C92.9004 37.6 93.4004 37.8 93.7004 38.1L94.1004 38.5L94.5004 38.1C94.9004 37.8 95.3004 37.6 95.8004 37.6C96.2004 37.6 96.8004 37.8 96.8004 38.6C97.0004 40.2 95.0004 41.7 94.0004 42.2Z" fill="#404041"/>
<path d="M96.4 34.7C95.9 34.7 95.3 34.8 94.8 35V34.3C94.8 33.9 94.5 33.7 94.2 33.7C93.9 33.7 93.6 34 93.6 34.3V35C93.1 34.8 92.5 34.7 92 34.7C89.8 34.7 88.3 36 88.1 38.1C87.6 42.3 93.1 45.2 93.3 45.3L94.1 45.7L94.8 45.3C95.4 45 100.5 42.2 100.3 38.1C100 36 98.5 34.7 96.4 34.7ZM94.2 44.4L94 44.5L93.8 44.4C93.6 44.3 88.8 41.7 89.1 38.3C89.2 36.7 90.3 35.8 91.8 35.8C92.5 35.8 93.1 36 93.7 36.3L94 36.5L94.3 36.3C94.9 36 95.6 35.8 96.2 35.8C97.7 35.8 98.8 36.7 98.8 38.3C99.2 41.7 94.4 44.2 94.2 44.4Z" fill="#404041"/>
</svg>
