<svg width="131" height="71" viewBox="0 0 131 71" fill="none" xmlns="http://www.w3.org/2000/svg">
<path fill-rule="evenodd" clip-rule="evenodd" d="M68.7001 33L67.8001 35.7L80.1001 48.4L67.5001 58.3L54.8001 48.4L67.4001 35.4L66.3001 33.2C65.2001 33.2 64.2001 33.1 63.1001 33C53.8001 31.7 45.1001 24 45.1001 14.7H47.1001C47.1001 22.7 54.7001 29.7 63.4001 31C67.6001 31.6 72.0001 30.8 75.7001 28C79.4001 25.2 82.5001 20.3 84.0001 12.7L86.0001 13.1C84.4001 21.1 81.1001 26.4 77.0001 29.6C74.4001 31.5 71.6001 32.6 68.7001 33Z" fill="#404041"/>
</svg>
