<svg width="32" height="32" viewBox="0 0 32 32" fill="none" xmlns="http://www.w3.org/2000/svg">
<path d="M32 16.0117C31.9888 24.8941 24.8572 32.0181 15.9935 32C7.14799 31.9819 -0.0163831 24.8026 -2.48395e-06 15.972C0.0163781 7.13959 7.19541 -0.00517393 16.0487 2.81133e-06C24.8917 0.00517955 32.0112 7.15166 32 16.0117ZM11.7225 25.5006L11.8872 25.5662C12.2536 25.1365 12.6596 24.7345 12.9786 24.272C13.7934 23.0891 14.1451 21.7225 14.4469 20.342C14.5374 19.9287 14.615 19.512 14.7064 19.0564C15.0202 19.2687 15.2978 19.4343 15.5504 19.6311C16.4401 20.3239 17.454 20.436 18.5187 20.2626C20.1689 19.9943 21.3672 19.0487 22.2208 17.657C23.3519 15.8123 23.6709 13.7969 23.3778 11.6692C23.1045 9.68395 22.0552 8.2129 20.2939 7.3294C17.6031 5.98 14.8633 5.95325 12.1924 7.40101C9.45852 8.88242 8.10324 11.7331 8.64121 14.7235C8.88692 16.091 9.63526 17.0263 11.0061 17.4197C11.2492 17.4896 11.3432 17.4214 11.4371 17.2049C11.7139 16.5647 11.6561 15.9599 11.2647 15.3982C10.5396 14.3594 10.5517 13.2309 10.8862 12.0903C11.6397 9.51571 14.5038 7.71593 17.1522 8.17838C18.8748 8.47864 20.1611 9.36558 20.6232 11.1619C20.7163 11.5243 20.781 11.9005 20.8051 12.274C20.9146 13.9815 20.6111 15.5975 19.6378 17.0375C19.1507 17.7579 18.5075 18.3067 17.6092 18.3852C16.1642 18.512 15.2159 17.896 15.5314 16.2869C15.672 15.5725 15.9237 14.8805 16.0884 14.1696C16.2548 13.4509 16.4324 12.727 16.4987 11.9954C16.5556 11.3655 16.1953 10.954 15.5978 10.7297C14.8555 10.451 14.1572 10.5968 13.6554 11.2378C12.7364 12.4112 12.5476 13.7175 13.0614 15.1264C13.1261 15.3042 13.1545 15.5242 13.1157 15.7071C12.9648 16.4215 12.7881 17.1307 12.607 17.839C12.1475 19.6319 11.6794 21.4239 11.6604 23.2901C11.6527 24.027 11.7009 24.7638 11.7234 25.5006H11.7225Z" fill="#ADADAD"/>
</svg>
