<svg width="15" height="18" viewBox="0 0 15 18" fill="none" xmlns="http://www.w3.org/2000/svg">
<g clip-path="url(#clip0_3114_17)">
<path d="M14.4136 7.43727C14.4136 5.45714 14.4154 3.47747 14.4127 1.49734C14.4117 0.636233 13.8182 0.00821928 12.9737 0.00592054C10.1968 -0.0023549 7.41945 -0.0014354 4.64258 0.0054608C3.86193 0.00729978 3.29323 0.542905 3.20771 1.3185C3.17231 1.63802 3.34426 1.87709 3.63666 1.91525C3.91986 1.95249 4.13916 1.77089 4.18973 1.45688C4.24398 1.11897 4.38604 0.995295 4.73453 0.995295C7.44704 0.994376 10.1595 0.994376 12.8725 0.995295C13.2541 0.995295 13.421 1.16034 13.421 1.53872C13.4219 5.46357 13.4219 9.38797 13.421 13.3128C13.421 13.6742 13.3079 13.8006 12.9461 13.8599C12.9116 13.8654 12.8771 13.8737 12.8435 13.8838C12.6118 13.956 12.4707 14.173 12.5001 14.4107C12.5314 14.6617 12.7222 14.859 12.9709 14.8401C13.1879 14.8236 13.4182 14.7868 13.6118 14.6939C14.1695 14.4263 14.4127 13.9491 14.4131 13.3418C14.4145 11.3736 14.4131 9.40544 14.4131 7.43727H14.4136Z" fill="white"/>
<path d="M1.2312 18.0001C0.900184 17.9113 0.593073 17.7844 0.359982 17.515C0.0965468 17.2102 0 16.8553 0 16.4613C0.00137924 13.8256 0.000919493 11.1898 0.000919493 8.55365C0.000919493 7.24751 -0.00137924 5.94137 0.00183899 4.63523C0.00367797 3.90929 0.41791 3.36771 1.10339 3.1953C1.24315 3.1599 1.39303 3.15255 1.53831 3.15255C4.25082 3.15025 6.96332 3.14979 9.67537 3.15117C10.4362 3.15117 10.9709 3.53368 11.1594 4.2187C11.2008 4.36858 11.2128 4.53087 11.2128 4.68764C11.2155 8.61204 11.2105 12.5364 11.2187 16.4608C11.2201 17.241 10.7392 17.858 10.0124 17.9803C10.0022 17.9821 9.99397 17.9936 9.98478 18.0005H1.2312V18.0001ZM0.989835 10.5646C0.989835 11.7071 0.989835 12.8491 0.989835 13.9915C0.989835 14.8177 0.989835 15.6434 0.989835 16.4696C0.989835 16.6824 1.04179 16.8728 1.25603 16.9587C1.35533 16.9983 1.47349 17.002 1.58337 17.0024C4.26093 17.0047 6.9385 17.0043 9.61606 17.0043C10.0753 17.0043 10.2179 16.8636 10.2179 16.4084C10.2179 12.5185 10.2179 8.62905 10.2179 4.73913C10.2179 4.28904 10.0776 4.14744 9.63399 4.14744C6.95045 4.14744 4.26737 4.14744 1.58383 4.14744C1.13006 4.14744 0.990294 4.28904 0.990294 4.74787C0.990294 6.68708 0.990294 8.62583 0.990294 10.565L0.989835 10.5646Z" fill="#4F4F4F"/>
<path d="M14.4169 7.4371C14.4169 9.40527 14.4178 11.3734 14.4169 13.3416C14.4169 13.9489 14.1737 14.4266 13.6156 14.6937C13.422 14.7866 13.1917 14.8234 12.9747 14.8399C12.726 14.8588 12.5347 14.6616 12.5039 14.4105C12.4745 14.1728 12.6156 13.9554 12.8474 13.8837C12.8809 13.8731 12.9154 13.8653 12.9499 13.8598C13.3117 13.8005 13.4248 13.674 13.4248 13.3127C13.4253 9.3878 13.4257 5.4634 13.4248 1.53855C13.4248 1.16018 13.2579 0.995127 12.8763 0.995127C10.1638 0.994207 7.4513 0.994207 4.73834 0.995127C4.38985 0.995127 4.24779 1.11834 4.19354 1.45671C4.14297 1.77072 3.92367 1.95232 3.64046 1.91508C3.34807 1.87646 3.17658 1.63785 3.21152 1.31833C3.29657 0.542736 3.86482 0.00713144 4.64593 0.00529246C7.4228 -0.001144 10.2001 -0.00252324 12.977 0.0057522C13.822 0.00805094 14.4151 0.636065 14.416 1.49717C14.4188 3.4773 14.4169 5.45697 14.4169 7.4371Z" fill="#4F4F4F"/>
</g>
<defs>
<clipPath id="clip0_3114_17">
<rect width="14.4158" height="18" fill="white"/>
</clipPath>
</defs>
</svg>
