<svg width="21" height="21" viewBox="0 0 21 21" fill="none" xmlns="http://www.w3.org/2000/svg">
<g clip-path="url(#clip0_3114_35)">
<path d="M21.0056 14.1538C20.9717 14.2848 20.9437 14.4174 20.9026 14.5462C20.6697 15.2822 20.1951 15.8001 19.4777 16.084C18.9001 16.3126 18.3175 16.528 17.7338 16.74C17.2461 16.9171 16.9172 17.2426 16.7397 17.7304C16.5391 18.2817 16.3303 18.8303 16.1231 19.3794C15.5926 20.7868 14.1584 21.3771 12.7954 20.7517C12.2621 20.5068 11.725 20.2689 11.1929 20.0217C10.7293 19.8064 10.2722 19.8064 9.80853 20.0217C9.27035 20.2722 8.72943 20.5177 8.18687 20.7594C6.8173 21.3683 5.40554 20.778 4.87777 19.3789C4.67061 18.8297 4.4618 18.2811 4.26067 17.7298C4.08585 17.2503 3.76524 16.9231 3.2857 16.7461C2.72889 16.5406 2.17372 16.3301 1.6169 16.1229C0.231443 15.6078 -0.370311 14.1746 0.235827 12.8303C0.474227 12.3014 0.706598 11.7693 0.957055 11.2464C1.19491 10.7499 1.19929 10.266 0.961439 9.76836C0.70879 9.2384 0.472034 8.70132 0.230895 8.16588C-0.365379 6.84399 0.230895 5.40318 1.58566 4.89185C2.14138 4.68195 2.696 4.47041 3.25446 4.26982C3.75811 4.08897 4.09078 3.75192 4.26944 3.24717C4.45632 2.71995 4.66458 2.19985 4.85585 1.67428C5.18632 0.772196 5.80616 0.211545 6.75811 0.0317866C6.7762 0.0284984 6.79154 0.0109609 6.80799 0C7.01295 0 7.21847 0 7.42344 0C7.78734 0.130983 8.15727 0.248813 8.51405 0.396237C8.93605 0.571063 9.35146 0.763975 9.7625 0.962916C10.2585 1.20296 10.7369 1.18652 11.2406 0.965656C12.0128 0.627512 12.745 0.189624 13.5785 0C13.7698 0 13.9616 0 14.1529 0C14.1776 0.0104129 14.2017 0.0263062 14.2274 0.0312386C15.1733 0.201133 15.7959 0.750274 16.1291 1.64304C16.3297 2.18012 16.5396 2.71392 16.7325 3.25375C16.9128 3.75795 17.2472 4.09171 17.7514 4.27201C18.3361 4.48137 18.9192 4.6962 19.4952 4.92802C20.2028 5.21246 20.6724 5.72817 20.9026 6.45707C20.9437 6.58641 20.9717 6.71958 21.0056 6.85166V7.42601C20.8407 7.86445 20.6839 8.30618 20.5075 8.73968C20.3661 9.08714 20.2071 9.42802 20.0422 9.76507C19.7999 10.2605 19.8169 10.74 20.0389 11.2437C20.3787 12.0148 20.8122 12.7486 21.0056 13.5806V14.1549V14.1538ZM0.833744 13.8584C0.869915 14.5106 1.26232 15.0526 1.90901 15.2987C2.45157 15.5048 2.99304 15.713 3.53944 15.9081C4.30397 16.1805 4.81803 16.6929 5.09151 17.4574C5.28442 17.9973 5.49323 18.5316 5.69545 19.0676C6.04949 20.0048 6.92198 20.3676 7.83722 19.9565C8.36663 19.7187 8.89659 19.483 9.42216 19.2369C10.1428 18.8993 10.858 18.9015 11.5782 19.2369C12.1043 19.4814 12.6332 19.7198 13.1626 19.9582C14.0778 20.3697 14.9508 20.0069 15.3049 19.0698C15.5098 18.5272 15.7181 17.9858 15.916 17.4404C16.1872 16.6924 16.6936 16.1882 17.4417 15.918C17.987 15.7207 18.529 15.5124 19.0716 15.3069C20 14.9556 20.3666 14.0826 19.9633 13.181C19.7205 12.639 19.4755 12.0981 19.2261 11.5588C18.9023 10.859 18.9006 10.1608 19.2218 9.45981C19.4744 8.90738 19.7298 8.35605 19.9759 7.80033C20.3601 6.93168 19.989 6.04878 19.1017 5.71173C18.5466 5.50073 17.9914 5.29083 17.4335 5.08805C16.6936 4.81896 16.1911 4.31805 15.9203 3.57874C15.7187 3.0274 15.5104 2.47881 15.3032 1.92967C14.9541 1.00512 14.0778 0.640665 13.1741 1.04622C12.62 1.29503 12.0698 1.55316 11.5146 1.79978C10.8263 2.10614 10.1385 2.09901 9.45285 1.7817C8.91412 1.53233 8.37266 1.28736 7.83119 1.04403C6.9291 0.639569 6.05059 1.00457 5.70148 1.92748C5.49651 2.47004 5.28716 3.01151 5.09096 3.55736C4.82187 4.30599 4.31876 4.81403 3.57178 5.0875C3.02702 5.28699 2.485 5.49415 1.94189 5.69803C1.00145 6.05097 0.633708 6.92346 1.04365 7.83595C1.28698 8.37742 1.53415 8.91779 1.78131 9.45762C2.10192 10.1586 2.10028 10.8568 1.77693 11.5566C1.52812 12.0959 1.27657 12.6341 1.0431 13.1799C0.950478 13.3964 0.903346 13.6321 0.835389 13.859L0.833744 13.8584Z" fill="#2F2F2F"/>
<path d="M13.9998 5.74954C13.9675 5.8164 13.9198 5.94355 13.8491 6.05535C12.2187 8.6213 10.5855 11.1856 8.95343 13.7499C8.59391 14.3149 8.23494 14.88 7.87488 15.4445C7.83816 15.502 7.80199 15.5612 7.75595 15.6111C7.60469 15.7744 7.3778 15.7996 7.19749 15.6779C7.01883 15.5579 6.95361 15.3349 7.04514 15.1359C7.07912 15.0619 7.12625 14.9934 7.17009 14.9244C9.15401 11.806 11.1385 8.68816 13.1235 5.57088C13.1674 5.50237 13.2117 5.43058 13.2704 5.37522C13.4074 5.24589 13.5696 5.2141 13.7433 5.29411C13.9067 5.3692 13.9927 5.50073 14.0004 5.74954H13.9998Z" fill="#2F2F2F"/>
<path d="M7.42851 8.74719C6.21952 8.74171 5.24346 7.75687 5.25003 6.54953C5.25661 5.34492 6.24967 4.3694 7.45756 4.38146C8.65942 4.39297 9.6322 5.37342 9.62782 6.56871C9.62343 7.77605 8.6375 8.75322 7.42851 8.74773V8.74719ZM8.74601 6.55446C8.74163 5.82665 8.15248 5.24627 7.42358 5.25175C6.71222 5.25723 6.12417 5.85022 6.12362 6.56268C6.12307 7.28226 6.72099 7.87799 7.44221 7.87634C8.16783 7.87415 8.7504 7.28391 8.74601 6.55446Z" fill="#2F2F2F"/>
<path d="M13.5754 12.2579C14.7861 12.2639 15.7594 13.2471 15.7528 14.4561C15.7457 15.6613 14.7526 16.6357 13.5447 16.6236C12.344 16.6116 11.3695 15.6284 11.375 14.4353C11.3811 13.2279 12.3675 12.2513 13.5754 12.2574V12.2579ZM12.2568 14.4479C12.2601 15.1751 12.8498 15.7588 13.5771 15.7528C14.2895 15.7473 14.877 15.1571 14.8792 14.4435C14.882 13.7234 14.2846 13.1271 13.5623 13.1282C12.8356 13.1293 12.253 13.7179 12.2563 14.4473L12.2568 14.4479Z" fill="#2F2F2F"/>
</g>
<defs>
<clipPath id="clip0_3114_35">
<rect width="21.0044" height="21" fill="white"/>
</clipPath>
</defs>
</svg>
