<svg width="16" height="18" viewBox="0 0 16 18" fill="none" xmlns="http://www.w3.org/2000/svg">
<path d="M12.4164 17.9996C12.1096 17.9088 11.7878 17.851 11.4983 17.7214C10.1453 17.1154 9.47199 15.5905 9.91993 14.1752C9.96748 14.0256 9.94494 13.9576 9.80724 13.8731C8.29543 12.9455 6.7882 12.0102 5.28273 11.0717C5.16582 10.9988 5.10489 11.0122 5.00559 11.1041C4.15372 11.8947 3.15641 12.1556 2.04958 11.7971C0.945218 11.4393 0.27119 10.6508 0.0507395 9.5102C-0.189079 8.27167 0.439168 7.00461 1.55586 6.40489C2.68875 5.79636 4.07202 5.98758 4.99925 6.8898C5.10243 6.99017 5.16547 7.00285 5.29048 6.92467C6.80018 5.98265 8.31375 5.04591 9.82908 4.11305C9.94458 4.04191 9.96888 3.98416 9.92592 3.85034C9.29415 1.86946 10.8264 -0.106142 12.9045 0.00443536C14.4001 0.0836706 15.5791 1.28946 15.6717 2.83472C15.7569 4.25321 14.6895 5.59105 13.2651 5.83932C12.2604 6.0147 11.3895 5.73614 10.6514 5.0357C10.6179 5.00401 10.5837 4.97266 10.5408 4.93217C8.92756 5.93123 7.31679 6.92889 5.69863 7.93113C5.96275 8.64601 5.96169 9.35596 5.69863 10.0694C7.31468 11.0703 8.92157 12.0655 10.5376 13.0663C10.6373 12.9765 10.7334 12.8842 10.8355 12.7986C11.7973 11.9911 13.1527 11.8813 14.2314 12.5218C15.3107 13.1628 15.8622 14.414 15.6125 15.6553C15.3717 16.8537 14.3733 17.7894 13.1467 17.9683C13.1136 17.9732 13.0819 17.9891 13.0496 18H12.4167L12.4164 17.9996ZM12.7326 16.9213C13.7718 16.9164 14.6022 16.0776 14.5969 15.0384C14.5916 14.0139 13.7503 13.1818 12.721 13.1832C11.6864 13.1846 10.8479 14.033 10.8581 15.0676C10.8686 16.1022 11.7018 16.9263 12.7323 16.9213H12.7326ZM10.8584 2.94389C10.856 3.97254 11.6895 4.81349 12.7154 4.81701C13.7518 4.82053 14.5966 3.9824 14.5973 2.94952C14.5976 1.91172 13.7588 1.07499 12.721 1.07816C11.6885 1.08133 10.8609 1.91031 10.8584 2.94354V2.94389ZM1.08221 9.00345C1.08467 10.0356 1.91506 10.8664 2.94582 10.8681C3.98398 10.8699 4.82317 10.0325 4.82176 8.99641C4.82035 7.96071 3.97834 7.12681 2.93913 7.13209C1.90872 7.13702 1.07974 7.97233 1.08221 9.00345Z" fill="#4F4F4F"/>
</svg>
