<svg width="131" height="71" viewBox="0 0 131 71" fill="none" xmlns="http://www.w3.org/2000/svg">
<path d="M66.1 15.9L69.5 12.5C69.7 12.4 69.8 12.3 70.1 12.3C70.3 12.3 70.5 12.4 70.6 12.5C70.7 12.6 70.8 12.8 70.8 13C70.8 13.2 70.7 13.4 70.6 13.5L67.2 17C66.9 17.3 66.4 17.3 66.1 17C65.8 16.7 65.8 16.2 66.1 15.9Z" fill="#404041"/>
<path d="M54.7998 7.00001C54.7998 6.60001 55.0998 6.20001 55.5998 6.20001C55.9998 6.20001 56.3998 6.50001 56.3998 7.00001V11.8C56.3998 12.2 56.0998 12.6 55.5998 12.6C55.1998 12.6 54.7998 12.3 54.7998 11.8V7.00001Z" fill="#404041"/>
<path d="M40.4001 12.5C40.5001 12.4 40.7001 12.3 40.9001 12.3C41.1001 12.3 41.3001 12.4 41.4001 12.5L44.9001 15.9C45.0001 16 45.1001 16.2 45.1001 16.4C45.1001 16.6 45.0001 16.8 44.9001 16.9C44.6001 17.2 44.1001 17.2 43.8001 16.9L40.3001 13.5C40.2001 13.4 40.1001 13.2 40.1001 13C40.2001 12.9 40.3001 12.7 40.4001 12.5Z" fill="#404041"/>
<path d="M75.3999 31.1C71.8999 31.1 68.4999 32.2 65.5999 34.2L65.3999 34.3L65.1999 34.2C63.1999 32.8 60.8999 31.8 58.4999 31.4L57.7999 31.3L65.1999 26.5C65.4999 26.3 65.5999 25.9 65.4999 25.6L63.4999 20.3C63.3999 20 63.0999 19.8 62.7999 19.8H48.1999C47.8999 19.8 47.5999 20 47.4999 20.3L45.4999 25.6C45.3999 25.9 45.4999 26.3 45.7999 26.5L53.1999 31.3L52.4999 31.4C44.2999 32.9 38.3999 39.8 38.3999 48C38.3999 57.2 46.0999 64.8 55.4999 64.8C58.9999 64.8 62.3999 63.7 65.2999 61.7L65.4999 61.6L65.6999 61.7C68.5999 63.7 71.9999 64.8 75.4999 64.8C84.8999 64.8 92.5999 57.2 92.4999 47.9C92.4999 38.6 84.7999 31.1 75.3999 31.1ZM62.2999 21.2L63.3999 24.1L58.3999 21.2H62.2999ZM61.9999 25.1H49.0999L55.5999 21.4L61.9999 25.1ZM48.7999 21.2H52.6999L47.6999 24.1L48.7999 21.2ZM48.7999 26.6H62.2999L55.4999 30.9L48.7999 26.6ZM63.8999 60.9C61.3999 62.5 58.4999 63.3 55.4999 63.3C46.8999 63.3 39.8999 56.4 39.8999 48C39.8999 39.6 46.8999 32.7 55.4999 32.7C64.0999 32.7 71.0999 39.5 71.0999 48C71.0999 50.7 70.2999 53.4 68.8999 55.8L68.6999 56.1L68.3999 55.9C67.5999 55.2 66.9999 54.4 66.3999 53.6L66.2999 53.5L66.3999 53.3C67.2999 51.7 67.6999 49.8 67.6999 48C67.6999 41.4 62.1999 36 55.4999 36C48.7999 36 43.2999 41.4 43.2999 48C43.2999 54.6 48.7999 60 55.4999 60C57.6999 60 59.7999 59.4 61.6999 58.3L61.8999 58.2L62.0999 58.4C62.6999 59.1 63.2999 59.8 63.9999 60.4L64.1999 60.7L63.8999 60.9ZM69.9999 39L70.2999 38.9C71.8999 38 73.6999 37.5 75.5999 37.5C81.4999 37.5 86.2999 42.2 86.2999 48C86.2999 53.8 81.4999 58.5 75.5999 58.5C73.6999 58.5 71.8999 58 70.2999 57.1L69.9999 56.9L70.0999 56.7C71.7999 54.1 72.5999 51 72.6999 48C72.6999 44.9 71.7999 41.9 70.1999 39.3L69.9999 39ZM66.1999 48C66.1999 48.9 66.0999 49.9 65.7999 50.8L65.4999 51.8L65.1999 50.8C64.8999 49.9 64.7999 49 64.7999 48C64.7999 47 64.9999 46.1 65.1999 45.1L65.4999 44.2L65.7999 45.2C66.0999 46.1 66.1999 47 66.1999 48ZM60.9999 39L60.8999 39.2C59.2999 41.8 58.3999 44.8 58.3999 47.9C58.3999 50.9 59.2999 54 60.8999 56.6L61.0999 56.9L60.7999 57.1C59.1999 58 57.3999 58.5 55.4999 58.5C49.5999 58.5 44.7999 53.8 44.7999 48C44.7999 42.2 49.5999 37.4 55.3999 37.5C57.2999 37.5 59.0999 38 60.6999 38.9L60.9999 39ZM75.5999 63.2C66.9999 63.2 59.9999 56.3 59.9999 47.9C59.9999 45.2 60.7999 42.5 62.1999 40.1L62.3999 39.8L62.6999 40C63.4999 40.7 64.0999 41.5 64.6999 42.3L64.7999 42.4L64.6999 42.6C63.7999 44.2 63.3999 46.1 63.3999 47.9C63.3999 54.5 68.8999 59.9 75.5999 59.9C82.2999 59.9 87.7999 54.5 87.7999 47.9C87.7999 41.3 82.2999 35.9 75.5999 35.9C73.3999 35.9 71.2999 36.5 69.3999 37.6L69.1999 37.7L68.9999 37.5C68.3999 36.8 67.7999 36.1 67.0999 35.5L66.7999 35.2L67.0999 35C69.5999 33.4 72.4999 32.6 75.4999 32.6C84.0999 32.6 91.0999 39.5 91.1999 47.9C91.1999 56.3 84.1999 63.2 75.5999 63.2Z" fill="#404041"/>
</svg>
