<svg width="131" height="71" viewBox="0 0 131 71" fill="none" xmlns="http://www.w3.org/2000/svg">
<path fill-rule="evenodd" clip-rule="evenodd" d="M96.5001 20.5C96.5001 20.1 96.4001 19.7 96.1001 19.3C94.9001 17.6 93.6001 16 92.4001 14.3C91.2001 12.8 90.1001 11.2 88.9001 9.59998L87.0001 7.19998L85.5001 5.19998C85.2001 4.79998 84.8001 4.59998 84.2001 4.59998C71.7001 4.59998 59.3001 4.59998 46.9001 4.59998C46.3001 4.59998 45.9001 4.79998 45.5001 5.29998C44.4001 6.79998 43.3001 8.29998 42.2001 9.69998C40.8001 11.5 39.5001 13.3 38.1001 15.1L35.0001 19.3C34.8001 19.5 34.7001 19.7 34.6001 19.9V30.3C35.1001 30.9 35.6001 31.5 36.1001 32.1C37.2001 33.4 38.3001 34.8 39.4001 36.1C47.7001 46 56.0001 55.9 64.4001 65.7C64.6001 65.9 64.8001 66.1 65.0001 66.2L65.1001 66.3L65.2001 66.4L65.3001 66.5H66.0001C66.3001 66.2 66.7001 65.9 67.0001 65.6C76.6001 54 86.3001 42.5 96.0001 30.9C96.1001 30.7 96.2001 30.5 96.3001 30.3C96.3001 30.2 96.4001 30 96.4001 29.9V29.8C96.4001 29.7 96.4001 29.7 96.4001 29.6C96.5001 26.6 96.5001 23.5 96.5001 20.5ZM84.5001 7.99998L92.8001 19H77.3001L84.5001 7.99998ZM82.3001 6.99998L75.1001 18L67.9001 6.99998H82.3001ZM72.0001 26.3H73.8001V28.7H57.4001V21.5H73.9001V23.9H72.0001C71.2001 23.9 70.6001 24.4 70.6001 25.1C70.6001 25.8 71.2001 26.3 72.0001 26.3ZM72.8001 19H58.4001L65.6001 7.99998L72.8001 19ZM63.3001 6.99998L56.1001 18L48.9001 6.99998H63.3001ZM46.5001 7.79998L53.8001 19H38.2001L46.5001 7.79998ZM36.9001 21.5H54.8001V28.7H36.9001V21.5ZM62.7001 60.1L38.3001 31.1H55.0001L62.7001 60.1ZM65.6001 60.3H65.4001L57.6001 31.2H73.4001L65.6001 60.3ZM68.3001 60.1L76.0001 31.2H92.7001L68.3001 60.1ZM94.0001 28.7H76.3001V21.5H94.0001V23.9H84.8001C84.2001 23.9 83.8001 24.1 83.6001 24.7C83.4001 25.2 83.5001 25.6 83.8001 25.9C84.1001 26.1 84.6001 26.3 84.9001 26.3C87.7001 26.3 90.4001 26.3 93.2001 26.3H94.0001V28.7Z" fill="#404041"/>
<path fill-rule="evenodd" clip-rule="evenodd" d="M81.1002 25.1C81.1002 25.8 80.5002 26.3 79.9002 26.3C79.2002 26.3 78.7002 25.8 78.7002 25.1C78.7002 24.4 79.3002 23.9 79.9002 23.9C80.6002 23.9 81.1002 24.4 81.1002 25.1Z" fill="#404041"/>
<path fill-rule="evenodd" clip-rule="evenodd" d="M68.2 25.1999C68.2 25.8999 67.6 26.3999 66.9 26.2999C66.3 26.2999 65.7 25.6999 65.8 25.0999C65.8 24.3999 66.4 23.8999 67.1 23.9999C67.7 23.8999 68.2 24.4999 68.2 25.1999Z" fill="#404041"/>
<path fill-rule="evenodd" clip-rule="evenodd" d="M44.2999 25.1C44.2999 25.8 43.6999 26.3 43.0999 26.3C42.3999 26.3 41.8999 25.8 41.8999 25.1C41.8999 24.4 42.3999 23.9 43.0999 23.9C43.6999 23.9 44.2999 24.4 44.2999 25.1Z" fill="#404041"/>
<path fill-rule="evenodd" clip-rule="evenodd" d="M52.3003 25.1C52.3003 25.8 51.8003 26.3 51.1003 26.3C50.6003 26.3 50.1003 26.3 49.5003 26.3H48.9003C48.6003 26.3 48.3003 26.3 48.0003 26.3C47.3003 26.3 46.8003 25.8 46.8003 25.1C46.8003 24.4 47.3003 23.9 48.0003 23.9C49.0003 23.9 50.1003 23.9 51.2003 23.9C51.8003 23.9 52.3003 24.4 52.3003 25.1Z" fill="#404041"/>
</svg>
