<svg width="131" height="71" viewBox="0 0 131 71" fill="none" xmlns="http://www.w3.org/2000/svg">
<path fill-rule="evenodd" clip-rule="evenodd" d="M90.4998 29L66.2998 11.4C65.5998 10.9 65.3998 10.9 64.6998 11.4L62.8998 12.7C55.3998 18.1 47.9998 23.6 40.4998 29C40.3998 29 40.3998 29.1 40.2998 29.2C40.0998 29.3 39.9998 29.5 39.7998 29.6V30.3C39.8998 30.5 39.9998 30.6 39.9998 30.8C42.8998 39.6 45.6998 48.4 48.5998 57.3L49.1998 59.2C49.4998 60 49.5998 60.1 50.4998 60.1H80.4998C81.2998 60.1 81.4998 60 81.6998 59.2L90.9998 30.5C91.2998 29.7 91.1998 29.5 90.4998 29ZM69.2998 15.7L85.6998 27.7C85.4998 27.7 85.4998 27.7 85.3998 27.7C84.0998 27.3 82.6998 26.9 81.3998 26.6C79.3998 26 77.3998 25.5 75.3998 24.9C75.1998 24.8 74.9998 24.7 74.8998 24.5C73.2998 22.1 71.6998 19.7 70.0998 17.3L69.3998 16.3C69.2998 16.2 69.2998 16.1 69.1998 16L69.2998 15.7ZM65.5998 24.5C66.8998 26.4 68.1998 25.6 69.3998 24.7C70.5998 23.8 71.8998 23 73.1998 24.9C72.1998 25.1 71.2998 25.3 70.3998 25.5C69.8998 25.6 69.5998 26 69.6998 26.5C69.7998 27 70.1998 27.2 70.6998 27.1C70.7998 27.1 70.8998 27.1 71.0998 27C71.1998 27 71.2998 27 71.3998 26.9L72.0998 26.8L73.8998 26.5L74.5998 32.7L74.2998 32.5C74.1998 32.5 74.0998 32.4 74.0998 32.4C73.3998 31.9 72.7998 31.4 72.0998 31C70.3998 29.8 68.7998 28.6 67.1998 27.4C66.1998 26.6 65.1998 26.2 63.8998 26.1C62.4998 25.9 60.9998 25.6 59.5998 25.3C58.9998 25.2 58.3998 25.1 57.6998 24.9C58.9998 23 60.2998 23.8 61.5998 24.7C62.9998 25.5 64.2998 26.4 65.5998 24.5ZM69.7998 47.6L65.4998 52L61.1998 47.6H69.7998ZM56.3998 32.8L57.0998 26.5L63.3998 27.7L56.3998 32.8ZM61.6998 15.7C61.6998 15.8 57.2998 19.8 54.5998 22.1C53.4998 23.1 52.6998 23.8 52.6998 23.9C51.7998 25.3 52.9998 24.7 54.2998 24.2C55.5998 23.7 56.8998 23.1 55.8998 24.5C55.7998 24.7 55.5998 24.8 55.3998 24.9C53.7998 25.4 52.1998 25.8 50.4998 26.3L49.6998 26.5C48.6998 26.8 47.6998 27.1 46.7998 27.3L45.2998 27.7V27.6L61.6998 15.7ZM49.7998 50.5C49.6998 51.7 49.6998 52.9 49.5998 54.1H49.4998L42.9998 34.2L43.0998 34.1C43.1998 34.1 44.6998 37.8 46.2998 41.4C47.9998 45.2 49.6998 49.1 49.7998 49.2C49.7998 49.7 49.7998 50.1 49.7998 50.5ZM49.9998 46.5C49.8998 46.2 49.8998 46 49.7998 45.7C49.2998 43.3 48.6998 40.8 49.7998 42.1C50.0998 42.5 50.1998 42.8 50.1998 43.3C50.0998 44.4 49.9998 45.5 49.9998 46.5ZM51.7998 36.8C52.9998 35.7 54.1998 34.5 52.6998 32.8L42.1998 30.4L55.2998 26.7C55.2998 26.8 55.2998 26.9 55.2998 27C55.2998 27.2 55.2998 27.3 55.2998 27.5C55.0998 29.1 54.8998 30.6 54.7998 32.2C54.6998 33.7 54.2998 35.1 53.4998 36.4C53.3998 36.5 53.2998 36.7 53.2998 36.8C53.1998 37 52.9998 37.3 52.8998 37.6L51.0998 40.9C49.4998 39.1 50.5998 37.9 51.7998 36.8ZM63.9998 55L54.9998 58.3C55.0998 58.3 55.1998 58.2 55.1998 58.2C55.2998 58.2 55.3998 58.1 55.4998 58.1L58.8998 56.8L60.5998 56.2C60.9998 56 61.4998 55.9 61.8998 55.7C62.3998 55.5 62.5998 55.1 62.3998 54.6C62.1998 54.2 61.7998 53.9 61.2998 54.1C61.1998 54.1 61.0998 54.2 60.9998 54.2L53.9998 56.7L52.0998 57.4L51.0998 57.8L51.7998 43.7C51.8998 43.7 53.2998 47.4 54.4998 50.3C55.2998 52.3 55.8998 53.9 55.9998 53.9C57.0998 54.5 57.0998 52.5 57.1998 50.6C57.2998 48.6 57.3998 46.7 58.3998 47.3C58.4998 47.4 58.6998 47.5 58.7998 47.6C59.3998 48.2 59.9998 48.8 60.5998 49.5C61.8998 50.8 63.1998 52.2 64.4998 53.5C64.7998 53.8 65.1998 54.1 65.5998 54.2C68.8998 55.5 72.1998 56.7 75.3998 58C75.4998 58 75.6998 58.1 75.8998 58.2L63.9998 55ZM73.2998 44.9L75.8998 36.8L78.6998 41.9L73.2998 44.9ZM80.7998 43C80.7998 42.9 80.7998 42.8 80.7998 42.7C80.7998 42.6 80.8998 42.4 80.9998 42.3C81.9998 41.1 82.9998 39.9 83.9998 38.7C83.7998 39.2 83.4998 39.7 83.1998 40.2C82.0998 42.6 80.8998 44.9 80.7998 43ZM81.4998 54.2C81.4998 54.2 82.4998 50 83.5998 45.9C84.5998 41.8 85.6998 37.6 85.6998 37.6C85.6998 37.3 85.5998 37.1 85.5998 37C85.8998 36.6 86.2998 36.2 86.5998 35.8L87.5998 34.6C87.6998 34.5 87.6998 34.4 87.7998 34.3L87.8998 34.2L87.9998 34.3L81.4998 54.2ZM84.5998 31.3C83.2998 30.9 81.8998 30.4 80.4998 32.2C79.8998 31.1 79.1998 32.3 78.4998 33.4C77.7998 34.5 77.1998 35.6 76.5998 34.6C76.4998 34.4 76.4998 34.2 76.4998 34C76.2998 32.4 76.0998 30.8 75.8998 29.3C75.7998 28.5 75.6998 27.6 75.5998 26.7L88.6998 30.4C87.2998 32.1 85.9998 31.7 84.5998 31.3Z" fill="#404041"/>
</svg>
