<svg width="18" height="20" viewBox="0 0 18 20" fill="none" xmlns="http://www.w3.org/2000/svg">
<path d="M14.4176 12.9032C13.3312 12.9032 12.3915 13.3724 11.7455 14.1349L6.75367 11.5543C6.98858 11.085 7.10604 10.5572 7.10604 10C7.10604 9.44282 6.95922 8.91496 6.75367 8.44575L11.7455 5.8651C12.3915 6.62757 13.3605 7.09677 14.4176 7.09677C16.3556 7.09677 17.9706 5.5132 17.9706 3.54839C17.9706 1.6129 16.385 0 14.4176 0C12.4502 0 10.8646 1.67155 10.8646 3.60704C10.8646 4.07625 10.9527 4.4868 11.0995 4.89736L6.01958 7.50733C5.37357 6.86217 4.49266 6.48094 3.52365 6.48094C1.61501 6.48094 0 8.09384 0 10.0293C0 11.9648 1.58564 13.5777 3.55302 13.5777C4.52202 13.5777 5.40294 13.1965 6.04894 12.5513L11.1289 15.1613C10.9821 15.5718 10.894 15.9824 10.894 16.4516C10.894 18.3871 12.4796 20 14.447 20C16.4144 20 18 18.4164 18 16.4516C18 14.4868 16.3556 12.9032 14.4176 12.9032ZM14.4176 1.261C15.7096 1.261 16.7961 2.31672 16.7961 3.63636C16.7961 4.92669 15.739 6.01173 14.4176 6.01173C13.0962 6.01173 12.0392 4.92669 12.0392 3.60704C12.0392 2.31672 13.0962 1.261 14.4176 1.261ZM3.55302 12.4047C2.26101 12.4047 1.17455 11.349 1.17455 10.0293C1.17455 8.739 2.23165 7.65396 3.55302 7.65396C4.84502 7.65396 5.93148 8.70968 5.93148 10.0293C5.93148 11.3196 4.84502 12.4047 3.55302 12.4047ZM14.4176 18.7977C13.1256 18.7977 12.0392 17.7419 12.0392 16.4223C12.0392 15.1026 13.0962 14.0469 14.4176 14.0469C15.739 14.0469 16.7961 15.1026 16.7961 16.4223C16.7961 17.7419 15.7096 18.7977 14.4176 18.7977Z" fill="#d7b402"/>
</svg>
