<svg width="20" height="21" viewBox="0 0 20 21" fill="none" xmlns="http://www.w3.org/2000/svg">
<g clip-path="url(#clip0_92_56)">
<path d="M16.5914 6.56214C15.9173 6.56194 15.2585 6.36941 14.6982 6.00882C14.1378 5.64822 13.7012 5.13573 13.4434 4.53627C13.1856 3.93681 13.118 3.27723 13.2497 2.64093C13.3813 2.00463 13.7059 1.42017 14.1827 0.961481C14.6594 0.502791 15.2669 0.190475 15.9281 0.0639775C16.5892 -0.0625203 17.2743 0.00258897 17.897 0.250916C18.5198 0.499243 19.052 0.919691 19.4264 1.45915C19.8009 1.99861 20.0008 2.63283 20.0008 3.28161C19.9997 4.15151 19.6401 4.98548 19.0009 5.6005C18.3617 6.21551 17.4952 6.56133 16.5914 6.56214ZM16.5914 1.31165C16.1868 1.31165 15.7915 1.42704 15.4551 1.64334C15.1187 1.85965 14.8564 2.16715 14.7015 2.52687C14.5467 2.88659 14.5063 3.28257 14.5851 3.66447C14.664 4.04638 14.8585 4.39714 15.1444 4.67254C15.4304 4.94795 15.795 5.13556 16.1918 5.21165C16.5885 5.28773 16.9997 5.24895 17.3735 5.10008C17.7473 4.95121 18.067 4.69895 18.2919 4.37529C18.5169 4.05163 18.6369 3.67099 18.6371 3.28161C18.6362 2.75957 18.4205 2.25917 18.037 1.88993C17.6536 1.5207 17.1338 1.31273 16.5914 1.31165Z" fill="#231F20"/>
<path d="M16.5914 20.9999C15.9173 20.9997 15.2585 20.8071 14.6981 20.4466C14.1378 20.086 13.7012 19.5737 13.4433 18.9743C13.1855 18.3749 13.1181 17.7155 13.2496 17.0792C13.3812 16.4429 13.7058 15.8585 14.1824 15.3997C14.659 14.941 15.2662 14.6286 15.9273 14.502C16.5883 14.3754 17.2734 14.4403 17.8962 14.6884C18.519 14.9366 19.0513 15.3568 19.4259 15.8962C19.8005 16.4355 20.0006 17.0696 20.0008 17.7184C19.9999 18.5885 19.6406 19.4225 19.0014 20.0378C18.3622 20.653 17.4953 20.9991 16.5914 20.9999ZM16.5914 15.7494C16.1868 15.7494 15.7912 15.8648 15.4548 16.0811C15.1184 16.2975 14.8563 16.6051 14.7015 16.9649C14.5467 17.3247 14.5061 17.7206 14.5851 18.1025C14.664 18.4844 14.8588 18.8352 15.1449 19.1106C15.431 19.3859 15.7955 19.5734 16.1923 19.6494C16.5891 19.7254 17.0004 19.6864 17.3742 19.5373C17.748 19.3883 18.0677 19.1361 18.2924 18.8123C18.5172 18.4885 18.6371 18.1078 18.6371 17.7184C18.6362 17.1964 18.4205 16.696 18.037 16.3269C17.6536 15.9579 17.1336 15.7502 16.5914 15.7494Z" fill="#231F20"/>
<path d="M3.40925 13.7804C2.73514 13.7804 2.07602 13.5881 1.51551 13.2276C0.955002 12.8671 0.518161 12.3548 0.260188 11.7553C0.00221447 11.1559 -0.0652901 10.4963 0.0662234 9.85998C0.197737 9.22361 0.52229 8.63907 0.998962 8.18028C1.47563 7.72148 2.08296 7.40885 2.74412 7.28227C3.40528 7.15569 4.09078 7.22066 4.71358 7.46896C5.33638 7.71726 5.86873 8.13796 6.24325 8.67745C6.61777 9.21693 6.81763 9.85108 6.81763 10.4999C6.8165 11.3696 6.45694 12.2033 5.81798 12.8183C5.17903 13.4333 4.31287 13.7794 3.40925 13.7804ZM3.40925 8.52994C3.00466 8.52974 2.60896 8.64496 2.27244 8.86114C1.93591 9.07732 1.67365 9.38472 1.51862 9.74442C1.36359 10.1041 1.32294 10.5 1.40167 10.882C1.4804 11.264 1.6748 11.6148 1.96074 11.8903C2.24669 12.1658 2.61132 12.3535 3.0081 12.4297C3.40488 12.5059 3.81616 12.4672 4.19003 12.3184C4.56391 12.1695 4.88356 11.9173 5.10851 11.5936C5.33347 11.2699 5.4537 10.8893 5.45391 10.4999C5.45307 9.97804 5.23732 9.47768 4.85413 9.10848C4.47093 8.73927 3.95145 8.53129 3.40925 8.52994Z" fill="#231F20"/>
<path d="M5.78201 9.85998C5.63103 9.86097 5.48397 9.81369 5.364 9.72546C5.24404 9.63722 5.15815 9.51302 5.11947 9.37254C5.0808 9.23207 5.09151 9.08309 5.15033 8.94925C5.20916 8.81541 5.31272 8.70439 5.44439 8.63328L13.8798 4.00424C14.0362 3.92562 14.2184 3.90839 14.3877 3.95632C14.5571 4.00426 14.7005 4.11367 14.7879 4.26132C14.8752 4.40896 14.8996 4.58335 14.8561 4.748C14.8125 4.91266 14.7043 5.05466 14.5542 5.14409L6.11886 9.77213C6.01669 9.82962 5.90035 9.8599 5.78201 9.85998Z" fill="#231F20"/>
<path d="M14.2166 17.0797C14.0989 17.0795 13.983 17.05 13.8808 16.9938L5.44542 12.3638C5.36418 12.323 5.29227 12.2667 5.23408 12.1986C5.1759 12.1304 5.13262 12.0518 5.10676 11.9672C5.08091 11.8826 5.07309 11.7937 5.08368 11.7061C5.09428 11.6185 5.12312 11.5339 5.16848 11.4573C5.21383 11.3806 5.27477 11.3133 5.34766 11.2599C5.42055 11.2064 5.5039 11.1678 5.59271 11.1461C5.68152 11.1243 5.77388 11.1199 5.86447 11.1333C5.95505 11.1467 6.04196 11.1775 6.11989 11.2239L14.5553 15.853C14.6853 15.9252 14.787 16.0365 14.8446 16.1699C14.9023 16.3034 14.9128 16.4516 14.8742 16.5912C14.8356 16.7309 14.7501 16.8544 14.6312 16.9426C14.5123 17.0309 14.3668 17.0792 14.2166 17.0797Z" fill="#231F20"/>
</g>
<defs>
<clipPath id="clip0_92_56">
<rect width="20" height="21" fill="white"/>
</clipPath>
</defs>
</svg>
