<svg width="16" height="9" viewBox="0 0 16 9" fill="none" xmlns="http://www.w3.org/2000/svg">
<path d="M7.95809 1.73282C7.89857 1.81663 7.85545 1.89984 7.79229 1.963C5.6362 4.12274 3.47707 6.28004 1.32159 8.44038C1.12238 8.6402 0.904345 8.76713 0.615853 8.72401C0.0649881 8.64202 -0.188885 7.99094 0.159127 7.55183C0.210752 7.48684 0.272701 7.42975 0.331614 7.37084C2.67719 5.02526 5.02217 2.67968 7.36836 0.334096C7.81658 -0.114128 8.18281 -0.112307 8.63347 0.338346C10.99 2.69547 13.3453 5.05259 15.7036 7.40606C15.9095 7.61135 16.0401 7.83667 15.9885 8.13306C15.8949 8.67239 15.2554 8.91472 14.8236 8.57521C14.7525 8.51933 14.6906 8.45131 14.6268 8.38693C12.4792 6.23995 10.3316 4.09237 8.18403 1.94539C8.12633 1.88769 8.0656 1.83303 7.9587 1.73221L7.95809 1.73282Z" fill="#404041"/>
</svg>
