<svg width="32" height="32" viewBox="0 0 32 32" fill="none" xmlns="http://www.w3.org/2000/svg">
<path d="M14.9965 0C15.663 0 16.33 0 16.9965 0C17.0766 0.0175332 17.1562 0.0450854 17.237 0.0513473C19.7286 0.237325 22.0617 0.952429 24.1869 2.26053C28.3177 4.80285 30.8625 8.4604 31.7538 13.242C31.8621 13.8224 31.9185 14.4129 31.9993 14.999V16.9991C31.953 17.3798 31.9141 17.7624 31.8584 18.1419C31.2264 22.4381 29.2252 25.9623 25.7991 28.6274C22.2834 31.3619 18.2686 32.4233 13.8597 31.8491C10.0897 31.3582 6.87659 29.6938 4.30044 26.896C0.896873 23.199 -0.476704 18.8144 0.145258 13.8375C0.54424 10.6439 1.85957 7.83046 3.99916 5.42403C6.4845 2.62748 9.57489 0.885427 13.2697 0.241708C13.8422 0.141518 14.4203 0.0795257 14.9965 0ZM12.6521 20.244C11.028 21.4488 9.28928 21.9278 7.30627 21.7625C7.41588 21.8439 7.47475 21.8977 7.5424 21.9353C10.8188 23.7732 14.218 23.9848 17.5614 22.306C21.364 20.3961 23.1528 17.1087 23.3025 12.9013C23.3138 12.5914 23.3877 12.3929 23.6376 12.2044C24.2019 11.7779 24.6686 11.2538 25.0751 10.6533C24.4274 10.8286 23.8086 10.9965 23.1898 11.1637C23.1766 11.1348 23.1628 11.1054 23.1497 11.0766C23.8368 10.6045 24.3372 9.99393 24.5947 9.23562C23.9238 9.47295 23.2505 9.70651 22.5816 9.9501C22.388 10.0209 22.264 9.96638 22.1131 9.83175C21.0138 8.85177 19.7411 8.58251 18.3675 9.08722C16.9808 9.59631 16.1791 10.6358 15.9918 12.1086C15.9404 12.5125 15.9843 12.9282 15.9843 13.3572C12.9584 13.1437 10.4699 11.8618 8.45874 9.5124C7.5781 11.4486 7.94577 13.0529 9.52666 14.4035C9.511 14.4255 9.49535 14.448 9.47969 14.4699C8.97611 14.3271 8.4719 14.1844 7.9727 14.0422C7.8681 15.5426 8.8571 16.8169 10.7549 17.6754H9.22915C9.85048 19.244 10.9554 20.0737 12.6534 20.244H12.6521Z" fill="#ADADAD"/>
</svg>
