<svg width="31" height="21" viewBox="0 0 31 21" fill="none" xmlns="http://www.w3.org/2000/svg">
<g clip-path="url(#clip0_92_54)">
<path d="M30.6785 1.87428C30.5805 1.81169 30.469 1.77787 30.355 1.77571C30.241 1.77355 30.1284 1.80316 30.0283 1.86199L22.9154 6.03625V3.53093C22.9146 2.59484 22.5683 1.69726 21.9525 1.03545C21.3367 0.373635 20.5018 0.00169086 19.631 0.00109863H3.28433C2.4137 0.00198649 1.57885 0.373972 0.963126 1.03572C0.3474 1.69747 0.00110167 2.59493 0 3.53093V17.4711C0.00137631 18.407 0.347713 19.3041 0.96338 19.9658C1.57905 20.6275 2.41378 20.9998 3.28433 21.001H19.631C20.5018 21.0004 21.3367 20.6284 21.9525 19.9666C22.5683 19.3048 22.9146 18.4072 22.9154 17.4711V15.0106L30.0294 19.1846C30.129 19.2439 30.2413 19.2742 30.3552 19.2722C30.4691 19.2703 30.5807 19.2361 30.6785 19.1734C30.7764 19.1107 30.8574 19.0218 30.9137 18.9153C30.9701 18.8089 30.9997 18.6886 30.9998 18.5661V2.48047C31 2.35808 30.9706 2.23783 30.9142 2.1315C30.8579 2.02517 30.7766 1.93646 30.6785 1.87428ZM21.6015 17.4711C21.5998 18.0324 21.3918 18.5703 21.0227 18.9672C20.6535 19.3641 20.1531 19.5878 19.631 19.5895H3.28433C2.76225 19.5878 2.26189 19.3641 1.89272 18.9672C1.52356 18.5703 1.31553 18.0324 1.31388 17.4711V3.52957C1.3158 2.96848 1.5241 2.43121 1.89323 2.03457C2.26237 1.63793 2.76243 1.41431 3.28433 1.41254H19.631C20.154 1.41254 20.6557 1.63528 21.0262 2.03211C21.3967 2.42894 21.6059 2.96732 21.6078 3.52957L21.6015 17.4711ZM29.687 17.3772L22.9154 13.4023V7.64566L29.687 3.67074V17.3772Z" fill="#231F20"/>
</g>
<defs>
<clipPath id="clip0_92_54">
<rect width="31" height="21" fill="white"/>
</clipPath>
</defs>
</svg>
