<svg width="131" height="71" viewBox="0 0 131 71" fill="none" xmlns="http://www.w3.org/2000/svg">
<path d="M73.9 46L73 45.2L75.2 43L76.1 43.9L73.9 46Z" fill="#404041"/>
<path d="M76.6998 31.9L88.4998 20.2C88.5998 20.1 88.6998 20 88.6998 19.8C88.6998 19.7 88.5998 19.5 88.4998 19.4L81.8998 12.9C81.5998 12.7 81.1998 12.7 80.9998 12.9L69.1998 24.7C69.0998 24.7 69.0998 24.8 69.0998 24.8L68.9998 24.9L68.7998 24.8C67.5998 24.4 66.2998 24.2 64.9998 24.2C58.5998 24.2 53.3998 29.3 53.3998 35.6C53.3998 36.9 53.5998 38.1 53.9998 39.3L54.0998 39.4L42.4998 50.8C42.3998 50.9 42.2998 51 42.2998 51.2C42.2998 51.3 42.3998 51.5 42.4998 51.6L49.0998 58.1C49.3998 58.3 49.7998 58.3 49.9998 58.1L61.9998 46.5H62.0998C63.0998 46.8 64.0998 46.9 65.1998 46.9C71.5998 46.9 76.7998 41.8 76.7998 35.5C76.7998 34.4 76.5998 33.3 76.2998 32.3L76.1998 32.1L76.3998 32C76.4998 32 76.5998 32 76.6998 31.9ZM80.0998 15.5L81.4998 14.2L87.1998 19.8L86.1998 20.7H80.0998V15.5ZM75.8998 19.7L78.8998 16.7V21.3C78.8998 21.7 79.1998 21.9 79.4998 21.9H84.9998L81.9998 24.9H75.8998V19.7ZM50.8998 55.5L49.4998 56.8L43.7998 51.2L44.7998 50.3H50.8998V55.5ZM55.0998 51.3L52.0998 54.3V49.7C52.0998 49.4 51.7998 49.1 51.4998 49.1H45.9998L48.9998 46.1H55.0998V51.3ZM56.2998 50.1V45.5C56.2998 45.2 55.9998 44.9 55.6998 44.9H50.1998L54.5998 40.5L54.7998 40.8C55.9998 43 57.8998 44.8 60.1998 45.9L60.4998 46L56.2998 50.1ZM65.0998 45.7C59.3998 45.7 54.6998 41.1 54.6998 35.5C54.6998 29.9 59.3998 25.3 65.0998 25.3C70.7998 25.3 75.4998 29.9 75.4998 35.5C75.4998 41.1 70.7998 45.7 65.0998 45.7ZM75.7998 31L75.6998 30.7C74.5998 28.5 72.7998 26.6 70.4998 25.4L70.1998 25.3L74.5998 20.9V25.5C74.5998 25.8 74.8998 26.1 75.2998 26.1H80.7998L75.7998 31ZM65.0998 27.4C60.5998 27.4 56.8998 31 56.8998 35.5C56.8998 40 60.5998 43.6 65.0998 43.6C69.5998 43.6 73.2998 40 73.2998 35.5C73.2998 31 69.6998 27.4 65.0998 27.4ZM65.0998 42.4C61.1998 42.4 58.0998 39.3 58.0998 35.5C58.0998 31.7 61.1998 28.6 65.0998 28.6C68.8998 28.6 72.0998 31.7 72.0998 35.5C72.0998 39.3 68.9998 42.4 65.0998 42.4ZM65.5998 34.9V31.6H64.3998V36.1H69.7998V34.9H65.5998Z" fill="#404041"/>
</svg>
