<svg xmlns="http://www.w3.org/2000/svg" width="39.283" height="39.284" viewBox="0 0 39.283 39.284">
  <g id="Group_1283" data-name="Group 1283" transform="translate(-1319.188 -1150.011)">
    <path id="Path_817" data-name="Path 817" d="M1352.773,1155.657c-12.583-12.166-33.413-3.342-33.42,13.822a19.364,19.364,0,0,0,2.611,9.73l-2.776,10.086,10.369-2.7c12.938,6.989,28.907-2.293,28.914-17.1a19.308,19.308,0,0,0-5.721-13.768Z" fill="#37b24a"/>
    <path id="Path_818" data-name="Path 818" d="M1347.842,1173.43l-.014.123c-3.6-1.795-3.975-2.033-4.441-1.336-.322.483-1.262,1.578-1.545,1.9s-.572.344-1.057.123a13.266,13.266,0,0,1-3.933-2.431,14.75,14.75,0,0,1-2.717-3.389c-.481-.828.523-.945,1.436-2.674a.9.9,0,0,0-.04-.857c-.123-.246-1.1-2.652-1.51-3.611-.392-.956-.8-.834-1.1-.834a2.431,2.431,0,0,0-2.239.562c-2.642,2.9-1.976,5.9.285,9.084,4.442,5.815,6.807,6.885,11.136,8.371a6.769,6.769,0,0,0,3.078.2c.939-.148,2.891-1.179,3.3-2.334a4.049,4.049,0,0,0,.294-2.332C1348.654,1173.774,1348.334,1173.65,1347.842,1173.43Z" fill="#fff"/>
  </g>
</svg>
