<svg width="18" height="16" viewBox="0 0 18 16" fill="none" xmlns="http://www.w3.org/2000/svg">
<g clip-path="url(#clip0_263_1209)">
<path d="M8.99994 16.0001C8.74229 16.0018 8.49297 15.9089 8.2993 15.7392C7.57166 15.1042 6.87001 14.5071 6.25146 13.9811C4.65113 12.7064 3.15629 11.305 1.78149 9.79018C0.673323 8.59517 0.0389378 7.03761 -0.00305822 5.40908C-0.0276266 3.9954 0.482413 2.6245 1.42521 1.57009C1.88268 1.07159 2.43973 0.674604 3.0604 0.404682C3.68106 0.134761 4.3515 -0.00210121 5.02839 0.003071C6.05456 -0.00130856 7.05171 0.343284 7.85592 0.980122C8.29267 1.3204 8.67798 1.72189 8.99994 2.17214C9.32179 1.72212 9.70671 1.32067 10.1429 0.980122C10.9475 0.343282 11.945 -0.00129691 12.9715 0.003071C13.6484 -0.00203898 14.3188 0.134887 14.9394 0.404804C15.5601 0.674722 16.1172 1.07164 16.5747 1.57009C17.5175 2.6245 18.0275 3.9954 18.0029 5.40908C17.9613 7.03788 17.3264 8.59567 16.2174 9.79018C14.8433 11.305 13.3491 12.7065 11.7494 13.9811C11.1298 14.5081 10.4282 15.1071 9.69856 15.7421C9.50497 15.9103 9.25651 16.0021 8.99994 16.0001ZM5.02839 1.0541C4.49773 1.04983 3.97209 1.15683 3.48539 1.36818C2.9987 1.57953 2.56178 1.89059 2.20288 2.28115C1.44077 3.14167 1.03093 4.25736 1.05489 5.40615C1.0951 6.78941 1.64379 8.10942 2.59624 9.11415C3.93331 10.5812 5.38519 11.9395 6.93811 13.1762C7.55866 13.7042 8.26328 14.3041 8.99493 14.9441C9.73159 14.3031 10.4362 13.7021 11.0598 13.1731C12.6116 11.9359 14.0628 10.5777 15.3996 9.1111C16.3527 8.10673 16.9019 6.78657 16.942 5.4031C16.9661 4.25411 16.5558 3.13827 15.793 2.2781C15.4343 1.88746 14.9976 1.57649 14.5111 1.36513C14.0245 1.15377 13.499 1.0468 12.9684 1.05117C12.1758 1.04906 11.406 1.31555 10.7845 1.80715C10.2966 2.19763 9.8844 2.67418 9.56844 3.21315C9.50959 3.31222 9.42593 3.39431 9.32573 3.45131C9.22553 3.50831 9.11225 3.53823 8.99695 3.53823C8.88164 3.53823 8.7683 3.50831 8.6681 3.45131C8.5679 3.39431 8.48424 3.31222 8.42539 3.21315C8.109 2.67419 7.69656 2.19766 7.20837 1.80715C6.58764 1.31748 5.81928 1.05204 5.02839 1.0541Z" fill="#d7b402"/>
</g>
<defs>
<clipPath id="clip0_263_1209">
<rect width="18" height="16" fill="white"/>
</clipPath>
</defs>
</svg>
