<svg width="32" height="32" viewBox="0 0 32 32" fill="none" xmlns="http://www.w3.org/2000/svg">
<g clip-path="url(#clip0_90_1066)">
<path d="M16.9936 31.9999H14.9939C14.9146 31.9815 14.8362 31.9523 14.756 31.9465C13.3255 31.8455 11.9367 31.5425 10.5905 31.0568C2.67997 28.2057 -1.66671 19.7686 0.598441 11.6703C3.40776 1.62491 14.9488 -3.08483 24.0086 2.17575C28.2785 4.6554 30.8449 8.40783 31.748 13.2753C31.854 13.8462 31.9099 14.4262 31.9883 15.0021V16.9393C31.9708 17.0394 31.9491 17.1387 31.9349 17.2397C31.8481 17.8674 31.793 18.5017 31.6729 19.1235C30.4276 25.5642 25.2179 30.6528 18.7472 31.7537C18.1654 31.853 17.5779 31.9181 16.9928 31.9991L16.9936 31.9999ZM15.9988 22.0171C17.6647 22.0171 19.3297 22.0187 20.9956 22.0146C21.2552 22.0146 21.5189 22.0121 21.7726 21.9653C23.3392 21.6765 24.4 20.4121 24.4134 18.7921C24.4292 16.9284 24.42 15.0647 24.4134 13.201C24.4134 12.9632 24.385 12.7211 24.3324 12.4899C23.9902 10.9851 22.7642 9.9986 21.1726 9.99193C17.7164 9.97857 14.2611 9.98692 10.805 9.98942C10.608 9.98942 10.4077 10.0003 10.2149 10.0362C8.66166 10.3266 7.59252 11.5802 7.57583 13.1793C7.5558 15.0639 7.56832 16.9484 7.57499 18.8322C7.57499 19.0592 7.6042 19.2912 7.65428 19.5124C8.00232 21.0364 9.24589 22.0054 10.8776 22.0129C12.5844 22.0212 14.292 22.0146 15.9988 22.0146V22.0171Z" fill="#ADADAD"/>
<path d="M13.8012 13.4355C15.276 14.2952 16.7215 15.1382 18.213 16.0087C16.719 16.8758 15.2776 17.7121 13.8012 18.5693V13.4355Z" fill="#ADADAD"/>
</g>
<defs>
<clipPath id="clip0_90_1066">
<rect width="31.9883" height="32" fill="white"/>
</clipPath>
</defs>
</svg>
