<svg width="131" height="72" viewBox="0 0 131 72" fill="none" xmlns="http://www.w3.org/2000/svg">
<path d="M66.0999 55.9759C65.4999 55.9759 64.8999 55.9759 64.2999 55.8745C58.2999 55.4688 53.7999 53.2378 50.7999 49.2829C45.4999 42.1843 47.3999 32.2463 47.4999 31.8407C47.6999 30.7252 48.7999 30.0153 49.8999 30.2181C50.9999 30.4209 51.6999 31.5364 51.4999 32.6519C51.4999 32.7533 49.8999 41.1702 54.0999 46.7477C56.2999 49.6886 59.8999 51.4125 64.5999 51.7167C68.8999 52.0209 72.2999 51.0069 74.5999 48.4716C79.8999 43.097 78.8999 32.6519 78.8999 32.5505C78.7999 31.435 79.5999 30.4209 80.6999 30.3195C81.7999 30.2181 82.7999 31.0294 82.8999 32.1449C82.9999 32.6519 84.0999 44.6181 77.5999 51.5139C74.7999 54.4547 70.8999 55.9759 66.0999 55.9759Z" fill="#404041"/>
<path d="M82.8 63.1765C80.4 63.1765 78.4 62.5681 76.8 61.4526C72.2 58.2075 72.7 51.8188 72.7 51.5146C72.8 50.3991 73.8 49.4864 74.9 49.6892C76 49.7906 76.8 50.8047 76.7 51.9202C76.7 51.9202 76.4 56.2808 79.1 58.1061C80.8 59.323 84.4 59.9315 91.6 56.8892C89.5 53.5427 86.8 46.0385 88 30.016C88 28.9005 87.5 16.123 74.4 10.9512C68.7 8.72021 62.3 8.72021 56.6 10.9512C43.5 15.9202 43 28.7991 43 29.8132C44.2 45.8357 41.6 53.3399 39.4 56.6864C46.6 59.8301 50.2 59.1202 51.9 57.9033C54.6 56.0779 54.3 51.7174 54.3 51.7174C54.2 50.6019 55 49.5878 56.2 49.4864C57.3 49.385 58.3 50.1963 58.4 51.3118C58.4 51.616 58.9 58.0047 54.3 61.2498C50.2 64.0892 43.8 63.3794 35.2 59.2216C34.5 58.9174 34 58.2075 34 57.3963C34 56.585 34.4 55.9765 35.1 55.5709C35.6 55.1653 40.5 50.5005 39 29.9146V29.8132C39 29.6103 39.1 13.1822 55.2 6.99626C61.9 4.35964 69.3 4.46105 76 6.99626C91.9 13.2836 92 29.8132 92 30.016V30.1174C90.4 50.7033 95.4 55.4695 95.9 55.7737C96.6 56.078 96.9 56.7878 97 57.5991C97 58.4103 96.5 59.1202 95.8 59.4244C90.6 61.9596 86.2 63.1765 82.8 63.1765Z" fill="#404041"/>
<path d="M79.4008 29.7123C78.2008 29.7123 77.3008 28.6982 77.3008 27.5827C77.3008 26.3658 78.3008 25.4531 79.4008 25.4531C80.6008 25.4531 81.5008 26.4672 81.5008 27.5827C81.6008 28.6982 80.6008 29.7123 79.4008 29.7123ZM79.4008 26.5686C78.9008 26.5686 78.5008 26.9743 78.5008 27.4813C78.5008 27.9883 78.9008 28.394 79.4008 28.394C79.9008 28.394 80.3008 27.9883 80.3008 27.4813C80.4008 26.9743 80.0008 26.5686 79.4008 26.5686Z" fill="#404041"/>
<path d="M70.2 22.1065C69 22.1065 68 21.0924 68 19.8755C68 18.6586 69 17.6445 70.2 17.6445C71.4 17.6445 72.4 18.6586 72.4 19.8755C72.4 21.0924 71.4 22.1065 70.2 22.1065ZM70.2 18.8614C69.7 18.8614 69.2 19.2671 69.2 19.8755C69.2 20.3826 69.6 20.8896 70.2 20.8896C70.8 20.8896 71.2 20.484 71.2 19.8755C71.2 19.3685 70.8 18.8614 70.2 18.8614Z" fill="#404041"/>
<path d="M84.9 32.3477C83.9 32.3477 83 31.5364 83 30.4209C83 29.3054 83.8 28.4941 84.9 28.4941C86 28.4941 86.8 29.3054 86.8 30.4209C86.8 31.5364 86 32.3477 84.9 32.3477ZM84.9 29.711C84.5 29.711 84.2 30.0153 84.2 30.4209C84.2 30.8265 84.5 31.1308 84.9 31.1308C85.3 31.1308 85.6 30.8265 85.6 30.4209C85.6 30.1167 85.3 29.711 84.9 29.711Z" fill="#404041"/>
<path d="M74.6004 25.8585C73.4004 25.8585 72.4004 24.8444 72.4004 23.6275C72.4004 22.4106 73.4004 21.3965 74.6004 21.3965C75.8004 21.3965 76.8004 22.4106 76.8004 23.6275C76.8004 24.8444 75.9004 25.8585 74.6004 25.8585ZM74.6004 22.6134C74.0004 22.6134 73.6004 23.1204 73.6004 23.6275C73.6004 24.2359 74.1004 24.6416 74.6004 24.6416C75.2004 24.6416 75.6004 24.1345 75.6004 23.6275C75.8004 23.019 75.2004 22.6134 74.6004 22.6134Z" fill="#404041"/>
<path d="M65.4 18.8617C64.1 18.8617 63 17.7463 63 16.4279C63 15.1096 64.1 13.9941 65.4 13.9941C66.7 13.9941 67.8 15.1096 67.8 16.4279C67.8 17.7463 66.8 18.8617 65.4 18.8617ZM65.4 15.211C64.7 15.211 64.2 15.7181 64.2 16.4279C64.2 17.1378 64.7 17.6448 65.4 17.6448C66.1 17.6448 66.6 17.1378 66.6 16.4279C66.6 15.7181 66 15.211 65.4 15.211Z" fill="#404041"/>
<path d="M65.4 13.1816C64.3 13.1816 63.5 12.269 63.5 11.2549C63.5 10.2408 64.4 9.32812 65.4 9.32812C66.5 9.32812 67.3 10.2408 67.3 11.2549C67.3 12.269 66.4 13.1816 65.4 13.1816ZM65.4 10.545C65 10.545 64.7 10.8493 64.7 11.2549C64.7 11.6605 65 11.9647 65.4 11.9647C65.8 11.9647 66.1 11.6605 66.1 11.2549C66.1 10.8493 65.8 10.545 65.4 10.545Z" fill="#404041"/>
<path d="M65.4 30.7266C64.4 30.7266 63.5 29.9153 63.5 28.7998C63.5 27.7857 64.3 26.873 65.4 26.873C66.4 26.873 67.3 27.6843 67.3 28.7998C67.2 29.9153 66.4 30.7266 65.4 30.7266ZM65.4 28.0899C65 28.0899 64.7 28.3942 64.7 28.7998C64.7 29.2054 65 29.5097 65.4 29.5097C65.8 29.5097 66.1 29.2054 66.1 28.7998C66.1 28.4956 65.8 28.0899 65.4 28.0899Z" fill="#404041"/>
<path d="M65.4002 26.2634C64.8002 26.2634 64.3002 25.9592 63.8002 25.2493C62.4002 23.424 63.8002 20.9902 64.5002 20.0775C64.7002 19.8747 64.9002 19.6719 65.2002 19.6719C65.5002 19.6719 65.8002 19.7733 66.0002 19.9761C68.5002 22.3085 67.3002 24.7423 67.3002 24.8437C67.2002 24.9451 66.7002 26.162 65.7002 26.2634C65.5002 26.2634 65.5002 26.2634 65.4002 26.2634ZM65.3002 20.9902C64.8002 21.7 63.8002 23.424 64.7002 24.5395C65.0002 24.9451 65.3002 25.1479 65.5002 25.0465C65.8002 25.0465 66.1002 24.5395 66.2002 24.3367C66.2002 24.2353 66.9002 22.6127 65.3002 20.9902Z" fill="#404041"/>
<path d="M51.4008 29.7123C50.2008 29.7123 49.3008 28.6982 49.3008 27.5827C49.3008 26.3658 50.3008 25.4531 51.4008 25.4531C52.6008 25.4531 53.5008 26.4672 53.5008 27.5827C53.5008 28.6982 52.7008 29.7123 51.4008 29.7123ZM51.4008 26.5686C50.9008 26.5686 50.5008 26.9743 50.5008 27.4813C50.5008 27.9883 50.9008 28.394 51.4008 28.394C51.9008 28.394 52.3008 27.9883 52.3008 27.4813C52.4008 26.9743 51.9008 26.5686 51.4008 26.5686Z" fill="#404041"/>
<path d="M60.7 22.1065C59.5 22.1065 58.5 21.0924 58.5 19.8755C58.5 18.6586 59.5 17.6445 60.7 17.6445C61.9 17.6445 62.9 18.6586 62.9 19.8755C62.9 21.0924 61.8 22.1065 60.7 22.1065ZM60.7 18.8614C60.2 18.8614 59.7 19.2671 59.7 19.8755C59.7 20.3826 60.1 20.8896 60.7 20.8896C61.2 20.8896 61.7 20.484 61.7 19.8755C61.7 19.3685 61.2 18.8614 60.7 18.8614Z" fill="#404041"/>
<path d="M45.9 32.3477C44.9 32.3477 44 31.5364 44 30.4209C44 29.3054 44.8 28.4941 45.9 28.4941C47 28.4941 47.8 29.3054 47.8 30.4209C47.8 31.5364 47 32.3477 45.9 32.3477ZM45.9 29.711C45.5 29.711 45.2 30.0153 45.2 30.4209C45.2 30.8265 45.5 31.1308 45.9 31.1308C46.3 31.1308 46.6 30.8265 46.6 30.4209C46.7 30.1167 46.3 29.711 45.9 29.711Z" fill="#404041"/>
<path d="M56.2 25.8585C55 25.8585 54 24.8444 54 23.6275C54 22.4106 55 21.3965 56.2 21.3965C57.4 21.3965 58.4 22.4106 58.4 23.6275C58.4 24.8444 57.4 25.8585 56.2 25.8585ZM56.2 22.6134C55.6 22.6134 55.2 23.1204 55.2 23.6275C55.2 24.2359 55.7 24.6416 56.2 24.6416C56.8 24.6416 57.2 24.1345 57.2 23.6275C57.2 23.019 56.8 22.6134 56.2 22.6134Z" fill="#404041"/>
<path d="M39.7994 66.9291C38.9994 66.9291 38.2994 66.4221 37.9994 65.7122C37.5994 64.6981 38.0994 63.5826 39.0994 63.2784L49.8994 59.2221C50.8994 58.8164 51.9994 59.3235 52.2994 60.3376C52.6994 61.3516 52.1994 62.4671 51.1994 62.7714L40.3994 66.8277C40.2994 66.9291 40.1994 66.9291 39.7994 66.9291Z" fill="#404041"/>
<path d="M91.3006 66.9291C91.1006 66.9291 90.9006 66.9291 90.6006 66.8277L79.8006 62.7714C78.8006 62.3657 78.3006 61.2502 78.7006 60.3376C79.1006 59.3235 80.2006 58.8164 81.1006 59.2221L91.9006 63.2784C92.9006 63.684 93.4006 64.7995 93.0006 65.7122C92.8006 66.4221 92.1006 66.9291 91.3006 66.9291Z" fill="#404041"/>
</svg>
