<svg width="131" height="72" viewBox="0 0 131 72" fill="none" xmlns="http://www.w3.org/2000/svg">
<path fill-rule="evenodd" clip-rule="evenodd" d="M82.9269 43.8895C84.2142 56.085 68.0744 64.711 67.3813 65.0085L65.5 66L63.6187 65.0085C62.9256 64.6119 46.7858 56.085 48.0731 43.8895C48.6672 37.9405 52.9249 34.1728 58.9649 34.1728C60.8462 34.1728 62.9256 34.6686 64.7079 35.4618V31.7932C64.7079 31.3966 65.1039 31 65.5 31C65.8961 31 66.2921 31.3966 66.2921 31.7932V35.4618C68.0744 34.6686 70.1538 34.1728 72.0351 34.1728C78.0751 34.1728 82.3328 38.0397 82.9269 43.8895ZM81.3427 44.0878C80.8476 39.0312 77.184 35.7592 72.0351 35.7592C69.9558 35.7592 67.7774 36.3541 65.8961 37.3456L65.5 37.5439L65.1039 37.3456C63.2226 36.255 61.0442 35.7592 58.9649 35.7592C53.816 35.7592 50.2514 39.0312 49.6573 44.0878C48.4691 55.2918 63.7177 63.3229 64.4108 63.6204L65.5 64.2153L66.5892 63.6204C67.2823 63.3229 82.5309 55.1926 81.3427 44.0878Z" fill="#404041"/>
<path fill-rule="evenodd" clip-rule="evenodd" d="M65.601 62L65.1971 61.8016C64.5912 61.504 49.9494 53.9643 51.0601 43.8452C51.565 38.7857 55.4022 37 58.8354 37C61.2589 37 63.6824 37.7937 65.5 39.1825C67.3176 37.7937 69.7411 37 72.1646 37C75.5978 37 79.435 38.7857 79.9399 43.8452C81.0506 53.9643 66.4088 61.504 65.8029 61.8016L65.601 62ZM58.9364 38.4881C57.2198 38.4881 53.1807 39.0833 52.6758 44.0437C51.767 52.2778 63.3795 59.123 65.601 60.3135C67.8225 59.123 79.435 52.2778 78.5262 44.0437C78.0213 39.0833 73.9822 38.4881 72.2655 38.4881C70.044 38.4881 67.7215 39.381 66.1059 40.6706L65.601 41.0675L65.0961 40.7698C63.4804 39.381 61.1579 38.4881 58.9364 38.4881Z" fill="#404041"/>
<path d="M98.75 6.27692C98.375 5.90769 97.75 5.90769 97.25 6.27692C97.125 6.52308 97 6.76923 97 7.01538C97 7.26154 97.125 7.50769 97.25 7.75385C97.5 7.87692 97.75 8 98 8C98.25 8 98.5 7.87692 98.75 7.75385C98.875 7.50769 99 7.26154 99 7.01538C99 6.76923 98.875 6.52308 98.75 6.27692Z" fill="#404041"/>
<path fill-rule="evenodd" clip-rule="evenodd" d="M98 8C97.7273 8 97.5455 7.91304 97.2727 7.73913V7.65217C97.0909 7.47826 97 7.21739 97 6.95652C97 6.69565 97.0909 6.43478 97.2727 6.26087C97.5455 5.91304 98.2727 5.91304 98.7273 6.26087C98.9091 6.43478 99 6.69565 99 6.95652C99 7.21739 98.9091 7.3913 98.7273 7.65217L98.6364 7.73913C98.4545 7.91304 98.2727 8 98 8ZM97.6364 7.30435C97.8182 7.47826 98.0909 7.47826 98.2727 7.30435C98.3636 7.21739 98.3636 7.13043 98.3636 6.95652C98.3636 6.78261 98.3636 6.69565 98.2727 6.6087C98.1818 6.52174 98.0909 6.52174 97.9091 6.52174C97.8182 6.52174 97.7273 6.52174 97.5455 6.6087C97.4546 6.69565 97.4545 6.78261 97.4545 6.86957C97.5455 7.13044 97.6364 7.21739 97.6364 7.30435Z" fill="#404041"/>
<path d="M62.4442 32C62.753 32 62.9382 31.8 63 31.5333C63 31.2667 62.8147 31 62.5677 31C62.3206 31 62.0736 31.2 62.0118 31.4667C61.9501 31.7333 62.1354 32 62.4442 32Z" fill="#404041"/>
<path fill-rule="evenodd" clip-rule="evenodd" d="M62.4348 33C61.5217 33 61 32.1818 61 31.3636C61 30.5455 61.6522 30 62.4348 30H62.5652C62.9565 30 63.3478 30.2727 63.6087 30.5455C63.8696 30.8182 64 31.2273 64 31.6364C63.8696 32.4545 63.2174 33 62.4348 33ZM62.5652 30.8182C62.1739 30.8182 61.913 31.0909 61.7826 31.5C61.7826 31.9091 62.0435 32.1818 62.4348 32.1818C62.8261 32.1818 63.087 31.9091 63.087 31.5C63.087 31.3636 63.087 31.0909 62.9565 30.9545C62.8261 30.9545 62.6957 30.8182 62.5652 30.8182Z" fill="#404041"/>
<path d="M69.0118 32C69.6294 32 70 31.7524 70 31.4429C70 31.1953 69.5059 30.9477 68.8883 31.0096C68.2707 31.0096 67.9001 31.2572 68.0237 31.5048C68.0237 31.8143 68.3942 32 69.0118 32Z" fill="#404041"/>
<path fill-rule="evenodd" clip-rule="evenodd" d="M69.0834 33C68.4514 33 68.0903 32.4545 68 31.6364C68 31.2273 68.0903 30.8182 68.2709 30.5455C68.4514 30.2727 68.7223 30.1364 68.9028 30H68.9931C69.5348 30 69.9863 30.5455 69.9863 31.3636C70.0766 32.1818 69.7154 33 69.0834 33ZM69.0834 30.8182C68.9029 30.8182 68.8126 30.9545 68.7223 31.0909C68.632 31.2273 68.5417 31.3636 68.632 31.6364C68.632 31.9091 68.8126 32.3182 69.0834 32.3182H69.1737C69.4446 32.3182 69.6251 31.9091 69.6251 31.6364C69.4446 31.0909 69.264 30.8182 69.0834 30.8182Z" fill="#404041"/>
<path d="M58.8646 32H58.9882C59.4822 32 59.8528 31.6286 59.9763 31.1334C60.0999 30.6382 59.7293 30.0192 59.1117 30.0192C58.4941 29.8954 58 30.3906 58 30.8858C58 31.5048 58.3706 32 58.8646 32Z" fill="#404041"/>
<path fill-rule="evenodd" clip-rule="evenodd" d="M58.9989 32H58.9091C58.3705 31.9097 57.9217 31.368 58.0115 30.8264C58.1013 30.2847 58.6398 29.9235 59.1784 30.0138C59.717 30.1041 60.076 30.6458 59.9863 31.1875C59.9863 31.6389 59.5374 32 58.9989 32ZM58.9989 30.5555C58.7296 30.5555 58.5501 30.7361 58.5501 30.9166C58.5501 31.1875 58.7296 31.368 58.9091 31.4583H58.9989C59.1784 31.4583 59.4477 31.2778 59.4477 31.0972C59.5374 30.8264 59.3579 30.6458 58.9989 30.5555C59.0886 30.5555 59.0886 30.5555 58.9989 30.5555Z" fill="#404041"/>
<path d="M72 32H72.125C72.625 31.875 73 31.375 73 30.875C72.875 30.375 72.375 30 71.875 30C71.25 30.125 71 30.625 71 31.125C71 31.75 71.5 32 72 32Z" fill="#404041"/>
<path fill-rule="evenodd" clip-rule="evenodd" d="M72.0011 32C71.5523 32 71.1035 31.619 71.0137 31.1429C70.924 30.5714 71.283 30.0952 71.8216 30C71.9113 30 71.9113 30 72.0011 30C72.4499 30 72.8987 30.381 72.9884 30.8571C73.0782 31.4286 72.6294 32 72.1806 32C72.0909 32 72.0011 32 72.0011 32ZM72.0011 30.4762C71.9113 30.4762 71.9113 30.4762 72.0011 30.4762C71.6421 30.4762 71.5523 30.7619 71.5523 31.0476C71.5523 31.2381 71.7318 31.4286 72.0011 31.4286C72.0011 31.4286 72.0909 31.4286 72.1806 31.4286C72.3601 31.4286 72.5397 31.1429 72.5397 30.9524C72.3601 30.6667 72.1806 30.4762 72.0011 30.4762Z" fill="#404041"/>
<path d="M55.7559 31C55.878 31 55.878 31 56 31C56.4882 31 56.8543 30.8765 56.9763 30.6295C57.0984 30.3825 56.7323 30.0737 56.2441 30.012C55.7559 29.9502 55.1457 30.1355 55.0237 30.3825C54.9016 30.6912 55.2677 30.9382 55.7559 31Z" fill="#404041"/>
<path fill-rule="evenodd" clip-rule="evenodd" d="M56.0293 32C55.937 32 55.8447 32 55.7524 31.8668C55.2911 31.7336 54.922 30.9343 55.0142 30.135C55.1065 29.3357 55.7524 28.8029 56.2138 29.0693C56.7674 29.2025 57.1365 30.0018 56.952 30.8011C56.8597 31.6004 56.4906 32 56.0293 32ZM56.0293 29.8686C55.8447 29.8686 55.6602 30.135 55.5679 30.4014C55.4756 30.8011 55.6602 31.0675 55.937 31.2007C56.0293 31.2007 56.0293 31.2007 56.0293 31.2007C56.2138 31.2007 56.4906 30.9343 56.4906 30.6679C56.5829 30.2682 56.3983 30.0018 56.1215 29.8686C56.0292 30.0018 56.0293 29.8686 56.0293 29.8686Z" fill="#404041"/>
<path d="M75 31C75.1212 31 75.1212 31 75.2424 31C75.8485 30.9382 76.0909 30.6912 75.9697 30.3825C75.8485 30.1355 75.3636 29.9502 74.7576 30.012C74.1515 30.0737 73.9091 30.3207 74.0303 30.6295C74.1515 30.8765 74.5151 31 75 31Z" fill="#404041"/>
<path fill-rule="evenodd" clip-rule="evenodd" d="M75.2182 32H75.0366C74.5825 32 74.2193 31.4286 74.0376 30.8571C73.9468 30.4286 74.0376 30 74.1284 29.7143C74.3101 29.4286 74.4917 29.1429 74.7642 29C74.855 29 74.9458 29 74.9458 29C75.3999 29 75.8539 29.4286 75.9448 30.1429C76.1264 31 75.8539 31.7143 75.2182 32ZM75.0366 29.7143H74.9458C74.855 29.7143 74.7641 29.8571 74.6733 30C74.5825 30.1429 74.5825 30.4286 74.5825 30.5714C74.6733 30.8571 74.855 31.1429 75.0366 31.1429H75.1274C75.3999 31 75.4907 30.5714 75.4907 30.2857C75.4907 30 75.2182 29.7143 75.0366 29.7143Z" fill="#404041"/>
<path d="M52.6776 30C52.8066 30 52.9355 30 52.9355 30C53.4513 30 53.8382 29.8689 53.9671 29.6722C54.0961 29.41 53.8382 29.0823 53.3224 29.0167C52.8066 28.9512 52.1618 29.0823 52.0329 29.3445C51.9039 29.5411 52.1618 29.8689 52.6776 30Z" fill="#404041"/>
<path fill-rule="evenodd" clip-rule="evenodd" d="M53.0603 31C52.97 31 52.8798 31 52.6993 30.9112C52.4286 30.8224 52.2481 30.6449 52.0677 30.3785C51.9774 30.1121 51.9774 29.9346 52.0677 29.6682C52.2481 29.2243 52.7896 28.8691 53.331 29.0467C53.6017 29.1355 53.7822 29.3131 53.8724 29.4906C53.9626 29.757 54.0529 30.0233 53.9626 30.2897C53.8724 30.7336 53.5114 31 53.0603 31ZM53.0603 29.5794C52.8798 29.5794 52.6993 29.6682 52.6091 29.8458C52.5189 29.9346 52.6091 30.0233 52.6091 30.2009C52.6993 30.2897 52.7896 30.3785 52.8798 30.4673H52.97C53.1505 30.4673 53.331 30.3785 53.4212 30.2009C53.4212 30.1121 53.4212 29.9346 53.4212 29.8458C53.331 29.757 53.2407 29.6682 53.1505 29.6682C53.1505 29.5794 53.0603 29.5794 53.0603 29.5794Z" fill="#404041"/>
<path d="M78.4805 30C78.5435 30 78.6064 30 78.6693 30C78.921 29.8689 79.0469 29.6067 78.984 29.3445C78.921 29.0823 78.6064 28.9512 78.3547 29.0167C78.103 29.1478 77.9142 29.41 78.0401 29.6722C78.103 29.8033 78.2918 30 78.4805 30Z" fill="#404041"/>
<path fill-rule="evenodd" clip-rule="evenodd" d="M78.045 31C77.5952 31 77.2354 30.5909 77.0555 30.0455C76.8756 29.2273 77.1455 28.4091 77.6852 28.1364C77.7751 28.1364 77.8651 28 77.955 28C78.4048 28 78.8545 28.4091 78.9445 29.0909C79.1244 29.9091 78.8545 30.7273 78.3148 31C78.2249 31 78.1349 31 78.045 31ZM78.045 28.9545H77.955C77.7751 29.0909 77.5952 29.5 77.6852 29.9091C77.7751 30.1818 77.955 30.3182 78.1349 30.3182C78.2249 30.3182 78.2249 30.3182 78.3148 30.3182C78.4947 30.1818 78.6746 29.7727 78.5847 29.3636C78.4048 29.0909 78.2249 28.9545 78.045 28.9545Z" fill="#404041"/>
<path d="M50.0604 29C50.4225 29 50.7846 28.8733 50.9053 28.6832C51.1467 28.4298 50.9053 28.1131 50.4225 28.0497C49.9396 27.923 49.3361 28.0497 49.0947 28.3031C48.8533 28.5565 49.0947 28.8733 49.5775 28.9366C49.8189 28.9366 49.9397 29 50.0604 29Z" fill="#404041"/>
<path fill-rule="evenodd" clip-rule="evenodd" d="M50.0392 30C49.9498 30 49.8604 30 49.6817 29.8621H49.5923C49.1454 29.5862 48.8772 28.6207 49.056 27.931C49.3241 27.1034 49.9498 26.8276 50.3967 27.1034C50.6648 27.2414 50.8436 27.5172 50.933 27.931C51.0223 28.3448 51.0223 28.7586 50.933 29.0345C50.7542 29.5862 50.3967 30 50.0392 30ZM50.0392 27.7931C49.8604 27.7931 49.6817 27.931 49.5923 28.2069C49.5029 28.4828 49.5923 28.8966 49.8604 29.0345C49.9498 29.0345 50.0392 29.1724 50.0392 29.1724C50.2179 29.1724 50.3967 29.0345 50.4861 28.7586C50.5754 28.6207 50.5754 28.3448 50.4861 28.2069C50.4861 28.069 50.3073 27.931 50.2179 27.7931C50.1285 27.7931 50.0392 27.7931 50.0392 27.7931Z" fill="#404041"/>
<path d="M81.0293 29C81.154 29 81.2787 29 81.4034 28.9366C81.9022 28.8099 82.1516 28.5565 81.9022 28.3031C81.6528 28.0497 81.154 27.923 80.6552 28.0497C80.1565 28.1764 79.9071 28.4298 80.0318 28.6832C80.2812 28.8733 80.6552 29 81.0293 29Z" fill="#404041"/>
<path fill-rule="evenodd" clip-rule="evenodd" d="M81 30C80.6279 30 80.2558 29.5909 80.0698 29.1818C79.8837 28.3636 80.0698 27.4091 80.6279 27.1364C80.7209 27 80.907 27 81 27C81.3721 27 81.7442 27.4091 81.9302 27.9545C82.0233 28.2273 82.0233 28.6364 81.9302 29.0455C81.8372 29.4545 81.6512 29.7273 81.3721 29.8636H81.2791C81.2791 30 81.186 30 81 30ZM81 27.8182C80.907 27.8182 80.907 27.8182 80.814 27.8182C80.5349 27.9545 80.4419 28.3636 80.5349 28.7727C80.6279 29.0455 80.814 29.1818 81 29.1818C81.093 29.1818 81.093 29.1818 81.1861 29.1818C81.2791 29.0455 81.3721 28.9091 81.4651 28.7727C81.5581 28.6364 81.4651 28.5 81.4651 28.2273C81.3721 28.0909 81.186 27.8182 81 27.8182Z" fill="#404041"/>
<path d="M46.0935 26.5C45.8552 27 46.0935 27.625 46.5701 27.875C46.6893 28 46.8084 28 47.0467 28C47.4042 28 47.6425 27.75 47.8808 27.5C48.1192 27 48 26.375 47.5234 26.125C46.9276 25.875 46.451 26 46.0935 26.5Z" fill="#404041"/>
<path fill-rule="evenodd" clip-rule="evenodd" d="M46.9603 28C46.7819 28 46.6035 27.9081 46.5143 27.9081C46.0684 27.6325 45.89 26.9893 46.0684 26.5298C46.3359 26.0704 46.9603 25.8867 47.4063 26.0704C47.6738 26.1623 47.8522 26.438 47.9414 26.6217C48.0306 26.8974 48.0306 27.173 47.8522 27.4487C47.6738 27.8162 47.3171 28 46.9603 28ZM46.9603 26.5298C46.7819 26.5298 46.6035 26.6217 46.5143 26.8055C46.4251 26.9893 46.5143 27.2649 46.7819 27.4487C46.7819 27.4487 46.8711 27.5406 46.9603 27.5406C47.0495 27.5406 47.2279 27.4487 47.3171 27.2649C47.4063 27.173 47.4063 26.9893 47.4063 26.8974C47.4063 26.8055 47.3171 26.7136 47.2279 26.6217C47.0495 26.5298 46.9603 26.5298 46.9603 26.5298Z" fill="#404041"/>
<path d="M83.5 26.1757C83 26.4189 82.875 27.027 83.125 27.5135C83.375 27.8784 83.625 28 84 28C84.125 28 84.375 28 84.5 27.8784C85 27.6351 85.125 27.027 84.875 26.5405C84.625 26.0541 84 25.8108 83.5 26.1757Z" fill="#404041"/>
<path fill-rule="evenodd" clip-rule="evenodd" d="M83.9986 28C83.6476 28 83.2965 27.8182 83.121 27.4545C82.8577 26.9091 83.0332 26.3636 83.5598 26.0909C83.6476 26 83.8231 26 83.9986 26C84.3497 26 84.7008 26.1818 84.8763 26.5455C85.1396 27 84.9641 27.6364 84.5252 27.9091C84.3497 27.9091 84.1742 28 83.9986 28ZM83.9986 26.5455C83.9109 26.5455 83.8231 26.5455 83.8231 26.6364C83.6476 26.7273 83.5598 27 83.6476 27.2727C83.7353 27.5455 83.9986 27.6364 84.2619 27.4545C84.4375 27.3636 84.5252 27.0909 84.4375 26.8182C84.3497 26.6364 84.1742 26.5455 83.9986 26.5455Z" fill="#404041"/>
<path d="M43.1272 25.2195C42.8827 25.4797 43.005 25.8049 43.3718 25.935C43.4941 26 43.7387 26 43.9833 26C44.3502 26 44.5948 25.935 44.8393 25.7398C45.0839 25.4797 45.0839 25.1545 44.5948 25.0244C44.1056 24.9593 43.4941 25.0244 43.1272 25.2195Z" fill="#404041"/>
<path fill-rule="evenodd" clip-rule="evenodd" d="M43.9253 27C43.6655 27 43.4924 26.9078 43.4058 26.8156C42.9729 26.4467 42.8864 25.8934 43.1461 25.4323C43.4924 24.9712 44.0984 24.879 44.5313 25.1556C44.7044 25.2478 44.8776 25.5245 44.9641 25.7089C45.0507 25.9856 44.9641 26.2622 44.8776 26.5389C44.5313 26.8156 44.2716 27 43.9253 27ZM43.9253 25.5245C43.7521 25.5245 43.6655 25.6167 43.579 25.7089C43.4924 25.8934 43.4924 26.17 43.7521 26.3545C43.8387 26.3545 43.9253 26.4467 44.0118 26.4467C44.185 26.4467 44.2716 26.3545 44.3581 26.2622C44.4447 26.17 44.4447 25.9856 44.4447 25.8934C44.4447 25.8012 44.3581 25.7089 44.2715 25.6167C44.0984 25.5245 44.0118 25.5245 43.9253 25.5245Z" fill="#404041"/>
<path d="M86.3885 25.1042C85.9195 25.2236 85.9195 25.5222 86.154 25.7611C86.3885 25.8806 86.623 26 86.9748 26C87.2093 26 87.3265 25.9403 87.561 25.8806C88.03 25.7611 88.1472 25.4625 87.7955 25.2236C87.4437 24.9847 86.8575 24.925 86.3885 25.1042Z" fill="#404041"/>
<path fill-rule="evenodd" clip-rule="evenodd" d="M86.9856 27C86.6167 27 86.3401 26.7288 86.1556 26.3221C85.879 25.6442 85.9712 24.6952 86.4323 24.2885C86.8934 23.7462 87.5389 24.0173 87.9078 24.6952C88 24.9664 88 25.3731 88 25.7798C87.9078 26.1865 87.8156 26.5933 87.5389 26.7288C87.3545 26.8644 87.17 27 86.9856 27ZM86.9856 24.8308C86.8934 24.8308 86.8012 24.8308 86.7089 24.9664C86.5245 25.2375 86.4323 25.6442 86.6167 25.9154C86.7089 26.1865 86.9856 26.3221 87.2622 26.051C87.3545 25.9154 87.4467 25.7798 87.4467 25.6442C87.4467 25.5087 87.4467 25.3731 87.3545 25.2375C87.2623 24.9664 87.0778 24.8308 86.9856 24.8308Z" fill="#404041"/>
<path d="M41.1341 23.1555C40.946 23.4154 40.946 23.7402 41.1968 23.8701C41.2595 23.935 41.3849 24 41.5103 24C41.6356 24 41.8237 23.935 41.8864 23.8051C42.0745 23.5453 42.0118 23.2205 41.8237 23.0905C41.6356 22.9606 41.3222 22.9606 41.1341 23.1555Z" fill="#404041"/>
<path fill-rule="evenodd" clip-rule="evenodd" d="M41.9513 25C41.6891 25 41.5143 24.9072 41.3396 24.7215C40.9026 24.3502 40.9026 23.7005 41.2522 23.3292C41.6017 22.9579 42.2135 22.8651 42.6504 23.2364C42.8252 23.422 43 23.6077 43 23.8861C43 24.1646 42.9126 24.4431 42.8252 24.6287C42.4756 24.8144 42.2135 25 41.9513 25ZM41.8639 23.5148C41.7765 23.5148 41.6017 23.6077 41.5143 23.7005C41.3396 23.8861 41.3396 24.1646 41.6017 24.3502C41.7765 24.5359 42.0387 24.5359 42.2135 24.2574C42.3009 24.1646 42.3009 24.0718 42.3009 23.8861C42.3009 23.7933 42.2135 23.7005 42.1261 23.6077C42.0387 23.5148 41.9513 23.5148 41.8639 23.5148Z" fill="#404041"/>
<path d="M89.18 23.1146C88.9879 23.3043 88.9239 23.6205 89.1159 23.8103C89.244 23.9368 89.372 24 89.5 24C89.628 24 89.756 23.9368 89.82 23.8735C90.0121 23.6838 90.0761 23.3675 89.8841 23.1778C89.692 22.9881 89.372 22.9248 89.18 23.1146Z" fill="#404041"/>
<path fill-rule="evenodd" clip-rule="evenodd" d="M89.4321 25C89.0247 25 88.6174 24.9072 88.3458 24.6287C87.8026 24.1646 87.9384 23.6077 88.4816 23.2364C89.1605 22.8651 90.1111 22.9579 90.6542 23.3292C91.1974 23.7933 91.0616 24.3502 90.5184 24.7215C90.1111 24.9072 89.8395 25 89.4321 25ZM89.4321 23.5148C89.2963 23.5148 89.1605 23.5148 89.0247 23.6077C88.7532 23.7933 88.7532 24.0718 88.8889 24.2574C89.1605 24.4431 89.5679 24.4431 89.8395 24.2574C90.1111 24.0718 90.1111 23.7933 89.9753 23.6077C89.8395 23.6077 89.7037 23.5148 89.4321 23.5148Z" fill="#404041"/>
<path d="M91.2727 21.1778C90.9091 21.3675 90.9091 21.6838 91.2727 21.8735C91.5152 22 91.7576 22 92 22C92.2424 22 92.4848 21.9368 92.7273 21.8103C93.0909 21.6205 93.0909 21.3043 92.7273 21.1146C92.2424 20.9248 91.6364 20.9881 91.2727 21.1778Z" fill="#404041"/>
<path fill-rule="evenodd" clip-rule="evenodd" d="M92 22C91.7273 22 91.4545 21.908 91.2727 21.7241C91.0909 21.5402 91 21.3563 91 21.0805C91 20.8046 91.0909 20.5287 91.2727 20.3448C91.6364 19.8851 92.3636 19.8851 92.7273 20.3448C93.0909 20.7126 93.0909 21.3563 92.7273 21.7241C92.5455 21.908 92.2727 22 92 22ZM92 20.5287C91.8182 20.5287 91.7273 20.6207 91.6364 20.7126C91.5455 20.8046 91.5455 20.8966 91.5455 21.0805C91.5455 21.1724 91.6364 21.2644 91.6364 21.3563C91.7273 21.4483 91.8182 21.4483 92 21.4483C92.0909 21.4483 92.1818 21.4483 92.2727 21.3563C92.4545 21.1724 92.4545 20.8966 92.2727 20.7126C92.1818 20.5287 92.0909 20.5287 92 20.5287Z" fill="#404041"/>
<path d="M36.4241 18.2083C35.9122 18.5667 35.9122 19.0445 36.1681 19.5222C36.2961 19.7611 36.6801 20 36.936 20C37.192 20 37.32 19.8806 37.5759 19.7611C38.0878 19.5222 38.0878 18.8056 37.8319 18.4472C37.4479 17.9695 36.808 17.85 36.4241 18.2083Z" fill="#404041"/>
<path fill-rule="evenodd" clip-rule="evenodd" d="M36.9792 20C36.6231 20 36.3561 19.822 36.178 19.5549C36 19.3769 36 19.1099 36 18.8428C36 18.5758 36.178 18.3977 36.3561 18.2197C36.7121 17.8636 37.4242 17.9527 37.7803 18.3977C38.1364 18.8428 38.0473 19.4659 37.6023 19.733C37.3352 19.911 37.1572 20 36.9792 20ZM36.9792 18.5758C36.8901 18.5758 36.8011 18.5758 36.7121 18.6648C36.6231 18.7538 36.5341 18.8428 36.5341 18.9318C36.5341 19.0208 36.5341 19.1989 36.6231 19.2879C36.7121 19.4659 36.9792 19.5549 37.2462 19.3769C37.4242 19.2879 37.4242 18.9318 37.3352 18.7538C37.2462 18.5758 37.0682 18.5758 36.9792 18.5758Z" fill="#404041"/>
<path d="M93.1995 18.4043C92.8564 18.9362 92.9708 19.4681 93.4282 19.867C93.6569 20 93.7713 20 94 20C94.2287 20 94.5718 19.867 94.8005 19.6011C95.1436 19.0692 95.0292 18.4043 94.5718 18.1384C94.1144 17.8724 93.5426 18.0054 93.1995 18.4043Z" fill="#404041"/>
<path fill-rule="evenodd" clip-rule="evenodd" d="M93.9261 20C93.7528 20 93.5795 19.9078 93.4062 19.8156C92.9729 19.4467 92.8863 18.8012 93.1462 18.4323C93.4929 17.9712 94.0994 17.879 94.5327 18.1556C94.706 18.3401 94.8793 18.5245 94.966 18.8012C95.0527 19.0778 94.966 19.3545 94.7927 19.5389C94.5327 19.8156 94.2728 20 93.9261 20ZM93.9261 18.5245C93.7528 18.5245 93.6662 18.6167 93.5795 18.7089C93.4062 18.8934 93.4929 19.17 93.6662 19.3545C93.7528 19.4467 94.0994 19.5389 94.2728 19.2622C94.3594 19.17 94.3594 19.0778 94.3594 18.8934C94.3594 18.8012 94.2728 18.7089 94.1861 18.6167C94.0994 18.5245 94.0128 18.5245 93.9261 18.5245Z" fill="#404041"/>
<path d="M35.25 16.0625C35 16.1875 34.9375 16.5 35.0625 16.75C35.1875 16.9375 35.3125 17 35.5 17C35.5625 17 35.6875 17 35.75 16.9375C36 16.8125 36.0625 16.5 35.9375 16.25C35.8125 16 35.5 15.9375 35.25 16.0625Z" fill="#404041"/>
<path fill-rule="evenodd" clip-rule="evenodd" d="M35.5684 17C35.0186 17 34.4687 16.8129 34.1938 16.5322C33.7814 16.0645 34.0563 15.4096 34.7436 15.1289C35.7059 14.8483 36.5307 15.0354 36.8056 15.5967C36.9431 15.7838 37.0805 16.0645 36.9431 16.3451C36.8056 16.6258 36.5307 16.8129 36.1183 16.9064C36.1183 16.9064 35.8433 17 35.5684 17ZM35.5684 15.5032C35.4309 15.5032 35.2935 15.5032 35.156 15.5967C34.8811 15.6903 34.7436 15.9709 34.8811 16.2516C35.0186 16.4387 35.4309 16.5322 35.8433 16.4387C35.9808 16.3451 36.1183 16.2516 36.1183 16.158C36.1183 16.0645 36.1183 15.9709 36.1183 15.8774C36.1183 15.5967 35.8433 15.5032 35.5684 15.5032Z" fill="#404041"/>
<path d="M95.0569 16.2378C94.939 16.4919 94.998 16.8095 95.2927 16.9365C95.3516 17 95.4106 17 95.5285 17C95.7053 17 95.8821 16.873 95.9411 16.7459C96.0589 16.4919 96 16.2378 95.7642 16.1108C95.4106 15.9202 95.1748 15.9838 95.0569 16.2378Z" fill="#404041"/>
<path fill-rule="evenodd" clip-rule="evenodd" d="M95.5687 17C95.2938 17 95.019 17 94.8815 16.9066C94.4692 16.8132 94.1944 16.5329 94.0569 16.2527C93.9195 15.9724 94.0569 15.6922 94.1944 15.5053C94.6067 15.0383 95.5687 14.8514 96.2559 15.1317C96.6682 15.2251 96.9431 15.5053 96.9431 15.6922C97.0805 15.9724 96.9431 16.2527 96.8056 16.4395C96.6682 16.8132 96.1185 17 95.5687 17ZM95.5687 15.5053C95.2938 15.5053 95.019 15.5988 95.019 15.6922C94.8815 15.879 94.8815 15.9724 95.019 16.0658C95.019 16.1593 95.1564 16.3461 95.4313 16.3461C95.7062 16.4395 96.1185 16.3461 96.3933 16.1593C96.5308 16.0658 96.5308 15.9724 96.5308 15.7856C96.5308 15.6922 96.3933 15.5988 96.2559 15.5053C95.7062 15.5053 95.7062 15.5053 95.5687 15.5053Z" fill="#404041"/>
<path d="M34.9043 13.3445C34.6547 13.0823 34.1553 12.9512 33.656 13.0167C33.1566 13.1478 32.907 13.41 33.0318 13.6722C33.1566 13.8689 33.5312 14 33.9057 14C34.0305 14 34.1553 14 34.2802 14C34.9043 13.9344 35.154 13.6067 34.9043 13.3445Z" fill="#404041"/>
<path fill-rule="evenodd" clip-rule="evenodd" d="M34 15C33.5349 15 33.1628 14.6087 33.0698 13.9565C32.9767 13.6957 32.9767 13.3043 33.0698 12.913C33.1628 12.5217 33.3488 12.2609 33.6279 12.1304C33.7209 12.1304 33.814 12 33.907 12C34.3721 12 34.7442 12.3913 34.9302 12.913C35.0233 13.3043 35.0233 13.5652 34.9302 13.9565C34.8372 14.3478 34.5581 14.6087 34.3721 14.7391C34.2791 15 34.186 15 34 15ZM34 12.913C33.907 12.913 33.907 12.913 33.907 12.913C33.814 12.913 33.7209 13.0435 33.6279 13.3043C33.6279 13.4348 33.5349 13.5652 33.6279 13.8261C33.7209 14.3478 34.093 14.3478 34.2791 14.2174C34.3721 14.2174 34.4651 14.087 34.5581 13.8261C34.5581 13.6957 34.6512 13.5652 34.5581 13.4348C34.4651 13.0435 34.2791 12.913 34 12.913Z" fill="#404041"/>
<path d="M97.2618 13.0407C96.7696 12.9128 96.1544 13.1047 96.0314 13.3605C95.9083 13.6163 96.1544 13.8721 96.6466 14C96.7696 14 96.8926 14 97.0157 14C97.5078 14 97.7539 13.8721 98 13.6802C98 13.4244 97.877 13.1686 97.2618 13.0407Z" fill="#404041"/>
<path fill-rule="evenodd" clip-rule="evenodd" d="M96.9638 14C96.873 14 96.7823 14 96.6915 14C96.1468 13.8142 95.8745 13.1638 96.056 12.6992C96.2376 12.2347 96.7823 11.863 97.3269 12.0489C97.5993 12.1418 97.7808 12.3276 97.8716 12.5134C97.9624 12.7922 98.0532 13.0709 97.9624 13.3496C97.7808 13.7213 97.4177 14 96.9638 14ZM96.9638 12.5134C96.7823 12.5134 96.6007 12.6063 96.6007 12.7922C96.5099 13.0709 96.6007 13.2567 96.873 13.3496C96.873 13.3496 96.9638 13.3496 97.0546 13.3496C97.2362 13.3496 97.4177 13.2567 97.5085 13.0709C97.5085 12.978 97.5085 12.7922 97.5085 12.6992C97.4177 12.6063 97.3269 12.5134 97.2362 12.5134C97.0546 12.5134 97.0546 12.5134 96.9638 12.5134Z" fill="#404041"/>
<path d="M33.9874 10.4375C33.9224 10.1875 33.6625 10 33.4025 10C33.1426 10.0625 32.9476 10.3125 33.0126 10.5625C33.0776 10.8125 33.2725 11 33.5325 11H33.5975C33.8574 10.9375 34.0524 10.6875 33.9874 10.4375Z" fill="#404041"/>
<path fill-rule="evenodd" clip-rule="evenodd" d="M33.4841 11C32.8188 11 32.1534 10.6389 32.0204 10.1875C31.8873 9.64579 32.4196 9.10411 33.218 9.01383C34.1494 8.92355 34.8147 9.28467 34.9478 9.82635C35.0809 10.0972 34.9478 10.368 34.6817 10.5486C34.4155 10.7292 34.1494 10.9097 33.7502 10.9097C33.6172 11 33.4841 11 33.4841 11ZM33.351 9.55551C32.9518 9.55551 32.6857 9.82635 32.6857 10.0972C32.6857 10.2778 33.0849 10.4583 33.351 10.4583H33.4841C33.6172 10.4583 33.7502 10.368 33.8833 10.2778C34.0163 10.1875 34.0163 10.0972 34.0163 9.91663C34.0163 9.73607 33.7502 9.55551 33.351 9.55551Z" fill="#404041"/>
<path d="M97.5975 10.0128C97.2725 9.94694 97.0126 10.1444 97.0126 10.4077C96.9476 10.6709 97.1426 11 97.4025 11H97.4675C97.7275 11 97.9224 10.8026 97.9874 10.5393C98.0524 10.276 97.8574 10.0128 97.5975 10.0128Z" fill="#404041"/>
<path fill-rule="evenodd" clip-rule="evenodd" d="M98.0175 11H97.9282C97.6603 11 97.3923 10.8109 97.2137 10.6218C97.035 10.4327 96.9457 10.1491 97.035 9.86542C97.1244 9.29813 97.6603 8.91993 98.1962 9.01448C98.4641 9.01448 98.6427 9.20358 98.8214 9.48722C99 9.67632 99 9.95997 99 10.2436C98.8214 10.6218 98.4641 11 98.0175 11ZM97.9282 9.48722C97.7496 9.48722 97.5709 9.67632 97.4816 9.86542C97.4816 9.95997 97.4816 10.1491 97.5709 10.2436C97.6603 10.3382 97.7496 10.4327 97.8389 10.4327H97.9282C98.1068 10.4327 98.2855 10.2436 98.3748 10.0545C98.3748 9.95997 98.3748 9.86542 98.2855 9.77087C98.1962 9.67632 98.1068 9.58177 98.0175 9.58177C98.0175 9.48722 98.0175 9.48722 97.9282 9.48722Z" fill="#404041"/>
<path d="M33.75 7.85008C33.875 7.59042 34 7.33076 34 7.0711C34 6.81144 33.875 6.55178 33.75 6.29212C33.375 5.90263 32.75 5.90263 32.25 6.29212C32 6.55178 32 6.81144 32 6.94127C32 7.20093 32.125 7.46059 32.25 7.59042C32.5 7.85008 32.75 7.85008 33 7.85008C33.25 8.10975 33.5 7.97992 33.75 7.85008Z" fill="#404041"/>
<path fill-rule="evenodd" clip-rule="evenodd" d="M33 8C32.7273 8 32.4545 7.90476 32.2727 7.71429C32.0909 7.52381 32 7.2381 32 7.04762C32 6.7619 32.0909 6.57143 32.2727 6.28571C32.6364 5.90476 33.2727 5.90476 33.7273 6.28571C33.9091 6.47619 34 6.7619 34 7.04762C34 7.33333 33.9091 7.52381 33.7273 7.80952C33.4545 7.90476 33.1818 8 33 8ZM33 6.47619C32.9091 6.47619 32.8182 6.47619 32.6364 6.66667C32.5455 6.7619 32.5455 6.85714 32.5455 6.95238C32.5455 7.04762 32.5455 7.14286 32.6364 7.2381C32.7273 7.33333 32.8182 7.42857 33 7.42857C33.0909 7.42857 33.2727 7.33333 33.3636 7.2381C33.4545 7.14286 33.4545 7.04762 33.4545 6.95238C33.4545 6.85714 33.4545 6.66667 33.3636 6.57143C33.2727 6.47619 33.0909 6.47619 33 6.47619Z" fill="#404041"/>
<path d="M38.3986 21.1042C37.9175 21.2833 37.9175 21.5222 38.158 21.7611C38.2783 21.8806 38.6392 22 39 22C39.2406 22 39.3608 21.9403 39.6014 21.8806C40.0825 21.7014 40.0825 21.4028 39.842 21.2236C39.4811 20.9847 38.8797 20.925 38.3986 21.1042Z" fill="#404041"/>
<path fill-rule="evenodd" clip-rule="evenodd" d="M38.9919 23C38.6312 23 38.3607 22.733 38.1803 22.3324C38.0902 22.0653 38 21.6648 38 21.2642C38.0902 20.8636 38.1803 20.5966 38.3607 20.3296C38.7214 19.7955 39.4427 19.929 39.8034 20.5966C40.1641 21.2642 39.9837 22.1989 39.6231 22.5994C39.3525 22.8665 39.1722 23 38.9919 23ZM38.9919 20.8636C38.9017 20.8636 38.8115 20.8636 38.7214 20.9972C38.6312 21.1307 38.541 21.2642 38.541 21.3977C38.541 21.5313 38.541 21.7983 38.6312 21.9318C38.7214 22.1989 38.9919 22.3324 39.2624 22.0653C39.4427 21.9318 39.4427 21.3977 39.3525 21.1307C39.2624 20.9972 39.1722 20.8636 38.9919 20.8636Z" fill="#404041"/>
</svg>
