<svg width="131" height="72" viewBox="0 0 131 72" fill="none" xmlns="http://www.w3.org/2000/svg">
<path fill-rule="evenodd" clip-rule="evenodd" d="M71.8 32.8C71.4 32.8 71.1 32.9 70.8 32.9L70.2 30.6C70.2 30.6 70.3 30.6 70.4 30.6C70.5 30.6 70.5 30.6 70.6 30.5C75.8 29.4 80.2 27.2 83.6 23.8C87.3 19.9 89.1 15.5 89 10.5H85.4C85.4 12.2 85.2 13.8 84.7 15.4C82.3 23.3 73.1 28.9 62.8 28C57.2 27.5 52.6 25.4 49.1 21.8C45.9 18.5 44.5 14.8 44.6 10.6H41C41.1 11.9 41.1 13.3 41.4 14.6C43.2 22.2 48.6 27.4 57.3 30.1C57.8 30.3 58.4 30.4 58.9 30.5C59.2 30.6 59.5 30.6 59.8 30.7L59.2 33H58.9C58.5 33 58.1 33 57.7 33C56.9 33 56 32.9 55.2 33C50.2 33.4 45.9 37.3 45.8 41.5C45.7 44.3 46.8 46.6 49.1 48.5C51.9 50.8 54.7 53.2 57.5 55.5L64.6 61.3C64.7 61.4 64.7 61.4 64.8 61.5C64.8 61.5 64.9 61.6 65 61.6C65.1 61.6 65.2 61.5 65.2 61.5C66.7 60.2 68.2 59 69.8 57.7C73.6 54.5 77.4 51.4 81.2 48.2C83.8 46 84.7 43.4 84.1 40.4C83.1 35.5 77.7 32.2 71.8 32.8ZM65 31.1C66.2 31.1 67.2 32.1 67.2 33.3C67.2 34.5 66.2 35.5 65 35.5C63.8 35.5 62.8 34.5 62.8 33.3C62.8 32.1 63.8 31.1 65 31.1ZM78.4 46.1C75.2 48.8 72.1 51.4 68.9 54C67.7 55 66.5 56 65.3 57C65.2 57.1 65.1 57.1 65 57.2C65 57.2 64.9 57.1 64.8 57.1C64.7 57 64.6 57 64.5 56.9C60.2 53.3 55.8 49.7 51.5 46.1C48 43.2 48.8 38.5 53 36.5C55.6 35.2 59.1 35.5 61.4 37.2C62.2 37.8 62.9 38.4 63.6 39C63.9 39.3 64.3 39.6 64.6 39.8C64.7 39.9 64.8 39.9 64.9 40C65.7 39.3 66.6 38.6 67.4 37.9C68.6 36.9 70 36.1 71.7 35.8C75.7 35 80 37.5 80.4 41C80.8 43 80.1 44.7 78.4 46.1Z" fill="#404041"/>
</svg>
