<svg width="131" height="72" viewBox="0 0 131 72" fill="none" xmlns="http://www.w3.org/2000/svg">
<path fill-rule="evenodd" clip-rule="evenodd" d="M78.3992 44.9996L82.2992 41.9996L83.0992 41.3996V30.0996L82.5992 29.4996L76.0992 22.5996L82.4992 15.8996L83.4992 14.7996L82.7992 13.4996L79.7992 8.19961L77.8992 9.19961L76.8992 8.09961L66.1992 17.3996L65.1992 18.2996L65.6992 19.5996L67.6992 25.2996L67.4992 25.4996L68.0992 26.3996L68.2992 26.9996L68.4992 26.8996L73.1992 33.7996L68.5992 38.8996L68.0992 39.4996V51.1996L68.3992 51.6996L73.9992 61.1996L75.4992 63.6996L77.2992 61.4996L82.5992 54.9996L83.4992 53.8996L82.7992 52.6996L78.3992 44.9996ZM70.8992 22.2996L69.9992 19.6996L77.7992 12.8996L78.5992 14.2996L71.8992 21.1996L70.8992 22.2996ZM76.0992 56.7996L72.1992 50.2996V41.2996L77.2992 35.5996L78.3992 34.3996L77.4992 33.0996L72.7992 26.1996L73.3992 25.5996L79.1992 31.7996V39.4996L74.6992 42.9996L73.2992 44.0996L74.1992 45.5996L78.7992 53.5996L76.0992 56.7996Z" fill="#404041"/>
<path fill-rule="evenodd" clip-rule="evenodd" d="M60.3992 44.9996L64.2992 41.9996L65.0992 41.3996V30.0996L64.5992 29.4996L58.0992 22.5996L64.4992 15.8996L65.4992 14.7996L64.7992 13.4996L61.7992 8.19961L59.8992 9.19961L58.8992 8.09961L48.1992 17.3996L47.1992 18.2996L47.6992 19.5996L49.6992 25.2996L49.4992 25.4996L50.0992 26.3996L50.2992 26.9996L50.4992 26.8996L55.1992 33.7996L50.5992 38.8996L50.0992 39.4996V51.1996L50.3992 51.6996L55.9992 61.1996L57.4992 63.6996L59.2992 61.4996L64.5992 54.9996L65.4992 53.8996L64.7992 52.6996L60.3992 44.9996ZM52.8992 22.2996L51.9992 19.6996L59.7992 12.8996L60.5992 14.2996L53.8992 21.1996L52.8992 22.2996ZM58.0992 56.7996L54.1992 50.2996V41.2996L59.2992 35.5996L60.3992 34.3996L59.4992 33.0996L54.7992 26.1996L55.3992 25.5996L61.1992 31.7996V39.4996L56.6992 42.9996L55.2992 44.0996L56.1992 45.5996L60.7992 53.5996L58.0992 56.7996Z" fill="#404041"/>
</svg>
