<svg width="131" height="72" viewBox="0 0 131 72" fill="none" xmlns="http://www.w3.org/2000/svg">
<path fill-rule="evenodd" clip-rule="evenodd" d="M113.6 20.7008L93.3996 9.50078L92.1996 8.80078L91.1996 9.70078L78.8996 20.2008L58.1996 15.0008L57.9996 14.9008H40.7996L40.3996 16.3008L36.6996 28.5008L23.9996 40.9008L23.7996 41.1008L23.6996 41.3008L15.9996 53.3008L15.0996 54.7008L16.3996 55.8008L24.0996 62.6008L24.6996 63.1008H64.2996H64.4996L79.6996 60.2008H96.8996L97.3996 58.9008L102.1 46.3008L109.7 39.3008L110.3 38.7008V27.7008L114.3 23.7008L116.2 21.8008L113.6 20.7008ZM106.7 25.6008L106.1 26.2008V37.1008L98.7996 43.9008L98.4996 44.2008L98.2996 44.7008L93.9996 56.4008H79.1996H78.9996L63.7996 59.3008H26.0996L20.2996 54.1008L26.9996 43.7008L39.8996 31.3008L40.2996 30.9008L40.3996 30.4008L43.7996 19.1008H57.4996L78.9996 24.4008L79.9996 24.6008L80.7996 23.9008L92.7996 13.6008L109.5 22.9008L106.7 25.6008Z" fill="#404041"/>
</svg>
