<svg width="131" height="72" viewBox="0 0 131 72" fill="none" xmlns="http://www.w3.org/2000/svg">
<path fill-rule="evenodd" clip-rule="evenodd" d="M44.6008 51.8004V59.2004L48.2008 63.0004H50.5008L56.4008 61.1004L59.4008 56.9004L63.7008 59.2004L68.6008 61.1004H71.9008L80.5008 59.2004V51.8004V48.6004L86.5008 43.5004L97.0008 40.9004V34.5004L94.7008 32.9004V29.7004L92.7008 26.8004L86.4008 25.2004L84.7008 22.3004L82.4008 18.5004L80.4008 15.9004C80.3008 15.9004 79.8008 15.5004 78.4008 13.7004C77.1008 11.9004 73.4008 10.8004 71.8008 10.5004L68.5008 8.90039L63.6008 10.5004H56.3008H50.4008L44.4008 13.7004V18.5004V22.3004L40.8008 25.2004L36.8008 26.8004L33.8008 32.9004V38.0004L39.1008 43.4004L40.8008 48.5004H44.4008V51.8004H44.6008Z" fill="#404041"/>
</svg>
