<svg width="131" height="72" viewBox="0 0 131 72" fill="none" xmlns="http://www.w3.org/2000/svg">
<path fill-rule="evenodd" clip-rule="evenodd" d="M120.701 33.7C114.201 27.5 107.001 22.2 99.1007 17.9C88.6007 12.2 77.5007 8.6 65.5007 8.5C60.7007 8.5 56.0007 9.1 51.4007 10.3C35.4007 14.3 22.0007 22.8 10.2007 34C8.70069 35.5 8.70069 36.6 10.3007 38.2C19.5007 47 29.8007 54 41.6007 58.7C55.7007 64.3 70.0007 65.2 84.5007 60.5C98.3007 56 110.201 48.3 120.701 38.4C122.501 36.6 122.501 35.5 120.701 33.7ZM110.001 41.4C100.701 48.6 90.5007 54.3 79.0007 57.2C66.3007 60.4 54.1007 58.9 42.2007 54C32.1007 49.7 23.2007 43.7 15.0007 36.5C14.9007 36.4 14.8007 36.3 14.7007 36.2C14.7007 36.2 14.6007 36.1 14.6007 36L14.5007 35.9C26.8007 25.1 40.2007 16.7 56.5007 13.8C67.0007 11.9 77.1007 13.5 87.0007 17.3C97.8007 21.5 107.201 27.8 115.801 35.4C115.901 35.5 116.001 35.6 116.201 35.6C116.301 35.7 116.401 35.7 116.601 35.8C114.301 37.9 112.201 39.7 110.001 41.4Z" fill="#404041"/>
<path fill-rule="evenodd" clip-rule="evenodd" d="M65.5004 16.4004C54.7004 16.4004 45.9004 25.2004 45.9004 36.0004C45.9004 46.8004 54.7004 55.5004 65.5004 55.5004C76.3004 55.5004 85.1004 46.7004 85.1004 35.9004C85.1004 25.2004 76.3004 16.4004 65.5004 16.4004ZM65.4004 51.1004C57.2004 51.1004 50.4004 44.3004 50.4004 36.1004C50.4004 27.9004 57.3004 21.0004 65.5004 21.0004C73.7004 21.0004 80.6004 27.9004 80.6004 36.1004C80.5004 44.3004 73.6004 51.1004 65.4004 51.1004Z" fill="#404041"/>
</svg>
