<svg width="131" height="72" viewBox="0 0 131 72" fill="none" xmlns="http://www.w3.org/2000/svg">
<path fill-rule="evenodd" clip-rule="evenodd" d="M93.8992 24.3008L86.0992 20.4008L81.9992 14.6008L80.6992 12.8008L78.4992 13.2008L72.6992 14.2008L64.8992 13.2008L63.3992 13.0008L62.1992 13.9008L59.5992 16.0008H55.6992L54.8992 16.4008L52.4992 17.7008H50.2992L49.2992 19.4008L44.4992 27.4008L41.2992 29.1008L39.4992 30.1008V32.5008H34.1992L37.2992 37.8008L39.9992 42.5008L44.0992 49.1008L45.0992 50.8008H47.7992L49.6992 52.9008L49.9992 53.2008L50.2992 53.4008L57.5992 58.5008L58.4992 59.1008H73.3992L73.8992 58.9008L80.2992 56.7008L81.2992 56.4008L81.8992 55.6008L87.9992 47.7008L88.2992 47.3008L88.4992 46.8008L95.5992 28.6008L96.6992 25.6008L93.8992 24.3008ZM82.1992 43.9008L77.0992 50.5008L72.2992 52.2008H60.7992L54.7992 48.0008L52.1992 45.0008L51.1992 43.8008H49.1992L46.4992 39.5008H46.5992V34.2008L48.7992 33.0008L49.5992 32.5008L50.0992 31.7008L54.3992 24.6008L55.0992 24.2008L57.4992 23.0008H62.0992L63.0992 22.2008L65.4992 20.3008L72.3992 21.2008L72.8992 21.3008L73.3992 21.2008L77.5992 20.5008L80.8992 25.1008L81.3992 25.8008L82.1992 26.2008L87.8992 29.1008L82.1992 43.9008Z" fill="#404041"/>
</svg>
