<svg width="131" height="72" viewBox="0 0 131 72" fill="none" xmlns="http://www.w3.org/2000/svg">
<path fill-rule="evenodd" clip-rule="evenodd" d="M96.4993 61.6993C96.3993 61.5993 96.2993 61.4993 96.1993 61.3993C95.9993 61.1993 95.7993 60.9993 95.5993 60.7993C95.0993 60.2993 94.5993 59.7993 94.0993 59.2993L93.9993 59.1993C93.3993 58.5993 92.6993 57.8993 92.0993 57.2993C90.4993 55.7993 88.1993 55.6993 86.6993 57.1993C85.1993 58.6993 85.2993 60.9993 86.7993 62.4993C87.5993 63.2993 88.3993 64.0993 89.1993 64.8993L89.8993 65.5993C90.1993 65.8993 90.3993 66.0993 90.6993 66.3993C90.7993 66.4993 90.8993 66.5993 90.8993 66.6993C90.8993 66.7993 90.9993 66.7993 90.9993 66.8993H91.1993C91.2993 66.6993 91.3993 66.5993 91.5993 66.3993C92.8993 65.0993 94.1993 63.7993 95.3993 62.5993C95.5993 62.3993 95.8993 62.1993 96.0993 61.9993C96.1993 61.8993 96.2993 61.7993 96.3993 61.6993H96.4993Z" fill="#404041"/>
<path fill-rule="evenodd" clip-rule="evenodd" d="M85.4999 42.0996C89.1999 39.5996 88.3999 34.2996 84.2999 32.8996C85.1999 31.2996 85.3999 29.5996 84.4999 27.8996C83.6999 26.1996 82.1999 25.3996 80.3999 25.0996C81.0999 20.3996 79.4999 18.3996 74.8999 18.0996C74.9999 16.2996 74.4999 14.6996 73.0999 13.4996C71.5999 12.2996 69.9999 12.0996 68.1999 12.5996C67.9999 8.69963 63.8999 6.29963 60.2999 8.49963C58.7999 3.99963 52.6999 3.59963 50.6999 8.09963C46.6999 5.29963 41.7999 8.59963 42.5999 13.0996C40.2999 12.7996 38.3999 13.5996 37.1999 15.6996C36.1999 17.5996 36.4999 19.3996 37.6999 21.1996C35.5999 22.1996 34.3999 23.7996 34.4999 26.0996C34.5999 28.3996 35.8999 29.8996 38.0999 30.7996C37.0999 32.4996 36.8999 34.1996 37.7999 35.9996C38.6999 37.7996 40.1999 38.5996 42.1999 38.7996C41.6999 40.5996 41.8999 42.1996 43.0999 43.5996C44.2999 44.9996 45.7999 45.5996 47.6999 45.4996C47.5999 47.3996 48.0999 48.9996 49.5999 50.1996C51.0999 51.3996 52.7999 51.5996 54.5999 50.8996C54.7999 52.7996 55.6999 54.1996 57.3999 55.0996C59.0999 55.8996 60.6999 55.7996 62.3999 54.8996C63.8999 59.0996 69.1999 59.6996 71.5999 55.9996C74.0999 59.8996 79.8999 58.9996 80.9999 54.2996L82.8999 56.2996L85.5999 53.5996L83.3999 51.6996C85.6999 51.0996 87.1999 49.7996 87.6999 47.5996C88.2999 45.1996 87.2999 43.3996 85.4999 42.0996ZM78.3999 48.7996C75.5999 47.6996 73.3999 48.3996 71.5999 50.6996C70.7999 49.4996 69.7999 48.6996 68.3999 48.3996C66.9999 48.0996 65.6999 48.2996 64.4999 48.9996C63.9999 47.5996 63.0999 46.4996 61.7999 45.8996C60.4999 45.2996 59.0999 45.2996 57.7999 45.7996C57.5999 44.2996 56.9999 43.0996 55.8999 42.1996C54.7999 41.2996 53.3999 40.9996 51.9999 41.0996C52.0999 39.5996 51.7999 38.1996 50.7999 37.0996C49.7999 35.9996 48.5999 35.3996 46.9999 35.2996C47.3999 33.8996 47.3999 32.5996 46.6999 31.2996C45.9999 29.9996 44.9999 29.1996 43.5999 28.6996C44.7999 26.5996 44.7999 24.5996 43.3999 22.6996C45.7999 21.4996 46.7999 19.6996 46.4999 16.9996C49.0999 17.2996 50.9999 16.1996 52.1999 13.8996C54.1999 15.2996 56.1999 15.2996 58.1999 14.0996C58.6999 15.4996 59.4999 16.4996 60.6999 17.1996C61.9999 17.8996 63.2999 17.8996 64.6999 17.4996C64.7999 18.9996 65.3999 20.2996 66.4999 21.2996C67.6999 22.2996 68.9999 22.5996 70.3999 22.4996C70.2999 25.7996 71.8999 27.6996 75.0999 28.2996C74.5999 29.6996 74.5999 30.9996 75.1999 32.2996C75.7999 33.5996 76.8999 34.4996 78.2999 34.9996C77.5999 36.2996 77.2999 37.5996 77.6999 38.9996C77.9999 40.3996 78.8999 41.3996 79.9999 42.0996C77.8999 43.8996 77.2999 46.0996 78.3999 48.7996Z" fill="#404041"/>
</svg>
