<svg width="131" height="72" viewBox="0 0 131 72" fill="none" xmlns="http://www.w3.org/2000/svg">
<path d="M97.3004 6.60078C97.6004 6.20078 98.4004 6.20078 98.8004 6.60078C99.0004 6.80078 99.1004 7.10078 99.1004 7.40078C99.1004 7.70078 99.0004 7.90078 98.8004 8.20078H98.7004C98.5004 8.40078 98.2004 8.50078 97.9004 8.50078C97.6004 8.50078 97.4004 8.40078 97.1004 8.20078C97.0004 7.90078 96.9004 7.60078 96.9004 7.30078C96.9004 7.00078 97.0004 6.70078 97.3004 6.60078Z" fill="#404041"/>
<path d="M97.999 9.39997C98.299 9.39997 98.499 9.59997 98.699 9.89997C98.899 10.1 98.899 10.4 98.899 10.7C98.799 11.2 98.399 11.6 97.899 11.6H97.799C97.499 11.6 97.199 11.4 96.999 11.2C96.799 11 96.699 10.7 96.799 10.4C96.699 9.69997 97.299 9.29997 97.999 9.39997Z" fill="#404041"/>
<path d="M95.8996 13.0998C96.0996 12.5998 96.6996 12.1998 97.2996 12.4998C97.5996 12.5998 97.7996 12.6998 97.8996 12.9998C97.9996 13.2998 98.0996 13.5998 97.9996 13.7998C97.7996 14.2998 97.3996 14.4998 96.8996 14.4998C96.7996 14.4998 96.6996 14.4998 96.5996 14.4998C95.9996 14.2998 95.6996 13.6998 95.8996 13.0998Z" fill="#404041"/>
<path d="M94.7 15.9003C95 15.4003 95.7 15.2003 96.2 15.5003C96.5 15.6003 96.6 15.9003 96.7 16.1003C96.8 16.4003 96.7 16.7003 96.6 16.9003C96.4 17.2003 96.1 17.5003 95.6 17.5003C95.4 17.5003 95.2 17.5003 95.1 17.4003C94.8 17.3003 94.6 17.0003 94.5 16.7003C94.6 16.4003 94.6 16.1003 94.7 15.9003Z" fill="#404041"/>
<path d="M93.1004 18.4004C93.4004 17.9004 94.2004 17.8004 94.6004 18.1004C94.8004 18.3004 95.0004 18.5004 95.1004 18.8004C95.2004 19.1004 95.1004 19.4004 94.9004 19.6004C94.7004 19.9004 94.4004 20.0004 94.0004 20.0004C93.8004 20.0004 93.6004 19.9004 93.4004 19.8004C92.9004 19.5004 92.8004 18.9004 93.1004 18.4004Z" fill="#404041"/>
<path d="M91.2004 20.6999C91.6004 20.2999 92.4004 20.1999 92.8004 20.6999C93.2004 21.0999 93.2004 21.7999 92.8004 22.1999C92.6004 22.3999 92.3004 22.4999 92.0004 22.4999C91.7004 22.4999 91.4004 22.3999 91.2004 22.1999C91.1004 22.0999 90.9004 21.7999 90.9004 21.4999C90.9004 21.1999 91.0004 20.8999 91.2004 20.6999Z" fill="#404041"/>
<path d="M89 22.8015C89.5 22.4015 90.2 22.5015 90.6 22.9015C91 23.4015 90.9 24.0015 90.5 24.4015C90.3 24.6015 90 24.7015 89.8 24.7015C89.5 24.7015 89.2 24.6015 89 24.3015C88.5 23.9015 88.5 23.2015 89 22.8015Z" fill="#404041"/>
<path d="M81.1992 27.5004C81.2992 27.4004 81.4992 27.4004 81.5992 27.4004C81.9992 27.4004 82.3992 27.7004 82.5992 28.1004C82.6992 28.3004 82.6992 28.6004 82.5992 28.9004C82.4992 29.2004 82.2992 29.4004 81.9992 29.5004H81.8992C81.7992 29.5004 81.6992 29.6004 81.4992 29.6004C81.0992 29.6004 80.6992 29.4004 80.4992 29.0004C80.2992 28.4004 80.5992 27.7004 81.1992 27.5004Z" fill="#404041"/>
<path d="M78.1996 28.6C78.2996 28.6 78.3996 28.5 78.4996 28.5C78.9996 28.5 79.4996 28.8 79.5996 29.2C79.7996 29.8 79.4996 30.4 78.8996 30.6C78.6996 30.6 78.5996 30.6 78.4996 30.6C77.9996 30.6 77.5996 30.3 77.4996 29.9C77.3996 29.4 77.6996 28.8 78.1996 28.6Z" fill="#404041"/>
<path d="M74.5993 29.9004C74.7993 29.7004 74.9993 29.5004 75.2993 29.4004C75.3993 29.4004 75.4993 29.4004 75.4993 29.4004C75.9993 29.4004 76.4993 29.7004 76.5993 30.2004C76.6993 30.8004 76.3993 31.4004 75.7993 31.5004H75.5993C75.0993 31.5004 74.6993 31.2004 74.4993 30.7004C74.3993 30.4004 74.3993 30.1004 74.5993 29.9004Z" fill="#404041"/>
<path d="M72.2005 30C72.3005 30 72.3005 30 72.4005 30C72.9005 30 73.4005 30.4 73.5005 30.9C73.6005 31.5 73.2005 32 72.6005 32.1C72.6005 32.1 72.5005 32.1 72.4005 32.1C71.9005 32.1 71.4005 31.7 71.3005 31.2C71.2005 30.7 71.6005 30.1 72.2005 30Z" fill="#404041"/>
<path d="M68.3996 30.7008C68.5996 30.5008 68.8996 30.4008 69.0996 30.3008H69.1996C69.7996 30.3008 70.2996 30.7008 70.2996 31.3008C70.2996 31.9008 69.8996 32.4008 69.2996 32.5008H69.1996C68.5996 32.5008 68.0996 32.1008 68.0996 31.5008C68.0996 31.2008 68.1996 30.9008 68.3996 30.7008Z" fill="#404041"/>
<path d="M62.8999 30.4004C63.2999 30.4004 63.4999 30.6004 63.6999 30.8004C63.8999 31.0004 63.9999 31.3004 63.9999 31.6004C63.8999 32.2004 63.4999 32.6004 62.8999 32.6004H62.7999C62.1999 32.6004 61.6999 32.0004 61.7999 31.4004C61.7999 30.8004 62.2999 30.4004 62.8999 30.4004Z" fill="#404041"/>
<path d="M59.8987 30.0015C60.4987 30.1015 60.8987 30.6015 60.7987 31.3015C60.6987 31.8015 60.1987 32.2015 59.6987 32.2015H59.5987C58.9987 32.1015 58.4987 31.5015 58.5987 31.0015C58.6987 30.3015 59.1987 29.9015 59.8987 30.0015Z" fill="#404041"/>
<path d="M55.4996 30.2016C55.5996 29.6016 56.2996 29.2016 56.7996 29.4016C57.3996 29.5016 57.7996 30.1016 57.5996 30.7016C57.4996 31.2016 56.9996 31.5016 56.4996 31.5016C56.3996 31.5016 56.2996 31.5016 56.1996 31.4016C55.6996 31.4016 55.3996 30.8016 55.4996 30.2016Z" fill="#404041"/>
<path d="M52.4988 29.3014C52.6988 28.8014 53.2988 28.4014 53.8988 28.6014C54.1988 28.7014 54.3988 28.9014 54.4988 29.1014C54.5988 29.4014 54.6988 29.7014 54.5988 30.0014C54.4988 30.4014 53.9988 30.7014 53.4988 30.7014C53.3988 30.7014 53.2988 30.7014 53.0988 30.6014C52.7988 30.5014 52.5988 30.3014 52.4988 30.0014C52.3988 29.8014 52.3988 29.6014 52.4988 29.3014Z" fill="#404041"/>
<path d="M49.4988 28.1008C49.7988 27.5008 50.3988 27.3008 50.9988 27.5008C51.2988 27.6008 51.4988 27.8008 51.5988 28.1008C51.6988 28.4008 51.6988 28.7008 51.5988 28.9008C51.3988 29.3008 50.9988 29.6008 50.5988 29.6008C50.4988 29.6008 50.3988 29.6008 50.1988 29.5008H50.0988C49.4988 29.3008 49.2988 28.7008 49.4988 28.1008Z" fill="#404041"/>
<path d="M40.9004 20.9004C41.3004 21.4004 41.1004 22.1004 40.7004 22.4004C40.5004 22.5004 40.2004 22.6004 40.0004 22.6004C39.6004 22.6004 39.3004 22.4004 39.1004 22.1004C39.0004 21.9004 38.9004 21.6004 38.9004 21.3004C38.9004 21.0004 39.1004 20.8004 39.3004 20.6004C39.8004 20.3004 40.6004 20.4004 40.9004 20.9004Z" fill="#404041"/>
<path d="M38.9004 18.5C39.3004 19 39.2004 19.7 38.7004 20C38.5004 20.2 38.3004 20.2 38.0004 20.2C37.6004 20.2 37.3004 20 37.1004 19.7C37.0004 19.5 36.9004 19.2 36.9004 18.9C36.9004 18.6 37.1004 18.4 37.3004 18.2C37.8004 17.9 38.5004 18 38.9004 18.5Z" fill="#404041"/>
<path d="M37.2992 16.0006C37.3992 16.2006 37.4992 16.5006 37.3992 16.8006C37.2992 17.1006 37.0992 17.3006 36.7992 17.4006C36.6992 17.5006 36.4992 17.5006 36.2992 17.5006C35.8992 17.5006 35.5992 17.3006 35.2992 17.0006C34.9992 16.5006 35.1992 15.8006 35.6992 15.5006C36.3992 15.2006 36.9992 15.5006 37.2992 16.0006Z" fill="#404041"/>
<path d="M36.1004 13.2004C36.2004 13.5004 36.2004 13.7004 36.1004 14.0004C36.0004 14.3004 35.8004 14.5004 35.5004 14.6004C35.3004 14.6004 35.2004 14.6004 35.1004 14.6004C34.6004 14.6004 34.2004 14.3004 34.1004 13.9004C34.0004 13.7004 34.0004 13.4004 34.1004 13.1004C34.2004 12.8004 34.4004 12.6004 34.7004 12.5004C34.8004 12.5004 34.9004 12.4004 35.0004 12.4004C35.5004 12.5004 35.9004 12.8004 36.1004 13.2004Z" fill="#404041"/>
<path d="M35.0993 11.2001C34.8993 11.4001 34.6993 11.6001 34.3993 11.6001C34.2993 11.6001 34.1993 11.6001 34.1993 11.6001C33.6993 11.6001 33.1993 11.2001 33.0993 10.7001C32.9993 10.1001 33.3993 9.50008 33.9993 9.40008C34.6993 9.30008 35.1993 9.70008 35.2993 10.3001C35.3993 10.7001 35.2993 11.0001 35.0993 11.2001Z" fill="#404041"/>
<path d="M33.2004 6.60078C33.6004 6.20078 34.3004 6.20078 34.8004 6.60078C35.0004 6.80078 35.1004 7.10078 35.1004 7.40078C35.1004 7.70078 35.0004 7.90078 34.8004 8.20078C34.5004 8.40078 34.3004 8.50078 34.0004 8.50078C33.7004 8.50078 33.4004 8.40078 33.2004 8.20078C33.0004 7.90078 32.9004 7.60078 32.9004 7.30078C32.9004 7.10078 33.0004 6.80078 33.2004 6.60078Z" fill="#404041"/>
<path d="M40.7005 39.0004C40.6005 37.7004 39.7005 36.9004 38.4005 36.9004C37.8005 36.9004 37.2005 37.1004 36.7005 37.4004C36.2005 37.1004 35.6005 36.9004 35.0005 36.9004C33.8005 36.9004 32.8005 37.7004 32.7005 39.0004C32.4005 41.8004 36.2005 43.8004 36.4005 43.9004L36.7005 44.0004L37.0005 43.9004C37.2005 44.0004 41.0005 41.9004 40.7005 39.0004ZM36.8005 42.7004C35.8005 42.1004 33.8005 40.6004 34.0005 39.1004C34.0005 38.3004 34.6005 38.1004 35.1005 38.1004C35.5005 38.1004 36.0005 38.3004 36.3005 38.6004L36.7005 39.0004L37.1005 38.6004C37.5005 38.3004 37.9005 38.1004 38.4005 38.1004C38.8005 38.1004 39.4005 38.3004 39.6005 39.1004C39.8005 40.7004 37.8005 42.2004 36.8005 42.7004Z" fill="#404041"/>
<path d="M39.0997 35.2012C38.5997 35.2012 37.9997 35.3012 37.4997 35.5012V34.8012C37.4997 34.4012 37.1997 34.2012 36.8997 34.2012C36.5997 34.2012 36.2997 34.5012 36.2997 34.8012V35.5012C35.7997 35.3012 35.1997 35.2012 34.6997 35.2012C32.4997 35.2012 30.9997 36.5012 30.7997 38.6012C30.2997 42.8012 35.7997 45.7012 35.9997 45.8012L36.6997 46.2012L37.4997 45.8012C37.6997 45.7012 43.0997 42.8012 42.9997 38.6012C42.6997 36.5012 41.1997 35.2012 39.0997 35.2012ZM36.7997 44.9012L36.5997 45.0012L36.3997 44.9012C36.1997 44.8012 31.3997 42.2012 31.6997 38.8012C31.7997 37.3012 32.8997 36.3012 34.3997 36.3012C35.0997 36.3012 35.6997 36.5012 36.2997 36.8012L36.5997 37.0012L36.8997 36.8012C37.4997 36.5012 38.1997 36.3012 38.7997 36.3012C40.3997 36.3012 41.3997 37.2012 41.4997 38.8012C41.7997 42.2012 36.9997 44.7012 36.7997 44.9012Z" fill="#404041"/>
<path d="M43.1991 24.4011C42.9991 24.7011 42.6991 24.8011 42.3991 24.8011C42.0991 24.8011 41.8991 24.7011 41.6991 24.5011C41.1991 24.1011 41.1991 23.5011 41.5991 23.0011C41.8991 22.6011 42.6991 22.5011 43.1991 22.9011C43.3991 23.1011 43.4991 23.3011 43.5991 23.6011C43.4991 23.9011 43.3991 24.2011 43.1991 24.4011Z" fill="#404041"/>
<path d="M45.7988 26.1004C45.5988 26.4004 45.2988 26.6004 44.8988 26.6004C44.5988 26.6004 44.3988 26.5004 44.2988 26.4004C43.7988 26.1004 43.6988 25.4004 43.9988 24.9004C44.3988 24.4004 45.0988 24.3004 45.5988 24.6004C45.7988 24.7004 45.9988 24.9004 45.9988 25.2004C45.9988 25.6004 45.9988 25.9004 45.7988 26.1004Z" fill="#404041"/>
<path d="M47.6997 28.3016C47.4997 28.3016 47.2997 28.3016 47.1997 28.2016C46.6997 27.9016 46.4997 27.3016 46.6997 26.7016C46.9997 26.2016 47.6997 26.0016 48.1997 26.2016C48.4997 26.3016 48.6997 26.5016 48.7997 26.8016C48.8997 27.1016 48.8997 27.4016 48.6997 27.7016C48.3997 28.0016 47.9997 28.3016 47.6997 28.3016Z" fill="#404041"/>
<path d="M80.2006 44.0016C79.6006 38.9016 75.9006 37.1016 72.5006 37.1016C70.2006 37.1016 67.8006 37.9016 66.0006 39.3016C64.2006 37.9016 61.7006 37.1016 59.4006 37.1016C56.1006 37.1016 52.3006 38.9016 51.8006 44.0016C50.7006 54.0016 65.0006 61.5016 65.6006 61.9016L66.0006 62.1016L66.4006 61.9016C67.0006 61.5016 81.3006 54.0016 80.2006 44.0016ZM66.0006 60.4016C63.8006 59.2016 52.4006 52.4016 53.3006 44.1016C53.9006 39.1016 57.8006 38.6016 59.5006 38.6016C61.7006 38.6016 64.0006 39.4016 65.6006 40.8016L66.1006 41.2016L66.6006 40.8016C68.1006 39.5016 70.4006 38.6016 72.6006 38.6016C74.2006 38.6016 78.2006 39.2016 78.7006 44.1016C79.6006 52.4016 68.2006 59.2016 66.0006 60.4016Z" fill="#404041"/>
<path d="M83.4 43.7004C82.8 37.8004 78.5 34.0004 72.5 34.0004C70.5 34.0004 68.5 34.5004 66.7 35.3004V31.7004C66.7 31.3004 66.3 30.9004 65.9 30.9004C65.5 30.9004 65.1 31.3004 65.1 31.7004V35.3004C63.3 34.5004 61.3 34.0004 59.4 34.0004C53.4 34.0004 49.1 37.8004 48.5 43.7004C47.2 55.9004 63.4 64.4004 64.1 64.8004L66 65.8004L67.9 64.8004C68.6 64.4004 84.7 55.9004 83.4 43.7004ZM67.1 63.4004L66 64.0004L64.9 63.4004C64.2 63.0004 49 55.0004 50.1 43.8004C50.6 38.8004 54.3 35.5004 59.4 35.5004C61.5 35.5004 63.7 36.1004 65.6 37.1004L66 37.3004L66.4 37.1004C68.3 36.1004 70.5 35.5004 72.6 35.5004C77.7 35.5004 81.3 38.8004 81.8 43.9004C83 55.0004 67.7 63.0004 67.1 63.4004Z" fill="#404041"/>
<path d="M85.0003 28.1016C84.8003 28.2016 84.6003 28.2016 84.5003 28.2016C84.1003 28.2016 83.7003 28.0016 83.5003 27.6016C83.2003 27.0016 83.4003 26.4016 83.9003 26.2016C84.0003 26.1016 84.2003 26.1016 84.4003 26.1016C84.8003 26.1016 85.2003 26.3016 85.4003 26.7016C85.7003 27.2016 85.5003 27.8016 85.0003 28.1016Z" fill="#404041"/>
<path d="M87.1996 26.6004C86.7996 26.6004 86.4996 26.4004 86.2996 26.1004C85.9996 25.6004 86.0996 24.9004 86.5996 24.6004C87.0996 24.3004 87.7996 24.4004 88.1996 24.9004C88.3996 25.1004 88.3996 25.4004 88.3996 25.7004C88.2996 26.0004 88.1996 26.3004 87.8996 26.4004C87.5996 26.5004 87.3996 26.6004 87.1996 26.6004Z" fill="#404041"/>
<path d="M98.0989 39.0004C97.9989 37.7004 97.0989 36.9004 95.7989 36.9004C95.1989 36.9004 94.5989 37.1004 94.0989 37.4004C93.5989 37.1004 92.9989 36.9004 92.3989 36.9004C91.0989 36.9004 90.1989 37.7004 90.0989 39.0004C89.7989 41.8004 93.5989 43.8004 93.7989 43.9004L94.0989 44.0004L94.3989 43.9004C94.4989 44.0004 98.3989 41.9004 98.0989 39.0004ZM93.9989 42.7004C92.9989 42.1004 90.9989 40.6004 91.1989 39.1004C91.2989 38.3004 91.8989 38.1004 92.3989 38.1004C92.8989 38.1004 93.3989 38.3004 93.6989 38.6004L94.0989 39.0004L94.4989 38.6004C94.8989 38.3004 95.2989 38.1004 95.7989 38.1004C96.1989 38.1004 96.7989 38.3004 96.7989 39.1004C96.9989 40.7004 94.9989 42.2004 93.9989 42.7004Z" fill="#404041"/>
<path d="M96.4005 35.2012C95.9005 35.2012 95.3005 35.3012 94.8005 35.5012V34.8012C94.8005 34.4012 94.5005 34.2012 94.2005 34.2012C93.9005 34.2012 93.6005 34.5012 93.6005 34.8012V35.5012C93.1005 35.3012 92.5005 35.2012 92.0005 35.2012C89.8005 35.2012 88.3005 36.5012 88.1005 38.6012C87.6005 42.8012 93.1005 45.7012 93.3005 45.8012L94.1005 46.2012L94.8005 45.8012C95.4005 45.5012 100.5 42.7012 100.3 38.6012C100 36.5012 98.5005 35.2012 96.4005 35.2012ZM94.2005 44.9012L94.0005 45.0012L93.8005 44.9012C93.6005 44.8012 88.8005 42.2012 89.1005 38.8012C89.2005 37.2012 90.3005 36.3012 91.8005 36.3012C92.5005 36.3012 93.1005 36.5012 93.7005 36.8012L94.0005 37.0012L94.3005 36.8012C94.9005 36.5012 95.6005 36.3012 96.2005 36.3012C97.7005 36.3012 98.8005 37.2012 98.8005 38.8012C99.2005 42.2012 94.4005 44.7012 94.2005 44.9012Z" fill="#404041"/>
</svg>
