<svg width="131" height="72" viewBox="0 0 131 72" fill="none" xmlns="http://www.w3.org/2000/svg">
<path fill-rule="evenodd" clip-rule="evenodd" d="M29.5 49.5996C30.2 48.8996 31 48.2996 31.8 47.5996L29.5 49.5996Z" fill="#404041"/>
<path fill-rule="evenodd" clip-rule="evenodd" d="M31.8008 47.6004C32.3008 47.2004 32.7008 46.8004 33.2008 46.4004L31.8008 47.6004Z" fill="#404041"/>
<path fill-rule="evenodd" clip-rule="evenodd" d="M33.1992 46.4992C33.3992 46.2992 33.6992 45.9992 33.6992 45.6992L33.1992 46.4992Z" fill="#404041"/>
<path fill-rule="evenodd" clip-rule="evenodd" d="M33.5996 45.6996C33.2996 41.6996 34.3996 37.9996 36.3996 34.5996L33.5996 45.6996Z" fill="#404041"/>
<path fill-rule="evenodd" clip-rule="evenodd" d="M36.5 34.5C39.4 29.6 42.5 24.7 46.3 20.5L36.5 34.5Z" fill="#404041"/>
<path fill-rule="evenodd" clip-rule="evenodd" d="M46.3008 20.4992C49.0008 17.5992 51.9008 15.0992 55.7008 13.6992L46.3008 20.4992Z" fill="#404041"/>
<path fill-rule="evenodd" clip-rule="evenodd" d="M55.6992 13.7005C58.6992 12.6005 61.6992 12.5005 64.7992 12.9005L55.6992 13.7005Z" fill="#404041"/>
<path fill-rule="evenodd" clip-rule="evenodd" d="M64.8008 12.9004C71.2008 13.6004 76.4008 16.8004 80.8008 21.3004L64.8008 12.9004Z" fill="#404041"/>
<path fill-rule="evenodd" clip-rule="evenodd" d="M80.8008 21.4004C80.9008 21.5004 81.0008 21.7004 81.1008 21.8004L80.8008 21.4004Z" fill="#404041"/>
<path fill-rule="evenodd" clip-rule="evenodd" d="M81.0996 21.8008C81.0996 21.9008 81.1996 21.9008 81.1996 22.0008L81.0996 21.8008Z" fill="#404041"/>
<path fill-rule="evenodd" clip-rule="evenodd" d="M81.4992 21.8C81.3992 21.2 81.2992 20.6 81.1992 20L81.4992 21.8Z" fill="#404041"/>
<path fill-rule="evenodd" clip-rule="evenodd" d="M81.2008 19.9992C81.1008 19.1992 80.9008 18.4992 80.8008 17.6992L81.2008 19.9992Z" fill="#404041"/>
<path fill-rule="evenodd" clip-rule="evenodd" d="M80.8004 17.7008C80.5004 16.2008 80.0004 14.7008 79.4004 13.3008L80.8004 17.7008Z" fill="#404041"/>
<path fill-rule="evenodd" clip-rule="evenodd" d="M76.7996 8.89961C77.7996 10.2996 78.6996 11.7996 79.3996 13.2996C78.6996 11.9996 77.9996 10.8996 77.3996 9.89961C77.0996 9.39961 76.8996 8.99961 76.5996 8.59961C76.6996 8.69961 76.7996 8.79961 76.7996 8.89961Z" fill="#404041"/>
<path fill-rule="evenodd" clip-rule="evenodd" d="M75.7009 7.10061C75.6009 6.90061 76.0009 7.50061 76.6009 8.60061C76.3009 8.10061 76.0009 7.70061 75.7009 7.10061Z" fill="#404041"/>
<path fill-rule="evenodd" clip-rule="evenodd" d="M79.4004 13.3008C82.8004 19.0008 87.3004 26.7008 88.0004 26.7008L79.4004 13.3008Z" fill="#404041"/>
<path fill-rule="evenodd" clip-rule="evenodd" d="M88 26.7008C88.5 26.7008 85.9 20.5008 83.5 14.8008L88 26.7008Z" fill="#404041"/>
<path fill-rule="evenodd" clip-rule="evenodd" d="M83.4993 14.8004C81.3993 9.90043 79.4993 5.30043 79.8993 5.50043L83.4993 14.8004Z" fill="#404041"/>
<path fill-rule="evenodd" clip-rule="evenodd" d="M79.8008 5.5C83.3008 7 85.9008 9.7 87.9008 12.9L79.8008 5.5Z" fill="#404041"/>
<path fill-rule="evenodd" clip-rule="evenodd" d="M88 12.9004C88.8 14.1004 89.4 15.5004 90.1 16.8004L88 12.9004Z" fill="#404041"/>
<path fill-rule="evenodd" clip-rule="evenodd" d="M90.0996 16.8008C90.3996 17.4008 90.6996 18.0008 90.9996 18.5008L90.0996 16.8008Z" fill="#404041"/>
<path fill-rule="evenodd" clip-rule="evenodd" d="M91 18.4992C91.2 18.2992 91.3 17.9992 91.5 17.6992L91 18.4992Z" fill="#404041"/>
<path fill-rule="evenodd" clip-rule="evenodd" d="M91.4004 17.8004C91.8004 17.2004 92.2004 16.6004 92.6004 15.9004L91.4004 17.8004Z" fill="#404041"/>
<path fill-rule="evenodd" clip-rule="evenodd" d="M92.5996 15.9008C94.3996 13.4008 96.4996 11.3008 99.3996 10.3008L92.5996 15.9008Z" fill="#404041"/>
<path fill-rule="evenodd" clip-rule="evenodd" d="M99.4004 10.3004C100.1 10.0004 100.9 9.90038 101.7 10.0004L99.4004 10.3004Z" fill="#404041"/>
<path fill-rule="evenodd" clip-rule="evenodd" d="M101.699 10C102.599 10.1 103.099 11.1 102.699 11.9L101.699 10Z" fill="#404041"/>
<path fill-rule="evenodd" clip-rule="evenodd" d="M102.699 12C102.499 12.6 102.099 13.1 101.699 13.6L102.699 12Z" fill="#404041"/>
<path fill-rule="evenodd" clip-rule="evenodd" d="M101.701 13.5996C99.3008 16.8996 98.0008 20.6996 97.8008 24.6996L101.701 13.5996Z" fill="#404041"/>
<path fill-rule="evenodd" clip-rule="evenodd" d="M97.7996 24.6992C97.6996 27.0992 97.6996 29.5992 97.7996 31.9992V24.6992Z" fill="#404041"/>
<path fill-rule="evenodd" clip-rule="evenodd" d="M97.8008 33.6992C97.8008 34.0992 98.1008 34.4992 98.4008 34.7992L97.8008 33.6992Z" fill="#404041"/>
<path fill-rule="evenodd" clip-rule="evenodd" d="M98.4004 34.9004C100.6 37.1004 102.3 39.7004 102.8 42.8004L98.4004 34.9004Z" fill="#404041"/>
<path fill-rule="evenodd" clip-rule="evenodd" d="M102.8 42.8008C103.7 48.2008 102 54.9008 95.5996 58.6008L102.8 42.8008Z" fill="#404041"/>
<path fill-rule="evenodd" clip-rule="evenodd" d="M95.6004 58.5C92.4004 60.3 89.0004 61.4 85.4004 62.1L95.6004 58.5Z" fill="#404041"/>
<path fill-rule="evenodd" clip-rule="evenodd" d="M85.3992 62.0996C79.1992 63.2996 72.9992 63.4996 66.6992 63.2996L85.3992 62.0996Z" fill="#404041"/>
<path fill-rule="evenodd" clip-rule="evenodd" d="M66.7004 63.3992C65.3004 63.3992 63.8004 63.2992 62.4004 63.1992L66.7004 63.3992Z" fill="#404041"/>
<path fill-rule="evenodd" clip-rule="evenodd" d="M62.4996 63.2C61.3996 63.1 60.1996 63.1 59.0996 63L62.4996 63.2Z" fill="#404041"/>
<path fill-rule="evenodd" clip-rule="evenodd" d="M58.9992 63C58.6992 63 58.3992 63.1 58.1992 63.2L58.9992 63Z" fill="#404041"/>
<path fill-rule="evenodd" clip-rule="evenodd" d="M58.2 63.1992C56.7 64.4992 54.9 65.0992 53 65.1992L58.2 63.1992Z" fill="#404041"/>
<path fill-rule="evenodd" clip-rule="evenodd" d="M52.9992 65.2996C47.8992 65.6996 42.7992 65.5996 37.6992 65.0996L52.9992 65.2996Z" fill="#404041"/>
<path fill-rule="evenodd" clip-rule="evenodd" d="M37.7004 65.0996C35.7004 64.8996 33.7004 64.4996 31.9004 63.5996L37.7004 65.0996Z" fill="#404041"/>
<path fill-rule="evenodd" clip-rule="evenodd" d="M31.8992 63.6004C29.2992 62.3004 27.6992 60.3004 27.1992 57.4004L31.8992 63.6004Z" fill="#404041"/>
<path fill-rule="evenodd" clip-rule="evenodd" d="M27.1 57.3996C27.1 57.2996 27 57.1996 27 57.0996L27.1 57.3996Z" fill="#404041"/>
<path fill-rule="evenodd" clip-rule="evenodd" d="M46.2004 63.3004V63.5004C42.9004 63.3004 39.7004 63.1004 36.5004 62.7004C35.5004 62.6004 34.4004 62.3004 33.4004 61.9004C28.8004 60.0004 27.7004 54.9004 31.0004 51.1004C33.0004 48.9004 35.5004 47.5004 38.0004 46.1004C40.0004 45.0004 42.0004 44.4004 44.3004 44.2004C49.7004 43.8004 57.8004 47.6004 58.6004 55.6004C58.7004 56.7004 58.6004 57.8004 58.4004 58.9004C57.9004 61.4004 56.1004 62.8004 53.4004 63.1004C52.2004 63.2004 51.0004 63.3004 49.8004 63.4004C48.6004 63.4004 47.4004 63.3004 46.2004 63.3004Z" fill="#404041"/>
</svg>
