<svg width="131" height="72" viewBox="0 0 131 72" fill="none" xmlns="http://www.w3.org/2000/svg">
<path fill-rule="evenodd" clip-rule="evenodd" d="M71.0012 12.4992C70.8012 13.2992 70.6012 13.9992 70.4012 14.6992V14.7992V14.8992C69.7012 14.7992 69.1012 14.5992 68.4012 14.4992H68.2012V14.1992V14.0992L68.5012 12.1992L71.0012 12.4992Z" fill="#404041"/>
<path fill-rule="evenodd" clip-rule="evenodd" d="M66.0996 11.9004L65.8996 14.2004H63.5996V11.9004H66.0996Z" fill="#404041"/>
<path fill-rule="evenodd" clip-rule="evenodd" d="M61.3996 14.4992L60.5996 14.6992C60.0996 14.7992 59.5996 14.8992 59.1996 14.9992L58.9996 14.1992L58.5996 12.6992C59.4996 12.4992 60.1996 12.2992 61.0996 12.1992L61.1996 13.1992C61.1996 13.5992 61.2996 13.9992 61.3996 14.4992Z" fill="#404041"/>
<path fill-rule="evenodd" clip-rule="evenodd" d="M91.3996 43.8C90.8996 44.1 90.3996 44.4 89.7996 44.6L89.2996 44.9C89.0996 44.5 88.7996 44 88.5996 43.6C88.4996 43.3 88.2996 43 88.0996 42.7L88.7996 42.3C89.2996 42.1 89.6996 41.8 90.1996 41.5C90.3996 41.8 90.4996 42 90.5996 42.3C90.8996 42.9 91.0996 43.4 91.3996 43.8Z" fill="#404041"/>
<path fill-rule="evenodd" clip-rule="evenodd" d="M67.1996 54.1996C66.4996 53.9996 65.7996 53.7996 64.9996 53.4996C65.0996 52.8996 65.1996 52.2996 65.1996 51.6996C65.1996 50.5996 64.9996 49.5996 64.3996 48.6996C63.4996 47.1996 62.1996 46.2996 60.5996 45.8996C60.7996 45.0996 60.9996 44.3996 61.0996 43.5996C65.6996 44.4996 68.7996 49.8996 67.1996 54.1996Z" fill="#404041"/>
<path fill-rule="evenodd" clip-rule="evenodd" d="M104 37C101.5 38.4 99.0004 39.8 96.5004 41.1C95.5004 41.7 94.4004 42.2 93.4004 42.8L93.1004 42.2L92.3004 40.7C93.3004 40.2 94.2004 39.7 95.2004 39.1C97.4004 37.9 99.7004 36.6 101.9 35.5C103.8 34.5 103.9 33.5 103.3 31.8C103.1 31.1 102.7 30.4 102.3 29.8C101.1 28 99.5004 26.6 97.8004 25.3C97.3004 25 97.0004 25 96.6004 25.3C94.4004 27.2 92.2004 29 90.0004 30.9C89.4004 31.4 88.8004 31.9 88.3004 32.4C87.1004 33.4 85.8004 34.5 84.6004 35.5C84.1004 36 83.5004 36.4 83.0004 36.9L82.2004 36L81.0004 35.1L81.4004 34.7C81.8004 34.4 82.1004 34.1 82.5004 33.8C83.4004 33.1 84.3004 32.3 85.1004 31.6C88.4004 28.8 91.7004 26 95.0004 23.3C95.5004 22.9 95.7004 22.5 95.3004 21.9C95.2004 21.7 95.1004 21.5 95.0004 21.3C94.7004 20.7 94.3004 20.1 93.9004 19.6C90.0004 15.6 85.2004 13.7 79.7004 13.1C79.1004 13 78.9004 13.3 78.7004 13.8C77.6004 17.5 76.5004 21.2 75.4004 24.9L74.9004 26.6C74.6004 27.7 74.2004 28.8 73.9004 30C73.7004 30.5 73.6004 31.1 73.4004 31.6C72.7004 31.4 72.1004 31.2 71.5004 31L71.0004 31.1C72.0004 27.9 72.9004 24.6 73.9004 21.4V21.3L74.0004 20.9L74.1004 20.6L76.6004 12.3C76.3004 12.1 75.9004 12 75.6004 11.8C74.9004 11.4 74.2004 11.1 73.5004 10.8C69.6004 9.40001 65.5004 9.10001 61.5004 9.60001C58.8004 9.90001 56.3004 10.6 53.9004 12C53.4004 12.3 53.2004 12.5 53.4004 13.1C54.9004 17.8 56.3004 22.5 57.7004 27.3C58.0004 28.2 58.3004 29.1 58.5004 30.1C58.6004 30.3 58.6004 30.5 58.7004 30.8C58.7004 30.9 58.8004 31 58.8004 31.1C58.3004 31.3 57.8004 31.4 57.3004 31.5L56.5004 31.7C56.5004 31.6 56.5004 31.5 56.4004 31.5C56.4004 31.4 56.3004 31.3 56.3004 31.2C55.9004 30 55.5004 28.7 55.1004 27.4C53.7004 22.9 52.3004 18.4 51.0004 13.9C50.8004 13.2 50.5004 13.1 49.9004 13.1C44.8004 13.6 40.3004 15.3 36.5004 18.8C35.8004 19.4 35.3004 20.3 34.7004 21.1C34.6004 21.3 34.4004 21.6 34.3004 21.8C33.9004 22.3 34.1004 22.8 34.6004 23.2C38.0004 26 41.3004 28.9 44.7004 31.8C45.7004 32.6 46.6004 33.5 47.6004 34.3C47.8004 34.5 48.1004 34.7 48.3004 34.9C48.4004 35 48.5004 35.1 48.7004 35.2C48.4004 35.6 48.1004 35.9 47.8004 36.2L47.1004 37C47.0004 36.9 46.9004 36.8 46.8004 36.7C46.6004 36.5 46.3004 36.3 46.1004 36.1C45.2004 35.3 44.3004 34.5 43.4004 33.8C40.1004 31 36.8004 28.1 33.4004 25.2C32.9004 24.8 32.6004 24.7 32.1004 25.1C31.7004 25.5 31.3004 25.8 30.9004 26.2C30.1004 26.9 29.3004 27.6 28.6004 28.3C27.5004 29.4 26.7004 30.7 26.4004 32.2C26.1004 33.7 26.3004 34.3 27.7004 35C31.5004 37.1 35.4004 39.1 39.2004 41.2L41.9004 42.7L43.1004 43.4C43.8004 43.7 44.4004 44.1 45.1004 44.5C44.7004 45.3 44.3004 45.9 44.0004 46.6C44.0004 46.6 43.9004 46.6 43.9004 46.5H43.8004C42.2004 45.7 40.6004 44.8 39.1004 44C35.1004 41.9 31.1004 39.7 27.1004 37.6C25.6004 36.8 24.4004 35.8 23.9004 34.1V32C24.1004 31.6 24.3004 31.2 24.4004 30.8C24.8004 29.9 25.2004 29.1 25.6004 28.3C27.0004 26.1 29.0004 24.3 31.2004 22.8C31.5004 22.6 31.8004 22.3 31.8004 22C32.2004 20.2 33.1004 18.6 34.5004 17.4C39.0004 13 44.5004 10.9 50.7004 10.5C51.1004 10.5 51.4004 10.4 51.7004 10.2C52.2004 9.90001 52.8004 9.70001 53.3004 9.40001C54.3004 8.90001 55.3004 8.30001 56.4004 8.00001C60.4004 6.70001 64.6004 6.50001 68.7004 7.00001C72.0004 7.40001 75.2004 8.30001 77.9004 10.3C78.1004 10.5 78.5004 10.5 78.8004 10.5C84.4004 10.8 89.4004 12.6 93.7004 16.1C95.6004 17.6 97.2004 19.5 97.7004 22.1C97.7004 22.3 98.0004 22.6 98.2004 22.7C98.5004 23 98.8004 23.2 99.2004 23.5C99.7004 23.9 100.2 24.3 100.7 24.7C102.8 26.5 104.5 28.6 105.3 31.3C106.4 33.9 105.8 35.9 104 37Z" fill="#404041"/>
<path fill-rule="evenodd" clip-rule="evenodd" d="M83.3013 51.7008C84.5013 53.2008 84.8013 54.8008 84.0013 56.6008C83.2013 58.4008 81.7013 59.1008 79.7013 59.1008H76.0013C74.3013 59.1008 72.7013 59.1008 71.1013 59.1008C70.6013 59.1008 70.2013 59.3008 69.9013 59.7008C66.8013 63.7008 62.7013 65.5008 57.8013 65.0008C52.7013 64.4008 48.9013 61.6008 47.0013 56.8008C45.0013 51.9008 45.9013 47.4008 49.2013 43.3008C50.1013 42.2008 51.2013 41.2008 52.6013 40.5008L53.1013 41.3008C53.3013 41.7008 53.6013 42.1008 53.8013 42.6008C48.3013 46.1008 47.3013 52.6008 49.9013 57.2008C52.6013 61.9008 58.2013 64.0008 63.3013 62.0008C68.3013 60.0008 71.2013 54.7008 70.0013 49.5008C69.4013 46.9008 68.0013 44.8008 65.9013 43.2008C62.9013 41.0008 59.6013 40.6008 56.0013 41.6008C55.7013 40.8008 55.5013 40.1008 55.2013 39.4008C58.6013 37.9008 63.6013 38.5008 67.0013 41.0008C72.4013 45.0008 73.8013 50.4008 71.9013 56.7008H74.0013C76.0013 56.7008 78.0013 56.7008 80.0013 56.7008C80.9013 56.7008 81.6013 56.3008 81.9013 55.5008C82.2013 54.7008 82.1013 54.0008 81.6013 53.3008C80.8013 52.3008 80.0013 51.3008 79.2013 50.3008C78.9013 49.9008 78.5013 49.5008 78.2013 49.0008C78.0013 48.8008 77.9013 48.6008 77.7013 48.4008C79.6013 47.4008 81.5013 46.5008 83.3013 45.5008L86.2013 44.0008C86.6013 44.7008 87.0013 45.4008 87.3013 46.1008L81.3013 49.2008C81.5013 49.5008 81.7013 49.7008 81.9013 50.0008C82.4013 50.6008 82.9013 51.1008 83.3013 51.7008Z" fill="#404041"/>
</svg>
