<svg width="131" height="72" viewBox="0 0 131 72" fill="none" xmlns="http://www.w3.org/2000/svg">
<path fill-rule="evenodd" clip-rule="evenodd" d="M35.0996 53.9012C36.1996 53.5012 37.1996 53.1012 38.2996 52.7012L35.0996 53.9012Z" fill="#404041"/>
<path fill-rule="evenodd" clip-rule="evenodd" d="M38.1992 52.7C38.7992 52.5 39.2992 52.2 39.8992 52L38.1992 52.7Z" fill="#404041"/>
<path fill-rule="evenodd" clip-rule="evenodd" d="M39.9004 52.0004C40.1004 51.9004 40.3004 51.9004 40.5004 51.9004L39.9004 52.0004Z" fill="#404041"/>
<path fill-rule="evenodd" clip-rule="evenodd" d="M40.4004 51.9004C41.5004 51.8004 42.4004 51.4004 43.4004 50.9004L40.4004 51.9004Z" fill="#404041"/>
<path fill-rule="evenodd" clip-rule="evenodd" d="M43.8008 50.7004C46.0008 49.7004 48.3008 48.8004 50.6008 47.9004L43.8008 50.7004Z" fill="#404041"/>
<path fill-rule="evenodd" clip-rule="evenodd" d="M50.5008 47.9012C46.8008 45.7012 43.9008 42.7012 41.3008 39.2012L50.5008 47.9012Z" fill="#404041"/>
<path fill-rule="evenodd" clip-rule="evenodd" d="M41.4008 39.2012C37.9008 34.5012 35.0008 29.4012 33.3008 23.7012L41.4008 39.2012Z" fill="#404041"/>
<path fill-rule="evenodd" clip-rule="evenodd" d="M33.1995 23.8016C32.8995 22.9016 33.0995 22.1016 33.7995 21.6016L33.1995 23.8016Z" fill="#404041"/>
<path fill-rule="evenodd" clip-rule="evenodd" d="M33.8008 21.6016C34.6008 21.0016 35.5008 20.6016 36.4008 20.1016L33.8008 21.6016Z" fill="#404041"/>
<path fill-rule="evenodd" clip-rule="evenodd" d="M36.5 20.2016C37 20.0016 37.5 19.8016 38 19.6016L36.5 20.2016Z" fill="#404041"/>
<path fill-rule="evenodd" clip-rule="evenodd" d="M37.9004 19.6004C38.1004 19.5004 38.3004 19.5004 38.6004 19.4004L37.9004 19.6004Z" fill="#404041"/>
<path fill-rule="evenodd" clip-rule="evenodd" d="M38.5996 19.4004C39.5996 19.0004 40.2996 18.4004 40.7996 17.4004L38.5996 19.4004Z" fill="#404041"/>
<path fill-rule="evenodd" clip-rule="evenodd" d="M40.8008 17.4012C41.2008 16.7012 41.5008 15.9012 41.9008 15.2012L40.8008 17.4012Z" fill="#404041"/>
<path fill-rule="evenodd" clip-rule="evenodd" d="M41.9004 15.2005C43.3004 12.4005 44.9004 11.5005 48.0004 11.7005L41.9004 15.2005Z" fill="#404041"/>
<path fill-rule="evenodd" clip-rule="evenodd" d="M48.9004 11.7012C49.3004 11.7012 49.6004 11.7012 50.0004 11.8012L48.9004 11.7012Z" fill="#404041"/>
<path fill-rule="evenodd" clip-rule="evenodd" d="M50 11.8016C51.3 11.9016 52.4 11.4016 53.3 10.6016L50 11.8016Z" fill="#404041"/>
<path fill-rule="evenodd" clip-rule="evenodd" d="M53.3008 10.6008C53.6008 10.3008 53.9008 10.1008 54.2008 9.80078L53.3008 10.6008Z" fill="#404041"/>
<path fill-rule="evenodd" clip-rule="evenodd" d="M54.1992 9.70156C54.5992 9.30156 54.9992 8.90156 55.3992 8.60156L54.1992 9.70156Z" fill="#404041"/>
<path fill-rule="evenodd" clip-rule="evenodd" d="M55.4004 8.60091C57.5004 6.70091 60.1004 6.40091 62.5004 8.00091L55.4004 8.60091Z" fill="#404041"/>
<path fill-rule="evenodd" clip-rule="evenodd" d="M62.5 8C64.4 9.2 66.1 9.2 67.9 8H62.5Z" fill="#404041"/>
<path fill-rule="evenodd" clip-rule="evenodd" d="M67.9004 8.00076C70.1004 6.50076 72.7004 6.70076 74.7004 8.40076L67.9004 8.00076Z" fill="#404041"/>
<path fill-rule="evenodd" clip-rule="evenodd" d="M74.6992 8.40039C75.8992 9.40039 76.9992 10.4004 78.1992 11.4004L74.6992 8.40039Z" fill="#404041"/>
<path fill-rule="evenodd" clip-rule="evenodd" d="M78.1992 11.4004C78.3992 11.5004 78.4992 11.7004 78.4992 11.9004L78.1992 11.4004Z" fill="#404041"/>
<path fill-rule="evenodd" clip-rule="evenodd" d="M78.6004 11.9004C78.7004 12.2004 78.6004 12.4004 78.4004 12.7004L78.6004 11.9004Z" fill="#404041"/>
<path fill-rule="evenodd" clip-rule="evenodd" d="M78.3992 12.7012C78.0992 13.1012 77.6992 13.3012 77.1992 13.0012L78.3992 12.7012Z" fill="#404041"/>
<path fill-rule="evenodd" clip-rule="evenodd" d="M77.1996 13.0004C76.6996 12.7004 76.0996 12.3004 75.5996 11.9004L77.1996 13.0004Z" fill="#404041"/>
<path fill-rule="evenodd" clip-rule="evenodd" d="M75.6996 11.9004C75.2996 11.6004 74.9996 11.2004 74.5996 10.9004L75.6996 11.9004Z" fill="#404041"/>
<path fill-rule="evenodd" clip-rule="evenodd" d="M74.5996 10.9C74.2996 10.6 73.8996 10.3 73.5996 10L74.5996 10.9Z" fill="#404041"/>
<path fill-rule="evenodd" clip-rule="evenodd" d="M73.5992 10.0004C73.2992 9.80039 73.0992 9.60039 72.6992 9.40039L73.5992 10.0004Z" fill="#404041"/>
<path fill-rule="evenodd" clip-rule="evenodd" d="M72.6992 9.4C72.4992 9.3 72.3992 9.2 72.1992 9L72.6992 9.4Z" fill="#404041"/>
<path fill-rule="evenodd" clip-rule="evenodd" d="M72.1992 9C72.2992 10 72.2992 10.8 72.3992 11.6L72.1992 9Z" fill="#404041"/>
<path fill-rule="evenodd" clip-rule="evenodd" d="M72.3004 11.6016C72.5004 15.2016 72.4004 18.7016 71.9004 22.3016L72.3004 11.6016Z" fill="#404041"/>
<path fill-rule="evenodd" clip-rule="evenodd" d="M71.8992 22.3008C71.4992 25.0008 71.0992 27.8008 70.6992 30.5008L71.8992 22.3008Z" fill="#404041"/>
<path fill-rule="evenodd" clip-rule="evenodd" d="M70.7 30.5C70.5 32 70.2 33.6 70 35.1L70.7 30.5Z" fill="#404041"/>
<path fill-rule="evenodd" clip-rule="evenodd" d="M70.0996 35.1016C70.0996 35.3016 70.1996 35.6016 70.2996 35.7016L70.0996 35.1016Z" fill="#404041"/>
<path fill-rule="evenodd" clip-rule="evenodd" d="M70.3008 35.7012C71.8008 36.5012 73.1008 37.7012 74.0008 39.3012L70.3008 35.7012Z" fill="#404041"/>
<path fill-rule="evenodd" clip-rule="evenodd" d="M74 39.3012C79 31.3012 82.2 22.8012 84.5 13.7012L74 39.3012Z" fill="#404041"/>
<path fill-rule="evenodd" clip-rule="evenodd" d="M82.7004 13.6016C82.4004 13.6016 82.2004 13.7016 81.9004 13.6016H82.7004Z" fill="#404041"/>
<path fill-rule="evenodd" clip-rule="evenodd" d="M81.8996 13.6012C81.3996 13.5012 81.0996 13.2012 81.0996 12.7012L81.8996 13.6012Z" fill="#404041"/>
<path fill-rule="evenodd" clip-rule="evenodd" d="M81.0996 12.7012C81.0996 12.2012 81.3996 11.8012 81.8996 11.7012L81.0996 12.7012Z" fill="#404041"/>
<path fill-rule="evenodd" clip-rule="evenodd" d="M81.9004 11.7009C84.9004 11.3009 86.9004 12.0009 88.2004 14.5009L81.9004 11.7009Z" fill="#404041"/>
<path fill-rule="evenodd" clip-rule="evenodd" d="M88.1992 14.5C88.5992 15.4 89.0992 16.3 89.4992 17.2L88.1992 14.5Z" fill="#404041"/>
<path fill-rule="evenodd" clip-rule="evenodd" d="M89.5 17.2012C90 18.3012 90.8 19.1012 92 19.5012L89.5 17.2012Z" fill="#404041"/>
<path fill-rule="evenodd" clip-rule="evenodd" d="M92.4004 19.6016C93.2004 19.9016 93.9004 20.1016 94.6004 20.5016L92.4004 19.6016Z" fill="#404041"/>
<path fill-rule="evenodd" clip-rule="evenodd" d="M94.5996 20.4004C94.8996 20.6004 95.1996 20.7004 95.5996 20.9004L94.5996 20.4004Z" fill="#404041"/>
<path fill-rule="evenodd" clip-rule="evenodd" d="M95.5 21C95.9 21.3 96.3 21.5 96.7 21.8L95.5 21Z" fill="#404041"/>
<path fill-rule="evenodd" clip-rule="evenodd" d="M96.8008 21.8008C97.4008 22.2008 97.5008 22.9008 97.3008 23.6008L96.8008 21.8008Z" fill="#404041"/>
<path fill-rule="evenodd" clip-rule="evenodd" d="M97.1992 23.6016C96.1992 26.9016 94.7992 29.9016 93.1992 32.9016L97.1992 23.6016Z" fill="#404041"/>
<path fill-rule="evenodd" clip-rule="evenodd" d="M93.1992 32.9004C90.8992 37.1004 88.1992 41.0004 84.6992 44.2004L93.1992 32.9004Z" fill="#404041"/>
<path fill-rule="evenodd" clip-rule="evenodd" d="M84.6008 44.2012C83.7008 45.0012 82.7008 45.8012 81.8008 46.5012L84.6008 44.2012Z" fill="#404041"/>
<path fill-rule="evenodd" clip-rule="evenodd" d="M81.8 46.5C81.4 46.8 80.9 47.2 80.5 47.5L81.8 46.5Z" fill="#404041"/>
<path fill-rule="evenodd" clip-rule="evenodd" d="M80.4992 47.5C80.3992 47.6 80.1992 47.7 80.1992 47.7L80.4992 47.5Z" fill="#404041"/>
<path fill-rule="evenodd" clip-rule="evenodd" d="M80.1992 47.7012C81.2992 48.1012 82.3992 48.5012 83.4992 49.0012L80.1992 47.7012Z" fill="#404041"/>
<path fill-rule="evenodd" clip-rule="evenodd" d="M83.5 49C84.9 49.5 86.2 50.1 87.6 50.7L83.5 49Z" fill="#404041"/>
<path fill-rule="evenodd" clip-rule="evenodd" d="M87.5996 50.6016C87.7996 50.7016 87.9996 50.8016 88.0996 50.8016L87.5996 50.6016Z" fill="#404041"/>
<path fill-rule="evenodd" clip-rule="evenodd" d="M88.0996 50.9004C89.2996 51.4004 90.3996 51.9004 91.6996 52.2004L88.0996 50.9004Z" fill="#404041"/>
<path fill-rule="evenodd" clip-rule="evenodd" d="M91.6992 52.2012C92.4992 52.4012 93.1992 52.7012 93.8992 53.0012L91.6992 52.2012Z" fill="#404041"/>
<path fill-rule="evenodd" clip-rule="evenodd" d="M93.9004 53C94.2004 53.1 94.4004 53.2 94.7004 53.4L93.9004 53Z" fill="#404041"/>
<path fill-rule="evenodd" clip-rule="evenodd" d="M94.6992 53.4004C94.9992 53.5004 95.2992 53.7004 95.5992 53.8004L94.6992 53.4004Z" fill="#404041"/>
<path fill-rule="evenodd" clip-rule="evenodd" d="M95.6992 53.8008C95.9992 53.9008 96.2992 54.1008 96.5992 54.2008L95.6992 53.8008Z" fill="#404041"/>
<path fill-rule="evenodd" clip-rule="evenodd" d="M96.5 54.2012C98 54.8012 98.8 56.4012 98.3 57.9012L96.5 54.2012Z" fill="#404041"/>
<path fill-rule="evenodd" clip-rule="evenodd" d="M98.4008 57.9004C97.9008 59.5004 96.4008 60.4004 94.8008 60.1004L98.4008 57.9004Z" fill="#404041"/>
<path fill-rule="evenodd" clip-rule="evenodd" d="M94.5008 60.1012C93.3008 59.6012 92.4008 60.1012 91.3008 60.7012L94.5008 60.1012Z" fill="#404041"/>
<path fill-rule="evenodd" clip-rule="evenodd" d="M91.2996 60.7012C88.2996 62.4012 84.9996 63.3012 81.5996 63.9012L91.2996 60.7012Z" fill="#404041"/>
<path fill-rule="evenodd" clip-rule="evenodd" d="M81.5992 63.9004C74.7992 65.1004 67.9992 65.1004 61.1992 64.9004L81.5992 63.9004Z" fill="#404041"/>
<path fill-rule="evenodd" clip-rule="evenodd" d="M61.2 64.9C59.1 64.8 57 64.7 55 64.5L61.2 64.9Z" fill="#404041"/>
<path fill-rule="evenodd" clip-rule="evenodd" d="M54.9008 64.5008C54.2008 64.4008 53.5008 64.4008 52.8008 64.3008L54.9008 64.5008Z" fill="#404041"/>
<path fill-rule="evenodd" clip-rule="evenodd" d="M52.8006 64.3012C52.0006 64.2012 51.6006 63.8012 51.7006 63.2012L52.8006 64.3012Z" fill="#404041"/>
<path fill-rule="evenodd" clip-rule="evenodd" d="M51.6992 63.2008C51.7992 62.6008 52.2992 62.3008 52.9992 62.3008L51.6992 63.2008Z" fill="#404041"/>
<path fill-rule="evenodd" clip-rule="evenodd" d="M53.0996 62.4004C53.7996 62.5004 54.3996 62.5004 55.0996 62.6004L53.0996 62.4004Z" fill="#404041"/>
<path fill-rule="evenodd" clip-rule="evenodd" d="M55.0996 62.6016C56.4996 62.7016 57.9996 62.9016 59.3996 62.9016L55.0996 62.6016Z" fill="#404041"/>
<path fill-rule="evenodd" clip-rule="evenodd" d="M59.4004 62.9004C63.4004 63.0004 67.3004 63.0004 71.3004 62.9004H59.4004Z" fill="#404041"/>
<path fill-rule="evenodd" clip-rule="evenodd" d="M71.3008 62.9012C75.0008 62.8012 78.7008 62.4012 82.4008 61.7012L71.3008 62.9012Z" fill="#404041"/>
<path fill-rule="evenodd" clip-rule="evenodd" d="M82.4004 61.7C85.2004 61.1 88.0004 60.4 90.5004 59L82.4004 61.7Z" fill="#404041"/>
<path fill-rule="evenodd" clip-rule="evenodd" d="M90.5008 59.0014C88.9008 57.7014 86.8008 57.2014 84.8008 58.2014L90.5008 59.0014Z" fill="#404041"/>
<path fill-rule="evenodd" clip-rule="evenodd" d="M84.8004 58.1016C83.4004 58.8016 82.0004 59.5016 80.4004 59.9016L84.8004 58.1016Z" fill="#404041"/>
<path fill-rule="evenodd" clip-rule="evenodd" d="M80.4 59.9004C76.1 60.8004 72 60.5004 68 58.4004L80.4 59.9004Z" fill="#404041"/>
<path fill-rule="evenodd" clip-rule="evenodd" d="M68.0992 58.4005C66.2992 57.4005 64.5992 57.5005 62.6992 58.4005H68.0992Z" fill="#404041"/>
<path fill-rule="evenodd" clip-rule="evenodd" d="M62.6992 58.4004C57.3992 61.1004 51.9992 61.2004 46.6992 58.4004H62.6992Z" fill="#404041"/>
<path fill-rule="evenodd" clip-rule="evenodd" d="M46.6992 58.4008C44.5992 57.3008 42.6992 57.4008 40.6992 58.7008L46.6992 58.4008Z" fill="#404041"/>
<path fill-rule="evenodd" clip-rule="evenodd" d="M40.6992 58.7012C40.7992 58.8012 40.8992 58.8012 40.9992 58.9012L40.6992 58.7012Z" fill="#404041"/>
<path fill-rule="evenodd" clip-rule="evenodd" d="M41 58.9004C41.2 59.0004 41.4 59.1004 41.5 59.2004L41 58.9004Z" fill="#404041"/>
<path fill-rule="evenodd" clip-rule="evenodd" d="M41.5 59.2012C43.5 60.3012 45.6 60.9012 47.8 61.4012L41.5 59.2012Z" fill="#404041"/>
<path fill-rule="evenodd" clip-rule="evenodd" d="M48 61.5C48.1 61.5 48.3 61.6 48.4 61.6L48 61.5Z" fill="#404041"/>
<path fill-rule="evenodd" clip-rule="evenodd" d="M48.4004 61.6016C49.0004 61.8016 49.2004 62.2016 49.1004 62.8016L48.4004 61.6016Z" fill="#404041"/>
<path fill-rule="evenodd" clip-rule="evenodd" d="M49.1 62.8008C49 63.3008 48.5 63.6008 48 63.5008L49.1 62.8008Z" fill="#404041"/>
<path fill-rule="evenodd" clip-rule="evenodd" d="M48 63.5004C44.8 62.8004 41.7 61.9004 39 59.9004L48 63.5004Z" fill="#404041"/>
<path fill-rule="evenodd" clip-rule="evenodd" d="M39 59.9013C38.7 59.7013 38.4 59.6013 38 59.7013L39 59.9013Z" fill="#404041"/>
<path fill-rule="evenodd" clip-rule="evenodd" d="M37.9996 59.7012C37.3996 59.9012 36.7996 60.0012 36.0996 60.1012L37.9996 59.7012Z" fill="#404041"/>
<path fill-rule="evenodd" clip-rule="evenodd" d="M36.1008 60.2004C34.7008 60.4004 33.3008 59.7004 32.8008 58.4004L36.1008 60.2004Z" fill="#404041"/>
<path fill-rule="evenodd" clip-rule="evenodd" d="M32.7 58.3C32.6 58.2 32.6 58.1 32.5 58L32.7 58.3Z" fill="#404041"/>
<path fill-rule="evenodd" clip-rule="evenodd" d="M32.6 58.0008C32.6 57.9008 32.5 57.9008 32.5 57.8008L32.6 58.0008Z" fill="#404041"/>
<path fill-rule="evenodd" clip-rule="evenodd" d="M76.9992 47.1004C75.8992 46.9004 74.7992 46.8004 73.6992 46.6004C74.3992 45.5004 74.9992 44.3004 74.8992 43.0004C74.7992 41.9004 75.2992 41.1004 75.8992 40.2004V40.1004C79.9992 33.5004 82.9992 26.4004 85.1992 19.0004C85.4992 18.1004 85.6992 17.3004 85.9992 16.3004C86.0992 15.9004 86.1992 15.4004 86.3992 14.9004C86.4992 15.0004 86.4992 15.1004 86.5992 15.2004C86.6992 15.4004 86.7992 15.5004 86.8992 15.6004L86.9992 15.7004C87.2992 16.3004 87.5992 16.9004 87.8992 17.6004C88.6992 19.4004 90.0992 20.6004 91.9992 21.3004C92.7992 21.6004 93.5992 21.9004 94.3992 22.3004C94.6992 22.4004 94.8992 22.5004 95.1992 22.7004C95.3992 22.8004 95.5992 22.9004 95.5992 23.2004C95.5992 23.3004 95.5992 23.4004 95.4992 23.5004C92.9992 30.7004 89.3992 37.2004 83.8992 42.5004C82.0992 44.2004 80.0992 45.7004 77.9992 46.9004C77.3992 47.0004 77.1992 47.1004 76.9992 47.1004Z" fill="#404041"/>
<path fill-rule="evenodd" clip-rule="evenodd" d="M56.0997 42.8008C56.1997 44.2008 56.5997 45.5008 57.3997 46.7008C57.0997 46.8008 56.6997 46.8008 56.3997 46.9008C55.4997 47.1008 54.5997 47.2008 53.7997 47.4008C53.5997 47.4008 53.2997 47.3008 53.0997 47.2008C48.6997 44.9008 45.2997 41.5008 42.3997 37.5008C39.2997 33.3008 36.9997 28.7008 35.2997 23.8008C35.0997 23.3008 35.1997 23.0008 35.6997 22.8008C35.8997 22.7008 36.0997 22.6008 36.2997 22.5008C36.9997 22.2008 37.5997 21.9008 38.2997 21.7008C40.5997 21.0008 42.0997 19.6008 42.9997 17.5008C43.2997 16.8008 43.5997 16.2008 43.9997 15.3008C43.9997 15.4008 44.0997 15.5008 44.0997 15.6008C44.0997 15.7008 44.1997 15.8008 44.1997 16.0008C46.1997 23.5008 48.8997 30.7008 52.6997 37.5008C53.1997 38.4008 53.6997 39.2008 54.2997 40.1008C54.7997 40.9008 55.2997 41.6008 55.7997 42.4008C55.7997 42.5008 55.8997 42.5008 55.8997 42.6008C55.9997 42.4008 56.0997 42.6008 56.0997 42.8008Z" fill="#404041"/>
<path fill-rule="evenodd" clip-rule="evenodd" d="M56.5992 39.9016C51.3992 31.8016 48.0992 23.0016 45.6992 13.7016C47.0992 13.7016 48.2992 13.6016 49.4992 13.7016C51.3992 13.8016 52.9992 13.4016 54.3992 12.1016C55.2992 11.3016 56.0992 10.5016 56.9992 9.70156C57.1992 9.50156 57.3992 9.40156 57.5992 9.30156C57.6992 9.20156 57.7992 9.20156 57.9992 9.10156C57.9992 9.50156 57.9992 9.70156 57.9992 9.90156C57.5992 14.8016 57.9992 19.7016 58.5992 24.5016C59.0992 28.1016 59.7992 31.7016 60.2992 35.3016C60.2992 35.5016 60.1992 35.8016 60.0992 35.9016C58.2992 37.3016 57.7992 37.8016 56.5992 39.9016Z" fill="#404041"/>
<path fill-rule="evenodd" clip-rule="evenodd" d="M62.3003 34.9004C60.7003 26.4004 59.4003 17.8004 60.1003 8.90039C60.3003 9.00039 60.5003 9.10039 60.7003 9.20039C61.1003 9.40039 61.4003 9.60039 61.8003 9.80039C64.1003 11.2004 66.4003 11.2004 68.8003 9.80039C69.0003 9.60039 69.3003 9.50039 69.6003 9.30039C69.8003 9.20039 70.0003 9.10039 70.2003 9.00039C71.0003 17.8004 69.7003 26.3004 68.1003 34.8004C67.6003 34.8004 67.0003 34.7004 66.5003 34.7004C66.0003 34.7004 65.6003 34.6004 65.2003 34.7004C64.5003 34.7004 63.9003 34.8004 63.2003 34.9004C62.9003 34.8004 62.6003 34.9004 62.3003 34.9004Z" fill="#404041"/>
<path fill-rule="evenodd" clip-rule="evenodd" d="M42.8005 53.6008C43.2005 53.6008 43.5005 53.5008 43.9005 53.5008C46.5005 53.6008 48.9005 54.1008 51.1005 55.3008C53.5005 56.6008 55.8005 56.5008 58.3005 55.3008C63.0005 52.8008 67.9005 52.8008 72.6005 55.3008C75.1005 56.6008 77.4005 56.5008 79.9005 55.3008C84.6005 52.9008 89.4005 52.9008 94.1005 55.3008C94.6005 55.5008 95.1005 55.8008 95.6005 56.0008C96.3005 56.3008 96.7005 56.8008 96.5005 57.4008C96.3005 58.1008 95.8005 58.5008 95.0005 58.2008C94.3005 58.0008 93.6005 57.8008 92.9005 57.5008C92.3005 57.3008 91.6005 57.0008 91.0005 56.8008C90.7005 56.7008 90.3005 56.5008 90.0005 56.4008C89.4005 56.1008 88.7005 55.9008 88.1005 55.7008C86.4005 55.4008 84.9005 55.8008 83.4005 56.6008C78.7005 59.0008 73.9005 59.0008 69.2005 56.6008C66.7005 55.3008 64.3005 55.3008 61.8005 56.6008C57.2005 59.0008 52.4005 59.0008 47.8005 56.6008C45.3005 55.3008 42.9005 55.2008 40.4005 56.5008C39.5005 57.0008 38.5005 57.3008 37.5005 57.6008C37.1005 57.7008 36.7005 57.9008 36.3005 58.0008C36.2005 58.0008 36.0005 58.1008 35.9005 58.1008C35.8005 58.1008 35.7005 58.1008 35.6005 58.1008C35.0005 58.1008 34.6005 57.8008 34.5005 57.2008C34.3005 56.6008 34.5005 56.1008 35.0005 55.9008C35.5005 55.7008 35.9005 55.5008 36.4005 55.2008C37.9005 54.5008 39.3005 53.8008 41.0005 53.6008C41.6005 53.7008 42.2005 53.6008 42.8005 53.6008Z" fill="#404041"/>
<path fill-rule="evenodd" clip-rule="evenodd" d="M71 46.7008C69.6 48.0008 67.6 48.7008 65.3 48.7008C63.8 48.6008 62 48.2008 60.5 47.1008C57.5 44.8008 57.5 40.5008 60.5 38.2008C63.5 35.9008 68.2 36.1008 71.1 38.6008C73.5 40.8008 73.5 44.4008 71 46.7008Z" fill="#404041"/>
<path fill-rule="evenodd" clip-rule="evenodd" d="M84.8008 51.5019C84.9008 51.5019 84.9008 51.6019 85.0008 51.6019C84.8008 51.6019 84.5008 51.7019 84.3008 51.7019C83.8008 51.8019 83.4008 51.8019 83.0008 52.0019C81.5008 52.5019 80.0008 53.1019 78.5008 53.8019C76.9008 54.5019 75.3008 54.6019 73.8008 53.8019C70.6008 51.9019 67.1008 51.4019 63.4008 51.7019C61.3008 51.9019 59.3008 52.4019 57.5008 53.4019C55.6008 54.5019 53.7008 54.6019 51.7008 53.5019C50.1008 52.6019 48.3008 52.0019 46.3008 51.7019C46.5008 51.6019 46.6008 51.5019 46.7008 51.5019C50.1008 50.1019 53.6008 49.3019 57.2008 48.7019C58.3008 48.5019 59.1008 48.7019 60.1008 49.3019C63.5008 51.4019 68.3008 51.1019 71.5008 48.7019C71.7008 48.6019 72.0008 48.4019 72.2008 48.5019C76.4008 49.0019 80.5008 49.9019 84.5008 51.5019C84.7008 51.4019 84.7008 51.5019 84.8008 51.5019Z" fill="#404041"/>
</svg>
