<svg width="131" height="72" viewBox="0 0 131 72" fill="none" xmlns="http://www.w3.org/2000/svg">
<path fill-rule="evenodd" clip-rule="evenodd" d="M94.9995 46.8007C94.4995 46.4007 93.9995 46.0007 93.3995 45.7007C88.5995 42.6007 83.5995 39.9007 78.1995 37.8007C77.1995 37.4007 76.6995 36.8007 76.4995 36.0007L78.0995 35.1007C79.4995 34.3007 80.8995 33.5007 82.2995 32.7007C82.9995 32.3007 83.6995 32.5007 83.9995 33.3007C84.2995 34.0007 84.5995 34.8007 84.8995 35.5007C85.1995 36.2007 85.7995 36.6007 86.4995 36.5007C87.2995 36.5007 87.8995 36.0007 87.9995 35.3007C88.3995 33.5007 89.3995 32.3007 91.1995 31.9007C91.8995 31.7007 92.2995 31.1007 92.2995 30.3007C92.2995 29.5007 91.7995 29.0007 91.0995 28.7007C90.8995 28.6007 90.6995 28.5007 90.4995 28.4007L89.7995 28.1007L89.1995 27.8007L89.3995 27.7007L89.5995 27.5007C89.7995 27.3007 89.9995 27.1007 90.1995 27.0007C90.5995 26.7007 90.8995 26.3007 91.1995 26.0007C91.5995 25.6007 91.9995 25.2007 92.3995 24.8007C93.7995 23.4007 94.0995 21.7007 93.4995 19.8007C92.7995 17.4007 91.2995 15.6007 89.5995 13.9007C86.4995 10.9007 82.7995 8.70071 78.7995 7.00071C72.2995 4.20071 65.5995 3.20071 58.5995 4.80071C55.1995 5.60071 51.8995 6.80071 48.7995 8.50071C48.1995 8.90071 47.9995 9.40071 48.1995 9.90071C48.2995 10.1007 48.4995 10.3007 48.6995 10.3007C48.8995 10.3007 48.9995 10.3007 49.1995 10.3007C49.2995 10.3007 49.4995 10.2007 49.6995 10.1007C49.8995 10.0007 50.0995 9.90071 50.1995 9.80071C52.1995 8.80071 54.2995 7.90071 56.5995 7.20071C56.3995 7.40071 56.3995 7.40071 56.2995 7.50071C53.5995 9.70071 51.2995 12.2007 49.6995 15.3007C49.5995 15.5007 49.2995 15.6007 49.0995 15.6007C48.5995 15.6007 47.9995 15.7007 47.4995 15.7007C47.0995 15.7007 46.5995 15.8007 46.1995 15.8007C45.6995 15.8007 45.1995 15.9007 44.6995 16.0007C43.4995 16.2007 42.2995 16.6007 41.0995 16.9007C41.2995 16.7007 41.3995 16.5007 41.4995 16.4007C42.8995 14.8007 44.4995 13.4007 46.1995 12.2007C46.7995 11.8007 46.8995 11.2007 46.5995 10.8007C46.1995 10.3007 45.6995 10.3007 45.0995 10.7007C44.8995 10.9007 44.6995 11.0007 44.4995 11.2007C43.3995 12.1007 42.1995 13.0007 41.1995 14.0007C39.5995 15.5007 38.2995 17.3007 37.4995 19.4007C36.6995 21.5007 36.9995 23.4007 38.6995 25.0007C38.7995 25.1007 38.8995 25.2007 38.9995 25.3007L39.1995 25.5007C39.2995 25.6007 39.3995 25.7007 39.3995 25.7007C42.8995 28.8007 46.6995 31.5007 50.7995 33.8007C51.0995 34.0007 51.4995 34.2007 51.7995 34.4007C52.2995 34.7007 52.6995 34.9007 53.1995 35.2007C53.5995 35.4007 53.8995 35.6007 54.2995 35.8007C54.0995 36.7007 53.6995 37.3007 52.6995 37.6007C51.6995 37.9007 50.6995 38.4007 49.6995 38.8007L49.3995 38.9007C49.1995 39.0007 48.9995 39.1007 48.7995 39.2007C48.1995 39.5007 47.4995 39.8007 46.8995 40.1007C46.5995 40.2007 46.2995 40.4007 45.9995 40.5007L45.8995 40.2007L45.9995 39.7007C45.7995 39.1007 45.4995 38.5007 45.2995 37.9007C44.9995 37.2007 44.4995 36.8007 43.6995 36.8007C42.8995 36.8007 42.3995 37.2007 42.0995 37.9007L41.9995 38.3007C41.8995 38.5007 41.7995 38.8007 41.6995 39.0007C41.5995 39.3007 41.3995 39.7007 41.2995 40.0007C41.2995 40.1007 41.1995 40.2007 41.0995 40.3007C40.9995 40.4007 40.8995 40.5007 40.7995 40.6007C40.3995 40.8007 40.0995 40.9007 39.6995 41.1007C39.3995 41.2007 39.0995 41.4007 38.6995 41.5007C37.7995 41.9007 37.4995 42.7007 37.9995 43.6007C38.1995 44.0007 38.5995 44.3007 38.9995 44.7007C38.8995 44.8007 38.7995 44.8007 38.6995 44.9007C38.4995 45.0007 38.1995 45.2007 37.9995 45.4007C36.9995 46.2007 35.9995 46.9007 34.9995 47.8007C33.4995 49.0007 33.1995 50.6007 33.7995 52.4007C34.4995 54.4007 35.7995 56.0007 37.2995 57.4007C40.1995 60.1007 43.4995 62.1007 47.0995 63.8007C51.2995 65.8007 55.6995 67.1007 60.3995 67.7007L60.8995 67.8007L61.9995 67.9007L63.0995 68.0007H67.8995C68.8995 67.9007 69.7995 67.8007 70.7995 67.6007C76.3995 66.8007 81.5995 65.1007 86.4995 62.4007C89.3995 60.8007 92.0995 58.9007 94.3995 56.5007C95.7995 55.0007 96.8995 53.4007 97.4995 51.4007V49.9007C96.8995 48.6007 95.9995 47.7007 94.9995 46.8007ZM90.0995 30.3007C87.8995 30.8007 86.8995 32.2007 86.4995 34.2007C85.9995 32.2007 84.9995 30.8007 82.7995 30.4007C83.0995 30.2007 83.3995 30.1007 83.6995 29.9007C84.0995 29.7007 84.3995 29.6007 84.6995 29.4007C84.8995 29.3007 85.0995 29.1007 85.2995 28.9007C85.6995 28.5007 85.8995 27.9007 86.1995 27.2007C86.2995 26.9007 86.3995 26.6007 86.5995 26.3007C86.8995 28.4007 87.8995 29.8007 90.0995 30.3007ZM91.5995 22.6007C90.8995 23.4007 90.1995 24.2007 89.3995 25.0007C89.0995 25.3007 88.6995 25.7007 88.3995 26.1007C88.1995 25.7007 88.0995 25.4007 87.9995 25.2007C87.5995 24.4007 87.0995 24.0007 86.3995 24.0007C85.4995 24.0007 85.0995 24.5007 84.7995 25.2007C84.4995 25.9007 84.2995 26.6007 83.9995 27.2007C83.8995 27.4007 83.6995 27.7007 83.3995 27.8007C83.2995 27.9007 83.1995 27.9007 82.9995 28.0007C82.7995 28.1007 82.4995 28.2007 82.1995 28.3007L81.9995 28.5007C81.8995 28.5007 81.7995 28.6007 81.5995 28.7007C80.3995 29.2007 80.0995 30.2007 80.7995 31.5007L75.4995 34.4007L74.7995 33.5007C78.2995 28.7007 81.7995 23.9007 81.8995 17.5007C82.1995 17.5007 82.4995 17.6007 82.8995 17.6007C83.5995 17.7007 84.2995 17.8007 84.9995 17.9007C85.9995 18.1007 86.8995 18.4007 87.7995 18.6007C88.3995 18.8007 88.8995 18.9007 89.4995 19.1007C90.0995 19.3007 90.6995 19.7007 91.2995 20.1007C92.0995 20.8007 92.2995 21.8007 91.5995 22.6007ZM89.7995 17.0007C87.0995 16.0007 84.3995 15.6007 81.5995 15.6007C81.4995 15.6007 81.3995 15.6007 81.3995 15.5007C81.2995 15.5007 81.1995 15.4007 81.0995 15.3007C79.4995 12.3007 77.1995 9.80071 74.5995 7.60071C74.4995 7.50071 74.4995 7.50071 74.4995 7.40071C80.3995 9.30071 85.6995 12.2007 89.7995 17.0007ZM64.8995 5.90071C66.1995 5.80071 67.4995 6.00071 68.7995 6.50071C71.5995 7.50071 73.8995 9.30071 75.8995 11.5007C68.8995 9.20071 61.8995 9.20071 54.8995 11.7007C57.6995 8.70071 60.7995 6.30071 64.8995 5.90071ZM52.4995 15.1007C54.1995 13.7007 56.1995 13.1007 58.2995 12.6007C60.7995 12.0007 63.3995 11.6007 65.9995 11.7007C69.3995 11.8007 72.7995 12.4007 75.8995 13.7007C76.8995 14.1007 77.8995 14.8007 78.7995 15.5007C79.7995 16.3007 80.1995 17.5007 79.8995 18.8007C78.7995 23.8007 76.4995 28.1007 73.4995 32.1007C68.0995 28.3007 62.8995 28.3007 57.4995 32.2007C56.4995 30.6007 55.3995 29.0007 54.4995 27.3007C53.0995 24.7007 51.8995 22.0007 51.2995 19.1007C50.8995 17.4007 51.2995 16.1007 52.4995 15.1007ZM53.9995 33.3007C53.3995 32.9007 52.6995 32.6007 52.0995 32.3007C51.5995 32.0007 50.9995 31.7007 50.4995 31.3007C47.0995 29.2007 43.8995 27.0007 40.8995 24.3007C40.6995 24.1007 40.4995 23.9007 40.2995 23.7007C40.0995 23.5007 39.8995 23.3007 39.6995 23.0007C38.7995 21.8007 38.8995 20.6007 40.0995 19.8007C41.0995 19.1007 42.1995 18.6007 43.3995 18.3007C44.5995 18.0007 45.8995 17.8007 47.1995 17.6007C47.6995 17.5007 48.1995 17.5007 48.6995 17.4007C48.7995 17.4007 48.8995 17.4007 48.9995 17.4007H49.0995C49.3995 22.0007 51.5995 25.8007 53.6995 29.6007C54.1995 30.5007 54.7995 31.3007 55.2995 32.1007C55.5995 32.5007 55.7995 32.9007 56.0995 33.3007L55.4995 34.1007C54.9995 33.9007 54.4995 33.6007 53.9995 33.3007ZM40.3995 42.9007C40.5995 42.8007 40.6995 42.7007 40.8995 42.7007C41.4995 42.4007 42.0995 42.1007 42.4995 41.7007C42.8995 41.3007 43.0995 40.7007 43.3995 40.0007C43.4995 39.7007 43.5995 39.4007 43.7995 39.1007C44.1995 41.1007 45.1995 42.6007 47.3995 43.0007C45.2995 43.5007 44.1995 44.9007 43.7995 46.9007L43.5995 46.8007L43.2995 46.0007C43.2995 45.9007 43.1995 45.8007 43.1995 45.8007C43.0995 45.6007 42.9995 45.4007 42.9995 45.2007C42.7995 44.4007 42.2995 44.0007 41.5995 43.7007C41.2995 43.6007 40.8995 43.4007 40.5995 43.3007C40.3995 43.2007 40.2995 43.2007 40.0995 43.1007C40.1995 43.0007 40.2995 43.0007 40.3995 42.9007ZM55.0995 64.7007C48.3995 62.7007 42.1995 59.9007 37.3995 54.7007C37.6995 54.8007 37.9995 54.9007 38.2995 55.0007C38.4995 55.1007 38.7995 55.2007 38.9995 55.2007C39.3995 55.3007 39.7995 55.4007 40.2995 55.5007C42.5995 56.0007 44.8995 56.2007 47.1995 56.1007C47.3995 56.1007 47.4995 56.1007 47.5995 56.2007C47.6995 56.2007 47.7995 56.3007 47.8995 56.5007C49.5995 59.6007 51.9995 62.2007 54.7995 64.3007C54.8995 64.4007 54.9995 64.4007 55.0995 64.5007L55.1995 64.6007L55.0995 64.7007ZM52.4995 59.5007C61.2995 62.3007 69.9995 62.3007 78.7995 59.4007C70.9995 68.4007 59.9995 68.3007 52.4995 59.5007ZM75.9995 64.6007C76.1995 64.4007 76.2995 64.3007 76.3995 64.3007C79.1995 62.2007 81.4995 59.6007 83.1995 56.6007C83.2995 56.4007 83.4995 56.2007 83.6995 56.2007C87.0995 56.2007 90.3995 55.8007 93.5995 54.7007C88.6995 59.8007 82.5995 62.7007 75.9995 64.6007ZM95.0995 51.4007C94.1995 52.0007 93.2995 52.6007 92.2995 53.0007C89.3995 54.1007 86.2995 54.3007 83.1995 54.2007C82.3995 54.2007 81.8995 54.3007 81.4995 55.1007C80.8995 56.1007 79.8995 56.6007 78.8995 57.1007C76.3995 58.3007 73.7995 58.9007 71.0995 59.2007C68.1995 59.6007 65.1995 59.7007 62.2995 59.5007C58.6995 59.2007 55.1995 58.7007 51.9995 57.1007C50.7995 56.5007 49.7995 55.8007 49.0995 54.7007C48.8995 54.4007 48.3995 54.3007 48.0995 54.3007C45.7995 54.3007 43.5995 54.3007 41.2995 53.8007C40.8995 53.7007 40.5995 53.6007 40.1995 53.5007C39.5995 53.3007 38.9995 53.1007 38.3995 52.9007C38.0995 52.8007 37.6995 52.7007 37.3995 52.6007C37.1995 52.5007 36.9995 52.4007 36.7995 52.3007H36.6995C35.0995 51.3007 34.8995 50.5007 36.3995 49.2007C37.3995 48.3007 38.4995 47.6007 39.5995 46.8007C40.0995 46.4007 40.5995 46.1007 41.0995 45.7007C41.4995 46.7007 41.7995 47.6007 42.1995 48.4007C42.5995 49.4007 43.6995 49.8007 44.4995 49.2007C44.6995 49.1007 44.8995 48.9007 44.9995 48.8007C45.0995 48.7007 45.1995 48.5007 45.2995 48.4007C45.5995 47.7007 45.8995 46.9007 46.1995 46.2007C46.2995 46.0007 46.4995 45.7007 46.7995 45.6007C47.1995 45.4007 47.5995 45.2007 47.9995 45.1007L48.1995 45.0007C48.2995 44.9007 48.3995 44.9007 48.4995 44.9007C49.8995 44.3007 50.0995 43.1007 48.9995 42.0007C48.8995 41.9007 48.8995 41.9007 48.6995 41.7007L53.2995 39.7007C53.2995 39.8007 53.2995 40.0007 53.2995 40.2007C53.2995 41.2007 53.2995 42.1007 53.2995 43.1007C53.6995 48.3007 57.8995 53.0007 63.0995 54.0007C65.9995 54.5007 68.7995 54.1007 71.3995 52.8007C71.8995 52.5007 72.1995 52.1007 71.9995 51.6007C71.7995 51.1007 71.4995 50.9007 70.9995 51.0007C70.7995 51.0007 70.4995 51.2007 70.2995 51.3007C67.4995 52.7007 64.5995 52.8007 61.6995 51.7007C57.2995 50.0007 54.6995 45.6007 55.1995 40.8007C55.5995 36.4007 59.0995 32.7007 63.5995 31.8007C69.9995 30.0007 75.9995 35.0007 75.8995 41.7007C75.8995 44.2007 74.9995 46.4007 73.4995 48.3007C73.2995 48.6007 73.0995 48.9007 73.0995 49.2007C73.0995 49.3007 73.1995 49.4007 73.1995 49.6007C73.2995 49.8007 73.4995 50.0007 73.6995 50.0007C73.9995 50.1007 74.4995 49.9007 74.6995 49.7007C75.9995 48.3007 76.7995 46.7007 77.2995 44.9007C77.6995 43.4007 77.8995 42.0007 77.6995 40.5007C77.6995 40.4007 77.6995 40.3007 77.6995 40.2007C77.6995 40.1007 77.6995 40.1007 77.6995 40.0007V39.6007C78.2995 39.9007 78.8995 40.1007 79.3995 40.4007H79.4995C79.9995 40.6007 80.4995 40.9007 80.9995 41.1007C81.7995 41.5007 82.5995 41.9007 83.3995 42.3007C87.0995 44.2007 90.7995 46.2007 94.0995 48.8007C94.4995 49.1007 94.8995 49.5007 95.1995 49.8007C95.7995 50.4007 95.7995 50.9007 95.0995 51.4007Z" fill="#404041"/>
<path fill-rule="evenodd" clip-rule="evenodd" d="M66.5996 35.2008C66.5996 35.7008 66.1996 36.1008 65.5996 36.2008C63.7996 36.3008 62.3996 36.9008 61.2996 38.3008C60.4996 39.3008 60.0996 40.3008 59.9996 41.6008C59.8996 42.4008 59.5996 42.8008 58.9996 42.8008C58.3996 42.8008 58.0996 42.3008 58.0996 41.5008C58.0996 38.1008 60.8996 35.0008 64.2996 34.4008C64.6996 34.3008 65.0996 34.3008 65.4996 34.3008C66.0996 34.3008 66.5996 34.7008 66.5996 35.2008Z" fill="#404041"/>
</svg>
