<svg width="131" height="72" viewBox="0 0 131 72" fill="none" xmlns="http://www.w3.org/2000/svg">
<path fill-rule="evenodd" clip-rule="evenodd" d="M89.9994 38.4992C89.8994 38.3992 89.7994 38.1992 89.7994 37.9992C89.7994 36.9992 89.7994 35.8992 89.7994 34.8992C89.7994 34.6992 89.8994 34.4992 89.9994 34.3992C90.7994 33.7992 91.1994 32.9992 90.9994 31.9992C90.7994 30.9992 90.1994 30.2992 89.1994 29.9992C88.9994 29.8992 88.7994 29.7992 88.7994 29.5992C88.3994 28.5992 88.0994 27.5992 87.6994 26.6992C87.5994 26.4992 87.6994 26.2992 87.6994 26.1992C88.2994 25.2992 88.3994 24.4992 87.7994 23.5992C87.2994 22.6992 86.4994 22.2992 85.4994 22.3992C85.1994 22.3992 84.9994 22.2992 84.7994 22.0992C84.4994 21.6992 84.0994 21.2992 83.7994 20.8992C83.4994 20.4992 83.1994 20.1992 82.8994 19.7992C82.7994 19.6992 82.6994 19.3992 82.6994 19.1992C82.8994 18.1992 82.6994 17.2992 81.8994 16.6992C81.0994 16.0992 80.1994 15.9992 79.2994 16.3992C79.1994 16.4992 78.8994 16.4992 78.7994 16.3992C78.2994 16.0992 77.7994 15.8992 77.2994 15.5992C76.8994 15.3992 76.4994 15.0992 75.9994 14.7992C75.8994 14.6992 75.6994 14.4992 75.6994 14.3992C75.5994 13.3992 74.9994 12.5992 74.0994 12.2992C73.0994 11.9992 72.2994 12.1992 71.4994 12.8992C71.3994 12.9992 71.1994 13.0992 70.9994 12.9992C69.9994 12.7992 68.8994 12.5992 67.8994 12.3992C67.6994 12.3992 67.5994 12.1992 67.4994 12.0992C66.9994 11.1992 66.2994 10.6992 65.2994 10.6992C64.1994 10.6992 63.4994 11.1992 63.0994 12.0992C62.9994 12.1992 62.8994 12.3992 62.6994 12.3992C61.6994 12.5992 60.5994 12.7992 59.5994 12.9992C59.3994 12.9992 59.1994 12.8992 58.9994 12.7992C58.2994 12.0992 57.3994 11.8992 56.4994 12.1992C55.5994 12.4992 54.9994 13.1992 54.8994 14.1992C54.8994 14.3992 54.6994 14.6992 54.4994 14.7992C53.9994 15.0992 53.4994 15.3992 53.0994 15.5992C52.6994 15.7992 52.2994 15.9992 51.9994 16.2992C51.7994 16.3992 51.5994 16.4992 51.2994 16.3992C50.3994 15.9992 49.4994 16.0992 48.7994 16.6992C47.9994 17.3992 47.7994 18.1992 47.9994 19.1992C47.9994 19.3992 47.9994 19.6992 47.7994 19.7992C47.5994 20.0992 47.2994 20.3992 46.9994 20.7992C46.6994 21.1992 46.2994 21.5992 45.9994 21.9992C45.8994 22.1992 45.6994 22.2992 45.5994 22.3992C45.4994 22.4992 45.2994 22.4992 45.0994 22.4992C44.0994 22.4992 43.3994 22.8992 42.8994 23.6992C42.3994 24.5992 42.4994 25.3992 42.9994 26.1992C43.0994 26.2992 43.0994 26.3992 43.0994 26.4992C43.0994 26.5992 43.0994 26.6992 42.9994 26.8992C42.7994 27.4992 42.4994 28.0992 42.2994 28.6992C42.1994 28.9992 42.0994 29.3992 41.8994 29.6992C41.8994 29.7992 41.7994 29.8992 41.6994 29.9992C41.5994 30.0992 41.5994 30.0992 41.4994 30.0992C40.4994 30.3992 39.8994 30.9992 39.6994 31.9992C39.4994 32.9992 39.8994 33.7992 40.6994 34.4992C40.7994 34.5992 40.8994 34.7992 40.8994 34.8992C40.8994 35.9992 40.8994 36.9992 40.8994 38.0992C40.8994 38.2992 40.7994 38.4992 40.6994 38.5992C39.8994 39.1992 39.4994 40.0992 39.6994 41.0992C39.8994 42.0992 40.4994 42.6992 41.4994 42.9992C41.5994 42.9992 41.7994 43.1992 41.8994 43.2992C42.2994 44.2992 42.6994 45.2992 42.9994 46.2992C42.9994 46.3992 42.9994 46.5992 42.9994 46.6992C42.3994 47.5992 42.2994 48.4992 42.7994 49.3992C43.2994 50.2992 44.1994 50.6992 45.1994 50.5992C45.3994 50.5992 45.5994 50.6992 45.6994 50.8992C46.3994 51.6992 46.9994 52.4992 47.6994 53.2992C47.7994 53.3992 47.8994 53.6992 47.7994 53.7992C47.5994 54.7992 47.7994 55.6992 48.5994 56.2992C49.3994 56.8992 50.2994 56.9992 51.1994 56.5992C51.3994 56.4992 51.5994 56.5992 51.6994 56.5992C52.5994 57.0992 53.4994 57.5992 54.3994 58.1992C54.5994 58.2992 54.6994 58.4992 54.6994 58.6992C54.7994 59.6992 55.3994 60.3992 56.2994 60.7992C57.2994 61.0992 58.0994 60.8992 58.8994 60.1992C58.9994 60.0992 59.2994 59.9992 59.3994 59.9992C60.9994 60.1992 62.5994 60.4992 64.2994 60.7992C64.3994 61.0992 64.5994 61.4992 65.0994 61.4992C65.3994 61.4992 65.5994 61.3992 65.6994 61.2992C65.7994 61.1992 65.8994 60.9992 65.9994 60.7992C67.6994 60.4992 69.2994 60.1992 70.8994 59.9992C71.0994 59.9992 71.2994 59.9992 71.3994 60.1992C72.1994 60.8992 72.9994 61.0992 73.9994 60.7992C74.9994 60.4992 75.4994 59.6992 75.5994 58.6992C75.5994 58.4992 75.7994 58.2992 75.8994 58.1992C76.7994 57.6992 77.6994 57.1992 78.5994 56.6992C78.7994 56.5992 78.9994 56.5992 79.1994 56.6992C80.1994 57.0992 80.9994 56.9992 81.7994 56.3992C82.5994 55.6992 82.7994 54.8992 82.5994 53.8992C82.5994 53.7992 82.5994 53.6992 82.5994 53.4992C82.5994 53.3992 82.6994 53.2992 82.6994 53.2992C83.2994 52.5992 83.8994 51.8992 84.4994 51.0992C84.6994 50.7992 84.8994 50.6992 85.2994 50.6992C86.2994 50.6992 86.9994 50.2992 87.4994 49.4992C87.9994 48.5992 87.8994 47.7992 87.3994 46.9992C87.1994 46.7992 87.1994 46.5992 87.2994 46.2992C87.6994 45.3992 87.9994 44.3992 88.2994 43.4992C88.3994 43.2992 88.4994 43.0992 88.7994 42.9992C89.7994 42.6992 90.3994 42.0992 90.4994 40.9992C91.0994 39.8992 90.7994 39.0992 89.9994 38.4992ZM85.7994 23.8992C86.1994 23.8992 86.5994 24.2992 86.5994 24.6992C86.5994 25.0992 86.1994 25.4992 85.7994 25.4992C85.3994 25.4992 84.9994 25.0992 84.9994 24.6992C84.9994 24.2992 85.3994 23.8992 85.7994 23.8992ZM80.4994 17.5992C80.8994 17.5992 81.2994 17.9992 81.2994 18.3992C81.2994 18.7992 80.8994 19.1992 80.4994 19.1992C80.0994 19.1992 79.6994 18.7992 79.6994 18.3992C79.6994 17.9992 80.0994 17.5992 80.4994 17.5992ZM73.4994 13.4992C73.8994 13.4992 74.2994 13.8992 74.2994 14.2992C74.2994 14.6992 73.8994 15.0992 73.4994 15.0992C73.0994 15.0992 72.7994 14.6992 72.7994 14.2992C72.6994 13.8992 73.0994 13.4992 73.4994 13.4992ZM65.4994 12.0992C65.8994 12.0992 66.2994 12.4992 66.2994 12.8992C66.2994 13.2992 65.8994 13.6992 65.4994 13.6992C65.0994 13.6992 64.6994 13.2992 64.6994 12.8992C64.6994 12.4992 65.0994 12.0992 65.4994 12.0992ZM57.3994 13.4992C57.7994 13.4992 58.1994 13.7992 58.1994 14.2992C58.1994 14.6992 57.8994 15.0992 57.3994 15.0992C56.9994 15.0992 56.5994 14.7992 56.5994 14.2992C56.5994 13.7992 56.9994 13.4992 57.3994 13.4992ZM50.3994 17.5992C50.7994 17.5992 51.1994 17.9992 51.1994 18.3992C51.1994 18.7992 50.7994 19.1992 50.2994 19.1992C49.8994 19.1992 49.4994 18.7992 49.4994 18.3992C49.4994 17.9992 49.8994 17.5992 50.3994 17.5992ZM45.0994 23.8992C45.4994 23.8992 45.8994 24.2992 45.8994 24.6992C45.8994 25.0992 45.4994 25.4992 45.0994 25.4992C44.6994 25.4992 44.2994 25.0992 44.2994 24.6992C44.2994 24.1992 44.6994 23.8992 45.0994 23.8992ZM41.9994 31.5992C42.0994 31.5992 42.1994 31.5992 42.2994 31.5992C42.6994 31.5992 43.0994 31.8992 43.0994 32.2992C43.0994 32.7992 42.7994 33.0992 42.3994 33.0992C41.8994 33.0992 41.5994 32.7992 41.5994 32.2992C41.4994 31.9992 41.6994 31.6992 41.9994 31.5992ZM42.2994 41.2992C41.7994 41.2992 41.4994 40.9992 41.4994 40.4992C41.4994 39.9992 41.7994 39.6992 42.2994 39.6992C42.6994 39.6992 43.0994 39.9992 43.0994 40.4992C43.0994 40.8992 42.7994 41.2992 42.2994 41.2992ZM45.0994 48.9992C44.6994 48.9992 44.2994 48.5992 44.2994 48.1992C44.2994 47.7992 44.6994 47.3992 45.0994 47.3992C45.4994 47.3992 45.8994 47.7992 45.8994 48.1992C45.8994 48.4992 45.4994 48.8992 45.0994 48.9992ZM50.2994 55.1992C49.8994 55.1992 49.4994 54.7992 49.4994 54.3992C49.4994 53.9992 49.8994 53.5992 50.2994 53.5992C50.6994 53.5992 51.0994 53.9992 51.0994 54.3992C51.0994 54.8992 50.6994 55.1992 50.2994 55.1992ZM57.3994 59.2992C56.9994 59.2992 56.5994 58.8992 56.5994 58.4992C56.5994 57.9992 56.9994 57.6992 57.3994 57.6992C57.7994 57.6992 58.1994 58.0992 58.1994 58.4992C58.1994 58.8992 57.7994 59.2992 57.3994 59.2992ZM73.4994 59.2992C73.0994 59.2992 72.6994 58.8992 72.6994 58.4992C72.6994 58.0992 73.0994 57.6992 73.4994 57.6992C73.8994 57.6992 74.2994 58.0992 74.2994 58.4992C74.2994 58.8992 73.8994 59.2992 73.4994 59.2992ZM80.4994 55.1992C80.0994 55.1992 79.6994 54.7992 79.6994 54.3992C79.6994 53.9992 80.0994 53.5992 80.4994 53.5992C80.8994 53.5992 81.2994 53.9992 81.2994 54.3992C81.2994 54.8992 80.8994 55.1992 80.4994 55.1992ZM85.7994 48.9992C85.3994 48.9992 84.9994 48.5992 84.9994 48.1992C84.9994 47.7992 85.3994 47.3992 85.7994 47.3992C86.1994 47.3992 86.5994 47.7992 86.5994 48.1992C86.5994 48.5992 86.1994 48.8992 85.7994 48.9992ZM86.9994 42.3992C87.0994 42.4992 87.1994 42.7992 87.0994 42.9992C86.7994 43.7992 86.4994 44.5992 86.1994 45.4992C86.1994 45.5992 86.0994 45.6992 85.9994 45.6992C85.8994 45.6992 85.8994 45.7992 85.7994 45.7992C83.5994 45.9992 82.6994 47.7992 83.7994 49.7992C83.0994 50.5992 82.4994 51.3992 81.7994 52.0992C81.6994 52.1992 81.4994 52.1992 81.3994 52.1992C79.4994 51.5992 77.8994 52.9992 78.0994 54.9992C78.0994 55.0992 77.9994 55.2992 77.8994 55.3992C77.0994 55.8992 76.2994 56.3992 75.4994 56.7992C75.3994 56.8992 75.1994 56.7992 75.0994 56.6992C73.3994 55.4992 71.5994 56.1992 71.0994 58.0992C71.0994 58.2992 70.8994 58.4992 70.6994 58.4992C67.1994 59.2992 63.6994 59.2992 60.1994 58.4992C59.9994 58.4992 59.7994 58.1992 59.7994 58.0992C59.2994 56.1992 57.3994 55.4992 55.7994 56.6992C55.6994 56.7992 55.3994 56.7992 55.2994 56.6992C54.4994 56.2992 53.7994 55.7992 52.9994 55.3992C52.8994 55.2992 52.7994 55.2992 52.7994 55.1992C52.6994 55.0992 52.6994 54.9992 52.7994 54.8992C53.0994 53.0992 51.3994 51.5992 49.5994 52.1992C49.3994 52.1992 49.1994 52.1992 49.0994 52.0992C48.3994 51.2992 47.6994 50.4992 47.0994 49.7992C48.1994 48.1992 47.3994 46.2992 45.6994 45.8992C44.7994 46.0992 44.6994 45.3992 44.4994 44.7992C44.2994 44.1992 44.0994 43.6992 43.8994 43.0992C43.7994 42.8992 43.7994 42.7992 43.8994 42.6992C43.8994 42.5992 43.9994 42.4992 44.0994 42.3992C45.4994 41.0992 45.0994 39.0992 43.3994 38.2992C43.2994 38.2992 43.1994 38.1992 43.0994 38.0992C42.9994 37.9992 42.9994 37.8992 42.9994 37.7992C42.9994 36.8992 42.9994 35.9992 42.9994 35.1992C42.9994 35.0992 42.9994 34.9992 43.0994 34.8992C43.1994 34.7992 43.1994 34.7992 43.3994 34.6992C45.0994 33.9992 45.4994 31.8992 44.1994 30.6992C43.9994 30.4992 43.8994 30.2992 43.9994 29.9992C44.1994 29.5992 44.2994 29.1992 44.3994 28.8992C44.5994 28.4992 44.6994 27.9992 44.8994 27.5992C44.9994 27.4992 45.1994 27.2992 45.2994 27.2992C47.0994 27.3992 48.5994 25.2992 47.2994 23.2992C47.6994 22.8992 48.0994 22.3992 48.3994 21.9992C48.6994 21.6992 48.9994 21.2992 49.2994 20.8992C49.3994 20.7992 49.5994 20.7992 49.6994 20.8992C51.5994 21.4992 53.1994 20.0992 52.8994 18.0992C52.8994 17.9992 52.9994 17.6992 53.0994 17.6992C53.8994 17.1992 54.6994 16.7992 55.4994 16.2992C55.5994 16.1992 55.8994 16.2992 55.9994 16.3992C57.5994 17.5992 59.4994 16.8992 59.9994 14.9992C60.0994 14.6992 60.1994 14.5992 60.4994 14.5992C61.1994 14.4992 61.8994 14.3992 62.5994 14.1992L63.3994 14.0992C64.8994 16.0992 66.7994 16.0992 68.0994 14.0992L68.7994 14.1992C69.5994 14.2992 70.2994 14.4992 71.0994 14.5992C71.1994 14.5992 71.1994 14.6992 71.2994 14.6992C71.3994 14.7992 71.3994 14.8992 71.4994 14.8992C71.7994 16.6992 73.9994 17.6992 75.4994 16.2992C75.4994 16.2992 75.5994 16.1992 75.6994 16.1992C75.7994 16.1992 75.7994 16.1992 75.8994 16.1992C76.6994 16.6992 77.4994 17.0992 78.2994 17.5992C78.3994 17.6992 78.4994 17.8992 78.4994 17.9992C78.1994 19.9992 79.7994 21.3992 81.6994 20.7992C81.7994 20.6992 82.0994 20.7992 82.1994 20.8992C82.8994 21.6992 83.4994 22.3992 84.1994 23.1992C83.0994 24.8992 83.9994 26.7992 85.4994 27.0992H85.5994C86.3994 26.8992 86.5994 27.4992 86.7994 27.9992C86.8994 28.1992 86.8994 28.3992 86.9994 28.5992C87.1994 28.9992 87.2994 29.4992 87.3994 29.8992C87.3994 30.0992 87.3994 30.2992 87.1994 30.3992C85.7994 31.7992 86.1994 33.7992 87.9994 34.5992C88.0994 34.6992 88.2994 34.8992 88.2994 34.9992C88.2994 35.8992 88.2994 36.7992 88.2994 37.6992C88.2994 37.7992 88.0994 37.9992 87.9994 38.0992C85.8994 38.9992 85.5994 40.9992 86.9994 42.3992ZM88.5994 41.2992C88.0994 41.2992 87.7994 40.9992 87.7994 40.4992C87.7994 40.0992 88.0994 39.6992 88.4994 39.6992C88.9994 39.6992 89.2994 39.9992 89.2994 40.4992C89.3994 40.8992 88.9994 41.2992 88.5994 41.2992ZM88.4994 33.0992C88.0994 33.0992 87.7994 32.7992 87.7994 32.2992C87.7994 31.7992 88.0994 31.4992 88.5994 31.4992C88.9994 31.4992 89.3994 31.8992 89.3994 32.2992C89.2994 32.7992 88.9994 33.0992 88.4994 33.0992Z" fill="#404041"/>
</svg>
