<svg width="131" height="72" viewBox="0 0 131 72" fill="none" xmlns="http://www.w3.org/2000/svg">
<path fill-rule="evenodd" clip-rule="evenodd" d="M85.9 43.5002C85.9 43.3002 86.1 43.0002 86.3 42.9002C87.5 42.3002 88.1 41.3002 88.1 40.0002C88.1 38.7002 87.4 37.8002 86.2 37.2002C86 37.1002 85.9 36.9002 85.8 36.7002C85.7 36.1002 85.6 35.5002 85.6 34.8002C85.5 33.9002 85.4 33.0002 85.2 32.1002C84.2 26.3002 82.4 20.8002 79.4 15.6002C77.6 12.5002 75.5 9.70015 72.6 7.60015C68.4 4.50015 63.5 4.30015 59.1 7.20015C56.2 9.10015 54.1 11.7002 52.3 14.6002C48.2 21.4002 46.1 28.8002 45.3 36.6002C45.3 36.9002 45.2 37.1002 44.9 37.2002C43.7 37.7002 43.1 38.7002 43 40.0002C43 41.3002 43.6 42.2002 44.7 42.8002C44.9 42.9002 45.1 43.2002 45.1 43.4002C45.2 45.8002 45.6 48.1002 46.1 50.4002C46.2 50.7002 46.1 50.9002 45.8 51.0002C44 52.2002 43.4 54.2002 44.2 56.1002C45 57.9002 47 58.9002 49 58.4002C49.3 58.3002 49.5 58.4002 49.7 58.6002C50.2 59.3002 50.7 59.9002 51.2 60.5002C51.4 60.7002 51.4 60.9002 51.3 61.2002C50.5 63.5002 51.7 65.8002 54 66.5002C54.1 66.5002 54.2 66.6002 54.2 66.6002H54.3H56L56.5 66.3002C57 66.0002 57.5 65.7002 58.1 65.4002C58.2 65.4002 58.3 65.3002 58.5 65.3002C60.1 65.7002 61.7 66.0002 63.3 66.4002L63.8 66.5002C63.8 66.5002 63.8 66.5002 63.9 66.5002H67.3L70.9 65.8002C72 65.3002 73 65.1002 74 66.1002C74.2 66.3002 74.7 66.4002 75 66.5002H76.6C76.6 66.5002 76.6 66.5002 76.7 66.5002C79 66.0002 80.6 63.5002 79.6 61.0002C79.5 60.9002 79.6 60.6002 79.7 60.4002C79.9 60.1002 80.2 59.8002 80.4 59.5002C80.7 59.2002 80.9 58.8002 81.2 58.5002C81.4 58.2002 81.6 58.1002 82 58.2002C84 58.7002 85.9 57.7002 86.7 55.9002C87.5 54.1002 86.9 52.0002 85.2 50.8002C84.9 50.6002 84.8 50.5002 84.9 50.1002C85.4 48.1002 85.8 45.8002 85.9 43.5002ZM61.7 9.50015C62.6 8.50015 63.4 7.80015 64.5 7.50015V10.7002C64.5 10.9002 64.5 11.1002 64.5 11.3002C64.5 12.0002 65 12.5002 65.6 12.4002C66.2 12.4002 66.6 11.9002 66.6 11.3002C66.6 10.4002 66.6 9.60015 66.6 8.60015V7.40015C67 7.60015 67.3 7.80015 67.7 8.00015C67.8 8.10015 68 8.20015 68.1 8.30015C69.6 9.50015 70.6 11.0002 71.5 12.6002C73.4 16.2002 74.6 20.1002 75.4 24.1002C75.7 25.6002 75.9 27.1002 76.2 28.6002C76.2 28.8002 76.1 29.1002 76 29.2002C74.5 30.1002 73.7 31.4002 73.8 33.2002C73.9 35.0002 75 36.2002 76.6 36.8002C76.7 36.8002 76.7 36.8002 76.8 36.9002C76.7 38.1002 76.6 39.4002 76.6 40.7002C76.6 41.7002 76.3 42.1002 75.3 42.5002C72.4 43.5002 71.7 47.3002 74.1 49.3002C74.4 49.5002 74.5 49.7002 74.5 49.9002C74.5 50.0002 74.4 50.2002 74.4 50.4002C73.3 52.7002 71.6 54.5002 69.3 55.7002C67.6 52.7002 63.6 52.7002 61.9 55.7002C61.2 55.3002 60.6 54.8002 59.9 54.4002C58.5 53.3002 57.4 51.9002 56.7 50.2002C56.6 50.1002 56.6 49.9002 56.6 49.8002C56.6 49.7002 56.7 49.6002 56.8 49.5002C58.1 48.4002 58.7 47.0002 58.3 45.3002C57.9 43.6002 56.8 42.6002 55 42.2002C54.8 42.2002 54.6 42.0002 54.6 41.8002C54.5 40.5002 54.4 39.2002 54.3 38.0002L54.2 37.0002C55.9 36.4002 56.9 35.4002 57.3 33.7002C57.6 32.0002 56.8 30.3002 55.3 29.4002C55.2 29.3002 55.1 29.3002 55 29.2002C54.9 29.1002 54.9 29.0002 54.9 28.8002C55.5 24.6002 56.4 20.4002 58 16.4002C58.9 13.9002 60 11.6002 61.7 9.50015ZM77.8 34.9002C76.7 34.9002 75.8 34.0002 75.8 32.9002C75.8 31.8002 76.7 30.9002 77.9 30.9002C79 30.9002 79.9 31.8002 79.9 33.0002C79.8 34.1002 78.9 35.0002 77.8 34.9002ZM78.8 46.2002C78.8 47.3002 77.9 48.2002 76.7 48.2002C75.6 48.2002 74.7 47.3002 74.7 46.2002C74.7 45.1002 75.6 44.1002 76.7 44.2002C77.9 44.2002 78.8 45.1002 78.8 46.2002ZM67.5 57.5002C67.5 58.6002 66.6 59.6002 65.5 59.5002C64.4 59.5002 63.5 58.6002 63.5 57.5002C63.5 56.4002 64.4 55.4002 65.5 55.4002C66.6 55.5002 67.5 56.4002 67.5 57.5002ZM54.3 44.2002C55.4 44.2002 56.3 45.1002 56.3 46.2002C56.3 47.4002 55.4 48.2002 54.2 48.2002C53.1 48.2002 52.2 47.3002 52.2 46.2002C52.2 45.1002 53.1 44.2002 54.3 44.2002ZM51.2 32.9002C51.2 31.8002 52.1 30.9002 53.2 30.9002C54.3 30.9002 55.2 31.8002 55.2 32.9002C55.2 34.0002 54.2 34.9002 53.2 34.9002C52 34.9002 51.2 34.0002 51.2 32.9002ZM46 41.1002C45.4 41.1002 45 40.7002 45 40.1002C45 39.5002 45.4 39.1002 46 39.1002C46.6 39.1002 47 39.5002 47 40.1002C47 40.7002 46.6 41.1002 46 41.1002ZM48.1 56.5002C47 56.5002 46.1 55.6002 46.1 54.5002C46.1 53.4002 47 52.5002 48.1 52.5002C49.2 52.5002 50.1 53.4002 50.1 54.5002C50.1 55.6002 49.2 56.5002 48.1 56.5002ZM55.2 64.7001C54.1 64.7001 53.2 63.8002 53.2 62.7002C53.2 61.5002 54.1 60.6002 55.2 60.7002C56.3 60.7002 57.2 61.6002 57.2 62.7002C57.3 63.8002 56.3 64.7001 55.2 64.7001ZM75.7 64.7001C74.6 64.7001 73.7 63.8002 73.7 62.7002C73.7 61.6002 74.6 60.6002 75.7 60.7002C76.8 60.7002 77.7 61.6002 77.7 62.7002C77.8 63.8002 76.8 64.7001 75.7 64.7001ZM79.6 56.9002L79.8 57.1002L78.1 59.2002C76.4 58.2002 74.8 58.1002 73.3 59.3002C71.9 60.3002 71.4 61.8002 71.7 63.5002C68.4 65.0002 62.9 65.1002 59.3 63.5002C59.6 61.7002 59.1 60.2002 57.6 59.2002C56.1 58.2002 54.5 58.3002 52.9 59.2002L51.2 57.1002C51.9 56.2002 52.2 55.3002 52.2 54.2002C52.1 52.3002 50.7 50.6002 48.8 50.4002C48.4 50.3002 48.2 50.2002 48.1 49.8002C47.8 48.0002 47.6 46.2002 47.3 44.4002L47.1 43.5002C47 43.1002 47.1 42.9002 47.5 42.7002C49.6 41.5002 49.6 38.7002 47.6 37.4002C47.5 37.3002 47.4 37.3002 47.3 37.2002C47.2 37.1002 47.2 37.0002 47.2 36.8002C48 29.6002 49.8 22.8002 53.4 16.6002C54.6 14.4002 56.1 12.4002 58 10.7002C58.1 10.6002 58.2 10.5002 58.3 10.5002C58.4 10.4002 58.4 10.4002 58.5 10.3002C58 11.3002 57.5 12.2002 57 13.1002C55 17.3002 53.9 21.7002 53 26.2002C52.9 26.7002 52.9 27.2002 52.8 27.7002C52.8 28.0002 52.7 28.3002 52.6 28.6002C52.6 28.7002 52.5 28.8002 52.5 28.8002C52.4 28.9002 52.4 28.9002 52.3 29.0002C50.3 29.5002 49.1 30.9002 49 32.9002C48.9 34.7002 50 36.2002 52 37.0002H52.1C52.2 38.8002 52.3 40.6002 52.4 42.3002C52.4 42.5002 52.2 42.7002 52 42.8002C50.6 43.8002 49.9 45.2002 50.2 46.9002C50.5 48.6002 51.5 49.7002 53.2 50.2002H53.3C54.4 50.1002 54.7 50.8002 55.1 51.6002C56.5 54.2002 58.3 56.3002 61.1 57.6002C61.3 57.7002 61.4 57.9002 61.4 58.1002C61.8 60.1002 63.3 61.4002 65.3 61.5002C67.1 61.6002 68.8 60.4002 69.3 58.7002C69.5 57.9002 69.9 57.5002 70.6 57.1002C73.2 55.7002 74.9 53.4002 76.2 50.8002C76.4 50.4002 76.5 50.3002 77 50.2002C78.9 50.0002 80.3 48.8002 80.7 47.1002C81.1 45.3002 80.4 43.7002 78.8 42.6002C78.7 42.5002 78.6 42.4002 78.5 42.2002V42.1002C78.6 40.3002 78.7 38.6002 78.8 36.9002C79.5 36.4002 80.2 36.1002 80.7 35.6002C82.9 33.3002 81.7 29.6002 78.6 28.9002C78.4 28.9002 78.3 28.8002 78.2 28.7002C78.1 28.6002 78.1 28.5002 78.1 28.3002C77.3 23.0002 76.1 17.8002 73.8 13.0002C73.6 12.5002 73.3 12.0002 73.1 11.6002C72.9 11.2002 72.7 10.8002 72.5 10.3002C74.1 11.7002 75.4 13.3002 76.6 15.0002C79.5 19.5002 81.4 24.3002 82.5 29.5002C82.9 31.1002 83.1 32.7002 83.3 34.2002C83.4 35.0002 83.5 35.8002 83.7 36.6002C83.7 36.8002 83.7 36.9002 83.7 37.0002C83.6 37.1002 83.5 37.2002 83.4 37.3002C81.4 38.5002 81.5 41.4002 83.5 42.6002C83.9 42.8002 84 43.0002 83.9 43.4002C83.6 45.5002 83.3 47.6002 82.9 49.7002C82.9 50.0002 82.7 50.2002 82.4 50.2002C79.2 50.9002 77.8 54.2002 79.6 56.9002ZM84.9 54.4002C84.9 55.5002 84 56.4002 82.8 56.4002C81.7 56.4002 80.8 55.5002 80.8 54.4002C80.8 53.3002 81.7 52.4002 82.9 52.4002C84 52.4002 84.9 53.3002 84.9 54.4002ZM84 40.1002C84 39.5002 84.4 39.1002 85 39.1002C85.6 39.1002 86 39.5002 86 40.1002C86 40.6002 85.6 41.1002 85 41.1002C84.4 41.1002 83.9 40.7002 84 40.1002Z" fill="#404041"/>
</svg>
