<svg width="131" height="72" viewBox="0 0 131 72" fill="none" xmlns="http://www.w3.org/2000/svg">
<path fill-rule="evenodd" clip-rule="evenodd" d="M76.1016 8.4006C73.7016 8.1006 71.7016 9.0006 70.1016 10.8006L76.1016 8.4006Z" fill="#404041"/>
<path fill-rule="evenodd" clip-rule="evenodd" d="M70.1012 10.6997C65.6012 6.59973 62.3012 6.79973 58.7012 11.4997L70.1012 10.6997Z" fill="#404041"/>
<path fill-rule="evenodd" clip-rule="evenodd" d="M58.7004 11.4988C56.8004 10.0988 54.8004 9.39885 52.4004 10.0988L58.7004 11.4988Z" fill="#404041"/>
<path fill-rule="evenodd" clip-rule="evenodd" d="M52.4004 10.0996C50.1004 10.7996 48.7004 12.3996 47.9004 14.5996L52.4004 10.0996Z" fill="#404041"/>
<path fill-rule="evenodd" clip-rule="evenodd" d="M48.0008 14.6999C43.7008 11.9999 38.1008 14.6999 37.8008 20.1999L48.0008 14.6999Z" fill="#404041"/>
<path fill-rule="evenodd" clip-rule="evenodd" d="M37.8012 20.0991C31.9012 18.3991 27.1012 24.6991 30.3012 30.0991L37.8012 20.0991Z" fill="#404041"/>
<path fill-rule="evenodd" clip-rule="evenodd" d="M30.3006 30.0996C24.5006 32.2996 24.4006 39.8996 29.7006 42.3996L30.3006 30.0996Z" fill="#404041"/>
<path fill-rule="evenodd" clip-rule="evenodd" d="M29.7016 42.4004C27.7016 44.7004 27.2016 47.3004 28.6016 50.1004L29.7016 42.4004Z" fill="#404041"/>
<path fill-rule="evenodd" clip-rule="evenodd" d="M28.6016 50C29.9016 52.4 32.0016 53.5 34.8016 53.5L28.6016 50Z" fill="#404041"/>
<path fill-rule="evenodd" clip-rule="evenodd" d="M34.8008 53.5C34.3008 56.4 35.2008 58.9 37.7008 60.4L34.8008 53.5Z" fill="#404041"/>
<path fill-rule="evenodd" clip-rule="evenodd" d="M37.7012 60.4C40.2012 62 42.8012 61.7 45.3012 60L37.7012 60.4Z" fill="#404041"/>
<path fill-rule="evenodd" clip-rule="evenodd" d="M45.3008 60C46.3008 62.3 48.1008 63.8 50.6008 64.1L45.3008 60Z" fill="#404041"/>
<path fill-rule="evenodd" clip-rule="evenodd" d="M50.6016 64.1004C53.1016 64.4004 55.2016 63.4004 56.8016 61.4004L50.6016 64.1004Z" fill="#404041"/>
<path fill-rule="evenodd" clip-rule="evenodd" d="M56.8008 61.4004C58.3008 63.2004 60.2008 64.2004 62.6008 64.0004L56.8008 61.4004Z" fill="#404041"/>
<path fill-rule="evenodd" clip-rule="evenodd" d="M62.6016 64.0004C65.0016 63.8004 66.7016 62.5004 67.9016 60.4004L62.6016 64.0004Z" fill="#404041"/>
<path fill-rule="evenodd" clip-rule="evenodd" d="M68 60.4004C69.9 61.9004 72 62.5004 74.4 61.7004L68 60.4004Z" fill="#404041"/>
<path fill-rule="evenodd" clip-rule="evenodd" d="M74.4004 61.6988C76.7004 60.8988 78.2004 59.2988 78.8004 56.7988L74.4004 61.6988Z" fill="#404041"/>
<path fill-rule="evenodd" clip-rule="evenodd" d="M78.8008 56.9004C81.0008 58.0004 83.1008 58.2004 85.3008 57.0004L78.8008 56.9004Z" fill="#404041"/>
<path fill-rule="evenodd" clip-rule="evenodd" d="M85.3008 57C87.4008 55.8 88.5008 53.9 88.7008 51.5L85.3008 57Z" fill="#404041"/>
<path fill-rule="evenodd" clip-rule="evenodd" d="M88.6016 51.5C94.1016 53 98.7016 47.7 96.5016 42.5L88.6016 51.5Z" fill="#404041"/>
<path fill-rule="evenodd" clip-rule="evenodd" d="M96.6016 42.4992C102.602 42.6992 105.802 35.7992 101.602 31.1992L96.6016 42.4992Z" fill="#404041"/>
<path fill-rule="evenodd" clip-rule="evenodd" d="M100.6 26.6996C101.6 23.7996 101.4 21.1996 99.4004 19.0996L100.6 26.6996Z" fill="#404041"/>
<path fill-rule="evenodd" clip-rule="evenodd" d="M99.4004 19.199C97.3004 16.999 94.7004 16.699 91.9004 17.699L99.4004 19.199Z" fill="#404041"/>
<path fill-rule="evenodd" clip-rule="evenodd" d="M91.9012 17.6994C91.9012 11.8994 85.7012 8.99937 81.2012 12.2994L91.9012 17.6994Z" fill="#404041"/>
<path fill-rule="evenodd" clip-rule="evenodd" d="M37 40.9988C40 42.5988 41.2 45.0988 40.8 48.4988C43.9 48.4988 46.1 49.8988 47.4 52.6988C48.9 51.5988 50.5 51.0988 52.4 51.2988C54.2 51.4988 55.7 52.3988 56.9 53.8988C58.1 52.2988 59.6 51.3988 61.5 51.0988C63.4 50.8988 65.1 51.4988 66.7 52.6988C67.7 51.0988 68.9 49.8988 70.7 49.2988C72.5 48.7988 74.2 48.9988 75.9 49.8988C76.4 48.0988 77.3 46.5988 79 45.5988C80.6 44.5988 82.4 44.4988 84.3 44.8988C84.5 43.0988 85.1 41.4988 86.5 40.2988C87.8 39.0988 89.4 38.5988 91.3 38.5988C90.1 34.9988 91 32.1988 94.2 29.9988C90.5 29.0988 88.5 26.8988 88.4 23.0988C86.7 23.7988 85.1 23.8988 83.4 23.2988C81.7 22.6988 80.5 21.3988 79.6 19.7988C78.1 20.8988 76.4 21.3988 74.5 21.0988C72.7 20.7988 71.2 19.8988 70.1 18.2988C67.1 21.2988 63.9 21.5988 60.4 19.0988C59.5 20.6988 58.2 21.8988 56.3 22.4988C54.4 22.9988 52.6 22.6988 50.9 21.6988C50.3 23.4988 49.3 24.8988 47.7 25.7988C46.1 26.6988 44.4 26.7988 42.6 26.2988C42.4 29.3988 40.9 31.4988 38 32.5988C39.4 35.5988 39.2 38.3988 37 40.9988Z" fill="#404041"/>
</svg>
