<svg width="131" height="72" viewBox="0 0 131 72" fill="none" xmlns="http://www.w3.org/2000/svg">
<path fill-rule="evenodd" clip-rule="evenodd" d="M72.2996 32.8C71.8996 32.8 71.5996 32.9 71.2996 32.9L70.6996 30.6C70.6996 30.6 70.7996 30.6 70.8996 30.6C70.9996 30.6 70.9996 30.6 71.0996 30.5C76.2996 29.4 80.6996 27.2 84.0996 23.8C87.8996 19.9 89.6996 15.5 89.5996 10.5H85.9996C85.9996 12.2 85.7996 13.8 85.2996 15.4C82.8996 23.3 73.6996 28.9 63.3996 28C57.7996 27.5 53.1996 25.4 49.6996 21.8C46.4996 18.5 45.0996 14.8 45.1996 10.6H41.5996C41.6996 11.9 41.6996 13.3 41.9996 14.6C43.7996 22.2 49.1996 27.4 57.8996 30.1C58.3996 30.3 58.9996 30.4 59.4996 30.5C59.7996 30.6 60.0996 30.6 60.3996 30.7L59.7996 33H59.4996C59.0996 33 58.6996 33 58.2996 33C57.4996 33 56.5996 32.9 55.7996 33C50.7996 33.4 46.4996 37.3 46.3996 41.5C46.2996 44.3 47.3996 46.6 49.6996 48.5C52.4996 50.8 55.2996 53.2 58.0996 55.5L65.1996 61.3C65.2996 61.4 65.2996 61.4 65.3996 61.5C65.3996 61.5 65.4996 61.6 65.5996 61.6C65.6996 61.6 65.7996 61.5 65.7996 61.5C67.2996 60.2 68.7996 59 70.3996 57.7C74.1996 54.5 77.9996 51.4 81.7996 48.2C84.3996 46 85.2996 43.4 84.6996 40.4C83.5996 35.5 78.1996 32.2 72.2996 32.8ZM65.4996 31.1C66.6996 31.1 67.6996 32.1 67.6996 33.3C67.6996 34.5 66.6996 35.5 65.4996 35.5C64.2996 35.5 63.2996 34.5 63.2996 33.3C63.2996 32.1 64.2996 31.1 65.4996 31.1ZM78.8996 46.1C75.6996 48.8 72.5996 51.4 69.3996 54C68.1996 55 66.9996 56 65.7996 57C65.6996 57.1 65.5996 57.1 65.4996 57.2C65.4996 57.2 65.3996 57.1 65.2996 57.1C65.1996 57 65.0996 57 64.9996 56.9C60.6996 53.3 56.2996 49.7 51.9996 46.1C48.4996 43.2 49.2996 38.5 53.4996 36.5C56.0996 35.2 59.5996 35.5 61.8996 37.2C62.6996 37.8 63.3996 38.4 64.0996 39C64.3996 39.3 64.7996 39.6 65.0996 39.8C65.1996 39.9 65.2996 39.9 65.3996 40C66.1996 39.3 67.0996 38.6 67.8996 37.9C69.0996 36.9 70.4996 36.1 72.1996 35.8C76.1996 35 80.4996 37.5 80.8996 41C81.2996 43 80.5996 44.7 78.8996 46.1Z" fill="#404041"/>
</svg>
