<svg width="131" height="72" viewBox="0 0 131 72" fill="none" xmlns="http://www.w3.org/2000/svg">
<path fill-rule="evenodd" clip-rule="evenodd" d="M68.6996 33.4992L67.7996 36.1992L80.0996 48.8992L67.4996 58.7992L54.7996 48.8992L67.3996 35.8992L66.2996 33.6992C65.1996 33.6992 64.1996 33.5992 63.0996 33.4992C53.7996 32.1992 45.0996 24.4992 45.0996 15.1992H47.0996C47.0996 23.1992 54.6996 30.1992 63.3996 31.4992C67.5996 32.0992 71.9996 31.2992 75.6996 28.4992C79.3996 25.6992 82.4996 20.7992 83.9996 13.1992L85.9996 13.5992C84.3996 21.5992 81.0996 26.8992 76.9996 30.0992C74.3996 31.9992 71.5996 33.0992 68.6996 33.4992Z" fill="#404041"/>
</svg>
