<svg width="131" height="72" viewBox="0 0 131 72" fill="none" xmlns="http://www.w3.org/2000/svg">
<path d="M91.1008 30.8996C91.1008 29.6996 90.6008 28.4996 89.7008 27.6996C88.9008 26.8996 87.7008 26.2996 86.4008 26.2996C87.3008 25.8996 87.9008 25.1996 88.3008 24.2996C88.7008 23.3996 88.7008 22.3996 88.3008 21.4996C87.8008 20.0996 86.4008 19.1996 84.9008 19.1996C84.5008 19.1996 84.1008 19.2996 83.7008 19.3996C85.4008 17.5996 85.4008 14.7996 83.6008 12.9996C81.8008 11.1996 78.8008 11.1996 77.0008 12.9996C77.6008 11.1996 76.7008 9.19961 74.9008 8.39961C74.5008 8.19961 74.0008 8.09961 73.5008 8.09961C72.0008 8.09961 70.7008 8.89961 70.1008 10.1996C70.1008 7.59961 68.0008 5.59961 65.4008 5.59961C62.8008 5.59961 60.7008 7.69961 60.7008 10.1996C60.0008 8.89961 58.7008 8.09961 57.3008 8.09961C56.8008 8.09961 56.4008 8.19961 55.9008 8.39961C55.0008 8.79961 54.3008 9.49961 53.9008 10.3996C53.5008 11.1996 53.5008 12.0996 53.8008 12.9996C52.0008 11.1996 49.0008 11.1996 47.2008 12.9996C46.3008 13.8996 45.8008 15.0996 45.8008 16.1996C45.8008 17.2996 46.3008 18.5996 47.2008 19.3996C46.8008 19.2996 46.4008 19.1996 46.0008 19.1996C44.5008 19.1996 43.2008 20.0996 42.6008 21.4996C42.2008 22.3996 42.2008 23.3996 42.6008 24.2996C43.0008 25.1996 43.6008 25.7996 44.4008 26.1996C41.9008 26.1996 39.8008 28.2996 39.8008 30.7996C39.8008 33.2996 41.9008 35.3996 44.5008 35.3996C44.6008 35.3996 44.6008 35.3996 44.6008 35.3996C43.3008 35.9996 42.5008 37.2996 42.5008 38.6996C42.5008 39.0996 42.6008 39.4996 42.7008 39.9996V40.0996C43.2008 41.4996 44.6008 42.3996 46.1008 42.3996C46.4008 42.3996 46.8008 42.2996 47.2008 42.1996C45.5008 43.9996 45.5008 46.7996 47.3008 48.5996C48.2008 49.4996 49.4008 49.8996 50.6008 49.8996C51.8008 49.8996 53.0008 49.4996 53.9008 48.5996C54.0008 48.5996 54.0008 48.4996 54.0008 48.4996C53.6008 49.3996 53.6008 50.2996 54.0008 51.1996C54.4008 52.0996 55.1008 52.7996 56.0008 53.1996C56.4008 53.3996 56.9008 53.4996 57.4008 53.4996C58.8008 53.4996 60.1008 52.6996 60.7008 51.4996C60.7008 53.6996 62.5008 55.5996 64.7008 55.8996V57.9996C63.6008 57.5996 62.4008 57.8996 61.5008 58.6996C60.3008 59.7996 60.3008 61.6996 61.5008 62.8996L64.8008 66.1996C65.0008 66.2996 65.1008 66.3996 65.3008 66.3996C65.5008 66.3996 65.7008 66.2996 65.8008 66.1996L69.3008 62.6996C70.5008 61.5996 70.5008 59.6996 69.3008 58.4996C68.5008 57.6996 67.3008 57.3996 66.2008 57.7996V55.6996C68.4008 55.3996 70.1008 53.4996 70.1008 51.1996V51.0996C70.7008 52.3996 72.0008 53.2996 73.5008 53.2996C74.0008 53.2996 74.4008 53.1996 74.9008 52.9996C75.8008 52.5996 76.5008 51.8996 76.9008 50.9996C77.3008 50.1996 77.3008 49.2996 77.0008 48.4996C77.9008 49.3996 79.0008 49.7996 80.2008 49.7996C81.4008 49.7996 82.6008 49.3996 83.5008 48.4996C84.4008 47.5996 84.8008 46.3996 84.8008 45.2996C84.8008 44.0996 84.3008 42.8996 83.5008 42.0996C83.9008 42.1996 84.4008 42.2996 84.8008 42.2996C86.3008 42.2996 87.6008 41.3996 88.2008 39.9996C89.0008 38.1996 88.2008 36.0996 86.4008 35.2996C88.9008 35.1996 91.1008 33.1996 91.1008 30.8996ZM83.9008 20.5996C84.2008 20.4996 84.5008 20.3996 84.8008 20.3996C85.8008 20.3996 86.6008 20.8996 87.0008 21.7996C87.2008 22.3996 87.2008 22.9996 87.0008 23.5996C86.7008 24.1996 86.3008 24.6996 85.7008 24.8996C85.4008 24.9996 85.1008 25.0996 84.8008 25.0996C83.9008 25.0996 83.0008 24.4996 82.6008 23.5996C82.1008 22.3996 82.6008 21.0996 83.9008 20.5996ZM77.9008 13.8996C78.5008 13.1996 79.3008 12.8996 80.2008 12.8996C81.0008 12.8996 81.9008 13.2996 82.5008 13.8996C83.8008 15.1996 83.8008 17.1996 82.5008 18.4996C81.2008 19.6996 79.1008 19.6996 77.9008 18.4996C76.6008 17.0996 76.6008 15.0996 77.9008 13.8996ZM71.1008 10.6996C71.5008 9.89961 72.3008 9.29961 73.3008 9.29961C73.6008 9.29961 73.9008 9.39961 74.2008 9.49961C75.4008 9.89961 76.0008 11.2996 75.5008 12.4996C75.1008 13.2996 74.3008 13.8996 73.3008 13.8996C73.0008 13.8996 72.7008 13.7996 72.4008 13.6996C71.8008 13.4996 71.4008 12.9996 71.1008 12.4996C70.9008 11.8996 70.9008 11.3996 71.1008 10.6996ZM65.4008 6.69961C67.2008 6.69961 68.7008 8.19961 68.7008 9.99961C68.7008 11.7996 67.2008 13.2996 65.4008 13.2996C63.6008 13.2996 62.1008 11.7996 62.1008 9.99961C62.1008 8.19961 63.6008 6.69961 65.4008 6.69961ZM55.1008 10.6996C55.4008 10.0996 55.8008 9.59961 56.4008 9.39961C56.7008 9.29961 57.0008 9.19961 57.3008 9.19961C58.3008 9.19961 59.1008 9.69961 59.5008 10.5996C59.7008 11.1996 59.7008 11.7996 59.5008 12.3996C59.2008 12.9996 58.8008 13.4996 58.2008 13.6996C57.9008 13.7996 57.6008 13.8996 57.3008 13.8996C56.3008 13.8996 55.5008 13.2996 55.1008 12.4996C54.9008 11.8996 54.9008 11.3996 55.1008 10.6996ZM48.1008 13.8996C48.8008 13.1996 49.6008 12.8996 50.5008 12.8996C51.3008 12.8996 52.2008 13.2996 52.8008 13.8996C54.1008 15.1996 54.1008 17.1996 52.8008 18.4996C51.5008 19.6996 49.4008 19.6996 48.1008 18.4996C46.9008 17.0996 46.9008 15.0996 48.1008 13.8996ZM43.8008 23.5996C43.6008 22.9996 43.6008 22.3996 43.8008 21.7996C44.2008 20.9996 45.0008 20.3996 46.0008 20.3996C46.3008 20.3996 46.6008 20.4996 46.9008 20.5996C47.5008 20.8996 48.0008 21.2996 48.2008 21.8996C48.4008 22.4996 48.4008 23.0996 48.2008 23.6996C47.8008 24.4996 47.0008 25.0996 46.0008 25.0996C45.7008 25.0996 45.4008 24.9996 45.1008 24.8996C44.4008 24.5996 43.9008 24.1996 43.8008 23.5996ZM44.4008 34.0996C42.6008 34.0996 41.1008 32.5996 41.1008 30.7996C41.1008 28.9996 42.6008 27.4996 44.4008 27.4996C46.2008 27.4996 47.7008 28.9996 47.7008 30.7996C47.6008 32.3996 46.1008 33.8996 44.4008 34.0996ZM46.9008 40.8996C46.6008 40.9996 46.3008 41.0996 46.0008 41.0996C45.0008 41.0996 44.2008 40.5996 43.8008 39.6996V39.5996C43.3008 38.3996 43.9008 37.0996 45.1008 36.5996C45.4008 36.4996 45.7008 36.3996 46.0008 36.3996C47.0008 36.3996 47.8008 36.8996 48.2008 37.7996C48.6008 38.8996 48.1008 40.1996 46.9008 40.8996ZM52.9008 47.5996C51.6008 48.8996 49.5008 48.8996 48.2008 47.5996C46.9008 46.2996 46.9008 44.2996 48.2008 42.9996C48.9008 42.2996 49.7008 41.9996 50.6008 41.9996C51.4008 41.9996 52.3008 42.2996 52.9008 42.9996C54.1008 44.3996 54.1008 46.3996 52.9008 47.5996ZM59.6008 50.6996C59.2008 51.4996 58.4008 52.0996 57.4008 52.0996C57.1008 52.0996 56.8008 51.9996 56.5008 51.8996C55.9008 51.5996 55.4008 51.1996 55.2008 50.5996C55.0008 49.9996 55.0008 49.3996 55.2008 48.7996C55.6008 47.9996 56.4008 47.3996 57.4008 47.3996C57.7008 47.3996 58.0008 47.4996 58.3008 47.5996C58.9008 47.7996 59.4008 48.2996 59.6008 48.8996C59.8008 49.5996 59.8008 50.0996 59.6008 50.6996ZM68.3008 59.5996C68.9008 60.1996 68.9008 61.2996 68.3008 61.8996L65.4008 64.6996L62.6008 61.8996C61.9008 61.2996 61.9008 60.1996 62.6008 59.5996C62.9008 59.2996 63.4008 59.0996 63.8008 59.0996C64.2008 59.0996 64.7008 59.2996 65.0008 59.5996C65.2008 59.8996 65.6008 59.8996 65.9008 59.5996C66.6008 59.0996 67.6008 59.0996 68.3008 59.5996ZM65.4008 54.5996C63.6008 54.5996 62.1008 53.0996 62.1008 51.2996C62.1008 49.4996 63.6008 47.9996 65.4008 47.9996C67.2008 47.9996 68.7008 49.4996 68.7008 51.2996C68.7008 53.0996 67.1008 54.5996 65.4008 54.5996ZM75.6008 50.5996C75.3008 51.1996 74.9008 51.6996 74.3008 51.8996C74.0008 51.9996 73.7008 52.0996 73.4008 52.0996C72.4008 52.0996 71.6008 51.5996 71.2008 50.6996C70.7008 49.5996 71.3008 48.1996 72.5008 47.6996C72.8008 47.5996 73.1008 47.4996 73.4008 47.4996C74.3008 47.4996 75.2008 48.0996 75.6008 48.7996C75.9008 49.3996 75.9008 49.8996 75.6008 50.5996ZM76.1008 47.0996C75.4008 46.4996 74.6008 46.1996 73.7008 46.1996C73.2008 46.1996 72.8008 46.2996 72.3008 46.4996C70.9008 47.0996 70.0008 48.3996 70.0008 49.7996C69.3008 48.0996 67.6008 46.8996 65.6008 46.8996C63.7008 46.8996 62.0008 47.9996 61.3008 49.5996C61.2008 49.1996 61.1008 48.8996 61.0008 48.4996C60.6008 47.5996 59.9008 46.8996 59.0008 46.4996C58.6008 46.2996 58.1008 46.1996 57.6008 46.1996C56.6008 46.1996 55.7008 46.5996 55.0008 47.1996C55.7008 45.4996 55.4008 43.4996 54.0008 42.0996C52.6008 40.7996 50.7008 40.4996 49.0008 41.0996C49.9008 40.0996 50.2008 38.5996 49.6008 37.2996C49.1008 35.8996 47.8008 35.0996 46.3008 34.9996C48.0008 34.2996 49.2008 32.5996 49.2008 30.6996C49.2008 28.7996 48.1008 27.1996 46.4008 26.4996C47.8008 26.3996 49.1008 25.4996 49.6008 24.1996C50.0008 23.2996 50.0008 22.2996 49.6008 21.3996C49.4008 20.9996 49.2008 20.5996 48.9008 20.2996C49.5008 20.4996 50.1008 20.5996 50.7008 20.5996C51.9008 20.5996 53.1008 20.1996 54.0008 19.2996C55.3008 17.8996 55.7008 15.9996 55.0008 14.2996C55.7008 14.8996 56.6008 15.1996 57.5008 15.1996C58.0008 15.1996 58.4008 15.0996 58.9008 14.8996C59.8008 14.4996 60.5008 13.7996 60.9008 12.8996C61.1008 12.4996 61.2008 12.0996 61.2008 11.6996C61.9008 13.2996 63.6008 14.4996 65.5008 14.4996C67.4008 14.4996 69.1008 13.3996 69.8008 11.6996C69.9008 12.0996 69.9008 12.4996 70.1008 12.8996C70.5008 13.7996 71.2008 14.4996 72.1008 14.8996C72.5008 15.0996 73.0008 15.1996 73.5008 15.1996C74.5008 15.1996 75.3008 14.8996 76.0008 14.2996C75.3008 15.9996 75.6008 17.8996 77.0008 19.2996C77.9008 20.1996 79.1008 20.5996 80.3008 20.5996C80.9008 20.5996 81.5008 20.4996 82.1008 20.2996C81.5008 20.9996 81.2008 21.7996 81.2008 22.6996C81.2008 23.0996 81.3008 23.5996 81.4008 23.9996V24.0996C82.0008 25.4996 83.2008 26.2996 84.7008 26.3996C82.9008 27.0996 81.7008 28.7996 81.7008 30.6996C81.7008 32.5996 82.9008 34.1996 84.6008 34.8996C83.2008 34.9996 81.9008 35.8996 81.4008 37.1996C80.8008 38.5996 81.2008 40.0996 82.1008 41.0996C80.4008 40.3996 78.3008 40.6996 77.1008 42.1996C75.8008 43.3996 75.4008 45.3996 76.1008 47.0996ZM82.6008 47.5996C81.3008 48.8996 79.2008 48.8996 77.9008 47.5996C76.6008 46.2996 76.6008 44.2996 77.9008 42.9996C78.5008 42.2996 79.3008 41.9996 80.2008 41.9996C81.1008 41.9996 81.9008 42.2996 82.6008 42.9996C83.9008 44.3996 83.9008 46.3996 82.6008 47.5996ZM86.9008 39.3996C86.5008 40.1996 85.7008 40.7996 84.7008 40.7996C84.4008 40.7996 84.1008 40.6996 83.8008 40.5996C82.6008 40.1996 82.0008 38.7996 82.5008 37.5996C82.9008 36.7996 83.7008 36.1996 84.7008 36.1996C85.0008 36.1996 85.3008 36.2996 85.6008 36.3996C86.9008 36.8996 87.4008 38.1996 86.9008 39.3996ZM86.4008 34.0996C84.6008 34.0996 83.1008 32.5996 83.1008 30.7996C83.1008 28.9996 84.6008 27.4996 86.4008 27.4996C88.2008 27.4996 89.7008 28.8996 89.7008 30.7996C89.6008 32.5996 88.1008 34.0996 86.4008 34.0996Z" fill="#404041"/>
</svg>
