<svg width="131" height="72" viewBox="0 0 131 72" fill="none" xmlns="http://www.w3.org/2000/svg">
<path d="M51.8004 14.7C51.1004 14.3 51.3004 13.6 51.2004 13C50.7004 13.8 50.9004 14.7 51.5004 15.1C52.1004 15.5 53.3004 15.6 53.7004 14.8C53.0004 15.1 52.4004 15 51.8004 14.7ZM58.8004 11.6C58.1004 11.2 58.3004 10.5 58.2004 9.9C57.7004 10.6 57.9004 11.6 58.5004 12C59.1004 12.4 60.3004 12.5 60.7004 11.7C60.0004 12 59.4004 11.9 58.8004 11.6ZM51.8004 14.7C51.1004 14.3 51.3004 13.6 51.2004 13C50.7004 13.8 50.9004 14.7 51.5004 15.1C52.1004 15.5 53.3004 15.6 53.7004 14.8C53.0004 15.1 52.4004 15 51.8004 14.7ZM58.8004 11.6C58.1004 11.2 58.3004 10.5 58.2004 9.9C57.7004 10.6 57.9004 11.6 58.5004 12C59.1004 12.4 60.3004 12.5 60.7004 11.7C60.0004 12 59.4004 11.9 58.8004 11.6ZM51.8004 14.7C51.1004 14.3 51.3004 13.6 51.2004 13C50.7004 13.8 50.9004 14.7 51.5004 15.1C52.1004 15.5 53.3004 15.6 53.7004 14.8C53.0004 15.1 52.4004 15 51.8004 14.7ZM58.8004 11.6C58.1004 11.2 58.3004 10.5 58.2004 9.9C57.7004 10.6 57.9004 11.6 58.5004 12C59.1004 12.4 60.3004 12.5 60.7004 11.7C60.0004 12 59.4004 11.9 58.8004 11.6ZM66.4004 10.7C65.7004 10.3 65.9004 9.6 65.8004 9C65.3004 9.8 65.4004 10.7 66.1004 11.1C66.7004 11.5 67.9004 11.6 68.3004 10.8C67.6004 11.1 67.0004 11 66.4004 10.7ZM74.0004 12.8C73.3004 12.4 73.5004 11.7 73.4004 11.1C72.9004 11.8 73.0004 12.8 73.7004 13.2C74.3004 13.6 75.5004 13.7 75.9004 12.9C75.2004 13.2 74.6004 13.1 74.0004 12.8ZM51.8004 14.7C51.1004 14.3 51.3004 13.6 51.2004 13C50.7004 13.8 50.9004 14.7 51.5004 15.1C52.1004 15.5 53.3004 15.6 53.7004 14.8C53.0004 15.1 52.4004 15 51.8004 14.7ZM58.8004 11.6C58.1004 11.2 58.3004 10.5 58.2004 9.9C57.7004 10.6 57.9004 11.6 58.5004 12C59.1004 12.4 60.3004 12.5 60.7004 11.7C60.0004 12 59.4004 11.9 58.8004 11.6ZM66.4004 10.7C65.7004 10.3 65.9004 9.6 65.8004 9C65.3004 9.8 65.4004 10.7 66.1004 11.1C66.7004 11.5 67.9004 11.6 68.3004 10.8C67.6004 11.1 67.0004 11 66.4004 10.7ZM74.0004 12.8C73.3004 12.4 73.5004 11.7 73.4004 11.1C72.9004 11.8 73.0004 12.8 73.7004 13.2C74.3004 13.6 75.5004 13.7 75.9004 12.9C75.2004 13.2 74.6004 13.1 74.0004 12.8ZM51.8004 14.7C51.1004 14.3 51.3004 13.6 51.2004 13C50.7004 13.8 50.9004 14.7 51.5004 15.1C52.1004 15.5 53.3004 15.6 53.7004 14.8C53.0004 15.1 52.4004 15 51.8004 14.7ZM58.8004 11.6C58.1004 11.2 58.3004 10.5 58.2004 9.9C57.7004 10.6 57.9004 11.6 58.5004 12C59.1004 12.4 60.3004 12.5 60.7004 11.7C60.0004 12 59.4004 11.9 58.8004 11.6ZM66.4004 10.7C65.7004 10.3 65.9004 9.6 65.8004 9C65.3004 9.8 65.4004 10.7 66.1004 11.1C66.7004 11.5 67.9004 11.6 68.3004 10.8C67.6004 11.1 67.0004 11 66.4004 10.7ZM74.0004 12.8C73.3004 12.4 73.5004 11.7 73.4004 11.1C72.9004 11.8 73.0004 12.8 73.7004 13.2C74.3004 13.6 75.5004 13.7 75.9004 12.9C75.2004 13.2 74.6004 13.1 74.0004 12.8ZM80.7004 17.1C80.0004 16.7 80.2004 16 80.1004 15.4C79.5004 16.2 79.7004 17.1 80.4004 17.5C81.0004 17.9 82.2004 18 82.6004 17.2C81.9004 17.5 81.3004 17.4 80.7004 17.1ZM85.9004 22.7C85.2004 22.3 85.4004 21.7 85.3004 21C84.8004 21.7 84.9004 22.6 85.6004 23.1C86.2004 23.5 87.4004 23.6 87.8004 22.8C87.1004 23.1 86.5004 23 85.9004 22.7ZM51.8004 14.7C51.1004 14.3 51.3004 13.6 51.2004 13C50.7004 13.8 50.9004 14.7 51.5004 15.1C52.1004 15.5 53.3004 15.6 53.7004 14.8C53.0004 15.1 52.4004 15 51.8004 14.7ZM58.8004 11.6C58.1004 11.2 58.3004 10.5 58.2004 9.9C57.7004 10.6 57.9004 11.6 58.5004 12C59.1004 12.4 60.3004 12.5 60.7004 11.7C60.0004 12 59.4004 11.9 58.8004 11.6ZM66.4004 10.7C65.7004 10.3 65.9004 9.6 65.8004 9C65.3004 9.8 65.4004 10.7 66.1004 11.1C66.7004 11.5 67.9004 11.6 68.3004 10.8C67.6004 11.1 67.0004 11 66.4004 10.7ZM74.0004 12.8C73.3004 12.4 73.5004 11.7 73.4004 11.1C72.9004 11.8 73.0004 12.8 73.7004 13.2C74.3004 13.6 75.5004 13.7 75.9004 12.9C75.2004 13.2 74.6004 13.1 74.0004 12.8ZM80.7004 17.1C80.0004 16.7 80.2004 16 80.1004 15.4C79.5004 16.2 79.7004 17.1 80.4004 17.5C81.0004 17.9 82.2004 18 82.6004 17.2C81.9004 17.5 81.3004 17.4 80.7004 17.1ZM85.9004 22.7C85.2004 22.3 85.4004 21.7 85.3004 21C84.8004 21.7 84.9004 22.6 85.6004 23.1C86.2004 23.5 87.4004 23.6 87.8004 22.8C87.1004 23.1 86.5004 23 85.9004 22.7ZM41.5004 25.8C40.8004 25.4 41.0004 24.7 40.9004 24.1C40.4004 24.9 40.6004 25.8 41.2004 26.2C41.8004 26.6 43.0004 26.7 43.4004 25.9C42.7004 26.2 42.1004 26.1 41.5004 25.8ZM46.3004 19.8C45.6004 19.4 45.8004 18.7 45.7004 18.1C45.2004 18.8 45.3004 19.7 46.0004 20.2C46.6004 20.6 47.8004 20.7 48.2004 19.9C47.5004 20.2 46.9004 20.1 46.3004 19.8ZM51.8004 14.7C51.1004 14.3 51.3004 13.6 51.2004 13C50.7004 13.8 50.9004 14.7 51.5004 15.1C52.1004 15.5 53.3004 15.6 53.7004 14.8C53.0004 15.1 52.4004 15 51.8004 14.7ZM58.8004 11.6C58.1004 11.2 58.3004 10.5 58.2004 9.9C57.7004 10.6 57.9004 11.6 58.5004 12C59.1004 12.4 60.3004 12.5 60.7004 11.7C60.0004 12 59.4004 11.9 58.8004 11.6ZM66.4004 10.7C65.7004 10.3 65.9004 9.6 65.8004 9C65.3004 9.8 65.4004 10.7 66.1004 11.1C66.7004 11.5 67.9004 11.6 68.3004 10.8C67.6004 11.1 67.0004 11 66.4004 10.7ZM74.0004 12.8C73.3004 12.4 73.5004 11.7 73.4004 11.1C72.9004 11.8 73.0004 12.8 73.7004 13.2C74.3004 13.6 75.5004 13.7 75.9004 12.9C75.2004 13.2 74.6004 13.1 74.0004 12.8ZM80.7004 17.1C80.0004 16.7 80.2004 16 80.1004 15.4C79.5004 16.2 79.7004 17.1 80.4004 17.5C81.0004 17.9 82.2004 18 82.6004 17.2C81.9004 17.5 81.3004 17.4 80.7004 17.1ZM85.9004 22.7C85.2004 22.3 85.4004 21.7 85.3004 21C84.8004 21.7 84.9004 22.6 85.6004 23.1C86.2004 23.5 87.4004 23.6 87.8004 22.8C87.1004 23.1 86.5004 23 85.9004 22.7ZM41.5004 25.8C40.8004 25.4 41.0004 24.7 40.9004 24.1C40.4004 24.9 40.6004 25.8 41.2004 26.2C41.8004 26.6 43.0004 26.7 43.4004 25.9C42.7004 26.2 42.1004 26.1 41.5004 25.8ZM46.3004 19.8C45.6004 19.4 45.8004 18.7 45.7004 18.1C45.2004 18.8 45.3004 19.7 46.0004 20.2C46.6004 20.6 47.8004 20.7 48.2004 19.9C47.5004 20.2 46.9004 20.1 46.3004 19.8ZM51.8004 14.7C51.1004 14.3 51.3004 13.6 51.2004 13C50.7004 13.8 50.9004 14.7 51.5004 15.1C52.1004 15.5 53.3004 15.6 53.7004 14.8C53.0004 15.1 52.4004 15 51.8004 14.7ZM58.8004 11.6C58.1004 11.2 58.3004 10.5 58.2004 9.9C57.7004 10.6 57.9004 11.6 58.5004 12C59.1004 12.4 60.3004 12.5 60.7004 11.7C60.0004 12 59.4004 11.9 58.8004 11.6ZM66.4004 10.7C65.7004 10.3 65.9004 9.6 65.8004 9C65.3004 9.8 65.4004 10.7 66.1004 11.1C66.7004 11.5 67.9004 11.6 68.3004 10.8C67.6004 11.1 67.0004 11 66.4004 10.7ZM74.0004 12.8C73.3004 12.4 73.5004 11.7 73.4004 11.1C72.9004 11.8 73.0004 12.8 73.7004 13.2C74.3004 13.6 75.5004 13.7 75.9004 12.9C75.2004 13.2 74.6004 13.1 74.0004 12.8ZM80.7004 17.1C80.0004 16.7 80.2004 16 80.1004 15.4C79.5004 16.2 79.7004 17.1 80.4004 17.5C81.0004 17.9 82.2004 18 82.6004 17.2C81.9004 17.5 81.3004 17.4 80.7004 17.1ZM85.9004 22.7C85.2004 22.3 85.4004 21.7 85.3004 21C84.8004 21.7 84.9004 22.6 85.6004 23.1C86.2004 23.5 87.4004 23.6 87.8004 22.8C87.1004 23.1 86.5004 23 85.9004 22.7ZM39.6004 33.3C38.9004 32.9 39.1004 32.2 39.0004 31.6C38.5004 32.3 38.6004 33.3 39.3004 33.7C39.9004 34.1 41.0004 34.2 41.5004 33.4C40.8004 33.7 40.2004 33.6 39.6004 33.3ZM39.8004 40.9C39.1004 40.5 39.3004 39.8 39.2004 39.2C38.7004 39.9 38.8004 40.8 39.5004 41.3C40.1004 41.7 41.2004 41.7 41.7004 41C41.0004 41.3 40.4004 41.2 39.8004 40.9ZM41.5004 25.8C40.8004 25.4 41.0004 24.7 40.9004 24.1C40.4004 24.9 40.6004 25.8 41.2004 26.2C41.8004 26.6 43.0004 26.7 43.4004 25.9C42.7004 26.2 42.1004 26.1 41.5004 25.8ZM46.3004 19.8C45.6004 19.4 45.8004 18.7 45.7004 18.1C45.2004 18.8 45.3004 19.7 46.0004 20.2C46.6004 20.6 47.8004 20.7 48.2004 19.9C47.5004 20.2 46.9004 20.1 46.3004 19.8ZM51.8004 14.7C51.1004 14.3 51.3004 13.6 51.2004 13C50.7004 13.8 50.9004 14.7 51.5004 15.1C52.1004 15.5 53.3004 15.6 53.7004 14.8C53.0004 15.1 52.4004 15 51.8004 14.7ZM58.8004 11.6C58.1004 11.2 58.3004 10.5 58.2004 9.9C57.7004 10.6 57.9004 11.6 58.5004 12C59.1004 12.4 60.3004 12.5 60.7004 11.7C60.0004 12 59.4004 11.9 58.8004 11.6ZM66.4004 10.7C65.7004 10.3 65.9004 9.6 65.8004 9C65.3004 9.8 65.4004 10.7 66.1004 11.1C66.7004 11.5 67.9004 11.6 68.3004 10.8C67.6004 11.1 67.0004 11 66.4004 10.7ZM74.0004 12.8C73.3004 12.4 73.5004 11.7 73.4004 11.1C72.9004 11.8 73.0004 12.8 73.7004 13.2C74.3004 13.6 75.5004 13.7 75.9004 12.9C75.2004 13.2 74.6004 13.1 74.0004 12.8ZM80.7004 17.1C80.0004 16.7 80.2004 16 80.1004 15.4C79.5004 16.2 79.7004 17.1 80.4004 17.5C81.0004 17.9 82.2004 18 82.6004 17.2C81.9004 17.5 81.3004 17.4 80.7004 17.1ZM85.9004 22.7C85.2004 22.3 85.4004 21.7 85.3004 21C84.8004 21.7 84.9004 22.6 85.6004 23.1C86.2004 23.5 87.4004 23.6 87.8004 22.8C87.1004 23.1 86.5004 23 85.9004 22.7ZM39.8004 40.9C39.1004 40.5 39.3004 39.8 39.2004 39.2C38.7004 39.9 38.8004 40.8 39.5004 41.3C40.1004 41.7 41.2004 41.7 41.7004 41C41.0004 41.3 40.4004 41.2 39.8004 40.9ZM39.6004 33.3C38.9004 32.9 39.1004 32.2 39.0004 31.6C38.5004 32.3 38.6004 33.3 39.3004 33.7C39.9004 34.1 41.0004 34.2 41.5004 33.4C40.8004 33.7 40.2004 33.6 39.6004 33.3ZM41.5004 25.8C40.8004 25.4 41.0004 24.7 40.9004 24.1C40.4004 24.9 40.6004 25.8 41.2004 26.2C41.8004 26.6 43.0004 26.7 43.4004 25.9C42.7004 26.2 42.1004 26.1 41.5004 25.8ZM46.3004 19.8C45.6004 19.4 45.8004 18.7 45.7004 18.1C45.2004 18.8 45.3004 19.7 46.0004 20.2C46.6004 20.6 47.8004 20.7 48.2004 19.9C47.5004 20.2 46.9004 20.1 46.3004 19.8ZM51.8004 14.7C51.1004 14.3 51.3004 13.6 51.2004 13C50.7004 13.8 50.9004 14.7 51.5004 15.1C52.1004 15.5 53.3004 15.6 53.7004 14.8C53.0004 15.1 52.4004 15 51.8004 14.7ZM58.8004 11.6C58.1004 11.2 58.3004 10.5 58.2004 9.9C57.7004 10.6 57.9004 11.6 58.5004 12C59.1004 12.4 60.3004 12.5 60.7004 11.7C60.0004 12 59.4004 11.9 58.8004 11.6ZM66.4004 10.7C65.7004 10.3 65.9004 9.6 65.8004 9C65.3004 9.8 65.4004 10.7 66.1004 11.1C66.7004 11.5 67.9004 11.6 68.3004 10.8C67.6004 11.1 67.0004 11 66.4004 10.7ZM74.0004 12.8C73.3004 12.4 73.5004 11.7 73.4004 11.1C72.9004 11.8 73.0004 12.8 73.7004 13.2C74.3004 13.6 75.5004 13.7 75.9004 12.9C75.2004 13.2 74.6004 13.1 74.0004 12.8ZM80.7004 17.1C80.0004 16.7 80.2004 16 80.1004 15.4C79.5004 16.2 79.7004 17.1 80.4004 17.5C81.0004 17.9 82.2004 18 82.6004 17.2C81.9004 17.5 81.3004 17.4 80.7004 17.1ZM85.9004 22.7C85.2004 22.3 85.4004 21.7 85.3004 21C84.8004 21.7 84.9004 22.6 85.6004 23.1C86.2004 23.5 87.4004 23.6 87.8004 22.8C87.1004 23.1 86.5004 23 85.9004 22.7ZM39.6004 33.3C38.9004 32.9 39.1004 32.2 39.0004 31.6C38.5004 32.3 38.6004 33.3 39.3004 33.7C39.9004 34.1 41.0004 34.2 41.5004 33.4C40.8004 33.7 40.2004 33.6 39.6004 33.3ZM39.8004 40.9C39.1004 40.5 39.3004 39.8 39.2004 39.2C38.7004 39.9 38.8004 40.8 39.5004 41.3C40.1004 41.7 41.2004 41.7 41.7004 41C41.0004 41.3 40.4004 41.2 39.8004 40.9ZM41.5004 25.8C40.8004 25.4 41.0004 24.7 40.9004 24.1C40.4004 24.9 40.6004 25.8 41.2004 26.2C41.8004 26.6 43.0004 26.7 43.4004 25.9C42.7004 26.2 42.1004 26.1 41.5004 25.8ZM41.7004 48.3C41.0004 47.9 41.2004 47.2 41.1004 46.6C40.6004 47.3 40.7004 48.2 41.4004 48.7C42.0004 49.1 43.1004 49.1 43.6004 48.4C42.9004 48.7 42.3004 48.6 41.7004 48.3ZM45.7004 54.2C45.0004 53.8 45.2004 53.1 45.1004 52.5C44.6004 53.2 44.7004 54.1 45.4004 54.6C46.0004 55 47.1004 55.1 47.6004 54.3C46.9004 54.6 46.3004 54.5 45.7004 54.2ZM46.3004 19.8C45.6004 19.4 45.8004 18.7 45.7004 18.1C45.2004 18.8 45.3004 19.7 46.0004 20.2C46.6004 20.6 47.8004 20.7 48.2004 19.9C47.5004 20.2 46.9004 20.1 46.3004 19.8ZM51.8004 14.7C51.1004 14.3 51.3004 13.6 51.2004 13C50.7004 13.8 50.9004 14.7 51.5004 15.1C52.1004 15.5 53.3004 15.6 53.7004 14.8C53.0004 15.1 52.4004 15 51.8004 14.7ZM58.8004 11.6C58.1004 11.2 58.3004 10.5 58.2004 9.9C57.7004 10.6 57.9004 11.6 58.5004 12C59.1004 12.4 60.3004 12.5 60.7004 11.7C60.0004 12 59.4004 11.9 58.8004 11.6ZM66.4004 10.7C65.7004 10.3 65.9004 9.6 65.8004 9C65.3004 9.8 65.4004 10.7 66.1004 11.1C66.7004 11.5 67.9004 11.6 68.3004 10.8C67.6004 11.1 67.0004 11 66.4004 10.7ZM74.0004 12.8C73.3004 12.4 73.5004 11.7 73.4004 11.1C72.9004 11.8 73.0004 12.8 73.7004 13.2C74.3004 13.6 75.5004 13.7 75.9004 12.9C75.2004 13.2 74.6004 13.1 74.0004 12.8ZM80.7004 17.1C80.0004 16.7 80.2004 16 80.1004 15.4C79.5004 16.2 79.7004 17.1 80.4004 17.5C81.0004 17.9 82.2004 18 82.6004 17.2C81.9004 17.5 81.3004 17.4 80.7004 17.1ZM85.9004 22.7C85.2004 22.3 85.4004 21.7 85.3004 21C84.8004 21.7 84.9004 22.6 85.6004 23.1C86.2004 23.5 87.4004 23.6 87.8004 22.8C87.1004 23.1 86.5004 23 85.9004 22.7ZM45.7004 54.2C45.0004 53.8 45.2004 53.1 45.1004 52.5C44.6004 53.2 44.7004 54.1 45.4004 54.6C46.0004 55 47.1004 55.1 47.6004 54.3C46.9004 54.6 46.3004 54.5 45.7004 54.2ZM41.7004 48.3C41.0004 47.9 41.2004 47.2 41.1004 46.6C40.6004 47.3 40.7004 48.2 41.4004 48.7C42.0004 49.1 43.1004 49.1 43.6004 48.4C42.9004 48.7 42.3004 48.6 41.7004 48.3ZM39.8004 40.9C39.1004 40.5 39.3004 39.8 39.2004 39.2C38.7004 39.9 38.8004 40.8 39.5004 41.3C40.1004 41.7 41.2004 41.7 41.7004 41C41.0004 41.3 40.4004 41.2 39.8004 40.9ZM39.6004 33.3C38.9004 32.9 39.1004 32.2 39.0004 31.6C38.5004 32.3 38.6004 33.3 39.3004 33.7C39.9004 34.1 41.0004 34.2 41.5004 33.4C40.8004 33.7 40.2004 33.6 39.6004 33.3ZM41.5004 25.8C40.8004 25.4 41.0004 24.7 40.9004 24.1C40.4004 24.9 40.6004 25.8 41.2004 26.2C41.8004 26.6 43.0004 26.7 43.4004 25.9C42.7004 26.2 42.1004 26.1 41.5004 25.8ZM46.3004 19.8C45.6004 19.4 45.8004 18.7 45.7004 18.1C45.2004 18.8 45.3004 19.7 46.0004 20.2C46.6004 20.6 47.8004 20.7 48.2004 19.9C47.5004 20.2 46.9004 20.1 46.3004 19.8ZM51.8004 14.7C51.1004 14.3 51.3004 13.6 51.2004 13C50.7004 13.8 50.9004 14.7 51.5004 15.1C52.1004 15.5 53.3004 15.6 53.7004 14.8C53.0004 15.1 52.4004 15 51.8004 14.7ZM58.8004 11.6C58.1004 11.2 58.3004 10.5 58.2004 9.9C57.7004 10.6 57.9004 11.6 58.5004 12C59.1004 12.4 60.3004 12.5 60.7004 11.7C60.0004 12 59.4004 11.9 58.8004 11.6ZM66.4004 10.7C65.7004 10.3 65.9004 9.6 65.8004 9C65.3004 9.8 65.4004 10.7 66.1004 11.1C66.7004 11.5 67.9004 11.6 68.3004 10.8C67.6004 11.1 67.0004 11 66.4004 10.7ZM74.0004 12.8C73.3004 12.4 73.5004 11.7 73.4004 11.1C72.9004 11.8 73.0004 12.8 73.7004 13.2C74.3004 13.6 75.5004 13.7 75.9004 12.9C75.2004 13.2 74.6004 13.1 74.0004 12.8ZM80.7004 17.1C80.0004 16.7 80.2004 16 80.1004 15.4C79.5004 16.2 79.7004 17.1 80.4004 17.5C81.0004 17.9 82.2004 18 82.6004 17.2C81.9004 17.5 81.3004 17.4 80.7004 17.1ZM85.9004 22.7C85.2004 22.3 85.4004 21.7 85.3004 21C84.8004 21.7 84.9004 22.6 85.6004 23.1C86.2004 23.5 87.4004 23.6 87.8004 22.8C87.1004 23.1 86.5004 23 85.9004 22.7ZM39.6004 33.3C38.9004 32.9 39.1004 32.2 39.0004 31.6C38.5004 32.3 38.6004 33.3 39.3004 33.7C39.9004 34.1 41.0004 34.2 41.5004 33.4C40.8004 33.7 40.2004 33.6 39.6004 33.3ZM39.8004 40.9C39.1004 40.5 39.3004 39.8 39.2004 39.2C38.7004 39.9 38.8004 40.8 39.5004 41.3C40.1004 41.7 41.2004 41.7 41.7004 41C41.0004 41.3 40.4004 41.2 39.8004 40.9ZM41.5004 25.8C40.8004 25.4 41.0004 24.7 40.9004 24.1C40.4004 24.9 40.6004 25.8 41.2004 26.2C41.8004 26.6 43.0004 26.7 43.4004 25.9C42.7004 26.2 42.1004 26.1 41.5004 25.8ZM41.7004 48.3C41.0004 47.9 41.2004 47.2 41.1004 46.6C40.6004 47.3 40.7004 48.2 41.4004 48.7C42.0004 49.1 43.1004 49.1 43.6004 48.4C42.9004 48.7 42.3004 48.6 41.7004 48.3ZM45.7004 54.2C45.0004 53.8 45.2004 53.1 45.1004 52.5C44.6004 53.2 44.7004 54.1 45.4004 54.6C46.0004 55 47.1004 55.1 47.6004 54.3C46.9004 54.6 46.3004 54.5 45.7004 54.2ZM46.3004 19.8C45.6004 19.4 45.8004 18.7 45.7004 18.1C45.2004 18.8 45.3004 19.7 46.0004 20.2C46.6004 20.6 47.8004 20.7 48.2004 19.9C47.5004 20.2 46.9004 20.1 46.3004 19.8ZM51.7004 59.7C51.0004 59.3 51.1004 58.6 51.1004 58C50.6004 58.7 50.7004 59.6 51.4004 60.1C52.0004 60.5 53.1004 60.5 53.6004 59.8C52.9004 60.1 52.3004 60 51.7004 59.7ZM51.8004 14.7C51.1004 14.3 51.3004 13.6 51.2004 13C50.7004 13.8 50.9004 14.7 51.5004 15.1C52.1004 15.5 53.3004 15.6 53.7004 14.8C53.0004 15.1 52.4004 15 51.8004 14.7ZM58.4004 62.8C57.7004 62.4 57.8004 61.7 57.8004 61.1C57.3004 61.8 57.4004 62.8 58.1004 63.2C58.7004 63.6 59.8004 63.7 60.3004 62.9C59.6004 63.2 59.0004 63.1 58.4004 62.8ZM58.8004 11.6C58.1004 11.2 58.3004 10.5 58.2004 9.9C57.7004 10.6 57.9004 11.6 58.5004 12C59.1004 12.4 60.3004 12.5 60.7004 11.7C60.0004 12 59.4004 11.9 58.8004 11.6ZM66.4004 10.7C65.7004 10.3 65.9004 9.6 65.8004 9C65.3004 9.8 65.4004 10.7 66.1004 11.1C66.7004 11.5 67.9004 11.6 68.3004 10.8C67.6004 11.1 67.0004 11 66.4004 10.7ZM74.0004 12.8C73.3004 12.4 73.5004 11.7 73.4004 11.1C72.9004 11.8 73.0004 12.8 73.7004 13.2C74.3004 13.6 75.5004 13.7 75.9004 12.9C75.2004 13.2 74.6004 13.1 74.0004 12.8ZM80.7004 17.1C80.0004 16.7 80.2004 16 80.1004 15.4C79.5004 16.2 79.7004 17.1 80.4004 17.5C81.0004 17.9 82.2004 18 82.6004 17.2C81.9004 17.5 81.3004 17.4 80.7004 17.1ZM85.9004 22.7C85.2004 22.3 85.4004 21.7 85.3004 21C84.8004 21.7 84.9004 22.6 85.6004 23.1C86.2004 23.5 87.4004 23.6 87.8004 22.8C87.1004 23.1 86.5004 23 85.9004 22.7ZM58.4004 62.8C57.7004 62.4 57.8004 61.7 57.8004 61.1C57.3004 61.8 57.4004 62.8 58.1004 63.2C58.7004 63.6 59.8004 63.7 60.3004 62.9C59.6004 63.2 59.0004 63.1 58.4004 62.8ZM51.7004 59.7C51.0004 59.3 51.1004 58.6 51.1004 58C50.6004 58.7 50.7004 59.6 51.4004 60.1C52.0004 60.5 53.1004 60.5 53.6004 59.8C52.9004 60.1 52.3004 60 51.7004 59.7ZM45.7004 54.2C45.0004 53.8 45.2004 53.1 45.1004 52.5C44.6004 53.2 44.7004 54.1 45.4004 54.6C46.0004 55 47.1004 55.1 47.6004 54.3C46.9004 54.6 46.3004 54.5 45.7004 54.2ZM41.7004 48.3C41.0004 47.9 41.2004 47.2 41.1004 46.6C40.6004 47.3 40.7004 48.2 41.4004 48.7C42.0004 49.1 43.1004 49.1 43.6004 48.4C42.9004 48.7 42.3004 48.6 41.7004 48.3ZM39.8004 40.9C39.1004 40.5 39.3004 39.8 39.2004 39.2C38.7004 39.9 38.8004 40.8 39.5004 41.3C40.1004 41.7 41.2004 41.7 41.7004 41C41.0004 41.3 40.4004 41.2 39.8004 40.9ZM39.6004 33.3C38.9004 32.9 39.1004 32.2 39.0004 31.6C38.5004 32.3 38.6004 33.3 39.3004 33.7C39.9004 34.1 41.0004 34.2 41.5004 33.4C40.8004 33.7 40.2004 33.6 39.6004 33.3ZM41.5004 25.8C40.8004 25.4 41.0004 24.7 40.9004 24.1C40.4004 24.9 40.6004 25.8 41.2004 26.2C41.8004 26.6 43.0004 26.7 43.4004 25.9C42.7004 26.2 42.1004 26.1 41.5004 25.8ZM46.3004 19.8C45.6004 19.4 45.8004 18.7 45.7004 18.1C45.2004 18.8 45.3004 19.7 46.0004 20.2C46.6004 20.6 47.8004 20.7 48.2004 19.9C47.5004 20.2 46.9004 20.1 46.3004 19.8ZM51.8004 14.7C51.1004 14.3 51.3004 13.6 51.2004 13C50.7004 13.8 50.9004 14.7 51.5004 15.1C52.1004 15.5 53.3004 15.6 53.7004 14.8C53.0004 15.1 52.4004 15 51.8004 14.7ZM58.8004 11.6C58.1004 11.2 58.3004 10.5 58.2004 9.9C57.7004 10.6 57.9004 11.6 58.5004 12C59.1004 12.4 60.3004 12.5 60.7004 11.7C60.0004 12 59.4004 11.9 58.8004 11.6ZM66.4004 10.7C65.7004 10.3 65.9004 9.6 65.8004 9C65.3004 9.8 65.4004 10.7 66.1004 11.1C66.7004 11.5 67.9004 11.6 68.3004 10.8C67.6004 11.1 67.0004 11 66.4004 10.7ZM74.0004 12.8C73.3004 12.4 73.5004 11.7 73.4004 11.1C72.9004 11.8 73.0004 12.8 73.7004 13.2C74.3004 13.6 75.5004 13.7 75.9004 12.9C75.2004 13.2 74.6004 13.1 74.0004 12.8ZM80.7004 17.1C80.0004 16.7 80.2004 16 80.1004 15.4C79.5004 16.2 79.7004 17.1 80.4004 17.5C81.0004 17.9 82.2004 18 82.6004 17.2C81.9004 17.5 81.3004 17.4 80.7004 17.1ZM85.9004 22.7C85.2004 22.3 85.4004 21.7 85.3004 21C84.8004 21.7 84.9004 22.6 85.6004 23.1C86.2004 23.5 87.4004 23.6 87.8004 22.8C87.1004 23.1 86.5004 23 85.9004 22.7ZM39.6004 33.3C38.9004 32.9 39.1004 32.2 39.0004 31.6C38.5004 32.3 38.6004 33.3 39.3004 33.7C39.9004 34.1 41.0004 34.2 41.5004 33.4C40.8004 33.7 40.2004 33.6 39.6004 33.3ZM39.8004 40.9C39.1004 40.5 39.3004 39.8 39.2004 39.2C38.7004 39.9 38.8004 40.8 39.5004 41.3C40.1004 41.7 41.2004 41.7 41.7004 41C41.0004 41.3 40.4004 41.2 39.8004 40.9ZM41.5004 25.8C40.8004 25.4 41.0004 24.7 40.9004 24.1C40.4004 24.9 40.6004 25.8 41.2004 26.2C41.8004 26.6 43.0004 26.7 43.4004 25.9C42.7004 26.2 42.1004 26.1 41.5004 25.8ZM41.7004 48.3C41.0004 47.9 41.2004 47.2 41.1004 46.6C40.6004 47.3 40.7004 48.2 41.4004 48.7C42.0004 49.1 43.1004 49.1 43.6004 48.4C42.9004 48.7 42.3004 48.6 41.7004 48.3ZM45.7004 54.2C45.0004 53.8 45.2004 53.1 45.1004 52.5C44.6004 53.2 44.7004 54.1 45.4004 54.6C46.0004 55 47.1004 55.1 47.6004 54.3C46.9004 54.6 46.3004 54.5 45.7004 54.2ZM46.3004 19.8C45.6004 19.4 45.8004 18.7 45.7004 18.1C45.2004 18.8 45.3004 19.7 46.0004 20.2C46.6004 20.6 47.8004 20.7 48.2004 19.9C47.5004 20.2 46.9004 20.1 46.3004 19.8ZM51.7004 59.7C51.0004 59.3 51.1004 58.6 51.1004 58C50.6004 58.7 50.7004 59.6 51.4004 60.1C52.0004 60.5 53.1004 60.5 53.6004 59.8C52.9004 60.1 52.3004 60 51.7004 59.7ZM51.8004 14.7C51.1004 14.3 51.3004 13.6 51.2004 13C50.7004 13.8 50.9004 14.7 51.5004 15.1C52.1004 15.5 53.3004 15.6 53.7004 14.8C53.0004 15.1 52.4004 15 51.8004 14.7ZM58.4004 62.8C57.7004 62.4 57.8004 61.7 57.8004 61.1C57.3004 61.8 57.4004 62.8 58.1004 63.2C58.7004 63.6 59.8004 63.7 60.3004 62.9C59.6004 63.2 59.0004 63.1 58.4004 62.8ZM58.8004 11.6C58.1004 11.2 58.3004 10.5 58.2004 9.9C57.7004 10.6 57.9004 11.6 58.5004 12C59.1004 12.4 60.3004 12.5 60.7004 11.7C60.0004 12 59.4004 11.9 58.8004 11.6ZM66.2004 63.4C65.5004 63 65.7004 62.3 65.6004 61.7C65.1004 62.4 65.2004 63.3 65.9004 63.8C66.5004 64.2 67.6004 64.2 68.1004 63.5C67.4004 63.8 66.8004 63.7 66.2004 63.4ZM66.4004 10.7C65.7004 10.3 65.9004 9.6 65.8004 9C65.3004 9.8 65.4004 10.7 66.1004 11.1C66.7004 11.5 67.9004 11.6 68.3004 10.8C67.6004 11.1 67.0004 11 66.4004 10.7ZM73.6004 61.6C72.9004 61.2 73.1004 60.5 73.0004 59.9C72.5004 60.6 72.6004 61.5 73.3004 62C73.9004 62.4 75.0004 62.5 75.5004 61.7C74.8004 62 74.2004 61.9 73.6004 61.6ZM74.0004 12.8C73.3004 12.4 73.5004 11.7 73.4004 11.1C72.9004 11.8 73.0004 12.8 73.7004 13.2C74.3004 13.6 75.5004 13.7 75.9004 12.9C75.2004 13.2 74.6004 13.1 74.0004 12.8ZM80.7004 17.1C80.0004 16.7 80.2004 16 80.1004 15.4C79.5004 16.2 79.7004 17.1 80.4004 17.5C81.0004 17.9 82.2004 18 82.6004 17.2C81.9004 17.5 81.3004 17.4 80.7004 17.1ZM85.9004 22.7C85.2004 22.3 85.4004 21.7 85.3004 21C84.8004 21.7 84.9004 22.6 85.6004 23.1C86.2004 23.5 87.4004 23.6 87.8004 22.8C87.1004 23.1 86.5004 23 85.9004 22.7ZM73.6004 61.6C72.9004 61.2 73.1004 60.5 73.0004 59.9C72.5004 60.6 72.6004 61.5 73.3004 62C73.9004 62.4 75.0004 62.5 75.5004 61.7C74.8004 62 74.2004 61.9 73.6004 61.6ZM66.2004 63.4C65.5004 63 65.7004 62.3 65.6004 61.7C65.1004 62.4 65.2004 63.3 65.9004 63.8C66.5004 64.2 67.6004 64.2 68.1004 63.5C67.4004 63.8 66.8004 63.7 66.2004 63.4ZM58.4004 62.8C57.7004 62.4 57.8004 61.7 57.8004 61.1C57.3004 61.8 57.4004 62.8 58.1004 63.2C58.7004 63.6 59.8004 63.7 60.3004 62.9C59.6004 63.2 59.0004 63.1 58.4004 62.8ZM51.7004 59.7C51.0004 59.3 51.1004 58.6 51.1004 58C50.6004 58.7 50.7004 59.6 51.4004 60.1C52.0004 60.5 53.1004 60.5 53.6004 59.8C52.9004 60.1 52.3004 60 51.7004 59.7ZM45.7004 54.2C45.0004 53.8 45.2004 53.1 45.1004 52.5C44.6004 53.2 44.7004 54.1 45.4004 54.6C46.0004 55 47.1004 55.1 47.6004 54.3C46.9004 54.6 46.3004 54.5 45.7004 54.2ZM41.7004 48.3C41.0004 47.9 41.2004 47.2 41.1004 46.6C40.6004 47.3 40.7004 48.2 41.4004 48.7C42.0004 49.1 43.1004 49.1 43.6004 48.4C42.9004 48.7 42.3004 48.6 41.7004 48.3ZM39.8004 40.9C39.1004 40.5 39.3004 39.8 39.2004 39.2C38.7004 39.9 38.8004 40.8 39.5004 41.3C40.1004 41.7 41.2004 41.7 41.7004 41C41.0004 41.3 40.4004 41.2 39.8004 40.9ZM39.6004 33.3C38.9004 32.9 39.1004 32.2 39.0004 31.6C38.5004 32.3 38.6004 33.3 39.3004 33.7C39.9004 34.1 41.0004 34.2 41.5004 33.4C40.8004 33.7 40.2004 33.6 39.6004 33.3ZM41.5004 25.8C40.8004 25.4 41.0004 24.7 40.9004 24.1C40.4004 24.9 40.6004 25.8 41.2004 26.2C41.8004 26.6 43.0004 26.7 43.4004 25.9C42.7004 26.2 42.1004 26.1 41.5004 25.8ZM46.3004 19.8C45.6004 19.4 45.8004 18.7 45.7004 18.1C45.2004 18.8 45.3004 19.7 46.0004 20.2C46.6004 20.6 47.8004 20.7 48.2004 19.9C47.5004 20.2 46.9004 20.1 46.3004 19.8ZM51.8004 14.7C51.1004 14.3 51.3004 13.6 51.2004 13C50.7004 13.8 50.9004 14.7 51.5004 15.1C52.1004 15.5 53.3004 15.6 53.7004 14.8C53.0004 15.1 52.4004 15 51.8004 14.7ZM58.8004 11.6C58.1004 11.2 58.3004 10.5 58.2004 9.9C57.7004 10.6 57.9004 11.6 58.5004 12C59.1004 12.4 60.3004 12.5 60.7004 11.7C60.0004 12 59.4004 11.9 58.8004 11.6ZM66.4004 10.7C65.7004 10.3 65.9004 9.6 65.8004 9C65.3004 9.8 65.4004 10.7 66.1004 11.1C66.7004 11.5 67.9004 11.6 68.3004 10.8C67.6004 11.1 67.0004 11 66.4004 10.7ZM74.0004 12.8C73.3004 12.4 73.5004 11.7 73.4004 11.1C72.9004 11.8 73.0004 12.8 73.7004 13.2C74.3004 13.6 75.5004 13.7 75.9004 12.9C75.2004 13.2 74.6004 13.1 74.0004 12.8ZM80.7004 17.1C80.0004 16.7 80.2004 16 80.1004 15.4C79.5004 16.2 79.7004 17.1 80.4004 17.5C81.0004 17.9 82.2004 18 82.6004 17.2C81.9004 17.5 81.3004 17.4 80.7004 17.1ZM85.9004 22.7C85.2004 22.3 85.4004 21.7 85.3004 21C84.8004 21.7 84.9004 22.6 85.6004 23.1C86.2004 23.5 87.4004 23.6 87.8004 22.8C87.1004 23.1 86.5004 23 85.9004 22.7ZM39.6004 33.3C38.9004 32.9 39.1004 32.2 39.0004 31.6C38.5004 32.3 38.6004 33.3 39.3004 33.7C39.9004 34.1 41.0004 34.2 41.5004 33.4C40.8004 33.7 40.2004 33.6 39.6004 33.3ZM39.8004 40.9C39.1004 40.5 39.3004 39.8 39.2004 39.2C38.7004 39.9 38.8004 40.8 39.5004 41.3C40.1004 41.7 41.2004 41.7 41.7004 41C41.0004 41.3 40.4004 41.2 39.8004 40.9ZM41.5004 25.8C40.8004 25.4 41.0004 24.7 40.9004 24.1C40.4004 24.9 40.6004 25.8 41.2004 26.2C41.8004 26.6 43.0004 26.7 43.4004 25.9C42.7004 26.2 42.1004 26.1 41.5004 25.8ZM41.7004 48.3C41.0004 47.9 41.2004 47.2 41.1004 46.6C40.6004 47.3 40.7004 48.2 41.4004 48.7C42.0004 49.1 43.1004 49.1 43.6004 48.4C42.9004 48.7 42.3004 48.6 41.7004 48.3ZM45.7004 54.2C45.0004 53.8 45.2004 53.1 45.1004 52.5C44.6004 53.2 44.7004 54.1 45.4004 54.6C46.0004 55 47.1004 55.1 47.6004 54.3C46.9004 54.6 46.3004 54.5 45.7004 54.2ZM46.3004 19.8C45.6004 19.4 45.8004 18.7 45.7004 18.1C45.2004 18.8 45.3004 19.7 46.0004 20.2C46.6004 20.6 47.8004 20.7 48.2004 19.9C47.5004 20.2 46.9004 20.1 46.3004 19.8ZM51.7004 59.7C51.0004 59.3 51.1004 58.6 51.1004 58C50.6004 58.7 50.7004 59.6 51.4004 60.1C52.0004 60.5 53.1004 60.5 53.6004 59.8C52.9004 60.1 52.3004 60 51.7004 59.7ZM51.8004 14.7C51.1004 14.3 51.3004 13.6 51.2004 13C50.7004 13.8 50.9004 14.7 51.5004 15.1C52.1004 15.5 53.3004 15.6 53.7004 14.8C53.0004 15.1 52.4004 15 51.8004 14.7ZM58.4004 62.8C57.7004 62.4 57.8004 61.7 57.8004 61.1C57.3004 61.8 57.4004 62.8 58.1004 63.2C58.7004 63.6 59.8004 63.7 60.3004 62.9C59.6004 63.2 59.0004 63.1 58.4004 62.8ZM58.8004 11.6C58.1004 11.2 58.3004 10.5 58.2004 9.9C57.7004 10.6 57.9004 11.6 58.5004 12C59.1004 12.4 60.3004 12.5 60.7004 11.7C60.0004 12 59.4004 11.9 58.8004 11.6ZM66.2004 63.4C65.5004 63 65.7004 62.3 65.6004 61.7C65.1004 62.4 65.2004 63.3 65.9004 63.8C66.5004 64.2 67.6004 64.2 68.1004 63.5C67.4004 63.8 66.8004 63.7 66.2004 63.4ZM66.4004 10.7C65.7004 10.3 65.9004 9.6 65.8004 9C65.3004 9.8 65.4004 10.7 66.1004 11.1C66.7004 11.5 67.9004 11.6 68.3004 10.8C67.6004 11.1 67.0004 11 66.4004 10.7ZM73.6004 61.6C72.9004 61.2 73.1004 60.5 73.0004 59.9C72.5004 60.6 72.6004 61.5 73.3004 62C73.9004 62.4 75.0004 62.5 75.5004 61.7C74.8004 62 74.2004 61.9 73.6004 61.6ZM74.0004 12.8C73.3004 12.4 73.5004 11.7 73.4004 11.1C72.9004 11.8 73.0004 12.8 73.7004 13.2C74.3004 13.6 75.5004 13.7 75.9004 12.9C75.2004 13.2 74.6004 13.1 74.0004 12.8ZM79.9004 57C79.2004 56.6 79.4004 55.9 79.3004 55.3C78.8004 56 78.9004 56.9 79.6004 57.4C80.2004 57.8 81.3004 57.9 81.8004 57.1C81.1004 57.4 80.5004 57.3 79.9004 57ZM80.7004 17.1C80.0004 16.7 80.2004 16 80.1004 15.4C79.5004 16.2 79.7004 17.1 80.4004 17.5C81.0004 17.9 82.2004 18 82.6004 17.2C81.9004 17.5 81.3004 17.4 80.7004 17.1ZM85.0004 51.1C84.3004 50.7 84.5004 50 84.4004 49.4C83.9004 50.1 84.0004 51 84.7004 51.5C85.3004 51.9 86.5004 52 86.9004 51.2C86.2004 51.5 85.6004 51.4 85.0004 51.1ZM85.9004 22.7C85.2004 22.3 85.4004 21.7 85.3004 21C84.8004 21.7 84.9004 22.6 85.6004 23.1C86.2004 23.5 87.4004 23.6 87.8004 22.8C87.1004 23.1 86.5004 23 85.9004 22.7ZM85.0004 51.1C84.3004 50.7 84.5004 50 84.4004 49.4C83.9004 50.1 84.0004 51 84.7004 51.5C85.3004 51.9 86.5004 52 86.9004 51.2C86.2004 51.5 85.6004 51.4 85.0004 51.1ZM79.9004 57C79.2004 56.6 79.4004 55.9 79.3004 55.3C78.8004 56 78.9004 56.9 79.6004 57.4C80.2004 57.8 81.3004 57.9 81.8004 57.1C81.1004 57.4 80.5004 57.3 79.9004 57ZM73.6004 61.6C72.9004 61.2 73.1004 60.5 73.0004 59.9C72.5004 60.6 72.6004 61.5 73.3004 62C73.9004 62.4 75.0004 62.5 75.5004 61.7C74.8004 62 74.2004 61.9 73.6004 61.6ZM66.2004 63.4C65.5004 63 65.7004 62.3 65.6004 61.7C65.1004 62.4 65.2004 63.3 65.9004 63.8C66.5004 64.2 67.6004 64.2 68.1004 63.5C67.4004 63.8 66.8004 63.7 66.2004 63.4ZM58.4004 62.8C57.7004 62.4 57.8004 61.7 57.8004 61.1C57.3004 61.8 57.4004 62.8 58.1004 63.2C58.7004 63.6 59.8004 63.7 60.3004 62.9C59.6004 63.2 59.0004 63.1 58.4004 62.8ZM51.7004 59.7C51.0004 59.3 51.1004 58.6 51.1004 58C50.6004 58.7 50.7004 59.6 51.4004 60.1C52.0004 60.5 53.1004 60.5 53.6004 59.8C52.9004 60.1 52.3004 60 51.7004 59.7ZM45.7004 54.2C45.0004 53.8 45.2004 53.1 45.1004 52.5C44.6004 53.2 44.7004 54.1 45.4004 54.6C46.0004 55 47.1004 55.1 47.6004 54.3C46.9004 54.6 46.3004 54.5 45.7004 54.2ZM41.7004 48.3C41.0004 47.9 41.2004 47.2 41.1004 46.6C40.6004 47.3 40.7004 48.2 41.4004 48.7C42.0004 49.1 43.1004 49.1 43.6004 48.4C42.9004 48.7 42.3004 48.6 41.7004 48.3ZM39.8004 40.9C39.1004 40.5 39.3004 39.8 39.2004 39.2C38.7004 39.9 38.8004 40.8 39.5004 41.3C40.1004 41.7 41.2004 41.7 41.7004 41C41.0004 41.3 40.4004 41.2 39.8004 40.9ZM39.6004 33.3C38.9004 32.9 39.1004 32.2 39.0004 31.6C38.5004 32.3 38.6004 33.3 39.3004 33.7C39.9004 34.1 41.0004 34.2 41.5004 33.4C40.8004 33.7 40.2004 33.6 39.6004 33.3ZM41.5004 25.8C40.8004 25.4 41.0004 24.7 40.9004 24.1C40.4004 24.9 40.6004 25.8 41.2004 26.2C41.8004 26.6 43.0004 26.7 43.4004 25.9C42.7004 26.2 42.1004 26.1 41.5004 25.8ZM46.3004 19.8C45.6004 19.4 45.8004 18.7 45.7004 18.1C45.2004 18.8 45.3004 19.7 46.0004 20.2C46.6004 20.6 47.8004 20.7 48.2004 19.9C47.5004 20.2 46.9004 20.1 46.3004 19.8ZM51.8004 14.7C51.1004 14.3 51.3004 13.6 51.2004 13C50.7004 13.8 50.9004 14.7 51.5004 15.1C52.1004 15.5 53.3004 15.6 53.7004 14.8C53.0004 15.1 52.4004 15 51.8004 14.7ZM58.8004 11.6C58.1004 11.2 58.3004 10.5 58.2004 9.9C57.7004 10.6 57.9004 11.6 58.5004 12C59.1004 12.4 60.3004 12.5 60.7004 11.7C60.0004 12 59.4004 11.9 58.8004 11.6ZM66.4004 10.7C65.7004 10.3 65.9004 9.6 65.8004 9C65.3004 9.8 65.4004 10.7 66.1004 11.1C66.7004 11.5 67.9004 11.6 68.3004 10.8C67.6004 11.1 67.0004 11 66.4004 10.7ZM74.0004 12.8C73.3004 12.4 73.5004 11.7 73.4004 11.1C72.9004 11.8 73.0004 12.8 73.7004 13.2C74.3004 13.6 75.5004 13.7 75.9004 12.9C75.2004 13.2 74.6004 13.1 74.0004 12.8ZM80.7004 17.1C80.0004 16.7 80.2004 16 80.1004 15.4C79.5004 16.2 79.7004 17.1 80.4004 17.5C81.0004 17.9 82.2004 18 82.6004 17.2C81.9004 17.5 81.3004 17.4 80.7004 17.1ZM85.9004 22.7C85.2004 22.3 85.4004 21.7 85.3004 21C84.8004 21.7 84.9004 22.6 85.6004 23.1C86.2004 23.5 87.4004 23.6 87.8004 22.8C87.1004 23.1 86.5004 23 85.9004 22.7ZM39.6004 33.3C38.9004 32.9 39.1004 32.2 39.0004 31.6C38.5004 32.3 38.6004 33.3 39.3004 33.7C39.9004 34.1 41.0004 34.2 41.5004 33.4C40.8004 33.7 40.2004 33.6 39.6004 33.3ZM39.8004 40.9C39.1004 40.5 39.3004 39.8 39.2004 39.2C38.7004 39.9 38.8004 40.8 39.5004 41.3C40.1004 41.7 41.2004 41.7 41.7004 41C41.0004 41.3 40.4004 41.2 39.8004 40.9ZM41.5004 25.8C40.8004 25.4 41.0004 24.7 40.9004 24.1C40.4004 24.9 40.6004 25.8 41.2004 26.2C41.8004 26.6 43.0004 26.7 43.4004 25.9C42.7004 26.2 42.1004 26.1 41.5004 25.8ZM41.7004 48.3C41.0004 47.9 41.2004 47.2 41.1004 46.6C40.6004 47.3 40.7004 48.2 41.4004 48.7C42.0004 49.1 43.1004 49.1 43.6004 48.4C42.9004 48.7 42.3004 48.6 41.7004 48.3ZM45.7004 54.2C45.0004 53.8 45.2004 53.1 45.1004 52.5C44.6004 53.2 44.7004 54.1 45.4004 54.6C46.0004 55 47.1004 55.1 47.6004 54.3C46.9004 54.6 46.3004 54.5 45.7004 54.2ZM46.3004 19.8C45.6004 19.4 45.8004 18.7 45.7004 18.1C45.2004 18.8 45.3004 19.7 46.0004 20.2C46.6004 20.6 47.8004 20.7 48.2004 19.9C47.5004 20.2 46.9004 20.1 46.3004 19.8ZM51.7004 59.7C51.0004 59.3 51.1004 58.6 51.1004 58C50.6004 58.7 50.7004 59.6 51.4004 60.1C52.0004 60.5 53.1004 60.5 53.6004 59.8C52.9004 60.1 52.3004 60 51.7004 59.7ZM51.8004 14.7C51.1004 14.3 51.3004 13.6 51.2004 13C50.7004 13.8 50.9004 14.7 51.5004 15.1C52.1004 15.5 53.3004 15.6 53.7004 14.8C53.0004 15.1 52.4004 15 51.8004 14.7ZM58.4004 62.8C57.7004 62.4 57.8004 61.7 57.8004 61.1C57.3004 61.8 57.4004 62.8 58.1004 63.2C58.7004 63.6 59.8004 63.7 60.3004 62.9C59.6004 63.2 59.0004 63.1 58.4004 62.8ZM58.8004 11.6C58.1004 11.2 58.3004 10.5 58.2004 9.9C57.7004 10.6 57.9004 11.6 58.5004 12C59.1004 12.4 60.3004 12.5 60.7004 11.7C60.0004 12 59.4004 11.9 58.8004 11.6ZM66.2004 63.4C65.5004 63 65.7004 62.3 65.6004 61.7C65.1004 62.4 65.2004 63.3 65.9004 63.8C66.5004 64.2 67.6004 64.2 68.1004 63.5C67.4004 63.8 66.8004 63.7 66.2004 63.4ZM66.4004 10.7C65.7004 10.3 65.9004 9.6 65.8004 9C65.3004 9.8 65.4004 10.7 66.1004 11.1C66.7004 11.5 67.9004 11.6 68.3004 10.8C67.6004 11.1 67.0004 11 66.4004 10.7ZM73.6004 61.6C72.9004 61.2 73.1004 60.5 73.0004 59.9C72.5004 60.6 72.6004 61.5 73.3004 62C73.9004 62.4 75.0004 62.5 75.5004 61.7C74.8004 62 74.2004 61.9 73.6004 61.6ZM74.0004 12.8C73.3004 12.4 73.5004 11.7 73.4004 11.1C72.9004 11.8 73.0004 12.8 73.7004 13.2C74.3004 13.6 75.5004 13.7 75.9004 12.9C75.2004 13.2 74.6004 13.1 74.0004 12.8ZM79.9004 57C79.2004 56.6 79.4004 55.9 79.3004 55.3C78.8004 56 78.9004 56.9 79.6004 57.4C80.2004 57.8 81.3004 57.9 81.8004 57.1C81.1004 57.4 80.5004 57.3 79.9004 57ZM80.7004 17.1C80.0004 16.7 80.2004 16 80.1004 15.4C79.5004 16.2 79.7004 17.1 80.4004 17.5C81.0004 17.9 82.2004 18 82.6004 17.2C81.9004 17.5 81.3004 17.4 80.7004 17.1ZM85.0004 51.1C84.3004 50.7 84.5004 50 84.4004 49.4C83.9004 50.1 84.0004 51 84.7004 51.5C85.3004 51.9 86.5004 52 86.9004 51.2C86.2004 51.5 85.6004 51.4 85.0004 51.1ZM85.9004 22.7C85.2004 22.3 85.4004 21.7 85.3004 21C84.8004 21.7 84.9004 22.6 85.6004 23.1C86.2004 23.5 87.4004 23.6 87.8004 22.8C87.1004 23.1 86.5004 23 85.9004 22.7ZM88.9004 44.7C88.2004 44.3 88.4004 43.6 88.3004 43C87.8004 43.7 87.9004 44.6 88.6004 45.1C89.2004 45.5 90.4004 45.6 90.8004 44.8C90.1004 45.1 89.5004 45 88.9004 44.7ZM89.7004 37.6C89.0004 37.2 89.2004 36.5 89.1004 35.9C88.6004 36.6 88.7004 37.6 89.4004 38C90.0004 38.4 91.2004 38.5 91.6004 37.7C90.9004 38 90.3004 37.9 89.7004 37.6ZM88.9004 44.7C88.2004 44.3 88.4004 43.6 88.3004 43C87.8004 43.7 87.9004 44.6 88.6004 45.1C89.2004 45.5 90.4004 45.6 90.8004 44.8C90.1004 45.1 89.5004 45 88.9004 44.7ZM85.0004 51.1C84.3004 50.7 84.5004 50 84.4004 49.4C83.9004 50.1 84.0004 51 84.7004 51.5C85.3004 51.9 86.5004 52 86.9004 51.2C86.2004 51.5 85.6004 51.4 85.0004 51.1ZM79.9004 57C79.2004 56.6 79.4004 55.9 79.3004 55.3C78.8004 56 78.9004 56.9 79.6004 57.4C80.2004 57.8 81.3004 57.9 81.8004 57.1C81.1004 57.4 80.5004 57.3 79.9004 57ZM73.6004 61.6C72.9004 61.2 73.1004 60.5 73.0004 59.9C72.5004 60.6 72.6004 61.5 73.3004 62C73.9004 62.4 75.0004 62.5 75.5004 61.7C74.8004 62 74.2004 61.9 73.6004 61.6ZM66.2004 63.4C65.5004 63 65.7004 62.3 65.6004 61.7C65.1004 62.4 65.2004 63.3 65.9004 63.8C66.5004 64.2 67.6004 64.2 68.1004 63.5C67.4004 63.8 66.8004 63.7 66.2004 63.4ZM58.4004 62.8C57.7004 62.4 57.8004 61.7 57.8004 61.1C57.3004 61.8 57.4004 62.8 58.1004 63.2C58.7004 63.6 59.8004 63.7 60.3004 62.9C59.6004 63.2 59.0004 63.1 58.4004 62.8ZM51.7004 59.7C51.0004 59.3 51.1004 58.6 51.1004 58C50.6004 58.7 50.7004 59.6 51.4004 60.1C52.0004 60.5 53.1004 60.5 53.6004 59.8C52.9004 60.1 52.3004 60 51.7004 59.7ZM45.7004 54.2C45.0004 53.8 45.2004 53.1 45.1004 52.5C44.6004 53.2 44.7004 54.1 45.4004 54.6C46.0004 55 47.1004 55.1 47.6004 54.3C46.9004 54.6 46.3004 54.5 45.7004 54.2ZM41.7004 48.3C41.0004 47.9 41.2004 47.2 41.1004 46.6C40.6004 47.3 40.7004 48.2 41.4004 48.7C42.0004 49.1 43.1004 49.1 43.6004 48.4C42.9004 48.7 42.3004 48.6 41.7004 48.3ZM39.8004 40.9C39.1004 40.5 39.3004 39.8 39.2004 39.2C38.7004 39.9 38.8004 40.8 39.5004 41.3C40.1004 41.7 41.2004 41.7 41.7004 41C41.0004 41.3 40.4004 41.2 39.8004 40.9ZM39.6004 33.3C38.9004 32.9 39.1004 32.2 39.0004 31.6C38.5004 32.3 38.6004 33.3 39.3004 33.7C39.9004 34.1 41.0004 34.2 41.5004 33.4C40.8004 33.7 40.2004 33.6 39.6004 33.3ZM41.5004 25.8C40.8004 25.4 41.0004 24.7 40.9004 24.1C40.4004 24.9 40.6004 25.8 41.2004 26.2C41.8004 26.6 43.0004 26.7 43.4004 25.9C42.7004 26.2 42.1004 26.1 41.5004 25.8ZM46.3004 19.8C45.6004 19.4 45.8004 18.7 45.7004 18.1C45.2004 18.8 45.3004 19.7 46.0004 20.2C46.6004 20.6 47.8004 20.7 48.2004 19.9C47.5004 20.2 46.9004 20.1 46.3004 19.8ZM51.8004 14.7C51.1004 14.3 51.3004 13.6 51.2004 13C50.7004 13.8 50.9004 14.7 51.5004 15.1C52.1004 15.5 53.3004 15.6 53.7004 14.8C53.0004 15.1 52.4004 15 51.8004 14.7ZM58.8004 11.6C58.1004 11.2 58.3004 10.5 58.2004 9.9C57.7004 10.6 57.9004 11.6 58.5004 12C59.1004 12.4 60.3004 12.5 60.7004 11.7C60.0004 12 59.4004 11.9 58.8004 11.6ZM66.4004 10.7C65.7004 10.3 65.9004 9.6 65.8004 9C65.3004 9.8 65.4004 10.7 66.1004 11.1C66.7004 11.5 67.9004 11.6 68.3004 10.8C67.6004 11.1 67.0004 11 66.4004 10.7ZM74.0004 12.8C73.3004 12.4 73.5004 11.7 73.4004 11.1C72.9004 11.8 73.0004 12.8 73.7004 13.2C74.3004 13.6 75.5004 13.7 75.9004 12.9C75.2004 13.2 74.6004 13.1 74.0004 12.8ZM80.7004 17.1C80.0004 16.7 80.2004 16 80.1004 15.4C79.5004 16.2 79.7004 17.1 80.4004 17.5C81.0004 17.9 82.2004 18 82.6004 17.2C81.9004 17.5 81.3004 17.4 80.7004 17.1ZM85.9004 22.7C85.2004 22.3 85.4004 21.7 85.3004 21C84.8004 21.7 84.9004 22.6 85.6004 23.1C86.2004 23.5 87.4004 23.6 87.8004 22.8C87.1004 23.1 86.5004 23 85.9004 22.7ZM89.7004 37.6C89.0004 37.2 89.2004 36.5 89.1004 35.9C88.6004 36.6 88.7004 37.6 89.4004 38C90.0004 38.4 91.2004 38.5 91.6004 37.7C90.9004 38 90.3004 37.9 89.7004 37.6ZM92.1004 40C93.8004 39.4 95.1004 37.9 95.1004 36C95.1004 34 93.7004 32.3 91.7004 31.9C93.0004 31.2 93.9004 29.8 93.9004 28.3C93.9004 26.1 92.2004 24.3 90.0004 24.1C90.5004 23.4 90.8004 22.6 90.8004 21.7C90.8004 19.4 88.8004 17.5 86.4004 17.5C86.0004 17.5 85.5004 17.6 85.1004 17.7C85.4004 17.2 85.6004 16.6 85.6004 15.9C85.6004 13.6 83.6004 11.7 81.2004 11.7C80.5004 11.7 79.8004 11.9 79.2004 12.2C79.3004 12 79.3004 11.8 79.3004 11.6C79.3004 9.3 77.3004 7.4 74.9004 7.4C73.6004 7.4 72.5004 7.9 71.7004 8.7C71.2004 6.9 69.5004 5.5 67.4004 5.5C65.6004 5.5 64.0004 6.6 63.7004 8.1C62.9004 7 61.5004 6.2 60.0004 6.2C57.6004 6.2 55.7004 7.9 55.6004 10.1C54.9004 9.6 54.0004 9.3 53.0004 9.3C50.6004 9.3 48.6004 11.2 48.6004 13.5C48.6004 13.9 48.7004 14.3 48.8004 14.7C48.3004 14.5 47.7004 14.4 47.1004 14.4C44.7004 14.4 42.7004 16.3 42.7004 18.6C42.7004 19.4 42.9004 20 43.2004 20.6H42.8004C40.4004 20.6 38.4004 22.5 38.4004 24.8C38.4004 26.1 39.0004 27.2 39.9004 28C37.7004 28.2 36.1004 30 36.1004 32.1C36.1004 33.7 37.1004 35.1 38.3004 35.8C36.9004 36.5 35.9004 37.9 35.9004 39.5C35.9004 41.5 37.5004 43.2 39.5004 43.6C38.5004 44.3 37.8004 45.5 37.8004 46.9C37.8004 49.2 39.8004 51.1 42.2004 51.1H42.5004C42.2004 51.7 42.0004 52.4 42.0004 53.1C42.0004 55.4 44.0004 57.3 46.4004 57.3C47.0004 57.3 47.6004 57.1 48.2004 56.9C48.0004 57.4 47.9004 57.9 47.9004 58.4C47.9004 60.7 49.9004 62.6 52.3004 62.6C53.3004 62.6 54.2004 62.3 54.9004 61.8C55.1004 64 57.0004 65.7 59.3004 65.7C60.9004 65.7 62.2004 64.9 63.0004 63.8C63.7004 65.4 65.3004 66.5 67.1004 66.5C69.2004 66.5 71.0004 65 71.3004 63C72.1004 63.8 73.3004 64.3 74.5004 64.3C76.9004 64.3 78.9004 62.4 78.9004 60.1C78.9004 59.9 78.9004 59.6 78.8004 59.3C79.4004 59.6 80.1004 59.8 80.8004 59.8C83.2004 59.8 85.2004 57.9 85.2004 55.6C85.2004 55.1 85.1004 54.5 84.9004 54C85.3004 54 85.6004 54.1 86.0004 54.1C88.4004 54.1 90.4004 52.2 90.4004 49.9C90.4004 49 90.1004 48.2 89.6004 47.5C91.9004 47.5 93.9004 45.6 93.9004 43.3C93.9004 42 93.2004 40.8 92.1004 40ZM93.7004 36C93.7004 37.5 92.4004 38.8 90.8004 38.8C89.2004 38.8 87.9004 37.5 87.9004 36C87.9004 34.5 89.2004 33.2 90.8004 33.2C92.4004 33.2 93.7004 34.5 93.7004 36ZM92.5004 28.3C92.5004 29.8 91.1004 31.1 89.5004 31.1C87.8004 31.1 86.5004 29.8 86.5004 28.3C86.5004 26.8 87.9004 25.5 89.5004 25.5C91.2004 25.5 92.5004 26.8 92.5004 28.3ZM86.4004 19C88.0004 19 89.3004 20.3 89.3004 21.8C89.3004 23.3 88.0004 24.6 86.4004 24.6C84.8004 24.6 83.4004 23.4 83.4004 21.8C83.4004 20.3 84.8004 19 86.4004 19ZM81.2004 13.2C82.8004 13.2 84.1004 14.5 84.1004 16C84.1004 17.5 82.8004 18.8 81.2004 18.8C79.5004 18.8 78.2004 17.5 78.2004 16C78.2004 14.5 79.6004 13.2 81.2004 13.2ZM74.8004 8.8C76.5004 8.8 77.8004 10.1 77.8004 11.6C77.8004 13.1 76.4004 14.4 74.8004 14.4C73.2004 14.4 71.9004 13.2 71.9004 11.6C71.9004 10.1 73.2004 8.8 74.8004 8.8ZM67.4004 6.9C69.0004 6.9 70.3004 8.2 70.3004 9.7C70.3004 11.2 69.0004 12.5 67.4004 12.5C65.8004 12.5 64.5004 11.2 64.5004 9.7C64.5004 8.2 65.8004 6.9 67.4004 6.9ZM59.7004 7.6C61.3004 7.6 62.6004 8.9 62.6004 10.4C62.6004 11.9 61.3004 13.2 59.7004 13.2C58.1004 13.2 56.8004 12 56.8004 10.4C56.8004 8.9 58.1004 7.6 59.7004 7.6ZM52.7004 10.7C54.4004 10.7 55.7004 12 55.7004 13.5C55.7004 15 54.3004 16.3 52.7004 16.3C51.1004 16.3 49.8004 15.1 49.8004 13.5C49.8004 12 51.1004 10.7 52.7004 10.7ZM46.9004 15.8C48.5004 15.8 49.8004 17.1 49.8004 18.6C49.8004 20.1 48.5004 21.4 46.9004 21.4C45.2004 21.4 43.9004 20.1 43.9004 18.6C43.9004 17.1 45.3004 15.8 46.9004 15.8ZM39.7004 24.7C39.7004 23.2 41.1004 21.9 42.7004 21.9C44.3004 21.9 45.6004 23.2 45.6004 24.7C45.6004 26.2 44.3004 27.5 42.7004 27.5C41.0004 27.5 39.7004 26.3 39.7004 24.7ZM37.4004 32C37.4004 30.5 38.8004 29.2 40.4004 29.2C42.1004 29.2 43.4004 30.5 43.4004 32C43.4004 33.6 42.1004 34.8 40.4004 34.8C38.7004 34.8 37.4004 33.5 37.4004 32ZM37.6004 39.5C37.6004 38 38.9004 36.7 40.5004 36.7C42.1004 36.7 43.4004 38 43.4004 39.5C43.4004 41.1 42.1004 42.3 40.5004 42.3C38.9004 42.3 37.6004 41 37.6004 39.5ZM42.3004 49.8C40.7004 49.8 39.4004 48.5 39.4004 47C39.4004 45.5 40.7004 44.2 42.3004 44.2C44.0004 44.2 45.3004 45.5 45.3004 47C45.3004 48.5 44.0004 49.8 42.3004 49.8ZM46.5004 55.9C44.8004 55.9 43.5004 54.6 43.5004 53.1C43.5004 51.6 44.9004 50.3 46.5004 50.3C48.2004 50.3 49.5004 51.6 49.5004 53.1C49.5004 54.6 48.1004 55.9 46.5004 55.9ZM52.4004 61.2C50.8004 61.2 49.5004 59.9 49.5004 58.4C49.5004 56.9 50.8004 55.6 52.4004 55.6C54.1004 55.6 55.4004 56.9 55.3004 58.4C55.3004 59.9 54.0004 61.2 52.4004 61.2ZM59.3004 64.3C57.6004 64.3 56.3004 63 56.3004 61.5C56.3004 60 57.7004 58.7 59.3004 58.7C61.0004 58.7 62.3004 60 62.3004 61.5C62.3004 63 60.9004 64.3 59.3004 64.3ZM67.1004 65.1C65.4004 65.1 64.1004 63.8 64.1004 62.3C64.1004 60.8 65.5004 59.5 67.1004 59.5C68.7004 59.5 70.0004 60.8 70.0004 62.3C70.0004 63.8 68.7004 65.1 67.1004 65.1ZM74.5004 63C72.8004 63 71.5004 61.7 71.5004 60.2C71.5004 58.7 72.9004 57.4 74.5004 57.4C76.2004 57.4 77.5004 58.7 77.4004 60.2C77.4004 61.7 76.1004 63 74.5004 63ZM76.3004 55.6C76.3004 55.8 76.3004 56.1 76.4004 56.4C75.8004 56.1 75.1004 55.9 74.4004 55.9C72.3004 55.9 70.5004 57.4 70.1004 59.3C69.3004 58.5 68.2004 58 66.9004 58C65.3004 58 64.0004 58.8 63.2004 59.9C62.5004 58.3 61.0004 57.2 59.1004 57.2C58.1004 57.2 57.2004 57.5 56.5004 58C56.4004 55.8 54.5004 54.1 52.2004 54.1C51.6004 54.1 51.0004 54.3 50.4004 54.5C50.6004 54 50.7004 53.5 50.7004 53C50.7004 50.7 48.7004 48.8 46.3004 48.8H46.0004C46.3004 48.3 46.5004 47.6 46.5004 46.9C46.5004 44.9 44.9004 43.2 42.9004 42.8C43.9004 42.1 44.6004 40.9 44.6004 39.5C44.6004 37.8 43.6004 36.4 42.1004 35.7C43.5004 35 44.5004 33.6 44.5004 32C44.5004 30.7 43.9004 29.6 43.0004 28.8C45.2004 28.5 46.8004 26.8 46.8004 24.7C46.8004 23.9 46.6004 23.3 46.3004 22.7H46.7004C49.1004 22.7 51.1004 20.8 51.1004 18.5C51.1004 18.1 51.0004 17.7 50.9004 17.3C51.4004 17.5 52.0004 17.6 52.6004 17.6C55.0004 17.6 56.9004 15.9 57.0004 13.7C57.7004 14.2 58.6004 14.5 59.6004 14.5C61.5004 14.5 63.0004 13.4 63.7004 11.9C64.5004 13 65.9004 13.8 67.4004 13.8C68.7004 13.8 69.8004 13.3 70.6004 12.5C71.1004 14.3 72.8004 15.7 74.9004 15.7C75.6004 15.7 76.3004 15.5 76.9004 15.2C76.8004 15.4 76.8004 15.6 76.8004 15.8C76.8004 18.1 78.8004 20 81.2004 20C81.6004 20 82.1004 19.9 82.5004 19.8C82.2004 20.4 82.0004 21 82.0004 21.7C82.0004 23.9 83.7004 25.7 85.9004 25.9C85.4004 26.6 85.1004 27.4 85.1004 28.3C85.1004 30.3 86.6004 32 88.5004 32.4C87.2004 33.1 86.3004 34.5 86.3004 36C86.3004 37.3 86.9004 38.5 88.0004 39.3C86.3004 39.9 85.0004 41.4 85.0004 43.3C85.0004 44.2 85.3004 45 85.8004 45.7C83.4004 45.7 81.5004 47.6 81.5004 49.9C81.5004 50.4 81.6004 51 81.8004 51.5C81.4004 51.5 81.1004 51.4 80.7004 51.4C78.3004 51.4 76.3004 53.3 76.3004 55.6ZM80.9004 58.5C79.2004 58.5 77.9004 57.2 77.9004 55.7C77.9004 54.1 79.2004 52.9 80.9004 52.9C82.5004 52.9 83.8004 54.2 83.8004 55.7C83.8004 57.2 82.5004 58.5 80.9004 58.5ZM86.0004 52.8C84.4004 52.8 83.1004 51.6 83.1004 50C83.1004 48.5 84.4004 47.2 86.0004 47.2C87.6004 47.2 88.9004 48.4 89.0004 50C89.0004 51.6 87.6004 52.8 86.0004 52.8ZM89.5004 46.1C87.8004 46.1 86.5004 44.8 86.5004 43.3C86.5004 41.8 87.9004 40.5 89.5004 40.5C91.2004 40.5 92.5004 41.8 92.5004 43.3C92.5004 44.8 91.1004 46.1 89.5004 46.1ZM89.7004 37.6C89.0004 37.2 89.2004 36.5 89.1004 35.9C88.6004 36.6 88.7004 37.6 89.4004 38C90.0004 38.4 91.2004 38.5 91.6004 37.7C90.9004 38 90.3004 37.9 89.7004 37.6ZM88.9004 44.7C88.2004 44.3 88.4004 43.6 88.3004 43C87.8004 43.7 87.9004 44.6 88.6004 45.1C89.2004 45.5 90.4004 45.6 90.8004 44.8C90.1004 45.1 89.5004 45 88.9004 44.7ZM88.4004 30.2C89.0004 30.6 90.2004 30.7 90.6004 29.9C89.9004 30.2 89.3004 30.1 88.7004 29.8C88.0004 29.4 88.2004 28.7 88.1004 28.1C87.6004 28.9 87.7004 29.8 88.4004 30.2ZM87.8004 22.8C87.1004 23.1 86.5004 23 85.9004 22.7C85.2004 22.3 85.4004 21.7 85.3004 21C84.8004 21.7 84.9004 22.6 85.6004 23.1C86.2004 23.5 87.4004 23.6 87.8004 22.8ZM85.0004 51.1C84.3004 50.7 84.5004 50 84.4004 49.4C83.9004 50.1 84.0004 51 84.7004 51.5C85.3004 51.9 86.5004 52 86.9004 51.2C86.2004 51.5 85.6004 51.4 85.0004 51.1ZM80.4004 17.5C81.0004 17.9 82.2004 18 82.6004 17.2C81.9004 17.5 81.3004 17.4 80.7004 17.1C80.0004 16.7 80.2004 16 80.1004 15.4C79.5004 16.2 79.7004 17.1 80.4004 17.5ZM79.9004 57C79.2004 56.6 79.4004 55.9 79.3004 55.3C78.8004 56 78.9004 56.9 79.6004 57.4C80.2004 57.8 81.3004 57.9 81.8004 57.1C81.1004 57.4 80.5004 57.3 79.9004 57ZM73.7004 13.2C74.3004 13.6 75.5004 13.7 75.9004 12.9C75.2004 13.2 74.6004 13.1 74.0004 12.8C73.3004 12.4 73.5004 11.7 73.4004 11.1C72.9004 11.8 73.0004 12.8 73.7004 13.2ZM73.6004 61.6C72.9004 61.2 73.1004 60.5 73.0004 59.9C72.5004 60.6 72.6004 61.5 73.3004 62C73.9004 62.4 75.0004 62.5 75.5004 61.7C74.8004 62 74.2004 61.9 73.6004 61.6ZM66.1004 11.1C66.7004 11.5 67.9004 11.6 68.3004 10.8C67.6004 11.1 67.0004 11 66.4004 10.7C65.7004 10.3 65.9004 9.6 65.8004 9C65.3004 9.8 65.4004 10.7 66.1004 11.1ZM66.2004 63.4C65.5004 63 65.7004 62.3 65.6004 61.7C65.1004 62.4 65.2004 63.3 65.9004 63.8C66.5004 64.2 67.6004 64.2 68.1004 63.5C67.4004 63.8 66.8004 63.7 66.2004 63.4ZM58.5004 12C59.1004 12.4 60.3004 12.5 60.7004 11.7C60.0004 12 59.4004 11.9 58.8004 11.6C58.1004 11.2 58.3004 10.5 58.2004 9.9C57.7004 10.6 57.9004 11.6 58.5004 12ZM58.4004 62.8C57.7004 62.4 57.8004 61.7 57.8004 61.1C57.3004 61.8 57.4004 62.8 58.1004 63.2C58.7004 63.6 59.8004 63.7 60.3004 62.9C59.6004 63.2 59.0004 63.1 58.4004 62.8ZM51.5004 15.1C52.1004 15.5 53.3004 15.6 53.7004 14.8C53.0004 15.1 52.4004 15 51.8004 14.7C51.1004 14.3 51.3004 13.6 51.2004 13C50.7004 13.8 50.9004 14.7 51.5004 15.1ZM51.7004 59.7C51.0004 59.3 51.1004 58.6 51.1004 58C50.6004 58.7 50.7004 59.6 51.4004 60.1C52.0004 60.5 53.1004 60.5 53.6004 59.8C52.9004 60.1 52.3004 60 51.7004 59.7ZM48.2004 19.9C47.5004 20.2 46.9004 20.1 46.3004 19.8C45.6004 19.4 45.8004 18.7 45.7004 18.1C45.2004 18.8 45.3004 19.7 46.0004 20.2C46.6004 20.6 47.8004 20.7 48.2004 19.9ZM45.7004 54.2C45.0004 53.8 45.2004 53.1 45.1004 52.5C44.6004 53.2 44.7004 54.1 45.4004 54.6C46.0004 55 47.1004 55.1 47.6004 54.3C46.9004 54.6 46.3004 54.5 45.7004 54.2ZM41.7004 48.3C41.0004 47.9 41.2004 47.2 41.1004 46.6C40.6004 47.3 40.7004 48.2 41.4004 48.7C42.0004 49.1 43.1004 49.1 43.6004 48.4C42.9004 48.7 42.3004 48.6 41.7004 48.3ZM41.2004 26.2C41.8004 26.6 43.0004 26.7 43.4004 25.9C42.7004 26.2 42.1004 26.1 41.5004 25.8C40.8004 25.4 41.0004 24.7 40.9004 24.1C40.4004 24.9 40.6004 25.8 41.2004 26.2ZM41.7004 41C41.0004 41.3 40.4004 41.2 39.8004 40.9C39.1004 40.5 39.3004 39.8 39.2004 39.2C38.7004 39.9 38.8004 40.8 39.5004 41.3C40.1004 41.7 41.2004 41.7 41.7004 41ZM41.5004 33.4C40.8004 33.7 40.2004 33.6 39.6004 33.3C38.9004 32.9 39.1004 32.2 39.0004 31.6C38.5004 32.3 38.6004 33.3 39.3004 33.7C39.9004 34.1 41.0004 34.2 41.5004 33.4ZM85.9004 22.7C85.2004 22.3 85.4004 21.7 85.3004 21C84.8004 21.7 84.9004 22.6 85.6004 23.1C86.2004 23.5 87.4004 23.6 87.8004 22.8C87.1004 23.1 86.5004 23 85.9004 22.7ZM80.7004 17.1C80.0004 16.7 80.2004 16 80.1004 15.4C79.5004 16.2 79.7004 17.1 80.4004 17.5C81.0004 17.9 82.2004 18 82.6004 17.2C81.9004 17.5 81.3004 17.4 80.7004 17.1ZM74.0004 12.8C73.3004 12.4 73.5004 11.7 73.4004 11.1C72.9004 11.8 73.0004 12.8 73.7004 13.2C74.3004 13.6 75.5004 13.7 75.9004 12.9C75.2004 13.2 74.6004 13.1 74.0004 12.8ZM66.4004 10.7C65.7004 10.3 65.9004 9.6 65.8004 9C65.3004 9.8 65.4004 10.7 66.1004 11.1C66.7004 11.5 67.9004 11.6 68.3004 10.8C67.6004 11.1 67.0004 11 66.4004 10.7ZM58.8004 11.6C58.1004 11.2 58.3004 10.5 58.2004 9.9C57.7004 10.6 57.9004 11.6 58.5004 12C59.1004 12.4 60.3004 12.5 60.7004 11.7C60.0004 12 59.4004 11.9 58.8004 11.6ZM51.8004 14.7C51.1004 14.3 51.3004 13.6 51.2004 13C50.7004 13.8 50.9004 14.7 51.5004 15.1C52.1004 15.5 53.3004 15.6 53.7004 14.8C53.0004 15.1 52.4004 15 51.8004 14.7ZM46.3004 19.8C45.6004 19.4 45.8004 18.7 45.7004 18.1C45.2004 18.8 45.3004 19.7 46.0004 20.2C46.6004 20.6 47.8004 20.7 48.2004 19.9C47.5004 20.2 46.9004 20.1 46.3004 19.8ZM41.5004 25.8C40.8004 25.4 41.0004 24.7 40.9004 24.1C40.4004 24.9 40.6004 25.8 41.2004 26.2C41.8004 26.6 43.0004 26.7 43.4004 25.9C42.7004 26.2 42.1004 26.1 41.5004 25.8ZM39.6004 33.3C38.9004 32.9 39.1004 32.2 39.0004 31.6C38.5004 32.3 38.6004 33.3 39.3004 33.7C39.9004 34.1 41.0004 34.2 41.5004 33.4C40.8004 33.7 40.2004 33.6 39.6004 33.3ZM39.8004 40.9C39.1004 40.5 39.3004 39.8 39.2004 39.2C38.7004 39.9 38.8004 40.8 39.5004 41.3C40.1004 41.7 41.2004 41.7 41.7004 41C41.0004 41.3 40.4004 41.2 39.8004 40.9ZM41.7004 48.3C41.0004 47.9 41.2004 47.2 41.1004 46.6C40.6004 47.3 40.7004 48.2 41.4004 48.7C42.0004 49.1 43.1004 49.1 43.6004 48.4C42.9004 48.7 42.3004 48.6 41.7004 48.3ZM45.7004 54.2C45.0004 53.8 45.2004 53.1 45.1004 52.5C44.6004 53.2 44.7004 54.1 45.4004 54.6C46.0004 55 47.1004 55.1 47.6004 54.3C46.9004 54.6 46.3004 54.5 45.7004 54.2ZM51.7004 59.7C51.0004 59.3 51.1004 58.6 51.1004 58C50.6004 58.7 50.7004 59.6 51.4004 60.1C52.0004 60.5 53.1004 60.5 53.6004 59.8C52.9004 60.1 52.3004 60 51.7004 59.7ZM58.4004 62.8C57.7004 62.4 57.8004 61.7 57.8004 61.1C57.3004 61.8 57.4004 62.8 58.1004 63.2C58.7004 63.6 59.8004 63.7 60.3004 62.9C59.6004 63.2 59.0004 63.1 58.4004 62.8ZM66.2004 63.4C65.5004 63 65.7004 62.3 65.6004 61.7C65.1004 62.4 65.2004 63.3 65.9004 63.8C66.5004 64.2 67.6004 64.2 68.1004 63.5C67.4004 63.8 66.8004 63.7 66.2004 63.4ZM73.6004 61.6C72.9004 61.2 73.1004 60.5 73.0004 59.9C72.5004 60.6 72.6004 61.5 73.3004 62C73.9004 62.4 75.0004 62.5 75.5004 61.7C74.8004 62 74.2004 61.9 73.6004 61.6ZM79.9004 57C79.2004 56.6 79.4004 55.9 79.3004 55.3C78.8004 56 78.9004 56.9 79.6004 57.4C80.2004 57.8 81.3004 57.9 81.8004 57.1C81.1004 57.4 80.5004 57.3 79.9004 57ZM85.0004 51.1C84.3004 50.7 84.5004 50 84.4004 49.4C83.9004 50.1 84.0004 51 84.7004 51.5C85.3004 51.9 86.5004 52 86.9004 51.2C86.2004 51.5 85.6004 51.4 85.0004 51.1ZM88.9004 44.7C88.2004 44.3 88.4004 43.6 88.3004 43C87.8004 43.7 87.9004 44.6 88.6004 45.1C89.2004 45.5 90.4004 45.6 90.8004 44.8C90.1004 45.1 89.5004 45 88.9004 44.7ZM88.9004 44.7C88.2004 44.3 88.4004 43.6 88.3004 43C87.8004 43.7 87.9004 44.6 88.6004 45.1C89.2004 45.5 90.4004 45.6 90.8004 44.8C90.1004 45.1 89.5004 45 88.9004 44.7ZM85.9004 22.7C85.2004 22.3 85.4004 21.7 85.3004 21C84.8004 21.7 84.9004 22.6 85.6004 23.1C86.2004 23.5 87.4004 23.6 87.8004 22.8C87.1004 23.1 86.5004 23 85.9004 22.7ZM85.0004 51.1C84.3004 50.7 84.5004 50 84.4004 49.4C83.9004 50.1 84.0004 51 84.7004 51.5C85.3004 51.9 86.5004 52 86.9004 51.2C86.2004 51.5 85.6004 51.4 85.0004 51.1ZM80.7004 17.1C80.0004 16.7 80.2004 16 80.1004 15.4C79.5004 16.2 79.7004 17.1 80.4004 17.5C81.0004 17.9 82.2004 18 82.6004 17.2C81.9004 17.5 81.3004 17.4 80.7004 17.1ZM79.9004 57C79.2004 56.6 79.4004 55.9 79.3004 55.3C78.8004 56 78.9004 56.9 79.6004 57.4C80.2004 57.8 81.3004 57.9 81.8004 57.1C81.1004 57.4 80.5004 57.3 79.9004 57ZM74.0004 12.8C73.3004 12.4 73.5004 11.7 73.4004 11.1C72.9004 11.8 73.0004 12.8 73.7004 13.2C74.3004 13.6 75.5004 13.7 75.9004 12.9C75.2004 13.2 74.6004 13.1 74.0004 12.8ZM73.6004 61.6C72.9004 61.2 73.1004 60.5 73.0004 59.9C72.5004 60.6 72.6004 61.5 73.3004 62C73.9004 62.4 75.0004 62.5 75.5004 61.7C74.8004 62 74.2004 61.9 73.6004 61.6ZM66.4004 10.7C65.7004 10.3 65.9004 9.6 65.8004 9C65.3004 9.8 65.4004 10.7 66.1004 11.1C66.7004 11.5 67.9004 11.6 68.3004 10.8C67.6004 11.1 67.0004 11 66.4004 10.7ZM66.2004 63.4C65.5004 63 65.7004 62.3 65.6004 61.7C65.1004 62.4 65.2004 63.3 65.9004 63.8C66.5004 64.2 67.6004 64.2 68.1004 63.5C67.4004 63.8 66.8004 63.7 66.2004 63.4ZM58.8004 11.6C58.1004 11.2 58.3004 10.5 58.2004 9.9C57.7004 10.6 57.9004 11.6 58.5004 12C59.1004 12.4 60.3004 12.5 60.7004 11.7C60.0004 12 59.4004 11.9 58.8004 11.6ZM58.4004 62.8C57.7004 62.4 57.8004 61.7 57.8004 61.1C57.3004 61.8 57.4004 62.8 58.1004 63.2C58.7004 63.6 59.8004 63.7 60.3004 62.9C59.6004 63.2 59.0004 63.1 58.4004 62.8ZM51.8004 14.7C51.1004 14.3 51.3004 13.6 51.2004 13C50.7004 13.8 50.9004 14.7 51.5004 15.1C52.1004 15.5 53.3004 15.6 53.7004 14.8C53.0004 15.1 52.4004 15 51.8004 14.7ZM51.7004 59.7C51.0004 59.3 51.1004 58.6 51.1004 58C50.6004 58.7 50.7004 59.6 51.4004 60.1C52.0004 60.5 53.1004 60.5 53.6004 59.8C52.9004 60.1 52.3004 60 51.7004 59.7ZM46.3004 19.8C45.6004 19.4 45.8004 18.7 45.7004 18.1C45.2004 18.8 45.3004 19.7 46.0004 20.2C46.6004 20.6 47.8004 20.7 48.2004 19.9C47.5004 20.2 46.9004 20.1 46.3004 19.8ZM45.7004 54.2C45.0004 53.8 45.2004 53.1 45.1004 52.5C44.6004 53.2 44.7004 54.1 45.4004 54.6C46.0004 55 47.1004 55.1 47.6004 54.3C46.9004 54.6 46.3004 54.5 45.7004 54.2ZM41.7004 48.3C41.0004 47.9 41.2004 47.2 41.1004 46.6C40.6004 47.3 40.7004 48.2 41.4004 48.7C42.0004 49.1 43.1004 49.1 43.6004 48.4C42.9004 48.7 42.3004 48.6 41.7004 48.3ZM41.5004 25.8C40.8004 25.4 41.0004 24.7 40.9004 24.1C40.4004 24.9 40.6004 25.8 41.2004 26.2C41.8004 26.6 43.0004 26.7 43.4004 25.9C42.7004 26.2 42.1004 26.1 41.5004 25.8ZM39.8004 40.9C39.1004 40.5 39.3004 39.8 39.2004 39.2C38.7004 39.9 38.8004 40.8 39.5004 41.3C40.1004 41.7 41.2004 41.7 41.7004 41C41.0004 41.3 40.4004 41.2 39.8004 40.9ZM39.6004 33.3C38.9004 32.9 39.1004 32.2 39.0004 31.6C38.5004 32.3 38.6004 33.3 39.3004 33.7C39.9004 34.1 41.0004 34.2 41.5004 33.4C40.8004 33.7 40.2004 33.6 39.6004 33.3ZM85.9004 22.7C85.2004 22.3 85.4004 21.7 85.3004 21C84.8004 21.7 84.9004 22.6 85.6004 23.1C86.2004 23.5 87.4004 23.6 87.8004 22.8C87.1004 23.1 86.5004 23 85.9004 22.7ZM80.7004 17.1C80.0004 16.7 80.2004 16 80.1004 15.4C79.5004 16.2 79.7004 17.1 80.4004 17.5C81.0004 17.9 82.2004 18 82.6004 17.2C81.9004 17.5 81.3004 17.4 80.7004 17.1ZM74.0004 12.8C73.3004 12.4 73.5004 11.7 73.4004 11.1C72.9004 11.8 73.0004 12.8 73.7004 13.2C74.3004 13.6 75.5004 13.7 75.9004 12.9C75.2004 13.2 74.6004 13.1 74.0004 12.8ZM66.4004 10.7C65.7004 10.3 65.9004 9.6 65.8004 9C65.3004 9.8 65.4004 10.7 66.1004 11.1C66.7004 11.5 67.9004 11.6 68.3004 10.8C67.6004 11.1 67.0004 11 66.4004 10.7ZM58.8004 11.6C58.1004 11.2 58.3004 10.5 58.2004 9.9C57.7004 10.6 57.9004 11.6 58.5004 12C59.1004 12.4 60.3004 12.5 60.7004 11.7C60.0004 12 59.4004 11.9 58.8004 11.6ZM51.8004 14.7C51.1004 14.3 51.3004 13.6 51.2004 13C50.7004 13.8 50.9004 14.7 51.5004 15.1C52.1004 15.5 53.3004 15.6 53.7004 14.8C53.0004 15.1 52.4004 15 51.8004 14.7ZM46.3004 19.8C45.6004 19.4 45.8004 18.7 45.7004 18.1C45.2004 18.8 45.3004 19.7 46.0004 20.2C46.6004 20.6 47.8004 20.7 48.2004 19.9C47.5004 20.2 46.9004 20.1 46.3004 19.8ZM41.5004 25.8C40.8004 25.4 41.0004 24.7 40.9004 24.1C40.4004 24.9 40.6004 25.8 41.2004 26.2C41.8004 26.6 43.0004 26.7 43.4004 25.9C42.7004 26.2 42.1004 26.1 41.5004 25.8ZM39.6004 33.3C38.9004 32.9 39.1004 32.2 39.0004 31.6C38.5004 32.3 38.6004 33.3 39.3004 33.7C39.9004 34.1 41.0004 34.2 41.5004 33.4C40.8004 33.7 40.2004 33.6 39.6004 33.3ZM39.8004 40.9C39.1004 40.5 39.3004 39.8 39.2004 39.2C38.7004 39.9 38.8004 40.8 39.5004 41.3C40.1004 41.7 41.2004 41.7 41.7004 41C41.0004 41.3 40.4004 41.2 39.8004 40.9ZM41.7004 48.3C41.0004 47.9 41.2004 47.2 41.1004 46.6C40.6004 47.3 40.7004 48.2 41.4004 48.7C42.0004 49.1 43.1004 49.1 43.6004 48.4C42.9004 48.7 42.3004 48.6 41.7004 48.3ZM45.7004 54.2C45.0004 53.8 45.2004 53.1 45.1004 52.5C44.6004 53.2 44.7004 54.1 45.4004 54.6C46.0004 55 47.1004 55.1 47.6004 54.3C46.9004 54.6 46.3004 54.5 45.7004 54.2ZM51.7004 59.7C51.0004 59.3 51.1004 58.6 51.1004 58C50.6004 58.7 50.7004 59.6 51.4004 60.1C52.0004 60.5 53.1004 60.5 53.6004 59.8C52.9004 60.1 52.3004 60 51.7004 59.7ZM58.4004 62.8C57.7004 62.4 57.8004 61.7 57.8004 61.1C57.3004 61.8 57.4004 62.8 58.1004 63.2C58.7004 63.6 59.8004 63.7 60.3004 62.9C59.6004 63.2 59.0004 63.1 58.4004 62.8ZM66.2004 63.4C65.5004 63 65.7004 62.3 65.6004 61.7C65.1004 62.4 65.2004 63.3 65.9004 63.8C66.5004 64.2 67.6004 64.2 68.1004 63.5C67.4004 63.8 66.8004 63.7 66.2004 63.4ZM73.6004 61.6C72.9004 61.2 73.1004 60.5 73.0004 59.9C72.5004 60.6 72.6004 61.5 73.3004 62C73.9004 62.4 75.0004 62.5 75.5004 61.7C74.8004 62 74.2004 61.9 73.6004 61.6ZM79.9004 57C79.2004 56.6 79.4004 55.9 79.3004 55.3C78.8004 56 78.9004 56.9 79.6004 57.4C80.2004 57.8 81.3004 57.9 81.8004 57.1C81.1004 57.4 80.5004 57.3 79.9004 57ZM85.9004 22.7C85.2004 22.3 85.4004 21.7 85.3004 21C84.8004 21.7 84.9004 22.6 85.6004 23.1C86.2004 23.5 87.4004 23.6 87.8004 22.8C87.1004 23.1 86.5004 23 85.9004 22.7ZM80.7004 17.1C80.0004 16.7 80.2004 16 80.1004 15.4C79.5004 16.2 79.7004 17.1 80.4004 17.5C81.0004 17.9 82.2004 18 82.6004 17.2C81.9004 17.5 81.3004 17.4 80.7004 17.1ZM79.9004 57C79.2004 56.6 79.4004 55.9 79.3004 55.3C78.8004 56 78.9004 56.9 79.6004 57.4C80.2004 57.8 81.3004 57.9 81.8004 57.1C81.1004 57.4 80.5004 57.3 79.9004 57ZM74.0004 12.8C73.3004 12.4 73.5004 11.7 73.4004 11.1C72.9004 11.8 73.0004 12.8 73.7004 13.2C74.3004 13.6 75.5004 13.7 75.9004 12.9C75.2004 13.2 74.6004 13.1 74.0004 12.8ZM73.6004 61.6C72.9004 61.2 73.1004 60.5 73.0004 59.9C72.5004 60.6 72.6004 61.5 73.3004 62C73.9004 62.4 75.0004 62.5 75.5004 61.7C74.8004 62 74.2004 61.9 73.6004 61.6ZM66.4004 10.7C65.7004 10.3 65.9004 9.6 65.8004 9C65.3004 9.8 65.4004 10.7 66.1004 11.1C66.7004 11.5 67.9004 11.6 68.3004 10.8C67.6004 11.1 67.0004 11 66.4004 10.7ZM66.2004 63.4C65.5004 63 65.7004 62.3 65.6004 61.7C65.1004 62.4 65.2004 63.3 65.9004 63.8C66.5004 64.2 67.6004 64.2 68.1004 63.5C67.4004 63.8 66.8004 63.7 66.2004 63.4ZM58.8004 11.6C58.1004 11.2 58.3004 10.5 58.2004 9.9C57.7004 10.6 57.9004 11.6 58.5004 12C59.1004 12.4 60.3004 12.5 60.7004 11.7C60.0004 12 59.4004 11.9 58.8004 11.6ZM58.4004 62.8C57.7004 62.4 57.8004 61.7 57.8004 61.1C57.3004 61.8 57.4004 62.8 58.1004 63.2C58.7004 63.6 59.8004 63.7 60.3004 62.9C59.6004 63.2 59.0004 63.1 58.4004 62.8ZM51.8004 14.7C51.1004 14.3 51.3004 13.6 51.2004 13C50.7004 13.8 50.9004 14.7 51.5004 15.1C52.1004 15.5 53.3004 15.6 53.7004 14.8C53.0004 15.1 52.4004 15 51.8004 14.7ZM51.7004 59.7C51.0004 59.3 51.1004 58.6 51.1004 58C50.6004 58.7 50.7004 59.6 51.4004 60.1C52.0004 60.5 53.1004 60.5 53.6004 59.8C52.9004 60.1 52.3004 60 51.7004 59.7ZM46.3004 19.8C45.6004 19.4 45.8004 18.7 45.7004 18.1C45.2004 18.8 45.3004 19.7 46.0004 20.2C46.6004 20.6 47.8004 20.7 48.2004 19.9C47.5004 20.2 46.9004 20.1 46.3004 19.8ZM45.7004 54.2C45.0004 53.8 45.2004 53.1 45.1004 52.5C44.6004 53.2 44.7004 54.1 45.4004 54.6C46.0004 55 47.1004 55.1 47.6004 54.3C46.9004 54.6 46.3004 54.5 45.7004 54.2ZM41.7004 48.3C41.0004 47.9 41.2004 47.2 41.1004 46.6C40.6004 47.3 40.7004 48.2 41.4004 48.7C42.0004 49.1 43.1004 49.1 43.6004 48.4C42.9004 48.7 42.3004 48.6 41.7004 48.3ZM41.5004 25.8C40.8004 25.4 41.0004 24.7 40.9004 24.1C40.4004 24.9 40.6004 25.8 41.2004 26.2C41.8004 26.6 43.0004 26.7 43.4004 25.9C42.7004 26.2 42.1004 26.1 41.5004 25.8ZM39.8004 40.9C39.1004 40.5 39.3004 39.8 39.2004 39.2C38.7004 39.9 38.8004 40.8 39.5004 41.3C40.1004 41.7 41.2004 41.7 41.7004 41C41.0004 41.3 40.4004 41.2 39.8004 40.9ZM39.6004 33.3C38.9004 32.9 39.1004 32.2 39.0004 31.6C38.5004 32.3 38.6004 33.3 39.3004 33.7C39.9004 34.1 41.0004 34.2 41.5004 33.4C40.8004 33.7 40.2004 33.6 39.6004 33.3ZM85.9004 22.7C85.2004 22.3 85.4004 21.7 85.3004 21C84.8004 21.7 84.9004 22.6 85.6004 23.1C86.2004 23.5 87.4004 23.6 87.8004 22.8C87.1004 23.1 86.5004 23 85.9004 22.7ZM80.7004 17.1C80.0004 16.7 80.2004 16 80.1004 15.4C79.5004 16.2 79.7004 17.1 80.4004 17.5C81.0004 17.9 82.2004 18 82.6004 17.2C81.9004 17.5 81.3004 17.4 80.7004 17.1ZM74.0004 12.8C73.3004 12.4 73.5004 11.7 73.4004 11.1C72.9004 11.8 73.0004 12.8 73.7004 13.2C74.3004 13.6 75.5004 13.7 75.9004 12.9C75.2004 13.2 74.6004 13.1 74.0004 12.8ZM66.4004 10.7C65.7004 10.3 65.9004 9.6 65.8004 9C65.3004 9.8 65.4004 10.7 66.1004 11.1C66.7004 11.5 67.9004 11.6 68.3004 10.8C67.6004 11.1 67.0004 11 66.4004 10.7ZM58.8004 11.6C58.1004 11.2 58.3004 10.5 58.2004 9.9C57.7004 10.6 57.9004 11.6 58.5004 12C59.1004 12.4 60.3004 12.5 60.7004 11.7C60.0004 12 59.4004 11.9 58.8004 11.6ZM51.8004 14.7C51.1004 14.3 51.3004 13.6 51.2004 13C50.7004 13.8 50.9004 14.7 51.5004 15.1C52.1004 15.5 53.3004 15.6 53.7004 14.8C53.0004 15.1 52.4004 15 51.8004 14.7ZM46.3004 19.8C45.6004 19.4 45.8004 18.7 45.7004 18.1C45.2004 18.8 45.3004 19.7 46.0004 20.2C46.6004 20.6 47.8004 20.7 48.2004 19.9C47.5004 20.2 46.9004 20.1 46.3004 19.8ZM41.5004 25.8C40.8004 25.4 41.0004 24.7 40.9004 24.1C40.4004 24.9 40.6004 25.8 41.2004 26.2C41.8004 26.6 43.0004 26.7 43.4004 25.9C42.7004 26.2 42.1004 26.1 41.5004 25.8ZM39.6004 33.3C38.9004 32.9 39.1004 32.2 39.0004 31.6C38.5004 32.3 38.6004 33.3 39.3004 33.7C39.9004 34.1 41.0004 34.2 41.5004 33.4C40.8004 33.7 40.2004 33.6 39.6004 33.3ZM39.8004 40.9C39.1004 40.5 39.3004 39.8 39.2004 39.2C38.7004 39.9 38.8004 40.8 39.5004 41.3C40.1004 41.7 41.2004 41.7 41.7004 41C41.0004 41.3 40.4004 41.2 39.8004 40.9ZM41.7004 48.3C41.0004 47.9 41.2004 47.2 41.1004 46.6C40.6004 47.3 40.7004 48.2 41.4004 48.7C42.0004 49.1 43.1004 49.1 43.6004 48.4C42.9004 48.7 42.3004 48.6 41.7004 48.3ZM45.7004 54.2C45.0004 53.8 45.2004 53.1 45.1004 52.5C44.6004 53.2 44.7004 54.1 45.4004 54.6C46.0004 55 47.1004 55.1 47.6004 54.3C46.9004 54.6 46.3004 54.5 45.7004 54.2ZM51.7004 59.7C51.0004 59.3 51.1004 58.6 51.1004 58C50.6004 58.7 50.7004 59.6 51.4004 60.1C52.0004 60.5 53.1004 60.5 53.6004 59.8C52.9004 60.1 52.3004 60 51.7004 59.7ZM58.4004 62.8C57.7004 62.4 57.8004 61.7 57.8004 61.1C57.3004 61.8 57.4004 62.8 58.1004 63.2C58.7004 63.6 59.8004 63.7 60.3004 62.9C59.6004 63.2 59.0004 63.1 58.4004 62.8ZM66.2004 63.4C65.5004 63 65.7004 62.3 65.6004 61.7C65.1004 62.4 65.2004 63.3 65.9004 63.8C66.5004 64.2 67.6004 64.2 68.1004 63.5C67.4004 63.8 66.8004 63.7 66.2004 63.4ZM85.9004 22.7C85.2004 22.3 85.4004 21.7 85.3004 21C84.8004 21.7 84.9004 22.6 85.6004 23.1C86.2004 23.5 87.4004 23.6 87.8004 22.8C87.1004 23.1 86.5004 23 85.9004 22.7ZM80.7004 17.1C80.0004 16.7 80.2004 16 80.1004 15.4C79.5004 16.2 79.7004 17.1 80.4004 17.5C81.0004 17.9 82.2004 18 82.6004 17.2C81.9004 17.5 81.3004 17.4 80.7004 17.1ZM74.0004 12.8C73.3004 12.4 73.5004 11.7 73.4004 11.1C72.9004 11.8 73.0004 12.8 73.7004 13.2C74.3004 13.6 75.5004 13.7 75.9004 12.9C75.2004 13.2 74.6004 13.1 74.0004 12.8ZM66.4004 10.7C65.7004 10.3 65.9004 9.6 65.8004 9C65.3004 9.8 65.4004 10.7 66.1004 11.1C66.7004 11.5 67.9004 11.6 68.3004 10.8C67.6004 11.1 67.0004 11 66.4004 10.7ZM66.2004 63.4C65.5004 63 65.7004 62.3 65.6004 61.7C65.1004 62.4 65.2004 63.3 65.9004 63.8C66.5004 64.2 67.6004 64.2 68.1004 63.5C67.4004 63.8 66.8004 63.7 66.2004 63.4ZM58.8004 11.6C58.1004 11.2 58.3004 10.5 58.2004 9.9C57.7004 10.6 57.9004 11.6 58.5004 12C59.1004 12.4 60.3004 12.5 60.7004 11.7C60.0004 12 59.4004 11.9 58.8004 11.6ZM58.4004 62.8C57.7004 62.4 57.8004 61.7 57.8004 61.1C57.3004 61.8 57.4004 62.8 58.1004 63.2C58.7004 63.6 59.8004 63.7 60.3004 62.9C59.6004 63.2 59.0004 63.1 58.4004 62.8ZM51.8004 14.7C51.1004 14.3 51.3004 13.6 51.2004 13C50.7004 13.8 50.9004 14.7 51.5004 15.1C52.1004 15.5 53.3004 15.6 53.7004 14.8C53.0004 15.1 52.4004 15 51.8004 14.7ZM51.7004 59.7C51.0004 59.3 51.1004 58.6 51.1004 58C50.6004 58.7 50.7004 59.6 51.4004 60.1C52.0004 60.5 53.1004 60.5 53.6004 59.8C52.9004 60.1 52.3004 60 51.7004 59.7ZM46.3004 19.8C45.6004 19.4 45.8004 18.7 45.7004 18.1C45.2004 18.8 45.3004 19.7 46.0004 20.2C46.6004 20.6 47.8004 20.7 48.2004 19.9C47.5004 20.2 46.9004 20.1 46.3004 19.8ZM45.7004 54.2C45.0004 53.8 45.2004 53.1 45.1004 52.5C44.6004 53.2 44.7004 54.1 45.4004 54.6C46.0004 55 47.1004 55.1 47.6004 54.3C46.9004 54.6 46.3004 54.5 45.7004 54.2ZM41.7004 48.3C41.0004 47.9 41.2004 47.2 41.1004 46.6C40.6004 47.3 40.7004 48.2 41.4004 48.7C42.0004 49.1 43.1004 49.1 43.6004 48.4C42.9004 48.7 42.3004 48.6 41.7004 48.3ZM41.5004 25.8C40.8004 25.4 41.0004 24.7 40.9004 24.1C40.4004 24.9 40.6004 25.8 41.2004 26.2C41.8004 26.6 43.0004 26.7 43.4004 25.9C42.7004 26.2 42.1004 26.1 41.5004 25.8ZM39.8004 40.9C39.1004 40.5 39.3004 39.8 39.2004 39.2C38.7004 39.9 38.8004 40.8 39.5004 41.3C40.1004 41.7 41.2004 41.7 41.7004 41C41.0004 41.3 40.4004 41.2 39.8004 40.9ZM39.6004 33.3C38.9004 32.9 39.1004 32.2 39.0004 31.6C38.5004 32.3 38.6004 33.3 39.3004 33.7C39.9004 34.1 41.0004 34.2 41.5004 33.4C40.8004 33.7 40.2004 33.6 39.6004 33.3ZM85.9004 22.7C85.2004 22.3 85.4004 21.7 85.3004 21C84.8004 21.7 84.9004 22.6 85.6004 23.1C86.2004 23.5 87.4004 23.6 87.8004 22.8C87.1004 23.1 86.5004 23 85.9004 22.7ZM80.7004 17.1C80.0004 16.7 80.2004 16 80.1004 15.4C79.5004 16.2 79.7004 17.1 80.4004 17.5C81.0004 17.9 82.2004 18 82.6004 17.2C81.9004 17.5 81.3004 17.4 80.7004 17.1ZM74.0004 12.8C73.3004 12.4 73.5004 11.7 73.4004 11.1C72.9004 11.8 73.0004 12.8 73.7004 13.2C74.3004 13.6 75.5004 13.7 75.9004 12.9C75.2004 13.2 74.6004 13.1 74.0004 12.8ZM66.4004 10.7C65.7004 10.3 65.9004 9.6 65.8004 9C65.3004 9.8 65.4004 10.7 66.1004 11.1C66.7004 11.5 67.9004 11.6 68.3004 10.8C67.6004 11.1 67.0004 11 66.4004 10.7ZM58.8004 11.6C58.1004 11.2 58.3004 10.5 58.2004 9.9C57.7004 10.6 57.9004 11.6 58.5004 12C59.1004 12.4 60.3004 12.5 60.7004 11.7C60.0004 12 59.4004 11.9 58.8004 11.6ZM51.8004 14.7C51.1004 14.3 51.3004 13.6 51.2004 13C50.7004 13.8 50.9004 14.7 51.5004 15.1C52.1004 15.5 53.3004 15.6 53.7004 14.8C53.0004 15.1 52.4004 15 51.8004 14.7ZM46.3004 19.8C45.6004 19.4 45.8004 18.7 45.7004 18.1C45.2004 18.8 45.3004 19.7 46.0004 20.2C46.6004 20.6 47.8004 20.7 48.2004 19.9C47.5004 20.2 46.9004 20.1 46.3004 19.8ZM41.5004 25.8C40.8004 25.4 41.0004 24.7 40.9004 24.1C40.4004 24.9 40.6004 25.8 41.2004 26.2C41.8004 26.6 43.0004 26.7 43.4004 25.9C42.7004 26.2 42.1004 26.1 41.5004 25.8ZM39.6004 33.3C38.9004 32.9 39.1004 32.2 39.0004 31.6C38.5004 32.3 38.6004 33.3 39.3004 33.7C39.9004 34.1 41.0004 34.2 41.5004 33.4C40.8004 33.7 40.2004 33.6 39.6004 33.3ZM39.8004 40.9C39.1004 40.5 39.3004 39.8 39.2004 39.2C38.7004 39.9 38.8004 40.8 39.5004 41.3C40.1004 41.7 41.2004 41.7 41.7004 41C41.0004 41.3 40.4004 41.2 39.8004 40.9ZM41.7004 48.3C41.0004 47.9 41.2004 47.2 41.1004 46.6C40.6004 47.3 40.7004 48.2 41.4004 48.7C42.0004 49.1 43.1004 49.1 43.6004 48.4C42.9004 48.7 42.3004 48.6 41.7004 48.3ZM45.7004 54.2C45.0004 53.8 45.2004 53.1 45.1004 52.5C44.6004 53.2 44.7004 54.1 45.4004 54.6C46.0004 55 47.1004 55.1 47.6004 54.3C46.9004 54.6 46.3004 54.5 45.7004 54.2ZM51.7004 59.7C51.0004 59.3 51.1004 58.6 51.1004 58C50.6004 58.7 50.7004 59.6 51.4004 60.1C52.0004 60.5 53.1004 60.5 53.6004 59.8C52.9004 60.1 52.3004 60 51.7004 59.7ZM85.9004 22.7C85.2004 22.3 85.4004 21.7 85.3004 21C84.8004 21.7 84.9004 22.6 85.6004 23.1C86.2004 23.5 87.4004 23.6 87.8004 22.8C87.1004 23.1 86.5004 23 85.9004 22.7ZM80.7004 17.1C80.0004 16.7 80.2004 16 80.1004 15.4C79.5004 16.2 79.7004 17.1 80.4004 17.5C81.0004 17.9 82.2004 18 82.6004 17.2C81.9004 17.5 81.3004 17.4 80.7004 17.1ZM74.0004 12.8C73.3004 12.4 73.5004 11.7 73.4004 11.1C72.9004 11.8 73.0004 12.8 73.7004 13.2C74.3004 13.6 75.5004 13.7 75.9004 12.9C75.2004 13.2 74.6004 13.1 74.0004 12.8ZM66.4004 10.7C65.7004 10.3 65.9004 9.6 65.8004 9C65.3004 9.8 65.4004 10.7 66.1004 11.1C66.7004 11.5 67.9004 11.6 68.3004 10.8C67.6004 11.1 67.0004 11 66.4004 10.7ZM58.8004 11.6C58.1004 11.2 58.3004 10.5 58.2004 9.9C57.7004 10.6 57.9004 11.6 58.5004 12C59.1004 12.4 60.3004 12.5 60.7004 11.7C60.0004 12 59.4004 11.9 58.8004 11.6ZM51.8004 14.7C51.1004 14.3 51.3004 13.6 51.2004 13C50.7004 13.8 50.9004 14.7 51.5004 15.1C52.1004 15.5 53.3004 15.6 53.7004 14.8C53.0004 15.1 52.4004 15 51.8004 14.7ZM51.7004 59.7C51.0004 59.3 51.1004 58.6 51.1004 58C50.6004 58.7 50.7004 59.6 51.4004 60.1C52.0004 60.5 53.1004 60.5 53.6004 59.8C52.9004 60.1 52.3004 60 51.7004 59.7ZM46.3004 19.8C45.6004 19.4 45.8004 18.7 45.7004 18.1C45.2004 18.8 45.3004 19.7 46.0004 20.2C46.6004 20.6 47.8004 20.7 48.2004 19.9C47.5004 20.2 46.9004 20.1 46.3004 19.8ZM45.7004 54.2C45.0004 53.8 45.2004 53.1 45.1004 52.5C44.6004 53.2 44.7004 54.1 45.4004 54.6C46.0004 55 47.1004 55.1 47.6004 54.3C46.9004 54.6 46.3004 54.5 45.7004 54.2ZM41.7004 48.3C41.0004 47.9 41.2004 47.2 41.1004 46.6C40.6004 47.3 40.7004 48.2 41.4004 48.7C42.0004 49.1 43.1004 49.1 43.6004 48.4C42.9004 48.7 42.3004 48.6 41.7004 48.3ZM41.5004 25.8C40.8004 25.4 41.0004 24.7 40.9004 24.1C40.4004 24.9 40.6004 25.8 41.2004 26.2C41.8004 26.6 43.0004 26.7 43.4004 25.9C42.7004 26.2 42.1004 26.1 41.5004 25.8ZM39.8004 40.9C39.1004 40.5 39.3004 39.8 39.2004 39.2C38.7004 39.9 38.8004 40.8 39.5004 41.3C40.1004 41.7 41.2004 41.7 41.7004 41C41.0004 41.3 40.4004 41.2 39.8004 40.9ZM39.6004 33.3C38.9004 32.9 39.1004 32.2 39.0004 31.6C38.5004 32.3 38.6004 33.3 39.3004 33.7C39.9004 34.1 41.0004 34.2 41.5004 33.4C40.8004 33.7 40.2004 33.6 39.6004 33.3ZM85.9004 22.7C85.2004 22.3 85.4004 21.7 85.3004 21C84.8004 21.7 84.9004 22.6 85.6004 23.1C86.2004 23.5 87.4004 23.6 87.8004 22.8C87.1004 23.1 86.5004 23 85.9004 22.7ZM80.7004 17.1C80.0004 16.7 80.2004 16 80.1004 15.4C79.5004 16.2 79.7004 17.1 80.4004 17.5C81.0004 17.9 82.2004 18 82.6004 17.2C81.9004 17.5 81.3004 17.4 80.7004 17.1ZM74.0004 12.8C73.3004 12.4 73.5004 11.7 73.4004 11.1C72.9004 11.8 73.0004 12.8 73.7004 13.2C74.3004 13.6 75.5004 13.7 75.9004 12.9C75.2004 13.2 74.6004 13.1 74.0004 12.8ZM66.4004 10.7C65.7004 10.3 65.9004 9.6 65.8004 9C65.3004 9.8 65.4004 10.7 66.1004 11.1C66.7004 11.5 67.9004 11.6 68.3004 10.8C67.6004 11.1 67.0004 11 66.4004 10.7ZM58.8004 11.6C58.1004 11.2 58.3004 10.5 58.2004 9.9C57.7004 10.6 57.9004 11.6 58.5004 12C59.1004 12.4 60.3004 12.5 60.7004 11.7C60.0004 12 59.4004 11.9 58.8004 11.6ZM51.8004 14.7C51.1004 14.3 51.3004 13.6 51.2004 13C50.7004 13.8 50.9004 14.7 51.5004 15.1C52.1004 15.5 53.3004 15.6 53.7004 14.8C53.0004 15.1 52.4004 15 51.8004 14.7ZM46.3004 19.8C45.6004 19.4 45.8004 18.7 45.7004 18.1C45.2004 18.8 45.3004 19.7 46.0004 20.2C46.6004 20.6 47.8004 20.7 48.2004 19.9C47.5004 20.2 46.9004 20.1 46.3004 19.8ZM41.5004 25.8C40.8004 25.4 41.0004 24.7 40.9004 24.1C40.4004 24.9 40.6004 25.8 41.2004 26.2C41.8004 26.6 43.0004 26.7 43.4004 25.9C42.7004 26.2 42.1004 26.1 41.5004 25.8ZM39.6004 33.3C38.9004 32.9 39.1004 32.2 39.0004 31.6C38.5004 32.3 38.6004 33.3 39.3004 33.7C39.9004 34.1 41.0004 34.2 41.5004 33.4C40.8004 33.7 40.2004 33.6 39.6004 33.3ZM39.8004 40.9C39.1004 40.5 39.3004 39.8 39.2004 39.2C38.7004 39.9 38.8004 40.8 39.5004 41.3C40.1004 41.7 41.2004 41.7 41.7004 41C41.0004 41.3 40.4004 41.2 39.8004 40.9ZM41.7004 48.3C41.0004 47.9 41.2004 47.2 41.1004 46.6C40.6004 47.3 40.7004 48.2 41.4004 48.7C42.0004 49.1 43.1004 49.1 43.6004 48.4C42.9004 48.7 42.3004 48.6 41.7004 48.3ZM85.9004 22.7C85.2004 22.3 85.4004 21.7 85.3004 21C84.8004 21.7 84.9004 22.6 85.6004 23.1C86.2004 23.5 87.4004 23.6 87.8004 22.8C87.1004 23.1 86.5004 23 85.9004 22.7ZM80.7004 17.1C80.0004 16.7 80.2004 16 80.1004 15.4C79.5004 16.2 79.7004 17.1 80.4004 17.5C81.0004 17.9 82.2004 18 82.6004 17.2C81.9004 17.5 81.3004 17.4 80.7004 17.1ZM74.0004 12.8C73.3004 12.4 73.5004 11.7 73.4004 11.1C72.9004 11.8 73.0004 12.8 73.7004 13.2C74.3004 13.6 75.5004 13.7 75.9004 12.9C75.2004 13.2 74.6004 13.1 74.0004 12.8ZM66.4004 10.7C65.7004 10.3 65.9004 9.6 65.8004 9C65.3004 9.8 65.4004 10.7 66.1004 11.1C66.7004 11.5 67.9004 11.6 68.3004 10.8C67.6004 11.1 67.0004 11 66.4004 10.7ZM58.8004 11.6C58.1004 11.2 58.3004 10.5 58.2004 9.9C57.7004 10.6 57.9004 11.6 58.5004 12C59.1004 12.4 60.3004 12.5 60.7004 11.7C60.0004 12 59.4004 11.9 58.8004 11.6ZM51.8004 14.7C51.1004 14.3 51.3004 13.6 51.2004 13C50.7004 13.8 50.9004 14.7 51.5004 15.1C52.1004 15.5 53.3004 15.6 53.7004 14.8C53.0004 15.1 52.4004 15 51.8004 14.7ZM46.3004 19.8C45.6004 19.4 45.8004 18.7 45.7004 18.1C45.2004 18.8 45.3004 19.7 46.0004 20.2C46.6004 20.6 47.8004 20.7 48.2004 19.9C47.5004 20.2 46.9004 20.1 46.3004 19.8ZM41.7004 48.3C41.0004 47.9 41.2004 47.2 41.1004 46.6C40.6004 47.3 40.7004 48.2 41.4004 48.7C42.0004 49.1 43.1004 49.1 43.6004 48.4C42.9004 48.7 42.3004 48.6 41.7004 48.3ZM41.5004 25.8C40.8004 25.4 41.0004 24.7 40.9004 24.1C40.4004 24.9 40.6004 25.8 41.2004 26.2C41.8004 26.6 43.0004 26.7 43.4004 25.9C42.7004 26.2 42.1004 26.1 41.5004 25.8ZM39.8004 40.9C39.1004 40.5 39.3004 39.8 39.2004 39.2C38.7004 39.9 38.8004 40.8 39.5004 41.3C40.1004 41.7 41.2004 41.7 41.7004 41C41.0004 41.3 40.4004 41.2 39.8004 40.9ZM39.6004 33.3C38.9004 32.9 39.1004 32.2 39.0004 31.6C38.5004 32.3 38.6004 33.3 39.3004 33.7C39.9004 34.1 41.0004 34.2 41.5004 33.4C40.8004 33.7 40.2004 33.6 39.6004 33.3ZM85.9004 22.7C85.2004 22.3 85.4004 21.7 85.3004 21C84.8004 21.7 84.9004 22.6 85.6004 23.1C86.2004 23.5 87.4004 23.6 87.8004 22.8C87.1004 23.1 86.5004 23 85.9004 22.7ZM80.7004 17.1C80.0004 16.7 80.2004 16 80.1004 15.4C79.5004 16.2 79.7004 17.1 80.4004 17.5C81.0004 17.9 82.2004 18 82.6004 17.2C81.9004 17.5 81.3004 17.4 80.7004 17.1ZM74.0004 12.8C73.3004 12.4 73.5004 11.7 73.4004 11.1C72.9004 11.8 73.0004 12.8 73.7004 13.2C74.3004 13.6 75.5004 13.7 75.9004 12.9C75.2004 13.2 74.6004 13.1 74.0004 12.8ZM66.4004 10.7C65.7004 10.3 65.9004 9.6 65.8004 9C65.3004 9.8 65.4004 10.7 66.1004 11.1C66.7004 11.5 67.9004 11.6 68.3004 10.8C67.6004 11.1 67.0004 11 66.4004 10.7ZM58.8004 11.6C58.1004 11.2 58.3004 10.5 58.2004 9.9C57.7004 10.6 57.9004 11.6 58.5004 12C59.1004 12.4 60.3004 12.5 60.7004 11.7C60.0004 12 59.4004 11.9 58.8004 11.6ZM51.8004 14.7C51.1004 14.3 51.3004 13.6 51.2004 13C50.7004 13.8 50.9004 14.7 51.5004 15.1C52.1004 15.5 53.3004 15.6 53.7004 14.8C53.0004 15.1 52.4004 15 51.8004 14.7ZM46.3004 19.8C45.6004 19.4 45.8004 18.7 45.7004 18.1C45.2004 18.8 45.3004 19.7 46.0004 20.2C46.6004 20.6 47.8004 20.7 48.2004 19.9C47.5004 20.2 46.9004 20.1 46.3004 19.8ZM41.5004 25.8C40.8004 25.4 41.0004 24.7 40.9004 24.1C40.4004 24.9 40.6004 25.8 41.2004 26.2C41.8004 26.6 43.0004 26.7 43.4004 25.9C42.7004 26.2 42.1004 26.1 41.5004 25.8ZM39.6004 33.3C38.9004 32.9 39.1004 32.2 39.0004 31.6C38.5004 32.3 38.6004 33.3 39.3004 33.7C39.9004 34.1 41.0004 34.2 41.5004 33.4C40.8004 33.7 40.2004 33.6 39.6004 33.3ZM85.9004 22.7C85.2004 22.3 85.4004 21.7 85.3004 21C84.8004 21.7 84.9004 22.6 85.6004 23.1C86.2004 23.5 87.4004 23.6 87.8004 22.8C87.1004 23.1 86.5004 23 85.9004 22.7ZM80.7004 17.1C80.0004 16.7 80.2004 16 80.1004 15.4C79.5004 16.2 79.7004 17.1 80.4004 17.5C81.0004 17.9 82.2004 18 82.6004 17.2C81.9004 17.5 81.3004 17.4 80.7004 17.1ZM74.0004 12.8C73.3004 12.4 73.5004 11.7 73.4004 11.1C72.9004 11.8 73.0004 12.8 73.7004 13.2C74.3004 13.6 75.5004 13.7 75.9004 12.9C75.2004 13.2 74.6004 13.1 74.0004 12.8ZM66.4004 10.7C65.7004 10.3 65.9004 9.6 65.8004 9C65.3004 9.8 65.4004 10.7 66.1004 11.1C66.7004 11.5 67.9004 11.6 68.3004 10.8C67.6004 11.1 67.0004 11 66.4004 10.7ZM58.8004 11.6C58.1004 11.2 58.3004 10.5 58.2004 9.9C57.7004 10.6 57.9004 11.6 58.5004 12C59.1004 12.4 60.3004 12.5 60.7004 11.7C60.0004 12 59.4004 11.9 58.8004 11.6ZM51.8004 14.7C51.1004 14.3 51.3004 13.6 51.2004 13C50.7004 13.8 50.9004 14.7 51.5004 15.1C52.1004 15.5 53.3004 15.6 53.7004 14.8C53.0004 15.1 52.4004 15 51.8004 14.7ZM46.3004 19.8C45.6004 19.4 45.8004 18.7 45.7004 18.1C45.2004 18.8 45.3004 19.7 46.0004 20.2C46.6004 20.6 47.8004 20.7 48.2004 19.9C47.5004 20.2 46.9004 20.1 46.3004 19.8ZM41.5004 25.8C40.8004 25.4 41.0004 24.7 40.9004 24.1C40.4004 24.9 40.6004 25.8 41.2004 26.2C41.8004 26.6 43.0004 26.7 43.4004 25.9C42.7004 26.2 42.1004 26.1 41.5004 25.8ZM39.6004 33.3C38.9004 32.9 39.1004 32.2 39.0004 31.6C38.5004 32.3 38.6004 33.3 39.3004 33.7C39.9004 34.1 41.0004 34.2 41.5004 33.4C40.8004 33.7 40.2004 33.6 39.6004 33.3ZM85.9004 22.7C85.2004 22.3 85.4004 21.7 85.3004 21C84.8004 21.7 84.9004 22.6 85.6004 23.1C86.2004 23.5 87.4004 23.6 87.8004 22.8C87.1004 23.1 86.5004 23 85.9004 22.7ZM80.7004 17.1C80.0004 16.7 80.2004 16 80.1004 15.4C79.5004 16.2 79.7004 17.1 80.4004 17.5C81.0004 17.9 82.2004 18 82.6004 17.2C81.9004 17.5 81.3004 17.4 80.7004 17.1ZM74.0004 12.8C73.3004 12.4 73.5004 11.7 73.4004 11.1C72.9004 11.8 73.0004 12.8 73.7004 13.2C74.3004 13.6 75.5004 13.7 75.9004 12.9C75.2004 13.2 74.6004 13.1 74.0004 12.8ZM66.4004 10.7C65.7004 10.3 65.9004 9.6 65.8004 9C65.3004 9.8 65.4004 10.7 66.1004 11.1C66.7004 11.5 67.9004 11.6 68.3004 10.8C67.6004 11.1 67.0004 11 66.4004 10.7ZM58.8004 11.6C58.1004 11.2 58.3004 10.5 58.2004 9.9C57.7004 10.6 57.9004 11.6 58.5004 12C59.1004 12.4 60.3004 12.5 60.7004 11.7C60.0004 12 59.4004 11.9 58.8004 11.6ZM51.8004 14.7C51.1004 14.3 51.3004 13.6 51.2004 13C50.7004 13.8 50.9004 14.7 51.5004 15.1C52.1004 15.5 53.3004 15.6 53.7004 14.8C53.0004 15.1 52.4004 15 51.8004 14.7ZM46.3004 19.8C45.6004 19.4 45.8004 18.7 45.7004 18.1C45.2004 18.8 45.3004 19.7 46.0004 20.2C46.6004 20.6 47.8004 20.7 48.2004 19.9C47.5004 20.2 46.9004 20.1 46.3004 19.8ZM85.9004 22.7C85.2004 22.3 85.4004 21.7 85.3004 21C84.8004 21.7 84.9004 22.6 85.6004 23.1C86.2004 23.5 87.4004 23.6 87.8004 22.8C87.1004 23.1 86.5004 23 85.9004 22.7ZM80.7004 17.1C80.0004 16.7 80.2004 16 80.1004 15.4C79.5004 16.2 79.7004 17.1 80.4004 17.5C81.0004 17.9 82.2004 18 82.6004 17.2C81.9004 17.5 81.3004 17.4 80.7004 17.1ZM74.0004 12.8C73.3004 12.4 73.5004 11.7 73.4004 11.1C72.9004 11.8 73.0004 12.8 73.7004 13.2C74.3004 13.6 75.5004 13.7 75.9004 12.9C75.2004 13.2 74.6004 13.1 74.0004 12.8ZM66.4004 10.7C65.7004 10.3 65.9004 9.6 65.8004 9C65.3004 9.8 65.4004 10.7 66.1004 11.1C66.7004 11.5 67.9004 11.6 68.3004 10.8C67.6004 11.1 67.0004 11 66.4004 10.7ZM58.8004 11.6C58.1004 11.2 58.3004 10.5 58.2004 9.9C57.7004 10.6 57.9004 11.6 58.5004 12C59.1004 12.4 60.3004 12.5 60.7004 11.7C60.0004 12 59.4004 11.9 58.8004 11.6ZM51.8004 14.7C51.1004 14.3 51.3004 13.6 51.2004 13C50.7004 13.8 50.9004 14.7 51.5004 15.1C52.1004 15.5 53.3004 15.6 53.7004 14.8C53.0004 15.1 52.4004 15 51.8004 14.7ZM46.3004 19.8C45.6004 19.4 45.8004 18.7 45.7004 18.1C45.2004 18.8 45.3004 19.7 46.0004 20.2C46.6004 20.6 47.8004 20.7 48.2004 19.9C47.5004 20.2 46.9004 20.1 46.3004 19.8ZM80.7004 17.1C80.0004 16.7 80.2004 16 80.1004 15.4C79.5004 16.2 79.7004 17.1 80.4004 17.5C81.0004 17.9 82.2004 18 82.6004 17.2C81.9004 17.5 81.3004 17.4 80.7004 17.1ZM74.0004 12.8C73.3004 12.4 73.5004 11.7 73.4004 11.1C72.9004 11.8 73.0004 12.8 73.7004 13.2C74.3004 13.6 75.5004 13.7 75.9004 12.9C75.2004 13.2 74.6004 13.1 74.0004 12.8ZM66.4004 10.7C65.7004 10.3 65.9004 9.6 65.8004 9C65.3004 9.8 65.4004 10.7 66.1004 11.1C66.7004 11.5 67.9004 11.6 68.3004 10.8C67.6004 11.1 67.0004 11 66.4004 10.7ZM58.8004 11.6C58.1004 11.2 58.3004 10.5 58.2004 9.9C57.7004 10.6 57.9004 11.6 58.5004 12C59.1004 12.4 60.3004 12.5 60.7004 11.7C60.0004 12 59.4004 11.9 58.8004 11.6ZM51.8004 14.7C51.1004 14.3 51.3004 13.6 51.2004 13C50.7004 13.8 50.9004 14.7 51.5004 15.1C52.1004 15.5 53.3004 15.6 53.7004 14.8C53.0004 15.1 52.4004 15 51.8004 14.7ZM80.7004 17.1C80.0004 16.7 80.2004 16 80.1004 15.4C79.5004 16.2 79.7004 17.1 80.4004 17.5C81.0004 17.9 82.2004 18 82.6004 17.2C81.9004 17.5 81.3004 17.4 80.7004 17.1ZM74.0004 12.8C73.3004 12.4 73.5004 11.7 73.4004 11.1C72.9004 11.8 73.0004 12.8 73.7004 13.2C74.3004 13.6 75.5004 13.7 75.9004 12.9C75.2004 13.2 74.6004 13.1 74.0004 12.8ZM66.4004 10.7C65.7004 10.3 65.9004 9.6 65.8004 9C65.3004 9.8 65.4004 10.7 66.1004 11.1C66.7004 11.5 67.9004 11.6 68.3004 10.8C67.6004 11.1 67.0004 11 66.4004 10.7ZM58.8004 11.6C58.1004 11.2 58.3004 10.5 58.2004 9.9C57.7004 10.6 57.9004 11.6 58.5004 12C59.1004 12.4 60.3004 12.5 60.7004 11.7C60.0004 12 59.4004 11.9 58.8004 11.6ZM51.8004 14.7C51.1004 14.3 51.3004 13.6 51.2004 13C50.7004 13.8 50.9004 14.7 51.5004 15.1C52.1004 15.5 53.3004 15.6 53.7004 14.8C53.0004 15.1 52.4004 15 51.8004 14.7ZM66.4004 10.7C65.7004 10.3 65.9004 9.6 65.8004 9C65.3004 9.8 65.4004 10.7 66.1004 11.1C66.7004 11.5 67.9004 11.6 68.3004 10.8C67.6004 11.1 67.0004 11 66.4004 10.7ZM58.8004 11.6C58.1004 11.2 58.3004 10.5 58.2004 9.9C57.7004 10.6 57.9004 11.6 58.5004 12C59.1004 12.4 60.3004 12.5 60.7004 11.7C60.0004 12 59.4004 11.9 58.8004 11.6ZM51.8004 14.7C51.1004 14.3 51.3004 13.6 51.2004 13C50.7004 13.8 50.9004 14.7 51.5004 15.1C52.1004 15.5 53.3004 15.6 53.7004 14.8C53.0004 15.1 52.4004 15 51.8004 14.7ZM66.4004 10.7C65.7004 10.3 65.9004 9.6 65.8004 9C65.3004 9.8 65.4004 10.7 66.1004 11.1C66.7004 11.5 67.9004 11.6 68.3004 10.8C67.6004 11.1 67.0004 11 66.4004 10.7ZM58.8004 11.6C58.1004 11.2 58.3004 10.5 58.2004 9.9C57.7004 10.6 57.9004 11.6 58.5004 12C59.1004 12.4 60.3004 12.5 60.7004 11.7C60.0004 12 59.4004 11.9 58.8004 11.6ZM51.8004 14.7C51.1004 14.3 51.3004 13.6 51.2004 13C50.7004 13.8 50.9004 14.7 51.5004 15.1C52.1004 15.5 53.3004 15.6 53.7004 14.8C53.0004 15.1 52.4004 15 51.8004 14.7ZM51.8004 14.7C51.1004 14.3 51.3004 13.6 51.2004 13C50.7004 13.8 50.9004 14.7 51.5004 15.1C52.1004 15.5 53.3004 15.6 53.7004 14.8C53.0004 15.1 52.4004 15 51.8004 14.7ZM51.8004 14.7C51.1004 14.3 51.3004 13.6 51.2004 13C50.7004 13.8 50.9004 14.7 51.5004 15.1C52.1004 15.5 53.3004 15.6 53.7004 14.8C53.0004 15.1 52.4004 15 51.8004 14.7Z" fill="#404041"/>
</svg>
