<svg width="131" height="72" viewBox="0 0 131 72" fill="none" xmlns="http://www.w3.org/2000/svg">
<path d="M66.1 16.3988L69.5 12.9988C69.7 12.8988 69.8 12.7988 70.1 12.7988C70.3 12.7988 70.5 12.8988 70.6 12.9988C70.7 13.0988 70.8 13.2988 70.8 13.4988C70.8 13.6988 70.7 13.8988 70.6 13.9988L67.2 17.4988C66.9 17.7988 66.4 17.7988 66.1 17.4988C65.8 17.1988 65.8 16.6988 66.1 16.3988Z" fill="#404041"/>
<path d="M54.8008 7.49922C54.8008 7.09922 55.1008 6.69922 55.6008 6.69922C56.0008 6.69922 56.4008 6.99922 56.4008 7.49922V12.2992C56.4008 12.6992 56.1008 13.0992 55.6008 13.0992C55.2008 13.0992 54.8008 12.7992 54.8008 12.2992V7.49922Z" fill="#404041"/>
<path d="M40.3996 12.9988C40.4996 12.8988 40.6996 12.7988 40.8996 12.7988C41.0996 12.7988 41.2996 12.8988 41.3996 12.9988L44.8996 16.3988C44.9996 16.4988 45.0996 16.6988 45.0996 16.8988C45.0996 17.0988 44.9996 17.2988 44.8996 17.3988C44.5996 17.6988 44.0996 17.6988 43.7996 17.3988L40.2996 13.9988C40.1996 13.8988 40.0996 13.6988 40.0996 13.4988C40.1996 13.3988 40.2996 13.1988 40.3996 12.9988Z" fill="#404041"/>
<path d="M75.4004 31.5988C71.9004 31.5988 68.5004 32.6988 65.6004 34.6988L65.4004 34.7988L65.2004 34.6988C63.2004 33.2988 60.9004 32.2988 58.5004 31.8988L57.8004 31.7988L65.2004 26.9988C65.5004 26.7988 65.6004 26.3988 65.5004 26.0988L63.5004 20.7988C63.4004 20.4988 63.1004 20.2988 62.8004 20.2988H48.2004C47.9004 20.2988 47.6004 20.4988 47.5004 20.7988L45.5004 26.0988C45.4004 26.3988 45.5004 26.7988 45.8004 26.9988L53.2004 31.7988L52.5004 31.8988C44.3004 33.3988 38.4004 40.2988 38.4004 48.4988C38.4004 57.6988 46.1004 65.2988 55.5004 65.2988C59.0004 65.2988 62.4004 64.1988 65.3004 62.1988L65.5004 62.0988L65.7004 62.1988C68.6004 64.1988 72.0004 65.2988 75.5004 65.2988C84.9004 65.2988 92.6004 57.6988 92.5004 48.3988C92.5004 39.0988 84.8004 31.5988 75.4004 31.5988ZM62.3004 21.6988L63.4004 24.5988L58.4004 21.6988H62.3004ZM62.0004 25.5988H49.1004L55.6004 21.8988L62.0004 25.5988ZM48.8004 21.6988H52.7004L47.7004 24.5988L48.8004 21.6988ZM48.8004 27.0988H62.3004L55.5004 31.3988L48.8004 27.0988ZM63.9004 61.3988C61.4004 62.9988 58.5004 63.7988 55.5004 63.7988C46.9004 63.7988 39.9004 56.8988 39.9004 48.4988C39.9004 40.0988 46.9004 33.1988 55.5004 33.1988C64.1004 33.1988 71.1004 39.9988 71.1004 48.4988C71.1004 51.1988 70.3004 53.8988 68.9004 56.2988L68.7004 56.5988L68.4004 56.3988C67.6004 55.6988 67.0004 54.8988 66.4004 54.0988L66.3004 53.9988L66.4004 53.7988C67.3004 52.1988 67.7004 50.2988 67.7004 48.4988C67.7004 41.8988 62.2004 36.4988 55.5004 36.4988C48.8004 36.4988 43.3004 41.8988 43.3004 48.4988C43.3004 55.0988 48.8004 60.4988 55.5004 60.4988C57.7004 60.4988 59.8004 59.8988 61.7004 58.7988L61.9004 58.6988L62.1004 58.8988C62.7004 59.5988 63.3004 60.2988 64.0004 60.8988L64.2004 61.1988L63.9004 61.3988ZM70.0004 39.4988L70.3004 39.3988C71.9004 38.4988 73.7004 37.9988 75.6004 37.9988C81.5004 37.9988 86.3004 42.6988 86.3004 48.4988C86.3004 54.2988 81.5004 58.9988 75.6004 58.9988C73.7004 58.9988 71.9004 58.4988 70.3004 57.5988L70.0004 57.3988L70.1004 57.1988C71.8004 54.5988 72.6004 51.4988 72.7004 48.4988C72.7004 45.3988 71.8004 42.3988 70.2004 39.7988L70.0004 39.4988ZM66.2004 48.4988C66.2004 49.3988 66.1004 50.3988 65.8004 51.2988L65.5004 52.2988L65.2004 51.2988C64.9004 50.3988 64.8004 49.4988 64.8004 48.4988C64.8004 47.4988 65.0004 46.5988 65.2004 45.5988L65.5004 44.6988L65.8004 45.6988C66.1004 46.5988 66.2004 47.4988 66.2004 48.4988ZM61.0004 39.4988L60.9004 39.6988C59.3004 42.2988 58.4004 45.2988 58.4004 48.3988C58.4004 51.3988 59.3004 54.4988 60.9004 57.0988L61.1004 57.3988L60.8004 57.5988C59.2004 58.4988 57.4004 58.9988 55.5004 58.9988C49.6004 58.9988 44.8004 54.2988 44.8004 48.4988C44.8004 42.6988 49.6004 37.8988 55.4004 37.9988C57.3004 37.9988 59.1004 38.4988 60.7004 39.3988L61.0004 39.4988ZM75.6004 63.6988C67.0004 63.6988 60.0004 56.7988 60.0004 48.3988C60.0004 45.6988 60.8004 42.9988 62.2004 40.5988L62.4004 40.2988L62.7004 40.4988C63.5004 41.1988 64.1004 41.9988 64.7004 42.7988L64.8004 42.8988L64.7004 43.0988C63.8004 44.6988 63.4004 46.5988 63.4004 48.3988C63.4004 54.9988 68.9004 60.3988 75.6004 60.3988C82.3004 60.3988 87.8004 54.9988 87.8004 48.3988C87.8004 41.7988 82.3004 36.3988 75.6004 36.3988C73.4004 36.3988 71.3004 36.9988 69.4004 38.0988L69.2004 38.1988L69.0004 37.9988C68.4004 37.2988 67.8004 36.5988 67.1004 35.9988L66.8004 35.6988L67.1004 35.4988C69.6004 33.8988 72.5004 33.0988 75.5004 33.0988C84.1004 33.0988 91.1004 39.9988 91.2004 48.3988C91.2004 56.7988 84.2004 63.6988 75.6004 63.6988Z" fill="#404041"/>
</svg>
