<svg width="131" height="72" viewBox="0 0 131 72" fill="none" xmlns="http://www.w3.org/2000/svg">
<path d="M63.0997 30.0164C58.2997 29.8136 53.4997 29.3066 48.6997 28.2925C47.8997 28.0897 47.2997 27.2784 47.4997 26.4671C47.6997 25.6559 48.4997 25.0474 49.2997 25.2502C53.8997 26.1629 58.5997 26.7714 63.0997 26.9742C63.8997 26.9742 64.5997 27.6841 64.5997 28.5967C64.5997 29.3066 63.8997 30.0164 63.0997 30.0164Z" fill="#404041"/>
<path d="M68.1992 30.0166C67.3992 30.0166 66.6992 29.3067 66.6992 28.4955C66.6992 27.6842 67.2992 26.9743 68.1992 26.8729C72.5992 26.7715 76.9992 26.1631 81.2992 25.3518C82.0992 25.149 82.8992 25.7574 83.0992 26.5687C83.2992 27.38 82.6992 28.1912 81.8992 28.3941C77.4992 29.3067 72.8992 29.8138 68.1992 30.0166C68.2992 30.0166 68.2992 30.0166 68.1992 30.0166Z" fill="#404041"/>
<path d="M99.1996 25.1495C97.4996 25.1495 95.9996 24.1354 95.3996 22.6143C95.1996 22.1072 95.0996 21.6002 95.0996 20.9917C95.0996 18.6593 96.8996 16.834 99.1996 16.834C100.7 16.834 102.1 17.7467 102.9 19.065C103.2 19.6734 103.4 20.2819 103.4 20.9917C103.3 23.3241 101.5 25.1495 99.1996 25.1495ZM99.1996 19.8762C98.5996 19.8762 98.0996 20.3833 98.0996 20.9917C98.0996 21.0931 98.0996 21.296 98.1996 21.3974C98.3996 21.803 98.6996 22.0058 99.1996 22.0058C99.7996 22.0058 100.3 21.4988 100.3 20.8903C100.3 20.6875 100.3 20.5861 100.2 20.3833C99.9996 20.1805 99.5996 19.8762 99.1996 19.8762Z" fill="#404041"/>
<path d="M86.9001 27.0766C86.2001 27.0766 85.6001 26.6709 85.4001 25.9611C85.2001 25.1498 85.6001 24.2371 86.5001 24.0343C89.7001 23.1216 93.0001 21.9047 96.2001 20.5864C97.0001 20.2822 97.9001 20.5864 98.2001 21.3977C98.5001 22.209 98.2001 23.1216 97.4001 23.4259C94.1001 24.8456 90.7001 26.0625 87.3001 27.0766C87.2001 27.0766 87.0001 27.0766 86.9001 27.0766Z" fill="#404041"/>
<path d="M101.498 21.2953C100.898 21.2953 100.398 20.9911 100.098 20.4841C99.6983 19.6728 99.9983 18.7601 100.798 18.4559C103.598 17.0362 106.498 15.3122 109.198 13.5883C109.898 13.0813 110.898 13.2841 111.298 13.9939C111.798 14.7038 111.598 15.7179 110.898 16.1235C107.998 17.9489 105.098 19.6728 102.198 21.1939C101.998 21.2953 101.698 21.2953 101.498 21.2953Z" fill="#404041"/>
<path d="M112.8 17.7469C112.5 17.7469 112.3 17.7469 112.1 17.6455C111.6 17.5441 111.1 17.4427 110.7 17.2399C110 16.9357 109.4 16.3272 108.9 15.6174C108.3 14.8061 108.1 13.8934 108.1 12.8793C108.1 10.2427 110.2 8.01172 112.9 8.01172C115.5 8.01172 117.7 10.2427 117.7 12.8793C117.6 15.6174 115.4 17.7469 112.8 17.7469ZM112.8 11.1554C111.8 11.1554 111.1 11.9666 111.1 12.8793C111.1 13.285 111.2 13.5892 111.4 13.8934C111.6 14.0962 111.8 14.299 112 14.5019C112.2 14.6033 112.3 14.6033 112.5 14.7047H112.6C112.6 14.7047 112.7 14.7047 112.8 14.7047C113.8 14.7047 114.5 13.8934 114.5 12.9807C114.5 11.9666 113.7 11.1554 112.8 11.1554Z" fill="#404041"/>
<path d="M43.6992 26.9749C43.5992 26.9749 43.3992 26.9749 43.2992 26.8735C40.3992 26.0622 37.4992 25.1495 34.5992 24.034C33.7992 23.7298 33.3992 22.8171 33.6992 22.0059C33.9992 21.1946 34.8992 20.789 35.6992 21.0932C38.3992 22.1073 41.2992 23.02 44.0992 23.8312C44.8992 24.034 45.3992 24.9467 45.1992 25.758C44.9992 26.5693 44.2992 26.9749 43.6992 26.9749Z" fill="#404041"/>
<path d="M30.3998 22.2096C30.1998 22.2096 29.9998 22.2096 29.7998 22.1082L29.2998 21.9054C25.2998 20.08 22.5998 18.8631 20.5998 17.6462C19.8998 17.2406 19.5998 16.2265 20.0998 15.5166C20.4998 14.8068 21.4999 14.5026 22.1999 15.0096C24.0999 16.1251 26.6998 17.342 30.5998 19.0659L30.9998 19.2688C31.7998 19.573 32.0998 20.4857 31.7998 21.2969C31.4998 21.9054 30.9998 22.2096 30.3998 22.2096Z" fill="#404041"/>
<path d="M104.4 35.6954C103.3 35.6954 102.3 35.2898 101.5 34.5799C100.5 33.7687 100 32.4504 100 31.2335C100 28.6982 102 26.7715 104.4 26.7715C105.2 26.7715 106 26.9743 106.6 27.3799C108 28.1912 108.8 29.7123 108.8 31.2335C108.8 33.6673 106.8 35.6954 104.4 35.6954ZM104.4 29.8137C103.6 29.8137 103 30.4222 103 31.2335C103 31.6391 103.2 32.0447 103.5 32.2475C103.7 32.4504 104 32.6532 104.4 32.6532C105.2 32.6532 105.8 32.0447 105.8 31.2335C105.8 30.7264 105.5 30.2194 105.1 30.0166C104.9 29.8137 104.6 29.8137 104.4 29.8137Z" fill="#404041"/>
<path d="M96.1992 38.3319C95.8992 38.3319 95.5992 38.3319 95.2992 38.2305C94.4992 38.1291 93.8992 37.3178 93.9992 36.5065C94.0992 35.6953 94.7992 35.0868 95.6992 35.1882C97.5992 35.391 99.4992 34.4784 101.399 32.3488C101.999 31.7403 102.899 31.7403 103.599 32.2474C104.199 32.8558 104.199 33.7685 103.699 34.4784C101.199 37.0136 98.6992 38.3319 96.1992 38.3319Z" fill="#404041"/>
<path d="M105.9 30.2198C105.6 30.2198 105.4 30.1184 105.1 30.017C104.4 29.6114 104.1 28.5973 104.6 27.8874C106.5 24.6424 108 20.9917 109.7 15.9212C110 15.11 110.8 14.7043 111.6 14.9072C112.4 15.2114 112.8 16.0226 112.6 16.8339C110.8 22.1072 109.2 25.9607 107.2 29.4086C106.9 29.9156 106.4 30.2198 105.9 30.2198Z" fill="#404041"/>
<path d="M90.9992 36.2033C90.6992 36.2033 90.2992 36.1018 89.9992 35.899C88.1992 34.3779 86.4992 32.2483 84.8992 29.6117C84.4992 28.9018 84.6992 27.8878 85.3992 27.4821C86.0992 27.0765 87.0992 27.2793 87.4992 27.9892C88.4992 29.6117 89.9992 31.9441 91.8992 33.4652C92.5992 33.9723 92.6992 34.9864 92.0992 35.5948C91.8992 36.0004 91.4992 36.2033 90.9992 36.2033Z" fill="#404041"/>
<path d="M36.0992 39.7533C34.4992 39.7533 33.0992 38.8406 32.4992 37.3195C32.2992 36.8125 32.1992 36.3054 32.1992 35.697C32.1992 33.466 33.9992 31.6406 36.1992 31.6406C38.0992 31.6406 39.6992 33.0603 40.0992 34.8857C40.0992 35.0885 40.1992 35.3927 40.1992 35.5956C40.0992 37.9279 38.2992 39.7533 36.0992 39.7533ZM36.0992 34.8857C35.5992 34.8857 35.1992 35.2913 35.1992 35.7984C35.1992 35.8998 35.1992 36.0012 35.2992 36.204C35.3992 36.5082 35.7992 36.711 36.0992 36.711C36.5992 36.711 36.9992 36.3054 36.9992 35.7984C36.9992 35.697 36.9992 35.697 36.9992 35.5956C36.8992 35.1899 36.4992 34.8857 36.0992 34.8857Z" fill="#404041"/>
<path d="M33.8988 38.2306C31.0988 38.0278 28.5988 36.5067 26.1988 33.5658C25.6988 32.9574 25.6988 31.9433 26.3988 31.4362C26.9988 30.9292 27.9988 30.9292 28.4988 31.6391C30.9988 34.6813 32.7988 35.0869 33.9988 35.1884C34.7988 35.2898 35.4988 35.9996 35.3988 36.8109C35.3988 37.6222 34.6988 38.2306 33.8988 38.2306Z" fill="#404041"/>
<path d="M38.5 36.8111C38 36.8111 37.5 36.6083 37.2 36.1013C36.8 35.4928 37 34.4787 37.7 33.9717C39.5 32.7548 41.5 30.4224 43.1 27.4815C43.5 26.7717 44.5 26.4675 45.2 26.8731C45.9 27.2787 46.2 28.2928 45.8 29.0027C44.5 31.3351 42.3 34.5801 39.4 36.5069C39.1 36.8111 38.8 36.8111 38.5 36.8111Z" fill="#404041"/>
<path d="M46.2996 30.6254C46.1996 30.6254 46.0996 30.6254 45.9996 30.6254C44.9996 30.524 44.0996 30.1184 43.3996 29.4085C42.5996 28.5973 42.0996 27.4818 42.0996 26.2649C42.0996 25.8592 42.1996 25.3522 42.2996 24.9466C42.7996 23.1212 44.4996 21.9043 46.3996 21.9043C48.7996 21.9043 50.6996 23.8311 50.6996 26.2649C50.6996 26.5691 50.6996 26.7719 50.5996 26.9747C50.3996 28.1916 49.6996 29.2057 48.6996 29.9156C47.8996 30.3212 47.0996 30.6254 46.2996 30.6254ZM46.2996 25.048C45.7996 25.048 45.2996 25.4536 45.0996 25.9606C45.0996 26.062 44.9996 26.1635 44.9996 26.3663C44.9996 26.6705 45.0996 27.0761 45.3996 27.2789C45.5996 27.4818 45.8996 27.5832 46.1996 27.5832H46.2996C46.4996 27.5832 46.7996 27.4818 46.8996 27.3804C47.1996 27.1775 47.3996 26.8733 47.4996 26.5691C47.4996 26.4677 47.4996 26.3663 47.4996 26.3663C47.5996 25.555 46.9996 25.048 46.2996 25.048Z" fill="#404041"/>
<path d="M23.9984 29.1046C23.4984 29.1046 22.8984 28.8003 22.6984 28.2933C21.1984 25.5553 19.9984 22.7158 18.3984 17.9496C18.0984 17.1384 18.4984 16.2257 19.2984 16.0229C20.0984 15.7187 20.9984 16.1243 21.1984 16.9356C22.7984 21.4989 23.8984 24.1356 25.2984 26.7722C25.6984 27.482 25.3984 28.4961 24.6984 28.9018C24.4984 29.0032 24.1984 29.1046 23.9984 29.1046Z" fill="#404041"/>
<path d="M114 39.7523C113.2 39.7523 112.5 39.0424 112.5 38.2312C112.5 38.2312 112.5 38.1298 112.5 38.0284C112.6 36.9129 112.6 34.9861 112.4 32.6537C112.3 31.8424 113 31.0312 113.8 31.0312C114.6 30.9298 115.4 31.6396 115.4 32.4509C115.5 34.9861 115.6 36.9129 115.5 38.2312C115.4 39.1438 114.8 39.7523 114 39.7523Z" fill="#404041"/>
<path d="M113.5 28.5972C112.7 28.5972 112.1 27.9888 112 27.1775C111.7 23.4254 111.2 19.7747 111 17.5437L110.9 16.3268C110.8 15.5155 111.4 14.7043 112.2 14.6029C113 14.5014 113.8 15.1099 113.9 15.9212L114 17.2395C114.3 19.4705 114.7 23.2226 115 26.9747C115.1 27.786 114.5 28.5972 113.6 28.6986C113.6 28.5972 113.5 28.5972 113.5 28.5972Z" fill="#404041"/>
<path d="M16.0996 36.913C15.1996 36.913 14.5996 36.2031 14.5996 35.2904C14.5996 33.8707 14.6996 32.8566 14.7996 31.2341C14.8996 30.4228 15.5996 29.713 16.3996 29.8144C17.1996 29.9158 17.8996 30.6256 17.7996 31.4369C17.6996 32.958 17.6996 33.9721 17.5996 35.2904C17.5996 36.2031 16.8996 36.913 16.0996 36.913Z" fill="#404041"/>
<path d="M16.7992 26.5697C16.6992 26.5697 16.6992 26.5697 16.5992 26.5697C15.7992 26.4683 15.1992 25.7585 15.1992 24.8458C15.3992 22.8176 15.5992 21.2965 15.7992 19.8768C15.8992 19.0655 15.9992 18.3556 16.0992 17.6458C16.1992 16.8345 16.9992 16.2261 17.7992 16.3275C18.5992 16.4289 19.1992 17.2401 19.0992 18.0514C18.9992 18.7613 18.8992 19.4711 18.7992 20.2824C18.5992 21.7021 18.3992 23.2232 18.1992 25.15C18.2992 25.9613 17.5992 26.5697 16.7992 26.5697Z" fill="#404041"/>
<path d="M17.9984 18.6598C17.7984 18.6598 17.6984 18.6598 17.4984 18.6598C15.1984 18.457 13.3984 16.4288 13.3984 14.0964C13.3984 11.5612 15.4984 9.43164 17.9984 9.43164C20.4984 9.43164 22.5984 11.5612 22.5984 14.0964C22.5984 14.9077 22.3984 15.719 21.9984 16.4288C21.5984 17.2401 20.8984 17.8485 20.0984 18.2542C19.3984 18.457 18.6984 18.6598 17.9984 18.6598ZM17.9984 12.0683C16.8984 12.0683 15.9984 12.9809 15.9984 14.0964C15.9984 15.1105 16.7984 15.9218 17.7984 16.0232C17.7984 16.0232 17.7984 16.0232 17.8984 16.0232C18.1984 16.0232 18.5984 16.0232 18.8984 15.8204C19.1984 15.6176 19.4984 15.4147 19.6984 15.0091C19.8984 14.7049 19.9984 14.4007 19.9984 13.995C19.8984 12.9809 18.9984 12.0683 17.9984 12.0683Z" fill="#404041"/>
<path d="M113.899 33.9719C111.699 33.9719 109.799 32.1465 109.799 29.8142C109.799 27.786 111.299 25.9606 113.299 25.7578C113.499 25.7578 113.699 25.7578 113.899 25.7578C116.099 25.7578 117.999 27.5832 117.999 29.9156C117.999 32.1465 116.299 33.9719 114.099 34.0733C113.899 33.9719 113.899 33.9719 113.899 33.9719ZM113.899 28.3944C113.799 28.3944 113.799 28.3944 113.699 28.3944C112.999 28.4958 112.399 29.1043 112.399 29.8142C112.399 30.6254 112.999 31.2339 113.799 31.3353H113.899C114.699 31.3353 115.299 30.6254 115.299 29.8142C115.299 29.0029 114.699 28.3944 113.899 28.3944Z" fill="#404041"/>
<path d="M44.199 55.3703H44.099C43.299 55.2689 42.599 54.559 42.699 53.7478V53.3421C42.799 51.6182 42.999 48.9816 43.299 46.0407C43.399 45.2295 44.099 44.5196 44.899 44.621C45.699 44.7224 46.399 45.4323 46.299 46.2435C46.099 49.1844 45.899 51.821 45.699 53.545V53.9506C45.599 54.7619 44.999 55.3703 44.199 55.3703Z" fill="#404041"/>
<path d="M45.199 42.7952H45.099C44.299 42.6938 43.599 41.9839 43.699 41.1726C44.099 36.5078 44.499 31.7417 44.699 29.0036C44.799 28.1924 45.499 27.4825 46.299 27.5839C47.099 27.6853 47.799 28.3952 47.699 29.2064C47.499 31.9445 47.099 36.7107 46.699 41.3755C46.599 42.1867 45.899 42.7952 45.199 42.7952Z" fill="#404041"/>
<path d="M86.199 55.6728C85.399 55.6728 84.699 55.0643 84.699 54.2531C84.599 52.6305 84.399 49.9939 84.199 47.6615C84.099 46.8503 84.799 46.039 85.599 46.039C86.399 45.9376 87.199 46.6474 87.199 47.4587C87.399 49.7911 87.599 52.5291 87.699 54.0503C87.799 54.8615 87.099 55.6728 86.299 55.6728C86.199 55.6728 86.199 55.6728 86.199 55.6728Z" fill="#404041"/>
<path d="M85.299 44.1141C84.499 44.1141 83.799 43.5056 83.799 42.6944C83.399 37.7254 82.999 32.5535 82.699 29.6127C82.599 28.8014 83.299 27.9902 84.099 27.9902C84.899 27.8887 85.699 28.5986 85.699 29.4099C85.999 32.4521 86.399 37.5226 86.799 42.4916C86.899 43.3028 86.199 44.1141 85.399 44.1141H85.299Z" fill="#404041"/>
<path d="M62.8999 45.8363C62.7999 45.8363 62.6998 45.8363 62.5998 45.8363C60.6998 45.5321 58.7998 44.8223 57.0998 43.7068C56.3998 43.3011 56.0998 42.287 56.5998 41.5772C56.9998 40.8673 57.9999 40.5631 58.6999 41.0701C60.0999 41.8814 61.5998 42.4899 63.0998 42.7941C63.8998 42.8955 64.4999 43.7068 64.2999 44.6194C64.1999 45.3293 63.5999 45.8363 62.8999 45.8363Z" fill="#404041"/>
<path d="M78.7 38.5357C78.4 38.5357 78.1 38.4343 77.8 38.2315C77.1 37.7244 77 36.7103 77.5 36.1019C79.5 33.3639 80.8 30.5244 81.6 28.5977C81.9 27.7864 82.8 27.3808 83.6 27.685C84.4 27.9892 84.8 28.9019 84.5 29.7132C83.7 31.8427 82.3 34.9864 80 37.9272C79.6 38.3329 79.2 38.5357 78.7 38.5357Z" fill="#404041"/>
<path d="M84.3996 31.0317C84.2996 31.0317 84.1996 31.0317 84.0996 31.0317C83.3996 31.0317 82.7996 30.8289 82.1996 30.4232C80.9996 29.7134 80.1996 28.3951 80.0996 26.9753C80.0996 26.8739 80.0996 26.7725 80.0996 26.6711C80.0996 24.2373 81.9996 22.3105 84.3996 22.3105C86.0996 22.3105 87.5996 23.3246 88.2996 24.9472C88.4996 25.4542 88.6996 26.0627 88.6996 26.6711C88.6996 27.888 88.1996 29.0035 87.2996 29.8148C86.4996 30.626 85.4996 31.0317 84.3996 31.0317ZM83.0996 26.6711C83.0996 27.1782 83.3996 27.5838 83.6996 27.7866C83.8996 27.888 83.9996 27.9894 84.1996 27.9894H84.2996C84.5996 27.9894 84.8996 27.888 85.0996 27.6852C85.3996 27.4824 85.4996 27.0767 85.4996 26.7725C85.4996 26.5697 85.4996 26.4683 85.3996 26.2655C85.1996 25.7584 84.7996 25.5556 84.2996 25.5556C83.6996 25.4542 83.0996 25.9613 83.0996 26.6711Z" fill="#404041"/>
<path d="M68.6989 45.6346C67.9989 45.6346 67.3989 45.1276 67.1989 44.4177C66.9989 43.6064 67.5989 42.7952 68.3989 42.5923C70.1989 42.1867 71.9989 41.274 73.5989 40.0571C74.2989 39.5501 75.1989 39.6515 75.6989 40.3614C76.1989 41.0712 76.0989 41.9839 75.3989 42.4909C73.3989 44.0121 71.2989 45.0262 68.9989 45.5332C68.8989 45.6346 68.7989 45.6346 68.6989 45.6346Z" fill="#404041"/>
<path d="M53.5984 40.1573C53.1984 40.1573 52.7984 39.9545 52.4984 39.6503C49.1984 35.8981 47.2984 31.4362 46.3984 29.1038C46.0984 28.2925 46.4984 27.3798 47.2984 27.0756C48.0984 26.7714 48.9984 27.177 49.2984 27.9883C50.0984 30.1179 51.8984 34.1742 54.7984 37.5207C55.3984 38.1291 55.2984 39.1432 54.6984 39.7517C54.2984 40.0559 53.8984 40.1573 53.5984 40.1573Z" fill="#404041"/>
<path d="M16.2982 45.1276C15.4982 45.1276 14.4982 44.8234 13.3982 43.4036C11.6982 41.2741 12.0982 38.1304 14.4982 34.7839C14.8982 34.2769 15.4982 33.9727 16.1982 33.9727C16.5982 33.9727 17.0982 34.1755 17.3982 34.4797C21.2982 38.2318 19.6982 42.1867 19.4982 42.5924C19.3982 42.7952 18.3982 44.8234 16.5982 45.0262C16.4982 45.1276 16.3982 45.1276 16.2982 45.1276ZM16.0982 37.1163C15.2982 38.3332 14.2982 40.4628 15.3982 41.7811C15.8982 42.3896 16.1982 42.491 16.2982 42.491C16.4982 42.491 16.8982 41.9839 17.0982 41.5783C17.1982 41.2741 17.9982 39.3473 16.0982 37.1163Z" fill="#404041"/>
<path d="M44.4994 63.1784C43.6994 63.1784 42.6994 62.8741 41.5994 61.4544C39.8994 59.3248 40.2994 56.1812 42.6994 52.8347C42.9994 52.4291 43.4994 52.1248 44.0994 52.0234C44.5994 52.0234 45.1994 52.1248 45.5994 52.5305C49.6994 56.4854 47.7994 60.4403 47.6994 60.6432C47.5994 60.846 46.6994 62.8741 44.7994 63.077C44.6994 63.077 44.5994 63.1784 44.4994 63.1784ZM44.3994 55.0657C43.5994 56.2826 42.5994 58.4122 43.6994 59.7305C44.1994 60.3389 44.4994 60.4403 44.5994 60.4403C44.7994 60.4403 45.1994 59.9333 45.3994 59.5277C45.4994 59.3248 46.1994 57.3981 44.3994 55.0657Z" fill="#404041"/>
<path d="M87.2983 63.9891C85.4983 63.9891 84.2983 62.2651 84.1983 62.0623C84.0983 61.9609 81.5983 58.3102 84.8983 53.7468C85.1983 53.3412 85.6983 53.037 86.2983 52.9355C86.7983 52.9355 87.3983 53.037 87.7983 53.4426C89.1983 54.7609 92.2983 58.3102 90.3983 61.7581C89.4983 63.482 88.2983 63.8877 87.4983 63.9891C87.3983 63.9891 87.3983 63.9891 87.2983 63.9891ZM86.5983 55.9778C85.0983 58.513 86.2983 60.3384 86.3983 60.5412C86.6983 60.9468 87.0983 61.3524 87.3983 61.3524C87.4983 61.3524 87.7983 61.1496 88.0983 60.5412C88.8983 58.9186 87.4983 57.0933 86.5983 55.9778Z" fill="#404041"/>
<path d="M115.199 47.7634C113.399 47.7634 112.199 46.0395 112.099 45.8366C111.999 45.7352 109.499 42.0845 112.799 37.5211C112.999 37.3183 113.099 37.1155 113.299 37.0141C113.999 36.5071 114.999 36.6085 115.599 37.2169C116.999 38.5352 120.099 42.0845 118.199 45.5324C117.299 47.2564 116.099 47.662 115.299 47.7634C115.299 47.7634 115.199 47.7634 115.199 47.7634ZM114.399 39.8535C112.899 42.3887 114.099 44.2141 114.199 44.4169C114.499 44.8226 114.899 45.2282 115.199 45.2282C115.299 45.2282 115.599 45.0254 115.899 44.4169C116.699 42.7944 115.299 40.8676 114.399 39.8535Z" fill="#404041"/>
<path d="M32.5988 25.7578C30.4988 25.7578 28.7988 24.0339 28.7988 21.9043C28.7988 21.2959 28.9988 20.586 29.2988 20.079C29.9988 18.862 31.1988 18.0508 32.5988 18.0508C34.6988 18.0508 36.3988 19.7747 36.3988 21.9043C36.3988 22.2085 36.3988 22.6142 36.2988 22.9184C35.8988 24.6423 34.3988 25.7578 32.5988 25.7578ZM32.5988 20.586C32.0988 20.586 31.5988 20.8902 31.3988 21.2959C31.2988 21.4987 31.1988 21.7015 31.1988 22.0057C31.1988 22.817 31.7988 23.4254 32.5988 23.4254C33.1988 23.4254 33.6988 23.0198 33.8988 22.4113C33.8988 22.3099 33.9988 22.2085 33.9988 22.0057C33.9988 21.1944 33.3988 20.586 32.5988 20.586Z" fill="#404041"/>
<path d="M65.6984 32.4512C63.5984 32.4512 61.8984 30.7272 61.8984 28.5977C61.8984 28.4963 61.8984 28.4963 61.8984 28.3948C61.9984 26.3667 63.6984 24.7441 65.6984 24.7441C67.6984 24.7441 69.3984 26.3667 69.4984 28.3948C69.4984 28.4963 69.4984 28.4963 69.4984 28.5977C69.4984 30.7272 67.7984 32.4512 65.6984 32.4512ZM65.6984 27.1779C64.9984 27.1779 64.3984 27.7864 64.2984 28.4963V28.5977C64.2984 29.3075 64.8984 30.0174 65.6984 30.0174C66.4984 30.0174 67.0984 29.4089 67.0984 28.5977C67.0984 28.5977 67.0984 28.5977 67.0984 28.4963C66.9984 27.7864 66.3984 27.1779 65.6984 27.1779ZM66.9984 28.5977C66.9984 28.4963 66.9984 28.4963 66.9984 28.5977Z" fill="#404041"/>
<path d="M93.2 39.4474C91.1 39.4474 89.5 37.7235 89.5 35.6953C89.5 35.0869 89.6 34.5798 89.9 34.0728C90.5 32.7545 91.8 31.8418 93.3 31.8418C95.4 31.8418 97 33.5657 97 35.5939C97 36.2024 96.9 36.7094 96.6 37.2164C96 38.6362 94.7 39.4474 93.2 39.4474ZM93.2 34.5798C92.8 34.5798 92.4 34.884 92.2 35.2897C92.1 35.4925 92.1 35.5939 92.1 35.7967C92.1 36.4052 92.6 36.9122 93.2 36.9122C93.6 36.9122 94 36.608 94.2 36.2024C94.3 35.9995 94.3 35.8981 94.3 35.6953C94.4 35.0869 93.8 34.5798 93.2 34.5798Z" fill="#404041"/>
<path d="M16.2992 32.1475C13.9992 32.1475 12.1992 30.3222 12.1992 27.9898C12.1992 25.6574 13.9992 23.832 16.2992 23.832C16.5992 23.832 16.7992 23.832 17.0992 23.9334C18.9992 24.2377 20.3992 25.9616 20.3992 27.9898C20.3992 30.2208 18.4992 32.1475 16.2992 32.1475ZM16.2992 26.5701C15.4992 26.5701 14.7992 27.2799 14.7992 28.0912C14.7992 28.9025 15.4992 29.6123 16.2992 29.6123C17.0992 29.6123 17.7992 28.9025 17.7992 28.0912C17.7992 27.3813 17.2992 26.7729 16.5992 26.6715C16.4992 26.5701 16.3992 26.5701 16.2992 26.5701Z" fill="#404041"/>
<path d="M25.6996 34.378C23.3996 34.378 21.5996 32.4512 21.5996 30.2202C21.5996 28.9019 22.2996 27.5836 23.3996 26.7724C24.0996 26.2653 24.8996 26.0625 25.7996 26.0625C28.0996 26.0625 29.8996 27.9893 29.8996 30.2202C29.8996 31.64 29.1996 32.9583 27.9996 33.7695C27.2996 34.0738 26.4996 34.378 25.6996 34.378ZM25.6996 28.5977C25.3996 28.5977 25.0996 28.6991 24.7996 28.9019C24.3996 29.2062 24.0996 29.6118 24.0996 30.1188C24.0996 30.9301 24.7996 31.64 25.5996 31.64C25.8996 31.64 26.1996 31.5386 26.3996 31.4371C26.8996 31.1329 27.0996 30.6259 27.0996 30.1188C27.1996 29.3076 26.4996 28.5977 25.6996 28.5977Z" fill="#404041"/>
<path d="M85.7 48.7775C83.6 48.7775 82 47.0536 82 45.0254C82 43.2 83.3 41.5775 85.1 41.2733C85.3 41.2733 85.6 41.1719 85.8 41.1719C87.9 41.1719 89.5 42.8958 89.5 44.924C89.4 47.0536 87.8 48.7775 85.7 48.7775ZM85.7 43.9099C85.6 43.9099 85.6 43.9099 85.5 43.9099C85 44.0113 84.6 44.5184 84.6 45.0254C84.6 45.6338 85.1 46.1409 85.7 46.1409C86.3 46.1409 86.8 45.6338 86.8 45.0254C86.8 44.4169 86.3 43.9099 85.7 43.9099Z" fill="#404041"/>
<path d="M44.7 47.4593C42.6 47.4593 41 45.7354 41 43.7072C41 41.679 42.7 39.9551 44.7 39.9551C44.9 39.9551 45.2 39.9551 45.4 40.0565C47.2 40.3607 48.4 41.9832 48.4 43.8086C48.4 45.8368 46.8 47.4593 44.8 47.5607C44.8 47.4593 44.7 47.4593 44.7 47.4593ZM44.7 42.4903C44.1 42.4903 43.6 42.9973 43.6 43.6058C43.6 44.2142 44.1 44.7213 44.7 44.7213C44.7 44.7213 44.7 44.7213 44.8 44.7213C45.4 44.7213 45.9 44.2142 45.9 43.6058C45.9 43.0987 45.5 42.5917 45 42.4903C44.8 42.4903 44.8 42.4903 44.7 42.4903Z" fill="#404041"/>
<path d="M55.4988 45.0261C53.1988 45.0261 51.2988 43.0994 51.2988 40.767C51.2988 39.5501 51.7988 38.4346 52.6988 37.6233C53.4988 36.9134 54.3988 36.5078 55.4988 36.5078C57.7988 36.5078 59.6988 38.4346 59.6988 40.767C59.6988 41.5782 59.4988 42.3895 58.9988 42.998C58.1988 44.3163 56.8988 45.0261 55.4988 45.0261ZM55.4988 39.2458C54.9988 39.2458 54.6988 39.4487 54.4988 39.6515C54.1988 39.9557 53.9988 40.3613 53.9988 40.8684C53.9988 41.7811 54.6988 42.4909 55.5988 42.4909C56.0988 42.4909 56.5988 42.1867 56.8988 41.7811C57.0988 41.4768 57.0988 41.274 57.0988 40.9698C56.9988 39.9557 56.2988 39.2458 55.4988 39.2458Z" fill="#404041"/>
<path d="M65.8 49.0825C63.4 49.0825 61.5 47.1557 61.5 44.7219C61.5 44.5191 61.5 44.2149 61.6 44.012C61.9 41.8825 63.7 40.3613 65.8 40.3613C67.8 40.3613 69.6 41.781 70 43.8092C70.1 44.1134 70.1 44.4177 70.1 44.7219C70.1 47.1557 68.2 49.0825 65.8 49.0825ZM65.8 42.998C65 42.998 64.3 43.6064 64.2 44.4177C64.2 44.4177 64.2 44.4177 64.2 44.5191C64.2 44.5191 64.2 44.6205 64.2 44.7219C64.2 45.6346 64.9 46.4458 65.9 46.4458C66.8 46.4458 67.6 45.736 67.6 44.7219C67.6 44.6205 67.6 44.5191 67.6 44.4177C67.3 43.6064 66.6 42.998 65.8 42.998Z" fill="#404041"/>
<path d="M76.8 43.6059C75.6 43.6059 74.4 43.0988 73.6 42.0848C72.9 41.2735 72.5 40.2594 72.5 39.2453C72.5 36.8115 74.4 34.8848 76.8 34.8848C77.8 34.8848 78.8 35.2904 79.6 35.8989C80.5 36.7101 81.1 37.927 81.1 39.1439C81 41.6791 79.1 43.6059 76.8 43.6059ZM76.8 37.6228C75.9 37.6228 75.1 38.3327 75.1 39.3467C75.1 39.7524 75.2 40.158 75.5 40.4622C75.8 40.8679 76.3 41.0707 76.8 41.0707C77.7 41.0707 78.5 40.3608 78.5 39.3467C78.5 38.8397 78.3 38.4341 77.9 38.0284C77.5 37.7242 77.2 37.6228 76.8 37.6228Z" fill="#404041"/>
</svg>
