<svg width="131" height="72" viewBox="0 0 131 72" fill="none" xmlns="http://www.w3.org/2000/svg">
<path d="M62.4004 32.0004C62.5004 32.0004 62.5004 32.0004 62.4004 31.9004C62.5004 31.9004 62.4004 31.9004 62.4004 32.0004Z" fill="#404041"/>
<path d="M79.3001 52C79.4001 50.9 79.1001 50 78.4001 49.5C77.7001 48.8 76.7 48.3 75.6 48.3H75.2C75.7 47.8 76 47.3 76.1 46.7C76.3 45.7 76.1 44.7 75.5 43.8C74.8 42.7 73.6001 42.1 72.4001 42.1C71.6001 42.1 70.8 42.4 70.1 42.9C69.9 43 69.8 43.1 69.7 43.2C69.7 42.6 69.7001 41.9 69.4001 41.4C69.0001 40.6 68.3001 40 67.4001 39.6C67.5001 39.4 67.5 39.2 67.5 39C67.5 38.7 67.4 38.4 67.2 38.1C67.5 37.7 67.8001 37.3 67.9001 36.7C67.9001 36.6 67.9001 36.6 67.9001 36.6C68.3001 36.9 68.7 37 69.2 37C69.5 37 69.9 36.9 70.2 36.8C70.9 36.5 71.4 36 71.6 35.4C71.9 34.8 71.8 34 71.5 33.4C71.4 33.4 71.4001 33.3 71.4001 33.3C72.4001 33.2 73.1001 32.5 73.4001 31.5C73.5001 30.8 73.5 30.2 73.1 29.6C72.9 29.2 72.5 28.9 72.1 28.7C72.3 28.6 72.4 28.4 72.5 28.2C72.8 27.7 72.9 27 72.6 26.3C72.2 25.3 71.3001 24.7 70.3001 24.7C70.1001 24.7 69.8 24.8 69.5 24.9V24.2C69.3 23.5 68.9001 23 68.3001 22.6C68.0001 22.4 67.6001 22.4 67.3001 22.3V21.8C67.3001 21.3 67.1001 20.8 66.8001 20.4C68.4001 19.7 69.5 18.2 69.5 16.4C69.5 15 68.8 13.7 67.7 12.9C67.8 12.4 67.6001 11.8 67.3001 11.3C66.7001 10.4 65.9 9.50004 66.1 8.40004C66.5 5.80004 71.8001 7.60004 69.9001 9.90004C69.3001 10.5 70.2001 11.5 70.8001 10.8C73.3001 7.80004 69.2 4.80004 66.2 6.20004C64.8 6.80004 64.2001 8.60004 64.8001 9.90004C65.2001 10.7 65.8 11.4 66.1 12.2C65.7 12.1 65.3001 12 64.9001 12C63.8001 12 62.9 12.4 62.1 13V12.5C62.2 11.7 60.8 11.7 60.8 12.5C60.7 13.1 60.9 13.6 61.1 14.1C60.7 14.8 60.4001 15.5 60.4001 16.4C60.4001 18.2 61.5 19.7 63 20.4C62.7 20.8 62.5 21.3 62.5 21.8C62.5 22 62.6 22.1 62.6 22.3H62.5C61.8 22.4 61.2 22.7 60.8 23.2C60.4 23.7 60.2 24.4 60.3 25.1C59.6 24.9 58.7 25.1 58.1 25.7C57.6 26.1 57.3 26.8 57.3 27.4C57.3 28.1 57.6 28.7 58.1 29.2C57.2 29.5 56.6 30.4 56.6 31.4C56.6 32.1 56.8 32.7 57.3 33.2C57.7 33.6 58.4 33.9 59.1 33.9H59.2001C59.3001 33.9 59.3 33.9 59.3 33.9C59.2 34 59.1 34.2 59.1 34.4C59 35 59.1 35.7 59.5 36.3C60 37.1 60.8 37.5 61.6 37.5C62.1 37.5 62.6 37.3 63.1 37C63.2 37 63.2001 37 63.2001 37C63.2001 37.2 63.3001 37.3 63.4001 37.5C63.7001 38 64 38.3 64.5 38.5C64.4 38.6 64.4001 38.8 64.4001 39C64.4001 39.2 64.4 39.4 64.5 39.6C63.5 40 62.7001 40.9 62.4001 42C62.4001 42.3 62.3 42.5 62.3 42.7C61.7 41.9 60.7 41.4 59.6 41.4C59.1 41.4 58.7 41.5 58.3 41.6C57.3 41.9 56.5 42.5 56.1 43.4C55.6 44.3 55.6 45.4 56 46.4C56.1 46.6 56.3001 46.9 56.4001 47.1C56.0001 47 55.7 46.9 55.3 46.9C54 46.9 52.8 47.7 52.1 49C51.6 49.9 51.6001 51 51.9001 51.9C52.2001 52.9 53 53.7 54 54.1C54.4 54.3 54.8001 54.3 55.2001 54.4C54.5001 54.6 53.9 55 53.5 55.5C52.8 56.2 52.6001 57.2 52.7001 58.3C53.0001 60.2 54.5001 61.5 56.4001 61.5C56.7001 61.5 56.9001 61.4 57.2001 61.4C57.5001 61.3 57.8 61.2 58.1 61.1C57.9 61.6 57.8 62.2 57.8 62.7C57.9 63.7 58.4001 64.6 59.2001 65.3C59.9001 65.9 60.7 66.2 61.6 66.2C62.7 66.2 63.8 65.6 64.6 64.6C64.8 64.3 65 64.1 65.1 63.8C65.3 64.2 65.5001 64.6 65.8001 65C66.4001 65.7 67.4 66.1 68.5 66.2C68.5 66.2 68.6 66.2 68.7 66.2C69.7 66.2 70.6001 65.8 71.3001 65.1C72.0001 64.4 72.4001 63.5 72.4001 62.4C72.4001 62 72.4001 61.7 72.3001 61.4C72.8001 61.6 73.4 61.8 74 61.8C75 61.8 76.0001 61.3 76.8001 60.4C77.5001 59.6 77.8 58.6 77.7 57.6C77.6 56.7 77.1001 55.9 76.4001 55.3C78.0001 55 79.1001 53.7 79.3001 52ZM70.8001 43.6C71.2001 43.3 71.8001 43.1 72.3001 43.1C73.1001 43.1 73.8001 43.5 74.3001 44.2C74.7001 44.9 74.8 45.5 74.7 46.1C74.6 46.6 74.3001 47.1 73.8001 47.4C74.0001 46.8 73.8001 46 73.4001 45.4C72.9001 44.6 72.1 44.2 71.2 44C70.8 44 70.5 44.1 70.1 44.3C70.3 44.1 70.5001 43.8 70.8001 43.6ZM70.1 54.5C70.2 54.2 70.2001 53.9 70.3001 53.6C70.5001 53.9 70.8001 54.1 71.3001 54.3C71.2001 54.4 71.0001 54.4 70.9001 54.4L70.6 54.5C70.5 54.5 70.3 54.5 70.1 54.5ZM69.8001 50.6C69.8001 50.6 69.7 50.5 69.7 50.4C69.8 50.4 69.8001 50.4 69.9001 50.4C70.3001 50.4 70.7 50.3 71.2 50.1L70.7 50.6C70.5 50.8 70.3 51 70.1 51.3C70 51.1 69.9001 50.8 69.8001 50.6ZM71.2 52.5C71.2 52.4 71.2 52.4 71.2 52.3C71.2 52.1 71.4 51.8 71.5 51.7C72.3 51 73.0001 50.5 73.8001 50.5H74.1C74.5 50.5 74.9 50.8 75.2 51.1C75.5 51.4 75.6 51.8 75.5 52.3C75.4 53.3 74.6 53.8 73.7 53.6C72.2 53.3 71.6001 52.9 71.3001 52.7C71.2001 52.6 71.2 52.5 71.2 52.5ZM70.2 45.6C70.5 45.4 70.9 45.3 71.2 45.3C71.7 45.3 72.2 45.5 72.5 46C72.8 46.4 72.9001 46.8 72.8001 47.2C72.7001 47.6 72.4 47.9 72 48.1C71 48.7 70.3001 48.9 69.9001 49C69.6001 49 69.4001 48.9 69.3001 48.8C69.1001 48.7 69.1 48.4 69.1 48.2C69.3 47 69.4 46.2 70.2 45.6ZM69.7 60.8C69.7 61.2 69.6001 61.6 69.3001 61.9C69.0001 62.2 68.6 62.3 68.2 62.3H68.1C67.6 62.3 67.3 62.1 67 61.8C66.7 61.5 66.6 61.1 66.7 60.7C66.8 59.7 66.9 59.1 67.1 58.7C67.4 58.3 67.6001 58.1 67.8001 58.1C67.9001 58.1 67.9001 58.1 67.9001 58.1C67.9001 58.2 68 58.2 68.1 58.3L68.3001 58.5C69.1001 59.3 69.7 59.9 69.7 60.8ZM68.3001 56.8C68.3001 56.8 68.4 56.7 68.5 56.6V56.9C68.5 56.9 68.4001 56.8 68.3001 56.8ZM70.4001 34.8C70.3001 35.1 70.1001 35.3 69.8001 35.4C69.1001 35.6 68.6001 35.4 68.3001 34.7C67.6001 32.9 67.9001 32.5 67.9001 32.5C67.9001 32.5 68.1 32.4 68.2 32.5L68.4001 32.6C69.5001 33 70.0001 33.2 70.3001 33.9C70.5001 34.2 70.5001 34.5 70.4001 34.8ZM72 30C72.2 30.3 72.2 30.6 72.1 30.9C72 31.6 71.4 31.9 70.7 31.7C68.9 31.2 68.7 30.7 68.7 30.7C68.7 30.7 68.7001 30.6 68.9001 30.5L69.1 30.4C69.9 29.8 70.5 29.5 71.2 29.5C71.6 29.6 71.8 29.7 72 30ZM69.6 25.9C70.3 25.6 71 25.8 71.2 26.5C71.3 26.8 71.3 27.1 71.2 27.4C71.1 27.7 70.8 27.9 70.5 28C69.7 28.3 69.1 28.4 68.7 28.4C68.4 28.4 68.3001 28.3 68.3001 28.3C68.3001 28.3 68.3001 28.2 68.4001 28L68.3001 27.8C68.7001 26.7 68.9 26.2 69.6 25.9ZM67.1 23.4C67.3 23.4 67.5 23.5 67.7 23.6C68 23.8 68.2001 24 68.3001 24.3C68.4001 24.6 68.3 24.9 68.1 25.2C67 26.7 66.5 26.8 66.5 26.8C66.4 26.8 66.4001 26.7 66.3001 26.5L66.2 26.3C65.8 25.2 65.7 24.6 66 24C66.2 23.6 66.6 23.3 67.1 23.4ZM65.1 22.6C64.5 22.6 64.1 22.2 64.1 21.6C64.1 21 64.5 20.6 65.1 20.6C65.7 20.6 66.1 21.1 66.1 21.6C66.1 22.2 65.7 22.6 65.1 22.6ZM65.1 13.1C65.6 13.1 66.0001 13.2 66.4001 13.4C65.9001 14.6 64.0001 15 62.9001 14C63.5001 13.4 64.2 13.1 65.1 13.1ZM62 16.2C62 15.8 62.1001 15.4 62.2001 15.1C63.4001 16.2 65.3 16.6 66.7 15.1C67 14.8 67.2001 14.5 67.4001 14.1C67.9001 14.7 68.2 15.4 68.2 16.2C68.2 17.9 66.8 19.3 65.1 19.3C63.4 19.3 62 17.9 62 16.2ZM62 23.8C62.2 23.6 62.5 23.4 62.8 23.4C62.9 23.4 62.9 23.4 63 23.4C63.7 23.4 64.1 23.8 64.1 24.5C64.1 24.7 64.1 24.9 64.1 25.1C64.1 26.5 63.8 26.7 63.8 26.7C63.8 26.7 63.6 26.7 63.5 26.6L63.3 26.5C62.3 25.8 61.9 25.5 61.8 24.7C61.7 24.4 61.8 24 62 23.8ZM59.1 26.4C59.4 26.2 59.6001 26.1 59.9001 26.1C60.2001 26.1 60.5001 26.2 60.7001 26.5C61.9001 27.9 61.8 28.4 61.8 28.4C61.8 28.4 61.7 28.5 61.5 28.5H60.6C59.9 28.5 59.5 28.3 59.1 28C58.8 27.8 58.7001 27.5 58.7001 27.2C58.7001 26.9 58.9 26.6 59.1 26.4ZM59.4001 32.4C58.9001 32.4 58.6001 32.3 58.4001 32.1C58.2001 31.9 58.1 31.6 58.1 31.3C58.1 30.6 58.5001 30.2 59.2001 30.2H59.3C61.2 30.3 61.5 30.7 61.5 30.7C61.5 30.7 61.4 30.9 61.3 31L61.2001 31.1C60.4001 31.9 60.0001 32.3 59.4001 32.4ZM62.4001 35.8C61.8001 36.2 61.1001 36.1 60.7001 35.5C60.5001 35.2 60.4 34.9 60.5 34.6C60.6 34.3 60.8 34.1 61.1 33.9C62.3 33.2 62.9 33.1 63.1 33.1C63.2 33.1 63.2001 33.1 63.2001 33.1C63.2001 33.1 63.2001 33.2 63.2001 33.4L63.3 33.7C63.1 34.8 63.0001 35.4 62.4001 35.8ZM63.6 31.3C63.3 31 63.1 30.5 63.1 30C63.2 29 64 28.2 65 28.2H65.1C66.1 28.2 66.9001 29.1 66.9001 30.1C66.9001 31.1 66.1 31.9 65 31.9C64.5 31.8 64 31.6 63.6 31.3ZM64.5 35.7C65.1 33.8 65.6 33.7 65.6 33.7C65.6 33.7 65.7001 33.7 65.8001 33.9L65.9001 34.1C66.5001 35 66.8 35.5 66.7 36.2C66.6 36.9 66.0001 37.3 65.3001 37.1C64.9001 37 64.7 36.9 64.6 36.6C64.4 36.3 64.4 36 64.5 35.7ZM66.2 38.7C66.2 38.9 66.1001 39 65.9001 39C65.7001 39 65.6 38.8 65.6 38.7C65.6 38.5 65.7001 38.4 65.9001 38.4C66.1001 38.4 66.2 38.5 66.2 38.7ZM63.6 42.2C63.9 41.1 64.8001 40.4 65.8001 40.4C66.1001 40.4 66.4 40.5 66.7 40.6C67.4 40.8 67.9 41.2 68.2 41.8C68.4 42.1 68.4001 42.4 68.4001 42.7C68.4001 43 68.3 43.3 68.2 43.7C68.1 43.6 68.1 43.6 68.1 43.5C67.8 42.9 67.3 42.4 66.6 42.2C66.3 42.1 66 42 65.7 42C64.7 42 63.9 42.5 63.5 43.4C63.4 43 63.5 42.6 63.6 42.2ZM64.2 44C64.4 43.3 65 42.9 65.6 42.9C65.8 42.9 66 42.9 66.2 43C66.6 43.2 66.9 43.5 67.1 43.8C67.3 44.2 67.3 44.6 67.1 45C66.6 46.3 66.1 46.8 65.7 47C65.6 47.1 65.5 47.1 65.5 47.1C65.3 47.1 65.1001 46.9 64.9001 46.7V46.6C64.3001 45.5 63.9 44.9 64.2 44ZM68 46.8C68 47 67.9001 47.2 67.9001 47.4L67.8001 47.8V48.3C67.5001 48.2 67.2001 48 66.9001 47.9C67.3001 47.7 67.7 47.3 68 46.8ZM63.4001 46.6C63.4001 46.7 63.4 46.8 63.5 46.9L63.7001 47.2C63.8001 47.3 64 47.6 64.2 47.8C63.9 47.8 63.6 47.9 63.3 48C63.4 47.6 63.4001 47.1 63.4001 46.6ZM61.8 45.7C62 46.4 62.1 46.9 62.1 47.3C62.1 47.8 62.0001 48.1 61.9001 48.2C61.8001 48.3 61.7 48.4 61.5 48.4H61.4001L61.2001 48.3C60.1001 47.8 59.3 47.5 59 46.6C58.8 46.2 58.8 45.8 59 45.4C59.2 45.1 59.5001 44.8 59.9001 44.7C60.0001 44.6 60.2001 44.6 60.4001 44.6C61.0001 44.6 61.5 45 61.8 45.7ZM63 58.2C63.1 58.1 63.2 58.1 63.3 58.1C63.5 58.1 63.6001 58.2 63.7001 58.4V58.7C63.8001 59.9 63.9001 60.6 63.4001 61.3C62.8001 62 62 62.1 61.3 61.6C61 61.3 60.8 61 60.8 60.6C60.8 60.3 60.9001 59.9 61.2001 59.6C62.0001 58.8 62.5 58.5 63 58.2ZM61.4001 57.5C61.5001 57.3 61.7 57 61.8 56.6C62 56.7 62.2001 56.9 62.4001 57C62.1001 57.1 61.7001 57.3 61.4001 57.5ZM60.7001 50.1C60.6001 49.9 60.5 49.7 60.3 49.5C60.5 49.6 60.7 49.7 61 49.7C60.9 49.8 60.8001 50 60.7001 50.1ZM60.2001 54.2C59.6001 54 58.7 53.9 57.6 53.9C58.1 53.7 58.6001 53.5 59.2001 53.3L59.5 53.2C59.6 53.1 59.8 53 60 52.9C60 53.3 60.0001 53.7 60.2001 54.2ZM57.2001 43.8C57.4001 43.2 57.9 42.8 58.6 42.6C58.8 42.5 59.1001 42.5 59.4001 42.5C60.3001 42.5 61.0001 43 61.4001 43.8C61.1001 43.7 60.8001 43.6 60.4001 43.6C60.1001 43.6 59.8 43.6 59.5 43.7C58.8 43.9 58.2001 44.4 57.9001 45C57.7001 45.5 57.6 46 57.8 46.7C57.6 46.4 57.4001 46.1 57.2001 45.7C56.9001 45 56.9001 44.4 57.2001 43.8ZM56.8 49.2C57 49.2 57.3 49.3 57.6 49.4C59.1 50.2 59.5001 50.7 59.7001 51C59.7001 51.1 59.7001 51.2 59.7001 51.2C59.6001 51.4 59.5001 51.5 59.4001 51.6C59.4001 51.7 59.4 51.7 59.3 51.7L59.1 51.8C57.9 52.3 57.2 52.6 56.3 52.2C55.9 52 55.5001 51.7 55.4001 51.3C55.3001 50.9 55.3 50.5 55.5 50.1C55.8 49.5 56.3 49.2 56.8 49.2ZM54.4001 52.6C53.7001 52.3 53.2 51.8 53 51.2C52.8 50.6 52.9001 49.9 53.2001 49.3C53.6001 48.4 54.3001 47.9 55.2001 47.9C55.5001 47.9 55.9001 48 56.2001 48.2C55.6001 48.4 55 48.9 54.6 49.6C54.2 50.2 54.2001 51 54.4001 51.6C54.6001 52.1 54.9001 52.5 55.4001 52.8C55.1001 52.8 54.7001 52.7 54.4001 52.6ZM56.8 59.9H56.3C55.1 59.9 54.2 59.1 54 57.8C53.9 57.1 54.1 56.5 54.5 56C54.9 55.5 55.5001 55.3 56.2001 55.2L56.1 55.3C55.7 55.8 55.5 56.5 55.6 57.2C55.7 57.9 56.0001 58.4 56.4001 58.8C56.8001 59.2 57.4 59.4 58 59.4C57.7 59.6 57.3 59.8 56.8 59.9ZM56.7001 57.1C56.7001 56.7 56.8 56.3 57 56C57.2 55.7 57.6 55.5 58 55.5C58.4 55.5 58.7 55.4 59 55.4C59.5 55.4 59.9001 55.5 60.2001 55.6C60.4001 55.7 60.5 55.8 60.5 55.9C60.6 56.1 60.5001 56.3 60.4001 56.6C59.7001 57.5 59.3001 58.1 58.4001 58.3C57.5001 58.5 56.8001 58 56.7001 57.1ZM63.5 63.7C63 64.3 62.3 64.7 61.6 64.7C61 64.7 60.5 64.5 60 64.1C59.5 63.6 59.1 63 59.1 62.4C59.1 61.7 59.3 61.1 59.8 60.6C59.8 60.7 59.8 60.7 59.8 60.7C59.8 61.3 60.1001 61.9 60.7001 62.4C61.2001 62.8 61.7 63 62.3 63C63 63 63.6 62.7 64.1 62.3C64 62.8 63.9 63.2 63.5 63.7ZM63.7001 56.5C61.6001 55.8 60.6 53.5 61.3 51.5C61.9 49.9 63.4 48.9 65.1 48.9C65.6 48.9 66.1 48.9 66.5 49.1C67.5 49.4 68.3 50.1 68.7 51.1C69.1 52 69.2001 53.1 68.8001 54.1C68.2001 55.7 66.7 56.7 65 56.7C64.6 56.7 64.1001 56.7 63.7001 56.5ZM65.3001 59.6V59.3L65.2 59C65.1 58.6 65.0001 58.2 64.8001 57.9H65.1C65.4 57.9 65.7 57.8 66 57.8C65.7 58.3 65.5001 59 65.3001 59.6ZM70.3001 64.2C69.9001 64.6 69.2 64.8 68.5 64.8C67.7 64.7 67.1 64.5 66.7 64C66.4 63.6 66.2 63.1 66.2 62.5C66.7 63 67.3 63.3 68 63.3C68.1 63.3 68.2 63.3 68.2 63.3C68.9 63.3 69.5 63 70 62.6C70.4 62.2 70.7 61.6 70.7 61C70.9 61.4 71 61.9 71 62.4C71 63.1 70.7001 63.8 70.3001 64.2ZM71.1 58.2C70.3 57.5 70 57 69.7 56.7V56.3C69.7 56.2 69.8001 56.1 69.9001 56H70.2C70.7 55.9 71.1 55.8 71.5 55.8C72 55.8 72.4 55.9 72.7 56.2C73 56.4 73.3001 56.8 73.3001 57.1C73.4001 57.5 73.3 57.8 73 58.1C72.5 58.7 71.7 58.7 71.1 58.2ZM75.8001 59.7C74.8001 60.8 73.4001 60.9 72.3001 59.9C72.2001 59.8 72.2 59.8 72.1 59.7C72.7 59.7 73.3001 59.4 73.8001 58.8C74.3001 58.3 74.5001 57.6 74.4001 57C74.4001 56.4 74.1 55.9 73.7 55.6C74.4 55.6 74.9001 55.8 75.4001 56.2C76.0001 56.7 76.3001 57.3 76.4001 57.9C76.5001 58.5 76.3001 59.2 75.8001 59.7ZM78 51.8C77.9 53.1 77.0001 53.9 75.8001 54C76.2001 53.7 76.5 53.1 76.6 52.5C76.7 51.8 76.5 51.1 76.1 50.5C75.7 50 75.1001 49.6 74.4001 49.4C74.7001 49.3 75.1 49.2 75.5 49.2H75.6C76.3 49.2 77.0001 49.5 77.4001 50C77.9001 50.5 78.1 51.1 78 51.8Z" fill="#404041"/>
</svg>
