<svg width="131" height="72" viewBox="0 0 131 72" fill="none" xmlns="http://www.w3.org/2000/svg">
<path d="M80.0002 56.0788C79.8002 55.9774 79.5002 55.6731 79.3002 55.2675C67.9002 37.9266 73.7002 7.50412 73.8002 7.19989L74.2002 5.07031L51.2002 5.17172L51.5002 7.19989C52.6002 15.8196 53.0002 29.0027 50.4002 31.3351C49.1002 32.552 48.0002 33.8703 47.2002 35.3914C45.5002 38.7379 46.3002 42.7943 49.1002 45.2281C53.5002 48.9802 55.8002 50.0957 57.5002 51.0083C59.2002 51.8196 60.1002 52.2252 62.3002 55.3689C70.0002 66.1182 76.0002 66.9295 77.5002 66.9295C77.6002 66.9295 77.6002 66.9295 77.7002 66.9295C78.4002 66.9295 81.4002 66.9295 83.2002 65.2055C84.1002 64.3943 84.6002 63.2788 84.6002 62.0619C84.7002 59.5266 83.0002 57.3971 80.0002 56.0788ZM65.2002 53.1379C62.6002 49.4872 61.2002 48.6759 59.1002 47.6619C57.5002 46.8506 55.5002 45.9379 51.5002 42.3886C49.9002 40.9689 49.5002 38.7379 50.4002 36.9126C51.0002 35.7971 51.8002 34.783 52.8002 33.9717C54.4002 32.6534 55.2002 29.814 55.6002 26.4675C56.4002 27.4816 57.3002 28.3943 58.4002 29.1041C57.8002 30.0168 57.4002 31.0309 57.4002 32.2478C57.4002 35.0872 59.6002 37.4196 62.4002 37.4196C65.1002 37.4196 67.4002 35.0872 67.4002 32.2478C67.4002 31.2337 67.1002 30.321 66.6002 29.5097C67.4002 29.0027 68.2002 28.3943 68.9002 27.583C69.1002 37.3182 70.9002 48.5745 76.6002 57.1943C77.1002 58.0055 77.8002 58.8168 78.8002 59.3238C79.6002 59.6281 81.4002 60.5407 81.3002 61.9604C81.2002 63.3802 77.9002 63.3802 77.9002 63.3802H77.8002H77.7002C77.5002 63.3802 72.4002 63.3802 65.2002 53.1379ZM55.2002 8.72102L70.0002 8.61961C69.8002 9.63369 69.6002 11.0534 69.5002 12.6759C64.1002 16.3266 57.5002 13.4872 55.6002 12.4731C55.4002 11.0534 55.3002 9.7351 55.2002 8.72102ZM68.8002 21.5999C67.3002 24.1351 65.1002 26.9745 62.7002 27.0759C62.6002 27.0759 62.4002 27.0759 62.3002 27.0759C59.3002 26.7717 56.6002 22.1069 55.9002 20.383C55.9002 19.0647 55.9002 17.8478 55.8002 16.6309C57.7002 17.3407 60.4002 18.2534 63.4002 18.2534C65.2002 18.2534 67.2002 17.9492 69.1002 17.1379C68.9002 18.3548 68.9002 19.9774 68.8002 21.5999ZM63.7002 32.2478C63.7002 33.1605 63.0002 33.8703 62.2002 33.8703C61.4002 33.8703 60.7002 33.1605 60.7002 32.2478C60.7002 31.3351 61.3002 30.6252 62.1002 30.6252H62.2002C62.3002 30.6252 62.3002 30.6252 62.4002 30.6252C63.2002 30.7267 63.7002 31.4365 63.7002 32.2478Z" fill="#404041"/>
</svg>
