<svg width="131" height="72" viewBox="0 0 131 72" fill="none" xmlns="http://www.w3.org/2000/svg">
<path d="M51.7996 10C44.7996 10 39.0996 15.6 39.0996 22.5C39.0996 29.4 44.7996 35 51.7996 35C58.7996 35 64.4996 29.4 64.4996 22.5C64.4996 15.6 58.7996 10 51.7996 10ZM51.7996 33.8C45.4996 33.8 40.2996 28.7 40.2996 22.5C40.2996 16.3 45.4996 11.2 51.7996 11.2C58.1996 11.2 63.2996 16.3 63.2996 22.5C63.2996 28.7 58.0996 33.8 51.7996 33.8Z" fill="#404041"/>
<path d="M51.8992 5.59961C42.3992 5.59961 34.6992 13.1996 34.6992 22.4996C34.6992 31.8996 42.3992 39.3996 51.8992 39.3996C61.2992 39.3996 68.9992 31.7996 68.9992 22.4996C68.9992 13.1996 61.2992 5.69961 51.8992 5.59961ZM51.7992 37.9996C43.0992 37.9996 36.0992 31.0996 36.0992 22.5996C36.0992 14.0996 43.1992 7.19961 51.7992 7.19961C60.4992 7.19961 67.4992 14.0996 67.3992 22.5996C67.3992 31.0996 60.3992 37.9996 51.7992 37.9996Z" fill="#404041"/>
<path d="M79.2 36.9004C72.2 36.9004 66.5 42.5004 66.5 49.4004C66.5 56.3004 72.2 61.9004 79.2 61.9004C86.2 61.9004 91.9 56.3004 91.9 49.4004C91.9 42.5004 86.2 36.9004 79.2 36.9004ZM79.2 60.7004C72.9 60.7004 67.7 55.6004 67.7 49.4004C67.7 43.2004 72.9 38.1004 79.2 38.1004C85.5 38.1004 90.7 43.2004 90.7 49.4004C90.7 55.6004 85.5 60.7004 79.2 60.7004Z" fill="#404041"/>
<path d="M79.2 32.5996C69.7 32.5996 62 40.1996 62 49.4996C62 58.7996 69.7 66.2996 79.2 66.2996C88.6 66.2996 96.3 58.7996 96.4 49.4996C96.4 40.1996 88.7 32.5996 79.2 32.5996ZM79.2 64.8996C70.6 64.8996 63.6 57.9996 63.6 49.4996C63.6 40.9996 70.6 34.0996 79.2 34.0996C87.8 34.0996 94.8 40.9996 94.9 49.4996C94.9 57.9996 87.8 64.8996 79.2 64.8996Z" fill="#404041"/>
</svg>
