<svg width="131" height="72" viewBox="0 0 131 72" fill="none" xmlns="http://www.w3.org/2000/svg">
<path d="M53.1998 9.19961C51.1998 9.19961 49.5998 10.7996 49.5998 12.7996C49.5998 14.7996 51.1998 16.3996 53.1998 16.3996C55.1998 16.3996 56.7998 14.7996 56.7998 12.7996C56.7998 10.7996 55.1998 9.19961 53.1998 9.19961ZM53.1998 14.8996C51.9998 14.8996 51.0998 13.8996 51.0998 12.7996C51.0998 11.5996 51.9998 10.6996 53.1998 10.6996C54.3998 10.6996 55.2998 11.6996 55.2998 12.7996C55.2998 13.8996 54.3998 14.8996 53.1998 14.8996ZM53.1998 9.19961C51.1998 9.19961 49.5998 10.7996 49.5998 12.7996C49.5998 14.7996 51.1998 16.3996 53.1998 16.3996C55.1998 16.3996 56.7998 14.7996 56.7998 12.7996C56.7998 10.7996 55.1998 9.19961 53.1998 9.19961ZM53.1998 14.8996C51.9998 14.8996 51.0998 13.8996 51.0998 12.7996C51.0998 11.5996 51.9998 10.6996 53.1998 10.6996C54.3998 10.6996 55.2998 11.6996 55.2998 12.7996C55.2998 13.8996 54.3998 14.8996 53.1998 14.8996ZM53.1998 9.19961C51.1998 9.19961 49.5998 10.7996 49.5998 12.7996C49.5998 14.7996 51.1998 16.3996 53.1998 16.3996C55.1998 16.3996 56.7998 14.7996 56.7998 12.7996C56.7998 10.7996 55.1998 9.19961 53.1998 9.19961ZM53.1998 14.8996C51.9998 14.8996 51.0998 13.8996 51.0998 12.7996C51.0998 11.5996 51.9998 10.6996 53.1998 10.6996C54.3998 10.6996 55.2998 11.6996 55.2998 12.7996C55.2998 13.8996 54.3998 14.8996 53.1998 14.8996ZM53.1998 9.19961C51.1998 9.19961 49.5998 10.7996 49.5998 12.7996C49.5998 14.7996 51.1998 16.3996 53.1998 16.3996C55.1998 16.3996 56.7998 14.7996 56.7998 12.7996C56.7998 10.7996 55.1998 9.19961 53.1998 9.19961ZM53.1998 14.8996C51.9998 14.8996 51.0998 13.8996 51.0998 12.7996C51.0998 11.5996 51.9998 10.6996 53.1998 10.6996C54.3998 10.6996 55.2998 11.6996 55.2998 12.7996C55.2998 13.8996 54.3998 14.8996 53.1998 14.8996ZM46.0998 53.4996C45.6998 53.3996 45.2998 53.6996 45.1998 54.0996C45.0998 54.4996 45.3998 54.8996 45.6998 54.9996C45.7998 54.9996 45.7998 54.9996 45.8998 54.9996C46.2998 54.9996 46.5998 54.7996 46.6998 54.3996C46.7998 53.9996 46.4998 53.5996 46.0998 53.4996ZM46.6998 57.3996C46.5998 56.9996 46.1998 56.6996 45.7998 56.7996C45.3998 56.8996 45.0998 57.2996 45.1998 57.6996C45.2998 58.0996 45.6998 58.2996 45.9998 58.2996C46.0998 58.2996 46.0998 58.2996 46.1998 58.2996C46.5998 58.1996 46.7998 57.6996 46.6998 57.3996ZM47.1998 50.3996C46.7998 50.2996 46.2998 50.4996 46.1998 50.8996C46.0998 51.2996 46.2998 51.7996 46.7998 51.8996C46.7998 51.8996 46.8998 51.8996 46.9998 51.8996C47.2998 51.8996 47.5998 51.6996 47.6998 51.3996C47.7998 50.9996 47.5998 50.4996 47.1998 50.3996ZM47.9998 59.8996C47.6998 59.5996 47.1998 59.4996 46.8998 59.7996C46.5998 60.0996 46.4998 60.5996 46.7998 60.8996C46.9998 61.0996 47.1998 61.1996 47.3998 61.1996C47.5998 61.1996 47.7998 61.0996 47.8998 60.9996C48.2998 60.6996 48.2998 60.2996 47.9998 59.8996ZM48.2998 47.2996C47.8998 47.1996 47.3998 47.3996 47.2998 47.7996C47.1998 48.1996 47.3998 48.6996 47.7998 48.7996H48.0998C48.3998 48.7996 48.6998 48.5996 48.7998 48.2996C48.8998 47.8996 48.6998 47.3996 48.2998 47.2996ZM49.3998 44.1996C48.9998 44.0996 48.4998 44.2996 48.3998 44.6996C48.1998 45.0996 48.3998 45.5996 48.9998 45.6996C48.9998 45.6996 49.0998 45.6996 49.1998 45.6996C49.4998 45.6996 49.7998 45.4996 49.8998 45.1996C49.9998 44.7996 49.7998 44.2996 49.3998 44.1996ZM50.2998 61.6996C49.9998 61.5996 49.4998 61.6996 49.2998 62.0996C49.1998 62.4996 49.2998 62.8996 49.6998 63.0996C49.7998 63.1996 49.8998 63.1996 49.9998 63.1996C50.2998 63.1996 50.5998 63.0996 50.6998 62.7996C50.8998 62.3996 50.7998 61.8996 50.2998 61.6996ZM50.3998 41.0996C49.9998 40.9996 49.4998 41.1996 49.3998 41.5996C49.2998 41.9996 49.4998 42.4996 49.9998 42.5996C49.9998 42.5996 50.0998 42.5996 50.1998 42.5996C50.4998 42.5996 50.7998 42.3996 50.8998 42.0996C50.9998 41.6996 50.7998 41.1996 50.3998 41.0996ZM51.4998 37.9996C51.0998 37.8996 50.5998 38.0996 50.4998 38.4996C50.3998 38.8996 50.5998 39.3996 51.0998 39.4996C51.0998 39.4996 51.1998 39.4996 51.2998 39.4996C51.5998 39.4996 51.8998 39.2996 51.9998 38.9996C52.0998 38.5996 51.8998 38.0996 51.4998 37.9996ZM53.1998 35.7996C52.7998 35.7996 52.4998 36.0996 52.3998 36.5996C52.3998 37.0996 52.7998 37.3996 53.1998 37.3996C53.6998 37.3996 53.9998 36.9996 53.9998 36.5996C53.9998 36.0996 53.5998 35.7996 53.1998 35.7996ZM53.2998 62.2996C52.7998 62.2996 52.4998 62.6996 52.4998 63.0996C52.4998 63.5996 52.8998 63.8996 53.2998 63.8996C53.6998 63.8996 53.9998 63.5996 54.0998 63.0996C54.0998 62.5996 53.6998 62.2996 53.2998 62.2996ZM53.1998 9.19961C51.1998 9.19961 49.5998 10.7996 49.5998 12.7996C49.5998 14.7996 51.1998 16.3996 53.1998 16.3996C55.1998 16.3996 56.7998 14.7996 56.7998 12.7996C56.7998 10.7996 55.1998 9.19961 53.1998 9.19961ZM53.1998 14.8996C51.9998 14.8996 51.0998 13.8996 51.0998 12.7996C51.0998 11.5996 51.9998 10.6996 53.1998 10.6996C54.3998 10.6996 55.2998 11.6996 55.2998 12.7996C55.2998 13.8996 54.3998 14.8996 53.1998 14.8996ZM55.9998 38.5996C55.7998 38.1996 55.3998 37.9996 54.9998 38.0996C54.5998 38.1996 54.3998 38.5996 54.4998 39.0996C54.5998 39.3996 54.8998 39.5996 55.1998 39.5996H55.4998C55.8998 39.3996 56.0998 38.9996 55.9998 38.5996ZM57.0998 41.5996C56.8998 41.1996 56.4998 40.9996 56.1998 41.0996C55.7998 41.2996 55.5998 41.6996 55.6998 42.0996C55.7998 42.3996 56.0998 42.5996 56.3998 42.5996C56.3998 42.5996 56.4998 42.5996 56.5998 42.5996C56.9998 42.3996 57.1998 41.9996 57.0998 41.5996ZM57.1998 62.1996C57.0998 61.7996 56.5998 61.5996 56.1998 61.7996C55.7998 61.9996 55.5998 62.3996 55.7998 62.7996C55.8998 62.9996 56.1998 63.1996 56.4998 63.1996C56.5998 63.1996 56.6998 63.1996 56.7998 63.0996C57.1998 62.8996 57.3998 62.4996 57.1998 62.1996ZM58.0998 44.6996C57.9998 44.2996 57.4998 44.0996 57.0998 44.1996C56.6998 44.3996 56.4998 44.7996 56.5998 45.1996C56.6998 45.4996 56.9998 45.6996 57.2998 45.6996H57.5998C57.9998 45.4996 58.1998 45.0996 58.0998 44.6996ZM58.1998 54.0996L53.8998 41.7996C53.7998 41.4996 53.4998 41.2996 53.1998 41.2996C52.8998 41.2996 52.5998 41.4996 52.4998 41.7996L48.1998 54.0996C47.5998 55.9996 48.0998 58.0996 49.4998 59.4996C50.4998 60.4996 51.8998 60.9996 53.2998 60.9996C54.6998 60.9996 55.9998 60.4996 56.9998 59.4996C58.3998 58.0996 58.8998 55.9996 58.1998 54.0996ZM55.8998 58.3996C55.1998 59.0996 54.2998 59.4996 53.2998 59.4996C52.2998 59.4996 51.3998 59.0996 50.6998 58.3996C49.6998 57.3996 49.2998 55.8996 49.7998 54.5996L53.2998 44.3996L56.7998 54.5996C57.2998 55.9996 56.8998 57.3996 55.8998 58.3996ZM59.1998 47.7996C59.0998 47.3996 58.5998 47.1996 58.2998 47.2996C57.8998 47.4996 57.6998 47.8996 57.7998 48.2996C57.8998 48.5996 58.1998 48.7996 58.4998 48.7996C58.4998 48.7996 58.5998 48.7996 58.6998 48.7996C59.0998 48.5996 59.2998 48.1996 59.1998 47.7996ZM59.5998 59.7996C59.2998 59.4996 58.7998 59.5996 58.4998 59.8996C58.1998 60.2996 58.2998 60.6996 58.5998 60.9996C58.7998 61.0996 58.8998 61.1996 59.0998 61.1996C59.2998 61.1996 59.4998 61.0996 59.6998 60.8996C59.8998 60.5996 59.8998 60.0996 59.5998 59.7996ZM60.2998 50.8996C60.0998 50.4996 59.6998 50.2996 59.2998 50.3996C58.8998 50.5996 58.6998 50.9996 58.7998 51.3996C58.8998 51.6996 59.1998 51.8996 59.4998 51.8996H59.7998C60.1998 51.6996 60.3998 51.2996 60.2998 50.8996ZM60.5998 56.7996C60.1998 56.6996 59.7998 56.9996 59.6998 57.3996C59.5998 57.7996 59.8998 58.1996 60.2998 58.2996C60.3998 58.2996 60.3998 58.2996 60.4998 58.2996C60.8998 58.2996 61.1998 58.0996 61.2998 57.6996C61.3998 57.2996 61.0998 56.8996 60.5998 56.7996ZM61.2998 54.0996C61.1998 53.6996 60.7998 53.3996 60.3998 53.4996C59.9998 53.5996 59.6998 53.9996 59.7998 54.3996C59.7998 54.7996 60.1998 54.9996 60.4998 54.9996C60.5998 54.9996 60.5998 54.9996 60.6998 54.9996C61.0998 54.8996 61.3998 54.4996 61.2998 54.0996ZM61.2998 54.0996C61.1998 53.6996 60.7998 53.3996 60.3998 53.4996C59.9998 53.5996 59.6998 53.9996 59.7998 54.3996C59.7998 54.7996 60.1998 54.9996 60.4998 54.9996C60.5998 54.9996 60.5998 54.9996 60.6998 54.9996C61.0998 54.8996 61.3998 54.4996 61.2998 54.0996ZM60.5998 56.7996C60.1998 56.6996 59.7998 56.9996 59.6998 57.3996C59.5998 57.7996 59.8998 58.1996 60.2998 58.2996C60.3998 58.2996 60.3998 58.2996 60.4998 58.2996C60.8998 58.2996 61.1998 58.0996 61.2998 57.6996C61.3998 57.2996 61.0998 56.8996 60.5998 56.7996ZM60.2998 50.8996C60.0998 50.4996 59.6998 50.2996 59.2998 50.3996C58.8998 50.5996 58.6998 50.9996 58.7998 51.3996C58.8998 51.6996 59.1998 51.8996 59.4998 51.8996H59.7998C60.1998 51.6996 60.3998 51.2996 60.2998 50.8996ZM59.5998 59.7996C59.2998 59.4996 58.7998 59.5996 58.4998 59.8996C58.1998 60.2996 58.2998 60.6996 58.5998 60.9996C58.7998 61.0996 58.8998 61.1996 59.0998 61.1996C59.2998 61.1996 59.4998 61.0996 59.6998 60.8996C59.8998 60.5996 59.8998 60.0996 59.5998 59.7996ZM59.1998 47.7996C59.0998 47.3996 58.5998 47.1996 58.2998 47.2996C57.8998 47.4996 57.6998 47.8996 57.7998 48.2996C57.8998 48.5996 58.1998 48.7996 58.4998 48.7996C58.4998 48.7996 58.5998 48.7996 58.6998 48.7996C59.0998 48.5996 59.2998 48.1996 59.1998 47.7996ZM58.1998 54.0996L53.8998 41.7996C53.7998 41.4996 53.4998 41.2996 53.1998 41.2996C52.8998 41.2996 52.5998 41.4996 52.4998 41.7996L48.1998 54.0996C47.5998 55.9996 48.0998 58.0996 49.4998 59.4996C50.4998 60.4996 51.8998 60.9996 53.2998 60.9996C54.6998 60.9996 55.9998 60.4996 56.9998 59.4996C58.3998 58.0996 58.8998 55.9996 58.1998 54.0996ZM55.8998 58.3996C55.1998 59.0996 54.2998 59.4996 53.2998 59.4996C52.2998 59.4996 51.3998 59.0996 50.6998 58.3996C49.6998 57.3996 49.2998 55.8996 49.7998 54.5996L53.2998 44.3996L56.7998 54.5996C57.2998 55.9996 56.8998 57.3996 55.8998 58.3996ZM58.0998 44.6996C57.9998 44.2996 57.4998 44.0996 57.0998 44.1996C56.6998 44.3996 56.4998 44.7996 56.5998 45.1996C56.6998 45.4996 56.9998 45.6996 57.2998 45.6996H57.5998C57.9998 45.4996 58.1998 45.0996 58.0998 44.6996ZM57.1998 62.1996C57.0998 61.7996 56.5998 61.5996 56.1998 61.7996C55.7998 61.9996 55.5998 62.3996 55.7998 62.7996C55.8998 62.9996 56.1998 63.1996 56.4998 63.1996C56.5998 63.1996 56.6998 63.1996 56.7998 63.0996C57.1998 62.8996 57.3998 62.4996 57.1998 62.1996ZM57.0998 41.5996C56.8998 41.1996 56.4998 40.9996 56.1998 41.0996C55.7998 41.2996 55.5998 41.6996 55.6998 42.0996C55.7998 42.3996 56.0998 42.5996 56.3998 42.5996C56.3998 42.5996 56.4998 42.5996 56.5998 42.5996C56.9998 42.3996 57.1998 41.9996 57.0998 41.5996ZM55.9998 38.5996C55.7998 38.1996 55.3998 37.9996 54.9998 38.0996C54.5998 38.1996 54.3998 38.5996 54.4998 39.0996C54.5998 39.3996 54.8998 39.5996 55.1998 39.5996H55.4998C55.8998 39.3996 56.0998 38.9996 55.9998 38.5996ZM53.2998 62.2996C52.7998 62.2996 52.4998 62.6996 52.4998 63.0996C52.4998 63.5996 52.8998 63.8996 53.2998 63.8996C53.6998 63.8996 53.9998 63.5996 54.0998 63.0996C54.0998 62.5996 53.6998 62.2996 53.2998 62.2996ZM53.1998 35.7996C52.7998 35.7996 52.4998 36.0996 52.3998 36.5996C52.3998 37.0996 52.7998 37.3996 53.1998 37.3996C53.6998 37.3996 53.9998 36.9996 53.9998 36.5996C53.9998 36.0996 53.5998 35.7996 53.1998 35.7996ZM51.4998 37.9996C51.0998 37.8996 50.5998 38.0996 50.4998 38.4996C50.3998 38.8996 50.5998 39.3996 51.0998 39.4996C51.0998 39.4996 51.1998 39.4996 51.2998 39.4996C51.5998 39.4996 51.8998 39.2996 51.9998 38.9996C52.0998 38.5996 51.8998 38.0996 51.4998 37.9996ZM50.3998 41.0996C49.9998 40.9996 49.4998 41.1996 49.3998 41.5996C49.2998 41.9996 49.4998 42.4996 49.9998 42.5996C49.9998 42.5996 50.0998 42.5996 50.1998 42.5996C50.4998 42.5996 50.7998 42.3996 50.8998 42.0996C50.9998 41.6996 50.7998 41.1996 50.3998 41.0996ZM50.2998 61.6996C49.9998 61.5996 49.4998 61.6996 49.2998 62.0996C49.1998 62.4996 49.2998 62.8996 49.6998 63.0996C49.7998 63.1996 49.8998 63.1996 49.9998 63.1996C50.2998 63.1996 50.5998 63.0996 50.6998 62.7996C50.8998 62.3996 50.7998 61.8996 50.2998 61.6996ZM49.3998 44.1996C48.9998 44.0996 48.4998 44.2996 48.3998 44.6996C48.1998 45.0996 48.3998 45.5996 48.9998 45.6996C48.9998 45.6996 49.0998 45.6996 49.1998 45.6996C49.4998 45.6996 49.7998 45.4996 49.8998 45.1996C49.9998 44.7996 49.7998 44.2996 49.3998 44.1996ZM48.2998 47.2996C47.8998 47.1996 47.3998 47.3996 47.2998 47.7996C47.1998 48.1996 47.3998 48.6996 47.7998 48.7996H48.0998C48.3998 48.7996 48.6998 48.5996 48.7998 48.2996C48.8998 47.8996 48.6998 47.3996 48.2998 47.2996ZM47.9998 59.8996C47.6998 59.5996 47.1998 59.4996 46.8998 59.7996C46.5998 60.0996 46.4998 60.5996 46.7998 60.8996C46.9998 61.0996 47.1998 61.1996 47.3998 61.1996C47.5998 61.1996 47.7998 61.0996 47.8998 60.9996C48.2998 60.6996 48.2998 60.2996 47.9998 59.8996ZM47.1998 50.3996C46.7998 50.2996 46.2998 50.4996 46.1998 50.8996C46.0998 51.2996 46.2998 51.7996 46.7998 51.8996C46.7998 51.8996 46.8998 51.8996 46.9998 51.8996C47.2998 51.8996 47.5998 51.6996 47.6998 51.3996C47.7998 50.9996 47.5998 50.4996 47.1998 50.3996ZM46.6998 57.3996C46.5998 56.9996 46.1998 56.6996 45.7998 56.7996C45.3998 56.8996 45.0998 57.2996 45.1998 57.6996C45.2998 58.0996 45.6998 58.2996 45.9998 58.2996C46.0998 58.2996 46.0998 58.2996 46.1998 58.2996C46.5998 58.1996 46.7998 57.6996 46.6998 57.3996ZM46.0998 53.4996C45.6998 53.3996 45.2998 53.6996 45.1998 54.0996C45.0998 54.4996 45.3998 54.8996 45.6998 54.9996C45.7998 54.9996 45.7998 54.9996 45.8998 54.9996C46.2998 54.9996 46.5998 54.7996 46.6998 54.3996C46.7998 53.9996 46.4998 53.5996 46.0998 53.4996ZM53.1998 9.19961C51.1998 9.19961 49.5998 10.7996 49.5998 12.7996C49.5998 14.7996 51.1998 16.3996 53.1998 16.3996C55.1998 16.3996 56.7998 14.7996 56.7998 12.7996C56.7998 10.7996 55.1998 9.19961 53.1998 9.19961ZM53.1998 14.8996C51.9998 14.8996 51.0998 13.8996 51.0998 12.7996C51.0998 11.5996 51.9998 10.6996 53.1998 10.6996C54.3998 10.6996 55.2998 11.6996 55.2998 12.7996C55.2998 13.8996 54.3998 14.8996 53.1998 14.8996ZM46.0998 53.4996C45.6998 53.3996 45.2998 53.6996 45.1998 54.0996C45.0998 54.4996 45.3998 54.8996 45.6998 54.9996C45.7998 54.9996 45.7998 54.9996 45.8998 54.9996C46.2998 54.9996 46.5998 54.7996 46.6998 54.3996C46.7998 53.9996 46.4998 53.5996 46.0998 53.4996ZM46.6998 57.3996C46.5998 56.9996 46.1998 56.6996 45.7998 56.7996C45.3998 56.8996 45.0998 57.2996 45.1998 57.6996C45.2998 58.0996 45.6998 58.2996 45.9998 58.2996C46.0998 58.2996 46.0998 58.2996 46.1998 58.2996C46.5998 58.1996 46.7998 57.6996 46.6998 57.3996ZM47.1998 50.3996C46.7998 50.2996 46.2998 50.4996 46.1998 50.8996C46.0998 51.2996 46.2998 51.7996 46.7998 51.8996C46.7998 51.8996 46.8998 51.8996 46.9998 51.8996C47.2998 51.8996 47.5998 51.6996 47.6998 51.3996C47.7998 50.9996 47.5998 50.4996 47.1998 50.3996ZM47.9998 59.8996C47.6998 59.5996 47.1998 59.4996 46.8998 59.7996C46.5998 60.0996 46.4998 60.5996 46.7998 60.8996C46.9998 61.0996 47.1998 61.1996 47.3998 61.1996C47.5998 61.1996 47.7998 61.0996 47.8998 60.9996C48.2998 60.6996 48.2998 60.2996 47.9998 59.8996ZM48.2998 47.2996C47.8998 47.1996 47.3998 47.3996 47.2998 47.7996C47.1998 48.1996 47.3998 48.6996 47.7998 48.7996H48.0998C48.3998 48.7996 48.6998 48.5996 48.7998 48.2996C48.8998 47.8996 48.6998 47.3996 48.2998 47.2996ZM49.3998 44.1996C48.9998 44.0996 48.4998 44.2996 48.3998 44.6996C48.1998 45.0996 48.3998 45.5996 48.9998 45.6996C48.9998 45.6996 49.0998 45.6996 49.1998 45.6996C49.4998 45.6996 49.7998 45.4996 49.8998 45.1996C49.9998 44.7996 49.7998 44.2996 49.3998 44.1996ZM50.2998 61.6996C49.9998 61.5996 49.4998 61.6996 49.2998 62.0996C49.1998 62.4996 49.2998 62.8996 49.6998 63.0996C49.7998 63.1996 49.8998 63.1996 49.9998 63.1996C50.2998 63.1996 50.5998 63.0996 50.6998 62.7996C50.8998 62.3996 50.7998 61.8996 50.2998 61.6996ZM50.3998 41.0996C49.9998 40.9996 49.4998 41.1996 49.3998 41.5996C49.2998 41.9996 49.4998 42.4996 49.9998 42.5996C49.9998 42.5996 50.0998 42.5996 50.1998 42.5996C50.4998 42.5996 50.7998 42.3996 50.8998 42.0996C50.9998 41.6996 50.7998 41.1996 50.3998 41.0996ZM51.4998 37.9996C51.0998 37.8996 50.5998 38.0996 50.4998 38.4996C50.3998 38.8996 50.5998 39.3996 51.0998 39.4996C51.0998 39.4996 51.1998 39.4996 51.2998 39.4996C51.5998 39.4996 51.8998 39.2996 51.9998 38.9996C52.0998 38.5996 51.8998 38.0996 51.4998 37.9996ZM53.1998 35.7996C52.7998 35.7996 52.4998 36.0996 52.3998 36.5996C52.3998 37.0996 52.7998 37.3996 53.1998 37.3996C53.6998 37.3996 53.9998 36.9996 53.9998 36.5996C53.9998 36.0996 53.5998 35.7996 53.1998 35.7996ZM53.2998 62.2996C52.7998 62.2996 52.4998 62.6996 52.4998 63.0996C52.4998 63.5996 52.8998 63.8996 53.2998 63.8996C53.6998 63.8996 53.9998 63.5996 54.0998 63.0996C54.0998 62.5996 53.6998 62.2996 53.2998 62.2996ZM53.1998 9.19961C51.1998 9.19961 49.5998 10.7996 49.5998 12.7996C49.5998 14.7996 51.1998 16.3996 53.1998 16.3996C55.1998 16.3996 56.7998 14.7996 56.7998 12.7996C56.7998 10.7996 55.1998 9.19961 53.1998 9.19961ZM53.1998 14.8996C51.9998 14.8996 51.0998 13.8996 51.0998 12.7996C51.0998 11.5996 51.9998 10.6996 53.1998 10.6996C54.3998 10.6996 55.2998 11.6996 55.2998 12.7996C55.2998 13.8996 54.3998 14.8996 53.1998 14.8996ZM55.9998 38.5996C55.7998 38.1996 55.3998 37.9996 54.9998 38.0996C54.5998 38.1996 54.3998 38.5996 54.4998 39.0996C54.5998 39.3996 54.8998 39.5996 55.1998 39.5996H55.4998C55.8998 39.3996 56.0998 38.9996 55.9998 38.5996ZM57.0998 41.5996C56.8998 41.1996 56.4998 40.9996 56.1998 41.0996C55.7998 41.2996 55.5998 41.6996 55.6998 42.0996C55.7998 42.3996 56.0998 42.5996 56.3998 42.5996C56.3998 42.5996 56.4998 42.5996 56.5998 42.5996C56.9998 42.3996 57.1998 41.9996 57.0998 41.5996ZM57.1998 62.1996C57.0998 61.7996 56.5998 61.5996 56.1998 61.7996C55.7998 61.9996 55.5998 62.3996 55.7998 62.7996C55.8998 62.9996 56.1998 63.1996 56.4998 63.1996C56.5998 63.1996 56.6998 63.1996 56.7998 63.0996C57.1998 62.8996 57.3998 62.4996 57.1998 62.1996ZM58.0998 44.6996C57.9998 44.2996 57.4998 44.0996 57.0998 44.1996C56.6998 44.3996 56.4998 44.7996 56.5998 45.1996C56.6998 45.4996 56.9998 45.6996 57.2998 45.6996H57.5998C57.9998 45.4996 58.1998 45.0996 58.0998 44.6996ZM58.1998 54.0996L53.8998 41.7996C53.7998 41.4996 53.4998 41.2996 53.1998 41.2996C52.8998 41.2996 52.5998 41.4996 52.4998 41.7996L48.1998 54.0996C47.5998 55.9996 48.0998 58.0996 49.4998 59.4996C50.4998 60.4996 51.8998 60.9996 53.2998 60.9996C54.6998 60.9996 55.9998 60.4996 56.9998 59.4996C58.3998 58.0996 58.8998 55.9996 58.1998 54.0996ZM55.8998 58.3996C55.1998 59.0996 54.2998 59.4996 53.2998 59.4996C52.2998 59.4996 51.3998 59.0996 50.6998 58.3996C49.6998 57.3996 49.2998 55.8996 49.7998 54.5996L53.2998 44.3996L56.7998 54.5996C57.2998 55.9996 56.8998 57.3996 55.8998 58.3996ZM59.1998 47.7996C59.0998 47.3996 58.5998 47.1996 58.2998 47.2996C57.8998 47.4996 57.6998 47.8996 57.7998 48.2996C57.8998 48.5996 58.1998 48.7996 58.4998 48.7996C58.4998 48.7996 58.5998 48.7996 58.6998 48.7996C59.0998 48.5996 59.2998 48.1996 59.1998 47.7996ZM59.5998 59.7996C59.2998 59.4996 58.7998 59.5996 58.4998 59.8996C58.1998 60.2996 58.2998 60.6996 58.5998 60.9996C58.7998 61.0996 58.8998 61.1996 59.0998 61.1996C59.2998 61.1996 59.4998 61.0996 59.6998 60.8996C59.8998 60.5996 59.8998 60.0996 59.5998 59.7996ZM60.2998 50.8996C60.0998 50.4996 59.6998 50.2996 59.2998 50.3996C58.8998 50.5996 58.6998 50.9996 58.7998 51.3996C58.8998 51.6996 59.1998 51.8996 59.4998 51.8996H59.7998C60.1998 51.6996 60.3998 51.2996 60.2998 50.8996ZM60.5998 56.7996C60.1998 56.6996 59.7998 56.9996 59.6998 57.3996C59.5998 57.7996 59.8998 58.1996 60.2998 58.2996C60.3998 58.2996 60.3998 58.2996 60.4998 58.2996C60.8998 58.2996 61.1998 58.0996 61.2998 57.6996C61.3998 57.2996 61.0998 56.8996 60.5998 56.7996ZM61.2998 54.0996C61.1998 53.6996 60.7998 53.3996 60.3998 53.4996C59.9998 53.5996 59.6998 53.9996 59.7998 54.3996C59.7998 54.7996 60.1998 54.9996 60.4998 54.9996C60.5998 54.9996 60.5998 54.9996 60.6998 54.9996C61.0998 54.8996 61.3998 54.4996 61.2998 54.0996ZM59.7998 54.3996C59.7998 54.7996 60.1998 54.9996 60.4998 54.9996C60.5998 54.9996 60.5998 54.9996 60.6998 54.9996C61.0998 54.8996 61.3998 54.4996 61.2998 54.0996C61.1998 53.6996 60.7998 53.3996 60.3998 53.4996C59.9998 53.5996 59.6998 53.9996 59.7998 54.3996ZM60.5998 56.7996C60.1998 56.6996 59.7998 56.9996 59.6998 57.3996C59.5998 57.7996 59.8998 58.1996 60.2998 58.2996C60.3998 58.2996 60.3998 58.2996 60.4998 58.2996C60.8998 58.2996 61.1998 58.0996 61.2998 57.6996C61.3998 57.2996 61.0998 56.8996 60.5998 56.7996ZM58.7998 51.3996C58.8998 51.6996 59.1998 51.8996 59.4998 51.8996H59.7998C60.1998 51.6996 60.3998 51.2996 60.2998 50.8996C60.0998 50.4996 59.6998 50.2996 59.2998 50.3996C58.8998 50.5996 58.6998 50.9996 58.7998 51.3996ZM58.4998 59.8996C58.1998 60.2996 58.2998 60.6996 58.5998 60.9996C58.7998 61.0996 58.8998 61.1996 59.0998 61.1996C59.2998 61.1996 59.4998 61.0996 59.6998 60.8996C59.8998 60.5996 59.8998 60.0996 59.5998 59.7996C59.2998 59.4996 58.7998 59.5996 58.4998 59.8996ZM57.7998 48.2996C57.8998 48.5996 58.1998 48.7996 58.4998 48.7996C58.4998 48.7996 58.5998 48.7996 58.6998 48.7996C59.0998 48.5996 59.2998 48.1996 59.1998 47.7996C59.0998 47.3996 58.5998 47.1996 58.2998 47.2996C57.8998 47.4996 57.6998 47.8996 57.7998 48.2996ZM53.8998 41.7996C53.7998 41.4996 53.4998 41.2996 53.1998 41.2996C52.8998 41.2996 52.5998 41.4996 52.4998 41.7996L48.1998 54.0996C47.5998 55.9996 48.0998 58.0996 49.4998 59.4996C50.4998 60.4996 51.8998 60.9996 53.2998 60.9996C54.6998 60.9996 55.9998 60.4996 56.9998 59.4996C58.3998 58.0996 58.8998 55.9996 58.1998 54.0996L53.8998 41.7996ZM55.8998 58.3996C55.1998 59.0996 54.2998 59.4996 53.2998 59.4996C52.2998 59.4996 51.3998 59.0996 50.6998 58.3996C49.6998 57.3996 49.2998 55.8996 49.7998 54.5996L53.2998 44.3996L56.7998 54.5996C57.2998 55.9996 56.8998 57.3996 55.8998 58.3996ZM56.5998 45.1996C56.6998 45.4996 56.9998 45.6996 57.2998 45.6996H57.5998C57.9998 45.4996 58.1998 45.0996 58.0998 44.6996C57.9998 44.2996 57.4998 44.0996 57.0998 44.1996C56.6998 44.3996 56.4998 44.7996 56.5998 45.1996ZM56.1998 61.7996C55.7998 61.9996 55.5998 62.3996 55.7998 62.7996C55.8998 62.9996 56.1998 63.1996 56.4998 63.1996C56.5998 63.1996 56.6998 63.1996 56.7998 63.0996C57.1998 62.8996 57.3998 62.4996 57.1998 62.1996C57.0998 61.7996 56.5998 61.5996 56.1998 61.7996ZM55.6998 42.0996C55.7998 42.3996 56.0998 42.5996 56.3998 42.5996C56.3998 42.5996 56.4998 42.5996 56.5998 42.5996C56.9998 42.3996 57.1998 41.9996 57.0998 41.5996C56.8998 41.1996 56.4998 40.9996 56.1998 41.0996C55.7998 41.2996 55.5998 41.6996 55.6998 42.0996ZM55.1998 39.5996H55.4998C55.8998 39.3996 56.0998 38.9996 55.9998 38.5996C55.7998 38.1996 55.3998 37.9996 54.9998 38.0996C54.5998 38.1996 54.3998 38.5996 54.4998 39.0996C54.5998 39.3996 54.8998 39.5996 55.1998 39.5996ZM53.2998 62.2996C52.7998 62.2996 52.4998 62.6996 52.4998 63.0996C52.4998 63.5996 52.8998 63.8996 53.2998 63.8996C53.6998 63.8996 53.9998 63.5996 54.0998 63.0996C54.0998 62.5996 53.6998 62.2996 53.2998 62.2996ZM53.1998 37.3996C53.6998 37.3996 53.9998 36.9996 53.9998 36.5996C53.9998 36.0996 53.5998 35.7996 53.1998 35.7996C52.7998 35.7996 52.4998 36.0996 52.3998 36.5996C52.3998 37.0996 52.7998 37.3996 53.1998 37.3996ZM51.0998 39.4996C51.0998 39.4996 51.1998 39.4996 51.2998 39.4996C51.5998 39.4996 51.8998 39.2996 51.9998 38.9996C52.0998 38.5996 51.8998 38.0996 51.4998 37.9996C51.0998 37.8996 50.5998 38.0996 50.4998 38.4996C50.3998 38.8996 50.5998 39.3996 51.0998 39.4996ZM49.9998 42.5996C49.9998 42.5996 50.0998 42.5996 50.1998 42.5996C50.4998 42.5996 50.7998 42.3996 50.8998 42.0996C50.9998 41.6996 50.7998 41.1996 50.3998 41.0996C49.9998 40.9996 49.4998 41.1996 49.3998 41.5996C49.2998 41.9996 49.4998 42.4996 49.9998 42.5996ZM50.2998 61.6996C49.9998 61.5996 49.4998 61.6996 49.2998 62.0996C49.1998 62.4996 49.2998 62.8996 49.6998 63.0996C49.7998 63.1996 49.8998 63.1996 49.9998 63.1996C50.2998 63.1996 50.5998 63.0996 50.6998 62.7996C50.8998 62.3996 50.7998 61.8996 50.2998 61.6996ZM48.9998 45.6996C48.9998 45.6996 49.0998 45.6996 49.1998 45.6996C49.4998 45.6996 49.7998 45.4996 49.8998 45.1996C49.9998 44.7996 49.7998 44.2996 49.3998 44.1996C48.9998 44.0996 48.4998 44.2996 48.3998 44.6996C48.1998 45.0996 48.3998 45.5996 48.9998 45.6996ZM47.7998 48.7996H48.0998C48.3998 48.7996 48.6998 48.5996 48.7998 48.2996C48.8998 47.8996 48.6998 47.3996 48.2998 47.2996C47.8998 47.1996 47.3998 47.3996 47.2998 47.7996C47.1998 48.1996 47.3998 48.6996 47.7998 48.7996ZM46.8998 59.7996C46.5998 60.0996 46.4998 60.5996 46.7998 60.8996C46.9998 61.0996 47.1998 61.1996 47.3998 61.1996C47.5998 61.1996 47.7998 61.0996 47.8998 60.9996C48.2998 60.6996 48.2998 60.2996 47.9998 59.8996C47.6998 59.5996 47.1998 59.4996 46.8998 59.7996ZM46.7998 51.8996C46.7998 51.8996 46.8998 51.8996 46.9998 51.8996C47.2998 51.8996 47.5998 51.6996 47.6998 51.3996C47.7998 50.9996 47.5998 50.4996 47.1998 50.3996C46.7998 50.2996 46.2998 50.4996 46.1998 50.8996C46.0998 51.2996 46.2998 51.7996 46.7998 51.8996ZM46.6998 57.3996C46.5998 56.9996 46.1998 56.6996 45.7998 56.7996C45.3998 56.8996 45.0998 57.2996 45.1998 57.6996C45.2998 58.0996 45.6998 58.2996 45.9998 58.2996C46.0998 58.2996 46.0998 58.2996 46.1998 58.2996C46.5998 58.1996 46.7998 57.6996 46.6998 57.3996ZM45.6998 54.9996C45.7998 54.9996 45.7998 54.9996 45.8998 54.9996C46.2998 54.9996 46.5998 54.7996 46.6998 54.3996C46.7998 53.9996 46.4998 53.5996 46.0998 53.4996C45.6998 53.3996 45.2998 53.6996 45.1998 54.0996C45.0998 54.4996 45.3998 54.8996 45.6998 54.9996ZM53.1998 9.19961C51.1998 9.19961 49.5998 10.7996 49.5998 12.7996C49.5998 14.7996 51.1998 16.3996 53.1998 16.3996C55.1998 16.3996 56.7998 14.7996 56.7998 12.7996C56.7998 10.7996 55.1998 9.19961 53.1998 9.19961ZM53.1998 14.8996C51.9998 14.8996 51.0998 13.8996 51.0998 12.7996C51.0998 11.5996 51.9998 10.6996 53.1998 10.6996C54.3998 10.6996 55.2998 11.6996 55.2998 12.7996C55.2998 13.8996 54.3998 14.8996 53.1998 14.8996ZM63.5998 52.3996L55.1998 28.2996C56.2998 27.5996 57.0998 26.3996 57.0998 24.9996C57.0998 23.1996 55.7998 21.6996 53.9998 21.2996V20.1996C57.7998 19.7996 60.6998 16.6996 60.6998 12.8996C60.6998 8.89961 57.3998 5.59961 53.2998 5.59961C49.1998 5.59961 45.8998 8.89961 45.8998 12.8996C45.8998 16.6996 48.8998 19.7996 52.5998 20.1996V21.2996C50.7998 21.5996 49.4998 23.1996 49.4998 24.9996C49.4998 26.3996 50.2998 27.5996 51.3998 28.2996L42.9998 52.3996C41.5998 56.2996 42.5998 60.4996 45.5998 63.3996C47.6998 65.3996 50.3998 66.4996 53.2998 66.4996C56.1998 66.4996 58.8998 65.3996 60.9998 63.3996C63.8998 60.4996 64.8998 56.1996 63.5998 52.3996ZM47.2998 12.7996C47.2998 9.59961 49.9998 6.99961 53.1998 6.99961C56.4998 6.99961 59.0998 9.59961 59.0998 12.7996C59.0998 15.9996 56.4998 18.5996 53.1998 18.5996C49.8998 18.5996 47.2998 15.9996 47.2998 12.7996ZM50.9998 24.8996C50.9998 23.9996 51.5998 23.0996 52.4998 22.7996V24.8996C52.4998 25.3996 52.8998 25.6996 53.2998 25.6996C53.7998 25.6996 54.0998 25.2996 54.0998 24.8996V22.7996C54.9998 23.0996 55.5998 23.8996 55.5998 24.8996C55.5998 26.1996 54.5998 27.1996 53.2998 27.1996C51.9998 27.1996 50.8998 26.1996 50.9998 24.8996ZM59.6998 62.2996C57.8998 63.9996 55.5998 64.9996 53.0998 64.9996C50.5998 64.9996 48.2998 63.9996 46.4998 62.2996C43.9998 59.7996 43.0998 56.0996 44.2998 52.7996L52.6998 28.6996H53.6998L61.8998 52.7996C63.0998 56.1996 62.1998 59.7996 59.6998 62.2996ZM60.3998 53.4996C59.9998 53.5996 59.6998 53.9996 59.7998 54.3996C59.7998 54.7996 60.1998 54.9996 60.4998 54.9996C60.5998 54.9996 60.5998 54.9996 60.6998 54.9996C61.0998 54.8996 61.3998 54.4996 61.2998 54.0996C61.1998 53.6996 60.7998 53.3996 60.3998 53.4996ZM60.5998 56.7996C60.1998 56.6996 59.7998 56.9996 59.6998 57.3996C59.5998 57.7996 59.8998 58.1996 60.2998 58.2996C60.3998 58.2996 60.3998 58.2996 60.4998 58.2996C60.8998 58.2996 61.1998 58.0996 61.2998 57.6996C61.3998 57.2996 61.0998 56.8996 60.5998 56.7996ZM58.7998 51.3996C58.8998 51.6996 59.1998 51.8996 59.4998 51.8996H59.7998C60.1998 51.6996 60.3998 51.2996 60.2998 50.8996C60.0998 50.4996 59.6998 50.2996 59.2998 50.3996C58.8998 50.5996 58.6998 50.9996 58.7998 51.3996ZM58.4998 59.8996C58.1998 60.2996 58.2998 60.6996 58.5998 60.9996C58.7998 61.0996 58.8998 61.1996 59.0998 61.1996C59.2998 61.1996 59.4998 61.0996 59.6998 60.8996C59.8998 60.5996 59.8998 60.0996 59.5998 59.7996C59.2998 59.4996 58.7998 59.5996 58.4998 59.8996ZM57.7998 48.2996C57.8998 48.5996 58.1998 48.7996 58.4998 48.7996C58.4998 48.7996 58.5998 48.7996 58.6998 48.7996C59.0998 48.5996 59.2998 48.1996 59.1998 47.7996C59.0998 47.3996 58.5998 47.1996 58.2998 47.2996C57.8998 47.4996 57.6998 47.8996 57.7998 48.2996ZM53.8998 41.7996C53.7998 41.4996 53.4998 41.2996 53.1998 41.2996C52.8998 41.2996 52.5998 41.4996 52.4998 41.7996L48.1998 54.0996C47.5998 55.9996 48.0998 58.0996 49.4998 59.4996C50.4998 60.4996 51.8998 60.9996 53.2998 60.9996C54.6998 60.9996 55.9998 60.4996 56.9998 59.4996C58.3998 58.0996 58.8998 55.9996 58.1998 54.0996L53.8998 41.7996ZM55.8998 58.3996C55.1998 59.0996 54.2998 59.4996 53.2998 59.4996C52.2998 59.4996 51.3998 59.0996 50.6998 58.3996C49.6998 57.3996 49.2998 55.8996 49.7998 54.5996L53.2998 44.3996L56.7998 54.5996C57.2998 55.9996 56.8998 57.3996 55.8998 58.3996ZM56.5998 45.1996C56.6998 45.4996 56.9998 45.6996 57.2998 45.6996H57.5998C57.9998 45.4996 58.1998 45.0996 58.0998 44.6996C57.9998 44.2996 57.4998 44.0996 57.0998 44.1996C56.6998 44.3996 56.4998 44.7996 56.5998 45.1996ZM56.1998 61.7996C55.7998 61.9996 55.5998 62.3996 55.7998 62.7996C55.8998 62.9996 56.1998 63.1996 56.4998 63.1996C56.5998 63.1996 56.6998 63.1996 56.7998 63.0996C57.1998 62.8996 57.3998 62.4996 57.1998 62.1996C57.0998 61.7996 56.5998 61.5996 56.1998 61.7996ZM55.6998 42.0996C55.7998 42.3996 56.0998 42.5996 56.3998 42.5996C56.3998 42.5996 56.4998 42.5996 56.5998 42.5996C56.9998 42.3996 57.1998 41.9996 57.0998 41.5996C56.8998 41.1996 56.4998 40.9996 56.1998 41.0996C55.7998 41.2996 55.5998 41.6996 55.6998 42.0996ZM55.1998 39.5996H55.4998C55.8998 39.3996 56.0998 38.9996 55.9998 38.5996C55.7998 38.1996 55.3998 37.9996 54.9998 38.0996C54.5998 38.1996 54.3998 38.5996 54.4998 39.0996C54.5998 39.3996 54.8998 39.5996 55.1998 39.5996ZM56.7998 12.7996C56.7998 10.7996 55.1998 9.19961 53.1998 9.19961C51.1998 9.19961 49.5998 10.7996 49.5998 12.7996C49.5998 14.7996 51.1998 16.3996 53.1998 16.3996C55.1998 16.3996 56.7998 14.7996 56.7998 12.7996ZM51.0998 12.7996C51.0998 11.5996 51.9998 10.6996 53.1998 10.6996C54.3998 10.6996 55.2998 11.6996 55.2998 12.7996C55.2998 13.8996 54.3998 14.8996 53.1998 14.8996C51.9998 14.8996 51.0998 13.8996 51.0998 12.7996ZM53.2998 62.2996C52.7998 62.2996 52.4998 62.6996 52.4998 63.0996C52.4998 63.5996 52.8998 63.8996 53.2998 63.8996C53.6998 63.8996 53.9998 63.5996 54.0998 63.0996C54.0998 62.5996 53.6998 62.2996 53.2998 62.2996ZM53.1998 37.3996C53.6998 37.3996 53.9998 36.9996 53.9998 36.5996C53.9998 36.0996 53.5998 35.7996 53.1998 35.7996C52.7998 35.7996 52.4998 36.0996 52.3998 36.5996C52.3998 37.0996 52.7998 37.3996 53.1998 37.3996ZM51.0998 39.4996C51.0998 39.4996 51.1998 39.4996 51.2998 39.4996C51.5998 39.4996 51.8998 39.2996 51.9998 38.9996C52.0998 38.5996 51.8998 38.0996 51.4998 37.9996C51.0998 37.8996 50.5998 38.0996 50.4998 38.4996C50.3998 38.8996 50.5998 39.3996 51.0998 39.4996ZM49.9998 42.5996C49.9998 42.5996 50.0998 42.5996 50.1998 42.5996C50.4998 42.5996 50.7998 42.3996 50.8998 42.0996C50.9998 41.6996 50.7998 41.1996 50.3998 41.0996C49.9998 40.9996 49.4998 41.1996 49.3998 41.5996C49.2998 41.9996 49.4998 42.4996 49.9998 42.5996ZM50.2998 61.6996C49.9998 61.5996 49.4998 61.6996 49.2998 62.0996C49.1998 62.4996 49.2998 62.8996 49.6998 63.0996C49.7998 63.1996 49.8998 63.1996 49.9998 63.1996C50.2998 63.1996 50.5998 63.0996 50.6998 62.7996C50.8998 62.3996 50.7998 61.8996 50.2998 61.6996ZM48.9998 45.6996C48.9998 45.6996 49.0998 45.6996 49.1998 45.6996C49.4998 45.6996 49.7998 45.4996 49.8998 45.1996C49.9998 44.7996 49.7998 44.2996 49.3998 44.1996C48.9998 44.0996 48.4998 44.2996 48.3998 44.6996C48.1998 45.0996 48.3998 45.5996 48.9998 45.6996ZM47.7998 48.7996H48.0998C48.3998 48.7996 48.6998 48.5996 48.7998 48.2996C48.8998 47.8996 48.6998 47.3996 48.2998 47.2996C47.8998 47.1996 47.3998 47.3996 47.2998 47.7996C47.1998 48.1996 47.3998 48.6996 47.7998 48.7996ZM46.8998 59.7996C46.5998 60.0996 46.4998 60.5996 46.7998 60.8996C46.9998 61.0996 47.1998 61.1996 47.3998 61.1996C47.5998 61.1996 47.7998 61.0996 47.8998 60.9996C48.2998 60.6996 48.2998 60.2996 47.9998 59.8996C47.6998 59.5996 47.1998 59.4996 46.8998 59.7996ZM46.7998 51.8996C46.7998 51.8996 46.8998 51.8996 46.9998 51.8996C47.2998 51.8996 47.5998 51.6996 47.6998 51.3996C47.7998 50.9996 47.5998 50.4996 47.1998 50.3996C46.7998 50.2996 46.2998 50.4996 46.1998 50.8996C46.0998 51.2996 46.2998 51.7996 46.7998 51.8996ZM46.6998 57.3996C46.5998 56.9996 46.1998 56.6996 45.7998 56.7996C45.3998 56.8996 45.0998 57.2996 45.1998 57.6996C45.2998 58.0996 45.6998 58.2996 45.9998 58.2996C46.0998 58.2996 46.0998 58.2996 46.1998 58.2996C46.5998 58.1996 46.7998 57.6996 46.6998 57.3996ZM45.6998 54.9996C45.7998 54.9996 45.7998 54.9996 45.8998 54.9996C46.2998 54.9996 46.5998 54.7996 46.6998 54.3996C46.7998 53.9996 46.4998 53.5996 46.0998 53.4996C45.6998 53.3996 45.2998 53.6996 45.1998 54.0996C45.0998 54.4996 45.3998 54.8996 45.6998 54.9996ZM53.1998 9.19961C51.1998 9.19961 49.5998 10.7996 49.5998 12.7996C49.5998 14.7996 51.1998 16.3996 53.1998 16.3996C55.1998 16.3996 56.7998 14.7996 56.7998 12.7996C56.7998 10.7996 55.1998 9.19961 53.1998 9.19961ZM53.1998 14.8996C51.9998 14.8996 51.0998 13.8996 51.0998 12.7996C51.0998 11.5996 51.9998 10.6996 53.1998 10.6996C54.3998 10.6996 55.2998 11.6996 55.2998 12.7996C55.2998 13.8996 54.3998 14.8996 53.1998 14.8996ZM46.0998 53.4996C45.6998 53.3996 45.2998 53.6996 45.1998 54.0996C45.0998 54.4996 45.3998 54.8996 45.6998 54.9996C45.7998 54.9996 45.7998 54.9996 45.8998 54.9996C46.2998 54.9996 46.5998 54.7996 46.6998 54.3996C46.7998 53.9996 46.4998 53.5996 46.0998 53.4996ZM46.6998 57.3996C46.5998 56.9996 46.1998 56.6996 45.7998 56.7996C45.3998 56.8996 45.0998 57.2996 45.1998 57.6996C45.2998 58.0996 45.6998 58.2996 45.9998 58.2996C46.0998 58.2996 46.0998 58.2996 46.1998 58.2996C46.5998 58.1996 46.7998 57.6996 46.6998 57.3996ZM47.1998 50.3996C46.7998 50.2996 46.2998 50.4996 46.1998 50.8996C46.0998 51.2996 46.2998 51.7996 46.7998 51.8996C46.7998 51.8996 46.8998 51.8996 46.9998 51.8996C47.2998 51.8996 47.5998 51.6996 47.6998 51.3996C47.7998 50.9996 47.5998 50.4996 47.1998 50.3996ZM47.9998 59.8996C47.6998 59.5996 47.1998 59.4996 46.8998 59.7996C46.5998 60.0996 46.4998 60.5996 46.7998 60.8996C46.9998 61.0996 47.1998 61.1996 47.3998 61.1996C47.5998 61.1996 47.7998 61.0996 47.8998 60.9996C48.2998 60.6996 48.2998 60.2996 47.9998 59.8996ZM48.2998 47.2996C47.8998 47.1996 47.3998 47.3996 47.2998 47.7996C47.1998 48.1996 47.3998 48.6996 47.7998 48.7996H48.0998C48.3998 48.7996 48.6998 48.5996 48.7998 48.2996C48.8998 47.8996 48.6998 47.3996 48.2998 47.2996ZM49.3998 44.1996C48.9998 44.0996 48.4998 44.2996 48.3998 44.6996C48.1998 45.0996 48.3998 45.5996 48.9998 45.6996C48.9998 45.6996 49.0998 45.6996 49.1998 45.6996C49.4998 45.6996 49.7998 45.4996 49.8998 45.1996C49.9998 44.7996 49.7998 44.2996 49.3998 44.1996ZM50.2998 61.6996C49.9998 61.5996 49.4998 61.6996 49.2998 62.0996C49.1998 62.4996 49.2998 62.8996 49.6998 63.0996C49.7998 63.1996 49.8998 63.1996 49.9998 63.1996C50.2998 63.1996 50.5998 63.0996 50.6998 62.7996C50.8998 62.3996 50.7998 61.8996 50.2998 61.6996ZM50.3998 41.0996C49.9998 40.9996 49.4998 41.1996 49.3998 41.5996C49.2998 41.9996 49.4998 42.4996 49.9998 42.5996C49.9998 42.5996 50.0998 42.5996 50.1998 42.5996C50.4998 42.5996 50.7998 42.3996 50.8998 42.0996C50.9998 41.6996 50.7998 41.1996 50.3998 41.0996ZM51.4998 37.9996C51.0998 37.8996 50.5998 38.0996 50.4998 38.4996C50.3998 38.8996 50.5998 39.3996 51.0998 39.4996C51.0998 39.4996 51.1998 39.4996 51.2998 39.4996C51.5998 39.4996 51.8998 39.2996 51.9998 38.9996C52.0998 38.5996 51.8998 38.0996 51.4998 37.9996ZM53.1998 35.7996C52.7998 35.7996 52.4998 36.0996 52.3998 36.5996C52.3998 37.0996 52.7998 37.3996 53.1998 37.3996C53.6998 37.3996 53.9998 36.9996 53.9998 36.5996C53.9998 36.0996 53.5998 35.7996 53.1998 35.7996ZM53.2998 62.2996C52.7998 62.2996 52.4998 62.6996 52.4998 63.0996C52.4998 63.5996 52.8998 63.8996 53.2998 63.8996C53.6998 63.8996 53.9998 63.5996 54.0998 63.0996C54.0998 62.5996 53.6998 62.2996 53.2998 62.2996ZM55.9998 38.5996C55.7998 38.1996 55.3998 37.9996 54.9998 38.0996C54.5998 38.1996 54.3998 38.5996 54.4998 39.0996C54.5998 39.3996 54.8998 39.5996 55.1998 39.5996H55.4998C55.8998 39.3996 56.0998 38.9996 55.9998 38.5996ZM57.0998 41.5996C56.8998 41.1996 56.4998 40.9996 56.1998 41.0996C55.7998 41.2996 55.5998 41.6996 55.6998 42.0996C55.7998 42.3996 56.0998 42.5996 56.3998 42.5996C56.3998 42.5996 56.4998 42.5996 56.5998 42.5996C56.9998 42.3996 57.1998 41.9996 57.0998 41.5996ZM57.1998 62.1996C57.0998 61.7996 56.5998 61.5996 56.1998 61.7996C55.7998 61.9996 55.5998 62.3996 55.7998 62.7996C55.8998 62.9996 56.1998 63.1996 56.4998 63.1996C56.5998 63.1996 56.6998 63.1996 56.7998 63.0996C57.1998 62.8996 57.3998 62.4996 57.1998 62.1996ZM58.0998 44.6996C57.9998 44.2996 57.4998 44.0996 57.0998 44.1996C56.6998 44.3996 56.4998 44.7996 56.5998 45.1996C56.6998 45.4996 56.9998 45.6996 57.2998 45.6996H57.5998C57.9998 45.4996 58.1998 45.0996 58.0998 44.6996ZM58.1998 54.0996L53.8998 41.7996C53.7998 41.4996 53.4998 41.2996 53.1998 41.2996C52.8998 41.2996 52.5998 41.4996 52.4998 41.7996L48.1998 54.0996C47.5998 55.9996 48.0998 58.0996 49.4998 59.4996C50.4998 60.4996 51.8998 60.9996 53.2998 60.9996C54.6998 60.9996 55.9998 60.4996 56.9998 59.4996C58.3998 58.0996 58.8998 55.9996 58.1998 54.0996ZM55.8998 58.3996C55.1998 59.0996 54.2998 59.4996 53.2998 59.4996C52.2998 59.4996 51.3998 59.0996 50.6998 58.3996C49.6998 57.3996 49.2998 55.8996 49.7998 54.5996L53.2998 44.3996L56.7998 54.5996C57.2998 55.9996 56.8998 57.3996 55.8998 58.3996ZM59.1998 47.7996C59.0998 47.3996 58.5998 47.1996 58.2998 47.2996C57.8998 47.4996 57.6998 47.8996 57.7998 48.2996C57.8998 48.5996 58.1998 48.7996 58.4998 48.7996C58.4998 48.7996 58.5998 48.7996 58.6998 48.7996C59.0998 48.5996 59.2998 48.1996 59.1998 47.7996ZM59.5998 59.7996C59.2998 59.4996 58.7998 59.5996 58.4998 59.8996C58.1998 60.2996 58.2998 60.6996 58.5998 60.9996C58.7998 61.0996 58.8998 61.1996 59.0998 61.1996C59.2998 61.1996 59.4998 61.0996 59.6998 60.8996C59.8998 60.5996 59.8998 60.0996 59.5998 59.7996ZM60.2998 50.8996C60.0998 50.4996 59.6998 50.2996 59.2998 50.3996C58.8998 50.5996 58.6998 50.9996 58.7998 51.3996C58.8998 51.6996 59.1998 51.8996 59.4998 51.8996H59.7998C60.1998 51.6996 60.3998 51.2996 60.2998 50.8996ZM60.5998 56.7996C60.1998 56.6996 59.7998 56.9996 59.6998 57.3996C59.5998 57.7996 59.8998 58.1996 60.2998 58.2996C60.3998 58.2996 60.3998 58.2996 60.4998 58.2996C60.8998 58.2996 61.1998 58.0996 61.2998 57.6996C61.3998 57.2996 61.0998 56.8996 60.5998 56.7996ZM61.2998 54.0996C61.1998 53.6996 60.7998 53.3996 60.3998 53.4996C59.9998 53.5996 59.6998 53.9996 59.7998 54.3996C59.7998 54.7996 60.1998 54.9996 60.4998 54.9996C60.5998 54.9996 60.5998 54.9996 60.6998 54.9996C61.0998 54.8996 61.3998 54.4996 61.2998 54.0996ZM61.2998 54.0996C61.1998 53.6996 60.7998 53.3996 60.3998 53.4996C59.9998 53.5996 59.6998 53.9996 59.7998 54.3996C59.7998 54.7996 60.1998 54.9996 60.4998 54.9996C60.5998 54.9996 60.5998 54.9996 60.6998 54.9996C61.0998 54.8996 61.3998 54.4996 61.2998 54.0996ZM60.5998 56.7996C60.1998 56.6996 59.7998 56.9996 59.6998 57.3996C59.5998 57.7996 59.8998 58.1996 60.2998 58.2996C60.3998 58.2996 60.3998 58.2996 60.4998 58.2996C60.8998 58.2996 61.1998 58.0996 61.2998 57.6996C61.3998 57.2996 61.0998 56.8996 60.5998 56.7996ZM60.2998 50.8996C60.0998 50.4996 59.6998 50.2996 59.2998 50.3996C58.8998 50.5996 58.6998 50.9996 58.7998 51.3996C58.8998 51.6996 59.1998 51.8996 59.4998 51.8996H59.7998C60.1998 51.6996 60.3998 51.2996 60.2998 50.8996ZM59.5998 59.7996C59.2998 59.4996 58.7998 59.5996 58.4998 59.8996C58.1998 60.2996 58.2998 60.6996 58.5998 60.9996C58.7998 61.0996 58.8998 61.1996 59.0998 61.1996C59.2998 61.1996 59.4998 61.0996 59.6998 60.8996C59.8998 60.5996 59.8998 60.0996 59.5998 59.7996ZM59.1998 47.7996C59.0998 47.3996 58.5998 47.1996 58.2998 47.2996C57.8998 47.4996 57.6998 47.8996 57.7998 48.2996C57.8998 48.5996 58.1998 48.7996 58.4998 48.7996C58.4998 48.7996 58.5998 48.7996 58.6998 48.7996C59.0998 48.5996 59.2998 48.1996 59.1998 47.7996ZM58.1998 54.0996L53.8998 41.7996C53.7998 41.4996 53.4998 41.2996 53.1998 41.2996C52.8998 41.2996 52.5998 41.4996 52.4998 41.7996L48.1998 54.0996C47.5998 55.9996 48.0998 58.0996 49.4998 59.4996C50.4998 60.4996 51.8998 60.9996 53.2998 60.9996C54.6998 60.9996 55.9998 60.4996 56.9998 59.4996C58.3998 58.0996 58.8998 55.9996 58.1998 54.0996ZM55.8998 58.3996C55.1998 59.0996 54.2998 59.4996 53.2998 59.4996C52.2998 59.4996 51.3998 59.0996 50.6998 58.3996C49.6998 57.3996 49.2998 55.8996 49.7998 54.5996L53.2998 44.3996L56.7998 54.5996C57.2998 55.9996 56.8998 57.3996 55.8998 58.3996ZM58.0998 44.6996C57.9998 44.2996 57.4998 44.0996 57.0998 44.1996C56.6998 44.3996 56.4998 44.7996 56.5998 45.1996C56.6998 45.4996 56.9998 45.6996 57.2998 45.6996H57.5998C57.9998 45.4996 58.1998 45.0996 58.0998 44.6996ZM57.1998 62.1996C57.0998 61.7996 56.5998 61.5996 56.1998 61.7996C55.7998 61.9996 55.5998 62.3996 55.7998 62.7996C55.8998 62.9996 56.1998 63.1996 56.4998 63.1996C56.5998 63.1996 56.6998 63.1996 56.7998 63.0996C57.1998 62.8996 57.3998 62.4996 57.1998 62.1996ZM57.0998 41.5996C56.8998 41.1996 56.4998 40.9996 56.1998 41.0996C55.7998 41.2996 55.5998 41.6996 55.6998 42.0996C55.7998 42.3996 56.0998 42.5996 56.3998 42.5996C56.3998 42.5996 56.4998 42.5996 56.5998 42.5996C56.9998 42.3996 57.1998 41.9996 57.0998 41.5996ZM55.9998 38.5996C55.7998 38.1996 55.3998 37.9996 54.9998 38.0996C54.5998 38.1996 54.3998 38.5996 54.4998 39.0996C54.5998 39.3996 54.8998 39.5996 55.1998 39.5996H55.4998C55.8998 39.3996 56.0998 38.9996 55.9998 38.5996ZM53.1998 9.19961C51.1998 9.19961 49.5998 10.7996 49.5998 12.7996C49.5998 14.7996 51.1998 16.3996 53.1998 16.3996C55.1998 16.3996 56.7998 14.7996 56.7998 12.7996C56.7998 10.7996 55.1998 9.19961 53.1998 9.19961ZM53.1998 14.8996C51.9998 14.8996 51.0998 13.8996 51.0998 12.7996C51.0998 11.5996 51.9998 10.6996 53.1998 10.6996C54.3998 10.6996 55.2998 11.6996 55.2998 12.7996C55.2998 13.8996 54.3998 14.8996 53.1998 14.8996ZM53.2998 62.2996C52.7998 62.2996 52.4998 62.6996 52.4998 63.0996C52.4998 63.5996 52.8998 63.8996 53.2998 63.8996C53.6998 63.8996 53.9998 63.5996 54.0998 63.0996C54.0998 62.5996 53.6998 62.2996 53.2998 62.2996ZM53.1998 35.7996C52.7998 35.7996 52.4998 36.0996 52.3998 36.5996C52.3998 37.0996 52.7998 37.3996 53.1998 37.3996C53.6998 37.3996 53.9998 36.9996 53.9998 36.5996C53.9998 36.0996 53.5998 35.7996 53.1998 35.7996ZM51.4998 37.9996C51.0998 37.8996 50.5998 38.0996 50.4998 38.4996C50.3998 38.8996 50.5998 39.3996 51.0998 39.4996C51.0998 39.4996 51.1998 39.4996 51.2998 39.4996C51.5998 39.4996 51.8998 39.2996 51.9998 38.9996C52.0998 38.5996 51.8998 38.0996 51.4998 37.9996ZM50.3998 41.0996C49.9998 40.9996 49.4998 41.1996 49.3998 41.5996C49.2998 41.9996 49.4998 42.4996 49.9998 42.5996C49.9998 42.5996 50.0998 42.5996 50.1998 42.5996C50.4998 42.5996 50.7998 42.3996 50.8998 42.0996C50.9998 41.6996 50.7998 41.1996 50.3998 41.0996ZM50.2998 61.6996C49.9998 61.5996 49.4998 61.6996 49.2998 62.0996C49.1998 62.4996 49.2998 62.8996 49.6998 63.0996C49.7998 63.1996 49.8998 63.1996 49.9998 63.1996C50.2998 63.1996 50.5998 63.0996 50.6998 62.7996C50.8998 62.3996 50.7998 61.8996 50.2998 61.6996ZM49.3998 44.1996C48.9998 44.0996 48.4998 44.2996 48.3998 44.6996C48.1998 45.0996 48.3998 45.5996 48.9998 45.6996C48.9998 45.6996 49.0998 45.6996 49.1998 45.6996C49.4998 45.6996 49.7998 45.4996 49.8998 45.1996C49.9998 44.7996 49.7998 44.2996 49.3998 44.1996ZM48.2998 47.2996C47.8998 47.1996 47.3998 47.3996 47.2998 47.7996C47.1998 48.1996 47.3998 48.6996 47.7998 48.7996H48.0998C48.3998 48.7996 48.6998 48.5996 48.7998 48.2996C48.8998 47.8996 48.6998 47.3996 48.2998 47.2996ZM47.9998 59.8996C47.6998 59.5996 47.1998 59.4996 46.8998 59.7996C46.5998 60.0996 46.4998 60.5996 46.7998 60.8996C46.9998 61.0996 47.1998 61.1996 47.3998 61.1996C47.5998 61.1996 47.7998 61.0996 47.8998 60.9996C48.2998 60.6996 48.2998 60.2996 47.9998 59.8996ZM47.1998 50.3996C46.7998 50.2996 46.2998 50.4996 46.1998 50.8996C46.0998 51.2996 46.2998 51.7996 46.7998 51.8996C46.7998 51.8996 46.8998 51.8996 46.9998 51.8996C47.2998 51.8996 47.5998 51.6996 47.6998 51.3996C47.7998 50.9996 47.5998 50.4996 47.1998 50.3996ZM46.6998 57.3996C46.5998 56.9996 46.1998 56.6996 45.7998 56.7996C45.3998 56.8996 45.0998 57.2996 45.1998 57.6996C45.2998 58.0996 45.6998 58.2996 45.9998 58.2996C46.0998 58.2996 46.0998 58.2996 46.1998 58.2996C46.5998 58.1996 46.7998 57.6996 46.6998 57.3996ZM46.0998 53.4996C45.6998 53.3996 45.2998 53.6996 45.1998 54.0996C45.0998 54.4996 45.3998 54.8996 45.6998 54.9996C45.7998 54.9996 45.7998 54.9996 45.8998 54.9996C46.2998 54.9996 46.5998 54.7996 46.6998 54.3996C46.7998 53.9996 46.4998 53.5996 46.0998 53.4996ZM53.1998 9.19961C51.1998 9.19961 49.5998 10.7996 49.5998 12.7996C49.5998 14.7996 51.1998 16.3996 53.1998 16.3996C55.1998 16.3996 56.7998 14.7996 56.7998 12.7996C56.7998 10.7996 55.1998 9.19961 53.1998 9.19961ZM53.1998 14.8996C51.9998 14.8996 51.0998 13.8996 51.0998 12.7996C51.0998 11.5996 51.9998 10.6996 53.1998 10.6996C54.3998 10.6996 55.2998 11.6996 55.2998 12.7996C55.2998 13.8996 54.3998 14.8996 53.1998 14.8996ZM46.0998 53.4996C45.6998 53.3996 45.2998 53.6996 45.1998 54.0996C45.0998 54.4996 45.3998 54.8996 45.6998 54.9996C45.7998 54.9996 45.7998 54.9996 45.8998 54.9996C46.2998 54.9996 46.5998 54.7996 46.6998 54.3996C46.7998 53.9996 46.4998 53.5996 46.0998 53.4996ZM46.6998 57.3996C46.5998 56.9996 46.1998 56.6996 45.7998 56.7996C45.3998 56.8996 45.0998 57.2996 45.1998 57.6996C45.2998 58.0996 45.6998 58.2996 45.9998 58.2996C46.0998 58.2996 46.0998 58.2996 46.1998 58.2996C46.5998 58.1996 46.7998 57.6996 46.6998 57.3996ZM47.1998 50.3996C46.7998 50.2996 46.2998 50.4996 46.1998 50.8996C46.0998 51.2996 46.2998 51.7996 46.7998 51.8996C46.7998 51.8996 46.8998 51.8996 46.9998 51.8996C47.2998 51.8996 47.5998 51.6996 47.6998 51.3996C47.7998 50.9996 47.5998 50.4996 47.1998 50.3996ZM47.9998 59.8996C47.6998 59.5996 47.1998 59.4996 46.8998 59.7996C46.5998 60.0996 46.4998 60.5996 46.7998 60.8996C46.9998 61.0996 47.1998 61.1996 47.3998 61.1996C47.5998 61.1996 47.7998 61.0996 47.8998 60.9996C48.2998 60.6996 48.2998 60.2996 47.9998 59.8996ZM48.2998 47.2996C47.8998 47.1996 47.3998 47.3996 47.2998 47.7996C47.1998 48.1996 47.3998 48.6996 47.7998 48.7996H48.0998C48.3998 48.7996 48.6998 48.5996 48.7998 48.2996C48.8998 47.8996 48.6998 47.3996 48.2998 47.2996ZM49.3998 44.1996C48.9998 44.0996 48.4998 44.2996 48.3998 44.6996C48.1998 45.0996 48.3998 45.5996 48.9998 45.6996C48.9998 45.6996 49.0998 45.6996 49.1998 45.6996C49.4998 45.6996 49.7998 45.4996 49.8998 45.1996C49.9998 44.7996 49.7998 44.2996 49.3998 44.1996ZM50.2998 61.6996C49.9998 61.5996 49.4998 61.6996 49.2998 62.0996C49.1998 62.4996 49.2998 62.8996 49.6998 63.0996C49.7998 63.1996 49.8998 63.1996 49.9998 63.1996C50.2998 63.1996 50.5998 63.0996 50.6998 62.7996C50.8998 62.3996 50.7998 61.8996 50.2998 61.6996ZM50.3998 41.0996C49.9998 40.9996 49.4998 41.1996 49.3998 41.5996C49.2998 41.9996 49.4998 42.4996 49.9998 42.5996C49.9998 42.5996 50.0998 42.5996 50.1998 42.5996C50.4998 42.5996 50.7998 42.3996 50.8998 42.0996C50.9998 41.6996 50.7998 41.1996 50.3998 41.0996ZM51.4998 37.9996C51.0998 37.8996 50.5998 38.0996 50.4998 38.4996C50.3998 38.8996 50.5998 39.3996 51.0998 39.4996C51.0998 39.4996 51.1998 39.4996 51.2998 39.4996C51.5998 39.4996 51.8998 39.2996 51.9998 38.9996C52.0998 38.5996 51.8998 38.0996 51.4998 37.9996ZM53.1998 35.7996C52.7998 35.7996 52.4998 36.0996 52.3998 36.5996C52.3998 37.0996 52.7998 37.3996 53.1998 37.3996C53.6998 37.3996 53.9998 36.9996 53.9998 36.5996C53.9998 36.0996 53.5998 35.7996 53.1998 35.7996ZM53.2998 62.2996C52.7998 62.2996 52.4998 62.6996 52.4998 63.0996C52.4998 63.5996 52.8998 63.8996 53.2998 63.8996C53.6998 63.8996 53.9998 63.5996 54.0998 63.0996C54.0998 62.5996 53.6998 62.2996 53.2998 62.2996ZM55.9998 38.5996C55.7998 38.1996 55.3998 37.9996 54.9998 38.0996C54.5998 38.1996 54.3998 38.5996 54.4998 39.0996C54.5998 39.3996 54.8998 39.5996 55.1998 39.5996H55.4998C55.8998 39.3996 56.0998 38.9996 55.9998 38.5996ZM57.0998 41.5996C56.8998 41.1996 56.4998 40.9996 56.1998 41.0996C55.7998 41.2996 55.5998 41.6996 55.6998 42.0996C55.7998 42.3996 56.0998 42.5996 56.3998 42.5996C56.3998 42.5996 56.4998 42.5996 56.5998 42.5996C56.9998 42.3996 57.1998 41.9996 57.0998 41.5996ZM57.1998 62.1996C57.0998 61.7996 56.5998 61.5996 56.1998 61.7996C55.7998 61.9996 55.5998 62.3996 55.7998 62.7996C55.8998 62.9996 56.1998 63.1996 56.4998 63.1996C56.5998 63.1996 56.6998 63.1996 56.7998 63.0996C57.1998 62.8996 57.3998 62.4996 57.1998 62.1996ZM58.0998 44.6996C57.9998 44.2996 57.4998 44.0996 57.0998 44.1996C56.6998 44.3996 56.4998 44.7996 56.5998 45.1996C56.6998 45.4996 56.9998 45.6996 57.2998 45.6996H57.5998C57.9998 45.4996 58.1998 45.0996 58.0998 44.6996ZM58.1998 54.0996L53.8998 41.7996C53.7998 41.4996 53.4998 41.2996 53.1998 41.2996C52.8998 41.2996 52.5998 41.4996 52.4998 41.7996L48.1998 54.0996C47.5998 55.9996 48.0998 58.0996 49.4998 59.4996C50.4998 60.4996 51.8998 60.9996 53.2998 60.9996C54.6998 60.9996 55.9998 60.4996 56.9998 59.4996C58.3998 58.0996 58.8998 55.9996 58.1998 54.0996ZM55.8998 58.3996C55.1998 59.0996 54.2998 59.4996 53.2998 59.4996C52.2998 59.4996 51.3998 59.0996 50.6998 58.3996C49.6998 57.3996 49.2998 55.8996 49.7998 54.5996L53.2998 44.3996L56.7998 54.5996C57.2998 55.9996 56.8998 57.3996 55.8998 58.3996ZM59.1998 47.7996C59.0998 47.3996 58.5998 47.1996 58.2998 47.2996C57.8998 47.4996 57.6998 47.8996 57.7998 48.2996C57.8998 48.5996 58.1998 48.7996 58.4998 48.7996C58.4998 48.7996 58.5998 48.7996 58.6998 48.7996C59.0998 48.5996 59.2998 48.1996 59.1998 47.7996ZM59.5998 59.7996C59.2998 59.4996 58.7998 59.5996 58.4998 59.8996C58.1998 60.2996 58.2998 60.6996 58.5998 60.9996C58.7998 61.0996 58.8998 61.1996 59.0998 61.1996C59.2998 61.1996 59.4998 61.0996 59.6998 60.8996C59.8998 60.5996 59.8998 60.0996 59.5998 59.7996ZM60.2998 50.8996C60.0998 50.4996 59.6998 50.2996 59.2998 50.3996C58.8998 50.5996 58.6998 50.9996 58.7998 51.3996C58.8998 51.6996 59.1998 51.8996 59.4998 51.8996H59.7998C60.1998 51.6996 60.3998 51.2996 60.2998 50.8996ZM60.5998 56.7996C60.1998 56.6996 59.7998 56.9996 59.6998 57.3996C59.5998 57.7996 59.8998 58.1996 60.2998 58.2996C60.3998 58.2996 60.3998 58.2996 60.4998 58.2996C60.8998 58.2996 61.1998 58.0996 61.2998 57.6996C61.3998 57.2996 61.0998 56.8996 60.5998 56.7996ZM61.2998 54.0996C61.1998 53.6996 60.7998 53.3996 60.3998 53.4996C59.9998 53.5996 59.6998 53.9996 59.7998 54.3996C59.7998 54.7996 60.1998 54.9996 60.4998 54.9996C60.5998 54.9996 60.5998 54.9996 60.6998 54.9996C61.0998 54.8996 61.3998 54.4996 61.2998 54.0996ZM61.2998 54.0996C61.1998 53.6996 60.7998 53.3996 60.3998 53.4996C59.9998 53.5996 59.6998 53.9996 59.7998 54.3996C59.7998 54.7996 60.1998 54.9996 60.4998 54.9996C60.5998 54.9996 60.5998 54.9996 60.6998 54.9996C61.0998 54.8996 61.3998 54.4996 61.2998 54.0996ZM60.5998 56.7996C60.1998 56.6996 59.7998 56.9996 59.6998 57.3996C59.5998 57.7996 59.8998 58.1996 60.2998 58.2996C60.3998 58.2996 60.3998 58.2996 60.4998 58.2996C60.8998 58.2996 61.1998 58.0996 61.2998 57.6996C61.3998 57.2996 61.0998 56.8996 60.5998 56.7996ZM60.2998 50.8996C60.0998 50.4996 59.6998 50.2996 59.2998 50.3996C58.8998 50.5996 58.6998 50.9996 58.7998 51.3996C58.8998 51.6996 59.1998 51.8996 59.4998 51.8996H59.7998C60.1998 51.6996 60.3998 51.2996 60.2998 50.8996ZM59.5998 59.7996C59.2998 59.4996 58.7998 59.5996 58.4998 59.8996C58.1998 60.2996 58.2998 60.6996 58.5998 60.9996C58.7998 61.0996 58.8998 61.1996 59.0998 61.1996C59.2998 61.1996 59.4998 61.0996 59.6998 60.8996C59.8998 60.5996 59.8998 60.0996 59.5998 59.7996ZM59.1998 47.7996C59.0998 47.3996 58.5998 47.1996 58.2998 47.2996C57.8998 47.4996 57.6998 47.8996 57.7998 48.2996C57.8998 48.5996 58.1998 48.7996 58.4998 48.7996C58.4998 48.7996 58.5998 48.7996 58.6998 48.7996C59.0998 48.5996 59.2998 48.1996 59.1998 47.7996ZM58.1998 54.0996L53.8998 41.7996C53.7998 41.4996 53.4998 41.2996 53.1998 41.2996C52.8998 41.2996 52.5998 41.4996 52.4998 41.7996L48.1998 54.0996C47.5998 55.9996 48.0998 58.0996 49.4998 59.4996C50.4998 60.4996 51.8998 60.9996 53.2998 60.9996C54.6998 60.9996 55.9998 60.4996 56.9998 59.4996C58.3998 58.0996 58.8998 55.9996 58.1998 54.0996ZM55.8998 58.3996C55.1998 59.0996 54.2998 59.4996 53.2998 59.4996C52.2998 59.4996 51.3998 59.0996 50.6998 58.3996C49.6998 57.3996 49.2998 55.8996 49.7998 54.5996L53.2998 44.3996L56.7998 54.5996C57.2998 55.9996 56.8998 57.3996 55.8998 58.3996ZM58.0998 44.6996C57.9998 44.2996 57.4998 44.0996 57.0998 44.1996C56.6998 44.3996 56.4998 44.7996 56.5998 45.1996C56.6998 45.4996 56.9998 45.6996 57.2998 45.6996H57.5998C57.9998 45.4996 58.1998 45.0996 58.0998 44.6996ZM57.1998 62.1996C57.0998 61.7996 56.5998 61.5996 56.1998 61.7996C55.7998 61.9996 55.5998 62.3996 55.7998 62.7996C55.8998 62.9996 56.1998 63.1996 56.4998 63.1996C56.5998 63.1996 56.6998 63.1996 56.7998 63.0996C57.1998 62.8996 57.3998 62.4996 57.1998 62.1996ZM57.0998 41.5996C56.8998 41.1996 56.4998 40.9996 56.1998 41.0996C55.7998 41.2996 55.5998 41.6996 55.6998 42.0996C55.7998 42.3996 56.0998 42.5996 56.3998 42.5996C56.3998 42.5996 56.4998 42.5996 56.5998 42.5996C56.9998 42.3996 57.1998 41.9996 57.0998 41.5996ZM55.9998 38.5996C55.7998 38.1996 55.3998 37.9996 54.9998 38.0996C54.5998 38.1996 54.3998 38.5996 54.4998 39.0996C54.5998 39.3996 54.8998 39.5996 55.1998 39.5996H55.4998C55.8998 39.3996 56.0998 38.9996 55.9998 38.5996ZM53.1998 9.19961C51.1998 9.19961 49.5998 10.7996 49.5998 12.7996C49.5998 14.7996 51.1998 16.3996 53.1998 16.3996C55.1998 16.3996 56.7998 14.7996 56.7998 12.7996C56.7998 10.7996 55.1998 9.19961 53.1998 9.19961ZM53.1998 14.8996C51.9998 14.8996 51.0998 13.8996 51.0998 12.7996C51.0998 11.5996 51.9998 10.6996 53.1998 10.6996C54.3998 10.6996 55.2998 11.6996 55.2998 12.7996C55.2998 13.8996 54.3998 14.8996 53.1998 14.8996ZM53.2998 62.2996C52.7998 62.2996 52.4998 62.6996 52.4998 63.0996C52.4998 63.5996 52.8998 63.8996 53.2998 63.8996C53.6998 63.8996 53.9998 63.5996 54.0998 63.0996C54.0998 62.5996 53.6998 62.2996 53.2998 62.2996ZM53.1998 35.7996C52.7998 35.7996 52.4998 36.0996 52.3998 36.5996C52.3998 37.0996 52.7998 37.3996 53.1998 37.3996C53.6998 37.3996 53.9998 36.9996 53.9998 36.5996C53.9998 36.0996 53.5998 35.7996 53.1998 35.7996ZM51.4998 37.9996C51.0998 37.8996 50.5998 38.0996 50.4998 38.4996C50.3998 38.8996 50.5998 39.3996 51.0998 39.4996C51.0998 39.4996 51.1998 39.4996 51.2998 39.4996C51.5998 39.4996 51.8998 39.2996 51.9998 38.9996C52.0998 38.5996 51.8998 38.0996 51.4998 37.9996ZM50.3998 41.0996C49.9998 40.9996 49.4998 41.1996 49.3998 41.5996C49.2998 41.9996 49.4998 42.4996 49.9998 42.5996C49.9998 42.5996 50.0998 42.5996 50.1998 42.5996C50.4998 42.5996 50.7998 42.3996 50.8998 42.0996C50.9998 41.6996 50.7998 41.1996 50.3998 41.0996ZM50.2998 61.6996C49.9998 61.5996 49.4998 61.6996 49.2998 62.0996C49.1998 62.4996 49.2998 62.8996 49.6998 63.0996C49.7998 63.1996 49.8998 63.1996 49.9998 63.1996C50.2998 63.1996 50.5998 63.0996 50.6998 62.7996C50.8998 62.3996 50.7998 61.8996 50.2998 61.6996ZM49.3998 44.1996C48.9998 44.0996 48.4998 44.2996 48.3998 44.6996C48.1998 45.0996 48.3998 45.5996 48.9998 45.6996C48.9998 45.6996 49.0998 45.6996 49.1998 45.6996C49.4998 45.6996 49.7998 45.4996 49.8998 45.1996C49.9998 44.7996 49.7998 44.2996 49.3998 44.1996ZM48.2998 47.2996C47.8998 47.1996 47.3998 47.3996 47.2998 47.7996C47.1998 48.1996 47.3998 48.6996 47.7998 48.7996H48.0998C48.3998 48.7996 48.6998 48.5996 48.7998 48.2996C48.8998 47.8996 48.6998 47.3996 48.2998 47.2996ZM47.9998 59.8996C47.6998 59.5996 47.1998 59.4996 46.8998 59.7996C46.5998 60.0996 46.4998 60.5996 46.7998 60.8996C46.9998 61.0996 47.1998 61.1996 47.3998 61.1996C47.5998 61.1996 47.7998 61.0996 47.8998 60.9996C48.2998 60.6996 48.2998 60.2996 47.9998 59.8996ZM47.1998 50.3996C46.7998 50.2996 46.2998 50.4996 46.1998 50.8996C46.0998 51.2996 46.2998 51.7996 46.7998 51.8996C46.7998 51.8996 46.8998 51.8996 46.9998 51.8996C47.2998 51.8996 47.5998 51.6996 47.6998 51.3996C47.7998 50.9996 47.5998 50.4996 47.1998 50.3996ZM46.6998 57.3996C46.5998 56.9996 46.1998 56.6996 45.7998 56.7996C45.3998 56.8996 45.0998 57.2996 45.1998 57.6996C45.2998 58.0996 45.6998 58.2996 45.9998 58.2996C46.0998 58.2996 46.0998 58.2996 46.1998 58.2996C46.5998 58.1996 46.7998 57.6996 46.6998 57.3996ZM46.0998 53.4996C45.6998 53.3996 45.2998 53.6996 45.1998 54.0996C45.0998 54.4996 45.3998 54.8996 45.6998 54.9996C45.7998 54.9996 45.7998 54.9996 45.8998 54.9996C46.2998 54.9996 46.5998 54.7996 46.6998 54.3996C46.7998 53.9996 46.4998 53.5996 46.0998 53.4996ZM53.1998 9.19961C51.1998 9.19961 49.5998 10.7996 49.5998 12.7996C49.5998 14.7996 51.1998 16.3996 53.1998 16.3996C55.1998 16.3996 56.7998 14.7996 56.7998 12.7996C56.7998 10.7996 55.1998 9.19961 53.1998 9.19961ZM53.1998 14.8996C51.9998 14.8996 51.0998 13.8996 51.0998 12.7996C51.0998 11.5996 51.9998 10.6996 53.1998 10.6996C54.3998 10.6996 55.2998 11.6996 55.2998 12.7996C55.2998 13.8996 54.3998 14.8996 53.1998 14.8996ZM53.1998 9.19961C51.1998 9.19961 49.5998 10.7996 49.5998 12.7996C49.5998 14.7996 51.1998 16.3996 53.1998 16.3996C55.1998 16.3996 56.7998 14.7996 56.7998 12.7996C56.7998 10.7996 55.1998 9.19961 53.1998 9.19961ZM53.1998 14.8996C51.9998 14.8996 51.0998 13.8996 51.0998 12.7996C51.0998 11.5996 51.9998 10.6996 53.1998 10.6996C54.3998 10.6996 55.2998 11.6996 55.2998 12.7996C55.2998 13.8996 54.3998 14.8996 53.1998 14.8996ZM53.1998 9.19961C51.1998 9.19961 49.5998 10.7996 49.5998 12.7996C49.5998 14.7996 51.1998 16.3996 53.1998 16.3996C55.1998 16.3996 56.7998 14.7996 56.7998 12.7996C56.7998 10.7996 55.1998 9.19961 53.1998 9.19961ZM53.1998 14.8996C51.9998 14.8996 51.0998 13.8996 51.0998 12.7996C51.0998 11.5996 51.9998 10.6996 53.1998 10.6996C54.3998 10.6996 55.2998 11.6996 55.2998 12.7996C55.2998 13.8996 54.3998 14.8996 53.1998 14.8996ZM53.1998 9.19961C51.1998 9.19961 49.5998 10.7996 49.5998 12.7996C49.5998 14.7996 51.1998 16.3996 53.1998 16.3996C55.1998 16.3996 56.7998 14.7996 56.7998 12.7996C56.7998 10.7996 55.1998 9.19961 53.1998 9.19961ZM53.1998 14.8996C51.9998 14.8996 51.0998 13.8996 51.0998 12.7996C51.0998 11.5996 51.9998 10.6996 53.1998 10.6996C54.3998 10.6996 55.2998 11.6996 55.2998 12.7996C55.2998 13.8996 54.3998 14.8996 53.1998 14.8996Z" fill="#404041"/>
<path d="M77.6998 9.19961C75.6998 9.19961 74.0998 10.7996 74.0998 12.7996C74.0998 14.7996 75.6998 16.3996 77.6998 16.3996C79.6998 16.3996 81.2998 14.7996 81.2998 12.7996C81.2998 10.7996 79.6998 9.19961 77.6998 9.19961ZM77.6998 14.8996C76.4998 14.8996 75.5998 13.8996 75.5998 12.7996C75.5998 11.5996 76.5998 10.6996 77.6998 10.6996C78.8998 10.6996 79.7998 11.6996 79.7998 12.7996C79.7998 13.8996 78.8998 14.8996 77.6998 14.8996ZM77.6998 9.19961C75.6998 9.19961 74.0998 10.7996 74.0998 12.7996C74.0998 14.7996 75.6998 16.3996 77.6998 16.3996C79.6998 16.3996 81.2998 14.7996 81.2998 12.7996C81.2998 10.7996 79.6998 9.19961 77.6998 9.19961ZM77.6998 14.8996C76.4998 14.8996 75.5998 13.8996 75.5998 12.7996C75.5998 11.5996 76.5998 10.6996 77.6998 10.6996C78.8998 10.6996 79.7998 11.6996 79.7998 12.7996C79.7998 13.8996 78.8998 14.8996 77.6998 14.8996ZM77.6998 9.19961C75.6998 9.19961 74.0998 10.7996 74.0998 12.7996C74.0998 14.7996 75.6998 16.3996 77.6998 16.3996C79.6998 16.3996 81.2998 14.7996 81.2998 12.7996C81.2998 10.7996 79.6998 9.19961 77.6998 9.19961ZM77.6998 14.8996C76.4998 14.8996 75.5998 13.8996 75.5998 12.7996C75.5998 11.5996 76.5998 10.6996 77.6998 10.6996C78.8998 10.6996 79.7998 11.6996 79.7998 12.7996C79.7998 13.8996 78.8998 14.8996 77.6998 14.8996ZM77.6998 9.19961C75.6998 9.19961 74.0998 10.7996 74.0998 12.7996C74.0998 14.7996 75.6998 16.3996 77.6998 16.3996C79.6998 16.3996 81.2998 14.7996 81.2998 12.7996C81.2998 10.7996 79.6998 9.19961 77.6998 9.19961ZM77.6998 14.8996C76.4998 14.8996 75.5998 13.8996 75.5998 12.7996C75.5998 11.5996 76.5998 10.6996 77.6998 10.6996C78.8998 10.6996 79.7998 11.6996 79.7998 12.7996C79.7998 13.8996 78.8998 14.8996 77.6998 14.8996ZM70.5998 53.4996C70.1998 53.3996 69.7998 53.6996 69.6998 54.0996C69.5998 54.4996 69.7998 54.8996 70.1998 54.9996C70.2998 54.9996 70.2998 54.9996 70.3998 54.9996C70.7998 54.9996 71.0998 54.7996 71.1998 54.3996C71.2998 53.9996 70.9998 53.5996 70.5998 53.4996ZM71.1998 57.3996C71.0998 56.9996 70.6998 56.6996 70.2998 56.7996C69.8998 56.8996 69.5998 57.2996 69.6998 57.6996C69.7998 58.0996 70.1998 58.2996 70.4998 58.2996C70.5998 58.2996 70.5998 58.2996 70.6998 58.2996C71.0998 58.1996 71.2998 57.6996 71.1998 57.3996ZM71.6998 50.3996C71.2998 50.2996 70.7998 50.4996 70.6998 50.8996C70.5998 51.2996 70.7998 51.7996 71.2998 51.8996C71.2998 51.8996 71.3998 51.8996 71.4998 51.8996C71.7998 51.8996 72.0998 51.6996 72.1998 51.3996C72.2998 50.9996 72.0998 50.4996 71.6998 50.3996ZM72.4998 59.8996C72.1998 59.5996 71.6998 59.4996 71.3998 59.7996C71.0998 60.0996 70.9998 60.5996 71.2998 60.8996C71.4998 61.0996 71.6998 61.1996 71.8998 61.1996C72.0998 61.1996 72.2998 61.0996 72.3998 60.9996C72.7998 60.6996 72.7998 60.2996 72.4998 59.8996ZM72.7998 47.2996C72.3998 47.1996 71.8998 47.3996 71.7998 47.7996C71.5998 48.1996 71.8998 48.6996 72.2998 48.7996H72.5998C72.8998 48.7996 73.1998 48.5996 73.2998 48.2996C73.3998 47.8996 73.1998 47.3996 72.7998 47.2996ZM73.8998 44.1996C73.4998 44.0996 72.9998 44.2996 72.8998 44.6996C72.6998 45.0996 72.8998 45.5996 73.4998 45.6996C73.4998 45.6996 73.5998 45.6996 73.6998 45.6996C73.9998 45.6996 74.2998 45.4996 74.3998 45.1996C74.4998 44.7996 74.2998 44.2996 73.8998 44.1996ZM74.7998 61.6996C74.3998 61.5996 73.9998 61.6996 73.7998 62.0996C73.6998 62.4996 73.7998 62.8996 74.1998 63.0996C74.2998 63.1996 74.3998 63.1996 74.4998 63.1996C74.7998 63.1996 75.0998 63.0996 75.1998 62.7996C75.3998 62.3996 75.2998 61.8996 74.7998 61.6996ZM74.8998 41.0996C74.4998 40.9996 73.9998 41.1996 73.8998 41.5996C73.7998 41.9996 73.9998 42.4996 74.3998 42.5996H74.6998C74.9998 42.5996 75.2998 42.3996 75.3998 42.0996C75.4998 41.6996 75.2998 41.1996 74.8998 41.0996ZM75.9998 37.9996C75.5998 37.8996 75.0998 38.0996 74.9998 38.4996C74.8998 38.8996 75.0998 39.3996 75.4998 39.4996H75.7998C76.0998 39.4996 76.3998 39.2996 76.4998 38.9996C76.5998 38.5996 76.3998 38.0996 75.9998 37.9996ZM77.6998 35.7996C77.2998 35.7996 76.9998 36.0996 76.8998 36.5996C76.8998 37.0996 77.2998 37.3996 77.6998 37.3996C78.1998 37.3996 78.4998 36.9996 78.4998 36.5996C78.4998 36.0996 78.0998 35.7996 77.6998 35.7996ZM77.7998 62.2996C77.2998 62.2996 76.9998 62.6996 76.9998 63.0996C76.9998 63.5996 77.2998 63.8996 77.7998 63.8996C78.1998 63.8996 78.4998 63.5996 78.5998 63.0996C78.5998 62.5996 78.1998 62.2996 77.7998 62.2996ZM77.6998 9.19961C75.6998 9.19961 74.0998 10.7996 74.0998 12.7996C74.0998 14.7996 75.6998 16.3996 77.6998 16.3996C79.6998 16.3996 81.2998 14.7996 81.2998 12.7996C81.2998 10.7996 79.6998 9.19961 77.6998 9.19961ZM77.6998 14.8996C76.4998 14.8996 75.5998 13.8996 75.5998 12.7996C75.5998 11.5996 76.5998 10.6996 77.6998 10.6996C78.8998 10.6996 79.7998 11.6996 79.7998 12.7996C79.7998 13.8996 78.8998 14.8996 77.6998 14.8996ZM80.4998 38.5996C80.2998 38.1996 79.8998 37.9996 79.4998 38.0996C79.0998 38.1996 78.8998 38.5996 78.9998 39.0996C79.0998 39.3996 79.3998 39.5996 79.6998 39.5996H79.9998C80.3998 39.3996 80.5998 38.9996 80.4998 38.5996ZM81.5998 41.5996C81.3998 41.1996 80.9998 40.9996 80.5998 41.0996C80.1998 41.2996 79.9998 41.6996 80.0998 42.0996C80.1998 42.3996 80.4998 42.5996 80.7998 42.5996H81.0998C81.4998 42.3996 81.6998 41.9996 81.5998 41.5996ZM81.6998 62.1996C81.4998 61.7996 81.0998 61.5996 80.6998 61.7996C80.2998 61.9996 80.0998 62.3996 80.2998 62.7996C80.3998 62.9996 80.6998 63.1996 80.9998 63.1996C81.0998 63.1996 81.1998 63.1996 81.2998 63.0996C81.6998 62.8996 81.8998 62.4996 81.6998 62.1996ZM82.5998 44.6996C82.4998 44.2996 81.9998 44.0996 81.5998 44.1996C81.1998 44.3996 80.9998 44.7996 81.0998 45.1996C81.1998 45.4996 81.4998 45.6996 81.7998 45.6996H82.0998C82.4998 45.4996 82.6998 45.0996 82.5998 44.6996ZM82.6998 54.0996L78.3998 41.7996C78.2998 41.4996 77.9998 41.2996 77.6998 41.2996C77.3998 41.2996 77.0998 41.4996 76.9998 41.7996L72.6998 54.0996C72.0998 55.9996 72.5998 58.0996 73.9998 59.4996C74.9998 60.4996 76.2998 60.9996 77.7998 60.9996C79.1998 60.9996 80.4998 60.4996 81.4998 59.4996C82.8998 58.0996 83.3998 55.9996 82.6998 54.0996ZM80.2998 58.3996C79.5998 59.0996 78.6998 59.4996 77.6998 59.4996C76.6998 59.4996 75.7998 59.0996 75.0998 58.3996C74.0998 57.3996 73.6998 55.8996 74.1998 54.5996L77.6998 44.3996L81.1998 54.5996C81.6998 55.9996 81.2998 57.3996 80.2998 58.3996ZM83.6998 47.7996C83.5998 47.3996 83.0998 47.1996 82.7998 47.2996C82.3998 47.4996 82.1998 47.8996 82.2998 48.2996C82.3998 48.5996 82.6998 48.7996 82.9998 48.7996C82.9998 48.7996 83.0998 48.7996 83.1998 48.7996C83.5998 48.5996 83.7998 48.1996 83.6998 47.7996ZM84.0998 59.7996C83.7998 59.4996 83.2998 59.5996 82.9998 59.8996C82.6998 60.2996 82.7998 60.6996 83.0998 60.9996C83.2998 61.0996 83.3998 61.1996 83.5998 61.1996C83.7998 61.1996 83.9998 61.0996 84.1998 60.8996C84.3998 60.5996 84.3998 60.0996 84.0998 59.7996ZM84.7998 50.8996C84.5998 50.4996 84.1998 50.2996 83.7998 50.3996C83.3998 50.5996 83.1998 50.9996 83.2998 51.3996C83.3998 51.6996 83.6998 51.8996 83.9998 51.8996H84.2998C84.6998 51.6996 84.8998 51.2996 84.7998 50.8996ZM85.6998 54.0996C85.5998 53.6996 85.1998 53.3996 84.7998 53.4996C84.3998 53.5996 84.0998 53.9996 84.1998 54.3996C84.2998 54.7996 84.5998 54.9996 84.9998 54.9996C85.0998 54.9996 85.0998 54.9996 85.1998 54.9996C85.5998 54.8996 85.8998 54.4996 85.6998 54.0996ZM85.0998 56.7996C84.6998 56.6996 84.2998 56.9996 84.1998 57.3996C84.0998 57.7996 84.3998 58.1996 84.7998 58.2996C84.8998 58.2996 84.8998 58.2996 84.9998 58.2996C85.3998 58.2996 85.6998 58.0996 85.7998 57.6996C85.8998 57.2996 85.5998 56.8996 85.0998 56.7996ZM85.0998 56.7996C84.6998 56.6996 84.2998 56.9996 84.1998 57.3996C84.0998 57.7996 84.3998 58.1996 84.7998 58.2996C84.8998 58.2996 84.8998 58.2996 84.9998 58.2996C85.3998 58.2996 85.6998 58.0996 85.7998 57.6996C85.8998 57.2996 85.5998 56.8996 85.0998 56.7996ZM84.1998 54.3996C84.2998 54.7996 84.5998 54.9996 84.9998 54.9996C85.0998 54.9996 85.0998 54.9996 85.1998 54.9996C85.5998 54.8996 85.8998 54.4996 85.6998 54.0996C85.5998 53.6996 85.1998 53.3996 84.7998 53.4996C84.3998 53.5996 84.0998 53.9996 84.1998 54.3996ZM83.2998 51.3996C83.3998 51.6996 83.6998 51.8996 83.9998 51.8996H84.2998C84.6998 51.6996 84.8998 51.2996 84.7998 50.8996C84.5998 50.4996 84.1998 50.2996 83.7998 50.3996C83.3998 50.5996 83.1998 50.9996 83.2998 51.3996ZM82.9998 59.8996C82.6998 60.2996 82.7998 60.6996 83.0998 60.9996C83.2998 61.0996 83.3998 61.1996 83.5998 61.1996C83.7998 61.1996 83.9998 61.0996 84.1998 60.8996C84.3998 60.5996 84.3998 60.0996 84.0998 59.7996C83.7998 59.4996 83.2998 59.5996 82.9998 59.8996ZM82.2998 48.2996C82.3998 48.5996 82.6998 48.7996 82.9998 48.7996C82.9998 48.7996 83.0998 48.7996 83.1998 48.7996C83.5998 48.5996 83.7998 48.1996 83.6998 47.7996C83.5998 47.3996 83.0998 47.1996 82.7998 47.2996C82.3998 47.4996 82.1998 47.8996 82.2998 48.2996ZM78.3998 41.7996C78.2998 41.4996 77.9998 41.2996 77.6998 41.2996C77.3998 41.2996 77.0998 41.4996 76.9998 41.7996L72.6998 54.0996C72.0998 55.9996 72.5998 58.0996 73.9998 59.4996C74.9998 60.4996 76.2998 60.9996 77.7998 60.9996C79.1998 60.9996 80.4998 60.4996 81.4998 59.4996C82.8998 58.0996 83.3998 55.9996 82.6998 54.0996L78.3998 41.7996ZM80.2998 58.3996C79.5998 59.0996 78.6998 59.4996 77.6998 59.4996C76.6998 59.4996 75.7998 59.0996 75.0998 58.3996C74.0998 57.3996 73.6998 55.8996 74.1998 54.5996L77.6998 44.3996L81.1998 54.5996C81.6998 55.9996 81.2998 57.3996 80.2998 58.3996ZM81.0998 45.1996C81.1998 45.4996 81.4998 45.6996 81.7998 45.6996H82.0998C82.4998 45.4996 82.6998 45.0996 82.5998 44.6996C82.4998 44.2996 81.9998 44.0996 81.5998 44.1996C81.1998 44.3996 80.9998 44.7996 81.0998 45.1996ZM80.6998 61.7996C80.2998 61.9996 80.0998 62.3996 80.2998 62.7996C80.3998 62.9996 80.6998 63.1996 80.9998 63.1996C81.0998 63.1996 81.1998 63.1996 81.2998 63.0996C81.6998 62.8996 81.8998 62.4996 81.6998 62.1996C81.4998 61.7996 81.0998 61.5996 80.6998 61.7996ZM80.0998 42.0996C80.1998 42.3996 80.4998 42.5996 80.7998 42.5996H81.0998C81.4998 42.3996 81.6998 41.9996 81.5998 41.5996C81.3998 41.1996 80.9998 40.9996 80.5998 41.0996C80.1998 41.2996 79.9998 41.6996 80.0998 42.0996ZM79.6998 39.5996H79.9998C80.3998 39.3996 80.5998 38.9996 80.4998 38.5996C80.2998 38.1996 79.8998 37.9996 79.4998 38.0996C79.0998 38.1996 78.8998 38.5996 78.9998 39.0996C79.0998 39.3996 79.3998 39.5996 79.6998 39.5996ZM77.7998 62.2996C77.2998 62.2996 76.9998 62.6996 76.9998 63.0996C76.9998 63.5996 77.2998 63.8996 77.7998 63.8996C78.1998 63.8996 78.4998 63.5996 78.5998 63.0996C78.5998 62.5996 78.1998 62.2996 77.7998 62.2996ZM77.6998 37.3996C78.1998 37.3996 78.4998 36.9996 78.4998 36.5996C78.4998 36.0996 78.0998 35.7996 77.6998 35.7996C77.2998 35.7996 76.9998 36.0996 76.8998 36.5996C76.8998 37.0996 77.2998 37.3996 77.6998 37.3996ZM75.4998 39.4996H75.7998C76.0998 39.4996 76.3998 39.2996 76.4998 38.9996C76.5998 38.5996 76.3998 38.0996 75.9998 37.9996C75.5998 37.8996 75.0998 38.0996 74.9998 38.4996C74.8998 38.8996 75.0998 39.3996 75.4998 39.4996ZM74.3998 42.5996H74.6998C74.9998 42.5996 75.2998 42.3996 75.3998 42.0996C75.4998 41.6996 75.2998 41.1996 74.8998 41.0996C74.4998 40.9996 73.9998 41.1996 73.8998 41.5996C73.7998 41.9996 73.9998 42.4996 74.3998 42.5996ZM74.7998 61.6996C74.3998 61.5996 73.9998 61.6996 73.7998 62.0996C73.6998 62.4996 73.7998 62.8996 74.1998 63.0996C74.2998 63.1996 74.3998 63.1996 74.4998 63.1996C74.7998 63.1996 75.0998 63.0996 75.1998 62.7996C75.3998 62.3996 75.2998 61.8996 74.7998 61.6996ZM73.4998 45.6996C73.4998 45.6996 73.5998 45.6996 73.6998 45.6996C73.9998 45.6996 74.2998 45.4996 74.3998 45.1996C74.4998 44.7996 74.2998 44.2996 73.8998 44.1996C73.4998 44.0996 72.9998 44.2996 72.8998 44.6996C72.6998 45.0996 72.8998 45.5996 73.4998 45.6996ZM72.2998 48.7996H72.5998C72.8998 48.7996 73.1998 48.5996 73.2998 48.2996C73.3998 47.8996 73.1998 47.3996 72.7998 47.2996C72.3998 47.1996 71.8998 47.3996 71.7998 47.7996C71.5998 48.1996 71.8998 48.6996 72.2998 48.7996ZM71.3998 59.7996C71.0998 60.0996 70.9998 60.5996 71.2998 60.8996C71.4998 61.0996 71.6998 61.1996 71.8998 61.1996C72.0998 61.1996 72.2998 61.0996 72.3998 60.9996C72.7998 60.6996 72.7998 60.2996 72.4998 59.8996C72.1998 59.5996 71.6998 59.4996 71.3998 59.7996ZM71.2998 51.8996C71.2998 51.8996 71.3998 51.8996 71.4998 51.8996C71.7998 51.8996 72.0998 51.6996 72.1998 51.3996C72.2998 50.9996 72.0998 50.4996 71.6998 50.3996C71.2998 50.2996 70.7998 50.4996 70.6998 50.8996C70.5998 51.2996 70.7998 51.7996 71.2998 51.8996ZM71.1998 57.3996C71.0998 56.9996 70.6998 56.6996 70.2998 56.7996C69.8998 56.8996 69.5998 57.2996 69.6998 57.6996C69.7998 58.0996 70.1998 58.2996 70.4998 58.2996C70.5998 58.2996 70.5998 58.2996 70.6998 58.2996C71.0998 58.1996 71.2998 57.6996 71.1998 57.3996ZM70.1998 54.9996C70.2998 54.9996 70.2998 54.9996 70.3998 54.9996C70.7998 54.9996 71.0998 54.7996 71.1998 54.3996C71.2998 53.9996 70.9998 53.5996 70.5998 53.4996C70.1998 53.3996 69.7998 53.6996 69.6998 54.0996C69.5998 54.4996 69.7998 54.8996 70.1998 54.9996ZM77.6998 9.19961C75.6998 9.19961 74.0998 10.7996 74.0998 12.7996C74.0998 14.7996 75.6998 16.3996 77.6998 16.3996C79.6998 16.3996 81.2998 14.7996 81.2998 12.7996C81.2998 10.7996 79.6998 9.19961 77.6998 9.19961ZM77.6998 14.8996C76.4998 14.8996 75.5998 13.8996 75.5998 12.7996C75.5998 11.5996 76.5998 10.6996 77.6998 10.6996C78.8998 10.6996 79.7998 11.6996 79.7998 12.7996C79.7998 13.8996 78.8998 14.8996 77.6998 14.8996ZM88.0998 52.3996L79.6998 28.2996C80.7998 27.5996 81.5998 26.3996 81.5998 24.9996C81.5998 23.1996 80.2998 21.6996 78.4998 21.2996V20.1996C82.2998 19.7996 85.1998 16.6996 85.1998 12.8996C85.1998 8.89961 81.8998 5.59961 77.7998 5.59961C73.6998 5.59961 70.3998 8.89961 70.3998 12.8996C70.3998 16.6996 73.3998 19.7996 77.0998 20.1996V21.2996C75.2998 21.5996 73.9998 23.1996 73.9998 24.9996C73.9998 26.3996 74.7998 27.5996 75.8998 28.2996L67.4998 52.3996C66.0998 56.2996 67.0998 60.4996 70.0998 63.3996C72.1998 65.3996 74.8998 66.4996 77.7998 66.4996C80.6998 66.4996 83.3998 65.3996 85.4998 63.3996C88.3998 60.4996 89.3998 56.1996 88.0998 52.3996ZM71.7998 12.7996C71.7998 9.59961 74.4998 6.99961 77.6998 6.99961C80.9998 6.99961 83.5998 9.59961 83.5998 12.7996C83.5998 15.9996 80.9998 18.5996 77.6998 18.5996C74.3998 18.5996 71.7998 15.9996 71.7998 12.7996ZM75.3998 24.8996C75.3998 23.9996 75.9998 23.0996 76.8998 22.7996V24.8996C76.8998 25.3996 77.2998 25.6996 77.6998 25.6996C78.1998 25.6996 78.4998 25.2996 78.4998 24.8996V22.7996C79.3998 23.0996 79.9998 23.8996 79.9998 24.8996C79.9998 26.1996 78.9998 27.1996 77.6998 27.1996C76.4998 27.1996 75.3998 26.1996 75.3998 24.8996ZM84.1998 62.2996C82.3998 63.9996 80.0998 64.9996 77.5998 64.9996C75.0998 64.9996 72.7998 63.9996 70.9998 62.2996C68.4998 59.7996 67.6998 56.0996 68.7998 52.7996L77.1998 28.6996H78.1998L86.3998 52.7996C87.5998 56.1996 86.6998 59.7996 84.1998 62.2996ZM85.0998 56.7996C84.6998 56.6996 84.2998 56.9996 84.1998 57.3996C84.0998 57.7996 84.3998 58.1996 84.7998 58.2996C84.8998 58.2996 84.8998 58.2996 84.9998 58.2996C85.3998 58.2996 85.6998 58.0996 85.7998 57.6996C85.8998 57.2996 85.5998 56.8996 85.0998 56.7996ZM84.1998 54.3996C84.2998 54.7996 84.5998 54.9996 84.9998 54.9996C85.0998 54.9996 85.0998 54.9996 85.1998 54.9996C85.5998 54.8996 85.8998 54.4996 85.6998 54.0996C85.5998 53.6996 85.1998 53.3996 84.7998 53.4996C84.3998 53.5996 84.0998 53.9996 84.1998 54.3996ZM83.2998 51.3996C83.3998 51.6996 83.6998 51.8996 83.9998 51.8996H84.2998C84.6998 51.6996 84.8998 51.2996 84.7998 50.8996C84.5998 50.4996 84.1998 50.2996 83.7998 50.3996C83.3998 50.5996 83.1998 50.9996 83.2998 51.3996ZM82.9998 59.8996C82.6998 60.2996 82.7998 60.6996 83.0998 60.9996C83.2998 61.0996 83.3998 61.1996 83.5998 61.1996C83.7998 61.1996 83.9998 61.0996 84.1998 60.8996C84.3998 60.5996 84.3998 60.0996 84.0998 59.7996C83.7998 59.4996 83.2998 59.5996 82.9998 59.8996ZM82.2998 48.2996C82.3998 48.5996 82.6998 48.7996 82.9998 48.7996C82.9998 48.7996 83.0998 48.7996 83.1998 48.7996C83.5998 48.5996 83.7998 48.1996 83.6998 47.7996C83.5998 47.3996 83.0998 47.1996 82.7998 47.2996C82.3998 47.4996 82.1998 47.8996 82.2998 48.2996ZM78.3998 41.7996C78.2998 41.4996 77.9998 41.2996 77.6998 41.2996C77.3998 41.2996 77.0998 41.4996 76.9998 41.7996L72.6998 54.0996C72.0998 55.9996 72.5998 58.0996 73.9998 59.4996C74.9998 60.4996 76.2998 60.9996 77.7998 60.9996C79.1998 60.9996 80.4998 60.4996 81.4998 59.4996C82.8998 58.0996 83.3998 55.9996 82.6998 54.0996L78.3998 41.7996ZM80.2998 58.3996C79.5998 59.0996 78.6998 59.4996 77.6998 59.4996C76.6998 59.4996 75.7998 59.0996 75.0998 58.3996C74.0998 57.3996 73.6998 55.8996 74.1998 54.5996L77.6998 44.3996L81.1998 54.5996C81.6998 55.9996 81.2998 57.3996 80.2998 58.3996ZM81.0998 45.1996C81.1998 45.4996 81.4998 45.6996 81.7998 45.6996H82.0998C82.4998 45.4996 82.6998 45.0996 82.5998 44.6996C82.4998 44.2996 81.9998 44.0996 81.5998 44.1996C81.1998 44.3996 80.9998 44.7996 81.0998 45.1996ZM80.6998 61.7996C80.2998 61.9996 80.0998 62.3996 80.2998 62.7996C80.3998 62.9996 80.6998 63.1996 80.9998 63.1996C81.0998 63.1996 81.1998 63.1996 81.2998 63.0996C81.6998 62.8996 81.8998 62.4996 81.6998 62.1996C81.4998 61.7996 81.0998 61.5996 80.6998 61.7996ZM80.0998 42.0996C80.1998 42.3996 80.4998 42.5996 80.7998 42.5996H81.0998C81.4998 42.3996 81.6998 41.9996 81.5998 41.5996C81.3998 41.1996 80.9998 40.9996 80.5998 41.0996C80.1998 41.2996 79.9998 41.6996 80.0998 42.0996ZM79.6998 39.5996H79.9998C80.3998 39.3996 80.5998 38.9996 80.4998 38.5996C80.2998 38.1996 79.8998 37.9996 79.4998 38.0996C79.0998 38.1996 78.8998 38.5996 78.9998 39.0996C79.0998 39.3996 79.3998 39.5996 79.6998 39.5996ZM81.2998 12.7996C81.2998 10.7996 79.6998 9.19961 77.6998 9.19961C75.6998 9.19961 74.0998 10.7996 74.0998 12.7996C74.0998 14.7996 75.6998 16.3996 77.6998 16.3996C79.6998 16.3996 81.2998 14.7996 81.2998 12.7996ZM75.5998 12.7996C75.5998 11.5996 76.5998 10.6996 77.6998 10.6996C78.8998 10.6996 79.7998 11.6996 79.7998 12.7996C79.7998 13.8996 78.8998 14.8996 77.6998 14.8996C76.4998 14.8996 75.5998 13.8996 75.5998 12.7996ZM77.7998 62.2996C77.2998 62.2996 76.9998 62.6996 76.9998 63.0996C76.9998 63.5996 77.2998 63.8996 77.7998 63.8996C78.1998 63.8996 78.4998 63.5996 78.5998 63.0996C78.5998 62.5996 78.1998 62.2996 77.7998 62.2996ZM77.6998 37.3996C78.1998 37.3996 78.4998 36.9996 78.4998 36.5996C78.4998 36.0996 78.0998 35.7996 77.6998 35.7996C77.2998 35.7996 76.9998 36.0996 76.8998 36.5996C76.8998 37.0996 77.2998 37.3996 77.6998 37.3996ZM75.4998 39.4996H75.7998C76.0998 39.4996 76.3998 39.2996 76.4998 38.9996C76.5998 38.5996 76.3998 38.0996 75.9998 37.9996C75.5998 37.8996 75.0998 38.0996 74.9998 38.4996C74.8998 38.8996 75.0998 39.3996 75.4998 39.4996ZM74.3998 42.5996H74.6998C74.9998 42.5996 75.2998 42.3996 75.3998 42.0996C75.4998 41.6996 75.2998 41.1996 74.8998 41.0996C74.4998 40.9996 73.9998 41.1996 73.8998 41.5996C73.7998 41.9996 73.9998 42.4996 74.3998 42.5996ZM74.7998 61.6996C74.3998 61.5996 73.9998 61.6996 73.7998 62.0996C73.6998 62.4996 73.7998 62.8996 74.1998 63.0996C74.2998 63.1996 74.3998 63.1996 74.4998 63.1996C74.7998 63.1996 75.0998 63.0996 75.1998 62.7996C75.3998 62.3996 75.2998 61.8996 74.7998 61.6996ZM73.4998 45.6996C73.4998 45.6996 73.5998 45.6996 73.6998 45.6996C73.9998 45.6996 74.2998 45.4996 74.3998 45.1996C74.4998 44.7996 74.2998 44.2996 73.8998 44.1996C73.4998 44.0996 72.9998 44.2996 72.8998 44.6996C72.6998 45.0996 72.8998 45.5996 73.4998 45.6996ZM72.2998 48.7996H72.5998C72.8998 48.7996 73.1998 48.5996 73.2998 48.2996C73.3998 47.8996 73.1998 47.3996 72.7998 47.2996C72.3998 47.1996 71.8998 47.3996 71.7998 47.7996C71.5998 48.1996 71.8998 48.6996 72.2998 48.7996ZM71.3998 59.7996C71.0998 60.0996 70.9998 60.5996 71.2998 60.8996C71.4998 61.0996 71.6998 61.1996 71.8998 61.1996C72.0998 61.1996 72.2998 61.0996 72.3998 60.9996C72.7998 60.6996 72.7998 60.2996 72.4998 59.8996C72.1998 59.5996 71.6998 59.4996 71.3998 59.7996ZM71.2998 51.8996C71.2998 51.8996 71.3998 51.8996 71.4998 51.8996C71.7998 51.8996 72.0998 51.6996 72.1998 51.3996C72.2998 50.9996 72.0998 50.4996 71.6998 50.3996C71.2998 50.2996 70.7998 50.4996 70.6998 50.8996C70.5998 51.2996 70.7998 51.7996 71.2998 51.8996ZM71.1998 57.3996C71.0998 56.9996 70.6998 56.6996 70.2998 56.7996C69.8998 56.8996 69.5998 57.2996 69.6998 57.6996C69.7998 58.0996 70.1998 58.2996 70.4998 58.2996C70.5998 58.2996 70.5998 58.2996 70.6998 58.2996C71.0998 58.1996 71.2998 57.6996 71.1998 57.3996ZM70.1998 54.9996C70.2998 54.9996 70.2998 54.9996 70.3998 54.9996C70.7998 54.9996 71.0998 54.7996 71.1998 54.3996C71.2998 53.9996 70.9998 53.5996 70.5998 53.4996C70.1998 53.3996 69.7998 53.6996 69.6998 54.0996C69.5998 54.4996 69.7998 54.8996 70.1998 54.9996ZM77.6998 9.19961C75.6998 9.19961 74.0998 10.7996 74.0998 12.7996C74.0998 14.7996 75.6998 16.3996 77.6998 16.3996C79.6998 16.3996 81.2998 14.7996 81.2998 12.7996C81.2998 10.7996 79.6998 9.19961 77.6998 9.19961ZM77.6998 14.8996C76.4998 14.8996 75.5998 13.8996 75.5998 12.7996C75.5998 11.5996 76.5998 10.6996 77.6998 10.6996C78.8998 10.6996 79.7998 11.6996 79.7998 12.7996C79.7998 13.8996 78.8998 14.8996 77.6998 14.8996ZM77.6998 9.19961C75.6998 9.19961 74.0998 10.7996 74.0998 12.7996C74.0998 14.7996 75.6998 16.3996 77.6998 16.3996C79.6998 16.3996 81.2998 14.7996 81.2998 12.7996C81.2998 10.7996 79.6998 9.19961 77.6998 9.19961ZM77.6998 14.8996C76.4998 14.8996 75.5998 13.8996 75.5998 12.7996C75.5998 11.5996 76.5998 10.6996 77.6998 10.6996C78.8998 10.6996 79.7998 11.6996 79.7998 12.7996C79.7998 13.8996 78.8998 14.8996 77.6998 14.8996ZM77.6998 9.19961C75.6998 9.19961 74.0998 10.7996 74.0998 12.7996C74.0998 14.7996 75.6998 16.3996 77.6998 16.3996C79.6998 16.3996 81.2998 14.7996 81.2998 12.7996C81.2998 10.7996 79.6998 9.19961 77.6998 9.19961ZM77.6998 14.8996C76.4998 14.8996 75.5998 13.8996 75.5998 12.7996C75.5998 11.5996 76.5998 10.6996 77.6998 10.6996C78.8998 10.6996 79.7998 11.6996 79.7998 12.7996C79.7998 13.8996 78.8998 14.8996 77.6998 14.8996ZM77.6998 9.19961C75.6998 9.19961 74.0998 10.7996 74.0998 12.7996C74.0998 14.7996 75.6998 16.3996 77.6998 16.3996C79.6998 16.3996 81.2998 14.7996 81.2998 12.7996C81.2998 10.7996 79.6998 9.19961 77.6998 9.19961ZM77.6998 14.8996C76.4998 14.8996 75.5998 13.8996 75.5998 12.7996C75.5998 11.5996 76.5998 10.6996 77.6998 10.6996C78.8998 10.6996 79.7998 11.6996 79.7998 12.7996C79.7998 13.8996 78.8998 14.8996 77.6998 14.8996ZM77.6998 9.19961C75.6998 9.19961 74.0998 10.7996 74.0998 12.7996C74.0998 14.7996 75.6998 16.3996 77.6998 16.3996C79.6998 16.3996 81.2998 14.7996 81.2998 12.7996C81.2998 10.7996 79.6998 9.19961 77.6998 9.19961ZM77.6998 14.8996C76.4998 14.8996 75.5998 13.8996 75.5998 12.7996C75.5998 11.5996 76.5998 10.6996 77.6998 10.6996C78.8998 10.6996 79.7998 11.6996 79.7998 12.7996C79.7998 13.8996 78.8998 14.8996 77.6998 14.8996ZM77.6998 9.19961C75.6998 9.19961 74.0998 10.7996 74.0998 12.7996C74.0998 14.7996 75.6998 16.3996 77.6998 16.3996C79.6998 16.3996 81.2998 14.7996 81.2998 12.7996C81.2998 10.7996 79.6998 9.19961 77.6998 9.19961ZM77.6998 14.8996C76.4998 14.8996 75.5998 13.8996 75.5998 12.7996C75.5998 11.5996 76.5998 10.6996 77.6998 10.6996C78.8998 10.6996 79.7998 11.6996 79.7998 12.7996C79.7998 13.8996 78.8998 14.8996 77.6998 14.8996Z" fill="#404041"/>
</svg>
