<svg width="131" height="72" viewBox="0 0 131 72" fill="none" xmlns="http://www.w3.org/2000/svg">
<path d="M97.2996 56.8991C97.1996 55.6991 97.1996 54.3991 96.9996 53.1991C96.5996 49.4991 96.0996 45.6991 95.5996 41.9991C95.4996 41.2991 95.0996 40.8991 94.4996 40.9991C93.9996 41.0991 93.6996 41.4991 93.7996 42.1991C94.1996 44.5991 94.4996 46.9991 94.7996 49.3991C95.0996 52.1991 95.3996 54.9991 95.5996 57.7991C95.7996 60.3991 93.8996 62.5991 91.2996 63.0991C90.6996 63.2991 89.9996 63.2991 89.2996 63.3991C81.5996 64.1991 73.8996 64.6991 66.1996 64.5991C62.2996 64.5991 58.3996 64.5991 54.4996 64.3991C49.8996 64.1991 45.1996 63.6991 40.5996 63.2991C37.2996 63.0991 35.1996 60.5991 35.4996 57.3991C35.7996 53.8991 36.0996 50.2991 36.5996 46.7991C37.3996 40.8991 38.3996 34.9991 39.3996 29.0991C39.4996 28.0991 39.6996 27.1991 39.8996 26.1991C40.1996 26.9991 40.2996 27.6991 40.4996 28.3991C40.6996 29.0991 40.8996 29.8991 41.0996 30.5991C43.9996 39.9991 50.2996 45.8991 59.7996 48.3991C60.2996 48.4991 60.8996 48.3991 61.0996 48.6991C61.3996 48.9991 61.2996 49.5991 61.2996 50.0991C61.3996 51.4991 62.3996 52.4991 63.8996 52.4991H67.0996C68.5996 52.4991 69.5996 51.4991 69.5996 49.9991V49.1991C69.5996 48.6991 69.7996 48.5991 70.1996 48.4991C73.2996 47.9991 76.0996 46.7991 78.6996 45.1991C84.4996 41.4991 87.9996 36.1991 89.8996 29.7991C90.2996 28.5991 90.4996 27.3991 90.8996 25.9991C90.8996 26.2991 90.9996 26.3991 90.9996 26.4991C91.6996 30.1991 92.2996 33.9991 92.9996 37.6991C93.0996 38.3991 93.4996 38.7991 94.0996 38.6991C94.5996 38.5991 94.8996 38.0991 94.7996 37.3991C93.7996 31.4991 92.6996 25.6991 91.5996 19.7991C91.3996 18.8991 91.1996 18.6991 90.1996 18.6991H79.6996C79.6996 18.4991 79.5996 18.3991 79.5996 18.1991C78.7996 10.4991 71.9996 4.89913 64.1996 5.69913C62.6996 5.79913 61.0996 6.19913 59.6996 6.89913C59.0996 7.09913 58.8996 7.59913 59.0996 8.09913C59.1996 8.59913 59.6996 8.79913 60.2996 8.59913C60.3996 8.49913 60.5996 8.49913 60.6996 8.39913C67.5996 5.49913 75.5996 9.39913 77.3996 16.5991C77.5996 17.1991 77.6996 17.9991 77.7996 18.6991H75.8996C75.4996 18.6991 75.4996 18.4991 75.3996 18.1991C74.4996 11.5991 67.3996 7.79913 61.3996 10.5991C58.1996 12.0991 56.2996 14.6991 55.6996 18.1991C55.6996 18.3991 55.4996 18.6991 55.3996 18.6991H53.3996V18.2991C53.6996 15.3991 54.9996 12.9991 56.9996 10.8991C57.4996 10.2991 57.5996 9.79913 57.1996 9.39913C56.6996 8.89913 56.1996 8.99913 55.5996 9.59913C53.7996 11.3991 52.4996 13.4991 51.8996 15.9991C51.6996 16.7991 51.5996 17.6991 51.3996 18.5991H40.8996C39.7996 18.5991 39.5996 18.6991 39.3996 19.7991C38.2996 25.8991 37.0996 31.9991 36.0996 38.0991C35.2996 43.2991 34.6996 48.3991 33.9996 53.5991C33.7996 54.6991 33.6996 55.7991 33.5996 56.8991V58.8991C33.5996 58.9991 33.6996 59.0991 33.6996 59.1991C34.0996 60.8991 34.8996 62.2991 36.1996 63.3991C37.4996 64.4991 39.0996 64.9991 40.7996 65.0991C45.5996 65.3991 50.3996 65.9991 55.2996 66.1991C60.5996 66.4991 65.7996 66.3991 71.0996 66.3991C77.6996 66.3991 84.1996 65.7991 90.6996 65.0991C94.9996 64.6991 97.7996 61.2991 97.2996 56.8991ZM67.7996 49.8991C67.7996 50.3991 67.4996 50.6991 66.9996 50.6991H63.8996C63.2996 50.6991 63.0996 50.3991 63.0996 49.8991V45.1991C63.0996 44.6991 63.2996 44.3991 63.8996 44.3991H66.9996C67.5996 44.3991 67.7996 44.6991 67.7996 45.2991V49.8991ZM65.4996 11.5991C70.5996 11.5991 73.3996 15.8991 73.3996 18.6991H57.4996C57.4996 15.7991 60.4996 11.5991 65.4996 11.5991ZM41.2996 20.6991H89.7996C89.4996 22.7991 89.1996 24.8991 88.7996 26.8991C87.8996 31.3991 86.0996 35.5991 83.0996 39.0991C79.6996 42.9991 75.4996 45.5991 70.3996 46.6991H69.6996V45.2991C69.5996 43.5991 68.5996 42.5991 66.8996 42.5991H63.8996C62.3996 42.6991 61.3996 43.6991 61.2996 45.1991V46.8991C59.7996 46.4991 58.3996 46.0991 57.0996 45.5991C49.6996 42.4991 44.9996 37.0991 42.7996 29.3991C42.0996 26.6991 41.5996 23.9991 41.2996 21.3991V20.6991Z" fill="#404041"/>
</svg>
