<svg width="131" height="72" viewBox="0 0 131 72" fill="none" xmlns="http://www.w3.org/2000/svg">
<path d="M73.9 46.5L73 45.7L75.2 43.5L76.1 44.4L73.9 46.5Z" fill="#404041"/>
<path d="M76.7008 32.4L88.5008 20.7C88.6008 20.6 88.7008 20.5 88.7008 20.3C88.7008 20.2 88.6008 20 88.5008 19.9L81.9008 13.4C81.6008 13.2 81.2008 13.2 81.0008 13.4L69.2008 25.2C69.1008 25.2 69.1008 25.3 69.1008 25.3L69.0008 25.4L68.8008 25.3C67.6008 24.9 66.3008 24.7 65.0008 24.7C58.6008 24.7 53.4008 29.8 53.4008 36.1C53.4008 37.4 53.6008 38.6 54.0008 39.8L54.1008 39.9L42.5008 51.3C42.4008 51.4 42.3008 51.5 42.3008 51.7C42.3008 51.8 42.4008 52 42.5008 52.1L49.1008 58.6C49.4008 58.8 49.8008 58.8 50.0008 58.6L62.0008 47H62.1008C63.1008 47.3 64.1008 47.4 65.2008 47.4C71.6008 47.4 76.8008 42.3 76.8008 36C76.8008 34.9 76.6008 33.8 76.3008 32.8L76.2008 32.6L76.4008 32.5C76.5008 32.5 76.6008 32.5 76.7008 32.4ZM80.1008 16L81.5008 14.7L87.2008 20.3L86.2008 21.2H80.1008V16ZM75.9008 20.2L78.9008 17.2V21.8C78.9008 22.2 79.2008 22.4 79.5008 22.4H85.0008L82.0008 25.4H75.9008V20.2ZM50.9008 56L49.5008 57.3L43.8008 51.7L44.8008 50.8H50.9008V56ZM55.1008 51.8L52.1008 54.8V50.2C52.1008 49.9 51.8008 49.6 51.5008 49.6H46.0008L49.0008 46.6H55.1008V51.8ZM56.3008 50.6V46C56.3008 45.7 56.0008 45.4 55.7008 45.4H50.2008L54.6008 41L54.8008 41.3C56.0008 43.5 57.9008 45.3 60.2008 46.4L60.5008 46.5L56.3008 50.6ZM65.1008 46.2C59.4008 46.2 54.7008 41.6 54.7008 36C54.7008 30.4 59.4008 25.8 65.1008 25.8C70.8008 25.8 75.5008 30.4 75.5008 36C75.5008 41.6 70.8008 46.2 65.1008 46.2ZM75.8008 31.5L75.7008 31.2C74.6008 29 72.8008 27.1 70.5008 25.9L70.2008 25.8L74.6008 21.4V26C74.6008 26.3 74.9008 26.6 75.3008 26.6H80.8008L75.8008 31.5ZM65.1008 27.9C60.6008 27.9 56.9008 31.5 56.9008 36C56.9008 40.5 60.6008 44.1 65.1008 44.1C69.6008 44.1 73.3008 40.5 73.3008 36C73.3008 31.5 69.7008 27.9 65.1008 27.9ZM65.1008 42.9C61.2008 42.9 58.1008 39.8 58.1008 36C58.1008 32.2 61.2008 29.1 65.1008 29.1C68.9008 29.1 72.1008 32.2 72.1008 36C72.1008 39.8 69.0008 42.9 65.1008 42.9ZM65.6008 35.4V32.1H64.4008V36.6H69.8008V35.4H65.6008Z" fill="#404041"/>
</svg>
