<svg width="131" height="72" viewBox="0 0 131 72" fill="none" xmlns="http://www.w3.org/2000/svg">
<path d="M62.5 13.0996H48C46.1 13.0996 44.4 13.8996 43.1 15.0996C41.8 16.3996 41 18.0996 41 19.9996C41 20.0996 41 20.0996 41 20.0996V22.8996C41 23.6996 41.6 24.2996 42.4 24.2996H51.8V38.8996H47C45.7 38.8996 44.7 39.8996 44.7 41.1996C44.7 42.4996 45.7 43.4996 47 43.4996H52C52.3 45.2996 54.1 46.4996 55.9 46.1996C57.3 45.9996 58.4 44.8996 58.6 43.4996H63.5C64.7 43.4996 66 42.5996 66 41.2996C66 39.9996 65 38.9996 63.7 38.9996H58.8V24.2996H68.1C68.9 24.2996 69.5 23.6996 69.5 22.8996V20.0996C69.5 19.9996 69.5 19.9996 69.5 19.9996C69.4 16.1996 66.2 13.0996 62.5 13.0996ZM51.8 42.2996H46.9C46.3 42.2996 45.8 41.7996 45.8 41.1996C45.8 40.5996 46.3 40.1996 46.9 40.0996H51.8V42.2996ZM48.5 14.1996H61.8V15.3996C61.8 15.9996 61.3 16.4996 60.7 16.4996H49.5C48.9 16.4996 48.4 15.9996 48.4 15.3996L48.5 14.1996ZM57.2 42.8996C57.2 44.0996 56.2 44.9996 55 44.9996C53.9 44.9996 52.9 43.9996 52.9 42.8996V24.2996H57.2V42.8996ZM63.5 40.0996C64.1 40.1996 64.5 40.5996 64.6 41.1996C64.6 41.7996 64.1 42.2996 63.5 42.2996H58.6V40.0996C58.5 40.0996 63.5 40.0996 63.5 40.0996ZM68.1 22.8996C68.1 22.9996 68 23.0996 67.8 23.0996H42.2C42.1 23.0996 42 22.9996 42 22.8996V20.5996H68L68.1 22.8996ZM42.2 19.3996C42.6 16.6996 44.7 14.5996 47.4 14.2996V15.4996C47.4 16.6996 48.4 17.6996 49.6 17.6996H60.6C61.8 17.6996 62.8 16.6996 62.8 15.4996V14.2996C65.5 14.5996 67.6 16.6996 68.1 19.3996C68.2 19.3996 42.2 19.3996 42.2 19.3996Z" fill="#404041"/>
<path d="M83.2004 25.6992H68.9004C67.0004 25.6992 65.3004 26.4992 64.0004 27.6992C62.7004 28.9992 61.9004 30.6992 61.9004 32.5992V35.4992C61.9004 36.2992 62.5004 36.8992 63.3004 36.8992H72.7004V51.5992H67.8004C66.5004 51.5992 65.5004 52.5992 65.5004 53.8992C65.5004 55.1992 66.5004 56.1992 67.8004 56.1992H72.7004C73.0004 57.9992 74.8004 59.1992 76.6004 58.8992C78.0004 58.6992 79.1004 57.5992 79.3004 56.1992H84.1004C85.4004 56.1992 86.4004 55.1992 86.4004 53.8992C86.4004 52.5992 85.4004 51.5992 84.1004 51.5992H79.2004V36.8992H88.6004C89.4004 36.8992 90.0004 36.2992 90.0004 35.4992V32.6992V32.5992C89.9004 28.6992 86.9004 25.6992 83.2004 25.6992ZM72.6004 54.9992H67.7004C67.1004 54.9992 66.7004 54.4992 66.7004 53.8992C66.7004 53.2992 67.2004 52.7992 67.7004 52.7992H72.6004V54.9992ZM69.2004 26.8992H82.4004V28.0992C82.4004 28.6992 81.9004 29.1992 81.3004 29.1992H70.3004C69.7004 29.1992 69.2004 28.6992 69.2004 28.0992V26.8992ZM78.1004 55.5992C78.1004 56.7992 77.1004 57.6992 75.9004 57.6992C74.8004 57.6992 73.8004 56.6992 73.8004 55.5992V36.9992H78.1004V55.5992ZM84.1004 52.8992C84.7004 52.8992 85.1004 53.3992 85.1004 53.9992C85.1004 54.4992 84.7004 54.9992 84.1004 54.9992H79.2004V52.8992H84.1004ZM88.9004 35.4992C88.9004 35.5992 88.8004 35.6992 88.7004 35.6992H63.0004C62.9004 35.6992 62.8004 35.5992 62.8004 35.4992H62.7004V33.1992H88.7004V35.4992H88.9004ZM63.0004 32.0992C63.2004 30.7992 63.8004 29.5992 64.7004 28.6992C65.6004 27.7992 66.8004 27.1992 68.2004 26.9992V28.1992C68.2004 29.3992 69.2004 30.3992 70.4004 30.3992H81.4004C82.6004 30.3992 83.6004 29.3992 83.6004 28.1992V26.9992C86.3004 27.1992 88.5004 29.3992 88.9004 32.0992H63.0004Z" fill="#404041"/>
</svg>
