<svg width="131" height="72" viewBox="0 0 131 72" fill="none" xmlns="http://www.w3.org/2000/svg">
<path d="M83.1008 50.9004C83.0008 50.9004 83.0008 50.9004 83.1008 50.9004H48.1008C47.8008 50.9004 47.4008 50.8004 47.2008 50.6004C46.9008 50.4004 46.8008 50.0004 46.8008 49.7004C46.8008 49.0004 47.4008 48.4004 48.1008 48.4004H83.1008C83.8008 48.4004 84.4008 49.0004 84.4008 49.7004C84.3008 50.4004 83.7008 50.9004 83.1008 50.9004Z" fill="#404041"/>
<path d="M97.3008 22.2996C97.3008 21.9996 97.2008 21.5996 96.9008 21.3996C96.7008 21.1996 96.3008 21.0996 96.0008 21.0996H34.4008C34.1008 21.0996 33.8008 21.2996 33.6008 21.4996C33.4008 21.7996 33.3008 22.0996 33.3008 22.3996C33.3008 23.0996 33.9008 23.6996 34.6008 23.6996H38.3008L38.4008 24.8996C38.8008 29.4996 40.3008 33.7996 42.8008 37.2996C45.7008 41.3996 49.8008 43.6996 54.1008 43.6996H76.7008C81.0008 43.6996 85.0008 41.3996 88.0008 37.2996C90.5008 33.7996 92.0008 29.4996 92.4008 24.8996L92.5008 23.6996H96.2008C96.9008 23.6996 97.3008 23.2996 97.3008 22.5996C97.3008 22.4996 97.3008 22.3996 97.3008 22.2996ZM89.8008 25.0996C89.4008 28.8996 88.1008 32.5996 85.9008 35.6996C83.5008 39.0996 80.2008 40.9996 76.8008 40.9996H54.2008C50.8008 40.9996 47.5008 39.0996 45.1008 35.6996C43.0008 32.8996 41.6008 29.1996 41.2008 25.0996L41.0008 23.6996H90.0008L89.8008 25.0996Z" fill="#404041"/>
</svg>
