<svg width="131" height="72" viewBox="0 0 131 72" fill="none" xmlns="http://www.w3.org/2000/svg">
<path d="M87.9992 21.6996C84.3992 20.1996 79.2992 19.0996 73.8992 18.5996H73.2992C70.1992 18.5996 67.6992 20.8996 67.3992 23.9996V24.0996C67.2992 25.5996 67.6992 27.0996 68.6992 28.1996C69.5992 29.3996 70.9992 30.0996 72.4992 30.1996C77.0992 30.4996 81.5992 31.3996 85.9992 32.7996L87.3992 33.0996L86.4992 33.3996C83.4992 34.3996 80.2992 35.0996 77.1992 35.4996H76.8992L76.7992 35.2996C76.2992 33.8996 75.3992 32.7996 74.1992 31.9996C72.9992 31.1996 71.5992 30.7996 70.1992 30.7996C69.3992 30.7996 68.5992 30.8996 67.7992 31.1996C67.1992 31.3996 66.5992 31.6996 66.0992 32.0996L65.8992 32.1996L65.6992 32.0996C62.5992 29.8996 58.1992 30.5996 55.8992 33.6996C55.4992 34.1996 55.1992 34.7996 54.9992 35.3996L54.8992 35.4996H54.5992C51.3992 35.0996 48.2992 34.3996 45.2992 33.3996L44.3992 33.0996L45.2992 32.7996C49.6992 31.3996 54.2992 30.4996 58.8992 30.1996C61.7992 29.9996 64.0992 27.4996 64.0992 24.5996C63.9992 21.3996 61.3992 18.6996 58.0992 18.6996H57.4992C51.9992 19.1996 46.9992 20.2996 43.2992 21.7996C38.9992 23.4996 36.6992 25.6996 36.6992 28.1996V37.8996C36.6992 42.7996 45.7992 45.8996 54.2992 47.0996H54.4992V47.2996C54.9992 50.7996 57.8992 53.2996 61.3992 53.2996C61.6992 53.2996 62.0992 53.2996 62.3992 53.1996C63.4992 53.0996 64.5992 52.6996 65.4992 51.9996L65.6992 51.8996L65.8992 51.9996C67.0992 52.7996 68.4992 53.2996 69.9992 53.2996H70.1992C73.4992 53.1996 76.3992 50.6996 76.8992 47.2996V47.0996H77.0992C87.5992 45.6996 94.0992 42.3996 94.5992 38.3996V38.2996C94.5992 38.2996 94.5992 38.0996 94.5992 37.7996V28.0996C94.5992 25.6996 92.2992 23.4996 87.9992 21.6996ZM38.2992 28.1996C38.2992 24.7996 46.2992 21.5996 57.3992 20.4996H57.7992C59.8992 20.4996 61.5992 21.9996 61.7992 24.0996V24.4996C61.7992 26.3996 60.2992 28.0996 58.3992 28.1996C52.6992 28.4996 47.1992 29.7996 41.8992 31.8996L41.7992 31.9996L41.1992 31.5996C41.0992 31.4996 40.8992 31.3996 40.7992 31.2996H40.6992C40.6992 31.1996 40.5992 31.1996 40.4992 31.0996L40.2992 30.9996C40.1992 30.9996 40.1992 30.8996 40.0992 30.8996C39.9992 30.7996 39.8992 30.7996 39.7992 30.6996C39.6992 30.5996 39.5992 30.4996 39.4992 30.3996C39.3992 30.2996 39.3992 30.2996 39.2992 30.1996C39.1992 30.0996 39.0992 29.9996 38.9992 29.8996L38.8992 29.7996L38.7992 29.6996C38.7992 29.5996 38.6992 29.5996 38.6992 29.4996V29.2996C38.5992 29.2996 38.5992 29.2996 38.5992 29.1996C38.5992 29.0996 38.4992 28.9996 38.4992 28.8996C38.3992 28.7996 38.3992 28.7996 38.3992 28.6996C38.2992 28.5996 38.2992 28.4996 38.2992 28.1996ZM55.4992 42.0996C55.2992 42.3996 55.1992 42.6996 54.9992 42.9996L54.8992 43.1996C54.5992 43.7996 54.3992 44.2996 54.2992 44.8996L54.1992 45.1996H53.8992C44.5992 43.7996 38.1992 40.7996 38.1992 37.8996V31.9996L38.7992 32.3996L38.8992 32.4996C39.0992 32.6996 39.3992 32.7996 39.5992 32.9996L39.9992 33.1996C40.4992 33.4996 40.8992 33.6996 41.2992 33.8996C45.2992 35.6996 49.4992 36.8996 53.8992 37.3996H54.1992V37.6996C54.1992 39.1996 54.5992 40.6996 55.4992 41.6996L55.5992 41.8996L55.4992 42.0996ZM74.9992 37.5996C74.9992 37.5996 74.9992 37.6996 74.9992 37.7996C74.9992 38.0996 74.9992 38.4996 74.8992 38.7996C74.6992 39.7996 74.1992 40.6996 73.4992 41.3996C73.4992 41.4996 73.3992 41.4996 73.3992 41.5996C73.3992 41.6996 73.2992 41.8996 73.2992 41.9996V42.2996C73.2992 42.3996 73.2992 42.3996 73.2992 42.3996V42.4996C73.2992 42.5996 73.3992 42.5996 73.4992 42.6996C75.3992 44.6996 75.4992 47.8996 73.4992 49.8996C71.5992 51.9996 68.2992 51.9996 66.2992 49.9996C66.0992 49.7996 65.8992 49.6996 65.5992 49.6996C65.3992 49.6996 65.1992 49.7996 64.9992 49.9996C62.9992 51.8996 59.7992 51.8996 57.7992 49.9996C55.8992 48.0996 55.7992 44.9996 57.5992 42.9996L57.6992 42.8996C57.6992 42.7996 57.7992 42.7996 57.7992 42.6996C57.9992 42.4996 57.9992 42.2996 57.9992 42.0996C57.9992 41.8996 57.8992 41.5996 57.7992 41.3996C56.6992 40.2996 56.0992 38.5996 56.3992 36.9996V36.7996C56.9992 34.0996 59.5992 32.2996 62.3992 32.7996C63.3992 32.9996 64.2992 33.4996 64.9992 34.1996C65.3992 34.5996 65.9992 34.5996 66.3992 34.1996C67.1992 33.4996 68.0992 32.9996 69.0992 32.7996C70.3992 32.4996 71.7992 32.7996 72.8992 33.5996C73.9992 34.3996 74.6992 35.5996 74.9992 36.8996V37.5996ZM72.6992 28.0996C70.7992 27.8996 69.2992 26.2996 69.2992 24.3996C69.2992 22.1996 71.0992 20.3996 73.2992 20.3996H73.4992C73.5992 20.3996 73.5992 20.3996 73.6992 20.3996C84.6992 21.4996 92.6992 24.6996 92.6992 28.0996V28.1996C92.6992 28.3996 92.5992 28.4996 92.5992 28.6996C92.4992 28.8996 92.4992 29.0996 92.3992 29.1996C92.3992 29.2996 92.2992 29.2996 92.2992 29.3996C92.2992 29.4996 92.1992 29.5996 92.0992 29.6996L91.9992 29.7996V29.8996C91.8992 29.9996 91.8992 29.9996 91.7992 30.0996L91.6992 30.1996C91.5992 30.2996 91.5992 30.2996 91.4992 30.3996C91.3992 30.4996 91.2992 30.5996 91.1992 30.6996C91.0992 30.7996 91.0992 30.7996 90.9992 30.8996C90.8992 30.9996 90.8992 30.9996 90.7992 31.0996C90.6992 31.0996 90.5992 31.1996 90.5992 31.1996L90.2992 31.3996C90.0992 31.4996 89.9992 31.4996 89.7992 31.4996L89.1992 31.8996L89.0992 31.7996C83.8992 29.5996 78.3992 28.3996 72.6992 28.0996ZM92.8992 33.2996C92.8992 35.6996 92.7992 37.5996 92.7992 37.8996C92.7992 38.0996 92.7992 38.3996 92.7992 38.3996C92.2992 41.1996 85.8992 43.9996 77.1992 45.2996H76.8992L76.7992 44.9996C76.6992 44.3996 76.4992 43.7996 76.1992 43.2996L76.0992 43.0996C75.9992 42.7996 75.7992 42.4996 75.5992 42.1996L75.4992 41.9996L75.5992 41.7996C76.3992 40.5996 76.8992 39.1996 76.8992 37.6996V37.3996H77.1992C81.4992 36.8996 85.6992 35.6996 89.6992 33.8996L89.8992 33.7996C90.0992 33.6996 90.3992 33.4996 90.5992 33.3996L90.8992 33.1996C91.0992 32.9996 91.3992 32.8996 91.5992 32.6996C91.6992 32.5996 91.7992 32.5996 91.8992 32.4996L92.8992 32.0996V33.2996Z" fill="#404041"/>
</svg>
