<svg width="131" height="72" viewBox="0 0 131 72" fill="none" xmlns="http://www.w3.org/2000/svg">
<path d="M91.0003 18.5573C89.0003 20.7883 87.1003 22.9179 85.1003 25.1489C84.4003 25.8587 84.5004 26.8728 84.3004 27.6841C83.7004 30.5235 83.5003 33.3629 83.1003 36.2024C82.6003 40.2587 81.6003 44.2137 79.7003 47.8644C78.7003 49.8925 77.0003 51.5151 75.6003 53.1376C73.0003 56.1798 70.5003 59.1207 67.9003 62.1629C66.6003 63.6841 65.3003 64.0897 63.8003 63.5827C62.0003 62.9742 61.0003 61.4531 60.9003 59.5263C60.8003 57.2953 62.0003 55.47 63.0003 53.6446C63.9003 52.0221 64.9003 50.3996 66.0003 48.6756C63.7003 49.9939 61.9003 51.7179 60.2003 53.3404C55.9003 57.3967 51.5003 61.5545 47.2003 65.6108C45.0003 67.639 41.9003 66.8277 41.0003 64.0897C40.6003 62.8728 40.8003 61.6559 41.7003 60.6418C42.0003 60.3376 42.0003 60.1348 41.7003 59.7291C40.2003 58.1066 40.1003 56.2813 41.5003 54.5573C42.0003 53.9489 42.1003 53.6446 41.4003 53.0362C40.1003 52.0221 39.9003 49.9939 40.7003 48.5742C41.2003 47.6615 41.8003 46.7489 42.5003 45.9376C42.8003 45.4305 42.9003 45.1263 42.3003 44.7207C40.9003 43.7066 40.4003 41.9827 41.2003 40.4615C43.7003 35.3911 46.6003 30.4221 50.7003 26.4672C53.4003 23.8306 56.6003 21.9038 59.7003 19.8756C61.6003 18.6587 63.5003 17.5432 65.4003 16.5291C65.6003 16.4277 65.8003 16.3263 66.0003 16.2249L66.1003 16.1235C66.5003 15.9207 66.7003 15.6165 67.0003 15.2108C68.9003 11.8644 70.7003 8.51787 72.6003 5.17139C73.7003 4.76576 74.9003 4.86717 75.4003 6.18548C73.4003 9.83618 71.3003 13.4869 69.3003 17.1376C69.0003 17.6446 68.6003 18.0503 68.1003 18.3545C68.1003 18.3545 68.1003 18.3545 68.0003 18.3545C67.7003 18.5573 67.4003 18.6587 67.2003 18.8615C66.5003 19.2672 65.8003 19.6728 65.1003 20.0784C65.0003 20.0784 65.0003 20.1798 65.0003 20.1798C64.7003 20.3827 64.4003 20.5855 64.1003 20.6869C61.1003 22.4108 58.1003 24.3376 55.3003 26.3658C52.6003 28.2925 50.5003 30.8277 48.6003 33.5658C47.0003 35.8982 45.5003 38.4334 44.2003 41.07C44.2003 41.1714 44.1003 41.2728 44.1003 41.2728C43.9003 41.6784 43.8003 42.0841 44.2003 42.2869C44.6003 42.4897 44.9003 42.2869 45.2003 41.8813C46.7003 39.5489 48.2003 37.3179 49.6003 35.0869C49.8003 34.7827 50.0003 34.4784 50.2003 34.1742C50.8003 33.2615 51.6003 32.9573 52.3003 33.4644C53.1003 33.9714 53.2003 34.8841 52.6003 35.7967C51.3003 37.7235 50.0003 39.7517 48.8003 41.6784C47.1003 44.2136 45.4003 46.8503 43.8003 49.3855C43.5003 49.7911 42.8003 50.2982 43.5003 50.8052C44.2003 51.3122 44.5003 50.6024 44.8003 50.0953C47.5003 46.546 50.2003 42.8953 52.8003 39.346C53.2003 38.839 53.7003 38.4334 54.4003 38.5348C55.0003 38.6362 55.4003 39.0418 55.6003 39.5489C55.8003 40.1573 55.6003 40.6644 55.2003 41.07C55.1003 41.1714 55.0003 41.3742 54.9003 41.4756C54.9003 41.577 54.8003 41.577 54.8003 41.6784C54.7003 41.8813 54.5003 42.0841 54.4003 42.2869C54.3003 42.3883 54.3003 42.4897 54.2003 42.5911C53.9003 42.9967 53.6003 43.4024 53.3003 43.808C53.0003 44.1122 52.8003 44.5179 52.5003 44.8221C52.4003 44.9235 52.4003 44.9235 52.3003 45.0249C52.2003 45.2277 52.1003 45.3291 51.9003 45.532C49.9003 48.1686 47.9003 50.8052 45.9003 53.5432C45.2003 54.4559 44.5003 55.47 43.8003 56.3827C43.5003 56.7883 43.3003 57.1939 43.7003 57.4982C44.2003 57.9038 44.4003 57.3967 44.6003 57.0925C47.3003 53.8475 50.0003 50.6024 52.8003 47.3573C52.9003 47.1545 53.1003 47.0531 53.2003 46.9517C53.4003 46.7489 53.5003 46.546 53.7003 46.3432C53.9003 46.1404 54.1003 45.9376 54.2003 45.7348H54.3003C54.7003 45.7348 55.1003 45.532 55.3003 45.2277C55.4003 45.1263 55.4003 45.0249 55.5003 44.9235C55.5003 44.8221 55.6003 44.7207 55.6003 44.5179C55.6003 44.4165 55.6003 44.3151 55.6003 44.2136C55.8003 44.0108 56.0003 43.808 56.2003 43.7066C56.4003 43.6052 56.7003 43.5038 57.0003 43.5038C57.1003 43.5038 57.3003 43.5038 57.4003 43.6052C57.8003 43.7066 58.1003 44.0108 58.3003 44.5179C58.5003 45.2277 58.1003 45.7348 57.7003 46.2418C56.0003 48.27 54.3003 50.2982 52.6003 52.3263C49.9003 55.5714 47.1003 58.8165 44.4003 62.1629C44.0003 62.5686 43.5003 63.0756 44.1003 63.6841C44.7003 64.2925 45.1003 63.7855 45.6003 63.3798C49.2003 60.0334 52.8003 56.5855 56.3003 53.239C59.1003 50.6024 61.7003 47.9658 65.0003 45.9376C66.1003 45.3291 67.2003 44.7207 68.4003 44.2136C69.4003 43.808 70.4003 44.0108 70.9003 44.7207C71.5003 45.532 71.5003 46.3432 70.8003 47.3573C68.9003 49.9939 67.0003 52.732 65.4003 55.5714C64.9003 56.5855 64.3003 57.4982 64.0003 58.6136C63.9003 59.1207 63.8003 59.6277 64.1003 60.1348C64.5003 60.946 65.2003 61.0475 65.8003 60.3376C69.3003 56.2813 72.8003 52.2249 76.2003 48.1686C77.8003 46.2418 78.5003 44.0108 79.2003 41.6784C80.2003 38.4334 80.5004 35.0869 80.8004 31.639C80.9004 30.2193 81.2003 28.7996 81.4003 27.3798C81.6003 26.3658 81.8003 25.4531 82.0003 24.439C82.0003 24.3376 82.0003 24.3376 82.1003 24.2362C82.2003 23.932 82.4003 23.6277 82.7003 23.4249C85.0003 20.7883 87.4003 18.2531 89.7003 15.6165C90.5003 15.8193 91.4003 16.3263 91.0003 18.5573Z" fill="#404041"/>
<path d="M55.4997 47.7637C55.5997 48.575 54.7997 49.1834 53.9997 49.2849C53.5997 49.2849 53.1997 49.082 52.8997 48.8792C52.5997 48.575 52.4997 48.1694 52.4997 47.7637C52.4997 47.6623 52.4997 47.6623 52.4997 47.6623C52.4997 47.4595 52.4997 47.2567 52.3997 47.0539C52.3997 46.9525 52.3997 46.9525 52.3997 46.8511C52.2997 46.4454 52.1997 46.0398 52.0997 45.6341C51.9997 45.5327 51.9997 45.4313 51.8997 45.3299C51.8997 45.2285 51.7997 45.2285 51.7997 45.1271C51.6997 45.0257 51.5997 44.9243 51.4997 44.8229C51.3997 44.7215 51.2997 44.7215 51.2997 44.7215C51.1997 44.7215 51.1997 44.6201 51.0997 44.6201H51.1997C50.8997 44.5187 50.6997 44.3158 50.4997 44.0116C50.2997 43.7074 50.2997 43.2003 50.3997 42.8961C50.4997 42.4905 50.7997 42.1863 51.0997 41.9834C51.3997 41.7806 51.8997 41.6792 52.1997 41.882C52.3997 41.9834 52.5997 42.0849 52.7997 42.1863C53.0997 42.2877 53.2997 42.4905 53.4997 42.6933C53.5997 42.7947 53.6997 42.7947 53.6997 42.8961C53.7997 42.9975 53.9997 43.2003 54.0997 43.3018H53.9997C53.4997 43.3018 52.9997 43.606 52.7997 44.113C52.6997 44.2144 52.6997 44.4172 52.6997 44.5187C52.6997 45.1271 53.1997 45.7356 53.7997 45.837H53.8997C54.2997 45.837 54.6997 45.6342 54.8997 45.3299C54.9997 45.6342 54.9997 45.9384 55.0997 46.2426C55.0997 46.5468 55.1997 46.8511 55.1997 47.0539C55.4997 47.2567 55.4997 47.4595 55.4997 47.7637Z" fill="#404041"/>
<path d="M67.7997 21.2949C67.7997 20.7878 67.7997 20.2808 67.7997 19.7738C67.7997 19.3681 67.7997 18.9625 67.6997 18.4554V18.354C67.6997 18.1512 67.6997 17.847 67.6997 17.6442C67.6997 16.8329 67.0997 16.123 66.1997 16.123C66.0997 16.123 65.8997 16.123 65.7997 16.2245C65.5997 16.3259 65.3997 16.4273 65.1997 16.5287C64.8997 16.8329 64.6997 17.1371 64.6997 17.6442C64.6997 17.9484 64.6997 18.2526 64.6997 18.5568C64.6997 18.9625 64.7997 19.4695 64.7997 19.8752C64.7997 19.9766 64.7997 20.078 64.7997 20.1794C64.7997 20.585 64.7997 20.9907 64.7997 21.3963C64.7997 21.8019 64.7997 22.309 64.7997 22.7146C64.7997 23.0188 64.7997 23.2216 64.7997 23.5259C64.7997 24.0329 64.7997 24.5399 64.6997 24.9456C64.6997 25.1484 64.6997 25.4526 64.5997 25.6554C64.5997 25.7568 64.5997 25.8583 64.5997 25.9597V26.0611C64.5997 26.0611 64.5997 26.0611 64.5997 26.1625C64.5997 26.3653 64.4997 26.5681 64.4997 26.7709C64.3997 27.0752 64.3997 27.4808 64.2997 27.785C64.8997 27.3794 65.4997 27.1766 66.2997 27.1766C66.6997 27.1766 67.0997 27.278 67.3997 27.3794C67.3997 27.0752 67.4997 26.8723 67.4997 26.5681C67.4997 26.2639 67.5997 26.0611 67.5997 25.7568C67.5997 25.3512 67.6997 24.8442 67.6997 24.4385C67.6997 23.8301 67.7997 23.1202 67.7997 22.5118C67.7997 22.2076 67.7997 21.8019 67.7997 21.2949ZM66.2997 21.3963C65.8997 21.3963 65.4997 21.0921 65.4997 20.585C65.4997 20.1794 65.7997 19.7738 66.2997 19.7738C66.7997 19.7738 67.0997 20.078 67.0997 20.585C66.9997 20.9907 66.6997 21.3963 66.2997 21.3963ZM59.5997 40.5625C58.6997 40.5625 57.8997 39.8526 57.8997 38.8385C57.8997 38.7371 57.8997 38.7371 57.8997 38.6357C57.6997 38.9399 57.3997 39.1428 57.1997 39.447C56.9997 39.6498 56.7997 39.8526 56.5997 40.0554C56.3997 40.2583 56.1997 40.4611 55.9997 40.6639C55.7997 40.8667 55.5997 41.0695 55.3997 41.2723C55.2997 41.3738 55.2997 41.3738 55.1997 41.4752L55.0997 41.5766C54.9997 41.678 54.8997 41.678 54.7997 41.7794C54.6997 41.8808 54.6997 41.8808 54.5997 41.9822C54.2997 42.185 54.0997 42.3878 53.7997 42.4892C53.7997 42.4892 53.6997 42.4892 53.6997 42.5907L53.5997 42.6921C53.1997 42.9963 52.9997 43.6047 53.0997 44.0104V44.1118C53.2997 43.6047 53.6997 43.3005 54.2997 43.3005H54.3997C54.8997 43.3005 55.3997 43.7061 55.4997 44.2132C55.4997 44.3146 55.4997 44.416 55.4997 44.5174C55.4997 44.6188 55.4997 44.8216 55.3997 44.923C55.6997 44.7202 55.9997 44.6188 56.1997 44.416C56.3997 44.2132 56.6997 44.1118 56.8997 43.909C56.9997 43.8076 57.0997 43.7061 57.1997 43.6047C57.7997 43.0977 58.3997 42.5907 58.8997 41.9822C59.0997 41.7794 59.2997 41.5766 59.5997 41.2723C59.8997 40.9681 60.1997 40.6639 60.4997 40.2583C60.1997 40.5625 59.8997 40.5625 59.5997 40.5625ZM64.9997 33.8695C63.9997 33.4639 63.2997 32.6526 62.9997 31.6385C62.9997 31.6385 62.9997 31.6385 62.9997 31.5371C62.7997 31.8414 62.6997 32.1456 62.4997 32.4498C62.2997 32.6526 62.1997 32.9569 61.9997 33.1597C61.7997 33.4639 61.5997 33.7681 61.2997 34.0723C60.8997 34.5794 60.4997 35.0864 60.1997 35.6949C59.9997 35.8977 59.8997 36.2019 59.6997 36.4047L59.5997 36.5061C59.4997 36.6076 59.3997 36.8104 59.2997 36.9118C59.2997 37.0132 59.1997 37.0132 59.1997 37.0132C59.1997 37.1146 59.0997 37.1146 59.0997 37.1146C59.2997 37.0132 59.3997 37.0132 59.5997 37.0132C60.4997 37.0132 61.2997 37.8245 61.2997 38.7371C61.2997 38.9399 61.2997 39.1428 61.1997 39.2442C61.4997 38.9399 61.6997 38.5343 61.9997 38.2301C62.1997 38.0273 62.3997 37.723 62.5997 37.4188C62.8997 37.0132 63.1997 36.6076 63.4997 36.2019C63.7997 35.7963 64.0997 35.3907 64.2997 34.985C64.3997 34.7822 64.5997 34.5794 64.6997 34.3766C64.7997 34.1738 64.9997 33.9709 65.0997 33.6667C65.0997 33.5653 65.1997 33.5653 65.1997 33.4639C65.0997 33.7681 64.9997 33.8695 64.9997 33.8695Z" fill="#404041"/>
<path d="M82.4996 24.3379C82.2996 24.3379 82.0996 24.4393 81.8996 24.4393C81.2996 24.5407 80.5996 24.6421 79.9996 24.7435C79.5996 24.8449 79.1996 24.8449 78.8996 24.9463C78.1996 25.0477 77.4996 25.2505 76.6996 25.4534C76.2996 25.5548 75.8996 25.6562 75.5996 25.7576C73.7996 26.2646 71.9996 26.8731 70.1996 27.6843C69.9996 27.7858 69.6996 27.8872 69.4996 27.9886C69.2996 28.09 68.9996 28.1914 68.7996 28.2928C69.3996 28.9013 69.6996 29.7125 69.6996 30.6252C69.6996 30.828 69.6996 31.0308 69.6996 31.1322C69.7996 31.1322 69.7996 31.0308 69.8996 31.0308C70.0996 30.9294 70.2996 30.828 70.4996 30.7266C70.5996 30.7266 70.5996 30.6252 70.6996 30.6252C70.7996 30.5238 70.9996 30.5238 71.0996 30.4224C71.0996 30.4224 71.1996 30.4224 71.1996 30.321H71.2996C71.2996 30.321 71.2996 30.321 71.3996 30.321C71.3996 30.321 71.3996 30.321 71.4996 30.321H71.5996C71.6996 30.321 71.6996 30.2196 71.7996 30.2196C71.8996 30.1182 72.0996 30.1182 72.1996 30.0167C72.4996 29.9153 72.7996 29.8139 73.0996 29.6111C73.6996 29.4083 74.2996 29.2055 74.8996 29.0027C75.4996 28.7998 75.9996 28.597 76.5996 28.4956C77.1996 28.2928 77.8996 28.1914 78.4996 27.9886C79.0996 27.8872 79.6996 27.6844 80.2996 27.5829C80.3996 27.5829 80.4996 27.5829 80.5996 27.4815C80.7996 27.4815 80.9996 27.3801 81.1996 27.3801C81.2996 27.3801 81.4996 27.3801 81.5996 27.2787C81.7996 27.2787 81.9996 27.1773 82.0996 27.1773C82.1996 27.1773 82.1996 27.1773 82.2996 27.1773H82.3996C83.1996 27.0759 83.8996 26.5689 83.8996 25.6562C83.8996 25.1491 83.2996 24.2365 82.4996 24.3379ZM78.0996 25.6562C78.4996 25.6562 78.8996 25.9604 78.8996 26.4674C78.8996 26.9745 78.5996 27.2787 78.0996 27.2787C77.6996 27.2787 77.2996 26.9745 77.2996 26.4674C77.2996 25.9604 77.5996 25.6562 78.0996 25.6562ZM62.9996 31.6393C62.6996 31.9435 62.5996 32.3491 62.5996 32.6534C62.5996 32.8562 62.6996 33.1604 62.7996 33.3632C62.9996 33.7689 63.3996 33.9717 63.7996 34.0731C64.0996 34.1745 64.4996 34.0731 64.7996 33.8703C64.7996 33.8703 64.8996 33.8703 64.8996 33.7689C63.9996 33.4646 63.2996 32.6534 62.9996 31.6393Z" fill="#404041"/>
<path d="M71.2008 30.5239C71.2008 29.5098 70.8008 28.4957 70.2008 27.6844C69.6008 26.8732 68.7008 26.1633 67.6008 25.8591C67.2008 25.7577 66.7008 25.6562 66.2008 25.6562C65.6008 25.6562 65.1008 25.7577 64.6008 25.9605C62.7008 26.6703 61.3008 28.4957 61.3008 30.6253C61.3008 31.5379 61.5008 32.3492 62.0008 33.1605C62.5008 34.0732 63.3008 34.783 64.2008 35.1886C64.8008 35.4929 65.5008 35.6957 66.3008 35.6957C69.0008 35.6957 71.2008 33.4647 71.2008 30.7267C71.2008 30.6253 71.2008 30.6253 71.2008 30.5239ZM66.3008 34.1746C65.9008 34.1746 65.5008 34.0732 65.1008 33.9717H65.0008C64.0008 33.4647 63.3008 32.6534 63.0008 31.6393C63.0008 31.6393 63.0008 31.6393 63.0008 31.5379C62.9008 31.2337 62.9008 30.9295 62.9008 30.6253C62.9008 29.5098 63.5008 28.3943 64.3008 27.7858C64.9008 27.3802 65.5008 27.1774 66.3008 27.1774C66.7008 27.1774 67.1008 27.2788 67.4008 27.3802C67.9008 27.583 68.4008 27.8872 68.7008 28.2929C69.3008 28.9013 69.6008 29.7126 69.6008 30.6253C69.6008 30.8281 69.6008 31.0309 69.6008 31.1323C69.4008 32.8563 68.0008 34.1746 66.3008 34.1746Z" fill="#404041"/>
<path d="M62.5008 37.6219C62.1008 36.7092 61.2008 35.898 60.2008 35.6952C60.0008 35.6952 59.8008 35.5938 59.5008 35.5938C57.7008 35.5938 56.3008 37.0135 56.3008 38.8388C56.3008 39.2445 56.4008 39.6501 56.5008 40.0557C56.9008 41.0698 57.7008 41.7797 58.8008 41.9825C59.0008 42.0839 59.3008 42.0839 59.5008 42.0839C61.3008 42.0839 62.7008 40.6642 62.7008 38.8388C62.8008 38.4332 62.7008 38.0276 62.5008 37.6219ZM61.2008 39.4473C61.1008 39.8529 60.8008 40.1571 60.4008 40.3599C60.2008 40.5628 59.9008 40.5628 59.6008 40.5628C58.7008 40.5628 57.9008 39.8529 57.9008 38.8388C57.9008 38.7374 57.9008 38.7374 57.9008 38.636C58.0008 37.9261 58.4008 37.4191 59.1008 37.2163C59.3008 37.1149 59.4008 37.1149 59.6008 37.1149C60.5008 37.1149 61.3008 37.9261 61.3008 38.8388C61.3008 39.0416 61.2008 39.2445 61.2008 39.4473Z" fill="#404041"/>
<path d="M80 24.7428C79.5 24.2357 78.8 23.8301 78.1 23.8301C76.9 23.8301 75.9 24.6413 75.6 25.7568C75.5 25.9597 75.5 26.1625 75.5 26.4667C75.5 27.3794 75.9 28.0892 76.6 28.5963C77 28.9005 77.5 29.1033 78.1 29.1033C79.1 29.1033 79.9 28.5963 80.4 27.785C80.6 27.3794 80.7 26.9737 80.7 26.5681C80.6 25.8582 80.4 25.2498 80 24.7428ZM78.8 26.4667C78.8 26.8723 78.5 27.278 78 27.278C77.6 27.278 77.2 26.9737 77.2 26.4667C77.2 25.9597 77.5 25.6554 78 25.6554C78.5 25.6554 78.8 26.0611 78.8 26.4667Z" fill="#404041"/>
<path d="M67.8012 18.4563L67.7012 18.3549C67.3012 18.0506 66.8012 17.9492 66.3012 17.9492C65.7012 17.9492 65.2012 18.152 64.7012 18.4563C64.1012 18.9633 63.7012 19.6732 63.7012 20.4844C63.7012 20.5858 63.7012 20.5858 63.7012 20.6872C63.8012 21.4985 64.2012 22.2084 64.8012 22.614C65.2012 22.9182 65.7012 23.0196 66.2012 23.0196C66.8012 23.0196 67.3012 22.8168 67.7012 22.5126C68.3012 22.0056 68.8012 21.2957 68.8012 20.383C68.9012 19.7746 68.4012 18.9633 67.8012 18.4563ZM65.5012 20.5858C65.5012 20.1802 65.8012 19.7746 66.3012 19.7746C66.8012 19.7746 67.1012 20.0788 67.1012 20.5858C67.1012 20.9915 66.8012 21.3971 66.3012 21.3971C65.8012 21.3971 65.5012 20.9915 65.5012 20.5858Z" fill="#404041"/>
<path d="M56.8008 43.909C56.8008 43.8076 56.7008 43.7062 56.7008 43.6048C56.4008 42.6921 55.6008 42.0837 54.7008 41.8809H54.6008C54.5008 41.8809 54.3008 41.8809 54.1008 41.8809C53.6008 41.8809 53.2008 41.9823 52.8008 42.1851C51.9008 42.6921 51.3008 43.6048 51.3008 44.7203V44.8217C51.3008 45.2273 51.4008 45.633 51.6008 45.9372C51.8008 46.3428 52.1008 46.7485 52.5008 46.9513C52.6008 47.0527 52.8008 47.1541 53.0008 47.2555C53.4008 47.4583 53.8008 47.5597 54.2008 47.5597C54.7008 47.5597 55.1008 47.4583 55.5008 47.2555C56.4008 46.7485 56.9008 45.8358 56.9008 44.8217C56.9008 44.3147 56.9008 44.1118 56.8008 43.909ZM55.3008 45.0245C55.3008 45.1259 55.2008 45.2273 55.1008 45.3287C54.9008 45.633 54.5008 45.8358 54.1008 45.8358H54.0008C53.4008 45.7344 52.9008 45.2273 52.9008 44.5175C52.9008 44.3147 52.9008 44.2133 53.0008 44.1118C53.2008 43.6048 53.6008 43.3006 54.2008 43.3006H54.3008C54.8008 43.3006 55.3008 43.7062 55.4008 44.2133C55.4008 44.3147 55.4008 44.4161 55.4008 44.5175C55.4008 44.7203 55.4008 44.8217 55.3008 45.0245Z" fill="#404041"/>
</svg>
