<svg width="131" height="72" viewBox="0 0 131 72" fill="none" xmlns="http://www.w3.org/2000/svg">
<path d="M53.5996 27.0997V16.8997C53.5996 16.2997 54.0996 15.8997 54.5996 15.9997C55.0996 15.9997 55.4996 16.4997 55.3996 16.9997V27.0997C55.3996 27.5997 54.9996 27.9997 54.4996 27.9997C53.9996 27.9997 53.5996 27.5997 53.5996 27.0997Z" fill="#404041"/>
<path d="M57.4004 27V16.9C57.4004 16.4 57.8004 16 58.3004 16C58.8004 16 59.2004 16.4 59.2004 16.9V27C59.2004 27.5 58.8004 27.9 58.3004 27.9C57.8004 27.9 57.4004 27.5 57.4004 27Z" fill="#404041"/>
<path d="M80.4998 26.5002V26.3002C80.4998 24.1002 79.8998 21.8002 78.8998 19.8002C77.6998 17.5002 76.0998 16.2002 74.4998 16.2002C72.9998 16.2002 71.5998 17.1002 70.4998 19.0002C67.8998 18.2002 65.0998 18.0002 62.3998 18.5002V17.0002C62.4998 16.5002 62.0998 16.0002 61.5998 16.0002C61.2998 16.0002 61.0998 16.0002 60.8998 16.2002C60.6998 16.3002 60.5998 16.6002 60.5998 16.8002V26.4002C60.5998 27.5002 60.0998 28.5002 59.2998 29.3002C58.4998 30.1002 57.3998 30.5002 56.2998 30.5002C54.0998 30.4002 52.2998 28.6002 52.1998 26.4002V16.9002C52.2998 16.4002 51.8998 15.9002 51.3998 15.9002C50.8998 15.8002 50.3998 16.2002 50.3998 16.7002V26.3002C45.3998 34.0002 46.9998 44.0002 54.0998 49.8002V53.8002C54.0998 55.0002 55.0998 56.0002 56.2998 56.0002H56.3998C57.5998 56.0002 58.5998 55.0002 58.5998 53.8002V52.5002C60.7998 53.4002 63.0998 53.9002 65.4998 53.9002C67.8998 53.8002 70.0998 53.4002 72.2998 52.5002V53.9002C72.2998 55.1002 73.2998 56.1002 74.4998 56.1002H74.5998C75.7998 56.1002 76.7998 55.1002 76.7998 53.9002V49.9002C83.8998 44.1002 85.4998 34.0002 80.4998 26.5002ZM71.6998 20.4002C72.4998 18.7002 73.5998 17.8002 74.4998 17.8002C75.3998 17.8002 76.4998 18.8002 77.2998 20.4002C78.1998 22.2002 78.6998 24.1002 78.6998 26.1002C78.6998 29.1002 77.2998 30.6002 74.4998 30.6002C71.6998 30.6002 70.2998 29.1002 70.2998 26.1002C70.2998 24.1002 70.7998 22.2002 71.6998 20.4002ZM55.4998 38.5002H55.0998C54.5998 38.5002 54.1998 38.9002 54.1998 39.4002V47.4002C52.6998 45.9002 51.3998 44.1002 50.5998 42.2002C49.7998 40.3002 49.3998 38.2002 49.3998 36.0002C49.3998 33.6002 49.8998 31.2002 50.9998 29.0002C51.8998 30.7002 53.4998 32.0002 55.4998 32.3002V38.5002ZM56.7998 53.8002C56.7998 54.0002 56.6998 54.2002 56.4998 54.2002H56.3998C56.1998 54.2002 55.9998 54.1002 55.9998 53.8002V40.3002H56.7998V53.8002ZM73.5998 38.5002H73.1998C72.6998 38.5002 72.2998 38.9002 72.2998 39.4002V50.5002C70.1998 51.5002 67.7998 52.0002 65.4998 52.0002C63.0998 52.1002 60.6998 51.5002 58.5998 50.5002V39.4002C58.5998 39.2002 58.4998 39.0002 58.2998 38.8002C58.1998 38.6002 57.8998 38.5002 57.6998 38.5002H57.2998V32.4002C60.2998 31.9002 62.4998 29.4002 62.4998 26.4002V20.2002C64.8998 19.8002 67.2998 19.9002 69.6998 20.5002C68.8998 22.3002 68.4998 24.2002 68.4998 26.1002C68.4998 29.8002 70.2998 32.0002 73.5998 32.3002V38.5002ZM74.9998 53.8002C74.9998 54.0002 74.7998 54.2002 74.5998 54.2002H74.4998C74.2998 54.2002 74.0998 54.1002 74.1998 53.8002V40.3002H74.9998V53.8002ZM76.6998 47.4002V39.4002C76.6998 39.2002 76.5998 39.0002 76.3998 38.8002C76.2998 38.6002 75.9998 38.5002 75.7998 38.5002H75.3998V32.4002C77.6998 32.1002 79.2998 31.0002 79.9998 29.0002C80.9998 31.2002 81.4998 33.5002 81.4998 35.9002C81.4998 40.2002 79.7998 44.4002 76.6998 47.4002Z" fill="#404041"/>
<path d="M84.6 16.9C82.1 14.3 79.1 12.4 75.8 11C72.6 9.7 69.1 9 65.5 9C58.3 9 51.5 11.8 46.4 16.9C41.3 22 38.5 28.8 38.5 36C38.5 43.2 41.3 50 46.4 55.1C48.9 57.7 51.9 59.6 55.2 61C58.4 62.3 61.9 63 65.5 63C72.7 63 79.5 60.2 84.6 55.1C89.7 50 92.5 43.2 92.5 36C92.5 28.8 89.7 22 84.6 16.9ZM83.3 53.8C78.6 58.6 72.2 61.2 65.5 61.2C58.8 61.2 52.5 58.6 47.7 53.8C37.9 43.9 37.9 27.9 47.7 18.1C52.6 13.2 59 10.7 65.5 10.7C71.9 10.7 78.4 13.2 83.3 18.1C93.2 28 93.2 44 83.3 53.8Z" fill="#404041"/>
</svg>
