<svg width="131" height="72" viewBox="0 0 131 72" fill="none" xmlns="http://www.w3.org/2000/svg">
<path d="M44.8996 65.8145H38.5996C36.8996 65.8145 35.5996 64.3948 35.5996 62.7723V50.9075C35.5996 49.1835 36.9996 47.8652 38.5996 47.8652H44.9996C46.6996 47.8652 47.9996 49.285 47.9996 50.9075V62.7723C47.9996 64.4962 46.5996 65.8145 44.8996 65.8145ZM38.6996 50.299C38.3996 50.299 38.0996 50.6033 38.0996 50.9075V62.7723C38.0996 63.0765 38.3996 63.3807 38.6996 63.3807H44.9996C45.2996 63.3807 45.5996 63.0765 45.5996 62.7723V50.9075C45.5996 50.6033 45.2996 50.299 44.9996 50.299H38.6996Z" fill="#404041"/>
<path d="M66.7 57.4982C66.4 57.4982 66 57.4982 65.7 57.3968L57.3 54.963C56.7 54.7602 56.3 54.0503 56.5 53.4419C56.7 52.8334 57.4 52.4278 58 52.6306L66.4 55.0644C66.7 55.1658 67.1 55.1658 67.3 54.963C67.6 54.7602 67.8 54.5574 67.9 54.2531L68.1 53.6447C68.3 53.0362 67.9 52.3264 67.3 52.1236L57.9 49.3855C56.6 48.9799 55.2 49.2841 54.1 50.0954L52.1 51.5151C50.8 52.4278 49.3 52.9348 47.8 52.9348H47.2C46.5 52.9348 46 52.4278 46 51.7179C46 51.0081 46.5 50.501 47.2 50.501H47.8C48.8 50.501 49.8 50.1968 50.7 49.5883L52.7 48.1686C54.4 46.9517 56.6 46.5461 58.6 47.1545L68 49.8926C69.9 50.501 71 52.5292 70.5 54.456L70.2 54.7602C69.9 55.7743 69.3 56.4841 68.5 56.9912C67.9 57.2954 67.3 57.4982 66.7 57.4982Z" fill="#404041"/>
<path d="M65.2 66.93C64.6 66.93 64.1 66.8286 63.5 66.7271L50.7 63.1778C50 62.975 49.3 62.8736 48.6 62.8736H47.2C46.5 62.8736 46 62.3666 46 61.6567C46 60.9469 46.5 60.4398 47.2 60.4398H48.6C49.5 60.4398 50.4 60.5412 51.3 60.8455L64.1 64.3947C65.2 64.699 66.4 64.4962 67.3 63.8877L84.6 52.53C85.5 51.9215 85.8 50.806 85.3 49.8933C84.8 48.8793 83.6 48.4736 82.6 48.9807L70 55.3694C69.4 55.6736 68.7 55.4708 68.4 54.8624C68.1 54.2539 68.3 53.544 68.9 53.2398L81.5 46.8511C83.7 45.7356 86.4 46.6483 87.5 48.8793C88.5 50.9074 87.9 53.4426 85.9 54.7609L68.7 65.9159C67.6 66.5243 66.4 66.93 65.2 66.93Z" fill="#404041"/>
<path d="M79.6004 21.8036H65.0004C64.3004 21.8036 63.8004 21.2965 63.8004 20.5867C63.8004 19.8768 64.3004 19.3698 65.0004 19.3698H79.6004C80.9004 19.3698 82.0004 18.2543 82.0004 16.936C82.0004 15.6177 80.9004 14.5022 79.6004 14.5022H52.7004C51.4004 14.5022 50.3004 15.6177 50.3004 16.936C50.3004 18.2543 51.4004 19.3698 52.7004 19.3698H56.0004C56.7004 19.3698 57.2004 19.8768 57.2004 20.5867C57.2004 21.2965 56.7004 21.8036 56.0004 21.8036H52.7004C50.1004 21.8036 47.9004 19.5726 47.9004 16.936C47.9004 14.2993 50.1004 12.0684 52.7004 12.0684H79.6004C82.2004 12.0684 84.4004 14.2993 84.4004 16.936C84.4004 19.5726 82.3004 21.8036 79.6004 21.8036Z" fill="#404041"/>
<path d="M77.1004 43.5042H54.9004C52.9004 43.5042 51.4004 41.8817 51.4004 39.9549V20.8901C51.4004 20.1803 51.9004 19.6732 52.6004 19.6732C53.3004 19.6732 53.8004 20.1803 53.8004 20.8901V39.8535C53.8004 40.4619 54.3004 40.969 54.9004 40.969H77.1004C77.7004 40.969 78.2004 40.4619 78.2004 39.8535V20.4845C78.2004 19.7746 78.7004 19.2676 79.4004 19.2676C80.1004 19.2676 80.6004 19.7746 80.6004 20.4845V39.8535C80.6004 41.8817 79.0004 43.5042 77.1004 43.5042Z" fill="#404041"/>
<path d="M56.1003 14.0963C55.7003 14.0963 55.3003 13.8935 55.1003 13.4878C53.9003 11.5611 54.0003 9.02586 55.4003 7.30191C56.3003 6.18642 57.6003 5.57797 59.0003 5.47656C60.4003 5.47656 61.7003 5.9836 62.7003 7.0991L67.0003 11.9667C67.4003 12.4737 67.4003 13.285 66.9003 13.6906C66.4003 14.0963 65.6003 14.0963 65.2003 13.5892L60.9003 8.72163C60.4003 8.21459 59.8003 7.91037 59.1003 7.91037C58.4003 7.91037 57.8003 8.21459 57.3003 8.82304C56.5003 9.73572 56.5003 11.1554 57.1003 12.1695C57.5003 12.778 57.3003 13.4878 56.7003 13.8935C56.6003 13.9949 56.3003 14.0963 56.1003 14.0963Z" fill="#404041"/>
<path d="M76.1999 13.69C75.9999 13.69 75.6999 13.5886 75.4999 13.4872C74.8999 13.0816 74.7999 12.3717 75.0999 11.7633C75.7999 10.7492 75.6999 9.43088 74.8999 8.41679C74.4999 7.90975 73.7999 7.50412 73.0999 7.50412C72.3999 7.50412 71.7999 7.80834 71.2999 8.31538L67.1999 13.183C66.7999 13.69 65.9999 13.69 65.4999 13.2844C64.9999 12.8788 64.9999 12.0675 65.3999 11.5605L69.6999 6.69285C70.5999 5.67876 71.9999 5.07031 73.3999 5.07031C74.7999 5.07031 76.0999 5.78017 76.9999 6.89566C78.3999 8.72102 78.5999 11.1548 77.2999 13.0816C76.9999 13.4872 76.5999 13.69 76.1999 13.69Z" fill="#404041"/>
<path d="M85.6005 27.5832C85.1005 27.5832 84.7005 27.279 84.5005 26.8734C84.2005 26.2649 84.5005 25.5551 85.1005 25.2508L92.5005 21.8029C93.1005 21.4987 93.8005 21.8029 94.1005 22.4114C94.4005 23.0198 94.1005 23.7297 93.5005 24.0339L86.2005 27.3804C86.0005 27.4818 85.8005 27.5832 85.6005 27.5832Z" fill="#404041"/>
<path d="M94.0995 33.0592L85.4995 32.5522C84.7995 32.5522 84.2995 31.9437 84.3995 31.2339C84.3995 30.524 84.9995 30.017 85.6995 30.1184L94.1995 30.6254C94.8995 30.6254 95.3995 31.2339 95.2995 31.9437C95.2995 32.5522 94.7995 33.0592 94.0995 33.0592Z" fill="#404041"/>
<path d="M93.6995 41.7798C93.4995 41.7798 93.2995 41.7798 93.0995 41.6784L84.3995 37.115C83.7995 36.8108 83.5995 36.101 83.8995 35.4925C84.1995 34.8841 84.8995 34.6812 85.4995 34.9855L94.1995 39.5489C94.7995 39.8531 94.9995 40.5629 94.6995 41.1714C94.4995 41.577 94.0995 41.7798 93.6995 41.7798Z" fill="#404041"/>
<path d="M61.0996 21.8029H60.2996C59.5996 21.8029 59.0996 21.2959 59.0996 20.586C59.0996 19.8762 59.5996 19.3691 60.2996 19.3691H61.0996C61.7996 19.3691 62.2996 19.8762 62.2996 20.586C62.3996 21.1945 61.7996 21.8029 61.0996 21.8029Z" fill="#404041"/>
<path d="M66.0004 38.2305L60.7004 33.1601C59.2004 31.7404 59.0004 29.408 60.1004 27.6841C60.7004 26.7714 61.7004 26.0615 62.8004 25.9601C63.9004 25.7573 65.0004 26.0615 66.0004 26.7714C66.9004 26.0615 68.0004 25.8587 69.2004 25.9601C70.3004 26.1629 71.3004 26.7714 71.9004 27.6841C73.1004 29.408 72.8004 31.7404 71.3004 33.1601L66.0004 38.2305ZM63.5004 28.3939C63.4004 28.3939 63.3004 28.3939 63.2004 28.3939C62.7004 28.4953 62.3004 28.6981 62.1004 29.1038C61.6004 29.8136 61.7004 30.8277 62.3004 31.3348L66.0004 34.7827L69.7004 31.3348C70.3004 30.7263 70.4004 29.8136 69.9004 29.1038C69.6004 28.6981 69.2004 28.4953 68.8004 28.3939C68.3004 28.2925 67.9004 28.3939 67.5004 28.6981L66.8004 29.2052C66.6004 29.408 66.3004 29.5094 66.0004 29.408C65.7004 29.408 65.5004 29.3066 65.2004 29.2052L64.5004 28.6981C64.2004 28.4953 63.8004 28.3939 63.5004 28.3939Z" fill="#404041"/>
<path d="M85.6005 27.5832C85.1005 27.5832 84.7005 27.279 84.5005 26.8734C84.2005 26.2649 84.5005 25.5551 85.1005 25.2508L92.5005 21.8029C93.1005 21.4987 93.8005 21.8029 94.1005 22.4114C94.4005 23.0198 94.1005 23.7297 93.5005 24.0339L86.2005 27.3804C86.0005 27.4818 85.8005 27.5832 85.6005 27.5832Z" fill="#404041"/>
<path d="M94.0995 33.0592L85.4995 32.5522C84.7995 32.5522 84.2995 31.9437 84.3995 31.2339C84.3995 30.524 84.9995 30.017 85.6995 30.1184L94.1995 30.6254C94.8995 30.6254 95.3995 31.2339 95.2995 31.9437C95.2995 32.5522 94.7995 33.0592 94.0995 33.0592Z" fill="#404041"/>
<path d="M93.6995 41.7798C93.4995 41.7798 93.2995 41.7798 93.0995 41.6784L84.3995 37.115C83.7995 36.8108 83.5995 36.101 83.8995 35.4925C84.1995 34.8841 84.8995 34.6812 85.4995 34.9855L94.1995 39.5489C94.7995 39.8531 94.9995 40.5629 94.6995 41.1714C94.4995 41.577 94.0995 41.7798 93.6995 41.7798Z" fill="#404041"/>
<path d="M46.8989 27.6848C46.6989 27.6848 46.5989 27.6848 46.3989 27.5834L38.9989 24.1355C38.3989 23.8313 38.0989 23.1214 38.3989 22.513C38.6989 21.9045 39.3989 21.6003 39.9989 21.9045L47.3989 25.3524C47.9989 25.6566 48.2989 26.3665 47.9989 26.9749C47.7989 27.482 47.3989 27.6848 46.8989 27.6848Z" fill="#404041"/>
<path d="M38.3992 33.2612C37.7992 33.2612 37.1992 32.7541 37.1992 32.1457C37.1992 31.4358 37.6992 30.9288 38.2992 30.8274L46.7992 30.3203C47.4992 30.3203 47.9992 30.8274 48.0992 31.4358C48.0992 32.1457 47.5992 32.6527 46.9992 32.7541L38.3992 33.2612C38.4992 33.2612 38.4992 33.2612 38.3992 33.2612Z" fill="#404041"/>
<path d="M38.8999 41.9828C38.4999 41.9828 37.9999 41.78 37.7999 41.273C37.4999 40.6645 37.6999 39.9546 38.2999 39.6504L46.9999 35.087C47.5999 34.7828 48.2999 34.9856 48.5999 35.5941C48.8999 36.2025 48.6999 36.9124 48.0999 37.2166L39.3999 41.78C39.2999 41.8814 39.0999 41.9828 38.8999 41.9828Z" fill="#404041"/>
</svg>
