<svg width="131" height="72" viewBox="0 0 131 72" fill="none" xmlns="http://www.w3.org/2000/svg">
<path d="M61.8993 19.1994C61.3993 17.9994 60.7993 16.9994 59.6993 16.1994C58.7993 15.4994 57.6993 15.2994 56.5993 15.5994C55.6993 15.7994 54.9993 16.3994 54.3993 17.0994C53.2993 18.3994 52.8993 19.9994 52.6993 21.5994C52.5993 22.5994 52.6993 23.5994 52.8993 24.5994C53.0993 25.7994 53.6993 26.9994 54.5993 27.9994C55.3993 28.7994 56.2993 29.3994 57.4993 29.3994C57.8993 29.2994 58.2993 29.1994 58.6993 29.0994C59.8993 28.5994 60.6993 27.7994 61.2993 26.8994C62.0993 25.3994 62.4993 23.7994 62.3993 22.0994C62.3993 21.0994 62.1993 20.0994 61.8993 19.1994ZM56.0993 27.8994C55.3993 27.3994 54.7993 26.6994 54.4993 25.8994C53.8993 24.5994 53.6993 23.0994 53.7993 21.6994C53.8993 20.4994 54.1993 19.3994 54.7993 18.3994C55.1993 17.6994 55.7993 17.1994 56.4993 16.7994C57.4993 16.2994 58.4993 16.4994 59.3993 17.1994C59.4993 17.1994 59.5993 17.2994 59.6993 17.3994C59.1993 17.1994 58.7993 17.1994 58.3993 17.2994C57.5993 17.4994 56.8993 17.9994 56.3993 18.6994C55.6993 19.5994 55.3993 20.5994 55.2993 21.6994C55.0993 22.8994 55.3993 24.1994 55.8993 25.2994C56.2993 26.0994 56.8993 26.7994 57.7993 27.1994C58.2993 27.3994 58.9993 27.3994 59.5993 27.3994C58.6993 28.3994 57.2993 28.6994 56.0993 27.8994ZM60.6993 24.8994C60.4993 25.2994 60.1993 25.5994 59.8993 25.8994C59.1993 26.4994 58.0993 26.4994 57.4993 25.7994C56.8993 25.2994 56.5993 24.5994 56.3993 23.7994C56.2993 23.2994 56.2993 22.7994 56.1993 22.2994C56.2993 21.0994 56.4993 20.0994 57.1993 19.1994C57.3993 18.8994 57.6993 18.6994 57.9993 18.4994C58.5993 18.0994 59.3993 18.1994 59.9993 18.7994C60.5993 19.3994 60.8993 20.0994 61.0993 20.7994C61.4993 22.1994 61.3993 23.5994 60.6993 24.8994ZM70.4993 40.2994C70.0993 39.4994 69.2993 38.9994 68.2993 39.2994C68.0993 39.3994 67.8993 39.3994 67.6993 39.4994V37.1994C67.6993 37.0994 67.6993 37.0994 67.6993 37.0994C67.7993 36.7994 67.4993 36.4994 67.1993 36.4994C67.0993 36.4994 67.0993 36.4994 67.0993 36.4994C66.7993 36.4994 66.5993 36.7994 66.5993 37.0994V40.5994C66.5993 40.8994 66.6993 41.0994 66.8993 41.1994C67.0993 41.2994 67.2993 41.1994 67.4993 41.0994C67.7993 40.8994 68.0993 40.6994 68.4993 40.5994C69.0993 40.3994 69.3993 40.6994 69.3993 41.2994C69.3993 41.3994 69.2993 41.5994 69.2993 41.6994C69.0993 42.3994 68.5993 43.0994 67.9993 43.5994C67.5993 43.9994 66.9993 44.1994 66.3993 44.1994H64.5993C64.3993 44.1994 64.1993 44.1994 63.9993 44.0994C63.1993 43.8994 62.5993 43.3994 62.1993 42.6994C61.8993 42.2994 61.6993 41.7994 61.6993 41.2994C61.6993 40.7994 61.8993 40.3994 62.4993 40.4994C62.8993 40.4994 63.3993 40.6994 63.6993 40.9994C63.8993 41.1994 64.0993 41.1994 64.2993 41.0994C64.4993 40.9994 64.5993 40.7994 64.5993 40.5994V36.9994C64.5993 36.6994 64.3993 36.4994 64.0993 36.4994C63.7993 36.4994 63.5993 36.6994 63.5993 36.9994V39.5994C63.2993 39.4994 63.0993 39.4994 62.7993 39.3994C61.9993 39.2994 61.1993 39.5994 60.8993 40.4994C60.7993 40.8994 60.7993 41.3994 60.8993 41.7994C61.0993 42.8994 61.7993 43.7994 62.6993 44.4994C63.2993 44.9994 64.0993 45.1994 64.8993 45.1994H66.7993C67.0993 45.1994 67.3993 45.1994 67.5993 45.0994C69.1993 44.4994 70.0993 43.3994 70.5993 41.7994C70.6993 41.2994 70.6993 40.7994 70.4993 40.2994ZM83.7993 14.0994C83.3993 13.1994 82.7993 12.3994 81.9993 11.7994C81.8993 11.7994 81.8993 11.7994 81.8993 11.6994C81.6993 11.1994 81.5993 10.5994 81.3993 10.0994C81.0993 9.39944 80.5993 8.69944 79.9993 8.19944C79.0993 7.49944 77.9993 7.39944 76.7993 7.59944C75.7993 7.69944 74.8993 7.89944 73.8993 7.99944C72.7993 8.19944 71.6993 8.19944 70.5993 8.09944C69.9993 8.09944 69.4993 7.99944 68.9993 7.79944C68.6993 7.69944 68.5993 7.49944 68.5993 7.29944C68.4993 6.69944 68.1993 6.29944 67.6993 5.99944C66.4993 5.19944 64.9993 4.99944 63.6993 5.69944C62.9993 5.99944 62.4993 6.49944 62.2993 7.19944C62.1993 7.49944 61.8993 7.79944 61.5993 7.89944C60.8993 8.09944 60.1993 8.19944 59.4993 8.19944C58.7993 8.19944 58.0993 8.19944 57.3993 8.09944C56.2993 7.89944 55.1993 7.79944 54.0993 7.59944C53.4993 7.49944 52.8993 7.39944 52.2993 7.49944C50.9993 7.79944 50.1993 8.49944 49.4993 9.39944C49.0993 10.0994 48.7993 10.7994 48.6993 11.5994C48.6993 11.8994 48.5993 12.0994 48.3993 12.2994C48.2993 12.4994 48.0993 12.5994 47.9993 12.7994C46.7993 14.3994 46.1993 16.1994 46.0993 18.1994C45.9993 19.9994 46.0993 21.6994 46.5993 23.3994C46.9993 24.8994 47.3993 26.2994 47.7993 27.6994C48.2993 29.7994 48.7993 31.8994 49.2993 33.9994C49.3993 34.6994 49.4993 35.3994 49.5993 36.0994C49.6993 36.8994 49.7993 37.5994 49.8993 38.2994C49.9993 39.1994 49.9993 40.1994 50.0993 41.0994C50.1993 42.3994 50.0993 43.5994 49.9993 44.7994C49.9993 45.3994 49.8993 45.8994 49.8993 46.4994V63.6994C49.8993 64.1994 50.0993 64.3994 50.5993 64.3994H55.7993C55.8993 64.3994 55.9993 64.3994 55.9993 64.4994C56.3993 64.8994 56.8993 65.2994 57.3993 65.4994C58.3993 65.9994 59.4993 66.2994 60.5993 66.3994C61.9993 66.6994 63.4993 66.7994 64.9993 66.7994C66.7993 66.7994 68.6993 66.6994 70.4993 66.3994C71.4993 66.1994 72.4993 65.9994 73.4993 65.5994C74.0993 65.3994 74.5993 65.0994 74.9993 64.5994C75.0993 64.4994 75.1993 64.3994 75.3993 64.3994H80.8993C80.9993 64.3994 80.9993 64.3994 81.0993 64.3994C81.3993 64.3994 81.5993 64.0994 81.4993 63.7994V45.7994C81.3993 44.6994 81.1993 43.4994 81.1993 42.3994C81.1993 40.4994 81.1993 38.4994 81.4993 36.5994C81.5993 35.1994 81.7993 33.7994 82.0993 32.3994C82.5993 29.8994 83.1993 27.4994 83.8993 25.0994C84.4993 23.2994 84.8993 21.3994 84.8993 19.3994C84.9993 17.4994 84.6993 15.7994 83.7993 14.0994ZM50.7993 12.1994C50.9993 11.4994 51.2993 10.8994 51.7993 10.3994C52.1993 9.99944 52.7993 9.79944 53.3993 9.79944C53.9993 9.79944 54.4993 9.89944 55.0993 9.99944C56.5993 10.2994 58.1993 10.3994 59.7993 10.3994C60.5993 10.3994 61.3993 10.2994 62.1993 9.99944C62.7993 9.79944 63.1993 9.39944 63.3993 8.79944C63.4993 8.39944 63.7993 8.19944 64.1993 7.99944C64.9993 7.59944 65.9993 7.69944 66.7993 8.19944C67.0993 8.39944 67.1993 8.59944 67.2993 8.79944C67.4993 9.39944 67.9993 9.79944 68.5993 9.99944C69.1993 10.1994 69.6993 10.2994 70.2993 10.2994C71.4993 10.3994 72.7993 10.3994 74.0993 10.1994C74.9993 10.0994 75.8993 9.89944 76.7993 9.79944C77.7993 9.69944 78.6993 10.0994 79.2993 10.8994C79.5993 11.3994 79.8993 11.8994 79.9993 12.4994L50.6993 12.5994C50.6993 12.4994 50.7993 12.2994 50.7993 12.1994ZM56.1993 41.9994L57.1993 42.9994C57.1993 42.9994 57.1993 43.0994 57.2993 43.0994V43.1994C57.0993 43.1994 56.7993 43.1994 56.4993 43.0994C55.3993 42.8994 54.3993 42.5994 53.3993 41.9994C52.9993 41.7994 52.6993 41.4994 52.2993 41.1994C52.1993 41.0994 52.1993 41.0994 52.1993 40.9994C52.0993 40.4994 52.0993 40.0994 52.0993 39.6994C52.0993 38.7994 51.9993 37.9994 51.8993 37.1994C51.8993 36.4994 51.6993 35.6994 51.5993 34.9994C51.4993 34.3994 51.2993 33.7994 51.1993 33.1994V33.0994L51.9993 33.7994C53.2993 34.9994 54.5993 36.1994 55.8993 37.3994C55.9993 37.4994 55.9993 37.5994 55.9993 37.6994V41.4994C55.9993 41.6994 55.9993 41.8994 56.1993 41.9994ZM51.6993 46.1994C51.9993 46.2994 52.1993 46.2994 52.4993 46.3994C53.1993 46.5994 53.8993 46.7994 54.5993 46.9994C54.7993 46.9994 54.7993 47.0994 54.7993 47.1994V49.1994C54.7993 49.9994 54.1993 50.6994 53.3993 50.6994C52.5993 50.7994 51.9993 50.4994 51.7993 49.7994C51.6993 49.5994 51.6993 49.4994 51.6993 49.3994V46.1994C51.6993 46.2994 51.6993 46.2994 51.6993 46.1994ZM51.5993 53.4994V51.3994C51.8993 51.4994 52.2993 51.5994 52.5993 51.6994C54.1993 51.9994 55.3993 51.1994 55.6993 49.7994C55.7993 49.6994 55.7993 49.4994 55.7993 49.2994V47.3994L58.8993 47.9994C58.8993 48.3994 58.9993 48.7994 58.7993 49.1994C58.7993 50.4994 59.6993 51.5994 60.8993 51.7994C62.3993 52.0994 63.6993 51.3994 63.9993 49.9994C64.0993 49.5994 64.0993 49.1994 64.0993 48.7994C64.0993 48.6994 64.0993 48.6994 64.0993 48.5994H67.1993V49.3994C67.1993 50.4994 67.9993 51.4994 68.8993 51.6994C70.0993 51.8994 71.1993 51.5994 71.8993 50.5994C72.1993 50.1994 72.2993 49.7994 72.2993 49.2994V47.8994L75.2993 47.2994C75.2993 47.3994 75.2993 47.3994 75.2993 47.4994V49.3994C75.3993 50.5994 76.3993 51.5994 77.5993 51.6994C78.1993 51.7994 78.8993 51.5994 79.3993 51.2994V53.4994C79.1993 53.3994 78.8993 53.2994 78.5993 53.1994C77.3993 52.8994 76.1993 53.2994 75.5993 54.3994C75.3993 54.6994 75.2993 55.0994 75.2993 55.4994V57.4994C74.7993 57.3994 74.1993 57.2994 73.6993 57.1994C73.1993 57.1994 72.7993 57.0994 72.3993 56.9994C72.1993 56.9994 72.1993 56.8994 72.1993 56.7994V55.2994C71.9993 54.1994 71.1993 53.3994 70.1993 53.1994C69.3993 53.0994 68.6993 53.0994 67.9993 53.5994C67.3993 54.0994 66.9993 54.7994 66.9993 55.5994V56.3994H63.9993V55.5994C63.9993 54.1994 62.8993 53.0994 61.4993 53.0994C60.6993 53.0994 59.9993 53.3994 59.3993 53.9994C58.9993 54.3994 58.7993 54.9994 58.7993 55.4994V56.7994C58.7993 56.8994 58.6993 56.9994 58.5993 56.9994C57.6993 57.1994 56.7993 57.3994 55.8993 57.5994C55.7993 57.5994 55.7993 57.5994 55.6993 57.5994V55.5994C55.6993 54.6994 55.1993 53.8994 54.4993 53.4994C53.5993 52.8994 52.5993 52.8994 51.5993 53.4994ZM59.9993 49.3994V48.0994L63.0993 48.4994C63.0993 48.8994 63.0993 49.3994 62.9993 49.7994C62.8993 50.2994 62.3993 50.6994 61.7993 50.6994C61.0993 50.7994 60.4993 50.5994 60.1993 49.8994C60.0993 49.7994 59.9993 49.5994 59.9993 49.3994ZM68.2993 48.4994L71.3993 48.0994C71.3993 48.5994 71.3993 49.1994 71.2993 49.6994C71.0993 50.2994 70.5993 50.5994 69.9993 50.6994C69.1993 50.7994 68.4993 50.3994 68.3993 49.7994C68.2993 49.2994 68.2993 48.8994 68.2993 48.4994ZM71.2993 55.5994V56.7994L68.1993 56.4994C68.1993 56.0994 68.2993 55.6994 68.2993 55.2994C68.4993 54.6994 68.9993 54.2994 69.5993 54.2994C70.0993 54.2994 70.4993 54.2994 70.8993 54.6994C71.1993 54.8994 71.2993 55.2994 71.2993 55.5994ZM62.9993 55.4994V56.2994C62.9993 56.3994 62.9993 56.4994 62.8993 56.4994C61.8993 56.5994 60.9993 56.6994 59.9993 56.7994V55.3994C60.1993 54.6994 60.6993 54.2994 61.2993 54.0994C61.7993 54.0994 62.1993 54.0994 62.5993 54.4994C62.7993 54.7994 62.9993 55.0994 62.9993 55.4994ZM54.6993 55.3994V57.7994L51.6993 58.5994V55.3994C51.7993 54.7994 52.2993 54.1994 52.9993 54.1994C53.3993 54.1994 53.7993 54.1994 54.1993 54.4994C54.4993 54.6994 54.7993 55.0994 54.6993 55.3994ZM73.4993 63.6994C72.9993 64.0994 72.4993 64.3994 71.9993 64.5994C70.9993 64.9994 69.9993 65.2994 68.8993 65.3994C67.7993 65.4994 66.6993 65.5994 65.6993 65.6994C64.4993 65.6994 63.4993 65.5994 62.4993 65.4994C61.0993 65.2994 59.6993 64.9994 58.3993 64.2994C58.0993 64.1994 57.7993 63.9994 57.5993 63.7994C57.2993 63.4994 57.2993 63.2994 57.5993 62.9994C58.0993 62.5994 58.6993 62.2994 59.2993 62.0994C60.3993 61.6994 61.4993 61.3994 62.6993 61.2994C64.2993 61.0994 65.8993 61.0994 67.4993 61.1994C68.9993 61.1994 70.4993 61.5994 71.8993 62.0994C72.4993 62.2994 72.9993 62.5994 73.4993 62.8994C73.7993 63.1994 73.7993 63.3994 73.4993 63.6994ZM79.6993 61.8994H74.9993C74.8993 61.9994 74.7993 61.8994 74.6993 61.7994C74.3993 61.3994 73.9993 61.0994 73.4993 60.8994C72.7993 60.5994 71.8993 60.2994 71.0993 60.1994C70.0993 59.9994 68.9993 59.8994 67.9993 59.7994C66.8993 59.6994 65.6993 59.6994 64.5993 59.6994C63.5993 59.6994 62.5993 59.7994 61.6993 59.8994C60.2993 60.0994 58.9993 60.2994 57.6993 60.8994C57.1993 60.9994 56.7993 61.3994 56.4993 61.7994C56.3993 61.8994 56.3993 61.8994 56.2993 61.8994H51.6993V59.9994C51.6993 59.8994 51.7993 59.7994 51.8993 59.7994C53.8993 59.2994 55.8993 58.7994 57.9993 58.2994C59.0993 58.0994 60.0993 57.8994 61.1993 57.7994C61.9993 57.6994 62.7993 57.6994 63.5993 57.5994C64.8993 57.4994 66.1993 57.4994 67.4993 57.5994C68.5993 57.5994 69.7993 57.6994 70.8993 57.8994C72.1993 58.0994 73.3993 58.2994 74.6993 58.4994C76.3993 58.8994 77.9993 59.3994 79.6993 59.7994V61.8994ZM79.6993 58.7994C79.2993 58.6994 78.8993 58.5994 78.5993 58.4994C77.9993 58.2994 77.3993 58.1994 76.7993 57.9994C76.5993 57.8994 76.5993 57.8994 76.5993 57.6994V55.4994C76.6993 54.7994 77.1993 54.2994 77.8993 54.2994C78.2993 54.1994 78.5993 54.2994 78.8993 54.3994C79.2993 54.5994 79.5993 55.0994 79.6993 55.6994V58.7994ZM79.6993 49.3994C79.6993 50.0994 79.0993 50.6994 78.3993 50.6994C77.5993 50.7994 76.8993 50.3994 76.6993 49.6994C76.5993 49.5994 76.5993 49.3994 76.5993 49.2994V47.1994C76.5993 47.0994 76.5993 46.9994 76.6993 46.9994C77.6993 46.7994 78.5993 46.4994 79.5993 46.2994H79.6993V49.3994ZM79.9993 33.4994C79.7993 34.0994 79.6993 34.6994 79.5993 35.2994C79.4993 35.9994 79.3993 36.7994 79.2993 37.4994C79.0993 38.2994 79.0993 39.1994 78.9993 39.9994C78.8993 40.4994 78.8993 40.8994 78.8993 41.2994C78.8993 41.3994 78.7993 41.3994 78.7993 41.4994C78.3993 41.7994 78.0993 42.0994 77.6993 42.2994C76.6993 42.7994 75.6993 43.1994 74.5993 43.3994C74.3993 43.3994 74.0993 43.4994 73.7993 43.4994V43.3994L73.8993 43.2994C74.1993 42.9994 74.5993 42.5994 74.8993 42.2994C74.9993 42.0994 75.0993 41.9994 75.0993 41.7994V37.9994C75.0993 37.8994 75.0993 37.7994 75.1993 37.6994C76.4993 36.4994 77.7993 35.2994 79.1993 34.0994L79.9993 33.4994ZM82.7993 21.8994C82.6993 23.4994 82.0993 25.0994 81.6993 26.6994C81.5993 26.8994 81.4993 27.0994 81.4993 27.2994C81.4993 27.3994 81.3993 27.4994 81.2993 27.4994C79.7993 27.8994 78.2993 28.4994 76.9993 29.1994C74.6993 30.3994 72.6993 32.1994 71.2993 34.3994C71.0993 34.7994 70.8993 35.0994 70.6993 35.4994C70.6993 35.5994 70.6993 35.6994 70.6993 35.6994C70.6993 35.8994 70.7993 36.0994 70.9993 36.1994C71.2993 36.2994 71.5993 36.1994 71.6993 35.8994C72.2993 34.6994 73.1993 33.4994 74.2993 32.4994C76.1993 30.7994 78.3993 29.4994 80.8993 28.6994C80.8993 28.6994 80.8993 28.6994 80.9993 28.6994L80.8993 29.2994C80.7993 29.5994 80.6993 29.9994 80.5993 30.3994C80.5993 30.4994 80.4993 30.5994 80.3993 30.6994C79.1993 31.6994 78.0993 32.7994 76.9993 33.7994C75.9993 34.7994 74.8993 35.6994 73.8993 36.6994C73.6993 36.7994 73.5993 37.0994 73.5993 37.2994V41.4994C73.6993 41.6994 73.5993 41.7994 73.4993 41.8994C72.7993 42.5994 72.1993 43.1994 71.4993 43.8994C71.3993 43.9994 71.2993 44.1994 71.2993 44.3994C71.2993 44.6994 71.5993 44.8994 71.8993 44.8994C74.1993 44.8994 76.3993 44.3994 78.3993 43.1994L79.2993 42.5994C79.3993 43.3994 79.3993 44.1994 79.4993 44.9994C79.4993 45.0994 79.4993 45.1994 79.3993 45.1994C78.5993 45.3994 77.8993 45.5994 77.0993 45.7994C75.9993 46.0994 74.7993 46.3994 73.5993 46.6994C72.7993 46.8994 72.0993 46.9994 71.2993 47.0994C70.4993 47.1994 69.5993 47.2994 68.7993 47.3994C67.5993 47.3994 66.2993 47.4994 65.0993 47.4994C64.0993 47.4994 62.9993 47.3994 61.9993 47.2994C61.1993 47.2994 60.3993 47.0994 59.5993 46.9994C57.3993 46.6994 55.1993 46.0994 53.0993 45.4994C52.6993 45.3994 52.2993 45.2994 51.8993 45.1994C51.6993 45.0994 51.6993 45.0994 51.6993 44.8994C51.6993 44.2994 51.7993 43.5994 51.7993 42.9994C51.7993 42.8994 51.7993 42.8994 51.7993 42.7994C51.7993 42.8994 51.8993 42.8994 51.8993 42.8994C53.1993 43.7994 54.5993 44.3994 56.1993 44.6994C56.9993 44.7994 57.8993 44.8994 58.6993 44.8994C58.8993 44.8994 58.9993 44.7994 59.0993 44.7994C59.1993 44.7994 59.1993 44.7994 59.2993 44.6994C59.4993 44.4994 59.3993 44.1994 59.1993 43.9994L57.1993 41.9994C57.0993 41.8994 56.9993 41.7994 56.9993 41.5994V37.3994C56.9993 37.1994 56.8993 36.9994 56.6993 36.7994C55.4993 35.6994 54.2993 34.4994 53.0993 33.3994C52.1993 32.4994 51.1993 31.6994 50.2993 30.7994C50.1993 30.6994 50.0993 30.5994 50.0993 30.3994C49.9993 29.8994 49.8993 29.2994 49.6993 28.6994C50.0993 28.7994 50.4993 28.9994 50.7993 29.0994C53.1993 29.8994 55.2993 31.2994 56.9993 33.0994C57.7993 33.8994 58.4993 34.8994 59.0993 35.9994C59.0993 36.0994 59.0993 36.0994 59.0993 36.0994C59.1993 36.2994 59.4993 36.3994 59.7993 36.2994C59.9993 36.1994 60.0993 35.8994 59.9993 35.5994C59.6993 34.7994 59.1993 34.0994 58.6993 33.4994C56.8993 31.1994 54.4993 29.3994 51.6993 28.2994C50.9993 27.9994 50.1993 27.7994 49.4993 27.4994C49.3993 27.3994 49.2993 27.3994 49.2993 27.2994C48.8993 25.8994 48.4993 24.5994 48.1993 23.2994C47.9993 22.0994 47.7993 20.8994 47.8993 19.6994C47.8993 18.0994 48.2993 16.6994 49.0993 15.2994C49.3993 14.9994 49.5993 14.5994 49.8993 14.2994C49.9993 14.1994 50.0993 14.1994 50.1993 14.1994H51.4993C51.4993 14.2994 51.3993 14.2994 51.3993 14.3994C50.4993 15.9994 49.8993 17.6994 49.6993 19.3994C49.5993 20.2994 49.5993 21.1994 49.6993 22.0994C49.6993 22.2994 49.8993 22.4994 50.0993 22.5994C50.2993 22.6994 50.4993 22.6994 50.6993 22.4994C50.8993 22.2994 50.8993 22.0994 50.8993 21.8994V20.4994C50.8993 19.2994 51.0993 18.0994 51.4993 16.9994C51.7993 16.0994 52.2993 15.1994 52.7993 14.2994C52.8993 14.1994 52.9993 14.0994 53.0993 14.0994H77.7993C77.8993 14.0994 77.9993 14.1994 78.0993 14.2994C79.0993 15.7994 79.6993 17.3994 79.9993 19.0994C80.1993 19.9994 80.1993 20.9994 80.0993 21.8994C80.0993 22.2994 80.1993 22.4994 80.4993 22.5994C80.7993 22.6994 80.9993 22.4994 81.0993 22.1994C81.1993 21.8994 81.1993 21.6994 81.1993 21.3994C81.2993 18.8994 80.6993 16.4994 79.3993 14.2994C79.3993 14.1994 79.2993 14.1994 79.2993 14.0994H80.1993C80.6993 13.9994 80.8993 14.1994 81.1993 14.5994C81.8993 15.4994 82.2993 16.4994 82.5993 17.6994C82.8993 19.0994 82.9993 20.4994 82.7993 21.8994ZM78.1993 20.2994C77.9993 18.8994 77.2993 17.5994 76.3993 16.5994C75.6993 15.7994 74.6993 15.3994 73.5993 15.2994C72.5993 15.2994 71.4993 15.6994 70.7993 16.4994C69.4993 17.7994 68.8993 19.3994 68.6993 21.0994C68.5993 22.0994 68.5993 22.9994 68.7993 23.9994C68.9993 25.3994 69.5993 26.6994 70.4993 27.7994C71.2993 28.6994 72.1993 29.2994 73.3993 29.2994C74.4993 29.2994 75.4993 28.8994 76.1993 28.0994C77.5993 26.6994 78.0993 24.9994 78.2993 23.0994C78.3993 22.1994 78.2993 21.1994 78.1993 20.2994ZM69.7993 23.9994C69.3993 22.5994 69.5993 20.9994 70.2993 19.6994C70.4993 19.2994 70.7993 18.8994 71.1993 18.6994C71.8993 18.1994 72.7993 18.2994 73.3993 18.8994C74.0993 19.4994 74.4993 20.3994 74.5993 21.2994C74.5993 21.5994 74.6993 21.9994 74.6993 22.2994C74.6993 23.3994 74.3993 24.2994 73.8993 25.1994C73.6993 25.4994 73.3993 25.7994 73.0993 25.9994C72.4993 26.3994 71.6993 26.3994 71.0993 25.9994C70.3993 25.4994 69.9993 24.7994 69.7993 23.9994ZM76.6993 25.2994C76.3993 26.0994 75.8993 26.7994 75.2993 27.3994C74.1993 28.3994 72.4993 28.3994 71.4993 27.2994C71.4993 27.1994 71.4993 27.1994 71.4993 27.1994C72.8993 27.4994 73.8993 26.9994 74.6993 25.8994C75.3993 25.0994 75.6993 24.0994 75.7993 22.9994C75.8993 21.8994 75.6993 20.7994 75.2993 19.6994C74.9993 18.9994 74.5993 18.4994 74.0993 17.9994C73.3993 17.2994 72.3993 16.9994 71.3993 17.2994C71.7993 16.7994 72.3993 16.4994 72.9993 16.3994C74.0993 16.1994 74.8993 16.5994 75.5993 17.3994C76.3993 18.2994 76.8993 19.2994 76.9993 20.4994C77.3993 22.0994 77.2993 23.7994 76.6993 25.2994ZM67.5993 26.4994C67.4993 26.1994 67.1993 26.0994 66.9993 26.1994C66.8993 26.1994 66.7993 26.2994 66.6993 26.3994C66.2993 26.7994 65.8993 27.1994 65.4993 27.5994L65.2993 27.3994C64.8993 26.9994 64.5993 26.6994 64.1993 26.2994C63.9993 26.0994 63.5993 26.0994 63.3993 26.2994C63.1993 26.4994 63.2993 26.8994 63.4993 26.8994C63.8993 27.3994 64.3993 27.7994 64.7993 28.2994C64.8993 28.3994 64.8993 28.4994 64.8993 28.5994V31.6994C64.8993 31.9994 65.1993 32.1994 65.4993 32.1994C65.7993 32.1994 65.9993 31.8994 65.9993 31.5994V28.6994C65.9993 28.5994 66.0993 28.4994 66.1993 28.3994C66.5993 27.9994 67.0993 27.4994 67.4993 27.0994C67.6993 26.9994 67.6993 26.6994 67.5993 26.4994ZM65.5993 18.8994C65.2993 18.8994 65.0993 19.0994 65.0993 19.3994V22.9994C65.0993 23.3994 65.3993 23.6994 65.5993 23.6994C65.6993 23.6994 65.6993 23.6994 65.6993 23.6994C65.9993 23.6994 66.1993 23.3994 66.1993 23.0994V19.4994C66.1993 19.3994 66.1993 19.3994 66.1993 19.2994C66.0993 18.9994 65.8993 18.7994 65.5993 18.8994Z" fill="#404041"/>
</svg>
