<svg width="131" height="72" viewBox="0 0 131 72" fill="none" xmlns="http://www.w3.org/2000/svg">
<path d="M70.6997 36.4008C67.0997 36.2008 67.6997 33.9008 68.8997 33.2008C72.1997 31.3008 74.2997 25.9008 64.1997 11.1008C64.0997 10.9008 63.7997 10.8008 63.5997 10.8008C63.1997 10.8008 62.8997 11.2008 62.8997 11.6008C62.8997 14.6008 62.4997 19.8008 60.0997 24.7008C57.7997 29.3008 60.0997 32.0008 62.2997 33.2008C63.5997 34.0008 63.2997 36.3008 60.2997 36.4008C54.6997 36.6008 42.0997 37.8008 44.5997 40.3008C46.8997 42.1008 49.7997 43.0008 52.6997 43.0008C58.5997 43.0008 63.5997 39.3008 65.0997 38.0008C65.1997 37.9008 65.2997 37.9008 65.4997 37.9008C65.5997 37.9008 65.7997 37.9008 65.8997 38.0008C67.3997 39.3008 72.3997 43.0008 78.2997 43.0008C80.8997 43.0008 83.5997 42.2008 86.3997 40.3008C88.7997 37.7008 76.1997 36.7008 70.6997 36.4008ZM52.4997 40.7008C51.0997 40.7008 49.6997 40.4008 48.2997 39.9008C52.1997 39.1008 55.9997 38.7008 59.8997 38.6008C57.8997 39.7008 55.2997 40.7008 52.4997 40.7008ZM65.8997 35.5008C65.7997 35.6008 65.4997 35.5008 65.3997 35.5008C65.1997 35.5008 64.9997 35.5008 64.7997 35.6008L64.8997 35.5008C65.3997 33.9008 64.6997 32.2008 63.2997 31.3008C61.9997 30.4008 61.3997 29.4008 61.3997 28.1008C61.3997 27.4008 61.5997 26.5008 61.9997 25.6008C63.4997 22.6008 64.3997 19.4008 64.7997 16.1008C69.4997 23.8008 69.6997 27.6008 69.2997 29.2008C69.0997 30.1008 68.5997 30.8008 67.7997 31.2008C66.2997 32.2008 65.4997 34.0008 65.8997 35.5008ZM78.2997 40.7008C75.4997 40.7008 72.9997 39.8008 70.8997 38.7008C76.3997 39.0008 80.0997 39.5008 82.3997 40.0008C81.0997 40.5008 79.6997 40.7008 78.2997 40.7008Z" fill="#404041"/>
<path d="M90.9998 42.3C87.5998 53.5 76.9998 61.3 65.4998 61.3C53.5998 61.3 43.0998 53.4 39.9998 42.1C39.6998 41.1 39.5998 38.9 40.7998 36.9C41.7998 35.3 43.4998 34.2 45.6998 33.8L57.7998 32.2C58.3998 32.1 58.9998 32.6 59.0998 33.2C59.1998 33.8 58.6998 34.4 58.0998 34.5L46.0998 36.1C44.4998 36.4 43.3998 37.1 42.6998 38.2C41.9998 39.4 41.9998 41 42.1998 41.5C44.9998 51.7 54.4998 59 65.3998 59C75.9998 59 85.5998 51.8 88.7998 41.5C89.0998 40.5 88.9998 39.4 88.4998 38.5C87.7998 37.4 86.5998 36.6 84.5998 36.2C81.7998 35.5 73.4998 34.3 73.3998 34.3C72.8998 34.2 72.4998 33.7 72.4998 33.2C72.4998 33.1 72.4998 33.1 72.4998 33C72.5998 32.4 73.1998 32 73.7998 32C74.1998 32 82.3998 33.2 85.1998 33.9C87.6998 34.5 89.4998 35.6 90.4998 37.3C91.2998 38.9 91.4998 40.7 90.9998 42.3Z" fill="#404041"/>
</svg>
