<svg width="131" height="72" viewBox="0 0 131 72" fill="none" xmlns="http://www.w3.org/2000/svg">
<path d="M74.1 22.2081C73.5 22.2081 73 21.9039 72.7 21.3969C72.7 22.1067 72.6 22.7152 72.6 23.3236C72.5 24.5405 72.2 25.5546 71.8 26.4673C71.3 27.6842 70.6 28.7997 69.7 29.611C69.3 30.0166 68.9 30.3208 68.4 30.5236C66.9 31.3349 65.7 32.349 64.7 33.2617C64.4 33.5659 64.1 33.8701 63.8 34.1743C61.2 37.2166 60.8 40.2588 60.7 41.6786V41.78V41.8814C60.6 42.7941 60.4 43.5039 60 44.2138C59.9 44.3152 59.8 44.4166 59.7 44.6194C59.5 44.8222 59.3 45.025 59 45.2279C58.6 45.5321 58.1 45.7349 57.6 45.9377C58.1 46.2419 58.4 46.749 58.4 47.3574C58.4 47.7631 58.3 48.0673 58.1 48.3715C58.8 48.1687 59.4 47.8645 59.9 47.5603C60.3 47.3574 60.7 47.0532 61.1 46.749C61.5 46.3434 61.9 46.0391 62.1 45.6335C61.6 45.3293 61.2 44.8222 61.2 44.1124C61.2 43.1997 61.9 42.4898 62.8 42.4898C62.9 42.4898 63 42.4898 63.1 42.4898C63.1 42.3884 63.1 42.287 63.1 42.1856V41.9828C63.1 41.6786 63.2 41.3743 63.2 40.9687C63.3 40.1574 63.6 39.1434 64.1 38.0279C64.3 37.6222 64.6 37.1152 64.9 36.7096C64.8 36.5067 64.7 36.2025 64.7 35.8983C64.7 34.9856 65.4 34.2758 66.3 34.2758C66.6 34.2758 66.8 34.3772 67 34.4786C67.4 34.1743 67.8 33.8701 68.2 33.5659C68.6 33.3631 69 33.0589 69.4 32.856C69.8 32.6532 70.2 32.349 70.6 32.0448C71 31.7405 71.4 31.4363 71.7 31.0307C71.2 30.7265 70.9 30.2194 70.9 29.611C70.9 28.6983 71.6 27.9884 72.5 27.9884C72.9 27.9884 73.2 28.0898 73.5 28.2927C73.7 27.887 73.9 27.38 74.1 26.8729C74.4 25.9603 74.7 24.8448 74.8 23.7293C74.9 23.2222 74.9 22.6138 74.9 22.0053C74.8 22.1067 74.4 22.2081 74.1 22.2081ZM55 47.256C55 46.8504 55.2 46.4448 55.4 46.1405C54.8 46.1405 54.3 46.0391 53.9 45.7349C52.1 44.8222 51.9 42.5912 51.9 42.3884L52 17.2391C52.8 12.3715 57.1 9.32927 57.5 9.12645C60.6 7.19969 63.4 6.99688 66.1 8.41659C67.4 9.12645 68.5 10.0391 69.4 11.1546C69.9 11.6617 70.3 12.3715 70.6 12.98C70.6 12.8786 70.6 12.6757 70.6 12.5743C70.6 11.6617 71.2 10.8504 72 10.5462C71.7 10.1405 71.4 9.7349 71.1 9.32927C70 8.01096 68.7 6.99688 67.2 6.28702C63.8 4.46166 60.1 4.76589 56.2 7.09828L55.4 7.60533V7.70674C53.8 8.92364 50.3 12.1687 49.6 17.0363V17.1377L49.5 42.4898C49.6 44.3152 50.5 47.5603 53.8 48.4729C54.3 48.5743 54.9 48.6758 55.5 48.6758H55.7C55.3 48.3715 55 47.8645 55 47.256ZM74.8 17.5434C74.7 17.0363 74.6 16.4279 74.4 15.9208C74.3 15.4138 74.1 14.9067 73.9 14.5011C73.5 14.7039 73.1 14.9067 72.7 14.9067C72.1 14.9067 71.5 14.6025 71.1 14.1969C71.4 14.8053 71.7 15.5152 71.9 16.225C72.1 16.7321 72.2 17.3405 72.3 17.949C72.4 18.5574 72.5 19.1659 72.5 19.8758C72.8 19.3687 73.3 18.9631 74 18.9631C74.4 18.9631 74.7 19.0645 75 19.2673C75 18.6588 74.9 18.0504 74.8 17.5434Z" fill="#404041"/>
<path d="M57.5998 50.8046C57.4998 50.6017 57.4998 50.5003 57.2998 50.2975C57.1998 50.1961 57.0998 50.0947 56.9998 49.9933C56.4998 49.6891 55.9998 49.7905 55.5998 50.1961C55.4998 50.2975 55.3999 50.3989 55.3999 50.5003C54.7999 51.5144 49.8998 60.4384 52.2998 64.6975C52.8998 65.7116 54.0998 66.8271 56.5998 66.8271C59.1998 66.8271 60.2999 65.6102 60.8999 64.6975C63.0999 60.7426 58.5998 52.5285 57.5998 50.8046ZM58.7998 63.582C58.6998 63.7848 58.2998 64.4947 56.5998 64.4947C54.8998 64.4947 54.4999 63.7848 54.3999 63.582C53.2999 61.7567 54.7999 57.2947 56.3999 53.8468C58.0999 57.1933 59.7998 61.6553 58.7998 63.582Z" fill="#404041"/>
<path d="M58.9 45.1274C58.3 44.5189 57.5 44.1133 56.6 44.1133C55.4 44.1133 54.4 44.8231 53.9 45.7358C53.7 46.1414 53.5 46.6485 53.5 47.2569C53.5 47.6626 53.6 47.9668 53.7 48.3724C54 49.1837 54.7 49.8936 55.5 50.1978C55.8 50.2992 56.2 50.4006 56.6 50.4006C56.8 50.4006 57.1 50.4006 57.3 50.2992C58.6 49.995 59.6 48.8795 59.7 47.4598C59.7 47.3584 59.7 47.3584 59.7 47.2569C59.8 46.4457 59.4 45.7358 58.9 45.1274ZM56.7 48.9809C56.3 48.9809 56 48.8795 55.8 48.6767C55.4 48.3724 55.1 47.8654 55.1 47.3584C55.1 46.9527 55.3 46.5471 55.5 46.2429C55.8 45.9386 56.2 45.7358 56.7 45.7358C57 45.7358 57.3 45.8372 57.5 45.9386C58 46.2429 58.3 46.7499 58.3 47.3584C58.3 47.764 58.2 48.0682 58 48.3724C57.7 48.6767 57.2 48.9809 56.7 48.9809Z" fill="#404041"/>
<path d="M72.7996 8.92383C72.1996 8.92383 71.5996 9.12664 71.0996 9.32946C70.2996 9.7351 69.7996 10.445 69.3996 11.2562C69.1996 11.6619 69.0996 12.1689 69.0996 12.5745C69.0996 14.2985 70.2996 15.8196 71.9996 16.1238C72.1996 16.2252 72.4996 16.2252 72.7996 16.2252C73.3996 16.2252 73.9996 16.1238 74.4996 15.8196C75.6996 15.2112 76.4996 13.9942 76.4996 12.5745C76.3996 10.5464 74.7996 8.92383 72.7996 8.92383ZM73.9996 14.3999C73.5996 14.6027 73.1996 14.8055 72.7996 14.8055C72.1996 14.8055 71.5996 14.5013 71.1996 14.0957C70.8996 13.7914 70.6996 13.3858 70.5996 12.9802C70.5996 12.8788 70.5996 12.6759 70.5996 12.5745C70.5996 11.6619 71.1996 10.8506 71.9996 10.5464C72.1996 10.445 72.4996 10.3435 72.7996 10.3435C73.9996 10.3435 74.9996 11.3576 74.9996 12.5745C74.9996 13.3858 74.5996 13.9943 73.9996 14.3999Z" fill="#404041"/>
<path d="M74.8 17.5428C74.6 17.4414 74.3 17.4414 74.1 17.4414C73.5 17.4414 72.9 17.6442 72.4 17.9484C71.5 18.4555 71 19.4696 71 20.5851C71 21.7006 71.6 22.7146 72.5 23.3231C73 23.6273 73.5 23.7287 74.1 23.7287C74.4 23.7287 74.7 23.7287 75 23.6273C76.3 23.2217 77.3 22.0048 77.3 20.5851C77.2 19.0639 76.2 17.847 74.8 17.5428ZM75.1 21.9034C74.8 22.1062 74.5 22.2076 74.1 22.2076C73.5 22.2076 73 21.9034 72.7 21.3963C72.6 21.1935 72.5 20.8893 72.5 20.5851C72.5 20.2808 72.6 20.078 72.7 19.7738C73 19.2668 73.5 18.8611 74.2 18.8611C74.6 18.8611 74.9 18.9625 75.2 19.1653C75.6 19.4696 75.9 19.9766 75.9 20.4837C75.7 21.0921 75.5 21.5992 75.1 21.9034Z" fill="#404041"/>
<path d="M74.1996 26.6693C73.7996 26.3651 73.1996 26.2637 72.6996 26.2637C72.3996 26.2637 71.9996 26.3651 71.6996 26.4665C70.4996 26.8721 69.5996 28.089 69.5996 29.4073V29.5087C69.5996 30.4214 70.0996 31.2327 70.6996 31.7397C71.1996 32.1454 71.8996 32.4496 72.6996 32.4496C74.3996 32.4496 75.7996 31.0299 75.7996 29.3059C75.7996 28.2918 75.1996 27.1763 74.1996 26.6693ZM72.6996 31.1313C72.3996 31.1313 72.0996 31.0299 71.7996 30.8271C71.2996 30.5228 70.9996 30.0158 70.9996 29.4073C70.9996 28.4947 71.6996 27.7848 72.5996 27.7848C72.9996 27.7848 73.2996 27.8862 73.5996 28.089C73.9996 28.3933 74.2996 28.9003 74.2996 29.4073C74.2996 30.32 73.5996 31.1313 72.6996 31.1313Z" fill="#404041"/>
<path d="M68.2992 33.3622C67.7992 32.9566 67.0992 32.6523 66.2992 32.6523C65.6992 32.6523 65.0992 32.8552 64.5992 33.1594C64.1992 33.3622 63.8992 33.7678 63.6992 34.0721C63.3992 34.5791 63.1992 35.0861 63.1992 35.6946C63.1992 36.5059 63.4992 37.3171 64.0992 37.8242C64.6992 38.4326 65.4992 38.8383 66.3992 38.8383C68.0992 38.8383 69.4992 37.4185 69.4992 35.6946C69.4992 34.8833 68.9992 33.9707 68.2992 33.3622ZM66.3992 37.5199C65.7992 37.5199 65.1992 37.2157 64.9992 36.6073C64.8992 36.4045 64.7992 36.1002 64.7992 35.796C64.7992 34.8833 65.4992 34.1735 66.3992 34.1735C66.6992 34.1735 66.8992 34.2749 67.0992 34.3763C67.5992 34.6805 67.9992 35.1876 67.9992 35.8974C67.9992 36.7087 67.2992 37.5199 66.3992 37.5199Z" fill="#404041"/>
<path d="M63.1996 40.9688C62.9996 40.9688 62.8996 40.9688 62.6996 40.9688C61.8996 40.9688 61.1996 41.273 60.5996 41.78C59.9996 42.3885 59.5996 43.1997 59.5996 44.1124C59.5996 44.3152 59.5996 44.4166 59.5996 44.6195C59.6996 45.5321 60.1996 46.242 60.8996 46.749C61.3996 47.0533 61.9996 47.2561 62.5996 47.2561C64.2996 47.2561 65.6996 45.8364 65.6996 44.1124C65.7996 42.4899 64.5996 41.273 63.1996 40.9688ZM62.6996 45.7349C62.3996 45.7349 62.1996 45.6335 61.9996 45.5321C61.4996 45.2279 61.0996 44.7209 61.0996 44.011C61.0996 43.0983 61.7996 42.3885 62.6996 42.3885C62.7996 42.3885 62.8996 42.3885 62.9996 42.3885C63.7996 42.4899 64.2996 43.1997 64.2996 44.011C64.2996 45.0251 63.5996 45.7349 62.6996 45.7349Z" fill="#404041"/>
<path d="M56.9 27.7864C56.3 27.7864 55.7 27.2793 55.7 26.6709C55.6 25.961 56.1 25.3526 56.8 25.3526C56.9 25.3526 59.6 25.0483 59.7 22.9188C59.8 20.8906 56.4 20.3836 56.4 20.3836C55.7 20.2821 55.3 19.6737 55.4 18.9638C55.6 17.2399 57.2 13.792 61.6 13.4878C66.1 13.1836 68.1 17.5441 68.5 19.8765C68.6 20.5864 68.2 21.1948 67.5 21.2962C66.8 21.3976 66.2 20.992 66.1 20.2821C66.1 20.0793 65.2 15.6174 61.7 15.9216C59.5 16.1244 58.5 17.2399 58.1 18.1526C60 18.761 62.2 20.1807 62.1 22.9188C62 26.3667 58.7 27.5836 57 27.7864H56.9Z" fill="#404041"/>
</svg>
