<svg width="131" height="72" viewBox="0 0 131 72" fill="none" xmlns="http://www.w3.org/2000/svg">
<path d="M84.3995 23.0992C84.1995 22.6992 83.9995 22.1992 83.8995 21.6992C83.6995 19.7992 82.1995 18.1992 80.2995 17.8992C79.6995 17.7992 79.1995 17.5992 78.6995 17.2992C76.8995 15.9992 74.9995 15.9992 73.1995 17.2992C72.7995 17.5992 72.2995 17.7992 71.7995 17.8992C70.8995 17.9992 70.0995 18.3992 69.3995 18.9992C68.4995 19.6992 67.9995 20.6992 67.8995 21.7992C67.7995 22.6992 67.5995 22.7992 66.7995 22.7992C66.4995 22.7992 66.1995 22.8992 65.7995 22.8992C65.5995 22.8992 65.3995 22.8992 65.1995 22.9992C63.4995 23.3992 61.4995 24.3992 60.2995 25.8992L46.1995 51.1992C46.1995 51.1992 43.7995 57.5992 51.2995 54.9992L68.9995 44.9992C70.8995 43.8992 72.7995 42.8992 74.6995 41.7992C74.7995 41.6992 74.9995 41.5992 75.0995 41.4992L76.2995 40.6992C78.6995 38.5992 79.4995 37.0992 78.7995 34.6992C78.5995 33.8992 78.8995 33.8992 79.5995 33.6992H79.8995C81.7995 33.3992 83.1995 32.0992 83.5995 30.0992C83.6995 29.4992 83.8995 28.9992 84.1995 28.4992C85.4995 26.7992 85.4995 24.8992 84.3995 23.0992ZM67.0995 28.4992C67.5995 29.0992 67.5995 29.8992 67.7995 30.5992C67.8995 30.7992 67.7995 30.7992 67.6995 30.8992L55.5995 42.9992C55.5995 43.0992 55.4995 43.0992 55.4995 43.0992C55.4995 43.1992 55.3995 43.1992 55.3995 43.1992V43.0992C57.4995 39.3992 59.3995 35.4992 61.7995 31.8992C63.0995 30.0992 64.4995 28.2992 65.9995 26.5992C66.0995 26.4992 66.0995 26.4992 66.0995 26.3992C66.1995 26.5992 66.2995 26.7992 66.2995 26.8992C66.4995 27.4992 66.6995 27.9992 67.0995 28.4992ZM69.1995 33.3992C64.2995 38.2992 59.4995 43.0992 54.5995 47.9992C53.9995 48.5992 53.3995 48.9992 52.6995 49.3992C52.3995 49.5992 51.9995 49.7992 51.6995 49.9992L51.5995 49.8992C52.0995 49.0992 52.4995 48.0992 53.1995 47.3992C58.1995 42.3992 63.2995 37.3992 68.2995 32.2992C68.4995 31.9992 68.6995 31.9992 68.8995 32.2992C68.9995 32.3992 69.0995 32.3992 69.1995 32.4992C69.6995 32.8992 69.6995 32.8992 69.1995 33.3992ZM70.3995 33.8992C70.5995 33.7992 70.6995 33.7992 70.8995 33.7992C71.6995 33.9992 72.4995 34.2992 73.1995 34.7992C73.7995 35.1992 74.3995 35.2992 75.0995 35.3992C73.4995 36.8992 71.8995 38.1992 70.0995 39.3992C67.8995 40.9992 65.4995 42.2992 63.0995 43.5992C61.6995 44.3992 60.2995 45.0992 58.8995 45.8992C58.6995 45.9992 58.5995 45.9992 58.4995 46.0992C58.4995 45.8992 58.5995 45.8992 58.5995 45.7992C62.4995 41.7992 66.3995 37.8992 70.3995 33.8992ZM77.0995 37.1992C76.7995 37.9992 75.3995 39.2992 75.1995 39.3992L50.3995 53.3992C50.2995 53.3992 47.8995 54.6992 47.6995 51.9992L61.8995 26.9992C62.4995 25.9992 64.5995 24.3992 66.3995 24.1992C66.3995 24.1992 66.4995 24.1992 66.5995 24.1992C65.7995 24.9992 65.1995 25.6992 64.4995 26.4992C62.0995 29.2992 59.9995 32.3992 58.1995 35.5992C55.5995 40.1992 52.9995 44.8992 50.3995 49.4992C50.1995 49.5992 50.0995 49.8992 50.0995 50.0992C49.9995 50.5992 50.1995 50.9992 50.5995 51.2992C50.9995 51.5992 51.5995 51.5992 51.9995 51.2992L57.7995 47.9992C61.1995 46.0992 64.5995 44.1992 67.9995 42.2992C71.2995 40.3992 74.3995 37.9992 77.1995 35.2992L77.4995 34.9992C77.4995 35.7992 77.3995 36.4992 77.0995 37.1992ZM83.2995 27.4992C82.7995 28.1992 82.3995 28.9992 82.2995 29.7992C81.9995 31.1992 80.9995 32.0992 79.5995 32.2992C78.9995 32.3992 78.2995 32.5992 77.7995 32.9992C76.3995 33.9992 75.0995 33.9992 73.7995 32.9992C73.2995 32.5992 72.6995 32.3992 71.9995 32.2992C70.4995 32.0992 69.4995 31.0992 69.2995 29.5992C69.1995 28.8992 68.9995 28.2992 68.5995 27.7992C67.5995 26.3992 67.5995 25.0992 68.5995 23.7992C68.9995 23.1992 69.2995 22.4992 69.3995 21.7992C69.5995 20.4992 70.5995 19.3992 71.9995 19.2992C72.6995 19.2992 73.3995 18.9992 73.8995 18.5992C75.1995 17.5992 76.4995 17.5992 77.7995 18.5992C78.2995 18.9992 78.8995 19.1992 79.5995 19.2992C80.9995 19.4992 82.0995 20.5992 82.2995 21.9992C82.3995 22.6992 82.5995 23.2992 83.1995 23.7992C83.6995 24.3992 83.8995 25.0992 83.8995 25.7992C83.8995 26.3992 83.6995 26.9992 83.2995 27.4992ZM75.7995 20.1992C72.6995 20.1992 70.0995 22.6992 70.0995 25.7992C70.0995 28.8992 72.5995 31.4992 75.6995 31.4992C78.7995 31.4992 81.3995 28.9992 81.3995 25.8992C81.3995 25.7992 81.3995 25.7992 81.3995 25.7992C81.3995 22.6992 78.8995 20.1992 75.7995 20.1992ZM78.5995 28.6992C76.9995 30.0992 74.5995 30.1992 73.1995 28.8992C71.3995 27.5992 71.1995 24.6992 72.7995 22.9992C74.4995 21.1992 77.5995 21.3992 78.9995 23.2992C80.2995 24.7992 80.0995 27.2992 78.5995 28.6992Z" fill="#404041"/>
</svg>
