<svg width="131" height="72" viewBox="0 0 131 72" fill="none" xmlns="http://www.w3.org/2000/svg">
<path fill-rule="evenodd" clip-rule="evenodd" d="M89.8004 25.1992H81.9004C79.7004 25.1992 77.4004 25.1992 75.2004 25.1992C74.8004 25.1992 74.6004 25.0992 74.4004 24.7992C72.7004 22.3992 70.9004 19.9992 69.2004 17.5992C69.2004 17.5992 69.2004 17.4992 69.1004 17.4992V17.3992C69.1004 17.2992 69.1004 17.2992 69.1004 17.1992V17.0992C69.1004 17.0992 69.1004 16.9992 69.2004 16.8992C69.9004 15.8992 70.1004 14.6992 69.8004 13.5992C69.3004 11.7992 68.2004 10.6992 66.4004 10.3992C64.6004 10.0992 63.1004 10.6992 62.1004 12.1992C61.1004 13.7992 61.1004 15.3992 62.1004 16.9992C62.3004 17.2992 62.3004 17.4992 62.1004 17.7992L61.0004 19.2992L60.3004 20.1992L59.8004 20.8992C58.8004 22.1992 57.9004 23.5992 56.9004 24.8992C56.6004 25.1992 56.4004 25.3992 55.9004 25.3992C52.9004 25.3992 49.9004 25.3992 46.9004 25.3992H41.5004C40.2004 25.3992 39.9004 25.6992 39.9004 26.9992V60.4992C39.9004 60.5992 39.9004 60.6992 39.9004 60.7992C39.9004 61.0992 40.0004 61.2992 40.2004 61.4992C40.4004 61.5992 40.6004 61.6992 40.9004 61.7992C41.0004 61.7992 41.1004 61.7992 41.2004 61.7992H90.0004C91.3004 61.7992 91.6004 61.4992 91.6004 60.1992V26.7992C91.3004 25.4992 91.0004 25.1992 89.8004 25.1992ZM65.6004 12.3992C66.8004 12.3992 67.7004 13.3992 67.7004 14.5992C67.7004 15.7992 66.7004 16.7992 65.5004 16.6992C64.3004 16.6992 63.4004 15.6992 63.4004 14.4992C63.4004 13.1992 64.4004 12.2992 65.6004 12.3992ZM63.9004 18.4992C64.9004 18.8992 66.0004 18.8992 67.1004 18.4992L71.9004 25.1992H59.1004L63.9004 18.4992ZM89.1004 59.5992H41.9004V27.3992H89.1004V59.5992ZM85.6004 29.5992H45.3004C44.3004 29.5992 44.0004 29.9992 44.0004 30.8992C44.0004 39.2992 44.0004 47.7992 44.0004 56.1992C44.0004 57.1992 44.4004 57.5992 45.4004 57.5992H85.6004C86.7004 57.5992 87.1004 57.2992 87.1004 56.0992V30.9992C87.0004 29.8992 86.7004 29.5992 85.6004 29.5992ZM48.2004 55.2992L61.0004 44.9992L69.5004 55.2992H48.2004ZM83.9004 55.2992C83.8004 55.2992 83.7004 55.2992 83.6004 55.2992H77.6004C76.1004 55.2992 74.5004 55.2992 73.0004 55.2992C72.6004 55.2992 72.4004 55.1992 72.2004 54.8992C71.3004 53.8992 70.5004 52.7992 69.6004 51.7992L78.2004 44.1992L84.2004 55.2992H83.9004ZM84.8004 51.9992L84.7004 51.7992L84.6004 51.6992C84.6004 51.5992 84.5004 51.4992 84.5004 51.4992C82.9004 48.4992 81.2004 45.3992 79.6004 42.3992C79.6004 42.2992 79.5004 42.1992 79.5004 42.1992C79.0004 41.2992 78.3004 41.1992 77.6004 41.7992C74.8004 44.2992 71.9004 46.8992 69.1004 49.3992C68.9004 49.5992 68.7004 49.6992 68.5004 49.8992L68.2004 50.1992L67.7004 49.5992L67.3004 49.0992L67.0004 48.6992L66.5004 48.0992C65.8004 47.1992 65.0004 46.3992 64.3004 45.4992L62.4004 43.1992C61.6004 42.2992 61.2004 42.2992 60.3004 42.9992C55.8004 46.5992 51.3004 50.1992 46.8004 53.7992C46.7004 53.8992 46.6004 53.8992 46.5004 53.9992L46.3004 54.0992V31.7992H84.9004L84.8004 51.9992ZM56.9004 33.8992V35.9992H59.0004V33.8992H56.9004ZM52.6004 33.8992V35.9992H54.7004V33.8992H52.6004ZM48.3004 33.8992V35.9992H50.4004V33.8992H48.3004Z" fill="#404041"/>
<path fill-rule="evenodd" clip-rule="evenodd" d="M68.8004 34.8984C66.4004 34.8984 64.4004 36.7984 64.4004 39.1984C64.4004 41.5984 66.3004 43.4984 68.7004 43.4984C71.1004 43.4984 73.0004 41.5984 73.0004 39.1984C73.0004 36.8984 71.1004 34.8984 68.8004 34.8984ZM68.7004 41.3984C67.5004 41.3984 66.6004 40.3984 66.6004 39.2984C66.6004 38.0984 67.6004 37.1984 68.7004 37.1984C69.9004 37.1984 70.8004 38.0984 70.8004 39.2984C70.9004 40.3984 69.9004 41.3984 68.7004 41.3984Z" fill="#404041"/>
</svg>
