<svg width="131" height="72" viewBox="0 0 131 72" fill="none" xmlns="http://www.w3.org/2000/svg">
<path d="M87 14.5C81.5 9 73.9 5.5 65.5 5.5C48.7 5.5 35 19.2 35 36C35 52.8 48.7 66.5 65.5 66.5C82.3 66.5 96 52.8 96 36C96 27.6 92.6 20 87 14.5ZM65.5 62.9C50.7 62.9 38.6 50.9 38.6 36C38.6 21.2 50.6 9.1 65.5 9.1C80.4 9.1 92.4 21.1 92.4 36C92.4 50.8 80.3 62.9 65.5 62.9ZM80.2 21.3C76.4 17.5 71.2 15.2 65.5 15.2C54 15.2 44.7 24.5 44.7 36C44.7 47.5 54 56.8 65.5 56.8C77 56.8 86.3 47.5 86.3 36C86.3 30.3 84 25 80.2 21.3ZM65.5 53.4C55.9 53.4 48.1 45.6 48.1 36C48.1 26.4 55.9 18.6 65.5 18.6C75.1 18.6 82.9 26.4 82.9 36C82.9 45.6 75.1 53.4 65.5 53.4Z" fill="#404041"/>
</svg>
