<svg width="131" height="72" viewBox="0 0 131 72" fill="none" xmlns="http://www.w3.org/2000/svg">
<path fill-rule="evenodd" clip-rule="evenodd" d="M82.9998 19.5C78.4998 15 72.3998 12.5 65.9998 12.5C61.1998 12.5 56.5998 13.9 52.6998 16.5C48.6998 19.1 45.6998 22.9 43.8998 27.3C42.0998 31.7 41.5998 36.5 42.4998 41.2C43.3998 45.9 45.6998 50.1 49.0998 53.5C52.4998 56.9 56.6998 59.1 61.3998 60.1C65.9998 61 70.8998 60.6 75.2998 58.7C79.6998 56.9 83.3998 53.8 86.0998 49.9C88.6998 46 90.0998 41.3 90.0998 36.6C89.9998 30.1 87.4998 24 82.9998 19.5ZM81.0998 51.6C77.0998 55.6 71.5998 57.9 65.9998 57.9C61.7998 57.9 57.5998 56.7 54.0998 54.3C50.5998 51.9 47.7998 48.6 46.1998 44.7C44.5998 40.8 44.1998 36.5 44.9998 32.3C45.7998 28.1 47.8998 24.3 50.7998 21.3C53.7998 18.3 57.5998 16.3 61.7998 15.4C65.8998 14.6 70.2998 15 74.1998 16.6C78.0998 18.2 81.3998 21 83.7998 24.5C86.1998 28 87.3998 32.2 87.3998 36.4C87.3998 42.2 85.0998 47.6 81.0998 51.6ZM65.9998 20.2C62.7998 20.2 59.5998 21.2 56.8998 23C54.1998 24.8 52.0998 27.3 50.8998 30.3C49.6998 33.3 49.2998 36.6 49.9998 39.7C50.5998 42.9 52.1998 45.8 54.4998 48.1C56.7998 50.4 59.6998 51.9 62.8998 52.6C66.0998 53.2 69.2998 52.9 72.2998 51.7C75.2998 50.5 77.7998 48.4 79.5998 45.7C81.3998 43 82.3998 39.9 82.3998 36.6C82.3998 32.3 80.6998 28.1 77.5998 25.1C74.4998 21.9 70.2998 20.2 65.9998 20.2ZM75.7998 46.3C73.1998 48.9 69.6998 50.4 65.9998 50.4C63.2998 50.4 60.5998 49.6 58.2998 48.1C55.9998 46.6 54.1998 44.4 53.1998 41.9C52.1998 39.4 51.8998 36.6 52.3998 33.9C52.8998 31.2 54.2998 28.8 56.1998 26.8C58.0998 24.8 60.5998 23.5 63.2998 23C65.9998 22.5 68.7998 22.7 71.2998 23.8C73.7998 24.8 75.9998 26.6 77.4998 28.9C78.9998 31.2 79.7998 33.9 79.7998 36.6C79.8998 40.2 78.3998 43.7 75.7998 46.3Z" fill="#404041"/>
<path fill-rule="evenodd" clip-rule="evenodd" d="M77.5007 24.9992C74.4007 21.8992 70.3007 20.1992 66.0007 20.1992C62.8007 20.1992 59.6007 21.1992 56.9007 22.9992C54.2007 24.7992 52.1007 27.2992 50.9007 30.2992C49.7007 33.2992 49.3007 36.5992 50.0007 39.6992C50.6007 42.8992 52.2007 45.7992 54.5007 48.0992C56.8007 50.3992 59.7007 51.8992 62.9007 52.5992C66.1007 53.1992 69.3007 52.8992 72.3007 51.6992C75.3007 50.4992 77.8007 48.3992 79.6007 45.6992C81.4007 42.9992 82.4007 39.8992 82.4007 36.5992C82.3007 32.1992 80.6007 27.9992 77.5007 24.9992ZM75.8007 46.2992C73.2007 48.8992 69.7007 50.3992 66.0007 50.3992C63.3007 50.3992 60.6007 49.5992 58.3007 48.0992C56.0007 46.5992 54.2007 44.3992 53.2007 41.8992C52.2007 39.3992 51.9007 36.5992 52.4007 33.8992C52.9007 31.1992 54.3007 28.7992 56.2007 26.7992C58.1007 24.7992 60.6007 23.4992 63.3007 22.9992C66.0007 22.4992 68.8007 22.6992 71.3007 23.7992C73.8007 24.7992 76.0007 26.5992 77.5007 28.8992C79.0007 31.1992 79.8007 33.8992 79.8007 36.5992C79.9007 40.1992 78.4007 43.6992 75.8007 46.2992Z" fill="#404041"/>
<path fill-rule="evenodd" clip-rule="evenodd" d="M77.5007 24.9992C74.4007 21.8992 70.3007 20.1992 66.0007 20.1992C62.8007 20.1992 59.6007 21.1992 56.9007 22.9992C54.2007 24.7992 52.1007 27.2992 50.9007 30.2992C49.7007 33.2992 49.3007 36.5992 50.0007 39.6992C50.6007 42.8992 52.2007 45.7992 54.5007 48.0992C56.8007 50.3992 59.7007 51.8992 62.9007 52.5992C66.1007 53.1992 69.3007 52.8992 72.3007 51.6992C75.3007 50.4992 77.8007 48.3992 79.6007 45.6992C81.4007 42.9992 82.4007 39.8992 82.4007 36.5992C82.3007 32.1992 80.6007 27.9992 77.5007 24.9992ZM75.8007 46.2992C73.2007 48.8992 69.7007 50.3992 66.0007 50.3992C63.3007 50.3992 60.6007 49.5992 58.3007 48.0992C56.0007 46.5992 54.2007 44.3992 53.2007 41.8992C52.2007 39.3992 51.9007 36.5992 52.4007 33.8992C52.9007 31.1992 54.3007 28.7992 56.2007 26.7992C58.1007 24.7992 60.6007 23.4992 63.3007 22.9992C66.0007 22.4992 68.8007 22.6992 71.3007 23.7992C73.8007 24.7992 76.0007 26.5992 77.5007 28.8992C79.0007 31.1992 79.8007 33.8992 79.8007 36.5992C79.9007 40.1992 78.4007 43.6992 75.8007 46.2992Z" fill="#404041"/>
</svg>
