<svg width="131" height="72" viewBox="0 0 131 72" fill="none" xmlns="http://www.w3.org/2000/svg">
<path fill-rule="evenodd" clip-rule="evenodd" d="M93.4008 36.9C92.4008 36.9 91.3008 36.9 90.3008 36.9H88.9008V36.4C88.9008 35.9 88.9008 35.5 88.9008 35C88.9008 34.9 89.1008 34.8 89.2008 34.7C90.2008 34.1 90.8008 33.2 90.7008 32C90.7008 31.3 90.7008 30.6 90.7008 29.9C90.7008 29.5 90.7008 29 90.7008 28.6C90.7008 27.9 90.4008 27.5 89.6008 27.5C88.4008 27.5 87.3008 27.5 86.1008 27.5C85.4008 27.5 85.1008 27.9 85.0008 28.5V28.7C85.0008 29.9 85.0008 31.1 85.0008 32.2C85.0008 33.3 85.6008 34.1 86.5008 34.6C86.8008 34.7 86.9008 34.9 86.9008 35.2C86.9008 35.5 86.9008 35.9 86.9008 36.3C86.9008 36.5 86.9008 36.6 86.9008 36.8H81.3008V36.3C81.3008 35.9 81.3008 35.4 81.3008 35C81.3008 34.9 81.5008 34.7 81.6008 34.7C82.6008 34.1 83.1008 33.2 83.1008 32.1C83.1008 31.5 83.1008 30.8 83.1008 30.2V28.7C83.1008 27.9 82.8008 27.6 82.0008 27.6C80.9008 27.6 79.7008 27.6 78.5008 27.6C77.7008 27.6 77.4008 28 77.4008 28.7C77.4008 29.8 77.4008 31 77.4008 32.2C77.4008 33.4 77.9008 34.2 78.9008 34.8C79.1008 34.9 79.2008 35.1 79.2008 35.3C79.2008 35.7 79.2008 36 79.2008 36.4C79.2008 36.6 79.2008 36.7 79.2008 36.9H75.5008V32.6C75.5008 31.6 75.2008 31.3 74.2008 31.3C74.0008 31.3 73.8008 31.3 73.6008 31.3C73.0008 31.3 72.4008 31.3 71.8008 31.3C71.4008 31.3 71.1008 31.2 70.8008 30.9C70.1008 30.1 69.3008 29.4 68.6008 28.7L67.8008 27.9C67.5008 28.3 67.1008 28.6 66.8008 29L66.5008 29.3L68.7008 31.4C68.1008 31.8 68.0008 32.3 68.0008 32.8C68.0008 33.8 68.0008 34.8 68.0008 35.8V37H61.9008C53.8008 37 45.7008 37 37.7008 37C37.1008 37 36.6008 37.1 36.3008 37.6V64.6C36.6008 65.1 37.1008 65.2 37.6008 65.2C38.0008 65.2 38.4008 65.2 38.8008 65.2H39.6008C39.9008 65.2 40.2008 65.2 40.5008 65.2C41.6008 65.2 41.9008 64.9 41.9008 63.8V42.8H88.6008V63.8C88.6008 65 88.9008 65.2 90.0008 65.2H93.1008C93.9008 65.2 94.2008 64.9 94.2008 64.2V38C94.5008 37.3 94.1008 36.9 93.4008 36.9ZM87.0008 30.3C87.0008 30 87.0008 29.7 87.0008 29.4H88.8008V30.3C88.8008 31 88.8008 31.7 88.8008 32.3C88.8008 32.8 88.4008 33.1 87.9008 33.1C87.4008 33.1 87.0008 32.8 87.0008 32.3C87.0008 31.9 87.0008 31.5 87.0008 31.1V30.3ZM79.5008 31.2V30.4C79.5008 30.1 79.5008 29.8 79.5008 29.5H81.3008C81.3008 29.8 81.3008 30.1 81.3008 30.4C81.3008 31.1 81.3008 31.8 81.3008 32.5C81.3008 33 80.9008 33.3 80.4008 33.2C79.9008 33.2 79.6008 32.9 79.5008 32.4C79.5008 32 79.5008 31.6 79.5008 31.2ZM70.2008 33.2H73.8008V36.9H70.2008V33.2ZM40.2008 63.1H38.4008V42.6H40.2008V63.1ZM38.4008 40.6V38.8H92.5008V40.6H38.4008ZM92.6008 63H90.8008V42.6H92.6008V63Z" fill="#404041"/>
<path fill-rule="evenodd" clip-rule="evenodd" d="M90.4 12.6C90.8 12.6 91.2 12.6 91.6 12.6H92C93.3 12.6 94 12.6 94.3 12.3C94.6 12 94.6 11.5 94.5 10.4C94.5 10.2 94.5 9.9 94.5 9.7V9.3C94.5 9 94.5 8.6 94.5 8.3C94.5 7.7 94.4 7.3 93.9 7H36.5V12C36.8 12.5 37.3 12.7 37.8 12.7C38.6 12.7 39.3 12.7 40.1 12.7C40.4 12.7 40.8 12.7 41.1 12.7V13.4C41.1 13.6 41.1 13.9 41.1 14.1C41.1 14.4 41.1 14.8 41.1 15.1C41.1 15.3 41 15.4 40.9 15.5C40.1 16.8 39.4 18 38.6 19.3C38.4 19.7 38.2 20.1 38.4 20.5C38.6 20.9 39.1 21 39.5 21H44.5C45.6 21 46 20.3 45.4 19.4L45.1 18.9C44.5 17.9 43.9 16.9 43.3 15.8C43 15.3 42.8 14.9 42.9 14.3C42.9 13.9 42.9 13.5 42.9 13.2V12.7H50.4C50.4 13 50.4 13.2 50.4 13.5C50.4 13.7 50.4 13.9 50.4 14.1C50.4 14.8 50.3 15.6 49.8 16.3C49.3 17 48.8 17.8 48.4 18.6C48.2 18.9 48 19.2 47.9 19.5C47.3 20.4 47.7 21.1 48.8 21.1H54C55.1 21.1 55.5 20.4 55 19.5C54.9 19.3 54.8 19.1 54.6 18.9C54 17.9 53.4 16.9 52.8 15.9C52.5 15.4 52.3 15 52.4 14.4C52.4 14 52.4 13.6 52.4 13.2C52.4 13 52.4 12.8 52.4 12.7H59.8C59.8 13 59.8 13.3 59.8 13.7C59.8 13.9 59.8 14 59.8 14.2C59.8 14.9 59.7 15.5 59.3 16.1C58.5 17.1 57.9 18.3 57.3 19.4C57.1 19.7 57.1 20.2 57.2 20.6C57.3 21.1 57.8 21.1 58.3 21.1H63.4C64.4 21.1 64.8 20.4 64.3 19.5L64.2 19.3C63.5 18.2 62.9 17 62.2 15.9C61.9 15.4 61.8 15 61.8 14.4C61.8 14 61.8 13.6 61.8 13.3C61.8 13.1 61.8 12.9 61.8 12.8H69.3C69.3 13 69.3 13.1 69.3 13.3C69.3 14.4 69.4 15.5 68.6 16.5C68.1 17.2 67.7 17.9 67.3 18.7C67.1 19 67 19.3 66.8 19.6C66.2 20.5 66.6 21.2 67.7 21.2H72.9C73.9 21.2 74.3 20.5 73.8 19.6C73.1 18.4 72.4 17.2 71.6 16C71.3 15.5 71.2 15.1 71.2 14.5C71.2 14.1 71.2 13.7 71.2 13.4V12.9H78.6C78.6 13.2 78.6 13.6 78.6 13.9C78.6 14.7 78.6 15.5 78.1 16.3C77.6 17.1 77.1 17.9 76.6 18.7C76.4 19 76.2 19.3 76.1 19.6C75.5 20.6 75.9 21.3 77.1 21.3H82.2C83.2 21.3 83.7 20.6 83.1 19.7L82.8 19.3C82.2 18.3 81.6 17.2 80.9 16.2C80.6 15.7 80.4 15.2 80.5 14.6C80.5 14.2 80.5 13.9 80.5 13.5C80.5 13.3 80.5 13.2 80.5 13H88C88 13.3 88 13.6 88 13.9C88 14.8 88 15.6 87.5 16.4C87 17.1 86.5 18 86 18.8C85.8 19.1 85.7 19.4 85.5 19.7C85 20.6 85.4 21.3 86.4 21.3H91.6C92.6 21.3 93 20.6 92.5 19.7C91.8 18.5 91.1 17.3 90.3 16.1C90 15.6 89.9 15.2 89.9 14.7C89.9 14.3 89.9 13.9 89.9 13.5V12.9H90.4V12.6ZM43.2 19.1H41C41.4 18.5 41.7 17.9 42.1 17.3L43.2 19.1ZM52.6 19.1H50.4L51.5 17.2C51.9 17.9 52.2 18.5 52.6 19.1ZM61.9 19.1H59.7L60.8 17.3L61.6 18.6L61.9 19.1ZM71.3 19.1H69.1L69.7 18.1L70.2 17.3L71.3 19.1ZM80.6 19.1H78.4L79.5 17.3L80.6 19.1ZM90 19.1H87.8L88.9 17.3L90 19.1ZM38.4 10.7V8.9H92.5V10.7H38.4Z" fill="#404041"/>
<path fill-rule="evenodd" clip-rule="evenodd" d="M57.0004 48.5008C56.8004 47.2008 55.7004 46.3008 54.4004 46.3008C51.8004 46.3008 49.2004 46.3008 46.6004 46.3008C45.1004 46.3008 44.0004 47.5008 43.9004 49.0008C43.9004 49.3008 43.9004 49.5008 43.9004 49.8008C43.9004 50.1008 43.9004 50.3008 43.9004 50.6008V50.8008C43.9004 51.6008 44.2004 51.9008 45.0004 51.9008C45.9004 51.9008 46.8004 51.9008 47.7004 51.9008H49.5004V63.1008H45.8004V65.0008H55.1004V63.1008H51.4004V51.9008H54.6004C55.0004 51.9008 55.5004 51.9008 55.9004 51.9008C56.7004 51.9008 57.0004 51.5008 57.0004 50.8008V50.4008C57.1004 49.7008 57.1004 49.1008 57.0004 48.5008ZM55.2004 49.7008V50.0008H46.0004C45.8004 48.5008 46.1004 48.2008 47.5004 48.2008H51.9004C52.7004 48.2008 53.4004 48.2008 54.2004 48.2008C54.9004 48.2008 55.2004 48.5008 55.3004 49.0008C55.3004 49.1008 55.3004 49.3008 55.3004 49.4008C55.2004 49.5008 55.2004 49.6008 55.2004 49.7008Z" fill="#404041"/>
<path fill-rule="evenodd" clip-rule="evenodd" d="M84.2004 46.3008C81.7004 46.3008 79.2004 46.3008 76.7004 46.3008C75.1004 46.3008 73.9004 47.5008 73.9004 49.1008C73.9004 49.3008 73.9004 49.6008 73.9004 49.8008C73.9004 50.0008 73.9004 50.3008 73.9004 50.5008V50.7008C73.9004 51.5008 74.2004 51.9008 75.1004 51.9008C75.9004 51.9008 76.8004 51.9008 77.6004 51.9008H78.9004C79.0004 51.9008 79.1004 51.9008 79.3004 51.9008C79.4004 51.9008 79.4004 51.9008 79.5004 51.9008V63.0008H75.8004V64.9008H85.1004V64.5008C85.1004 64.1008 85.1004 63.7008 85.1004 63.3008C85.1004 63.2008 84.8004 63.0008 84.7004 63.0008C84.0004 63.0008 83.4004 63.0008 82.8004 63.0008H81.5004V51.9008H82.8004C83.8004 51.9008 84.8004 51.9008 85.7004 51.9008C86.8004 51.9008 87.1004 51.6008 87.1004 50.5008V49.1008C87.0004 47.5008 85.8004 46.3008 84.2004 46.3008ZM85.1004 49.6008C85.1004 49.7008 85.1004 49.8008 85.1004 50.0008H75.9004C75.7004 48.6008 76.0004 48.1008 77.4004 48.2008C78.5004 48.2008 79.6004 48.2008 80.7004 48.2008C81.2004 48.2008 81.7004 48.2008 82.2004 48.2008H82.7004C83.2004 48.2008 83.8004 48.2008 84.3004 48.2008C84.8004 48.2008 85.2004 48.4008 85.2004 48.9008C85.1004 49.1008 85.1004 49.4008 85.1004 49.6008Z" fill="#404041"/>
<path fill-rule="evenodd" clip-rule="evenodd" d="M71.9004 48.4008C71.7004 47.1008 70.6004 46.3008 69.3004 46.3008C66.8004 46.3008 64.2004 46.3008 61.6004 46.3008C60.1004 46.3008 58.9004 47.5008 58.9004 49.1008C58.9004 49.5008 58.9004 50.0008 58.9004 50.4008V50.7008C58.9004 51.6008 59.2004 51.9008 60.1004 51.9008C60.2004 51.9008 60.3004 51.9008 60.5004 51.9008C61.6004 51.9008 62.8004 51.9008 63.9004 51.9008C64.4004 51.9008 64.5004 52.0008 64.5004 52.5008C64.5004 54.9008 64.5004 57.3008 64.5004 59.7008V62.5008C64.5004 62.6008 64.5004 62.7008 64.5004 62.8008C64.5004 62.9008 64.5004 62.9008 64.5004 63.0008H60.8004V64.9008H70.1004V63.0008H66.4004V51.9008C66.5004 51.9008 66.5004 51.9008 66.6004 51.9008C66.8004 51.9008 66.9004 51.9008 67.1004 51.9008H70.6004C71.8004 51.9008 72.1004 51.7008 72.1004 50.4008V50.0008C72.1004 49.5008 72.1004 49.0008 71.9004 48.4008ZM70.2004 50.0008H60.9004C60.7004 48.5008 61.0004 48.2008 62.5004 48.2008H68.4004C68.7004 48.2008 69.0004 48.2008 69.3004 48.2008C69.8004 48.2008 70.1004 48.6008 70.2004 49.1008V50.0008Z" fill="#404041"/>
</svg>
