<svg width="131" height="72" viewBox="0 0 131 72" fill="none" xmlns="http://www.w3.org/2000/svg">
<path fill-rule="evenodd" clip-rule="evenodd" d="M85.9004 15.6996L78.4004 8.19961C77.5004 7.29961 75.9004 6.59961 74.6004 6.59961H56.3004C55.0004 6.59961 53.4004 7.29961 52.5004 8.19961L45.0004 15.6996C44.1004 16.5996 43.4004 18.1996 43.4004 19.4996V52.4996C43.4004 53.7996 44.1004 55.3996 45.0004 56.2996L52.5004 63.7996C53.4004 64.6996 55.0004 65.3996 56.3004 65.3996H74.6004C75.9004 65.3996 77.5004 64.6996 78.4004 63.7996L85.9004 56.2996C86.8004 55.3996 87.5004 53.7996 87.5004 52.4996V19.4996C87.5004 18.1996 86.8004 16.5996 85.9004 15.6996ZM85.7004 52.4996C85.7004 52.7996 85.6004 53.0996 85.5004 53.3996H79.3004C78.8004 53.3996 78.4004 53.7996 78.4004 54.2996C78.4004 54.7996 78.8004 55.1996 79.3004 55.1996H84.4004L77.4004 62.1996V57.0996C77.4004 56.5996 77.0004 56.1996 76.5004 56.1996C76.0004 56.1996 75.6004 56.5996 75.6004 57.0996V63.2996C75.3004 63.3996 74.9004 63.4996 74.7004 63.4996H56.3004C56.0004 63.4996 55.7004 63.3996 55.4004 63.2996V57.0996C55.4004 56.5996 55.0004 56.1996 54.5004 56.1996C54.0004 56.1996 53.6004 56.5996 53.6004 57.0996V62.1996L46.6004 55.1996H51.7004C52.2004 55.1996 52.6004 54.7996 52.6004 54.2996C52.6004 53.7996 52.2004 53.3996 51.7004 53.3996H45.5004C45.4004 53.0996 45.3004 52.7996 45.3004 52.4996V19.4996C45.3004 19.1996 45.4004 18.8996 45.5004 18.5996H51.7004C52.2004 18.5996 52.6004 18.1996 52.6004 17.6996C52.6004 17.1996 52.2004 16.7996 51.7004 16.7996H46.6004L53.6004 9.79961V14.8996C53.6004 15.3996 54.0004 15.7996 54.5004 15.7996C54.7004 15.7996 54.9004 15.6996 55.1004 15.5996C55.3004 15.3996 55.4004 15.1996 55.4004 14.8996V8.69961C55.7004 8.59961 56.1004 8.49961 56.3004 8.49961H74.6004C74.9004 8.49961 75.2004 8.59961 75.5004 8.69961V14.8996C75.5004 15.3996 75.9004 15.7996 76.4004 15.7996C76.9004 15.7996 77.3004 15.3996 77.3004 14.8996V9.79961L84.3004 16.7996H79.2004C78.7004 16.7996 78.3004 17.1996 78.3004 17.6996C78.3004 17.8996 78.4004 18.0996 78.5004 18.1996C78.7004 18.3996 78.9004 18.5996 79.3004 18.5996H85.5004C85.6004 18.8996 85.7004 19.2996 85.7004 19.4996V52.4996Z" fill="#404041"/>
<path fill-rule="evenodd" clip-rule="evenodd" d="M72.7996 16.7988H58.1996C55.6996 16.7988 53.5996 18.7988 53.5996 21.3988V50.6988C53.5996 53.1988 55.6996 55.2988 58.1996 55.2988H72.8996C75.3996 55.2988 77.4996 53.1988 77.4996 50.6988V21.2988C77.3996 18.7988 75.3996 16.7988 72.7996 16.7988ZM75.5996 50.6988C75.5996 52.1988 74.3996 53.4988 72.7996 53.4988H58.1996C56.6996 53.4988 55.3996 52.2988 55.3996 50.6988V21.2988C55.3996 19.7988 56.5996 18.4988 58.1996 18.4988H72.8996C74.3996 18.4988 75.6996 19.6988 75.6996 21.2988V50.6988H75.5996Z" fill="#404041"/>
</svg>
