<svg width="131" height="72" viewBox="0 0 131 72" fill="none" xmlns="http://www.w3.org/2000/svg">
<path fill-rule="evenodd" clip-rule="evenodd" d="M85.5992 14L82.9992 20.7L81.6992 20.2L84.2992 13.5L85.5992 14Z" fill="#404041"/>
<path fill-rule="evenodd" clip-rule="evenodd" d="M76.2004 11.1984L74.9004 18.2984L73.4004 17.9984L74.8004 10.8984L76.2004 11.1984Z" fill="#404041"/>
<path d="M66.2008 10.1992H64.8008V17.3992H66.2008V10.1992Z" fill="#404041"/>
<path fill-rule="evenodd" clip-rule="evenodd" d="M57.8 17.9984L56.4 18.2984L55 11.1984L56.5 10.8984L57.8 17.9984Z" fill="#404041"/>
<path fill-rule="evenodd" clip-rule="evenodd" d="M49.5996 20.2L48.1996 20.7L45.5996 14L46.9996 13.5L49.5996 20.2Z" fill="#404041"/>
<path fill-rule="evenodd" clip-rule="evenodd" d="M89.4 36L89.2 35.8L87 33L84.7 30.1C82.9 27.9 81.1 25.6 79.3 23.3C79.3 23.2 79.2 23.2 79.2 23.2C79.2 23.1 79.1 23.1 79 23.1C78.9 23 78.7 23 78.5 23C73.3 23 68 23 62.8 23H52.4C52.1 23 51.9 23.1 51.7 23.3C51.2 23.9 50.7 24.5 50.3 25.1C49.8 25.8 49.2 26.5 48.7 27.1L47.6 28.5L41.5 36.1L65.5 61.8L89.4 36ZM78.7 24.5L72.3 33.3L65.9 24.5H78.7ZM72.2 35.5H58.8L65.5 26.4L72.2 35.5ZM65.2 24.5L58.8 33.3L52.3 24.5H65.2ZM51.5 25.9L58.6 35.5H43.9L51.5 25.9ZM63.1 57.1L62.9 56.9L44.4 37.1L45.3 37C45.4 37 45.5 37 45.6 37H51.4C52.4 37 53.5 37 54.5 37H57.4C57.8 37 58.2 37.1 58.4 37.7C59.7 42.4 61 47 62.3 51.7L63.5 56.2C63.5 56.2 63.5 56.3 63.5 56.4V56.5V56.8L63.1 57.1ZM65.2 56.9L59.7 37.1H71.2L65.7 56.9H65.2ZM67.8 57.2L67.3 56.9L72.6 37.8C72.7 37.6 72.8 37.1 73.4 37.1C75.7 37.1 78 37.1 80.4 37.1H86.6L67.8 57.2ZM72.4 35.5L79.5 25.9L87.2 35.5H72.4Z" fill="#404041"/>
</svg>
