<svg width="131" height="72" viewBox="0 0 131 72" fill="none" xmlns="http://www.w3.org/2000/svg">
<path fill-rule="evenodd" clip-rule="evenodd" d="M86.8999 24.8008C85.2999 23.9008 83.2999 24.1008 81.8999 25.3008C81.2999 25.8008 80.7999 26.3008 80.2999 26.9008C80.0999 27.1008 79.7999 27.4008 79.5999 27.6008C79.3999 27.8008 79.2999 27.9008 79.0999 28.1008C78.1999 25.2008 76.3999 23.4008 73.4999 22.5008C74.3999 21.7008 75.0999 20.9008 75.8999 20.1008C77.3999 18.6008 77.7999 16.5008 76.8999 14.7008C75.8999 12.9008 74.0999 11.5008 71.6999 11.9008C69.8999 12.2008 68.4999 13.6008 68.0999 15.5008C67.7999 17.1008 68.5999 19.1008 69.7999 19.9008L71.2999 18.5008C71.1999 18.4008 71.1999 18.4008 71.0999 18.3008C70.9999 18.1008 70.7999 18.0008 70.6999 17.9008C69.5999 16.5008 70.1999 14.5008 71.8999 14.1008C73.0999 13.8008 74.1999 14.4008 74.8999 15.5008C75.4999 16.5008 75.2999 17.6008 74.4999 18.5008C73.2999 19.7008 72.0999 20.9008 70.9999 22.0008C70.8999 22.1008 70.6999 22.2008 70.4999 22.3008C70.3999 22.3008 70.2999 22.4008 70.1999 22.4008C67.7999 22.9008 65.9999 24.3008 64.8999 26.5008C64.6999 26.8008 64.5999 27.2008 64.4999 27.5008C64.4999 27.7008 64.3999 27.8008 64.2999 28.0008H63.1999C62.2999 28.0008 61.3999 28.0008 60.5999 28.0008C60.1999 28.0008 59.8999 28.0008 59.5999 27.9008C59.4999 27.9008 59.3999 27.8008 59.2999 27.7008C55.2999 24.4008 49.1999 24.3008 44.9999 27.3008C40.6999 30.4008 40.1999 36.0008 43.8999 39.6008C44.5999 40.2008 45.2999 40.8008 46.0999 41.3008C46.4999 41.6008 46.7999 41.8008 47.1999 42.1008C46.4999 43.6008 46.2999 45.3008 46.3999 47.1008C46.4999 48.8008 46.5999 50.5008 46.7999 52.2008C46.7999 52.7008 46.8999 53.1008 46.8999 53.6008C46.9999 54.3008 47.3999 54.6008 47.9999 54.7008C48.2999 54.7008 48.5999 54.8008 48.8999 54.8008C49.3999 54.9008 49.8999 55.0008 50.4999 55.0008C53.5999 55.3008 56.5999 55.5008 59.5999 54.3008C59.7999 54.5008 59.8999 54.8008 59.9999 55.0008C60.2999 55.5008 60.5999 56.0008 60.9999 56.5008C64.3999 61.1008 70.2999 61.2008 73.8999 56.9008C77.0999 53.1008 77.2999 47.0008 74.3999 42.9008C73.6999 42.0008 73.3999 41.2008 73.5999 40.0008C73.6999 39.4008 73.6999 38.7008 73.6999 38.0008C73.6999 37.7008 73.6999 37.4008 73.6999 37.1008C76.8999 36.0008 78.2999 34.4008 79.1999 31.1008C79.2999 30.8008 79.4999 30.6008 79.6999 30.4008C80.7999 29.3008 81.7999 28.2008 82.8999 27.2008C84.2999 25.8008 85.6999 25.9008 86.9999 27.3008C87.8999 28.3008 87.8999 29.7008 86.9999 30.6008C86.0999 31.5008 84.5999 31.5008 83.5999 30.7008C83.3999 30.5008 83.1999 30.4008 83.0999 30.2008L81.5999 31.6008C82.6999 33.1008 84.5999 33.8008 86.3999 33.3008C88.1999 32.8008 89.4999 31.3008 89.6999 29.5008C89.7999 27.7008 88.6999 25.8008 86.8999 24.8008ZM71.4999 40.0008L70.8999 39.8008C70.0999 39.6008 69.3999 39.3008 68.5999 39.1008C68.4999 39.1008 68.3999 39.1008 68.3999 39.1008C67.2999 39.3008 66.5999 38.7008 65.8999 38.0008C64.8999 36.9008 63.7999 35.9008 62.7999 34.8008C62.5999 34.6008 62.4999 34.3008 62.4999 34.1008C62.4999 32.7008 62.1999 31.5008 61.4999 30.3008C61.4999 30.2008 61.4999 30.2008 61.4999 30.1008C61.4999 30.1008 61.4999 30.1008 61.4999 30.0008C67.3999 29.5008 72.0999 34.3008 71.4999 40.0008ZM45.1999 38.0008C42.8999 35.5008 42.9999 32.2008 45.3999 29.7008C48.6999 26.4008 55.0999 26.4008 58.4999 29.7008C61.1999 32.4008 60.9999 36.3008 57.9999 38.7008C56.3999 40.0008 54.2999 40.7008 51.2999 40.7008C49.2999 40.7008 46.9999 39.9008 45.1999 38.0008ZM58.4999 52.5008C57.7999 52.6008 57.0999 52.8008 56.4999 52.9008C55.9999 53.0008 55.4999 53.1008 54.9999 53.1008C54.6999 53.1008 54.3999 53.1008 54.0999 53.1008C53.8999 53.1008 53.5999 53.1008 53.2999 53.1008C52.5999 53.0008 51.8999 53.0008 51.1999 52.9008C50.5999 52.8008 49.8999 52.8008 49.2999 52.7008C49.0999 52.7008 48.8999 52.5008 48.7999 52.4008C48.3999 49.5008 48.0999 46.5008 48.7999 43.6008C48.8999 43.4008 48.8999 43.1008 48.9999 42.9008C49.0999 42.7008 49.2999 42.5008 49.3999 42.6008C49.5999 42.6008 49.7999 42.8008 49.8999 43.0008C50.3999 44.5008 50.9999 45.9008 51.9999 47.2008C53.5999 49.3008 55.6999 50.6008 58.0999 51.4008C58.1999 51.4008 58.2999 51.4008 58.2999 51.5008L58.3999 51.6008C58.5999 51.7008 58.6999 51.8008 58.6999 52.0008C58.8999 52.2008 58.5999 52.5008 58.4999 52.5008ZM58.4999 49.3008C55.3999 48.2008 53.1999 46.1008 52.1999 42.9008L57.0999 41.8008C57.5999 42.9008 58.4999 43.8008 59.6999 44.3008L58.4999 49.3008ZM58.9999 40.8008L61.8999 37.2008L64.2999 39.6008L60.6999 42.5008C59.8999 42.3008 59.2999 41.6008 58.9999 40.8008ZM74.2999 50.3008C74.2999 52.2008 73.4999 54.5008 71.5999 56.3008C68.9999 58.8008 65.3999 58.6008 62.9999 55.9008C61.7999 54.5008 61.0999 52.9008 60.8999 51.1008C60.5999 48.4008 60.9999 45.9008 62.7999 43.7008C65.3999 40.4008 69.6999 40.5008 72.2999 43.7008C73.5999 45.3008 74.2999 47.3008 74.2999 50.3008ZM72.8999 35.2008C71.6999 32.0008 69.4999 29.8008 66.3999 28.6008C66.6999 26.2008 69.0999 24.4008 71.6999 24.4008C74.4999 24.4008 76.7999 26.6008 77.0999 29.5008C77.2999 32.1008 75.4999 34.6008 72.8999 35.2008Z" fill="#404041"/>
</svg>
