<svg width="131" height="72" viewBox="0 0 131 72" fill="none" xmlns="http://www.w3.org/2000/svg">
<path fill-rule="evenodd" clip-rule="evenodd" d="M93.599 30.8999C92.199 23.4999 88.399 17.4999 82.299 12.9999C78.499 10.0999 74.199 8.39991 69.399 7.79991C60.499 6.69991 52.699 9.09992 46.099 15.0999C41.299 19.4999 38.399 24.8999 37.299 31.2999C34.899 46.1999 44.199 59.8999 58.199 63.5999C58.599 63.6999 58.999 63.7999 59.399 63.8999C59.999 63.9999 60.699 64.0999 61.399 64.1999C61.899 64.2999 62.399 64.3999 62.899 64.3999C62.999 64.3999 62.999 64.3999 63.099 64.3999H63.199H63.399H67.399L67.999 64.2999C68.499 64.1999 68.899 64.1999 69.299 64.0999C74.499 63.2999 79.199 61.2999 83.199 57.9999C88.599 53.4999 92.099 47.7999 93.299 40.8999C93.499 39.8999 93.599 38.8999 93.799 37.7999V33.7999C93.899 32.9999 93.699 31.8999 93.599 30.8999ZM65.499 62.6999C50.799 62.6999 38.799 50.6999 38.799 35.9999C38.799 21.2999 50.799 9.29991 65.499 9.29991C80.199 9.29991 92.199 21.2999 92.199 35.9999C92.199 50.6999 80.199 62.6999 65.499 62.6999Z" fill="#404041"/>
<path fill-rule="evenodd" clip-rule="evenodd" d="M65.4992 16.3008L47.6992 48.5008H83.2992L65.4992 16.3008ZM65.4992 20.0008L80.2992 46.7008H50.6992L65.4992 20.0008Z" fill="#404041"/>
<path fill-rule="evenodd" clip-rule="evenodd" d="M65.4984 30.8008L59.3984 41.9008H71.5984L65.4984 30.8008ZM65.4984 34.5008L68.5984 40.1008H62.3984L65.4984 34.5008Z" fill="#404041"/>
</svg>
