<svg width="131" height="72" viewBox="0 0 131 72" fill="none" xmlns="http://www.w3.org/2000/svg">
<path fill-rule="evenodd" clip-rule="evenodd" d="M85.6995 20.8005C82.9995 15.2005 79.1995 10.8005 73.4995 8.30052C66.6995 5.30052 60.1995 6.10052 53.9995 10.2005C48.7995 13.8005 45.4995 18.9005 43.5995 24.9005C41.8995 30.0005 41.5995 35.3005 42.3995 40.6005C43.2995 46.5005 45.4995 51.9005 49.3995 56.4005C52.4995 60.1005 56.3995 62.7005 61.0995 63.8005C61.9995 64.0005 62.9995 64.2005 63.8995 64.3005H67.1995C68.0995 64.1005 69.0995 64.0005 69.9995 63.8005C74.1995 62.8005 77.6995 60.6005 80.6995 57.5005C85.1995 52.8005 87.6995 47.0005 88.6995 40.5005C89.5995 33.8005 88.6995 27.1005 85.6995 20.8005ZM66.7995 9.20052C72.8995 9.80052 77.4995 13.0005 81.0995 17.9005L75.8995 23.3005C74.7995 21.5005 73.5995 20.1005 71.9995 18.9005C70.3995 17.7005 68.6995 17.0005 66.7995 16.7005V9.20052ZM64.1995 9.20052V16.7005C60.0995 17.4005 57.3995 19.8005 55.1995 23.1005L49.9995 17.8005C53.5995 13.0005 58.0995 9.80052 64.1995 9.20052ZM48.4995 20.0005C49.2995 20.9005 50.1995 21.7005 50.9995 22.5005C51.8995 23.5005 52.7995 24.4005 53.6995 25.3005C53.7995 25.4005 53.7995 25.7005 53.6995 25.9005C52.9995 27.6005 52.4995 29.4005 52.1995 31.2005C52.0995 31.9005 51.9995 32.5005 51.8995 33.2005C51.8995 33.5005 51.7995 33.8005 51.7995 34.1005H44.4995C44.7995 29.2005 45.9995 24.5005 48.4995 20.0005ZM48.4995 51.0005C45.9995 46.5005 44.6995 41.8005 44.4995 36.8005H51.8995C51.9995 39.4005 52.3995 41.8005 53.3995 44.2005C53.8995 45.3005 53.6995 45.9005 52.8995 46.6005C51.7995 47.6005 50.7995 48.6005 49.7995 49.7005C49.3995 50.2005 48.9995 50.6005 48.4995 51.0005ZM64.1995 61.9005C58.0995 61.3005 53.4995 58.1005 49.8995 53.3005L55.0995 47.9005C57.2995 51.2005 60.0995 53.7005 64.0995 54.3005L64.1995 61.9005ZM59.4995 49.3005C57.9995 47.9005 56.9995 46.2005 56.1995 44.4005C54.0995 39.4005 53.8995 34.2005 55.3995 28.9005C56.2995 25.9005 57.7995 23.2005 60.1995 21.2005C62.4995 19.3005 65.0995 18.6005 67.9995 19.6005C70.0995 20.3005 71.6995 21.7005 72.9995 23.4005C75.5995 27.0005 76.5995 31.1005 76.6995 36.3005C76.6995 36.5005 76.5995 36.8005 76.5995 37.2005C76.4995 38.1005 76.3995 39.4005 76.0995 40.6005C75.3995 43.8005 73.9995 46.8005 71.6995 49.1005C67.9995 52.7005 63.1995 52.8005 59.4995 49.3005ZM66.7995 61.9005V54.4005C70.8995 53.7005 73.6995 51.3005 75.7995 48.0005L80.9995 53.3005C77.3995 58.1005 72.8995 61.3005 66.7995 61.9005ZM82.4995 51.0005C81.6995 50.2005 80.9995 49.5005 80.2995 48.7005C79.2995 47.7005 78.2995 46.7005 77.2995 45.7005C77.1995 45.7005 77.1995 45.6005 77.1995 45.5005C77.1995 45.4005 77.1995 45.2005 77.1995 45.1005C77.2995 44.6005 77.4995 44.2005 77.6995 43.7005C77.9995 42.9005 78.1995 42.1005 78.3995 41.3005C78.6995 39.8005 78.8995 38.3005 79.1995 36.8005H86.4995C86.1995 41.9005 84.9995 46.6005 82.4995 51.0005ZM79.0995 34.2005C78.6995 30.1005 78.4995 29.3005 77.1995 25.9005C77.1995 25.7005 77.1995 25.5005 77.2995 25.3005C77.6995 24.8005 78.0995 24.4005 78.5995 24.0005C78.7995 23.8005 78.8995 23.7005 79.0995 23.5005L82.5995 20.0005C85.0995 24.4005 86.3995 29.1005 86.5995 34.2005H79.0995Z" fill="#404041"/>
</svg>
