<svg width="131" height="72" viewBox="0 0 131 72" fill="none" xmlns="http://www.w3.org/2000/svg">
<path fill-rule="evenodd" clip-rule="evenodd" d="M94.6 25.6C92.9 22.7 91.2 19.9 89.5 17C88 14.5 86.5 12 85 9.5C84.6 8.9 84.1 8.5 83.3 8.5C77.5 8.5 71.6 8.5 65.7 8.5C59.6 8.5 53.6 8.5 47.5 8.5C46.7 8.5 46.2 8.8 45.8 9.5C45.3 10.3 44.8 11.1 44.4 11.9C44.1 12.4 43.8 12.9 43.5 13.4L38.4 22.1L36 26.2V27C36.2 27.3 36.4 27.6 36.6 27.9C39.7 31.8 42.8 35.7 45.9 39.6C51.9 47.2 58 54.8 64 62.5C65 63.7 66 63.7 67 62.5C67.6 61.8 68.1 61.1 68.7 60.4L69.4 59.5C77.7 49 86.1 38.5 94.5 27.9C95.1 27.1 95.2 26.5 94.6 25.6ZM40.7 25C40.6 24.9 40.7 24.9 40.7 24.8C40.8 24.7 40.8 24.6 40.9 24.5C43.3 20.5 45.7 16.4 48.1 12.4C48.3 12.1 48.5 11.9 48.9 11.9C51.9 11.9 54.9 11.9 57.9 11.9H58.5C58.5 12 58.4 12.1 58.4 12.2C58.4 12.3 58.3 12.4 58.3 12.5L56.2 17.8C55.3 20.1 54.4 22.4 53.5 24.7C53.5 24.8 53.4 24.9 53.4 25C53.3 25.1 53.2 25.2 52.9 25.2C49.9 25.2 46.9 25.2 43.8 25.2H40.8C40.8 25 40.8 25 40.7 25ZM41 28.3H42.5C45.9 28.3 49.2 28.3 52.6 28.3C53.1 28.3 53.3 28.5 53.4 28.9C55.9 37 58.5 45.1 61 53.1C61 53.2 61.1 53.3 61.1 53.5L61.2 53.8L41 28.3ZM65.6 56.2H65.4L56.7 28.4H74.3L65.6 56.2ZM69.9 53.7L72.2 46.1L73.2 43C74.7 38.3 76.2 33.6 77.6 28.8C77.7 28.5 77.8 28.3 78.2 28.3C82 28.3 85.7 28.3 89.4 28.3C89.5 28.3 89.7 28.3 89.9 28.3L69.9 53.7ZM90.2 24.9C90.1 24.9 90 24.9 89.9 24.9H78.1C77.8 24.9 77.6 24.9 77.4 24.5C76.2 21.4 75 18.3 73.8 15.2L72.6 12.1C72.6 12 72.5 11.9 72.5 11.7C72.6 11.7 72.6 11.7 72.7 11.7C72.8 11.7 72.9 11.7 73 11.7H74.4C77 11.7 79.6 11.7 82.2 11.7C82.3 11.7 82.5 11.7 82.6 11.8C82.7 11.9 82.8 11.9 82.8 12C85.1 15.8 87.4 19.7 89.7 23.5L90.3 24.6V24.7V24.8C90.3 24.9 90.3 24.9 90.2 24.9Z" fill="#404041"/>
</svg>
