<svg width="131" height="72" viewBox="0 0 131 72" fill="none" xmlns="http://www.w3.org/2000/svg">
<path d="M55.6005 49.8004C55.6005 50.3004 55.2005 50.7004 54.7005 50.7004C54.2005 50.7004 53.8005 50.3004 53.8005 49.8004C53.7005 49.3004 54.1005 48.9004 54.7005 48.9004C55.2005 48.9004 55.6005 49.3004 55.6005 49.8004Z" fill="#404041"/>
<path d="M54.7012 45.9004C52.4012 45.9004 50.6012 47.7004 50.7012 49.9004C50.7012 52.1004 52.5012 53.9004 54.7012 53.9004C56.9012 53.9004 58.7012 52.1004 58.7012 49.9004C58.7012 47.7004 56.9012 45.9004 54.7012 45.9004ZM54.7012 52.3004C53.3012 52.3004 52.1012 51.2004 52.2012 49.8004C52.2012 48.4004 53.3012 47.3004 54.7012 47.3004C56.1012 47.3004 57.2012 48.4004 57.2012 49.8004C57.2012 51.2004 56.1012 52.3004 54.7012 52.3004Z" fill="#404041"/>
<path d="M47.0004 45.1L46.4004 42.8C46.3004 42.6 46.2004 42.5 46.1004 42.4C45.9004 42.3 45.8004 42.3 45.7004 42.2L43.4004 42.8C43.2004 42.9 43.1004 43 43.0004 43.1C42.9004 43.3 42.9004 43.4 42.9004 43.6L43.5004 45.9C43.6004 46.1 43.7004 46.2 43.8004 46.3C44.0004 46.4 44.1004 46.4 44.3004 46.4L46.6004 45.8C46.9004 45.8 47.1004 45.4 47.0004 45.1ZM44.4004 45.3L44.0004 43.8L45.5004 43.5L45.9004 44.9L44.4004 45.3ZM47.0004 45.1L46.4004 42.8C46.3004 42.6 46.2004 42.5 46.1004 42.4C45.9004 42.3 45.8004 42.3 45.7004 42.2L43.4004 42.8C43.2004 42.9 43.1004 43 43.0004 43.1C42.9004 43.3 42.9004 43.4 42.9004 43.6L43.5004 45.9C43.6004 46.1 43.7004 46.2 43.8004 46.3C44.0004 46.4 44.1004 46.4 44.3004 46.4L46.6004 45.8C46.9004 45.8 47.1004 45.4 47.0004 45.1ZM44.4004 45.3L44.0004 43.8L45.5004 43.5L45.9004 44.9L44.4004 45.3ZM47.0004 45.1L46.4004 42.8C46.3004 42.6 46.2004 42.5 46.1004 42.4C45.9004 42.3 45.8004 42.3 45.7004 42.2L43.4004 42.8C43.2004 42.9 43.1004 43 43.0004 43.1C42.9004 43.3 42.9004 43.4 42.9004 43.6L43.5004 45.9C43.6004 46.1 43.7004 46.2 43.8004 46.3C44.0004 46.4 44.1004 46.4 44.3004 46.4L46.6004 45.8C46.9004 45.8 47.1004 45.4 47.0004 45.1ZM44.4004 45.3L44.0004 43.8L45.5004 43.5L45.9004 44.9L44.4004 45.3ZM47.0004 45.1L46.4004 42.8C46.3004 42.6 46.2004 42.5 46.1004 42.4C45.9004 42.3 45.8004 42.3 45.7004 42.2L43.4004 42.8C43.2004 42.9 43.1004 43 43.0004 43.1C42.9004 43.3 42.9004 43.4 42.9004 43.6L43.5004 45.9C43.6004 46.1 43.7004 46.2 43.8004 46.3C44.0004 46.4 44.1004 46.4 44.3004 46.4L46.6004 45.8C46.9004 45.8 47.1004 45.4 47.0004 45.1ZM44.4004 45.3L44.0004 43.8L45.5004 43.5L45.9004 44.9L44.4004 45.3ZM46.5004 53.9L44.2004 53.3C44.0004 53.3 43.8004 53.3 43.7004 53.4C43.5004 53.5 43.4004 53.6 43.4004 53.8L42.8004 56.1C42.8004 56.3 42.8004 56.5 42.9004 56.6C43.0004 56.8 43.1004 56.9 43.3004 56.9L45.6004 57.5C45.8004 57.5 46.0004 57.5 46.1004 57.4C46.3004 57.3 46.4004 57.2 46.4004 57L47.0004 54.7C47.1004 54.4 46.9004 54 46.5004 53.9ZM45.5004 56.3L44.0004 55.9L44.4004 54.5L45.9004 54.9L45.5004 56.3ZM47.0004 45.1L46.4004 42.8C46.3004 42.6 46.2004 42.5 46.1004 42.4C45.9004 42.3 45.8004 42.3 45.7004 42.2L43.4004 42.8C43.2004 42.9 43.1004 43 43.0004 43.1C42.9004 43.3 42.9004 43.4 42.9004 43.6L43.5004 45.9C43.6004 46.1 43.7004 46.2 43.8004 46.3C44.0004 46.4 44.1004 46.4 44.3004 46.4L46.6004 45.8C46.9004 45.8 47.1004 45.4 47.0004 45.1ZM44.4004 45.3L44.0004 43.8L45.5004 43.5L45.9004 44.9L44.4004 45.3ZM47.0004 45.1L46.4004 42.8C46.3004 42.6 46.2004 42.5 46.1004 42.4C45.9004 42.3 45.8004 42.3 45.7004 42.2L43.4004 42.8C43.2004 42.9 43.1004 43 43.0004 43.1C42.9004 43.3 42.9004 43.4 42.9004 43.6L43.5004 45.9C43.6004 46.1 43.7004 46.2 43.8004 46.3C44.0004 46.4 44.1004 46.4 44.3004 46.4L46.6004 45.8C46.9004 45.8 47.1004 45.4 47.0004 45.1ZM44.4004 45.3L44.0004 43.8L45.5004 43.5L45.9004 44.9L44.4004 45.3ZM46.5004 53.9L44.2004 53.3C44.0004 53.3 43.8004 53.3 43.7004 53.4C43.5004 53.5 43.4004 53.6 43.4004 53.8L42.8004 56.1C42.8004 56.3 42.8004 56.5 42.9004 56.6C43.0004 56.8 43.1004 56.9 43.3004 56.9L45.6004 57.5C45.8004 57.5 46.0004 57.5 46.1004 57.4C46.3004 57.3 46.4004 57.2 46.4004 57L47.0004 54.7C47.1004 54.4 46.9004 54 46.5004 53.9ZM45.5004 56.3L44.0004 55.9L44.4004 54.5L45.9004 54.9L45.5004 56.3ZM46.5004 53.9L44.2004 53.3C44.0004 53.3 43.8004 53.3 43.7004 53.4C43.5004 53.5 43.4004 53.6 43.4004 53.8L42.8004 56.1C42.8004 56.3 42.8004 56.5 42.9004 56.6C43.0004 56.8 43.1004 56.9 43.3004 56.9L45.6004 57.5C45.8004 57.5 46.0004 57.5 46.1004 57.4C46.3004 57.3 46.4004 57.2 46.4004 57L47.0004 54.7C47.1004 54.4 46.9004 54 46.5004 53.9ZM45.5004 56.3L44.0004 55.9L44.4004 54.5L45.9004 54.9L45.5004 56.3ZM47.0004 45.1L46.4004 42.8C46.3004 42.6 46.2004 42.5 46.1004 42.4C45.9004 42.3 45.8004 42.3 45.7004 42.2L43.4004 42.8C43.2004 42.9 43.1004 43 43.0004 43.1C42.9004 43.3 42.9004 43.4 42.9004 43.6L43.5004 45.9C43.6004 46.1 43.7004 46.2 43.8004 46.3C44.0004 46.4 44.1004 46.4 44.3004 46.4L46.6004 45.8C46.9004 45.8 47.1004 45.4 47.0004 45.1ZM44.4004 45.3L44.0004 43.8L45.5004 43.5L45.9004 44.9L44.4004 45.3ZM56.8004 60.5L55.1004 58.8C54.9004 58.5 54.5004 58.5 54.3004 58.8L52.6004 60.5C52.5004 60.6 52.4004 60.7 52.4004 60.9C52.4004 61 52.5004 61.2 52.6004 61.3L54.3004 63C54.4004 63.1 54.5004 63.2 54.7004 63.2C54.8004 63.2 55.0004 63.1 55.1004 63L56.8004 61.3C56.9004 61.2 57.0004 61.1 57.0004 60.9C57.0004 60.8 56.9004 60.6 56.8004 60.5ZM54.7004 61.9L53.6004 60.9L54.7004 59.8L55.7004 60.9L54.7004 61.9ZM47.0004 45.1L46.4004 42.8C46.3004 42.6 46.2004 42.5 46.1004 42.4C45.9004 42.3 45.8004 42.3 45.7004 42.2L43.4004 42.8C43.2004 42.9 43.1004 43 43.0004 43.1C42.9004 43.3 42.9004 43.4 42.9004 43.6L43.5004 45.9C43.6004 46.1 43.7004 46.2 43.8004 46.3C44.0004 46.4 44.1004 46.4 44.3004 46.4L46.6004 45.8C46.9004 45.8 47.1004 45.4 47.0004 45.1ZM44.4004 45.3L44.0004 43.8L45.5004 43.5L45.9004 44.9L44.4004 45.3ZM46.5004 53.9L44.2004 53.3C44.0004 53.3 43.8004 53.3 43.7004 53.4C43.5004 53.5 43.4004 53.6 43.4004 53.8L42.8004 56.1C42.8004 56.3 42.8004 56.5 42.9004 56.6C43.0004 56.8 43.1004 56.9 43.3004 56.9L45.6004 57.5C45.8004 57.5 46.0004 57.5 46.1004 57.4C46.3004 57.3 46.4004 57.2 46.4004 57L47.0004 54.7C47.1004 54.4 46.9004 54 46.5004 53.9ZM45.5004 56.3L44.0004 55.9L44.4004 54.5L45.9004 54.9L45.5004 56.3ZM56.8004 60.5L55.1004 58.8C54.9004 58.5 54.5004 58.5 54.3004 58.8L52.6004 60.5C52.5004 60.6 52.4004 60.7 52.4004 60.9C52.4004 61 52.5004 61.2 52.6004 61.3L54.3004 63C54.4004 63.1 54.5004 63.2 54.7004 63.2C54.8004 63.2 55.0004 63.1 55.1004 63L56.8004 61.3C56.9004 61.2 57.0004 61.1 57.0004 60.9C57.0004 60.8 56.9004 60.6 56.8004 60.5ZM54.7004 61.9L53.6004 60.9L54.7004 59.8L55.7004 60.9L54.7004 61.9ZM46.5004 53.9L44.2004 53.3C44.0004 53.3 43.8004 53.3 43.7004 53.4C43.5004 53.5 43.4004 53.6 43.4004 53.8L42.8004 56.1C42.8004 56.3 42.8004 56.5 42.9004 56.6C43.0004 56.8 43.1004 56.9 43.3004 56.9L45.6004 57.5C45.8004 57.5 46.0004 57.5 46.1004 57.4C46.3004 57.3 46.4004 57.2 46.4004 57L47.0004 54.7C47.1004 54.4 46.9004 54 46.5004 53.9ZM45.5004 56.3L44.0004 55.9L44.4004 54.5L45.9004 54.9L45.5004 56.3ZM47.0004 45.1L46.4004 42.8C46.3004 42.6 46.2004 42.5 46.1004 42.4C45.9004 42.3 45.8004 42.3 45.7004 42.2L43.4004 42.8C43.2004 42.9 43.1004 43 43.0004 43.1C42.9004 43.3 42.9004 43.4 42.9004 43.6L43.5004 45.9C43.6004 46.1 43.7004 46.2 43.8004 46.3C44.0004 46.4 44.1004 46.4 44.3004 46.4L46.6004 45.8C46.9004 45.8 47.1004 45.4 47.0004 45.1ZM44.4004 45.3L44.0004 43.8L45.5004 43.5L45.9004 44.9L44.4004 45.3ZM56.8004 60.5L55.1004 58.8C54.9004 58.5 54.5004 58.5 54.3004 58.8L52.6004 60.5C52.5004 60.6 52.4004 60.7 52.4004 60.9C52.4004 61 52.5004 61.2 52.6004 61.3L54.3004 63C54.4004 63.1 54.5004 63.2 54.7004 63.2C54.8004 63.2 55.0004 63.1 55.1004 63L56.8004 61.3C56.9004 61.2 57.0004 61.1 57.0004 60.9C57.0004 60.8 56.9004 60.6 56.8004 60.5ZM54.7004 61.9L53.6004 60.9L54.7004 59.8L55.7004 60.9L54.7004 61.9ZM66.5003 56.1L65.9004 53.8C65.8004 53.6 65.7004 53.5 65.6004 53.4C65.4004 53.3 65.3004 53.3 65.1004 53.3L62.8004 53.9C62.6004 54 62.5004 54.1 62.4004 54.2C62.3004 54.3 62.3004 54.5 62.4004 54.6L63.0004 56.9C63.1004 57.1 63.2004 57.2 63.3004 57.3C63.5004 57.4 63.6004 57.4 63.8004 57.4L66.1004 56.8C66.4004 56.7 66.6003 56.4 66.5003 56.1ZM63.9004 56.2L63.5004 54.8L64.9004 54.4L65.3004 55.9L63.9004 56.2ZM47.0004 45.1L46.4004 42.8C46.3004 42.6 46.2004 42.5 46.1004 42.4C45.9004 42.3 45.8004 42.3 45.7004 42.2L43.4004 42.8C43.2004 42.9 43.1004 43 43.0004 43.1C42.9004 43.3 42.9004 43.4 42.9004 43.6L43.5004 45.9C43.6004 46.1 43.7004 46.2 43.8004 46.3C44.0004 46.4 44.1004 46.4 44.3004 46.4L46.6004 45.8C46.9004 45.8 47.1004 45.4 47.0004 45.1ZM44.4004 45.3L44.0004 43.8L45.5004 43.5L45.9004 44.9L44.4004 45.3ZM46.5004 53.9L44.2004 53.3C44.0004 53.3 43.8004 53.3 43.7004 53.4C43.5004 53.5 43.4004 53.6 43.4004 53.8L42.8004 56.1C42.8004 56.3 42.8004 56.5 42.9004 56.6C43.0004 56.8 43.1004 56.9 43.3004 56.9L45.6004 57.5C45.8004 57.5 46.0004 57.5 46.1004 57.4C46.3004 57.3 46.4004 57.2 46.4004 57L47.0004 54.7C47.1004 54.4 46.9004 54 46.5004 53.9ZM45.5004 56.3L44.0004 55.9L44.4004 54.5L45.9004 54.9L45.5004 56.3ZM66.5003 56.1L65.9004 53.8C65.8004 53.6 65.7004 53.5 65.6004 53.4C65.4004 53.3 65.3004 53.3 65.1004 53.3L62.8004 53.9C62.6004 54 62.5004 54.1 62.4004 54.2C62.3004 54.3 62.3004 54.5 62.4004 54.6L63.0004 56.9C63.1004 57.1 63.2004 57.2 63.3004 57.3C63.5004 57.4 63.6004 57.4 63.8004 57.4L66.1004 56.8C66.4004 56.7 66.6003 56.4 66.5003 56.1ZM63.9004 56.2L63.5004 54.8L64.9004 54.4L65.3004 55.9L63.9004 56.2ZM56.8004 60.5L55.1004 58.8C54.9004 58.5 54.5004 58.5 54.3004 58.8L52.6004 60.5C52.5004 60.6 52.4004 60.7 52.4004 60.9C52.4004 61 52.5004 61.2 52.6004 61.3L54.3004 63C54.4004 63.1 54.5004 63.2 54.7004 63.2C54.8004 63.2 55.0004 63.1 55.1004 63L56.8004 61.3C56.9004 61.2 57.0004 61.1 57.0004 60.9C57.0004 60.8 56.9004 60.6 56.8004 60.5ZM54.7004 61.9L53.6004 60.9L54.7004 59.8L55.7004 60.9L54.7004 61.9ZM46.5004 53.9L44.2004 53.3C44.0004 53.3 43.8004 53.3 43.7004 53.4C43.5004 53.5 43.4004 53.6 43.4004 53.8L42.8004 56.1C42.8004 56.3 42.8004 56.5 42.9004 56.6C43.0004 56.8 43.1004 56.9 43.3004 56.9L45.6004 57.5C45.8004 57.5 46.0004 57.5 46.1004 57.4C46.3004 57.3 46.4004 57.2 46.4004 57L47.0004 54.7C47.1004 54.4 46.9004 54 46.5004 53.9ZM45.5004 56.3L44.0004 55.9L44.4004 54.5L45.9004 54.9L45.5004 56.3ZM47.0004 45.1L46.4004 42.8C46.3004 42.6 46.2004 42.5 46.1004 42.4C45.9004 42.3 45.8004 42.3 45.7004 42.2L43.4004 42.8C43.2004 42.9 43.1004 43 43.0004 43.1C42.9004 43.3 42.9004 43.4 42.9004 43.6L43.5004 45.9C43.6004 46.1 43.7004 46.2 43.8004 46.3C44.0004 46.4 44.1004 46.4 44.3004 46.4L46.6004 45.8C46.9004 45.8 47.1004 45.4 47.0004 45.1ZM44.4004 45.3L44.0004 43.8L45.5004 43.5L45.9004 44.9L44.4004 45.3ZM56.8004 60.5L55.1004 58.8C54.9004 58.5 54.5004 58.5 54.3004 58.8L52.6004 60.5C52.5004 60.6 52.4004 60.7 52.4004 60.9C52.4004 61 52.5004 61.2 52.6004 61.3L54.3004 63C54.4004 63.1 54.5004 63.2 54.7004 63.2C54.8004 63.2 55.0004 63.1 55.1004 63L56.8004 61.3C56.9004 61.2 57.0004 61.1 57.0004 60.9C57.0004 60.8 56.9004 60.6 56.8004 60.5ZM54.7004 61.9L53.6004 60.9L54.7004 59.8L55.7004 60.9L54.7004 61.9ZM66.5003 56.1L65.9004 53.8C65.8004 53.6 65.7004 53.5 65.6004 53.4C65.4004 53.3 65.3004 53.3 65.1004 53.3L62.8004 53.9C62.6004 54 62.5004 54.1 62.4004 54.2C62.3004 54.3 62.3004 54.5 62.4004 54.6L63.0004 56.9C63.1004 57.1 63.2004 57.2 63.3004 57.3C63.5004 57.4 63.6004 57.4 63.8004 57.4L66.1004 56.8C66.4004 56.7 66.6003 56.4 66.5003 56.1ZM63.9004 56.2L63.5004 54.8L64.9004 54.4L65.3004 55.9L63.9004 56.2ZM47.0004 45.1L46.4004 42.8C46.3004 42.6 46.2004 42.5 46.1004 42.4C45.9004 42.3 45.8004 42.3 45.7004 42.2L43.4004 42.8C43.2004 42.9 43.1004 43 43.0004 43.1C42.9004 43.3 42.9004 43.4 42.9004 43.6L43.5004 45.9C43.6004 46.1 43.7004 46.2 43.8004 46.3C44.0004 46.4 44.1004 46.4 44.3004 46.4L46.6004 45.8C46.9004 45.8 47.1004 45.4 47.0004 45.1ZM44.4004 45.3L44.0004 43.8L45.5004 43.5L45.9004 44.9L44.4004 45.3ZM46.5004 53.9L44.2004 53.3C44.0004 53.3 43.8004 53.3 43.7004 53.4C43.5004 53.5 43.4004 53.6 43.4004 53.8L42.8004 56.1C42.8004 56.3 42.8004 56.5 42.9004 56.6C43.0004 56.8 43.1004 56.9 43.3004 56.9L45.6004 57.5C45.8004 57.5 46.0004 57.5 46.1004 57.4C46.3004 57.3 46.4004 57.2 46.4004 57L47.0004 54.7C47.1004 54.4 46.9004 54 46.5004 53.9ZM45.5004 56.3L44.0004 55.9L44.4004 54.5L45.9004 54.9L45.5004 56.3ZM66.5003 56.1L65.9004 53.8C65.8004 53.6 65.7004 53.5 65.6004 53.4C65.4004 53.3 65.3004 53.3 65.1004 53.3L62.8004 53.9C62.6004 54 62.5004 54.1 62.4004 54.2C62.3004 54.3 62.3004 54.5 62.4004 54.6L63.0004 56.9C63.1004 57.1 63.2004 57.2 63.3004 57.3C63.5004 57.4 63.6004 57.4 63.8004 57.4L66.1004 56.8C66.4004 56.7 66.6003 56.4 66.5003 56.1ZM63.9004 56.2L63.5004 54.8L64.9004 54.4L65.3004 55.9L63.9004 56.2ZM56.8004 60.5L55.1004 58.8C54.9004 58.5 54.5004 58.5 54.3004 58.8L52.6004 60.5C52.5004 60.6 52.4004 60.7 52.4004 60.9C52.4004 61 52.5004 61.2 52.6004 61.3L54.3004 63C54.4004 63.1 54.5004 63.2 54.7004 63.2C54.8004 63.2 55.0004 63.1 55.1004 63L56.8004 61.3C56.9004 61.2 57.0004 61.1 57.0004 60.9C57.0004 60.8 56.9004 60.6 56.8004 60.5ZM54.7004 61.9L53.6004 60.9L54.7004 59.8L55.7004 60.9L54.7004 61.9ZM46.5004 53.9L44.2004 53.3C44.0004 53.3 43.8004 53.3 43.7004 53.4C43.5004 53.5 43.4004 53.6 43.4004 53.8L42.8004 56.1C42.8004 56.3 42.8004 56.5 42.9004 56.6C43.0004 56.8 43.1004 56.9 43.3004 56.9L45.6004 57.5C45.8004 57.5 46.0004 57.5 46.1004 57.4C46.3004 57.3 46.4004 57.2 46.4004 57L47.0004 54.7C47.1004 54.4 46.9004 54 46.5004 53.9ZM45.5004 56.3L44.0004 55.9L44.4004 54.5L45.9004 54.9L45.5004 56.3ZM47.0004 45.1L46.4004 42.8C46.3004 42.6 46.2004 42.5 46.1004 42.4C45.9004 42.3 45.8004 42.3 45.7004 42.2L43.4004 42.8C43.2004 42.9 43.1004 43 43.0004 43.1C42.9004 43.3 42.9004 43.4 42.9004 43.6L43.5004 45.9C43.6004 46.1 43.7004 46.2 43.8004 46.3C44.0004 46.4 44.1004 46.4 44.3004 46.4L46.6004 45.8C46.9004 45.8 47.1004 45.4 47.0004 45.1ZM44.4004 45.3L44.0004 43.8L45.5004 43.5L45.9004 44.9L44.4004 45.3ZM56.8004 60.5L55.1004 58.8C54.9004 58.5 54.5004 58.5 54.3004 58.8L52.6004 60.5C52.5004 60.6 52.4004 60.7 52.4004 60.9C52.4004 61 52.5004 61.2 52.6004 61.3L54.3004 63C54.4004 63.1 54.5004 63.2 54.7004 63.2C54.8004 63.2 55.0004 63.1 55.1004 63L56.8004 61.3C56.9004 61.2 57.0004 61.1 57.0004 60.9C57.0004 60.8 56.9004 60.6 56.8004 60.5ZM54.7004 61.9L53.6004 60.9L54.7004 59.8L55.7004 60.9L54.7004 61.9ZM66.0003 42.8L63.7004 42.2C63.5004 42.2 63.3004 42.2 63.2004 42.3C63.0004 42.4 62.9004 42.5 62.9004 42.7L62.3004 45V45.4C62.4004 45.6 62.5004 45.7 62.7004 45.7L65.0003 46.3C65.2003 46.3 65.4003 46.3 65.5003 46.2C65.7003 46.1 65.8004 46 65.8004 45.8L66.4004 43.5C66.5004 43.2 66.3003 42.9 66.0003 42.8ZM64.9004 45.2L63.4004 44.9L63.8004 43.4L65.3004 43.8L64.9004 45.2ZM66.5003 56.1L65.9004 53.8C65.8004 53.6 65.7004 53.5 65.6004 53.4C65.4004 53.3 65.3004 53.3 65.1004 53.3L62.8004 53.9C62.6004 54 62.5004 54.1 62.4004 54.2C62.3004 54.3 62.3004 54.5 62.4004 54.6L63.0004 56.9C63.1004 57.1 63.2004 57.2 63.3004 57.3C63.5004 57.4 63.6004 57.4 63.8004 57.4L66.1004 56.8C66.4004 56.7 66.6003 56.4 66.5003 56.1ZM63.9004 56.2L63.5004 54.8L64.9004 54.4L65.3004 55.9L63.9004 56.2ZM47.0004 45.1L46.4004 42.8C46.3004 42.6 46.2004 42.5 46.1004 42.4C45.9004 42.3 45.8004 42.3 45.7004 42.2L43.4004 42.8C43.2004 42.9 43.1004 43 43.0004 43.1C42.9004 43.3 42.9004 43.4 42.9004 43.6L43.5004 45.9C43.6004 46.1 43.7004 46.2 43.8004 46.3C44.0004 46.4 44.1004 46.4 44.3004 46.4L46.6004 45.8C46.9004 45.8 47.1004 45.4 47.0004 45.1ZM44.4004 45.3L44.0004 43.8L45.5004 43.5L45.9004 44.9L44.4004 45.3ZM46.5004 53.9L44.2004 53.3C44.0004 53.3 43.8004 53.3 43.7004 53.4C43.5004 53.5 43.4004 53.6 43.4004 53.8L42.8004 56.1C42.8004 56.3 42.8004 56.5 42.9004 56.6C43.0004 56.8 43.1004 56.9 43.3004 56.9L45.6004 57.5C45.8004 57.5 46.0004 57.5 46.1004 57.4C46.3004 57.3 46.4004 57.2 46.4004 57L47.0004 54.7C47.1004 54.4 46.9004 54 46.5004 53.9ZM45.5004 56.3L44.0004 55.9L44.4004 54.5L45.9004 54.9L45.5004 56.3ZM66.0003 42.8L63.7004 42.2C63.5004 42.2 63.3004 42.2 63.2004 42.3C63.0004 42.4 62.9004 42.5 62.9004 42.7L62.3004 45V45.4C62.4004 45.6 62.5004 45.7 62.7004 45.7L65.0003 46.3C65.2003 46.3 65.4003 46.3 65.5003 46.2C65.7003 46.1 65.8004 46 65.8004 45.8L66.4004 43.5C66.5004 43.2 66.3003 42.9 66.0003 42.8ZM64.9004 45.2L63.4004 44.9L63.8004 43.4L65.3004 43.8L64.9004 45.2ZM66.5003 56.1L65.9004 53.8C65.8004 53.6 65.7004 53.5 65.6004 53.4C65.4004 53.3 65.3004 53.3 65.1004 53.3L62.8004 53.9C62.6004 54 62.5004 54.1 62.4004 54.2C62.3004 54.3 62.3004 54.5 62.4004 54.6L63.0004 56.9C63.1004 57.1 63.2004 57.2 63.3004 57.3C63.5004 57.4 63.6004 57.4 63.8004 57.4L66.1004 56.8C66.4004 56.7 66.6003 56.4 66.5003 56.1ZM63.9004 56.2L63.5004 54.8L64.9004 54.4L65.3004 55.9L63.9004 56.2ZM56.8004 60.5L55.1004 58.8C54.9004 58.5 54.5004 58.5 54.3004 58.8L52.6004 60.5C52.5004 60.6 52.4004 60.7 52.4004 60.9C52.4004 61 52.5004 61.2 52.6004 61.3L54.3004 63C54.4004 63.1 54.5004 63.2 54.7004 63.2C54.8004 63.2 55.0004 63.1 55.1004 63L56.8004 61.3C56.9004 61.2 57.0004 61.1 57.0004 60.9C57.0004 60.8 56.9004 60.6 56.8004 60.5ZM54.7004 61.9L53.6004 60.9L54.7004 59.8L55.7004 60.9L54.7004 61.9ZM46.5004 53.9L44.2004 53.3C44.0004 53.3 43.8004 53.3 43.7004 53.4C43.5004 53.5 43.4004 53.6 43.4004 53.8L42.8004 56.1C42.8004 56.3 42.8004 56.5 42.9004 56.6C43.0004 56.8 43.1004 56.9 43.3004 56.9L45.6004 57.5C45.8004 57.5 46.0004 57.5 46.1004 57.4C46.3004 57.3 46.4004 57.2 46.4004 57L47.0004 54.7C47.1004 54.4 46.9004 54 46.5004 53.9ZM45.5004 56.3L44.0004 55.9L44.4004 54.5L45.9004 54.9L45.5004 56.3ZM47.0004 45.1L46.4004 42.8C46.3004 42.6 46.2004 42.5 46.1004 42.4C45.9004 42.3 45.8004 42.3 45.7004 42.2L43.4004 42.8C43.2004 42.9 43.1004 43 43.0004 43.1C42.9004 43.3 42.9004 43.4 42.9004 43.6L43.5004 45.9C43.6004 46.1 43.7004 46.2 43.8004 46.3C44.0004 46.4 44.1004 46.4 44.3004 46.4L46.6004 45.8C46.9004 45.8 47.1004 45.4 47.0004 45.1ZM44.4004 45.3L44.0004 43.8L45.5004 43.5L45.9004 44.9L44.4004 45.3ZM56.8004 60.5L55.1004 58.8C54.9004 58.5 54.5004 58.5 54.3004 58.8L52.6004 60.5C52.5004 60.6 52.4004 60.7 52.4004 60.9C52.4004 61 52.5004 61.2 52.6004 61.3L54.3004 63C54.4004 63.1 54.5004 63.2 54.7004 63.2C54.8004 63.2 55.0004 63.1 55.1004 63L56.8004 61.3C56.9004 61.2 57.0004 61.1 57.0004 60.9C57.0004 60.8 56.9004 60.6 56.8004 60.5ZM54.7004 61.9L53.6004 60.9L54.7004 59.8L55.7004 60.9L54.7004 61.9ZM56.8004 38.4L55.1004 36.7C54.8004 36.5 54.4004 36.5 54.2004 36.7L52.5004 38.4C52.4004 38.5 52.3004 38.6 52.3004 38.8C52.3004 38.9 52.4004 39.1 52.5004 39.2L54.3004 40.9C54.4004 41 54.5004 41.1 54.7004 41.1C54.8004 41.1 55.0004 41 55.1004 40.9L56.8004 39.2C56.9004 39.1 57.0004 39 57.0004 38.8C57.0004 38.7 56.9004 38.5 56.8004 38.4ZM54.7004 39.9L53.6004 38.8L54.7004 37.8L55.7004 38.8L54.7004 39.9ZM66.0003 42.8L63.7004 42.2C63.5004 42.2 63.3004 42.2 63.2004 42.3C63.0004 42.4 62.9004 42.5 62.9004 42.7L62.3004 45V45.4C62.4004 45.6 62.5004 45.7 62.7004 45.7L65.0003 46.3C65.2003 46.3 65.4003 46.3 65.5003 46.2C65.7003 46.1 65.8004 46 65.8004 45.8L66.4004 43.5C66.5004 43.2 66.3003 42.9 66.0003 42.8ZM64.9004 45.2L63.4004 44.9L63.8004 43.4L65.3004 43.8L64.9004 45.2ZM66.5003 56.1L65.9004 53.8C65.8004 53.6 65.7004 53.5 65.6004 53.4C65.4004 53.3 65.3004 53.3 65.1004 53.3L62.8004 53.9C62.6004 54 62.5004 54.1 62.4004 54.2C62.3004 54.3 62.3004 54.5 62.4004 54.6L63.0004 56.9C63.1004 57.1 63.2004 57.2 63.3004 57.3C63.5004 57.4 63.6004 57.4 63.8004 57.4L66.1004 56.8C66.4004 56.7 66.6003 56.4 66.5003 56.1ZM63.9004 56.2L63.5004 54.8L64.9004 54.4L65.3004 55.9L63.9004 56.2ZM47.0004 45.1L46.4004 42.8C46.3004 42.6 46.2004 42.5 46.1004 42.4C45.9004 42.3 45.8004 42.3 45.7004 42.2L43.4004 42.8C43.2004 42.9 43.1004 43 43.0004 43.1C42.9004 43.3 42.9004 43.4 42.9004 43.6L43.5004 45.9C43.6004 46.1 43.7004 46.2 43.8004 46.3C44.0004 46.4 44.1004 46.4 44.3004 46.4L46.6004 45.8C46.9004 45.8 47.1004 45.4 47.0004 45.1ZM44.4004 45.3L44.0004 43.8L45.5004 43.5L45.9004 44.9L44.4004 45.3ZM46.5004 53.9L44.2004 53.3C44.0004 53.3 43.8004 53.3 43.7004 53.4C43.5004 53.5 43.4004 53.6 43.4004 53.8L42.8004 56.1C42.8004 56.3 42.8004 56.5 42.9004 56.6C43.0004 56.8 43.1004 56.9 43.3004 56.9L45.6004 57.5C45.8004 57.5 46.0004 57.5 46.1004 57.4C46.3004 57.3 46.4004 57.2 46.4004 57L47.0004 54.7C47.1004 54.4 46.9004 54 46.5004 53.9ZM45.5004 56.3L44.0004 55.9L44.4004 54.5L45.9004 54.9L45.5004 56.3ZM56.8004 38.4L55.1004 36.7C54.8004 36.5 54.4004 36.5 54.2004 36.7L52.5004 38.4C52.4004 38.5 52.3004 38.6 52.3004 38.8C52.3004 38.9 52.4004 39.1 52.5004 39.2L54.3004 40.9C54.4004 41 54.5004 41.1 54.7004 41.1C54.8004 41.1 55.0004 41 55.1004 40.9L56.8004 39.2C56.9004 39.1 57.0004 39 57.0004 38.8C57.0004 38.7 56.9004 38.5 56.8004 38.4ZM54.7004 39.9L53.6004 38.8L54.7004 37.8L55.7004 38.8L54.7004 39.9ZM66.0003 42.8L63.7004 42.2C63.5004 42.2 63.3004 42.2 63.2004 42.3C63.0004 42.4 62.9004 42.5 62.9004 42.7L62.3004 45V45.4C62.4004 45.6 62.5004 45.7 62.7004 45.7L65.0003 46.3C65.2003 46.3 65.4003 46.3 65.5003 46.2C65.7003 46.1 65.8004 46 65.8004 45.8L66.4004 43.5C66.5004 43.2 66.3003 42.9 66.0003 42.8ZM64.9004 45.2L63.4004 44.9L63.8004 43.4L65.3004 43.8L64.9004 45.2ZM66.5003 56.1L65.9004 53.8C65.8004 53.6 65.7004 53.5 65.6004 53.4C65.4004 53.3 65.3004 53.3 65.1004 53.3L62.8004 53.9C62.6004 54 62.5004 54.1 62.4004 54.2C62.3004 54.3 62.3004 54.5 62.4004 54.6L63.0004 56.9C63.1004 57.1 63.2004 57.2 63.3004 57.3C63.5004 57.4 63.6004 57.4 63.8004 57.4L66.1004 56.8C66.4004 56.7 66.6003 56.4 66.5003 56.1ZM63.9004 56.2L63.5004 54.8L64.9004 54.4L65.3004 55.9L63.9004 56.2ZM56.8004 60.5L55.1004 58.8C54.9004 58.5 54.5004 58.5 54.3004 58.8L52.6004 60.5C52.5004 60.6 52.4004 60.7 52.4004 60.9C52.4004 61 52.5004 61.2 52.6004 61.3L54.3004 63C54.4004 63.1 54.5004 63.2 54.7004 63.2C54.8004 63.2 55.0004 63.1 55.1004 63L56.8004 61.3C56.9004 61.2 57.0004 61.1 57.0004 60.9C57.0004 60.8 56.9004 60.6 56.8004 60.5ZM54.7004 61.9L53.6004 60.9L54.7004 59.8L55.7004 60.9L54.7004 61.9ZM77.7004 8C68.9004 3.8 58.4004 5.5 51.0004 11.5C42.8004 18.1 40.4004 29.5 44.1004 39C42.4004 39.3 40.9004 40.2 40.1004 41.7C39.4004 43 39.2004 44.5 39.6004 45.9C40.0004 47.3 40.9004 48.5 42.2004 49.2C43.1004 49.6 44.0004 49.9 44.9004 49.9C43.9004 49.9 43.0004 50.1 42.2004 50.6C40.9004 51.4 40.0004 52.6 39.6004 54C39.2004 55.4 39.4004 56.9 40.2004 58.2C41.2004 59.9 43.0004 60.9 45.0004 60.9C46.0004 60.9 47.0004 60.7 47.7004 60.2C48.5004 59.7 49.1004 59.1 49.6004 58.4C49.2004 59.2 49.0004 60 49.0004 60.9C49.0004 63.9 51.5004 66.4 54.6004 66.4C57.7004 66.4 60.2004 63.9 60.2004 60.9C60.2004 58.9 59.1004 57.2 57.5004 56.2C57.9004 56 58.3004 55.8 58.7004 55.5C58.7004 55.9 58.8004 56.4 58.9004 56.8C59.3004 58.2 60.2004 59.4 61.5004 60.1C62.4004 60.6 63.3004 60.8 64.3004 60.8C66.3004 60.8 68.2003 59.7 69.2003 58C69.9003 56.7 70.1003 55.2 69.7003 53.8C69.3003 52.4 68.4004 51.2 67.1004 50.5C66.3004 50.1 65.4003 49.8 64.5003 49.8C65.4003 49.8 66.3004 49.6 67.1004 49.1C68.4004 48.3 69.3003 47.1 69.7003 45.7C70.1003 44.3 69.8004 42.8 69.1004 41.5C68.1004 39.8 66.3004 38.8 64.3004 38.8C63.3004 38.8 62.4004 39 61.5004 39.5C60.7004 40 60.1004 40.6 59.6004 41.3C60.0004 40.5 60.2004 39.7 60.2004 38.8C60.2004 35.8 57.7004 33.3 54.6004 33.3C51.5004 33.3 49.0004 35.8 49.0004 38.8C49.0004 40.8 50.1004 42.5 51.7004 43.5C51.3004 43.7 50.9004 43.9 50.5004 44.2C50.5004 42.4 49.5004 40.6 47.7004 39.6C47.1004 39.3 46.5004 39.1 45.9004 39C45.9004 38.9 45.9004 38.9 45.9004 38.8C41.9004 29.1 44.7004 18.3 53.2004 11.9C61.0004 5.9 72.0004 6.1 80.0004 11.3C88.4004 16.8 91.5004 27.3 88.8004 36.6C87.3004 41.7 83.8004 45.7 79.5004 48.8C76.6004 50.9 76.1004 52.9 76.0004 56.3C76.0004 57.4 77.8004 57.4 77.8004 56.3C77.9004 53.9 78.1004 52.3 80.0004 50.7C82.2004 48.8 84.5004 47.3 86.4004 45C89.7004 41 91.4004 35.9 91.7004 30.8C92.2004 21.2 86.2004 12.2 77.7004 8ZM50.5004 55.4C50.9004 55.7 51.3004 55.9 51.7004 56.1C51.0004 56.5 50.4004 57.1 50.0004 57.7C50.2004 57.4 50.3004 57.1 50.4004 56.8C50.5004 56.4 50.6004 55.9 50.5004 55.4ZM58.8004 60.9C58.8004 63.1 57.0004 64.9 54.7004 64.9C52.4004 64.9 50.6004 63.1 50.6004 60.9C50.6004 58.7 52.4004 56.8 54.7004 56.9C57.0004 56.9 58.8004 58.7 58.8004 60.9ZM66.4004 51.8C67.3004 52.3 68.0004 53.2 68.3004 54.2C68.6004 55.3 68.4004 56.4 67.9004 57.3C67.1004 58.5 65.8004 59.3 64.3004 59.3C63.6004 59.3 62.9004 59.1 62.3004 58.8C61.4004 58.3 60.7004 57.4 60.4004 56.4C60.1004 55.3 60.3004 54.2 60.8004 53.3C61.6004 52 62.9004 51.3 64.4004 51.3C65.1004 51.3 65.8004 51.5 66.4004 51.8ZM61.7004 50.4V49.1C62.4004 49.4 63.1004 49.7 63.8004 49.7C63.1004 49.8 62.4004 50.1 61.7004 50.4ZM60.5004 43.1C60.8004 42 61.5004 41.1 62.4004 40.6C63.1004 40.3 63.8003 40.1 64.5003 40.1C65.9003 40.1 67.3003 40.9 68.0003 42.1C68.5003 43.1 68.7004 44.2 68.4004 45.2C68.1004 46.3 67.4003 47.2 66.5003 47.7C65.8003 48.1 65.1004 48.3 64.4004 48.3C62.9004 48.3 61.5004 47.6 60.9004 46.2C60.4004 45.2 60.2004 44.1 60.5004 43.1ZM50.6004 38.8C50.6004 36.6 52.4004 34.8 54.7004 34.8C57.0004 34.8 58.8004 36.6 58.8004 38.8C58.8004 41 56.9004 42.9 54.7004 42.8C52.4004 42.8 50.6004 41 50.6004 38.8ZM59.3004 42C59.1004 42.3 59.0004 42.6 58.9004 42.9C58.8004 43.3 58.8004 43.8 58.8004 44.3C58.4004 44 58.0004 43.8 57.6004 43.6C58.3004 43.2 58.9004 42.6 59.3004 42ZM54.7004 44.3C57.8004 44.3 60.3004 46.8 60.3004 49.8C60.3004 52.8 57.8004 55.3 54.7004 55.3C51.6004 55.3 49.1004 52.9 49.1004 49.8C49.1004 46.8 51.6004 44.3 54.7004 44.3ZM48.9004 56.4C48.6004 57.5 48.0004 58.4 47.0004 58.9C46.3004 59.3 45.6004 59.5 44.9004 59.5C43.5004 59.5 42.1004 58.7 41.4004 57.5C40.9004 56.5 40.7004 55.4 41.0004 54.4C41.3004 53.3 42.0004 52.5 42.9004 51.9C43.6004 51.6 44.3004 51.4 45.0004 51.4C46.4004 51.4 47.8004 52.1 48.5004 53.3C49.0004 54.3 49.2004 55.4 48.9004 56.4ZM45.0004 49.9C46.0004 49.9 46.8004 49.6 47.6004 49.2V50.6C46.8004 50.2 45.9004 49.9 45.0004 49.9ZM45.0004 40.4C45.7004 40.4 46.4004 40.6 47.0004 40.9C48.9004 42 49.6004 44.5 48.5004 46.4C47.7004 47.6 46.4004 48.4 44.9004 48.4C44.2004 48.4 43.5004 48.2 42.9004 47.9C42.0004 47.4 41.3004 46.5 41.0004 45.5C40.7004 44.4 40.9004 43.3 41.4004 42.4C42.1004 41.1 43.5004 40.4 45.0004 40.4ZM62.4004 54.2C62.3004 54.3 62.3004 54.5 62.4004 54.6L63.0004 56.9C63.1004 57.1 63.2004 57.2 63.3004 57.3C63.5004 57.4 63.6004 57.4 63.8004 57.4L66.1004 56.8C66.4004 56.7 66.6003 56.4 66.5003 56.1L65.9004 53.8C65.8004 53.6 65.7004 53.5 65.6004 53.4C65.4004 53.3 65.3004 53.3 65.1004 53.3L62.8004 53.9C62.6004 54 62.5004 54.1 62.4004 54.2ZM64.9004 54.4L65.3004 55.9L63.9004 56.2L63.5004 54.8L64.9004 54.4ZM62.7004 45.7L65.0003 46.3C65.2003 46.3 65.4003 46.3 65.5003 46.2C65.7003 46.1 65.8004 46 65.8004 45.8L66.4004 43.5C66.5004 43.2 66.3003 42.9 66.0003 42.8L63.7004 42.2C63.5004 42.2 63.3004 42.2 63.2004 42.3C63.0004 42.4 62.9004 42.5 62.9004 42.7L62.3004 45V45.4C62.4004 45.6 62.5004 45.7 62.7004 45.7ZM63.8004 43.4L65.3004 43.8L64.9004 45.2L63.4004 44.9L63.8004 43.4ZM54.3004 40.9C54.4004 41 54.5004 41.1 54.7004 41.1C54.8004 41.1 55.0004 41 55.1004 40.9L56.8004 39.2C56.9004 39.1 57.0004 39 57.0004 38.8C57.0004 38.7 56.9004 38.5 56.8004 38.4L55.1004 36.7C54.8004 36.5 54.4004 36.5 54.2004 36.7L52.5004 38.4C52.4004 38.5 52.3004 38.6 52.3004 38.8C52.3004 38.9 52.4004 39.1 52.5004 39.2L54.3004 40.9ZM54.7004 37.8L55.7004 38.8L54.7004 39.9L53.6004 38.8L54.7004 37.8ZM54.3004 58.8L52.6004 60.5C52.5004 60.6 52.4004 60.7 52.4004 60.9C52.4004 61 52.5004 61.2 52.6004 61.3L54.3004 63C54.4004 63.1 54.5004 63.2 54.7004 63.2C54.8004 63.2 55.0004 63.1 55.1004 63L56.8004 61.3C56.9004 61.2 57.0004 61.1 57.0004 60.9C57.0004 60.8 56.9004 60.6 56.8004 60.5L55.1004 58.8C54.9004 58.5 54.5004 58.5 54.3004 58.8ZM55.7004 60.9L54.7004 61.9L53.6004 60.9L54.7004 59.8L55.7004 60.9ZM43.8004 46.3C44.0004 46.4 44.1004 46.4 44.3004 46.4L46.6004 45.8C46.9004 45.8 47.1004 45.4 47.0004 45.1L46.4004 42.8C46.3004 42.6 46.2004 42.5 46.1004 42.4C45.9004 42.3 45.8004 42.3 45.7004 42.2L43.4004 42.8C43.2004 42.9 43.1004 43 43.0004 43.1C42.9004 43.3 42.9004 43.4 42.9004 43.6L43.5004 45.9C43.6004 46.1 43.7004 46.2 43.8004 46.3ZM45.5004 43.5L45.9004 44.9L44.4004 45.3L44.0004 43.8L45.5004 43.5ZM46.5004 53.9L44.2004 53.3C44.0004 53.3 43.8004 53.3 43.7004 53.4C43.5004 53.5 43.4004 53.6 43.4004 53.8L42.8004 56.1C42.8004 56.3 42.8004 56.5 42.9004 56.6C43.0004 56.8 43.1004 56.9 43.3004 56.9L45.6004 57.5C45.8004 57.5 46.0004 57.5 46.1004 57.4C46.3004 57.3 46.4004 57.2 46.4004 57L47.0004 54.7C47.1004 54.4 46.9004 54 46.5004 53.9ZM45.5004 56.3L44.0004 55.9L44.4004 54.5L45.9004 54.9L45.5004 56.3ZM56.8004 60.5L55.1004 58.8C54.9004 58.5 54.5004 58.5 54.3004 58.8L52.6004 60.5C52.5004 60.6 52.4004 60.7 52.4004 60.9C52.4004 61 52.5004 61.2 52.6004 61.3L54.3004 63C54.4004 63.1 54.5004 63.2 54.7004 63.2C54.8004 63.2 55.0004 63.1 55.1004 63L56.8004 61.3C56.9004 61.2 57.0004 61.1 57.0004 60.9C57.0004 60.8 56.9004 60.6 56.8004 60.5ZM54.7004 61.9L53.6004 60.9L54.7004 59.8L55.7004 60.9L54.7004 61.9ZM66.5003 56.1L65.9004 53.8C65.8004 53.6 65.7004 53.5 65.6004 53.4C65.4004 53.3 65.3004 53.3 65.1004 53.3L62.8004 53.9C62.6004 54 62.5004 54.1 62.4004 54.2C62.3004 54.3 62.3004 54.5 62.4004 54.6L63.0004 56.9C63.1004 57.1 63.2004 57.2 63.3004 57.3C63.5004 57.4 63.6004 57.4 63.8004 57.4L66.1004 56.8C66.4004 56.7 66.6003 56.4 66.5003 56.1ZM63.9004 56.2L63.5004 54.8L64.9004 54.4L65.3004 55.9L63.9004 56.2ZM66.0003 42.8L63.7004 42.2C63.5004 42.2 63.3004 42.2 63.2004 42.3C63.0004 42.4 62.9004 42.5 62.9004 42.7L62.3004 45V45.4C62.4004 45.6 62.5004 45.7 62.7004 45.7L65.0003 46.3C65.2003 46.3 65.4003 46.3 65.5003 46.2C65.7003 46.1 65.8004 46 65.8004 45.8L66.4004 43.5C66.5004 43.2 66.3003 42.9 66.0003 42.8ZM64.9004 45.2L63.4004 44.9L63.8004 43.4L65.3004 43.8L64.9004 45.2ZM46.5004 53.9L44.2004 53.3C44.0004 53.3 43.8004 53.3 43.7004 53.4C43.5004 53.5 43.4004 53.6 43.4004 53.8L42.8004 56.1C42.8004 56.3 42.8004 56.5 42.9004 56.6C43.0004 56.8 43.1004 56.9 43.3004 56.9L45.6004 57.5C45.8004 57.5 46.0004 57.5 46.1004 57.4C46.3004 57.3 46.4004 57.2 46.4004 57L47.0004 54.7C47.1004 54.4 46.9004 54 46.5004 53.9ZM45.5004 56.3L44.0004 55.9L44.4004 54.5L45.9004 54.9L45.5004 56.3ZM47.0004 45.1L46.4004 42.8C46.3004 42.6 46.2004 42.5 46.1004 42.4C45.9004 42.3 45.8004 42.3 45.7004 42.2L43.4004 42.8C43.2004 42.9 43.1004 43 43.0004 43.1C42.9004 43.3 42.9004 43.4 42.9004 43.6L43.5004 45.9C43.6004 46.1 43.7004 46.2 43.8004 46.3C44.0004 46.4 44.1004 46.4 44.3004 46.4L46.6004 45.8C46.9004 45.8 47.1004 45.4 47.0004 45.1ZM44.4004 45.3L44.0004 43.8L45.5004 43.5L45.9004 44.9L44.4004 45.3ZM66.5003 56.1L65.9004 53.8C65.8004 53.6 65.7004 53.5 65.6004 53.4C65.4004 53.3 65.3004 53.3 65.1004 53.3L62.8004 53.9C62.6004 54 62.5004 54.1 62.4004 54.2C62.3004 54.3 62.3004 54.5 62.4004 54.6L63.0004 56.9C63.1004 57.1 63.2004 57.2 63.3004 57.3C63.5004 57.4 63.6004 57.4 63.8004 57.4L66.1004 56.8C66.4004 56.7 66.6003 56.4 66.5003 56.1ZM63.9004 56.2L63.5004 54.8L64.9004 54.4L65.3004 55.9L63.9004 56.2ZM66.0003 42.8L63.7004 42.2C63.5004 42.2 63.3004 42.2 63.2004 42.3C63.0004 42.4 62.9004 42.5 62.9004 42.7L62.3004 45V45.4C62.4004 45.6 62.5004 45.7 62.7004 45.7L65.0003 46.3C65.2003 46.3 65.4003 46.3 65.5003 46.2C65.7003 46.1 65.8004 46 65.8004 45.8L66.4004 43.5C66.5004 43.2 66.3003 42.9 66.0003 42.8ZM64.9004 45.2L63.4004 44.9L63.8004 43.4L65.3004 43.8L64.9004 45.2ZM56.8004 60.5L55.1004 58.8C54.9004 58.5 54.5004 58.5 54.3004 58.8L52.6004 60.5C52.5004 60.6 52.4004 60.7 52.4004 60.9C52.4004 61 52.5004 61.2 52.6004 61.3L54.3004 63C54.4004 63.1 54.5004 63.2 54.7004 63.2C54.8004 63.2 55.0004 63.1 55.1004 63L56.8004 61.3C56.9004 61.2 57.0004 61.1 57.0004 60.9C57.0004 60.8 56.9004 60.6 56.8004 60.5ZM54.7004 61.9L53.6004 60.9L54.7004 59.8L55.7004 60.9L54.7004 61.9ZM47.0004 45.1L46.4004 42.8C46.3004 42.6 46.2004 42.5 46.1004 42.4C45.9004 42.3 45.8004 42.3 45.7004 42.2L43.4004 42.8C43.2004 42.9 43.1004 43 43.0004 43.1C42.9004 43.3 42.9004 43.4 42.9004 43.6L43.5004 45.9C43.6004 46.1 43.7004 46.2 43.8004 46.3C44.0004 46.4 44.1004 46.4 44.3004 46.4L46.6004 45.8C46.9004 45.8 47.1004 45.4 47.0004 45.1ZM44.4004 45.3L44.0004 43.8L45.5004 43.5L45.9004 44.9L44.4004 45.3ZM46.5004 53.9L44.2004 53.3C44.0004 53.3 43.8004 53.3 43.7004 53.4C43.5004 53.5 43.4004 53.6 43.4004 53.8L42.8004 56.1C42.8004 56.3 42.8004 56.5 42.9004 56.6C43.0004 56.8 43.1004 56.9 43.3004 56.9L45.6004 57.5C45.8004 57.5 46.0004 57.5 46.1004 57.4C46.3004 57.3 46.4004 57.2 46.4004 57L47.0004 54.7C47.1004 54.4 46.9004 54 46.5004 53.9ZM45.5004 56.3L44.0004 55.9L44.4004 54.5L45.9004 54.9L45.5004 56.3ZM56.8004 60.5L55.1004 58.8C54.9004 58.5 54.5004 58.5 54.3004 58.8L52.6004 60.5C52.5004 60.6 52.4004 60.7 52.4004 60.9C52.4004 61 52.5004 61.2 52.6004 61.3L54.3004 63C54.4004 63.1 54.5004 63.2 54.7004 63.2C54.8004 63.2 55.0004 63.1 55.1004 63L56.8004 61.3C56.9004 61.2 57.0004 61.1 57.0004 60.9C57.0004 60.8 56.9004 60.6 56.8004 60.5ZM54.7004 61.9L53.6004 60.9L54.7004 59.8L55.7004 60.9L54.7004 61.9ZM66.5003 56.1L65.9004 53.8C65.8004 53.6 65.7004 53.5 65.6004 53.4C65.4004 53.3 65.3004 53.3 65.1004 53.3L62.8004 53.9C62.6004 54 62.5004 54.1 62.4004 54.2C62.3004 54.3 62.3004 54.5 62.4004 54.6L63.0004 56.9C63.1004 57.1 63.2004 57.2 63.3004 57.3C63.5004 57.4 63.6004 57.4 63.8004 57.4L66.1004 56.8C66.4004 56.7 66.6003 56.4 66.5003 56.1ZM63.9004 56.2L63.5004 54.8L64.9004 54.4L65.3004 55.9L63.9004 56.2ZM66.0003 42.8L63.7004 42.2C63.5004 42.2 63.3004 42.2 63.2004 42.3C63.0004 42.4 62.9004 42.5 62.9004 42.7L62.3004 45V45.4C62.4004 45.6 62.5004 45.7 62.7004 45.7L65.0003 46.3C65.2003 46.3 65.4003 46.3 65.5003 46.2C65.7003 46.1 65.8004 46 65.8004 45.8L66.4004 43.5C66.5004 43.2 66.3003 42.9 66.0003 42.8ZM64.9004 45.2L63.4004 44.9L63.8004 43.4L65.3004 43.8L64.9004 45.2ZM46.5004 53.9L44.2004 53.3C44.0004 53.3 43.8004 53.3 43.7004 53.4C43.5004 53.5 43.4004 53.6 43.4004 53.8L42.8004 56.1C42.8004 56.3 42.8004 56.5 42.9004 56.6C43.0004 56.8 43.1004 56.9 43.3004 56.9L45.6004 57.5C45.8004 57.5 46.0004 57.5 46.1004 57.4C46.3004 57.3 46.4004 57.2 46.4004 57L47.0004 54.7C47.1004 54.4 46.9004 54 46.5004 53.9ZM45.5004 56.3L44.0004 55.9L44.4004 54.5L45.9004 54.9L45.5004 56.3ZM47.0004 45.1L46.4004 42.8C46.3004 42.6 46.2004 42.5 46.1004 42.4C45.9004 42.3 45.8004 42.3 45.7004 42.2L43.4004 42.8C43.2004 42.9 43.1004 43 43.0004 43.1C42.9004 43.3 42.9004 43.4 42.9004 43.6L43.5004 45.9C43.6004 46.1 43.7004 46.2 43.8004 46.3C44.0004 46.4 44.1004 46.4 44.3004 46.4L46.6004 45.8C46.9004 45.8 47.1004 45.4 47.0004 45.1ZM44.4004 45.3L44.0004 43.8L45.5004 43.5L45.9004 44.9L44.4004 45.3ZM66.5003 56.1L65.9004 53.8C65.8004 53.6 65.7004 53.5 65.6004 53.4C65.4004 53.3 65.3004 53.3 65.1004 53.3L62.8004 53.9C62.6004 54 62.5004 54.1 62.4004 54.2C62.3004 54.3 62.3004 54.5 62.4004 54.6L63.0004 56.9C63.1004 57.1 63.2004 57.2 63.3004 57.3C63.5004 57.4 63.6004 57.4 63.8004 57.4L66.1004 56.8C66.4004 56.7 66.6003 56.4 66.5003 56.1ZM63.9004 56.2L63.5004 54.8L64.9004 54.4L65.3004 55.9L63.9004 56.2ZM66.0003 42.8L63.7004 42.2C63.5004 42.2 63.3004 42.2 63.2004 42.3C63.0004 42.4 62.9004 42.5 62.9004 42.7L62.3004 45V45.4C62.4004 45.6 62.5004 45.7 62.7004 45.7L65.0003 46.3C65.2003 46.3 65.4003 46.3 65.5003 46.2C65.7003 46.1 65.8004 46 65.8004 45.8L66.4004 43.5C66.5004 43.2 66.3003 42.9 66.0003 42.8ZM64.9004 45.2L63.4004 44.9L63.8004 43.4L65.3004 43.8L64.9004 45.2ZM56.8004 60.5L55.1004 58.8C54.9004 58.5 54.5004 58.5 54.3004 58.8L52.6004 60.5C52.5004 60.6 52.4004 60.7 52.4004 60.9C52.4004 61 52.5004 61.2 52.6004 61.3L54.3004 63C54.4004 63.1 54.5004 63.2 54.7004 63.2C54.8004 63.2 55.0004 63.1 55.1004 63L56.8004 61.3C56.9004 61.2 57.0004 61.1 57.0004 60.9C57.0004 60.8 56.9004 60.6 56.8004 60.5ZM54.7004 61.9L53.6004 60.9L54.7004 59.8L55.7004 60.9L54.7004 61.9ZM47.0004 45.1L46.4004 42.8C46.3004 42.6 46.2004 42.5 46.1004 42.4C45.9004 42.3 45.8004 42.3 45.7004 42.2L43.4004 42.8C43.2004 42.9 43.1004 43 43.0004 43.1C42.9004 43.3 42.9004 43.4 42.9004 43.6L43.5004 45.9C43.6004 46.1 43.7004 46.2 43.8004 46.3C44.0004 46.4 44.1004 46.4 44.3004 46.4L46.6004 45.8C46.9004 45.8 47.1004 45.4 47.0004 45.1ZM44.4004 45.3L44.0004 43.8L45.5004 43.5L45.9004 44.9L44.4004 45.3ZM46.5004 53.9L44.2004 53.3C44.0004 53.3 43.8004 53.3 43.7004 53.4C43.5004 53.5 43.4004 53.6 43.4004 53.8L42.8004 56.1C42.8004 56.3 42.8004 56.5 42.9004 56.6C43.0004 56.8 43.1004 56.9 43.3004 56.9L45.6004 57.5C45.8004 57.5 46.0004 57.5 46.1004 57.4C46.3004 57.3 46.4004 57.2 46.4004 57L47.0004 54.7C47.1004 54.4 46.9004 54 46.5004 53.9ZM45.5004 56.3L44.0004 55.9L44.4004 54.5L45.9004 54.9L45.5004 56.3ZM56.8004 60.5L55.1004 58.8C54.9004 58.5 54.5004 58.5 54.3004 58.8L52.6004 60.5C52.5004 60.6 52.4004 60.7 52.4004 60.9C52.4004 61 52.5004 61.2 52.6004 61.3L54.3004 63C54.4004 63.1 54.5004 63.2 54.7004 63.2C54.8004 63.2 55.0004 63.1 55.1004 63L56.8004 61.3C56.9004 61.2 57.0004 61.1 57.0004 60.9C57.0004 60.8 56.9004 60.6 56.8004 60.5ZM54.7004 61.9L53.6004 60.9L54.7004 59.8L55.7004 60.9L54.7004 61.9ZM66.5003 56.1L65.9004 53.8C65.8004 53.6 65.7004 53.5 65.6004 53.4C65.4004 53.3 65.3004 53.3 65.1004 53.3L62.8004 53.9C62.6004 54 62.5004 54.1 62.4004 54.2C62.3004 54.3 62.3004 54.5 62.4004 54.6L63.0004 56.9C63.1004 57.1 63.2004 57.2 63.3004 57.3C63.5004 57.4 63.6004 57.4 63.8004 57.4L66.1004 56.8C66.4004 56.7 66.6003 56.4 66.5003 56.1ZM63.9004 56.2L63.5004 54.8L64.9004 54.4L65.3004 55.9L63.9004 56.2ZM46.5004 53.9L44.2004 53.3C44.0004 53.3 43.8004 53.3 43.7004 53.4C43.5004 53.5 43.4004 53.6 43.4004 53.8L42.8004 56.1C42.8004 56.3 42.8004 56.5 42.9004 56.6C43.0004 56.8 43.1004 56.9 43.3004 56.9L45.6004 57.5C45.8004 57.5 46.0004 57.5 46.1004 57.4C46.3004 57.3 46.4004 57.2 46.4004 57L47.0004 54.7C47.1004 54.4 46.9004 54 46.5004 53.9ZM45.5004 56.3L44.0004 55.9L44.4004 54.5L45.9004 54.9L45.5004 56.3ZM47.0004 45.1L46.4004 42.8C46.3004 42.6 46.2004 42.5 46.1004 42.4C45.9004 42.3 45.8004 42.3 45.7004 42.2L43.4004 42.8C43.2004 42.9 43.1004 43 43.0004 43.1C42.9004 43.3 42.9004 43.4 42.9004 43.6L43.5004 45.9C43.6004 46.1 43.7004 46.2 43.8004 46.3C44.0004 46.4 44.1004 46.4 44.3004 46.4L46.6004 45.8C46.9004 45.8 47.1004 45.4 47.0004 45.1ZM44.4004 45.3L44.0004 43.8L45.5004 43.5L45.9004 44.9L44.4004 45.3ZM66.5003 56.1L65.9004 53.8C65.8004 53.6 65.7004 53.5 65.6004 53.4C65.4004 53.3 65.3004 53.3 65.1004 53.3L62.8004 53.9C62.6004 54 62.5004 54.1 62.4004 54.2C62.3004 54.3 62.3004 54.5 62.4004 54.6L63.0004 56.9C63.1004 57.1 63.2004 57.2 63.3004 57.3C63.5004 57.4 63.6004 57.4 63.8004 57.4L66.1004 56.8C66.4004 56.7 66.6003 56.4 66.5003 56.1ZM63.9004 56.2L63.5004 54.8L64.9004 54.4L65.3004 55.9L63.9004 56.2ZM56.8004 60.5L55.1004 58.8C54.9004 58.5 54.5004 58.5 54.3004 58.8L52.6004 60.5C52.5004 60.6 52.4004 60.7 52.4004 60.9C52.4004 61 52.5004 61.2 52.6004 61.3L54.3004 63C54.4004 63.1 54.5004 63.2 54.7004 63.2C54.8004 63.2 55.0004 63.1 55.1004 63L56.8004 61.3C56.9004 61.2 57.0004 61.1 57.0004 60.9C57.0004 60.8 56.9004 60.6 56.8004 60.5ZM54.7004 61.9L53.6004 60.9L54.7004 59.8L55.7004 60.9L54.7004 61.9ZM47.0004 45.1L46.4004 42.8C46.3004 42.6 46.2004 42.5 46.1004 42.4C45.9004 42.3 45.8004 42.3 45.7004 42.2L43.4004 42.8C43.2004 42.9 43.1004 43 43.0004 43.1C42.9004 43.3 42.9004 43.4 42.9004 43.6L43.5004 45.9C43.6004 46.1 43.7004 46.2 43.8004 46.3C44.0004 46.4 44.1004 46.4 44.3004 46.4L46.6004 45.8C46.9004 45.8 47.1004 45.4 47.0004 45.1ZM44.4004 45.3L44.0004 43.8L45.5004 43.5L45.9004 44.9L44.4004 45.3ZM46.5004 53.9L44.2004 53.3C44.0004 53.3 43.8004 53.3 43.7004 53.4C43.5004 53.5 43.4004 53.6 43.4004 53.8L42.8004 56.1C42.8004 56.3 42.8004 56.5 42.9004 56.6C43.0004 56.8 43.1004 56.9 43.3004 56.9L45.6004 57.5C45.8004 57.5 46.0004 57.5 46.1004 57.4C46.3004 57.3 46.4004 57.2 46.4004 57L47.0004 54.7C47.1004 54.4 46.9004 54 46.5004 53.9ZM45.5004 56.3L44.0004 55.9L44.4004 54.5L45.9004 54.9L45.5004 56.3ZM56.8004 60.5L55.1004 58.8C54.9004 58.5 54.5004 58.5 54.3004 58.8L52.6004 60.5C52.5004 60.6 52.4004 60.7 52.4004 60.9C52.4004 61 52.5004 61.2 52.6004 61.3L54.3004 63C54.4004 63.1 54.5004 63.2 54.7004 63.2C54.8004 63.2 55.0004 63.1 55.1004 63L56.8004 61.3C56.9004 61.2 57.0004 61.1 57.0004 60.9C57.0004 60.8 56.9004 60.6 56.8004 60.5ZM54.7004 61.9L53.6004 60.9L54.7004 59.8L55.7004 60.9L54.7004 61.9ZM46.5004 53.9L44.2004 53.3C44.0004 53.3 43.8004 53.3 43.7004 53.4C43.5004 53.5 43.4004 53.6 43.4004 53.8L42.8004 56.1C42.8004 56.3 42.8004 56.5 42.9004 56.6C43.0004 56.8 43.1004 56.9 43.3004 56.9L45.6004 57.5C45.8004 57.5 46.0004 57.5 46.1004 57.4C46.3004 57.3 46.4004 57.2 46.4004 57L47.0004 54.7C47.1004 54.4 46.9004 54 46.5004 53.9ZM45.5004 56.3L44.0004 55.9L44.4004 54.5L45.9004 54.9L45.5004 56.3ZM47.0004 45.1L46.4004 42.8C46.3004 42.6 46.2004 42.5 46.1004 42.4C45.9004 42.3 45.8004 42.3 45.7004 42.2L43.4004 42.8C43.2004 42.9 43.1004 43 43.0004 43.1C42.9004 43.3 42.9004 43.4 42.9004 43.6L43.5004 45.9C43.6004 46.1 43.7004 46.2 43.8004 46.3C44.0004 46.4 44.1004 46.4 44.3004 46.4L46.6004 45.8C46.9004 45.8 47.1004 45.4 47.0004 45.1ZM44.4004 45.3L44.0004 43.8L45.5004 43.5L45.9004 44.9L44.4004 45.3ZM56.8004 60.5L55.1004 58.8C54.9004 58.5 54.5004 58.5 54.3004 58.8L52.6004 60.5C52.5004 60.6 52.4004 60.7 52.4004 60.9C52.4004 61 52.5004 61.2 52.6004 61.3L54.3004 63C54.4004 63.1 54.5004 63.2 54.7004 63.2C54.8004 63.2 55.0004 63.1 55.1004 63L56.8004 61.3C56.9004 61.2 57.0004 61.1 57.0004 60.9C57.0004 60.8 56.9004 60.6 56.8004 60.5ZM54.7004 61.9L53.6004 60.9L54.7004 59.8L55.7004 60.9L54.7004 61.9ZM47.0004 45.1L46.4004 42.8C46.3004 42.6 46.2004 42.5 46.1004 42.4C45.9004 42.3 45.8004 42.3 45.7004 42.2L43.4004 42.8C43.2004 42.9 43.1004 43 43.0004 43.1C42.9004 43.3 42.9004 43.4 42.9004 43.6L43.5004 45.9C43.6004 46.1 43.7004 46.2 43.8004 46.3C44.0004 46.4 44.1004 46.4 44.3004 46.4L46.6004 45.8C46.9004 45.8 47.1004 45.4 47.0004 45.1ZM44.4004 45.3L44.0004 43.8L45.5004 43.5L45.9004 44.9L44.4004 45.3ZM46.5004 53.9L44.2004 53.3C44.0004 53.3 43.8004 53.3 43.7004 53.4C43.5004 53.5 43.4004 53.6 43.4004 53.8L42.8004 56.1C42.8004 56.3 42.8004 56.5 42.9004 56.6C43.0004 56.8 43.1004 56.9 43.3004 56.9L45.6004 57.5C45.8004 57.5 46.0004 57.5 46.1004 57.4C46.3004 57.3 46.4004 57.2 46.4004 57L47.0004 54.7C47.1004 54.4 46.9004 54 46.5004 53.9ZM45.5004 56.3L44.0004 55.9L44.4004 54.5L45.9004 54.9L45.5004 56.3ZM46.5004 53.9L44.2004 53.3C44.0004 53.3 43.8004 53.3 43.7004 53.4C43.5004 53.5 43.4004 53.6 43.4004 53.8L42.8004 56.1C42.8004 56.3 42.8004 56.5 42.9004 56.6C43.0004 56.8 43.1004 56.9 43.3004 56.9L45.6004 57.5C45.8004 57.5 46.0004 57.5 46.1004 57.4C46.3004 57.3 46.4004 57.2 46.4004 57L47.0004 54.7C47.1004 54.4 46.9004 54 46.5004 53.9ZM45.5004 56.3L44.0004 55.9L44.4004 54.5L45.9004 54.9L45.5004 56.3ZM47.0004 45.1L46.4004 42.8C46.3004 42.6 46.2004 42.5 46.1004 42.4C45.9004 42.3 45.8004 42.3 45.7004 42.2L43.4004 42.8C43.2004 42.9 43.1004 43 43.0004 43.1C42.9004 43.3 42.9004 43.4 42.9004 43.6L43.5004 45.9C43.6004 46.1 43.7004 46.2 43.8004 46.3C44.0004 46.4 44.1004 46.4 44.3004 46.4L46.6004 45.8C46.9004 45.8 47.1004 45.4 47.0004 45.1ZM44.4004 45.3L44.0004 43.8L45.5004 43.5L45.9004 44.9L44.4004 45.3ZM47.0004 45.1L46.4004 42.8C46.3004 42.6 46.2004 42.5 46.1004 42.4C45.9004 42.3 45.8004 42.3 45.7004 42.2L43.4004 42.8C43.2004 42.9 43.1004 43 43.0004 43.1C42.9004 43.3 42.9004 43.4 42.9004 43.6L43.5004 45.9C43.6004 46.1 43.7004 46.2 43.8004 46.3C44.0004 46.4 44.1004 46.4 44.3004 46.4L46.6004 45.8C46.9004 45.8 47.1004 45.4 47.0004 45.1ZM44.4004 45.3L44.0004 43.8L45.5004 43.5L45.9004 44.9L44.4004 45.3ZM46.5004 53.9L44.2004 53.3C44.0004 53.3 43.8004 53.3 43.7004 53.4C43.5004 53.5 43.4004 53.6 43.4004 53.8L42.8004 56.1C42.8004 56.3 42.8004 56.5 42.9004 56.6C43.0004 56.8 43.1004 56.9 43.3004 56.9L45.6004 57.5C45.8004 57.5 46.0004 57.5 46.1004 57.4C46.3004 57.3 46.4004 57.2 46.4004 57L47.0004 54.7C47.1004 54.4 46.9004 54 46.5004 53.9ZM45.5004 56.3L44.0004 55.9L44.4004 54.5L45.9004 54.9L45.5004 56.3ZM46.5004 53.9L44.2004 53.3C44.0004 53.3 43.8004 53.3 43.7004 53.4C43.5004 53.5 43.4004 53.6 43.4004 53.8L42.8004 56.1C42.8004 56.3 42.8004 56.5 42.9004 56.6C43.0004 56.8 43.1004 56.9 43.3004 56.9L45.6004 57.5C45.8004 57.5 46.0004 57.5 46.1004 57.4C46.3004 57.3 46.4004 57.2 46.4004 57L47.0004 54.7C47.1004 54.4 46.9004 54 46.5004 53.9ZM45.5004 56.3L44.0004 55.9L44.4004 54.5L45.9004 54.9L45.5004 56.3ZM47.0004 45.1L46.4004 42.8C46.3004 42.6 46.2004 42.5 46.1004 42.4C45.9004 42.3 45.8004 42.3 45.7004 42.2L43.4004 42.8C43.2004 42.9 43.1004 43 43.0004 43.1C42.9004 43.3 42.9004 43.4 42.9004 43.6L43.5004 45.9C43.6004 46.1 43.7004 46.2 43.8004 46.3C44.0004 46.4 44.1004 46.4 44.3004 46.4L46.6004 45.8C46.9004 45.8 47.1004 45.4 47.0004 45.1ZM44.4004 45.3L44.0004 43.8L45.5004 43.5L45.9004 44.9L44.4004 45.3ZM47.0004 45.1L46.4004 42.8C46.3004 42.6 46.2004 42.5 46.1004 42.4C45.9004 42.3 45.8004 42.3 45.7004 42.2L43.4004 42.8C43.2004 42.9 43.1004 43 43.0004 43.1C42.9004 43.3 42.9004 43.4 42.9004 43.6L43.5004 45.9C43.6004 46.1 43.7004 46.2 43.8004 46.3C44.0004 46.4 44.1004 46.4 44.3004 46.4L46.6004 45.8C46.9004 45.8 47.1004 45.4 47.0004 45.1ZM44.4004 45.3L44.0004 43.8L45.5004 43.5L45.9004 44.9L44.4004 45.3ZM46.5004 53.9L44.2004 53.3C44.0004 53.3 43.8004 53.3 43.7004 53.4C43.5004 53.5 43.4004 53.6 43.4004 53.8L42.8004 56.1C42.8004 56.3 42.8004 56.5 42.9004 56.6C43.0004 56.8 43.1004 56.9 43.3004 56.9L45.6004 57.5C45.8004 57.5 46.0004 57.5 46.1004 57.4C46.3004 57.3 46.4004 57.2 46.4004 57L47.0004 54.7C47.1004 54.4 46.9004 54 46.5004 53.9ZM45.5004 56.3L44.0004 55.9L44.4004 54.5L45.9004 54.9L45.5004 56.3ZM47.0004 45.1L46.4004 42.8C46.3004 42.6 46.2004 42.5 46.1004 42.4C45.9004 42.3 45.8004 42.3 45.7004 42.2L43.4004 42.8C43.2004 42.9 43.1004 43 43.0004 43.1C42.9004 43.3 42.9004 43.4 42.9004 43.6L43.5004 45.9C43.6004 46.1 43.7004 46.2 43.8004 46.3C44.0004 46.4 44.1004 46.4 44.3004 46.4L46.6004 45.8C46.9004 45.8 47.1004 45.4 47.0004 45.1ZM44.4004 45.3L44.0004 43.8L45.5004 43.5L45.9004 44.9L44.4004 45.3ZM47.0004 45.1L46.4004 42.8C46.3004 42.6 46.2004 42.5 46.1004 42.4C45.9004 42.3 45.8004 42.3 45.7004 42.2L43.4004 42.8C43.2004 42.9 43.1004 43 43.0004 43.1C42.9004 43.3 42.9004 43.4 42.9004 43.6L43.5004 45.9C43.6004 46.1 43.7004 46.2 43.8004 46.3C44.0004 46.4 44.1004 46.4 44.3004 46.4L46.6004 45.8C46.9004 45.8 47.1004 45.4 47.0004 45.1ZM44.4004 45.3L44.0004 43.8L45.5004 43.5L45.9004 44.9L44.4004 45.3Z" fill="#404041"/>
</svg>
