<svg width="131" height="72" viewBox="0 0 131 72" fill="none" xmlns="http://www.w3.org/2000/svg">
<path fill-rule="evenodd" clip-rule="evenodd" d="M91.2003 33.7995C90.8003 32.7995 90.5003 31.8995 90.1003 30.9995C87.9003 25.9995 84.4003 21.8995 80.3003 18.2995C78.9003 17.0995 77.5003 15.8995 75.8003 15.0995C74.9003 14.5995 73.9003 14.3995 72.9003 14.6995C72.6003 14.7995 72.2003 14.8995 71.9003 14.9995L71.2003 15.1995C70.1003 15.4995 69.0003 15.7995 67.9003 16.0995C63.8003 17.2995 59.9003 18.6995 56.0003 20.4995C54.2003 21.2995 52.8003 22.3995 51.8003 24.0995C51.6003 24.3995 51.5003 24.6995 51.3003 24.9995C51.2003 25.1995 51.1003 25.3995 50.9003 25.5995C50.6003 26.0995 50.3003 26.5995 50.0003 27.0995C49.7003 27.6995 49.3003 28.2995 49.0003 28.8995V28.9995C47.7003 31.2995 46.4003 33.6995 44.7003 35.7995C44.1003 36.5995 43.5003 37.3995 43.0003 38.1995L42.5003 38.4995L42.2003 38.8995C41.1003 40.4995 40.2003 42.0995 39.5003 43.9995C39.0003 45.3995 39.0003 46.7995 39.8003 47.9995C40.3003 48.9995 40.9003 49.9995 41.7003 50.7995C42.8003 51.8995 43.9003 52.9995 45.0003 54.0995C45.7003 54.7995 46.4003 55.4996 47.1003 56.1996C47.7003 56.7996 48.4003 57.1996 49.3003 57.1996C50.0003 57.2996 50.7003 57.2996 51.3003 57.3996C51.8003 57.3996 52.3003 57.4995 52.7003 57.4995C53.1003 57.4995 53.5003 57.4995 53.9003 57.5995C54.7003 57.4995 55.4003 57.4996 56.1003 57.3996C57.6003 57.2996 59.0003 57.1995 60.4003 57.0995C62.4003 56.9995 64.3003 56.3995 66.1003 55.5995C67.7003 54.8995 69.4003 54.2995 71.0003 53.7995C71.5003 53.5995 72.1003 53.4995 72.7003 53.5995C74.7003 53.7995 76.6003 53.9995 78.6003 54.2995C80.4003 54.5995 81.9003 54.0996 83.2003 52.6996C83.3003 52.5996 83.4003 52.4995 83.5003 52.2995L83.6003 52.0995C83.8003 51.8995 84.0003 51.5996 84.2003 51.3996C87.0003 47.8996 89.2003 43.9995 90.9003 39.8995C91.9003 37.8995 92.0003 35.7995 91.2003 33.7995ZM88.9003 40.2995C87.1003 44.0995 85.0003 47.6996 82.3003 50.8996C82.2003 51.0996 82.0003 51.1996 81.8003 51.3996C81.7003 51.4996 81.6003 51.5995 81.4003 51.7995C80.9003 52.1995 80.4003 52.5995 79.8003 52.4995C79.2003 52.3995 78.7003 52.3995 78.1003 52.2995C77.4003 52.1995 76.6003 52.0995 75.9003 52.0995C75.3003 51.9995 74.8003 51.8996 74.2003 51.8996C72.6003 51.5996 71.1003 51.6995 69.6003 52.2995C69.0003 52.4995 68.4003 52.7995 67.7003 52.9995C66.9003 53.2995 66.1003 53.5996 65.3003 53.8996C63.5003 54.6996 61.7003 55.0996 59.8003 55.1996C58.9003 55.1996 57.9003 55.2995 57.0003 55.2995C55.4003 55.3995 53.7003 55.4995 52.1003 55.4995C51.4003 55.4995 50.7003 55.3996 50.0003 55.3996H49.7003H49.4003C49.2003 55.3996 49.0003 55.2996 48.8003 55.1996L48.3003 54.6996C46.6003 52.9996 44.8003 51.3996 43.1003 49.6996C42.9003 49.4996 42.7003 49.1995 42.5003 48.9995C42.3003 48.7995 42.2003 48.5996 42.1003 48.3996C42.0003 48.2996 41.9003 48.0995 41.8003 47.9995C41.0003 46.7995 40.9003 45.5995 41.5003 44.3995C42.3003 42.8995 43.1003 41.3995 44.0003 39.8995C44.6003 38.8995 45.3003 37.9995 46.0003 36.9995C47.8003 34.6995 49.2003 32.1995 50.6003 29.6995C50.9003 29.1995 51.1003 28.6995 51.4003 28.1995C51.6003 27.7995 51.8003 27.4995 52.0003 27.0995C52.1003 26.8995 52.3003 26.6995 52.4003 26.3995L52.7003 25.8995C52.8003 25.6995 52.9003 25.4995 53.0003 25.3995L53.2003 24.9995C54.0003 23.6995 55.1003 22.6995 56.6003 22.0995C61.8003 19.8995 67.1003 17.9995 72.6003 16.5995C73.8003 16.2995 74.7003 16.5995 75.7003 17.1995C77.6003 18.3995 79.2003 19.8995 80.8003 21.4995L81.1003 21.7995C84.6003 25.0995 87.1003 28.8995 88.9003 33.2995C90.0003 35.5995 90.1003 37.8995 88.9003 40.2995Z" fill="#404041"/>
<path fill-rule="evenodd" clip-rule="evenodd" d="M57.2012 31.0004C57.2012 31.0004 57.1012 31.1004 57.0012 31.2004C56.9012 31.4004 56.8012 31.5004 56.6012 31.6004C55.3012 32.0004 54.8012 33.0004 54.5012 34.2004C54.3012 35.0004 54.0012 35.8004 53.7012 36.6004L53.5012 37.3004C53.4012 37.8004 53.0012 38.0004 52.5012 38.0004C52.0012 38.0004 51.8012 37.7004 51.7012 37.3004C51.7012 37.1004 51.7012 37.0004 51.7012 36.8004L52.0012 35.9004C52.4012 34.7004 52.8012 33.4004 53.2012 32.2004C53.7012 30.9004 54.8012 30.4004 56.0012 30.0004C56.6012 29.6004 57.2012 30.2004 57.2012 31.0004Z" fill="#404041"/>
<path fill-rule="evenodd" clip-rule="evenodd" d="M79.4012 45.8992C79.0012 46.2992 78.7012 46.5992 78.3012 46.9992C77.9012 47.3992 77.5012 47.7992 77.1012 48.1992C76.4012 48.7992 75.7012 49.2992 74.7012 49.0992C74.2012 48.9992 73.8012 49.0992 73.3012 49.0992H72.7012C72.2012 49.0992 71.7012 49.0992 71.2012 49.0992C70.6012 49.0992 70.2012 48.6992 70.2012 48.1992C70.2012 47.5992 70.6012 47.2992 71.2012 47.1992C72.4012 47.1992 73.5012 47.1992 74.7012 47.1992C75.2012 47.1992 75.5012 47.0992 75.8012 46.6992C76.0012 46.4992 76.2012 46.2992 76.4012 46.0992L76.9012 45.6992C77.1012 45.4992 77.3012 45.2992 77.5012 45.0992C77.7012 44.8992 77.8012 44.7992 78.0012 44.5992C78.5012 44.0992 79.1012 43.9992 79.5012 44.3992C80.0012 44.7992 80.0012 45.2992 79.4012 45.8992Z" fill="#404041"/>
</svg>
