<svg width="131" height="72" viewBox="0 0 131 72" fill="none" xmlns="http://www.w3.org/2000/svg">
<path fill-rule="evenodd" clip-rule="evenodd" d="M90.8992 33.5C90.7992 32.9 90.6992 32.2 90.5992 31.6C89.4992 25.6 86.5992 20.6 81.9992 16.6C78.3992 13.5 74.2992 11.6 69.5992 10.8C68.7992 10.7 67.9992 10.6 67.0992 10.5H63.6992C63.3992 10.5 63.0992 10.6 62.8992 10.6C62.2992 10.7 61.6992 10.8 61.0992 10.9C56.4992 11.7 52.4992 13.6 48.9992 16.6C44.3992 20.5 41.3992 25.4 40.3992 31.3C38.7992 40.4 41.3992 48.2 48.0992 54.6C51.9992 58.4 56.6992 60.6 62.0992 61.3C73.7992 62.8 84.7992 56.3 89.1992 45.4C90.1992 43 90.6992 40.6 90.8992 38.1C90.8992 37.9 90.9992 37.8 90.9992 37.6V34.4C90.9992 34.1 90.8992 33.8 90.8992 33.5ZM86.7992 26.7L77.7992 29.9L77.6992 29.8C77.7992 29 77.3992 28.5 76.7992 28C75.6992 26.9 74.5992 25.8 73.4992 24.7C72.9992 24.2 72.3992 23.6 71.4992 23.8L74.7992 14.7C80.2992 17.2 84.2992 21.2 86.7992 26.7ZM75.4992 30.2C75.4992 34.1 75.4992 38 75.4992 41.9C75.4992 42.1 75.3992 42.4 75.1992 42.5C74.0992 43.6 73.0992 44.7 71.9992 45.7C71.8992 45.8 71.5992 45.9 71.3992 45.9C67.4992 45.9 63.5992 45.9 59.6992 45.9C59.4992 45.9 59.1992 45.8 59.0992 45.6C57.9992 44.5 56.8992 43.5 55.8992 42.4C55.6992 42.2 55.5992 41.9 55.5992 41.7C55.5992 40.2 55.5992 38.7 55.5992 37.2V35.9C55.5992 34 55.5992 32.1 55.5992 30.2C55.5992 30 55.6992 29.8 55.7992 29.6C55.7992 29.5 55.8992 29.5 55.8992 29.4C56.8992 28.3 57.9992 27.3 59.0992 26.2C59.2992 26 59.4992 25.9 59.7992 25.9C63.6992 25.9 67.4992 25.9 71.3992 25.9C71.5992 25.9 71.8992 26 72.0992 26.2C73.1992 27.2 74.2992 28.3 75.2992 29.4C75.2992 29.7 75.4992 30 75.4992 30.2ZM72.6992 13.9L71.9992 15.9C71.0992 18.4 70.1992 21 69.2992 23.5C69.1992 23.8 69.0992 23.8 68.7992 23.8C67.1992 23.8 65.4992 23.8 63.8992 23.8C63.2992 23.8 62.7992 23.8 62.1992 23.8C61.9992 23.8 61.7992 23.6 61.6992 23.5C60.5992 20.3 59.3992 17.2 58.2992 13.9C63.0992 12.4 67.8992 12.4 72.6992 13.9ZM56.1992 14.7L59.4992 23.8C58.4992 23.6 57.9992 24.2 57.4992 24.8C57.3992 24.9 57.2992 25 57.1992 25.1C56.5992 25.7 55.8992 26.4 55.2992 27C54.9992 27.3 54.6992 27.6 54.3992 27.9C53.7992 28.5 53.3992 29.2 53.2992 30L44.1992 26.8C46.6992 21.2 50.6992 17.2 56.1992 14.7ZM43.3992 28.8L45.5992 29.6L46.7992 30L48.1992 30.5C49.7992 31.1 51.3992 31.6 52.8992 32.2C53.0992 32.3 53.1992 32.3 53.1992 32.4C53.2992 32.5 53.2992 32.6 53.2992 32.8C53.2992 34.9 53.2992 37.1 53.2992 39.3V39.4C53.2992 39.6 53.1992 39.7 52.9992 39.8C50.3992 40.7 47.8992 41.6 45.1992 42.6L43.2992 43.3C41.7992 38.4 41.8992 33.6 43.3992 28.8ZM44.1992 45.3L53.3992 42C53.1992 43 53.6992 43.5 54.2992 44C54.3992 44.1 54.4992 44.2 54.4992 44.2C55.3992 45.1 56.2992 46 57.1992 46.9L57.3992 47.1C57.4992 47.2 57.4992 47.3 57.5992 47.3C58.0992 47.8 58.5992 48.4 59.5992 48.2L56.2992 57.4C50.6992 54.8 46.6992 50.8 44.1992 45.3ZM72.6992 58.2C67.8992 59.7 63.1992 59.7 58.2992 58.2L60.6992 51.6C61.0992 50.6 61.3992 49.6 61.6992 48.7C61.7992 48.4 61.8992 48.3 62.1992 48.3H68.6992C68.9992 48.3 69.0992 48.4 69.1992 48.6C69.9992 50.9 70.8992 53.3 71.6992 55.6L72.5992 58.1L72.6992 58.2ZM74.7992 57.3L71.4992 48.2C72.3992 48.4 72.9992 47.9 73.4992 47.3C73.5992 47.2 73.5992 47.2 73.6992 47.1C74.6992 46.1 75.5992 45.2 76.5992 44.2C76.6992 44.1 76.7992 44 76.7992 44C77.2992 43.5 77.8992 43 77.6992 42L86.8992 45.3C84.2992 50.8 80.2992 54.8 74.7992 57.3ZM87.5992 43.2L79.9992 40.5L79.3992 40.3C78.9992 40.2 78.5992 40 78.0992 39.8C77.8992 39.7 77.6992 39.6 77.6992 39.3V36.3C77.6992 35.1 77.6992 33.9 77.6992 32.7C77.6992 32.6 77.7992 32.5 77.7992 32.4C77.7992 32.3 77.8992 32.3 77.9992 32.3C80.8992 31.2 83.7992 30.2 86.7992 29.1L87.4992 28.8C87.4992 28.8 87.5992 28.8 87.6992 28.8C89.0992 33.6 89.0992 38.4 87.5992 43.2Z" fill="#404041"/>
</svg>
