<svg width="131" height="72" viewBox="0 0 131 72" fill="none" xmlns="http://www.w3.org/2000/svg">
<path fill-rule="evenodd" clip-rule="evenodd" d="M89.5004 41.2996L70.7004 60.0996C71.0004 58.9996 71.3004 57.7996 71.6004 56.6996C72.0004 55.0996 72.5004 53.4996 72.9004 51.8996C72.9004 51.7996 73.0004 51.6996 73.0004 51.5996C73.1004 51.2996 73.0004 50.9996 72.8004 50.7996C72.7004 50.6996 72.6004 50.5996 72.4004 50.5996C72.0004 50.4996 71.5004 50.6996 71.4004 51.1996C71.1004 52.2996 70.8004 53.3996 70.5004 54.4996L69.6004 57.5996L68.4004 61.8996C68.4004 62.0996 68.3004 62.1996 68.3004 62.3996C67.3004 62.3996 66.3004 62.3996 65.3004 62.3996C64.5004 62.3996 63.7004 62.3996 62.9004 62.3996C62.6004 62.3996 62.5004 62.1996 62.5004 61.8996C61.8004 59.3996 61.1004 56.7996 60.4004 54.2996L59.2004 50.0996L57.9004 45.3996C63.0004 44.1996 68.0004 44.1996 73.0004 45.3996L72.7004 46.3996C72.6004 46.6996 72.6004 46.8996 72.5004 47.1996C72.3004 47.7996 72.5004 48.2996 73.0004 48.3996C73.3004 48.4996 73.6004 48.3996 73.8004 48.1996C73.9004 48.0996 74.0004 47.8996 74.1004 47.6996C74.2004 47.2996 74.3004 46.8996 74.4004 46.4996C74.5004 46.1996 74.6004 45.9996 74.6004 45.6996C74.7004 45.4996 74.8004 45.2996 75.0004 45.2996C79.7004 43.9996 84.5004 42.5996 89.2004 41.2996H89.3004C89.5004 41.1996 89.5004 41.1996 89.5004 41.2996Z" fill="#404041"/>
<path fill-rule="evenodd" clip-rule="evenodd" d="M57.7988 28.2988C62.9988 29.4988 68.0988 29.4988 73.2988 28.2988C71.9988 33.4988 71.9988 38.4988 73.1988 43.6988C68.0988 42.4988 62.9988 42.4988 57.7988 43.6988C58.9988 38.5988 58.9988 33.4988 57.7988 28.2988Z" fill="#404041"/>
<path fill-rule="evenodd" clip-rule="evenodd" d="M74.9 43.5004C73.7 38.5004 73.7 33.5004 74.9 28.4004L77.4 29.1004C79.4 29.6004 81.3 30.2004 83.3 30.7004C86 31.5004 88.7 32.2004 91.4 33.0004C91.7 33.1004 91.9 33.2004 91.9 33.6004C91.9 35.2004 91.9 36.8004 91.9 38.4004C91.9 38.7004 91.9 38.9004 91.5 39.0004C87.1 40.2004 82.7 41.4004 78.4 42.6004L74.9 43.5004C75 43.5004 75 43.5004 74.9 43.5004Z" fill="#404041"/>
<path fill-rule="evenodd" clip-rule="evenodd" d="M73.0004 26.4996C68.0004 27.7996 63.0004 27.7996 57.9004 26.5996L60.1004 18.6996L60.6004 16.8996C61.2004 14.5996 61.9004 12.3996 62.5004 10.0996C62.6004 9.79961 62.7004 9.59961 63.1004 9.59961C64.7004 9.59961 66.3004 9.59961 67.9004 9.59961C68.2004 9.59961 68.4004 9.59961 68.5004 9.99961C69.7004 14.2996 70.9004 18.4996 72.0004 22.7996L73.0004 26.4996Z" fill="#404041"/>
<path fill-rule="evenodd" clip-rule="evenodd" d="M55.9996 28.5C57.2996 33.5 57.2996 38.5 56.0996 43.6C53.3996 42.8 50.7996 42.1 48.0996 41.4C46.5996 41 44.9996 40.5 43.4996 40.1C42.1996 39.7 40.8996 39.4 39.5996 39C39.2996 38.9 39.0996 38.8 39.0996 38.4C39.0996 36.8 39.0996 35.2 39.0996 33.6C39.0996 33.3 39.0996 33.1 39.4996 33C44.9996 31.5 50.4996 30 55.9996 28.5Z" fill="#404041"/>
<path fill-rule="evenodd" clip-rule="evenodd" d="M60.3004 59.9992L41.4004 41.1992L41.9004 41.2992C42.2004 41.3992 42.6004 41.4992 42.9004 41.5992C47.2004 42.7992 51.5004 43.9992 55.8004 45.1992C56.1004 45.2992 56.3004 45.3992 56.4004 45.7992C57.7004 50.4992 59.0004 55.0992 60.3004 59.7992C60.2004 59.7992 60.2004 59.8992 60.3004 59.9992Z" fill="#404041"/>
<path fill-rule="evenodd" clip-rule="evenodd" d="M70.7988 12.1C70.7988 12 70.7988 12 70.7988 12L89.5988 30.8H89.4988C89.3988 30.8 89.2988 30.8 89.1988 30.7L81.6988 28.6C79.5988 28 77.4988 27.4 75.3988 26.8C75.0988 26.7 74.8988 26.6 74.7988 26.2C73.8988 22.8 72.8988 19.4 71.9988 16.1L70.7988 12.1Z" fill="#404041"/>
</svg>
