<svg width="131" height="72" viewBox="0 0 131 72" fill="none" xmlns="http://www.w3.org/2000/svg">
<path fill-rule="evenodd" clip-rule="evenodd" d="M85.4992 17.1004C85.4992 16.5004 85.2992 16.2004 84.7992 16.0004L81.6992 14.6004L78.7992 13.3004C76.9992 12.5004 75.2992 11.7004 73.4992 10.9004C70.9992 9.80039 68.5992 8.70039 66.0992 7.60039C65.7992 7.50039 65.3992 7.50039 65.0992 7.60039C61.2992 9.30039 57.5992 10.9004 53.8992 12.6004C51.3992 13.7004 48.8992 14.8004 46.3992 15.9004C45.7992 16.2004 45.6992 16.6004 45.6992 17.1004C45.6992 23.3004 45.6992 29.6004 45.6992 35.8004V40.2004C45.6992 45.0004 45.6992 49.7004 45.6992 54.4004C45.6992 55.2004 45.8992 55.6004 46.6992 55.9004C52.7992 58.6004 58.7992 61.3004 64.8992 64.0004C65.0992 64.1004 65.3992 64.2004 65.5992 64.2004C65.8992 64.2004 66.1992 64.2004 66.4992 64.0004C72.5992 61.3004 78.6992 58.5004 84.8992 55.8004C85.3992 55.6004 85.6992 55.2004 85.6992 54.6004C85.6992 50.2004 85.6992 45.7004 85.6992 41.3004C85.4992 33.4004 85.4992 25.2004 85.4992 17.1004ZM70.5992 11.6004L80.2992 15.9004C78.9992 16.0004 77.7992 16.0004 76.4992 16.0004C75.6992 16.0004 75.0992 15.8004 74.4992 15.2004C73.1992 14.0004 71.7992 12.8004 70.4992 11.6004H70.5992ZM65.4992 9.50039L72.7992 16.0004H58.1992L65.4992 9.50039ZM74.1992 17.8004V54.2004H56.7992V17.8004H74.1992ZM60.3992 11.6004L60.4992 11.7004L60.3992 11.8004C60.2992 11.9004 60.1992 12.0004 60.0992 12.1004C59.8992 12.3004 59.6992 12.5004 59.3992 12.7004C59.1992 12.9004 58.8992 13.1004 58.6992 13.3004C58.5992 13.4004 58.3992 13.5004 58.2992 13.7004C57.9992 14.0004 57.6992 14.3004 57.3992 14.6004C56.2992 15.8004 54.9992 16.3004 53.3992 16.1004C52.9992 16.1004 52.6992 16.0004 52.2992 16.0004C52.0992 16.0004 51.7992 16.0004 51.4992 16.0004H50.9992C50.8992 16.0004 50.7992 16.0004 50.5992 16.0004V15.9004L60.3992 11.6004ZM47.2992 17.8004H54.9992V54.3004H47.1992L47.2992 17.8004ZM60.3992 60.4004L50.6992 56.1004C51.4992 56.0004 52.1992 56.0004 52.9992 56.0004C53.4992 56.0004 53.8992 56.0004 54.3992 56.0004C55.2992 55.9004 55.8992 56.2004 56.4992 56.8004C57.7992 58.0004 59.0992 59.2004 60.3992 60.4004ZM65.4992 62.5004L58.1992 56.0004H72.7992L65.4992 62.5004ZM70.5992 60.4004L70.6992 60.1004L70.8992 60.0004C70.8992 59.9004 70.9992 59.9004 70.9992 59.9004C72.0992 58.9004 73.1992 58.0004 74.1992 57.0004C74.9992 56.2004 75.7992 55.9004 76.9992 56.0004C77.7992 56.1004 78.4992 56.0004 79.2992 56.0004C79.5992 56.0004 79.9992 56.0004 80.2992 56.0004V56.1004L70.5992 60.4004ZM83.6992 54.2004H75.9992V17.8004H83.7992V54.2004H83.6992Z" fill="#404041"/>
<path fill-rule="evenodd" clip-rule="evenodd" d="M50.0984 31.8996C50.0984 32.2996 50.0984 32.7996 50.0984 33.1996C50.0984 33.6996 49.7984 33.9996 49.1984 33.9996C48.6984 33.9996 48.3984 33.6996 48.3984 33.1996C48.3984 32.6996 48.3984 32.1996 48.3984 31.7996V31.3996C48.3984 31.0996 48.3984 30.6996 48.3984 30.3996C48.3984 29.8996 48.6984 29.5996 49.1984 29.5996C49.6984 29.5996 50.0984 29.8996 50.0984 30.4996C50.0984 30.8996 50.0984 31.3996 50.0984 31.8996Z" fill="#404041"/>
</svg>
