<svg width="131" height="72" viewBox="0 0 131 72" fill="none" xmlns="http://www.w3.org/2000/svg">
<path fill-rule="evenodd" clip-rule="evenodd" d="M92.4004 33.5998C92.3004 29.9998 92.0004 26.3998 91.6004 22.6998C91.4004 20.8998 91.1004 19.1998 90.8004 17.3998C90.6004 16.3998 90.4004 15.2998 90.3004 14.1998C90.1004 12.5998 89.2004 11.3998 87.0004 11.0998C85.9004 10.8998 84.8004 10.7998 83.8004 10.5998C81.8004 10.2998 79.7004 9.89984 77.7004 9.69984C72.3004 8.99984 66.9004 8.79984 61.6004 9.09984C58.2004 9.29984 55.0004 9.49984 51.7004 9.89984C49.4004 10.1998 47.1004 10.5998 44.7004 10.9998C44.2004 11.0998 43.7004 11.1998 43.2004 11.2998C41.8004 11.4998 40.9004 12.3998 40.7004 13.7998L40.5004 15.0998C40.1004 17.5998 39.6004 20.0998 39.3004 22.4998C39.1004 24.5998 38.9004 26.6998 38.7004 28.8998C38.6004 29.8998 38.6004 30.7998 38.5004 31.7998C38.5004 31.9998 38.4004 32.1998 38.4004 32.3998V39.8998V40.5998C38.5004 41.3998 38.5004 42.1998 38.6004 42.9998C38.6004 43.1998 38.6004 43.3998 38.6004 43.5998C38.7004 44.0998 39.1004 44.3998 39.5004 44.3998C40.0004 44.3998 40.3004 43.9998 40.2004 43.4998C40.2004 42.9998 40.1004 42.4998 40.1004 41.9998C39.8004 37.5998 39.9004 33.1998 40.2004 28.6998C40.5004 24.4998 41.0004 20.2998 41.8004 16.0998C41.8004 15.9998 41.9004 15.7998 41.9004 15.5998L42.6004 17.5998C42.8004 18.2998 43.1004 18.9998 43.3004 19.5998C45.2004 24.8998 47.0004 30.1998 48.9004 35.4998C49.0004 35.7998 49.0004 36.1998 48.9004 36.4998C46.6004 42.9998 44.4004 49.4998 42.1004 55.9998C42.1004 56.0998 42.0004 56.1998 42.0004 56.2998L41.9004 56.5998C41.8004 56.2998 41.8004 56.0998 41.7004 55.7998C41.6004 55.2998 41.5004 54.7998 41.4004 54.3998C41.2004 52.6998 40.9004 50.8998 40.7004 49.1998L40.5004 47.2998C40.4004 46.6998 40.0004 46.2998 39.6004 46.3998C39.3004 46.4998 39.0004 46.8998 39.1004 47.4998L39.4004 49.2998C39.8004 52.1998 40.3004 55.0998 40.7004 57.9998C40.9004 59.5998 41.9004 60.4998 43.5004 60.7998C47.1004 61.3998 50.7004 61.9998 54.4004 62.3998C55.8004 62.5998 57.3004 62.6998 58.7004 62.7998C59.4004 62.7998 60.1004 62.8998 60.7004 62.8998C60.9004 62.8998 61.1004 62.8998 61.2004 62.8998C61.4004 62.8998 61.6004 62.8998 61.7004 62.9998H69.1004C69.4004 62.9998 69.6004 62.9998 69.9004 62.8998C70.5004 62.8998 71.1004 62.7998 71.7004 62.7998C75.4004 62.3998 79.1004 61.9998 82.7004 61.5998C84.2004 61.3998 85.7004 61.0998 87.3004 60.7998L87.7004 60.6998C88.9004 60.3998 89.8004 59.5998 90.0004 58.3998C90.5004 55.3998 91.1004 52.4998 91.5004 49.4998C92.4004 44.1998 92.6004 38.8998 92.4004 33.5998ZM87.8004 13.6998L80.5004 34.4998C80.3004 34.2998 80.2004 34.1998 80.0004 34.0998C79.0004 33.0998 78.1004 32.1998 77.1004 31.1998L76.1004 30.1998C76.0004 30.0998 75.9004 29.8998 75.7004 29.7998C75.3004 29.5998 75.0004 29.5998 74.7004 29.8998C74.4004 30.1998 74.4004 30.5998 74.7004 30.8998C74.9004 31.0998 75.1004 31.3998 75.4004 31.5998C75.5004 31.6998 75.6004 31.7998 75.6004 31.7998C76.5004 32.6998 77.4004 33.5998 78.4004 34.4998L79.7004 35.7998L65.5004 49.9998L51.5004 35.9998L65.6004 21.8998L65.7004 21.9998C65.8004 22.0998 65.9004 22.1998 66.0004 22.2998L71.9004 28.1998C72.0004 28.2998 72.1004 28.3998 72.2004 28.4998C72.6004 28.6998 72.9004 28.6998 73.3004 28.3998C73.6004 28.0998 73.6004 27.6998 73.4004 27.3998C73.3004 27.2998 73.2004 27.1998 73.1004 27.0998L73.0004 26.9998C71.2004 25.1998 69.3004 23.2998 67.5004 21.4998C67.4004 21.3998 67.3004 21.3998 67.2004 21.2998C67.1004 21.2998 67.1004 21.2998 67.0004 21.1998L67.1004 20.9998L87.8004 13.6998ZM85.9004 12.6998L85.4004 12.8998C85.1004 12.9998 84.8004 13.0998 84.4004 13.2998L80.2004 14.7998C75.5004 16.3998 70.8004 18.0998 66.1004 19.6998C65.6004 19.8998 65.2004 19.8998 64.8004 19.6998C59.9004 17.9998 55.1004 16.2998 50.2004 14.5998L45.7004 12.9998C45.6004 12.9998 45.5004 12.8998 45.4004 12.8998L45.0004 12.6998C58.7004 9.99984 72.3004 9.99984 85.9004 12.6998ZM43.2004 13.6998L63.9004 20.9998L50.5004 34.3998L43.2004 13.6998ZM43.2004 58.2998L50.4004 37.6998L63.8004 51.0998L43.2004 58.2998ZM45.1004 59.2998C45.8004 59.0998 46.5004 58.7998 47.2004 58.4998L48.1004 58.1998C53.7004 56.1998 59.3004 54.2998 64.9004 52.2998C65.2004 52.1998 65.7004 52.1998 66.0004 52.2998C69.3004 53.3998 72.6004 54.5998 75.8004 55.6998C79.0004 56.7998 82.3004 57.9998 85.5004 59.0998C85.6004 59.0998 85.6004 59.1998 85.7004 59.1998C85.8004 59.1998 85.8004 59.2998 85.9004 59.2998C72.3004 62.0998 58.7004 62.0998 45.1004 59.2998ZM67.1004 51.0998L80.5004 37.6998L87.7004 58.3998L67.1004 51.0998ZM88.8004 56.3998L88.3004 54.8998C87.9004 53.8998 87.6004 52.8998 87.2004 51.8998L86.6004 50.0998C85.0004 45.5998 83.4004 41.0998 81.9004 36.5998C81.8004 36.2998 81.8004 35.8998 81.9004 35.5998C84.2004 29.0998 86.5004 22.4998 88.7004 15.9998C88.7004 15.8998 88.8004 15.7998 88.8004 15.6998C91.5004 29.1998 91.5004 42.7998 88.8004 56.3998Z" fill="#404041"/>
</svg>
