<svg width="131" height="72" viewBox="0 0 131 72" fill="none" xmlns="http://www.w3.org/2000/svg">
<path fill-rule="evenodd" clip-rule="evenodd" d="M87.7996 39.6997C87.2996 35.6997 85.8996 31.8997 83.8996 28.2997C83.2996 27.1997 82.6996 27.0997 81.6996 27.7997C81.0996 28.2997 80.3996 28.7997 79.7996 29.1997C78.0996 30.4997 76.2996 31.7997 74.5996 33.0997C74.1996 33.3997 73.8995 33.4997 73.3995 33.1997C71.2995 31.8997 69.1996 30.4997 67.0996 29.1997C66.6996 28.9997 66.5996 28.6997 66.5996 28.1997C66.5996 23.3997 66.5996 18.5997 66.5996 13.7997V9.49967L66.7996 9.59967C66.8996 9.69967 66.8996 9.69967 66.9996 9.69967C71.4996 13.9997 75.4996 18.5997 78.8996 23.6997C79.0996 23.8997 79.1996 24.1997 79.4996 24.3997C79.8996 24.7997 80.3996 24.6997 80.7996 24.3997C81.1996 24.0997 81.3996 23.6997 81.1996 23.1997C81.0996 22.9997 80.9996 22.7997 80.7996 22.5997C76.8996 16.6997 72.1995 11.3997 66.8995 6.59967C65.6995 5.49967 65.4996 5.49967 64.2996 6.49967C59.7996 10.2997 55.8996 14.6997 52.4996 19.4997C48.9996 24.4997 45.9996 29.5997 44.2996 35.2997C43.0996 39.0997 42.5996 42.9997 43.1996 46.8997C43.9996 51.9997 46.2996 56.1997 50.0996 59.5997C55.4996 64.4997 61.6995 66.7997 68.8995 65.5997C80.9995 63.6997 89.4996 52.5997 87.7996 39.6997ZM64.3995 9.49967V10.2997C64.3995 16.2997 64.3995 22.2997 64.3995 28.2997C64.3995 28.7997 64.2996 29.0997 63.8996 29.2997C62.7996 29.9997 61.6996 30.6997 60.5996 31.2997C59.4996 31.9997 58.4996 32.5997 57.3996 33.2997C57.1996 33.3997 56.7996 33.4997 56.6996 33.2997C54.6996 31.7997 52.7996 30.3997 50.7996 28.8997L49.7996 28.1997C49.7996 28.1997 49.7996 28.1997 49.6996 28.0997L49.5996 27.9997C53.4996 21.0997 58.5995 15.0997 64.3995 9.49967ZM49.9996 56.4997L56.9996 51.1997L58.4996 52.1997C60.3996 53.3997 62.1996 54.4997 64.0996 55.6997C64.1996 55.7997 64.3995 55.9997 64.3995 56.0997C64.3995 58.5997 64.3995 61.1997 64.3995 63.7997C58.5995 63.2997 53.7996 60.8997 49.9996 56.4997ZM64.9996 53.6997C63.5996 52.7997 62.1996 51.8997 60.7996 51.0997C59.9996 50.5997 59.1996 50.0997 58.3996 49.5997C57.9996 49.3997 57.8996 49.0997 57.8996 48.7997C57.8996 45.9997 57.8996 43.1997 57.8996 40.3997C57.8996 39.4997 56.9996 38.8997 56.2996 39.3997C55.9996 39.5997 55.7996 40.0997 55.7996 40.4997C55.7996 43.1997 55.7996 45.9997 55.7996 48.6997C55.7996 48.8997 55.7996 49.1997 55.6996 49.2997C55.5996 49.4997 55.4996 49.5997 55.2996 49.6997C54.0996 50.5997 52.8996 51.4997 51.5996 52.3997C50.7996 52.9997 49.8996 53.6997 49.0996 54.2997C48.8996 54.3997 48.6996 54.5997 48.4996 54.6997C46.9996 52.4997 45.9996 49.9997 45.5996 47.3997C44.5996 41.3997 45.8996 35.6997 48.5996 30.2997L48.6996 30.1997C48.6996 30.1997 48.6996 30.1997 48.7996 30.0997L50.3996 31.2997L52.1996 32.6997C53.4996 33.6997 54.6996 34.5997 55.9996 35.5997C56.7996 36.1997 57.0996 36.1997 57.8996 35.6997C60.2996 34.1997 62.6996 32.6997 65.0996 31.1997C65.3996 30.9997 65.6996 30.9997 65.9996 31.1997C68.1996 32.5997 70.3996 33.9997 72.5996 35.2997C72.9996 35.4997 73.0996 35.6997 73.0996 36.0997C73.0996 40.2997 73.0996 44.5997 73.0996 48.7997C73.0996 49.1997 72.9996 49.3997 72.5996 49.5997C70.3996 50.8997 68.1996 52.2997 65.9996 53.6997C65.5996 53.8997 65.3996 53.8997 64.9996 53.6997ZM83.1996 53.3997C82.9996 53.6997 82.8996 53.9997 82.6996 54.2997L82.5996 54.4997C82.5996 54.4997 82.4996 54.5997 82.4996 54.6997L82.3996 54.7997C82.0996 54.5997 81.7996 54.2997 81.4996 54.0997C80.6996 53.4997 79.9996 52.9997 79.1996 52.3997C78.8996 52.1997 78.3996 51.9997 78.0996 52.0997C77.7996 52.1997 77.3996 52.5997 77.2996 52.8997C77.2996 53.0997 77.2996 53.2997 77.3996 53.4997C77.4996 53.6997 77.5996 53.8997 77.6996 53.9997C78.0996 54.2997 78.3996 54.5997 78.7996 54.8997C79.2996 55.2997 79.7996 55.5997 80.2996 55.9997C80.4996 56.1997 80.7996 56.2997 80.9996 56.5997C77.0996 60.9997 72.3996 63.3997 66.4996 63.7997V62.9997C66.4996 60.8997 66.4996 58.6997 66.4996 56.5997C66.4996 56.0997 66.6996 55.7997 67.0996 55.4997C69.4996 53.9997 71.7995 52.4997 74.1995 51.0997C74.7995 50.6997 75.0996 50.2997 75.0996 49.4997C75.0996 46.2997 75.0996 43.1997 75.0996 39.9997C75.0996 38.6997 75.0996 37.3997 75.0996 36.0997C75.0996 35.5997 75.2996 35.2997 75.5996 35.0997C77.7996 33.4997 79.9996 31.7997 82.2996 30.0997C83.6996 32.9997 84.7996 35.8997 85.2996 38.9997C86.3996 43.9997 85.7996 48.8997 83.1996 53.3997Z" fill="#404041"/>
</svg>
