<svg width="131" height="72" viewBox="0 0 131 72" fill="none" xmlns="http://www.w3.org/2000/svg">
<path fill-rule="evenodd" clip-rule="evenodd" d="M86.5004 40.4004C86.5004 38.9004 86.5004 37.4004 86.5004 35.9004C86.5004 34.6004 86.5004 33.4004 86.5004 32.1004C86.5004 27.0004 86.5004 21.9004 86.5004 16.8004C86.5004 16.2004 86.4004 15.8004 85.8004 15.5004C83.1004 14.4004 80.5004 13.2004 77.8004 12.1004C73.9004 10.5004 70.0004 8.80039 66.0004 7.10039C65.7004 7.00039 65.2004 7.00039 64.9004 7.10039C60.4004 9.00039 55.9004 10.9004 51.5004 12.9004C49.4004 13.8004 47.3004 14.7004 45.2004 15.6004C44.7004 15.8004 44.4004 16.2004 44.4004 16.7004C44.4004 29.5004 44.4004 42.4004 44.4004 55.2004C44.4004 55.8004 44.7004 56.2004 45.2004 56.4004C51.7004 59.2004 58.1004 61.9004 64.5004 64.7004C65.1004 65.0004 65.6004 64.9004 66.2004 64.7004C72.6004 61.9004 79.0004 59.2004 85.3004 56.4004C86.1004 56.1004 86.3004 55.6004 86.3004 54.9004C86.5004 50.1004 86.5004 45.3004 86.5004 40.4004ZM70.9004 11.1004C72.9004 12.0004 74.9004 12.8004 76.9004 13.7004C78.3004 14.3004 79.7004 14.9004 81.1004 15.5004V15.6004C80.8004 15.6004 80.5004 15.6004 80.2004 15.6004C79.6004 15.6004 78.9004 15.6004 78.3004 15.6004C76.6004 15.8004 75.3004 15.3004 74.1004 14.1004C73.5004 13.5004 72.8004 12.9004 72.2004 12.4004C71.9004 12.2004 71.6004 11.9004 71.3004 11.6004C71.2004 11.5004 71.1004 11.4004 71.0004 11.3004C71.0004 11.3004 70.9004 11.2004 70.8004 11.2004L70.9004 11.1004ZM65.5004 9.00039L66.5004 9.90039C68.7004 11.8004 70.9004 13.7004 73.1004 15.6004H57.8004C59.4004 14.2004 61.0004 12.8004 62.6004 11.4004C63.6004 10.6004 64.5004 9.80039 65.5004 9.00039ZM55.9004 12.9004C57.3004 12.3004 58.7004 11.7004 60.1004 11.1004L60.2004 11.2004C59.8004 11.5004 59.4004 11.9004 59.0004 12.3004C58.0004 13.2004 57.0004 14.0004 56.0004 14.9004C55.4004 15.5004 54.7004 15.7004 53.9004 15.7004C53.4004 15.7004 52.9004 15.7004 52.4004 15.7004C51.6004 15.7004 50.8004 15.7004 49.9004 15.6004C51.9004 14.6004 53.9004 13.8004 55.9004 12.9004ZM60.1004 60.9004L49.9004 56.5004C49.9004 56.4004 49.9004 56.4004 49.9004 56.4004C50.3004 56.4004 50.6004 56.4004 51.0004 56.4004C51.8004 56.4004 52.6004 56.4004 53.5004 56.4004C54.7004 56.3004 55.6004 56.6004 56.4004 57.5004C57.1004 58.2004 57.9004 58.9004 58.7004 59.6004C59.1004 59.9004 59.4004 60.2004 59.7004 60.5004C59.8004 60.6004 59.9004 60.7004 60.0004 60.8004C60.1004 60.8004 60.1004 60.9004 60.2004 60.9004C60.2004 60.8004 60.2004 60.9004 60.1004 60.9004ZM65.5004 63.0004C64.1004 61.8004 62.7004 60.6004 61.3004 59.4004C60.2004 58.4004 59.0004 57.4004 57.8004 56.4004H73.1004C70.5004 58.7004 68.0004 60.8004 65.5004 63.0004ZM76.0004 58.7004C74.3004 59.4004 72.6004 60.2004 70.9004 60.9004L70.8004 60.8004C71.2004 60.5004 71.6004 60.1004 72.0004 59.8004C73.0004 58.9004 74.0004 58.1004 74.9004 57.2004C75.6004 56.6004 76.2004 56.4004 77.1004 56.4004C77.6004 56.4004 78.1004 56.4004 78.6004 56.4004C79.4004 56.4004 80.2004 56.4004 81.0004 56.5004C79.4004 57.2004 77.7004 58.0004 76.0004 58.7004ZM84.7004 54.6004H76.5004L74.6004 52.8004V54.6004H56.4004V52.8004L54.5004 54.6004H46.4004L54.5004 36.0004L46.4004 17.4004H54.5004L56.4004 19.7004V17.4004H74.6004V19.7004L76.5004 17.4004H84.7004L76.5004 36.0004L84.7004 54.6004Z" fill="#404041"/>
<path fill-rule="evenodd" clip-rule="evenodd" d="M74.6004 19.7012V52.8012L65.5004 43.8012L56.4004 52.8012V19.7012L65.5004 31.0012L74.6004 19.7012Z" fill="#404041"/>
</svg>
