<svg width="131" height="72" viewBox="0 0 131 72" fill="none" xmlns="http://www.w3.org/2000/svg">
<path d="M77.8996 43.6992H76.0996V45.4992H77.8996V43.6992Z" fill="#404041"/>
<path fill-rule="evenodd" clip-rule="evenodd" d="M77.9 41.6996V41.4996V41.3996V26.5996C77.9 23.6996 77.9 20.8996 77.9 17.9996C77.9 17.7996 77.8 17.4996 77.6 17.2996C76.7 16.4996 75.8 15.7996 74.9 14.9996L74.1 14.2996L65.5 7.09961L62.7 9.39961C61 10.7996 59.3 12.2996 57.6 13.6996C56.2 14.8996 54.8 15.9996 53.5 17.1996C53.1 17.4996 53 17.8996 53 18.2996C53 23.6996 53 29.0996 53 34.3996V42.5996C53 46.2996 53 49.9996 53 53.6996C53 54.1996 53.1 54.5996 53.5 54.8996C55.5 56.5996 57.5 58.2996 59.5 59.9996L61.9 62.0996C62.6 62.6996 63.4 63.2996 64.1 63.8996L65.4 64.9996L67.4 63.2996C70.8 60.3996 74.2 57.4996 77.6 54.6996C77.7 54.5996 77.8 54.4996 77.8 54.2996C77.8 54.1996 77.8 54.0996 77.8 54.0996C77.8 53.3996 77.8 52.7996 77.8 52.0996V47.8996C77.8 47.7996 77.8 47.7996 77.8 47.6996H76V52.2996L72.3 51.4996V20.4996L76.1 19.8996V41.7996L77.9 41.6996ZM64.8 10.0996C64.8 10.1996 64.8 10.1996 64.7 10.1996V10.2996C64.7 10.3996 64.6 10.4996 64.6 10.4996L63.1 12.7996C61.9 14.5996 60.7 16.3996 59.6 18.0996C59.4 18.3996 59.2 18.4996 58.8 18.3996C57.8 18.1996 56.8 18.0996 55.6 17.8996L64.8 10.0996ZM55 19.7996L58.7 20.3996V30.0996H60.7V20.5996H70.2V51.2996H60.7V32.1996H58.7V51.4996L55 52.1996V19.7996ZM64.7 61.7996L55.6 54.0996L56.4 53.9996C56.9 53.8996 57.3 53.8996 57.7 53.7996C58.2 53.6996 58.6 53.6996 59.1 53.5996C59.2 53.5996 59.4 53.6996 59.4 53.7996C61.2 56.4996 62.9 59.0996 64.7 61.7996C64.8 61.6996 64.7 61.6996 64.7 61.7996ZM61.6 53.3996H69.5L65.6 59.2996L61.6 53.3996ZM72.7 53.5996C72.9 53.5996 73.1 53.6996 73.3 53.6996C74 53.7996 74.7 53.8996 75.5 54.0996L66.4 61.7996L66.3 61.6996L67.2 60.3996C68.4 58.6996 69.5 56.8996 70.7 55.1996C71 54.6996 71.4 54.1996 71.7 53.6996C71.7 53.5996 71.9 53.5996 72 53.4996C72.1 53.4996 72.2 53.3996 72.3 53.3996C72.3 53.4996 72.5 53.4996 72.7 53.5996ZM74.6 18.0996C73.7 18.2996 72.9 18.3996 72 18.4996C71.9 18.4996 71.9 18.4996 71.8 18.3996C71.7 18.3996 71.7 18.2996 71.6 18.2996L71.5 18.1996C71.4 17.9996 71.3 17.7996 71.1 17.6996C71 17.4996 70.8 17.2996 70.7 16.9996L70.2 16.2996L69.7 15.5996L68.7 16.2996L68.1 16.6996L69.4 18.6996H61.5L65.4 12.7996L66.9 15.0996L68.5 13.9996L66.1 10.3996L66.2 10.2996L75.3 17.9996L74.6 18.0996Z" fill="#404041"/>
<path d="M64.4996 22.5996H62.5996V24.4996H64.4996V22.5996Z" fill="#404041"/>
</svg>
