<svg width="131" height="72" viewBox="0 0 131 72" fill="none" xmlns="http://www.w3.org/2000/svg">
<path fill-rule="evenodd" clip-rule="evenodd" d="M88.9996 25.4008C88.9996 23.6008 88.1996 22.2008 86.5996 21.3008C83.0996 19.3008 79.6996 17.3008 76.2996 15.3008C73.2996 13.6008 70.3996 11.8008 67.3996 10.1008C65.7996 9.20078 64.1996 9.20078 62.5996 10.1008L61.1996 10.9008C55.2996 14.3008 49.4996 17.7008 43.5996 21.1008C41.8996 22.1008 41.0996 23.5008 41.0996 25.5008C41.0996 29.5008 41.0996 33.6008 41.0996 37.6008C41.0996 40.5008 41.0996 43.4008 41.0996 46.3008C41.0996 48.3008 41.8996 49.7008 43.5996 50.7008C46.0996 52.1008 48.5996 53.6008 51.0996 55.0008C53.8996 56.6008 56.6996 58.3008 59.4996 59.9008C59.8996 60.1008 60.2996 60.4008 60.6996 60.6008C61.8996 61.3008 62.9996 62.0008 64.2996 62.4008H65.7996C66.3996 62.2008 66.9996 62.0008 67.4996 61.7008C71.9996 59.2008 76.4996 56.5008 80.9996 53.9008C82.8996 52.8008 84.6996 51.7008 86.5996 50.7008C88.1996 49.8008 88.9996 48.4008 88.9996 46.6008C88.9996 39.5008 88.9996 32.5008 88.9996 25.4008ZM65.8996 14.1008C65.8996 13.4008 65.8996 12.8008 65.8996 12.1008V11.4008L85.9996 23.1008C85.4996 23.4008 84.9996 23.7008 84.5996 23.9008L83.0996 24.8008C81.7996 25.6008 80.3996 26.4008 78.9996 27.2008C78.6996 27.4008 78.4996 27.3008 78.1996 27.2008L75.9996 26.0008C72.8996 24.3008 69.8996 22.5008 66.7996 20.9008C65.9996 20.4008 65.6996 20.0008 65.7996 19.1008C65.8996 17.3008 65.8996 15.7008 65.8996 14.1008ZM64.0996 11.4008V12.1008C64.0996 14.5008 64.0996 17.0008 64.0996 19.4008C64.0996 20.0008 63.9996 20.3008 63.3996 20.6008C61.5996 21.6008 59.7996 22.6008 57.9996 23.6008C57.2996 24.0008 56.6996 24.4008 55.9996 24.7008C54.7996 25.4008 53.5996 26.0008 52.3996 26.7008L50.8996 27.6008L43.6996 23.3008L64.0996 11.4008ZM43.2996 46.8008C43.1996 46.9008 43.0996 46.9008 42.9996 47.0008L42.7996 47.1008V24.9008C42.8996 24.9008 42.8996 25.0008 42.9996 25.0008C43.0996 25.0008 43.1996 25.1008 43.2996 25.1008L45.1996 26.3008C46.5996 27.2008 48.0996 28.0008 49.4996 28.9008C49.7996 29.1008 49.8996 29.3008 49.8996 29.6008V31.6008C49.8996 35.1008 49.8996 38.7008 49.8996 42.2008C49.8996 43.0008 49.6996 43.3008 49.0996 43.6008C47.6996 44.3008 46.3996 45.1008 44.9996 45.8008C44.4996 46.2008 43.8996 46.5008 43.2996 46.8008ZM64.0996 60.3008C64.0996 60.4008 64.0996 60.4008 64.0996 60.3008C63.9996 60.5008 63.9996 60.5008 63.9996 60.5008L43.6996 48.7008C44.3996 48.3008 44.9996 48.0008 45.4996 47.7008C47.2996 46.7008 49.0996 45.8008 50.7996 44.8008C50.9996 44.7008 51.1996 44.6008 51.4996 44.8008C53.5996 46.0008 55.6996 47.2008 57.8996 48.3008C59.8996 49.4008 61.8996 50.5008 63.8996 51.6008C63.9996 51.7008 64.1996 51.8008 64.1996 52.0008C64.1996 53.5008 64.1996 55.1008 64.1996 56.6008C64.0996 57.9008 64.0996 59.1008 64.0996 60.3008ZM64.1996 49.9008C61.9996 48.7008 59.7996 47.4008 57.5996 46.2008C55.8996 45.2008 54.0996 44.3008 52.3996 43.3008C51.8996 43.0008 51.6996 42.7008 51.6996 42.2008C51.6996 38.1008 51.6996 34.0008 51.6996 30.0008C51.6996 29.5008 51.8996 29.2008 52.2996 28.9008C56.2996 26.7008 60.2996 24.4008 64.3996 22.1008C64.8996 21.8008 65.3996 21.9008 65.8996 22.2008C69.0996 24.0008 72.3996 25.8008 75.5996 27.7008C76.1996 28.0008 76.7996 28.4008 77.3996 28.7008C77.9996 29.0008 78.2996 29.5008 78.2996 30.2008C78.2996 31.6008 78.2996 33.0008 78.2996 34.4008V36.1008H78.3996C78.3996 37.3008 78.3996 38.6008 78.3996 39.8008C78.3996 40.6008 78.3996 41.3008 78.3996 42.1008C78.3996 42.7008 78.1996 43.1008 77.5996 43.4008C73.6996 45.6008 69.7996 47.8008 65.7996 50.0008C65.1996 50.2008 64.7996 50.2008 64.1996 49.9008ZM65.8996 60.6008V59.9008C65.8996 57.5008 65.8996 55.0008 65.8996 52.6008C65.8996 52.0008 65.9996 51.7008 66.5996 51.4008C69.0996 50.1008 71.4996 48.7008 73.9996 47.3008C75.4996 46.5008 76.9996 45.6008 78.3996 44.8008C78.5996 44.7008 78.8996 44.7008 78.9996 44.8008C80.7996 45.8008 82.6996 46.9008 84.4996 48.0008L85.7996 48.8008C85.7996 48.8008 85.8996 48.9008 85.9996 49.0008L65.8996 60.6008ZM87.0996 47.3008C86.8996 47.2008 86.6996 47.1008 86.5996 47.1008L84.6996 46.0008C83.2996 45.2008 81.8996 44.4008 80.3996 43.5008C80.0996 43.3008 79.8996 43.2008 79.9996 42.7008C80.0996 42.5008 80.0996 42.3008 79.9996 42.2008C79.9996 42.1008 79.9996 42.1008 79.9996 42.0008V41.5008C79.9996 37.6008 79.9996 33.8008 79.9996 29.9008C79.9996 29.6008 79.9996 29.4008 79.8996 29.1008C79.8996 29.0008 79.8996 28.8008 79.8996 28.7008L87.0996 24.5008V47.3008Z" fill="#404041"/>
</svg>
