<svg width="131" height="72" viewBox="0 0 131 72" fill="none" xmlns="http://www.w3.org/2000/svg">
<path fill-rule="evenodd" clip-rule="evenodd" d="M83.9995 22.3008C81.5995 17.3008 77.9995 13.3008 72.8995 11.1008C66.6995 8.40086 60.6995 9.10086 55.0995 12.8008C50.2995 16.0008 47.2995 20.6008 45.5995 26.0008C44.0995 30.6008 43.6995 35.3008 44.4995 40.1008C45.2995 45.4008 47.2995 50.2008 50.8995 54.3008C53.7995 57.6008 57.2995 59.9008 61.5995 61.0008C62.3995 61.2008 63.2995 61.3008 64.1995 61.5008H67.1995C67.5995 61.4008 67.9995 61.4008 68.2995 61.3008C68.7995 61.2008 69.1995 61.1008 69.6995 61.0008C73.4995 60.1008 76.7995 58.1008 79.4995 55.3008C83.5995 51.0008 85.8995 45.9008 86.7995 40.1008C87.5995 33.9008 86.7995 28.0008 83.9995 22.3008ZM66.6995 11.9008C72.2995 12.4008 76.4995 15.3008 79.7995 19.7008L74.9995 24.5008C73.9995 22.9008 72.8995 21.6008 71.3995 20.6008C69.9995 19.6008 68.3995 18.9008 66.5995 18.6008L66.6995 11.9008ZM59.9995 47.8008C58.6995 46.6008 57.6995 45.1008 56.9995 43.4008C55.0995 38.9008 54.7995 34.2008 56.1995 29.5008C56.9995 26.8008 58.3995 24.4008 60.5995 22.6008C62.6995 20.9008 65.0995 20.3008 67.6995 21.1008C69.5995 21.7008 71.0995 22.9008 72.1995 24.5008C74.5995 27.7008 75.4995 31.4008 75.5995 36.1008C75.4995 36.9008 75.3995 38.5008 74.9995 40.0008C74.3995 42.9008 73.0995 45.5008 70.9995 47.6008C67.7995 51.0008 63.3995 51.0008 59.9995 47.8008ZM66.6995 59.2008V52.4008C70.3995 51.8008 72.9995 49.6008 74.8995 46.6008L79.6995 51.4008C76.3995 55.8008 72.2995 58.6008 66.6995 59.2008ZM80.9995 49.4008L80.0995 48.5008C78.7995 47.2008 77.4995 45.9008 76.1995 44.6008C76.0995 44.5008 76.0995 44.2008 76.0995 44.0008C76.1995 43.6008 76.3995 43.2008 76.4995 42.8008C76.6995 42.1008 76.9995 41.4008 77.1995 40.6008C77.3995 39.7008 77.5995 38.7008 77.6995 37.8008C77.7995 37.4008 77.7995 37.0008 77.8995 36.6008H84.5995C84.4995 41.2008 83.2995 45.5008 80.9995 49.4008ZM77.8995 34.4008C77.4995 30.7008 77.3995 30.0008 76.1995 26.9008C76.1995 26.8008 76.1995 26.5008 76.2995 26.4008C76.6995 26.0008 77.0995 25.6008 77.4995 25.2008C77.5995 25.1008 77.7995 24.9008 77.8995 24.8008L81.0995 21.6008C83.3995 25.6008 84.4995 29.8008 84.6995 34.3008H77.8995V34.4008Z" fill="#404041"/>
</svg>
