<svg width="131" height="72" viewBox="0 0 131 72" fill="none" xmlns="http://www.w3.org/2000/svg">
<path d="M72.7992 11.6992C71.3992 11.6992 70.1992 12.7992 70.1992 14.1992C70.1992 15.5992 71.3992 16.6992 72.7992 16.6992C74.1992 16.6992 75.3992 15.5992 75.3992 14.1992C75.3992 12.7992 74.1992 11.6992 72.7992 11.6992ZM72.7992 15.2992C72.1992 15.2992 71.6992 14.7992 71.6992 14.1992C71.6992 13.5992 72.1992 13.0992 72.7992 13.0992C73.3992 13.0992 73.8992 13.5992 73.8992 14.1992C73.8992 14.7992 73.3992 15.2992 72.7992 15.2992Z" fill="#404041"/>
<path d="M75.4 22.2992L73.3 20.2992C73.1 19.9992 72.6 19.9992 72.3 20.2992L70.2 22.2992C70.1 22.4992 70 22.6992 70 22.7992C70 22.9992 70.1 23.1992 70.2 23.2992L72.3 25.2992C72.4 25.3992 72.6 25.4992 72.8 25.4992C73 25.4992 73.2 25.3992 73.3 25.2992L75.4 23.2992C75.5 23.1992 75.6 22.9992 75.6 22.7992C75.6 22.5992 75.5 22.3992 75.4 22.2992ZM72.8 24.3992L71.2 22.8992L72.8 21.2992L74.4 22.8992L72.8 24.3992Z" fill="#404041"/>
<path d="M72.7996 17.1992C69.6996 17.1992 67.0996 19.7992 67.0996 22.7992C67.0996 25.8992 69.5996 28.3992 72.7996 28.3992C75.8996 28.3992 78.4996 25.8992 78.4996 22.7992C78.4996 19.6992 75.9996 17.1992 72.7996 17.1992ZM72.7996 26.9992C70.4996 26.9992 68.5996 25.0992 68.5996 22.8992C68.5996 20.6992 70.4996 18.7992 72.7996 18.7992C75.0996 18.7992 76.9996 20.5992 76.9996 22.8992C76.9996 25.0992 75.0996 26.9992 72.7996 26.9992Z" fill="#404041"/>
<path d="M58.1996 11.6992C56.7996 11.6992 55.5996 12.7992 55.5996 14.1992C55.5996 15.5992 56.7996 16.6992 58.1996 16.6992C59.5996 16.6992 60.7996 15.5992 60.7996 14.1992C60.7996 12.7992 59.5996 11.6992 58.1996 11.6992ZM58.1996 15.2992C57.5996 15.2992 57.0996 14.7992 57.0996 14.1992C57.0996 13.5992 57.5996 13.0992 58.1996 13.0992C58.7996 13.0992 59.2996 13.5992 59.2996 14.1992C59.2996 14.7992 58.7996 15.2992 58.1996 15.2992Z" fill="#404041"/>
<path d="M58.2 17.1992C55 17.1992 52.5 19.7992 52.5 22.7992C52.5 25.8992 55 28.3992 58.2 28.3992C61.3 28.3992 63.9 25.8992 63.9 22.7992C63.9 19.6992 61.4 17.1992 58.2 17.1992ZM58.2 26.9992C55.9 26.9992 54 25.0992 54 22.8992C54 20.6992 55.9 18.7992 58.2 18.7992C60.5 18.7992 62.4 20.5992 62.4 22.8992C62.4 25.0992 60.5 26.9992 58.2 26.9992Z" fill="#404041"/>
<path d="M60.8004 22.2992L58.7004 20.2992C58.5004 19.9992 58.0004 19.9992 57.7004 20.2992L55.6004 22.2992C55.5004 22.4992 55.4004 22.6992 55.4004 22.7992C55.4004 22.9992 55.5004 23.1992 55.6004 23.2992L57.7004 25.2992C57.8004 25.3992 58.0004 25.4992 58.2004 25.4992C58.4004 25.4992 58.6004 25.3992 58.7004 25.2992L60.8004 23.2992C60.9004 23.1992 61.0004 22.9992 61.0004 22.7992C61.0004 22.5992 60.9004 22.3992 60.8004 22.2992ZM58.2004 24.3992L56.6004 22.8992L58.2004 21.2992L59.8004 22.8992L58.2004 24.3992Z" fill="#404041"/>
<path d="M66.3009 62.0997C66.4009 62.3997 66.1009 62.7997 65.7009 62.9997C65.6009 62.9997 65.5009 62.9997 65.5009 62.9997C65.2009 62.9997 64.9009 62.7997 64.8009 62.4997C64.7009 62.0997 64.9009 61.6997 65.3009 61.5997C65.7009 61.4997 66.1009 61.6997 66.3009 62.0997Z" fill="#404041"/>
<path d="M65.5 58.8008C63.6 58.8008 62 60.4008 62 62.3008C62 64.2008 63.6 65.8008 65.5 65.8008C67.4 65.8008 69 64.2008 69 62.3008C69 60.4008 67.4 58.8008 65.5 58.8008ZM65.5 64.0008C64.6 64.0008 63.8 63.2008 63.8 62.3008C63.8 61.4008 64.5 60.6008 65.5 60.6008C66.5 60.6008 67.2 61.4008 67.2 62.3008C67.2 63.2008 66.4 64.0008 65.5 64.0008Z" fill="#404041"/>
<path d="M68.1004 52.0004L66.0004 50.0004C65.8004 49.7004 65.3004 49.7004 65.0004 50.0004L62.9004 52.0004C62.8004 52.1004 62.7004 52.3004 62.7004 52.5004C62.7004 52.7004 62.8004 52.9004 62.9004 53.0004L65.0004 55.0004C65.1004 55.1004 65.3004 55.2004 65.5004 55.2004C65.7004 55.2004 65.9004 55.1004 66.0004 55.0004L68.1004 53.0004C68.2004 52.9004 68.3004 52.7004 68.3004 52.5004C68.3004 52.3004 68.2004 52.1004 68.1004 52.0004ZM65.5004 54.1004L63.9004 52.5004L65.5004 51.0004L67.1004 52.5004L65.5004 54.1004ZM68.1004 52.0004L66.0004 50.0004C65.8004 49.7004 65.3004 49.7004 65.0004 50.0004L62.9004 52.0004C62.8004 52.1004 62.7004 52.3004 62.7004 52.5004C62.7004 52.7004 62.8004 52.9004 62.9004 53.0004L65.0004 55.0004C65.1004 55.1004 65.3004 55.2004 65.5004 55.2004C65.7004 55.2004 65.9004 55.1004 66.0004 55.0004L68.1004 53.0004C68.2004 52.9004 68.3004 52.7004 68.3004 52.5004C68.3004 52.3004 68.2004 52.1004 68.1004 52.0004ZM65.5004 54.1004L63.9004 52.5004L65.5004 51.0004L67.1004 52.5004L65.5004 54.1004ZM53.7004 47.2004C53.3004 47.3004 53.1004 47.7004 53.2004 48.1004C53.3004 48.4004 53.6004 48.6004 53.9004 48.6004C53.9004 48.6004 54.0004 48.6004 54.1004 48.6004C54.5004 48.5004 54.7004 48.0004 54.7004 47.7004C54.5004 47.3004 54.1004 47.1004 53.7004 47.2004ZM68.1004 52.0004L66.0004 50.0004C65.8004 49.7004 65.3004 49.7004 65.0004 50.0004L62.9004 52.0004C62.8004 52.1004 62.7004 52.3004 62.7004 52.5004C62.7004 52.7004 62.8004 52.9004 62.9004 53.0004L65.0004 55.0004C65.1004 55.1004 65.3004 55.2004 65.5004 55.2004C65.7004 55.2004 65.9004 55.1004 66.0004 55.0004L68.1004 53.0004C68.2004 52.9004 68.3004 52.7004 68.3004 52.5004C68.3004 52.3004 68.2004 52.1004 68.1004 52.0004ZM65.5004 54.1004L63.9004 52.5004L65.5004 51.0004L67.1004 52.5004L65.5004 54.1004ZM77.0004 47.2004C76.6004 47.3004 76.4004 47.7004 76.5004 48.1004C76.6004 48.4004 76.9004 48.6004 77.2004 48.6004C77.2004 48.6004 77.3004 48.6004 77.4004 48.6004C77.8004 48.5004 78.0004 48.0004 78.0004 47.7004C77.8004 47.3004 77.4004 47.1004 77.0004 47.2004ZM77.0004 47.2004C76.6004 47.3004 76.4004 47.7004 76.5004 48.1004C76.6004 48.4004 76.9004 48.6004 77.2004 48.6004C77.2004 48.6004 77.3004 48.6004 77.4004 48.6004C77.8004 48.5004 78.0004 48.0004 78.0004 47.7004C77.8004 47.3004 77.4004 47.1004 77.0004 47.2004ZM68.1004 52.0004L66.0004 50.0004C65.8004 49.7004 65.3004 49.7004 65.0004 50.0004L62.9004 52.0004C62.8004 52.1004 62.7004 52.3004 62.7004 52.5004C62.7004 52.7004 62.8004 52.9004 62.9004 53.0004L65.0004 55.0004C65.1004 55.1004 65.3004 55.2004 65.5004 55.2004C65.7004 55.2004 65.9004 55.1004 66.0004 55.0004L68.1004 53.0004C68.2004 52.9004 68.3004 52.7004 68.3004 52.5004C68.3004 52.3004 68.2004 52.1004 68.1004 52.0004ZM65.5004 54.1004L63.9004 52.5004L65.5004 51.0004L67.1004 52.5004L65.5004 54.1004ZM53.7004 47.2004C53.3004 47.3004 53.1004 47.7004 53.2004 48.1004C53.3004 48.4004 53.6004 48.6004 53.9004 48.6004C53.9004 48.6004 54.0004 48.6004 54.1004 48.6004C54.5004 48.5004 54.7004 48.0004 54.7004 47.7004C54.5004 47.3004 54.1004 47.1004 53.7004 47.2004ZM83.4004 6.50039C83.0004 6.20039 82.4004 6.20039 82.1004 6.50039C81.7004 6.90039 81.7004 7.50039 82.1004 7.80039C91.1004 16.7004 91.1004 31.2004 82.1004 40.1004C77.6004 44.6004 71.6004 46.8004 65.7004 46.8004C59.8004 46.8004 53.8004 44.6004 49.3004 40.1004C40.2004 31.2004 40.2004 16.7004 49.3004 7.80039C49.6004 7.40039 49.6004 6.80039 49.3004 6.50039C48.9004 6.20039 48.3004 6.20039 48.0004 6.50039C38.2004 16.1004 38.2004 31.7004 48.0004 41.3004C49.4004 42.6004 50.8004 43.7004 52.4004 44.7004C51.3004 45.3004 50.5004 46.5004 50.5004 47.8004C50.5004 49.7004 52.1004 51.3004 54.0004 51.3004C55.9004 51.3004 57.5004 49.7004 57.5004 47.8004C57.5004 47.5004 57.4004 47.3004 57.4004 47.1004C58.8004 47.5004 60.3004 47.9004 61.7004 48.1004C60.5004 49.1004 59.7004 50.7004 59.7004 52.4004C59.7004 55.6004 62.4004 58.2004 65.6004 58.2004C68.9004 58.2004 71.5004 55.6004 71.5004 52.4004C71.5004 50.7004 70.7004 49.2004 69.5004 48.1004C71.0004 47.9004 72.4004 47.6004 73.8004 47.1004C73.7004 47.4004 73.7004 47.6004 73.7004 47.8004C73.7004 49.7004 75.3004 51.3004 77.2004 51.3004C79.1004 51.3004 80.7004 49.7004 80.7004 47.8004C80.7004 46.4004 79.9004 45.3004 78.8004 44.7004C80.4004 43.8004 81.8004 42.6004 83.2004 41.3004C92.9004 31.7004 92.9004 16.1004 83.4004 6.50039ZM53.9004 49.5004C53.0004 49.5004 52.2004 48.7004 52.2004 47.8004C52.2004 46.9004 52.9004 46.1004 53.9004 46.1004C54.8004 46.1004 55.6004 46.9004 55.6004 47.8004C55.6004 48.7004 54.8004 49.5004 53.9004 49.5004ZM69.6004 52.5004C69.6004 54.7004 67.8004 56.5004 65.5004 56.5004C63.2004 56.5004 61.4004 54.7004 61.4004 52.5004C61.4004 50.3004 63.2004 48.5004 65.5004 48.5004C67.8004 48.5004 69.6004 50.3004 69.6004 52.5004ZM77.1004 49.5004C76.2004 49.5004 75.4004 48.7004 75.4004 47.8004C75.4004 46.9004 76.1004 46.1004 77.1004 46.1004C78.1004 46.1004 78.9004 46.9004 78.8004 47.8004C78.8004 48.7004 78.0004 49.5004 77.1004 49.5004ZM77.0004 47.2004C76.6004 47.3004 76.4004 47.7004 76.5004 48.1004C76.6004 48.4004 76.9004 48.6004 77.2004 48.6004C77.2004 48.6004 77.3004 48.6004 77.4004 48.6004C77.8004 48.5004 78.0004 48.0004 78.0004 47.7004C77.8004 47.3004 77.4004 47.1004 77.0004 47.2004ZM66.0004 50.0004C65.8004 49.7004 65.3004 49.7004 65.0004 50.0004L62.9004 52.0004C62.8004 52.1004 62.7004 52.3004 62.7004 52.5004C62.7004 52.7004 62.8004 52.9004 62.9004 53.0004L65.0004 55.0004C65.1004 55.1004 65.3004 55.2004 65.5004 55.2004C65.7004 55.2004 65.9004 55.1004 66.0004 55.0004L68.1004 53.0004C68.2004 52.9004 68.3004 52.7004 68.3004 52.5004C68.3004 52.3004 68.2004 52.1004 68.1004 52.0004L66.0004 50.0004ZM65.5004 54.1004L63.9004 52.5004L65.5004 51.0004L67.1004 52.5004L65.5004 54.1004ZM53.7004 47.2004C53.3004 47.3004 53.1004 47.7004 53.2004 48.1004C53.3004 48.4004 53.6004 48.6004 53.9004 48.6004C53.9004 48.6004 54.0004 48.6004 54.1004 48.6004C54.5004 48.5004 54.7004 48.0004 54.7004 47.7004C54.5004 47.3004 54.1004 47.1004 53.7004 47.2004ZM53.7004 47.2004C53.3004 47.3004 53.1004 47.7004 53.2004 48.1004C53.3004 48.4004 53.6004 48.6004 53.9004 48.6004C53.9004 48.6004 54.0004 48.6004 54.1004 48.6004C54.5004 48.5004 54.7004 48.0004 54.7004 47.7004C54.5004 47.3004 54.1004 47.1004 53.7004 47.2004ZM68.1004 52.0004L66.0004 50.0004C65.8004 49.7004 65.3004 49.7004 65.0004 50.0004L62.9004 52.0004C62.8004 52.1004 62.7004 52.3004 62.7004 52.5004C62.7004 52.7004 62.8004 52.9004 62.9004 53.0004L65.0004 55.0004C65.1004 55.1004 65.3004 55.2004 65.5004 55.2004C65.7004 55.2004 65.9004 55.1004 66.0004 55.0004L68.1004 53.0004C68.2004 52.9004 68.3004 52.7004 68.3004 52.5004C68.3004 52.3004 68.2004 52.1004 68.1004 52.0004ZM65.5004 54.1004L63.9004 52.5004L65.5004 51.0004L67.1004 52.5004L65.5004 54.1004ZM68.1004 52.0004L66.0004 50.0004C65.8004 49.7004 65.3004 49.7004 65.0004 50.0004L62.9004 52.0004C62.8004 52.1004 62.7004 52.3004 62.7004 52.5004C62.7004 52.7004 62.8004 52.9004 62.9004 53.0004L65.0004 55.0004C65.1004 55.1004 65.3004 55.2004 65.5004 55.2004C65.7004 55.2004 65.9004 55.1004 66.0004 55.0004L68.1004 53.0004C68.2004 52.9004 68.3004 52.7004 68.3004 52.5004C68.3004 52.3004 68.2004 52.1004 68.1004 52.0004ZM65.5004 54.1004L63.9004 52.5004L65.5004 51.0004L67.1004 52.5004L65.5004 54.1004ZM53.7004 47.2004C53.3004 47.3004 53.1004 47.7004 53.2004 48.1004C53.3004 48.4004 53.6004 48.6004 53.9004 48.6004C53.9004 48.6004 54.0004 48.6004 54.1004 48.6004C54.5004 48.5004 54.7004 48.0004 54.7004 47.7004C54.5004 47.3004 54.1004 47.1004 53.7004 47.2004Z" fill="#404041"/>
</svg>
