<svg width="131" height="72" viewBox="0 0 131 72" fill="none" xmlns="http://www.w3.org/2000/svg">
<path fill-rule="evenodd" clip-rule="evenodd" d="M101 34.1C95.9002 27.7 90.1002 22.1 83.1002 17.9C77.7002 14.6 71.9002 12.5 65.5002 12.5C61.3002 12.5 57.4002 13.4 53.6002 15C43.7002 19.2 36.1002 26.2 29.6002 34.5C28.8002 35.5 28.9002 36.7 29.6002 37.6C35.2002 44.6 41.6002 50.6 49.5002 55C54.0002 57.5 58.8002 59.2 63.9002 59.5C69.0002 59.8 73.8002 58.7 78.4002 56.5C87.6002 52.2 94.9002 45.5 101.1 37.7C102 36.5 101.9 35.3 101 34.1ZM45.5002 48.9L45.3002 49C44.7002 48.5 44.0002 48 43.4002 47.5C39.4002 44.2 35.9002 40.5 32.6002 36.6C32.3002 36.2 32.1002 36 32.5002 35.5C36.3002 30.9 40.5002 26.6 45.3002 23C45.3002 23 45.4002 22.9 45.5002 22.9C45.6002 22.9 45.6002 22.9 45.7002 22.8C43.0002 26.9 41.6002 31.2 41.6002 35.9C41.8002 40.6 43.2002 44.9 45.5002 48.9ZM65.5002 56.5C54.2002 56.5 45.0002 47.3 45.0002 36C45.0002 24.8 54.2002 15.5 65.4002 15.5C76.6002 15.5 85.9002 24.7 85.9002 35.9C85.9002 47.2 76.7002 56.4 65.5002 56.5ZM84.8002 49.3C90.1002 40.3 90.0002 31.6 84.8002 22.9C90.0002 26.6 94.3002 31.1 98.3002 36C94.6002 41.1 90.1002 45.4 84.8002 49.3Z" fill="#404041"/>
<path fill-rule="evenodd" clip-rule="evenodd" d="M67.7004 24.6003C66.7004 22.9003 64.2004 22.9003 63.2004 24.5003C60.9004 28.1003 59.4004 32.0003 59.4004 36.1003C59.4004 40.8003 60.9004 44.6003 63.1004 48.2003C64.3004 50.1003 66.7004 49.9003 67.8004 48.1003C68.0004 47.9003 68.1004 47.6003 68.3004 47.3003C68.5004 47.0003 68.6004 46.7003 68.8004 46.4003C72.8004 39.0003 72.1004 31.7003 67.7004 24.6003ZM65.5004 46.0003C61.6004 42.1003 61.6004 32.3003 65.4004 26.9003C69.4004 33.4003 69.4004 39.5003 65.5004 46.0003Z" fill="#404041"/>
</svg>
