<svg width="131" height="72" viewBox="0 0 131 72" fill="none" xmlns="http://www.w3.org/2000/svg">
<path fill-rule="evenodd" clip-rule="evenodd" d="M81.2996 10.4L78.5996 15L77.0996 14.1L79.6996 9.5L81.2996 10.4Z" fill="#404041"/>
<path d="M66.2996 6H64.5996V11.2H66.2996V6Z" fill="#404041"/>
<path d="M51.2498 9.5L49.6914 10.4007L52.3435 14.9894L53.902 14.0887L51.2498 9.5Z" fill="#404041"/>
<path fill-rule="evenodd" clip-rule="evenodd" d="M44.4996 22.7992L43.5996 24.3992L39.0996 21.6992L39.8996 20.1992L44.4996 22.7992Z" fill="#404041"/>
<path d="M40.7 35.0996H35.5V36.7996H40.7V35.0996Z" fill="#404041"/>
<path fill-rule="evenodd" clip-rule="evenodd" d="M44.5 49.0996L39.9 51.7996L39 50.1996L43.6 47.5996L44.5 49.0996Z" fill="#404041"/>
<path fill-rule="evenodd" clip-rule="evenodd" d="M53.8992 57.8L51.1992 62.4L49.6992 61.5L52.3992 57L53.8992 57.8Z" fill="#404041"/>
<path d="M66.4 60.8008H64.5V66.0008H66.4V60.8008Z" fill="#404041"/>
<path d="M78.6561 56.8926L77.0977 57.7933L79.7498 62.382L81.3082 61.4813L78.6561 56.8926Z" fill="#404041"/>
<path fill-rule="evenodd" clip-rule="evenodd" d="M91.9 50.1996L91 51.7996L86.5 49.0996L87.3 47.5996L91.9 50.1996Z" fill="#404041"/>
<path d="M95.5008 35H90.3008V36.9H95.5008V35Z" fill="#404041"/>
<path d="M90.9861 20.2031L86.3984 22.8573L87.2999 24.4154L91.8876 21.7612L90.9861 20.2031Z" fill="#404041"/>
<path fill-rule="evenodd" clip-rule="evenodd" d="M87.1992 35.5992C86.1992 33.1992 85.1992 30.6992 84.1992 28.2992L83.4992 26.5992L82.3992 24.0992L81.8992 22.8992L81.0992 20.9992C81.0992 20.8992 80.9992 20.8992 80.9992 20.7992L80.8992 20.6992C80.7992 20.5992 80.6992 20.4992 80.5992 20.4992C75.6992 18.3992 70.7992 16.3992 65.8992 14.3992C65.6992 14.2992 65.3992 14.2992 65.0992 14.3992C63.9992 14.8992 62.8992 15.2992 61.6992 15.7992C59.8992 16.4992 58.1992 17.2992 56.3992 17.9992C54.3992 18.7992 52.3992 19.6992 50.3992 20.4992H50.2992C50.1992 20.4992 50.1992 20.5992 50.0992 20.6992L49.9992 20.7992L49.8992 20.8992V20.9992C49.2992 22.4992 48.6992 23.9992 47.9992 25.4992C47.3992 26.9992 46.7992 28.4992 46.1992 29.9992C45.3992 31.8992 44.5992 33.7992 43.7992 35.7992C43.7992 35.8992 43.6992 36.0992 43.6992 36.1992C43.6992 36.2992 43.6992 36.3992 43.7992 36.4992C44.8992 39.1992 45.9992 41.8992 47.1992 44.6992L47.9992 46.4992L48.6992 48.1992C49.0992 49.1992 49.4992 50.1992 49.8992 51.1992C49.9992 51.3992 50.1992 51.6992 50.4992 51.7992C55.3992 53.7992 60.2992 55.8992 65.1992 57.8992C65.2992 57.8992 65.3992 57.9992 65.5992 57.9992C65.6992 57.9992 65.8992 57.9992 65.9992 57.8992C66.6992 57.5992 67.3992 57.2992 68.0992 56.9992L68.3992 56.8992L68.8992 56.6992L70.2992 56.0992L72.5992 55.0992L71.8992 53.4992L66.5992 55.6992V55.5992C66.5992 55.4992 66.5992 55.4992 66.5992 55.3992C66.5992 52.4992 66.5992 49.4992 66.5992 46.5992C66.5992 46.2992 66.7992 46.0992 66.9992 45.9992L67.1992 45.8992C68.6992 45.2992 70.2992 44.6992 71.7992 43.9992C72.1992 43.8992 72.3992 43.8992 72.5992 44.1992C73.7992 45.3992 74.8992 46.4992 76.0992 47.6992L78.2992 49.8992H78.3992L78.9992 50.4992L73.5992 52.6992L74.2992 54.2992H74.3992C74.4992 54.2992 74.4992 54.2992 74.5992 54.2992L75.6992 53.8992L76.2992 53.6992L77.4992 53.1992L77.9992 52.9992L78.6992 52.6992C79.4992 52.3992 80.1992 51.9992 80.9992 51.6992C81.1992 51.5992 81.3992 51.3992 81.4992 51.1992C83.4992 46.2992 85.5992 41.3992 87.5992 36.4992C87.2992 36.1992 87.2992 35.7992 87.1992 35.5992ZM66.3992 23.9992V22.3992V16.5992C66.3992 16.4992 66.3992 16.4992 66.3992 16.3992L78.6992 21.4992L77.8992 22.2992L75.9992 24.1992C74.7992 25.3992 73.5992 26.5992 72.3992 27.7992C72.1992 27.8992 72.0992 27.9992 71.9992 27.9992C71.8992 27.9992 71.6992 27.9992 71.5992 27.8992C69.9992 27.1992 68.4992 26.5992 66.8992 25.8992C66.5992 25.7992 66.3992 25.6992 66.3992 25.2992V23.9992ZM50.9992 22.7992L53.3992 25.2992L54.6992 23.9992L52.1992 21.4992L64.4992 16.3992V16.4992V16.5992C64.4992 16.6992 64.4992 16.7992 64.4992 16.9992V21.8992V22.9992V25.3992C64.4992 25.7992 64.3992 25.9992 63.9992 26.0992C62.3992 26.6992 60.8992 27.3992 59.2992 28.0992C58.9992 28.1992 58.6992 28.1992 58.4992 27.8992C58.3992 27.7992 58.1992 27.5992 57.9992 27.3992L57.5992 26.8992L57.0992 26.3992L56.5992 25.9992C56.3992 25.7992 56.0992 25.4992 55.7992 25.1992L54.6992 26.4992C54.8992 26.6992 55.0992 26.8992 55.2992 27.0992L56.3992 28.1992C56.6992 28.4992 56.9992 28.7992 57.2992 29.0992L57.3992 29.1992C57.3992 29.1992 57.3992 29.1992 57.3992 29.2992C57.4992 29.4992 57.4992 29.6992 57.3992 29.9992C56.6992 31.5992 56.0992 33.0992 55.3992 34.6992C55.2992 34.8992 55.1992 34.9992 55.0992 35.0992C54.9992 35.0992 54.8992 35.1992 54.7992 35.1992C52.6992 35.1992 50.4992 35.1992 48.3992 35.1992H46.0992C45.9992 35.1992 45.8992 35.1992 45.7992 35.1992L50.9992 22.7992ZM50.9992 49.1992L45.8992 36.9992H45.9992H46.0992C46.1992 36.9992 46.2992 36.9992 46.3992 36.9992H48.7992C50.7992 36.9992 52.7992 36.9992 54.7992 36.9992C55.1992 36.9992 55.3992 37.0992 55.5992 37.4992C56.1992 39.0992 56.8992 40.5992 57.4992 42.1992C57.5992 42.4992 57.5992 42.6992 57.3992 42.8992C56.3992 43.8992 55.2992 44.8992 54.2992 45.9992C53.2992 46.9992 52.1992 48.0992 51.1992 49.0992C51.1992 49.0992 51.0992 49.0992 50.9992 49.1992ZM64.5992 55.2992C64.5992 55.2992 64.5992 55.3992 64.5992 55.4992V55.5992L52.2992 50.4992L52.3992 50.3992L52.4992 50.2992V50.1992L52.5992 50.0992L53.4992 49.0992L57.5992 44.9992L58.3992 44.1992C58.6992 43.8992 58.9992 43.7992 59.3992 43.9992C60.8992 44.6992 62.4992 45.2992 63.9992 45.8992C64.2992 45.9992 64.3992 46.0992 64.3992 46.4992C64.5992 49.3992 64.5992 52.2992 64.5992 55.2992ZM71.6992 41.5992C71.5992 41.7992 71.3992 42.0992 71.0992 42.1992C69.3992 42.8992 67.5992 43.6992 65.8992 44.3992C65.6992 44.4992 65.3992 44.4992 65.0992 44.3992C63.2992 43.6992 61.5992 42.9992 59.7992 42.1992C59.5992 42.0992 59.3992 41.8992 59.2992 41.6992C58.4992 39.8992 57.7992 38.1992 57.0992 36.3992C56.9992 36.1992 56.9992 35.8992 57.0992 35.6992C57.7992 33.8992 58.5992 32.0992 59.2992 30.3992C59.3992 30.1992 59.5992 29.9992 59.7992 29.8992C61.5992 29.0992 63.2992 28.3992 65.0992 27.6992C65.2992 27.5992 65.5992 27.5992 65.8992 27.6992C67.6992 28.3992 69.3992 29.0992 71.0992 29.8992C71.1992 29.8992 71.2992 29.9992 71.3992 30.0992C71.4992 30.1992 71.5992 30.2992 71.5992 30.3992C72.1992 31.6992 72.6992 32.9992 73.1992 34.2992L73.7992 35.7992C73.7992 35.8992 73.7992 35.8992 73.8992 35.9992V36.0992H73.9992C73.9992 36.1992 73.9992 36.2992 73.8992 36.2992L73.3992 37.4992V37.5992C72.7992 38.8992 72.2992 40.2992 71.6992 41.5992ZM79.9992 49.1992C79.7992 49.0992 79.6992 48.9992 79.5992 48.8992L78.0992 47.3992L77.8992 47.1992C76.4992 45.7992 74.9992 44.2992 73.5992 42.8992C73.2992 42.5992 73.2992 42.3992 73.3992 41.9992C73.5992 41.5992 73.6992 41.1992 73.8992 40.7992L74.2992 39.7992C74.5992 38.9992 74.9992 38.0992 75.2992 37.2992C75.3992 37.0992 75.5992 36.8992 75.7992 36.8992C78.7992 36.8992 81.7992 36.8992 84.7992 36.8992C84.7992 36.8992 84.8992 36.8992 84.9992 36.8992L79.9992 49.1992ZM84.8992 35.0992C84.6992 35.0992 84.5992 35.0992 84.4992 35.0992H79.5992C78.3992 35.0992 77.2992 35.0992 76.0992 35.0992C75.8992 35.0992 75.7992 35.0992 75.6992 34.9992C75.4992 34.8992 75.3992 34.7992 75.3992 34.5992C75.0992 33.6992 74.6992 32.8992 74.2992 31.9992C74.1992 31.6992 73.9992 31.2992 73.8992 30.9992C73.6992 30.5992 73.5992 30.2992 73.3992 29.8992C73.3992 29.8992 73.3992 29.7992 73.3992 29.6992C73.3992 29.6992 73.3992 29.5992 73.3992 29.4992C73.3992 29.3992 73.3992 29.1992 73.4992 29.1992C75.5992 26.9992 77.7992 24.8992 79.9992 22.6992L85.0992 34.9992L84.8992 35.0992Z" fill="#404041"/>
<path fill-rule="evenodd" clip-rule="evenodd" d="M66.9992 30.0008L66.3992 31.6008L64.6992 30.9008L65.3992 29.3008L66.9992 30.0008Z" fill="#404041"/>
<path fill-rule="evenodd" clip-rule="evenodd" d="M70.3 31.2996L69.6 32.9996L68 32.2996L68.7 30.5996L70.3 31.2996Z" fill="#404041"/>
</svg>
