<svg width="131" height="72" viewBox="0 0 131 72" fill="none" xmlns="http://www.w3.org/2000/svg">
<path fill-rule="evenodd" clip-rule="evenodd" d="M102.1 25.8L98.5996 21.5C94.5996 16.5 90.6996 11.6 86.7996 6.6C86.4996 6.2 86.1996 6 85.5996 6C72.0996 6 58.6996 6 45.2996 6C44.7996 6 44.4996 6.1 44.2996 6.5C42.1996 9.2 39.9996 11.9 37.8996 14.6L28.5996 26.3L65.5996 66L102.6 26.3C102.4 26.2 102.2 26 102.1 25.8ZM85.8996 8.3L75.9996 21.8L66.0996 8.3H85.8996ZM65.4996 11.4L75.7996 25.4H55.1996L65.4996 11.4ZM64.9996 8.3L54.9996 21.8L45.0996 8.3H64.9996ZM43.9996 10.5L54.8996 25.3H32.1996L43.9996 10.5ZM61.8996 58.8L61.4996 58.5L32.9996 27.8L34.2996 27.7C34.4996 27.7 34.6996 27.7 34.7996 27.7H40.8996C44.8996 27.7 48.9996 27.7 52.9996 27.7C53.5996 27.7 54.1996 27.8 54.4996 28.8C56.4996 36 58.4996 43.2 60.3996 50.4L62.2996 57.3C62.2996 57.4 62.3996 57.6 62.3996 57.7L62.4996 58.2L61.8996 58.8ZM64.9996 58.4L56.5996 27.8H74.3996L65.9996 58.3L64.9996 58.4ZM69.0996 58.8L68.2996 58.3L76.3996 28.8C76.4996 28.4 76.6996 27.7 77.6996 27.7C81.2996 27.7 84.8996 27.7 88.4996 27.7H98.0996L69.0996 58.8ZM76.1996 25.3L86.9996 10.5L98.7996 25.3H76.1996Z" fill="#404041"/>
</svg>
