<svg width="131" height="72" viewBox="0 0 131 72" fill="none" xmlns="http://www.w3.org/2000/svg">
<path fill-rule="evenodd" clip-rule="evenodd" d="M97 31.6C97 26 97 20.4 97 14.8C97 14.2 96.8 13.7 96.4 13.3C95.3 12.2 94.2 11.2 93.1 10.1C91.3 8.4 89.5 6.7 87.7 5C87.3 4.7 86.8 4.5 86.4 4.5C77.5 4.5 68.6 4.5 59.7 4.5C54.6 4.5 49.5 4.5 44.4 4.5C44.1 4.5 43.9 4.5 43.7 4.6C43.4 4.7 43.2 4.9 43 5.1C40.2 8 37.4 10.9 34.6 13.7C34.2 14.1 34 14.5 34 15.1C34 29.1 34 43.1 34 57.1C34 57.6 34.2 58.1 34.5 58.5C37.3 61.3 40.1 64.1 42.9 66.9C43.3 67.3 43.7 67.5 44.3 67.5C58.3 67.5 72.3 67.5 86.3 67.5C86.9 67.5 87.3 67.3 87.7 67C89.6 65.1 91.5 63.3 93.4 61.5C94.4 60.6 95.4 59.6 96.3 58.7C96.8 58.3 96.9 57.8 96.9 57.2C96.9 51.7 96.9 46.2 96.9 40.7L97 31.6ZM87.2 6.4L95.1 14L83.6 18.1L87.2 6.4ZM86 5.8L85.6 7.2C85.3 8.1 85.1 9 84.8 9.8C84.4 11.1 84 12.4 83.6 13.7C83.3 14.7 82.9 15.8 82.6 16.8C82.5 17.2 82.3 17.4 81.8 17.4C70.9 17.4 60 17.4 49.1 17.4C48.7 17.4 48.5 17.3 48.3 16.9C47.2 13.3 46 9.7 44.8 6.1C44.8 6 44.8 6 44.8 5.9C44.8 5.9 44.8 5.8 44.8 5.7L86 5.8ZM82.8 18.9V53.8H48.2V18.9H82.8ZM43.5 6.4L47.3 18.1L35.8 14.4L43.5 6.4ZM46.8 52.9C46.8 53.3 46.7 53.5 46.3 53.6L46.8 52.9ZM43.5 65.5L36 58L47.4 54.7L43.5 65.5ZM85.9 66.2H44.7L46.1 62.3C46.6 61 47 59.7 47.5 58.3C47.8 57.4 48.1 56.5 48.4 55.7C48.5 55.4 48.6 55.2 48.9 55.2C49 55.2 49 55.2 49.1 55.2C58.2 55.2 67.3 55.2 76.3 55.2H81.9C82.2 55.2 82.4 55.2 82.5 55.5C83.3 58.1 84.2 60.7 85 63.3L85.9 66C85.9 66 85.9 66.1 85.9 66.2ZM87.2 65.7L83.7 54.7L95.2 58L87.2 65.7ZM95.7 56.8L84.1 53.4V47C84.1 38 84.1 29 84.1 19.9C84.1 19.4 84.2 19.2 84.7 19C87.3 18.1 89.9 17.2 92.6 16.2L95.1 15.3C95.2 15.3 95.3 15.2 95.4 15.2L95.6 15.1L95.7 56.8Z" fill="#404041"/>
</svg>
