<svg width="131" height="72" viewBox="0 0 131 72" fill="none" xmlns="http://www.w3.org/2000/svg">
<path fill-rule="evenodd" clip-rule="evenodd" d="M65.0006 6.5C48.3006 6.6 34.9006 20.1 35.0006 36.8C35.1006 54.5 49.8006 66.6 65.3006 66.5C81.8006 66.4 95.1006 53 95.0006 36.4C94.9006 21.1 83.0006 6.6 65.0006 6.5ZM85.8006 18.2C89.2006 21 93.4006 31.4 92.6006 34.8L81.3006 29.8L85.8006 18.2ZM80.0006 35.1C79.3006 35.1 78.9006 35.6 78.9006 36.4V38C78.9006 39.2 78.9006 40.5 78.9006 41.7C78.9006 42 78.8006 42.4 78.5006 42.6C76.0006 45.1 73.6006 47.6 71.1006 50C70.9006 50.2 70.5006 50.4 70.2006 50.4C66.7006 50.4 63.2006 50.4 59.7006 50.4C59.4006 50.4 59.0006 50.2 58.8006 50C56.3006 47.6 53.9006 45.1 51.5006 42.7C51.3006 42.5 51.1006 42.1 51.1006 41.7C51.1006 39.4 51.1006 37.2 51.1006 34.9C51.1006 33.7 51.1006 32.5 51.1006 31.3C51.1006 31 51.2006 30.6 51.5006 30.4C52.9006 29 54.3006 27.6 55.7006 26.1C56.7006 25.1 57.8006 24 58.9006 23C59.0006 22.9 59.2006 22.8 59.4006 22.7C59.6006 22.6 59.7006 22.6 59.9006 22.6C63.4006 22.6 66.8006 22.6 70.3006 22.6C70.6006 22.6 71.1006 22.8 71.3006 23C72.5006 24.2 73.7006 25.3 74.8006 26.5C76.2006 27.9 77.6006 29.3 78.9006 30.6C79.2006 30.9 79.7006 31.2 80.1006 31.4C82.1006 32.3 84.1006 33.2 86.1006 34.1L90.6006 36.1C90.8006 36.2 91.0006 36.3 91.2006 36.4L81.0006 40.9V39.5C81.0006 38.5 81.0006 37.5 81.0006 36.5C81.1006 35.6 80.7006 35.1 80.0006 35.1ZM79.6006 28.2L73.3006 21.9L83.6006 18L79.6006 28.2ZM83.5006 15.7L71.8006 20.2L66.7006 8.7C73.1006 9.2 78.6006 11.5 83.5006 15.7ZM65.0006 10.3L69.5006 20.4H60.4006L65.0006 10.3ZM63.3006 8.7L58.2006 20.1C54.3006 18.6 50.5006 17.1 46.5006 15.6C51.4006 11.5 56.9006 9.2 63.3006 8.7ZM37.4006 33.1C38.1006 27.2 40.6006 22.1 44.5006 17.7C44.6006 17.5 44.8006 17.5 44.9006 17.4C45.0006 17.4 45.2006 17.4 45.4006 17.5C46.1006 17.8 46.7006 18 47.4006 18.3C47.7006 18.4 48.0006 18.5 48.3006 18.7L56.7006 21.9L50.4006 28.2C50.3006 28 50.2006 27.8 50.2006 27.6C50.0006 27 49.8006 26.5 49.6006 25.9C49.0006 24.4 48.5006 23 47.9006 21.5C47.8006 21.2 47.5006 20.7 47.2006 20.6C46.9006 20.5 46.4006 20.6 46.1006 20.8C45.7006 21.1 45.7006 21.6 45.8006 22.1C46.6006 24.3 47.5006 26.4 48.3006 28.6L48.4006 28.9C48.5006 29.1 48.6006 29.4 48.7006 29.7L37.3006 34.8C37.3006 34.2 37.3006 33.6 37.4006 33.1ZM48.9006 32V41.1L38.7006 36.5L48.9006 32ZM37.2006 38.2L48.6006 43.3L44.1006 55C40.0006 50.1 37.7006 44.6 37.2006 38.2ZM50.4006 44.8L56.7006 51.2L46.4006 55.1L50.4006 44.8ZM65.0006 62.7C64.9006 62.6 64.9006 62.5 64.8006 62.4C64.7006 62.2 64.6006 62.1 64.6006 61.9C64.3006 61.3 64.0006 60.6 63.7006 60C63.2006 58.8 62.7006 57.6 62.1006 56.5C61.8006 55.8 61.2006 55.6 60.7006 55.8C60.1006 56.1 59.9006 56.7 60.2006 57.4C60.3006 57.7 60.5006 58.1 60.6006 58.4C60.7006 58.6 60.8006 58.7 60.8006 58.9V59C61.6006 60.7 62.3006 62.4 63.1006 64.2C56.7006 63.7 51.2006 61.4 46.4006 57.3L46.7006 57.2C46.9006 57.1 47.0006 57.1 47.1006 57C50.3006 55.8 53.6006 54.5 56.8006 53.2C58.1006 52.7 59.5006 52.4 60.9006 52.4C62.3006 52.4 63.7006 52.4 65.2006 52.4C65.8006 52.4 66.4006 52.4 67.0006 52.4H69.4006L65.0006 62.7ZM66.7006 64.3L71.8006 52.9L83.5006 57.4C78.6006 61.5 73.1006 63.8 66.7006 64.3ZM83.3006 55C79.9006 53.7 76.6006 52.4 73.3006 51.2L79.6006 44.9L83.5006 55.2L83.3006 55ZM85.8006 54.8L81.4006 43.3L92.7006 38.3C93.1006 42.8 88.9006 52.8 85.8006 54.8Z" fill="#404041"/>
</svg>
