<svg width="131" height="72" viewBox="0 0 131 72" fill="none" xmlns="http://www.w3.org/2000/svg">
<path fill-rule="evenodd" clip-rule="evenodd" d="M95.4999 30.8C94.1999 23.6 90.7999 17.6 85.2999 12.8C80.9999 9.1 75.9999 6.8 70.4999 5.9C69.4999 5.7 68.4999 5.6 67.5999 5.5H63.4999C62.3999 5.7 61.3999 5.8 60.2999 6C54.7999 6.9 49.9999 9.2 45.7999 12.7C40.2999 17.4 36.7999 23.2 35.4999 30.3C33.5999 41.1 36.6999 50.5 44.5999 58.2C49.2999 62.7 54.8999 65.3 61.2999 66.2C75.2999 68 88.4999 60.3 93.6999 47.2C94.7999 44.4 95.4999 41.5 95.6999 38.4C95.6999 38.3 95.6999 38.1 95.7999 38C95.7999 37.9 95.7999 37.9 95.7999 37.8V34C95.7999 33 95.6999 31.9 95.4999 30.8ZM54.3999 10.5L58.2999 21.4C57.0999 21.2 56.4999 21.9 55.8999 22.5C55.7999 22.6 55.6999 22.8 55.4999 22.9C54.6999 23.7 53.9999 24.4 53.1999 25.2C52.7999 25.6 52.4999 25.9 52.0999 26.3C51.3999 27 50.9999 27.8 50.7999 28.8L39.9999 24.9C42.9999 18.3 47.7999 13.5 54.3999 10.5ZM54.3999 61.5C47.7999 58.5 42.9999 53.7 39.9999 47.1L50.9999 43.2C50.6999 44.3 51.3999 45 51.9999 45.6C52.0999 45.7 52.1999 45.8 52.2999 45.9C53.3999 47 54.5999 48.2 55.6999 49.3C55.7999 49.4 55.8999 49.5 55.9999 49.6C56.5999 50.2 57.1999 50.9 58.3999 50.6L54.3999 61.5ZM58.4999 47.9C58.2999 47.9 57.9999 47.8 57.7999 47.6C56.4999 46.3 55.1999 45 53.8999 43.7C53.6999 43.5 53.5999 43.2 53.5999 42.9C53.5999 40.6 53.5999 38.3 53.5999 35.9V31.2C53.5999 30.5 53.5999 29.8 53.5999 29.1C53.5999 28.8 53.6999 28.4 53.9999 28.2C55.1999 26.9 56.4999 25.7 57.7999 24.4C57.9999 24.2 58.2999 24.1 58.5999 24.1C63.1999 24.1 67.7999 24.1 72.4999 24.1C72.6999 24.1 72.8999 24.2 72.9999 24.3C73.0999 24.4 73.1999 24.4 73.2999 24.5C74.5999 25.8 75.8999 27 77.0999 28.3C77.2999 28.5 77.3999 28.8 77.3999 29.1C77.3999 33.7 77.3999 38.4 77.3999 43C77.3999 43.1 77.3999 43.3 77.2999 43.4C77.1999 43.5 77.1999 43.6 77.0999 43.7C76.3999 44.5 75.5999 45.2 74.8999 45.9C74.2999 46.5 73.7999 47 73.1999 47.6C72.9999 47.8 72.6999 47.9 72.4999 47.9C67.7999 47.9 63.1999 47.9 58.4999 47.9ZM76.5999 61.5L72.6999 50.6C73.8999 50.8 74.4999 50.2 75.0999 49.5C75.1999 49.4 75.2999 49.3 75.2999 49.2L76.5999 47.9C77.2999 47.2 77.9999 46.5 78.6999 45.8C79.3999 45.1 80.2999 44.5 79.9999 43.1L90.9999 47C87.9999 53.7 83.1999 58.5 76.5999 61.5ZM80.1999 28.7C80.0999 28.6 80.0999 28.6 80.0999 28.6C80.1999 27.7 79.6999 27.1 79.0999 26.4C78.4999 25.8 77.7999 25.2 77.1999 24.5C76.4999 23.8 75.7999 23.1 75.1999 22.4C74.4999 21.7 73.8999 21.1 72.7999 21.3L76.5999 10.5C83.1999 13.5 87.9999 18.3 90.9999 24.9C87.3999 26.2 83.7999 27.5 80.1999 28.7Z" fill="#404041"/>
</svg>
