<svg width="131" height="72" viewBox="0 0 131 72" fill="none" xmlns="http://www.w3.org/2000/svg">
<path fill-rule="evenodd" clip-rule="evenodd" d="M86.6994 35.3008C84.9994 29.6008 81.9994 24.5008 78.4994 19.7008C74.9994 14.9008 71.1994 10.6008 66.6994 6.70084C65.4994 5.70084 65.2994 5.70084 64.0994 6.80084C58.7994 11.6008 54.1994 16.8008 50.1994 22.8008C50.0994 23.0008 49.7994 23.4008 49.7994 23.4008C49.5994 23.9008 50.1994 24.6008 50.1994 24.6008C50.2994 24.7008 50.4994 24.8008 50.5994 24.8008C50.8994 24.9008 51.1994 24.8008 51.4994 24.6008C51.6994 24.4008 51.8994 24.1008 52.0994 23.9008C55.4994 18.7008 59.5994 14.1008 63.9994 9.90084C64.0994 9.80084 64.0994 9.80084 64.2994 9.60084V14.0008C64.2994 18.8008 64.2994 23.6008 64.2994 28.4008C64.2994 28.9008 64.1994 29.1008 63.7994 29.4008C61.6994 30.7008 59.5994 32.0008 57.4994 33.4008C56.9994 33.7008 56.7994 33.6008 56.2994 33.3008C54.5994 32.0008 52.8994 30.7008 51.0994 29.4008C50.4994 28.9008 49.7994 28.4008 49.1994 28.0008C48.1994 27.2008 47.5994 27.3008 46.9994 28.5008C44.9994 32.1008 43.6994 35.8008 43.0994 39.9008C41.3994 52.9008 49.8994 64.0008 61.8994 65.9008C69.0994 67.1008 75.3994 64.7008 80.6994 59.9008C84.4994 56.5008 86.7994 52.2008 87.5994 47.2008C88.2994 43.0008 87.7994 39.1008 86.6994 35.3008ZM64.3994 62.9008V63.7008C58.4994 63.3008 53.7994 60.9008 49.8994 56.5008L50.3994 56.1008L50.5994 55.9008C50.7994 55.7008 51.0994 55.5008 51.2994 55.4008C51.8994 54.9008 52.5994 54.5008 53.1994 53.9008C53.4994 53.7008 53.6994 53.1008 53.5994 52.8008C53.5994 52.7008 53.4994 52.6008 53.4994 52.5008C53.2994 52.3008 53.0994 52.0008 52.7994 52.0008C52.4994 51.9008 51.9994 52.1008 51.6994 52.3008C50.5994 53.1008 49.5994 53.9008 48.5994 54.7008C48.4994 54.6008 48.3994 54.5008 48.3994 54.4008L48.2994 54.2008C48.0994 53.9008 47.9994 53.6008 47.7994 53.3008C45.2994 48.8008 44.5994 43.9008 45.5994 38.8008C46.1994 35.7008 47.1994 32.8008 48.6994 29.9008L50.2994 31.1008C51.9994 32.4008 53.6994 33.6008 55.3994 34.9008C55.7994 35.2008 55.8994 35.4008 55.8994 35.9008C55.8994 38.0008 55.8994 40.0008 55.8994 42.1008C55.8994 44.5008 55.8994 46.9008 55.8994 49.3008C55.8994 50.0008 56.0994 50.5008 56.7994 50.9008C57.9994 51.7008 59.1994 52.4008 60.3994 53.1008C61.5994 53.8008 62.6994 54.5008 63.8994 55.3008C63.9994 55.4008 64.0994 55.5008 64.1994 55.6008C64.3994 55.8008 64.4994 56.1008 64.4994 56.4008C64.3994 58.7008 64.3994 60.8008 64.3994 62.9008ZM66.5994 63.7008C66.5994 61.1008 66.5994 58.6008 66.5994 56.0008C66.5994 55.8008 66.7994 55.7008 66.8994 55.6008C67.8994 55.0008 68.8994 54.3008 69.8994 53.7008C71.1994 52.9008 72.5994 52.0008 73.9994 51.2008L80.9994 56.5008C77.1994 60.9008 72.3994 63.3008 66.5994 63.7008Z" fill="#404041"/>
</svg>
