<svg width="131" height="72" viewBox="0 0 131 72" fill="none" xmlns="http://www.w3.org/2000/svg">
<path fill-rule="evenodd" clip-rule="evenodd" d="M85.6009 22.3996L83.5009 20.1996C82.1009 18.7996 80.7011 17.3996 79.4011 15.9996C79.1011 15.6996 78.7011 15.4996 78.3011 15.5996C77.6011 15.7996 77.4011 16.6996 77.9011 17.2996C78.5011 17.8996 79.1009 18.4996 79.7009 19.0996C79.9009 19.2996 80.2011 19.5996 80.4011 19.7996L84.3011 23.6996L75.9011 28.1996L68.1009 7.59961L68.3011 7.49961C68.4011 7.59961 68.5009 7.69961 68.6009 7.79961C68.7009 7.99961 68.9009 8.19961 69.0009 8.29961C69.9009 9.19961 70.8009 10.1996 71.7009 11.0996C72.6009 11.9996 73.4011 12.7996 74.3011 13.6996C74.5011 13.8996 74.6011 13.9996 74.8011 14.1996C75.2011 14.4996 75.7009 14.4996 76.1009 14.0996C76.5009 13.6996 76.5009 13.2996 76.1009 12.7996C76.0009 12.6996 75.9009 12.5996 75.7009 12.3996L71.6009 8.29961L67.3011 3.99961C66.1011 2.79961 64.8009 2.79961 63.6009 3.99961C57.5009 10.1996 51.4009 16.2996 45.3009 22.4996C44.3009 23.4996 44.2009 24.2996 44.8009 25.5996L48.4011 33.7996C53.3011 44.9996 58.301 56.0996 63.201 67.2996C63.501 68.0996 64.1011 68.5996 64.8011 68.9996H66.1009C67.0009 68.5996 67.5011 67.7996 67.9011 66.9996C72.9011 55.6996 77.9011 44.3996 82.9011 33.0996L86.2009 25.5996C86.7009 24.1996 86.6009 23.3996 85.6009 22.3996ZM65.4011 6.39961L74.0009 29.0996C73.3009 29.3996 72.7009 29.7996 72.0009 30.0996C70.5009 30.8996 69.0009 31.6996 67.5009 32.4996C66.3009 33.0996 65.9009 33.3996 65.5009 33.3996C65.1009 33.3996 64.7009 33.0996 63.5009 32.4996C61.3009 31.3996 59.2009 30.1996 57.0009 29.0996L65.4011 6.39961ZM62.9011 7.59961L55.201 28.1996L46.9011 23.7996L62.9011 7.59961ZM65.6009 65.4996C65.5009 65.4996 65.5011 65.3996 65.4011 65.3996C65.4011 65.2996 65.3011 65.2996 65.3011 65.1996L60.9011 46.7996L60.5009 45.1996C60.2009 43.7996 59.8009 42.3996 59.5009 40.9996C59.3009 40.1996 58.6009 39.7996 58.0009 40.2996C57.5009 40.6996 57.601 41.0996 57.701 41.5996L58.701 45.7996C59.401 48.4996 60.001 51.1996 60.701 53.7996C60.901 54.4996 61.001 55.1996 61.201 55.9996L61.9011 58.8996H61.8009L47.201 26.1996L48.701 26.9996C50.701 27.9996 52.6009 29.0996 54.5009 30.0996C54.7009 30.1996 54.9009 30.4996 55.0009 30.6996C55.2009 31.3996 55.3009 31.9996 55.5009 32.6996C55.6009 32.9996 55.601 33.1996 55.701 33.4996C56.001 34.5996 56.2009 35.6996 56.5009 36.8996C56.7009 37.4996 57.101 37.7996 57.701 37.6996C58.301 37.5996 58.5011 37.0996 58.4011 36.4996C58.4011 36.3996 58.3009 36.1996 58.3009 36.0996L57.201 31.5996L57.5009 31.7996C57.7009 31.8996 57.8011 31.9996 57.9011 31.9996C58.5011 32.2996 59.1009 32.5996 59.6009 32.8996C61.0009 33.5996 62.4009 34.3996 63.8009 35.0996C64.9009 35.6996 65.9009 35.6996 67.0009 35.0996C69.0009 33.9996 71.0009 32.9996 73.0009 31.8996C73.1009 31.7996 73.2011 31.7996 73.3011 31.6996C73.4011 31.6996 73.5009 31.5996 73.7009 31.4996L65.6009 65.4996ZM69.3011 58.9996C69.2011 58.8996 69.2009 58.7996 69.2009 58.6996C70.4009 53.7996 71.6011 48.7996 72.8011 43.8996C73.9011 39.4996 74.9009 35.0996 76.0009 30.7996C76.1009 30.4996 76.3009 30.1996 76.6009 30.0996C78.1009 29.2996 79.6009 28.4996 81.1009 27.6996C81.6009 27.4996 82.0009 27.1996 82.5009 26.9996C82.9009 26.7996 83.3011 26.5996 83.8011 26.2996L69.3011 58.9996Z" fill="#404041"/>
</svg>
