<svg width="131" height="72" viewBox="0 0 131 72" fill="none" xmlns="http://www.w3.org/2000/svg">
<path fill-rule="evenodd" clip-rule="evenodd" d="M86.5004 46.5996C86.4004 45.5996 86.2004 44.5996 86.0004 43.5996C85.3004 39.4996 84.7004 35.3996 84.0004 31.2996C84.0004 31.0996 83.9004 30.9996 83.9004 30.7996C83.8004 30.0996 83.7004 29.3996 83.3004 28.7996C81.2004 25.0996 79.1004 21.3996 76.9004 17.6996C76.7004 17.3996 76.4004 16.9996 76.0004 16.7996C74.3004 15.7996 72.7004 14.7996 71.0004 13.8996C69.4004 12.8996 67.8004 11.9996 66.1004 11.0996H65.4004L58.7004 15.9996C56.7004 17.4996 54.7004 18.8996 52.7004 20.3996C52.5004 20.5996 52.3004 20.7996 52.2004 21.0996C49.7004 27.4996 47.1004 33.9996 44.6004 40.3996C44.5004 40.6996 44.5004 41.1996 44.6004 41.4996C46.4004 45.6996 48.2004 49.8996 50.0004 53.9996C50.1004 54.2996 50.5004 54.6996 50.8004 54.7996C56.7004 56.8996 62.6004 58.9996 68.5004 61.0996C68.8004 61.1996 69.1004 61.1996 69.4004 61.1996C73.9004 60.0996 78.5004 58.8996 83.0004 57.7996C83.3004 57.6996 83.6004 57.5996 83.7004 57.3996C83.8004 57.1996 83.9004 56.9996 84.0004 56.7996C84.4004 55.1996 84.8004 53.6996 85.3004 52.0996C85.7004 50.6996 86.1004 49.2996 86.4004 47.8996C86.5004 47.2996 86.5004 46.9996 86.5004 46.5996ZM66.6004 14.7996L66.7004 13.5996C66.9004 13.6996 67.0004 13.7996 67.2004 13.7996L69.5004 15.1996C71.2004 16.1996 72.9004 17.1996 74.6004 18.0996C74.9004 18.2996 75.0004 18.3996 75.0004 18.7996C75.0004 20.6996 75.1004 22.4996 75.1004 24.3996V24.8996L74.1004 24.7996C73.0004 24.6996 71.9004 24.4996 70.9004 24.3996C70.8004 24.3996 70.8004 24.3996 70.7004 24.2996C70.6004 24.1996 70.6004 24.1996 70.5004 24.0996C69.8004 23.0996 69.1004 22.1996 68.4004 21.1996C67.8004 20.3996 67.2004 19.5996 66.6004 18.6996C66.5004 18.4996 66.4004 18.2996 66.4004 18.0996C66.4004 17.0996 66.5004 15.8996 66.6004 14.7996ZM64.7004 14.0996C64.6004 14.6996 64.6004 15.2996 64.5004 15.8996C64.5004 16.3996 64.4004 16.7996 64.4004 17.1996C64.4004 18.0996 64.0004 18.4996 63.3004 18.9996C62.0004 19.8996 60.7004 20.8996 59.3004 21.7996L58.8004 22.1996C58.5004 22.3996 58.3004 22.3996 58.0004 22.2996C57.3004 21.9996 56.6004 21.6996 55.9004 21.3996L55.0004 20.9996L64.7004 14.0996ZM51.1004 51.0996L51.0004 51.1996C51.0004 51.1996 51.0004 51.0996 50.9004 51.0996C50.9004 50.9996 50.8004 50.8996 50.8004 50.8996C49.4004 47.6996 48.0004 44.3996 46.6004 41.1996C46.6004 41.0996 46.6004 41.0996 46.5004 40.9996C46.5004 40.8996 46.5004 40.6996 46.5004 40.5996C48.8004 34.6996 51.2004 28.7996 53.5004 22.7996C53.5004 22.6996 53.6004 22.6996 53.6004 22.5996L56.5004 23.8996C57.4004 24.2996 57.4004 24.2996 57.3004 25.2996C57.2004 26.0996 57.2004 26.7996 57.1004 27.5996C57.1004 28.1996 57.4004 28.6996 58.0004 28.7996C58.5004 28.8996 59.0004 28.4996 59.1004 27.8996C59.2004 26.8996 59.3004 25.8996 59.4004 24.8996C59.4004 24.3996 59.6004 24.0996 60.0004 23.7996C61.2004 22.9996 62.4004 22.0996 63.5004 21.2996C64.0004 20.9996 64.4004 20.5996 64.9004 20.2996L65.0004 20.3996C65.1004 20.4996 65.1004 20.4996 65.2004 20.5996C66.4004 22.1996 67.6004 23.7996 68.8004 25.4996C68.9004 25.6996 69.0004 25.9996 69.0004 26.1996C68.8004 28.6996 68.5004 31.2996 68.3004 33.7996C68.2004 35.2996 68.0004 36.7996 67.9004 38.2996L67.6004 41.3996C67.5004 41.9996 67.5004 42.6996 67.4004 43.2996L67.3004 44.0996L64.9004 43.0996L63.4004 42.3996C61.9004 41.6996 60.3004 41.0996 58.7004 40.3996C58.3004 40.2996 58.2004 40.0996 58.2004 39.6996C58.3004 39.0996 58.3004 38.5996 58.4004 37.9996C58.4004 37.6996 58.5004 37.2996 58.5004 36.9996C58.6004 36.2996 58.3004 35.7996 57.7004 35.6996C57.1004 35.5996 56.6004 35.9996 56.6004 36.6996C56.5004 37.3996 56.5004 38.0996 56.4004 38.7996C56.4004 39.2996 56.3004 39.7996 56.3004 40.1996C56.3004 40.3996 56.3004 40.5996 56.2004 40.6996C55.4004 42.3996 54.6004 43.9996 53.8004 45.6996L51.3004 51.0996C51.1004 50.9996 51.1004 50.9996 51.1004 51.0996ZM70.5004 53.3996C70.1004 54.4996 69.7004 55.5996 69.2004 56.6996L68.5004 58.4996C68.5004 58.5996 68.5004 58.5996 68.4004 58.6996V58.7996L52.3004 53.0996L57.6004 41.8996C57.8004 41.9996 57.9004 41.9996 58.1004 42.0996C59.7004 42.7996 61.3004 43.4996 63.0004 44.1996C64.4004 44.7996 65.8004 45.3996 67.2004 45.9996C67.3004 46.0996 67.5004 46.1996 67.6004 46.2996C67.7004 46.3996 67.7004 46.3996 67.8004 46.4996C68.8004 48.5996 69.7004 50.6996 70.6004 52.7996C70.5004 52.9996 70.5004 53.2996 70.5004 53.3996ZM79.1004 56.4996L70.6004 58.5996L72.3004 54.2996L79.1004 56.3996V56.4996ZM80.8004 54.7996C79.9004 54.4996 79.1004 54.2996 78.3004 53.9996C77.3004 53.6996 76.4004 53.3996 75.4004 53.0996C74.6004 52.7996 73.7004 52.5996 72.9004 52.2996C72.6004 52.1996 72.4004 52.0996 72.2004 51.6996C72.1004 51.3996 71.9004 50.9996 71.7004 50.6996C71.1004 49.1996 70.4004 47.7996 69.7004 46.2996C69.2004 45.3996 69.2004 44.3996 69.3004 43.3996C69.5004 41.5996 69.7004 39.6996 69.8004 37.8996C69.9004 37.1996 69.9004 36.4996 70.0004 35.6996L71.0004 26.4996L71.7004 26.5996C72.2004 26.6996 72.7004 26.6996 73.2004 26.7996C73.4004 26.7996 73.6004 26.8996 73.8004 26.8996C74.2004 26.8996 74.5004 26.9996 74.9004 26.9996C75.3004 26.9996 75.4004 27.1996 75.5004 27.5996C76.3004 31.3996 77.2004 35.0996 78.0004 38.8996L80.0004 47.8996L81.5004 54.4996C81.5004 54.5996 81.5004 54.6996 81.6004 54.8996V55.0996L80.8004 54.7996ZM84.5004 47.1996C84.1004 48.7996 83.6004 50.3996 83.2004 52.0996C83.2004 52.1996 83.2004 52.1996 83.1004 52.2996C83.1004 52.2996 83.1004 52.3996 83.0004 52.3996C82.4004 49.6996 81.8004 46.9996 81.2004 44.3996L80.1004 39.4996C79.1004 35.0996 78.1004 30.6996 77.1004 26.2996C77.0004 25.4996 77.0004 24.6996 77.0004 23.8996C77.0004 23.4996 77.0004 23.1996 77.0004 22.7996C77.0004 22.5996 77.0004 22.3996 77.0004 22.1996V21.7996C77.2004 21.9996 77.2004 22.1996 77.3004 22.2996C78.7004 24.6996 80.1004 27.1996 81.5004 29.5996C81.8004 30.1996 82.0004 30.8996 82.1004 31.5996C82.8004 35.9996 83.5004 40.3996 84.3004 44.7996L84.6004 46.7996C84.5004 46.8996 84.5004 47.0996 84.5004 47.1996Z" fill="#404041"/>
</svg>
