<svg width="131" height="72" viewBox="0 0 131 72" fill="none" xmlns="http://www.w3.org/2000/svg">
<path fill-rule="evenodd" clip-rule="evenodd" d="M91.4 43.1004C90.6 40.1004 89.8 37.1004 89 34.1004L88.2 31.1004C88.2 31.0004 88.1 30.9004 88.1 30.7004C87.9 29.9004 87.3 29.7004 86.6 30.2004C85.5 31.0004 84.5 31.8004 83.4 32.6004L82.1 33.5004L80.8 34.5004C79.4 35.6004 77.9 36.7004 76.5 37.7004C76.2 37.9004 76 38.2004 75.8 38.6004C75.2 39.9004 74.6 41.2004 74 42.5004C73.9 42.7004 73.8 42.8004 73.7 42.9004L73.8 42.0004C73.9 41.3004 74 40.7004 74 40.0004C74.3 37.5004 74.6 35.1004 74.9 32.6004L75.1 31.1004C75.3 29.1004 75.6 27.1004 75.8 25.1004C76 23.6004 76.2 22.1004 76.3 20.6004L76.6 17.7004C76.6 17.6004 76.6 17.4004 76.7 17.3004C76.8 16.6004 76.7 16.3004 76 15.9004C72.6 13.9004 69.2 12.0004 65.9 10.0004C65.9 10.0004 65.8 10.0004 65.8 9.90039H65.2C64.3 10.5004 63.4 11.1004 62.6 11.7004C60.1 13.4004 57.6 15.0004 55.1 16.6004C54.4 17.1004 54.2 17.6004 54.3 18.5004C54.5 20.1004 54.6 21.8004 54.7 23.5004C54.7 24.2004 54.8 24.8004 54.9 25.5004C55.1 27.9004 55.3 30.2004 55.5 32.6004C55.6 33.5004 55.6 34.4004 55.7 35.4004L55.8 36.8004L55.6 36.6004C55.5 36.5004 55.4 36.4004 55.3 36.4004C53.2 34.7004 51.1 32.9004 49 31.2004C48.3 30.6004 47.8 30.7004 47.3 31.5004C45.2 35.0004 43 38.6004 40.9 42.2004L39.8 44.0004C39.7 44.1004 39.7 44.2004 39.6 44.3004L39.5 44.5004V45.1004C39.5 45.1004 39.5 45.2004 39.6 45.2004C39.6 45.3004 39.7 45.4004 39.7 45.5004C41.5 50.3004 43.2 55.0004 45 59.7004C45 59.8004 45.1 59.9004 45.1 60.1004L45.2 60.3004H43V62.0004H81.1V60.3004H79.4L79.5 60.1004C79.6 60.0004 79.6 59.9004 79.7 59.8004L82.1 56.6004C85.1 52.6004 88.1 48.7004 91 44.7004C91.5 44.2004 91.6 43.7004 91.4 43.1004ZM85.3 33.4004L81 45.8004L77.9 38.9004L85.3 33.4004ZM56.8 17.7004L61.4 14.6004L65.2 12.1004C65.4 11.9004 65.6 11.8004 65.9 12.0004C68.7 13.6004 71.5 15.3004 74.3 16.9004C74.4 16.9004 74.4 17.0004 74.5 17.0004L74.6 17.1004C74.2 17.5004 73.7 17.9004 73.3 18.3004C72.8 18.8004 72.3 19.3004 71.8 19.8004C70.9 20.8004 69.9 21.7004 69 22.6004C68.8 22.8004 68.5 22.9004 68.3 22.9004C66.9 22.9004 65.6 22.9004 64.2 22.9004C63.2 22.9004 62.2 22.9004 61.2 22.9004C61 22.9004 60.9 22.9004 60.8 22.8004C60.7 22.8004 60.6 22.7004 60.5 22.5004C59.5 21.3004 58.5 20.2004 57.5 19.0004L56.5 17.8004C56.6 17.9004 56.7 17.8004 56.8 17.7004ZM57.2 40.3004L49.9 45.6004L49.2 33.6004L57.2 40.3004ZM47.4 34.8004L48.1 46.1004L41.7 44.2004L47.4 34.8004ZM50.2 60.3004C49.3 60.3004 48.3 60.3004 47.4 60.3004C47.1 60.3004 47 60.2004 46.9 60.0004C45.5 56.3004 44.2 52.5004 42.8 48.8004L41.9 46.3004V46.2004V46.1004C42.4 46.3004 43 46.4004 43.5 46.6004C44.9 47.0004 46.2 47.4004 47.6 47.8004C48.2 48.0004 48.5 48.3004 48.8 48.9004C49.8 51.6004 50.8 54.2004 51.8 56.9004C52.2 57.9004 52.5 58.8004 52.9 59.8004C53 59.9004 53 60.1004 53.1 60.3004H50.2ZM57.7 60.3004H54.9C54.3 58.6004 53.7 57.0004 53 55.3004C52.6 54.1004 52.1 52.9004 51.7 51.7004C51.2 50.5004 50.8 49.3004 50.3 48.1004C50.1 47.7004 50.2 47.5004 50.6 47.3004C52.4 46.0004 54.1 44.8004 55.9 43.5004L57.7 42.2004V60.3004ZM61.9 60.0004V60.2004H59.4V59.5004C59.4 55.9004 59.4 52.2004 59.4 48.6004C59.4 46.0004 59.4 43.4004 59.4 40.8004C59.4 40.1004 59.3 39.6004 58.6 39.2004C57.8 38.7004 57.4 38.0004 57.4 37.0004C57.3 35.3004 57.2 33.5004 57 31.8004C56.9 31.1004 56.9 30.5004 56.8 29.8004L56.5 26.2004C56.4 24.6004 56.3 23.1004 56.1 21.5004C56.1 21.3004 56.1 21.1004 56.1 21.0004C56.1 20.8004 56.1 20.7004 56.1 20.5004H56.2L56.9 21.3004C57.7 22.2004 58.5 23.1004 59.2 24.0004C59.3 24.1004 59.3 24.3004 59.3 24.5004C59.5 27.6004 59.7 30.8004 59.9 33.9004C60 35.5004 60.1 37.2004 60.2 38.8004C60.3 40.3004 60.4 41.8004 60.5 43.3004C60.6 44.8004 60.7 46.2004 60.8 47.7004C60.9 48.9004 61 50.1004 61 51.3004C61.1 52.8004 61.2 54.2004 61.3 55.7004C61.4 56.9004 61.5 58.2004 61.6 59.4004C62 59.7004 62 59.8004 61.9 60.0004ZM63.7 60.3004L61.2 24.8004H68L65.5 60.3004H63.7ZM67.6 56.1004C67.6 55.4004 67.7 54.7004 67.7 54.1004C67.9 51.0004 68.2 47.8004 68.4 44.7004C68.6 42.0004 68.7 39.4004 68.9 36.7004C69.1 34.0004 69.3 31.4004 69.5 28.7004C69.5 27.9004 69.6 27.2004 69.7 26.4004C69.7 25.9004 69.7 25.5004 69.8 25.1004C69.8 24.6004 69.9 24.3004 70.3 23.9004C71.7 22.6004 73 21.2004 74.3 19.9004C74.4 19.8004 74.4 19.8004 74.5 19.7004L74.7 19.5004C74.5 21.1004 74.3 22.6004 74.2 24.1004L73.3 31.5004C73 34.0004 72.7 36.4004 72.4 38.9004C72.2 40.4004 72.1 41.8004 71.9 43.2004C71.8 44.2004 71.7 45.2004 71.6 46.2004C71.4 47.5004 71.2 48.8004 70.6 50.1004C69.9 51.4004 69.3 52.8004 68.7 54.1004C68.4 54.7004 68.2 55.3004 67.9 55.9004C67.9 55.9004 67.8 56.0004 67.6 56.1004ZM73.4 60.3004C71.9 60.3004 70.4 60.3004 69 60.3004H68H67.9H67.8L76.8 40.8004C76.8 40.9004 76.9 40.9004 76.9 41.0004C76.9 41.1004 77 41.2004 77 41.2004C78 43.4004 79 45.6004 80 47.8004C80.1 48.0004 80.1 48.3004 80 48.5004C78 52.3004 75.9 56.1004 73.9 59.9004C73.8 60.1004 73.5 60.3004 73.4 60.3004ZM87.5 46.6004L85.2 49.7004C82.7 53.0004 80.2 56.4004 77.7 59.7004C77.3 60.2004 77 60.4004 76.4 60.3004C76.3 60.3004 76.1 60.3004 75.9 60.3004C75.8 60.3004 75.7 60.3004 75.6 60.3004C75.7 60.1004 75.8 59.9004 75.9 59.8004L76 59.7004C77.8 56.2004 79.7 52.8004 81.6 49.3004C81.7 49.1004 81.8 48.9004 82 48.8004C83.5 48.1004 85.1 47.4004 86.7 46.6004L87.9 46.1004C87.7 46.3004 87.6 46.4004 87.5 46.6004ZM82.7 46.5004L87 34.0004H87.1L89.6 43.4004L82.7 46.5004Z" fill="#404041"/>
</svg>
