<svg width="131" height="72" viewBox="0 0 131 72" fill="none" xmlns="http://www.w3.org/2000/svg">
<path d="M94.1991 26.3992C93.2991 25.0992 91.9991 24.1992 90.3991 23.9992C87.1991 23.5992 82.7991 22.8992 79.7991 21.9992H79.6991C79.0991 21.7992 78.4991 21.5992 78.0991 21.3992C73.7991 19.4992 74.3991 7.59922 74.3991 7.49922C74.3991 7.19922 74.2991 6.99922 74.1991 6.89922C74.0991 6.79922 73.8991 6.69922 73.6991 6.69922H57.3991C57.1991 6.69922 56.9991 6.79922 56.8991 6.89922C56.7991 6.99922 56.6991 7.19922 56.6991 7.39922C56.6991 7.49922 57.2991 19.3992 52.9991 21.2992C52.4991 21.4992 51.9991 21.6992 51.3991 21.8992H51.2991C48.2991 22.7992 43.8991 23.4992 40.6991 23.8992C39.0991 24.0992 37.7991 24.9992 36.8991 26.2992C36.0991 27.5992 35.7991 29.1992 36.2991 30.6992C37.3991 34.2992 39.5991 39.5992 43.3991 43.9992C45.2991 46.0992 47.9991 47.9992 51.2991 49.4992C53.0991 50.2992 54.9991 50.9992 56.9991 51.4992L57.1991 51.5992V63.7992H51.8991C51.3991 63.7992 51.0991 64.0992 51.0991 64.4992C51.0991 64.8992 51.4991 65.1992 51.8991 65.1992H79.1991C79.5991 65.1992 79.8991 64.8992 79.8991 64.4992C79.8991 64.0992 79.5991 63.7992 79.1991 63.7992H73.8991V51.4992H74.0991C75.9991 50.9992 77.9991 50.2992 79.7991 49.4992C83.0991 47.9992 85.7991 46.1992 87.6991 43.9992C91.4991 39.5992 93.6991 34.2992 94.7991 30.6992C95.1991 29.1992 94.9991 27.5992 94.1991 26.3992ZM52.2991 23.2992L52.3991 23.1992C52.8991 22.9992 53.2991 22.8992 53.5991 22.6992C58.0991 20.6992 58.2991 11.2992 58.1991 8.39922V8.19922H72.9991V8.39922C72.8991 11.1992 73.0991 20.6992 77.5991 22.6992C77.8991 22.8992 78.2991 22.9992 78.7991 23.1992H78.8991V23.2992C79.0991 24.8992 79.6991 30.3992 76.5991 34.2992C74.2991 37.0992 70.5991 38.4992 65.4991 38.4992C60.3991 38.4992 56.6991 37.0992 54.5991 34.2992C51.3991 30.4992 51.9991 24.8992 52.2991 23.2992ZM74.1991 39.2992C74.7991 39.2992 75.2991 39.7992 75.2991 40.3992C75.2991 40.8992 74.7991 41.3992 74.1991 41.3992C73.5991 41.3992 73.0991 40.9992 73.0991 40.3992C73.0991 39.7992 73.5991 39.2992 74.1991 39.2992ZM68.1991 43.9992C68.1991 45.3992 66.9991 46.5992 65.4991 46.5992C63.9991 46.5992 62.7991 45.4992 62.7991 43.9992C62.7991 42.5992 63.9991 41.2992 65.4991 41.2992C66.9991 41.2992 68.1991 42.4992 68.1991 43.9992ZM57.8991 40.3992C57.8991 40.8992 57.3991 41.3992 56.7991 41.3992C56.1991 41.3992 55.6991 40.9992 55.6991 40.3992C55.6991 39.7992 56.1991 39.2992 56.7991 39.2992C57.3991 39.2992 57.8991 39.7992 57.8991 40.3992ZM72.2991 63.9992H58.6991V51.9992H58.9991C63.2991 52.7992 67.6991 52.7992 71.9991 51.9992H72.2991V63.9992ZM92.7991 30.2992C91.6991 33.7992 89.6991 38.8992 85.9991 43.0992C84.1991 45.0992 81.7991 46.8992 78.5991 48.2992C74.2991 50.1992 69.6991 51.1992 64.9991 51.1992C60.2991 51.1992 55.6991 50.1992 51.3991 48.2992C48.1991 46.7992 45.7991 45.0992 43.9991 43.0992C40.2991 38.8992 38.2991 33.7992 37.1991 30.2992C36.8991 29.1992 37.0991 27.9992 37.6991 27.0992C38.2991 26.1992 39.2991 25.4992 40.3991 25.3992C42.9991 25.0992 46.7991 24.5992 49.7991 23.7992L50.0991 23.6992V23.9992C49.7991 26.5992 49.7991 31.4992 52.7991 35.2992C53.5991 36.2992 54.4991 36.9992 55.4991 37.6992L55.8991 37.8992L55.4991 38.0992C54.4991 38.3992 53.8991 39.3992 53.8991 40.3992C53.8991 41.7992 55.0991 42.8992 56.4991 42.8992C57.8991 42.8992 59.0991 41.7992 59.0991 40.3992C59.0991 40.0992 59.0991 39.7992 58.9991 39.4992L58.8991 39.0992L59.2991 39.1992C60.4991 39.5992 61.8991 39.7992 63.2991 39.8992L64.0991 39.9992L63.3991 40.3992C61.9991 41.0992 61.0991 42.4992 61.0991 44.0992C61.0991 46.3992 62.9991 48.1992 65.2991 48.1992C67.5991 48.1992 69.4991 46.3992 69.4991 44.0992C69.4991 42.4992 68.5991 41.0992 67.1991 40.3992L66.4991 39.9992L67.2991 39.8992C68.6991 39.7992 70.0991 39.5992 71.2991 39.1992L71.6991 39.0992L71.5991 39.4992C71.4991 39.7992 71.4991 40.0992 71.4991 40.3992C71.4991 41.7992 72.6991 42.8992 74.0991 42.8992C75.4991 42.8992 76.6991 41.7992 76.6991 40.3992C76.6991 39.3992 76.0991 38.4992 75.0991 38.0992L74.6991 37.8992L75.0991 37.6992C76.0991 36.9992 76.9991 36.1992 77.6991 35.2992C80.7991 31.4992 80.6991 26.5992 80.3991 23.9992V23.6992L80.6991 23.7992C83.6991 24.4992 87.4991 25.0992 90.0991 25.3992C91.2991 25.4992 92.2991 26.0992 92.2991 27.0992C92.9991 28.0992 93.0991 29.1992 92.7991 30.2992Z" fill="#404041"/>
</svg>
