<svg width="131" height="72" viewBox="0 0 131 72" fill="none" xmlns="http://www.w3.org/2000/svg">
<path fill-rule="evenodd" clip-rule="evenodd" d="M87.9007 47.0003C87.8007 46.8003 87.8007 46.7003 87.7007 46.6003C87.3007 45.9003 86.9007 45.2003 86.6007 44.6003C85.7007 43.0003 84.8007 41.5003 84.0007 39.9003C83.8007 39.4003 83.6007 38.9003 83.5007 38.4003C83.4007 37.6003 83.3007 36.8003 83.3007 36.0003C83.2007 35.4003 83.2007 34.8003 83.1007 34.2003C83.0007 33.4003 82.9007 32.7003 82.9007 31.9003C82.7007 30.0003 82.5007 28.1003 82.4007 26.2003C82.4007 25.7003 82.2007 25.3003 81.7007 25.0003C79.2007 23.4003 76.7007 21.7003 74.2007 20.1003L71.8007 18.5003L68.0007 16.1003C65.3007 14.3003 62.6007 12.6003 59.9007 10.8003C59.3007 10.4003 58.9007 10.4003 58.6007 10.9003C57.4007 12.4003 56.2007 13.8003 55.0007 15.3003C54.2007 16.2003 53.5007 17.2003 52.7007 18.1003C52.6007 18.2003 52.5007 18.3003 52.5007 18.5003C52.4007 18.7003 52.4007 18.9003 52.4007 19.1003C52.4007 20.3003 52.3007 21.5003 52.3007 22.6003C52.3007 23.5003 52.3007 24.5003 52.2007 25.4003C52.2007 25.7003 52.1007 26.1003 51.9007 26.3003C49.1007 30.5003 46.2007 34.7003 43.3007 38.8003C43.0007 39.3003 42.9007 39.6003 43.2007 40.1003C44.2007 41.9003 45.3007 43.8003 46.3007 45.7003C47.5007 47.9003 48.8007 50.2003 50.1007 52.4003C50.3007 52.7003 50.6007 52.9003 50.8007 53.1003C53.4007 54.3003 56.0007 55.6003 58.6007 56.8003C61.8007 58.3003 65.0007 59.8003 68.3007 61.4003C68.9007 61.7003 69.4007 61.6003 70.0007 61.2003C72.0007 59.7003 74.0007 58.2003 76.0007 56.7003C79.9007 53.8003 83.8007 50.8003 87.7007 47.9003C87.8007 47.8003 87.9007 47.7003 88.0007 47.6003C88.0007 47.5003 88.1007 47.5003 88.1007 47.4003C88.0007 47.2003 87.9007 47.1003 87.9007 47.0003ZM80.8007 26.9003L81.8007 38.5003L69.5007 36.3003C69.8007 35.7003 70.0007 35.1003 70.3007 34.5003C70.6007 33.9003 70.8007 33.4003 71.1007 32.8003C71.3007 32.3003 71.5007 31.8003 71.8007 31.3003C71.9007 31.1003 72.0007 30.9003 72.2007 30.8003C74.6007 29.7003 77.1007 28.6003 79.6007 27.4003L80.6007 26.9003C80.6007 27.0003 80.7007 27.0003 80.8007 26.9003ZM62.0007 14.1003L79.8007 25.6003L71.6007 29.4003L62.0007 14.1003ZM68.6007 59.5003C68.6007 59.5003 68.6007 59.6003 68.5007 59.7003L52.8007 52.3003C53.6007 51.9003 54.4007 51.5003 55.2007 51.2003C56.2007 50.8003 56.8007 50.2003 56.9007 49.1003C56.9007 48.7003 57.0007 48.3003 57.1007 47.8003C57.2007 47.5003 57.2007 47.2003 57.3007 46.8003C57.4007 46.4003 57.2007 46.0003 56.7007 45.9003C56.2007 45.8003 55.8007 46.1003 55.7007 46.6003C55.6007 47.1003 55.5007 47.6003 55.4007 48.1003C55.4007 48.4003 55.3007 48.7003 55.2007 49.1003C55.2007 49.2003 55.1007 49.3003 55.0007 49.4003L54.9007 49.5003C54.0007 49.9003 53.1007 50.4003 52.2007 50.8003L51.3007 51.2003C51.2007 51.0003 51.1007 50.9003 51.0007 50.8003L48.7007 46.7003C47.4007 44.5003 46.1007 42.2003 44.9007 39.9003C44.8007 39.7003 44.7007 39.5003 44.9007 39.2003C47.6007 35.3003 50.3007 31.3003 53.0007 27.4003C53.0007 27.4003 53.0007 27.3003 53.1007 27.3003L53.2007 27.2003L53.9007 27.7003C54.7007 28.3003 55.5007 28.8003 56.3007 29.4003C56.4007 29.5003 56.5007 29.7003 56.6007 29.9003C56.9007 30.8003 57.2007 31.7003 57.5007 32.7003C57.9007 33.8003 58.2007 34.9003 58.5007 36.0003C58.6007 36.2003 58.7007 36.4003 58.8007 36.5003C59.5007 37.0003 60.1007 37.4003 60.8007 37.9003C61.2007 38.1003 61.6007 38.1003 61.8007 37.7003C62.0007 37.4003 61.9007 36.9003 61.6007 36.6003C61.5007 36.6003 61.5007 36.5003 61.4007 36.5003C60.2007 36.0003 59.7007 35.0003 59.4007 33.8003C59.2007 33.1003 59.0007 32.3003 58.8007 31.6003C58.5007 30.7003 58.2007 29.9003 58.0007 29.0003C57.9007 28.6003 57.6007 28.3003 57.3007 28.0003C56.3007 27.2003 55.3007 26.5003 54.2007 25.8003C53.9007 25.6003 53.8007 25.4003 53.8007 25.0003C53.8007 23.9003 53.8007 22.9003 53.9007 21.8003C53.9007 20.9003 53.9007 20.0003 53.9007 19.1003C53.9007 18.9003 54.0007 18.7003 54.1007 18.5003C55.8007 16.5003 57.4007 14.5003 59.1007 12.4003C59.1007 12.4003 59.1007 12.4003 59.2007 12.3003C59.2007 12.3003 59.2007 12.3003 59.3007 12.2003L61.4007 15.5003C64.4007 20.2003 67.3007 24.9003 70.3007 29.6003C70.5007 29.9003 70.5007 30.2003 70.4007 30.5003C69.6007 32.3003 68.8007 34.0003 68.1007 35.8003C68.0007 36.1003 68.0007 36.5003 68.0007 36.8003L68.2007 37.5003C69.0007 40.4003 69.7007 43.3003 70.6007 46.2003C70.8007 47.0003 70.7007 47.8003 70.6007 48.5003C70.6007 48.6003 70.6007 48.8003 70.5007 48.9003C69.7007 52.7003 69.1007 56.1003 68.6007 59.5003ZM70.2007 59.1003C70.3007 58.2003 70.5007 57.4003 70.6007 56.6003C71.0007 53.9003 71.5007 51.3003 71.9007 48.6003C71.9007 48.4003 72.0007 48.3003 72.1007 48.2003C72.2007 48.2003 72.2007 48.2003 72.3007 48.2003C76.4007 48.2003 80.5007 48.2003 84.7007 48.2003L70.2007 59.1003ZM85.3007 46.5003C81.0007 46.5003 76.7007 46.5003 72.5007 46.5003C72.1007 46.5003 71.9007 46.4003 71.8007 46.0003C71.3007 43.9003 70.7007 41.9003 70.1007 39.8003L69.5007 37.7003L70.8007 37.9003C71.8007 38.1003 72.7007 38.2003 73.6007 38.4003C74.6007 38.6003 75.6007 38.8003 76.6007 39.0003C78.3007 39.3003 79.9007 39.6003 81.6007 39.9003C82.0007 40.0003 82.2007 40.1003 82.4007 40.5003C83.2007 42.0003 84.0007 43.4003 84.9007 44.9003L85.8007 46.4003C85.6007 46.5003 85.5007 46.5003 85.3007 46.5003Z" fill="#404041"/>
</svg>
