<svg width="131" height="72" viewBox="0 0 131 72" fill="none" xmlns="http://www.w3.org/2000/svg">
<path fill-rule="evenodd" clip-rule="evenodd" d="M95.0006 5.70041C85.0006 10.2004 75.1006 14.7004 65.2006 19.3004C64.9006 19.5004 64.5006 19.7004 64.3006 20.1004C61.1006 25.0004 57.9006 29.8004 54.7006 34.7004L51.9006 39.0004C46.2006 47.5004 40.5006 56.1004 34.9006 64.7004C34.6006 65.2004 34.3006 65.7004 34.7006 66.2004C35.2006 66.7004 35.7006 66.5004 36.2006 66.3004C52.7006 58.3004 69.1006 50.4004 85.6006 42.5004C86.2006 42.2004 86.6006 41.8004 86.7006 41.2004C88.2006 36.1004 89.6006 30.9004 91.1006 25.8004C92.5006 20.8004 94.0006 15.7004 95.4006 10.7004C95.7006 9.70042 95.9006 8.80043 96.2006 7.90043L96.5006 6.70041C96.5006 5.60041 95.9006 5.30041 95.0006 5.70041ZM91.9006 10.6004L77.0006 35.7004L69.2006 27.6004L91.8006 10.5004L91.9006 10.6004ZM87.3006 11.2004L87.4006 11.4004L68.3006 25.9004L66.4006 20.7004L87.3006 11.2004ZM64.9006 22.4004C65.5006 24.0004 66.0006 25.5004 66.6006 27.0004C66.7006 27.2004 66.6006 27.5004 66.4006 27.7004C63.6006 31.0004 60.7006 34.4004 57.9006 37.7004C56.6006 39.3004 55.2006 40.9004 53.9006 42.5004C51.2006 45.5004 48.6006 48.5004 46.0006 51.6004C45.9006 51.7004 45.8006 51.9004 45.5006 51.9004L64.9006 22.4004ZM41.1006 60.4004L67.8006 28.9004L75.7006 37.1004L41.1006 60.4004ZM48.3006 58.3004L48.2006 58.1004L52.7006 55.0004C60.7006 49.5004 68.8006 44.1004 76.8006 38.6004C77.2006 38.3004 77.5006 38.3004 77.9006 38.5004C79.2006 39.2004 80.5006 39.8004 81.9006 40.5004C82.4006 40.7004 82.9006 41.0004 83.5006 41.3004L48.3006 58.3004ZM85.0006 40.1004L78.5006 36.9004L92.2006 13.9004L92.4006 14.0004L85.0006 40.1004Z" fill="#404041"/>
</svg>
