<svg width="131" height="72" viewBox="0 0 131 72" fill="none" xmlns="http://www.w3.org/2000/svg">
<path fill-rule="evenodd" clip-rule="evenodd" d="M88.7004 39.0003C85.7004 34.5003 82.7004 30.0003 79.7004 25.5003C79.5004 25.2003 79.4004 24.8003 79.4004 24.5003C79.4004 23.4003 79.4004 22.3003 79.3004 21.2003C79.3004 20.0003 79.3004 18.9003 79.2004 17.7003C79.2004 17.4003 79.1004 17.0003 78.8004 16.7003C76.9004 14.3003 75.0004 11.9003 73.1004 9.60026L72.6004 8.90026C72.2004 8.40026 71.8004 8.40026 71.2004 8.80026C67.1004 11.6003 63.0004 14.3003 58.8004 17.1003L56.4004 18.7003C53.8004 20.5003 51.2004 22.2003 48.6004 23.9003C48.1004 24.2003 47.9004 24.7003 47.8004 25.2003C47.6004 28.1003 47.3004 31.0003 47.0004 33.8003C47.0004 34.4003 46.9004 35.1003 46.8004 35.7003C46.7004 36.6003 46.6004 37.4003 46.6004 38.3003C46.5004 38.9003 46.4004 39.5003 46.1004 39.9003C44.8004 42.4003 43.5004 44.8003 42.2004 47.2003C42.1004 47.4003 42.0004 47.7003 41.9004 48.0003C41.9004 48.1003 42.0004 48.1003 42.0004 48.2003C42.1004 48.3003 42.2004 48.5003 42.3004 48.6003C48.5004 53.4003 54.6004 58.2003 60.8004 63.0003C61.4004 63.5003 61.9004 63.5003 62.5004 63.2003C65.9004 61.5003 69.3004 59.9003 72.7004 58.2003C75.4004 56.9003 78.1004 55.6003 80.8004 54.3003C81.1004 54.2003 81.4004 53.9003 81.6004 53.6003C84.0004 49.2003 86.4004 44.8003 88.8004 40.4003C89.1004 40.0003 89.1004 39.5003 88.7004 39.0003ZM69.1004 12.3003C69.2004 12.4003 69.1004 12.4003 69.1004 12.3003C67.5004 15.1003 66.1004 16.0003 64.7004 16.9003C63.3004 17.8003 61.9004 18.7003 60.2004 21.5003C58.8004 20.8003 57.1004 22.0003 55.4004 23.1003C53.7004 24.3003 52.0004 25.4003 50.5004 24.7003L69.1004 12.3003ZM49.5004 26.2003C49.6004 26.2003 49.6004 26.2003 49.5004 26.2003H49.7004C51.2004 26.9003 51.0004 29.0003 50.7004 31.1003C50.5004 33.2003 50.3004 35.3003 51.7004 36.0003C51.8004 36.0003 53.4004 34.8003 55.1004 33.5003C56.9004 32.1003 58.7004 30.7003 58.8004 30.8003C59.2004 31.7003 59.6004 32.6003 60.0004 33.6003L60.3004 34.3003C60.6004 34.9003 60.8004 35.5003 61.1004 36.2003L48.3004 38.6003L49.5004 26.2003ZM44.8004 47.4003C44.7004 47.4003 44.6004 47.4003 44.5004 47.4003C44.5004 47.4003 44.4004 47.4003 44.3004 47.4003C45.5004 45.2003 46.7004 43.1003 47.8004 41.0003C48.0004 40.6003 48.3004 40.5003 48.6004 40.4003C50.0004 40.1003 50.2004 41.9003 50.4004 43.6003C50.6004 45.4003 50.8004 47.1003 52.2004 46.8003C52.9004 46.7003 54.7004 44.6003 56.5004 42.5003C58.4004 40.3003 60.4004 38.1003 61.1004 37.9003C60.3004 40.9003 59.5004 43.9003 58.8004 46.8003C58.7004 47.3003 58.5004 47.4003 58.1004 47.4003C54.8004 47.4003 51.6004 47.4003 48.3004 47.4003C47.2004 47.4003 46.0004 47.4003 44.8004 47.4003ZM57.5004 56.9003C57.2004 55.9003 57.0004 54.9003 54.4004 53.0003C56.6004 53.0003 56.5004 52.0003 56.4004 51.0003C56.3004 50.0003 56.2004 49.1003 58.3004 49.0003C58.4004 49.0003 58.4004 49.0003 58.5004 49.0003C58.7004 49.0003 58.7004 49.2003 58.8004 49.4003C59.3004 52.3003 59.7004 55.2003 60.2004 58.1003C60.3004 59.0003 60.5004 59.8003 60.6004 60.8003C58.0004 58.9003 57.7004 57.9003 57.5004 56.9003ZM80.6004 52.0003C80.5004 52.1003 80.5004 52.2003 80.4004 52.3003C80.4004 52.3003 80.3004 52.4003 80.3004 52.5003C79.0004 51.9003 77.8004 51.3003 76.6004 50.7003C76.5004 50.6003 76.4004 50.4003 76.3004 50.2003C76.2004 49.6003 76.1004 49.0003 76.0004 48.4003C76.0004 48.1003 75.9004 47.8003 75.9004 47.6003C75.8004 47.0003 75.4004 46.7003 74.9004 46.8003C74.4004 46.9003 74.2004 47.3003 74.3004 47.8003C74.3004 48.1003 74.4004 48.4003 74.5004 48.7003C74.6004 49.2003 74.7004 49.7003 74.7004 50.3003C74.7004 51.5003 75.4004 52.1003 76.4004 52.5003C77.0004 52.7003 77.5004 53.0003 78.1004 53.3003C78.4004 53.4003 78.6004 53.6003 78.9004 53.7003C76.9004 54.5003 75.9004 53.5003 74.8004 52.5003C72.7004 50.5003 70.7004 48.5003 62.3004 61.6003C62.3004 61.4003 70.4004 41.9003 70.4004 41.9003C70.1004 40.0003 67.8004 43.1003 65.4004 46.1003C63.1004 49.1003 60.7004 52.1003 60.5004 50.3003C60.4004 49.3003 60.1004 48.4003 60.4004 47.4003C61.3004 44.3003 62.1004 41.2003 62.9004 38.1003L63.1004 37.4003C63.2004 37.1003 63.1004 36.6003 63.0004 36.3003C62.6004 35.3003 64.5004 33.7003 66.4004 32.0003C68.3004 30.3003 70.2004 28.7003 69.8004 27.7003C69.7004 27.5003 67.0004 28.2003 64.5004 28.8003C62.4004 29.3003 60.5004 29.8003 60.6004 29.6003C71.7004 25.9003 70.8004 22.6003 69.8004 19.4003C69.3004 17.8003 68.8004 16.1003 69.9004 14.5003L72.1004 11.0003C72.1004 11.0003 72.1004 11.0003 72.2004 11.0003L72.3004 11.1003C73.2004 12.2003 72.6004 15.7003 72.1004 19.2003C71.6004 22.7003 71.1004 26.2003 71.9004 27.3003C72.0004 27.3003 73.8004 24.4003 75.4004 21.8003C76.6004 19.9003 77.6004 18.2003 77.7004 18.2003C77.7004 19.2003 77.7004 20.1003 77.7004 21.1003C77.7004 22.3003 77.7004 23.4003 77.8004 24.6003C77.8004 25.0003 77.7004 25.2003 77.4004 25.4003C76.3004 26.2003 75.2004 26.9003 74.2004 27.8003C74.1004 27.9003 73.9004 28.0003 73.8004 28.2003C73.6004 28.4003 73.5004 28.6003 73.4004 28.9003C72.9004 30.6003 72.3004 32.3003 71.9004 34.0003C71.6004 35.3003 71.0004 36.3003 69.8004 36.9003C69.8004 36.9003 69.7004 36.9003 69.7004 37.0003C69.7004 37.0003 69.7004 37.0003 69.6004 37.1003C69.3004 37.4003 69.1004 37.9003 69.4004 38.3003C69.7004 38.7003 70.1004 38.8003 70.5004 38.5003C71.2004 38.0003 71.9004 37.5003 72.6004 37.0003C72.8004 36.9003 72.9004 36.6003 72.9004 36.4003C73.6004 34.2003 74.2004 32.0003 74.9004 29.8003C75.0004 29.6003 75.0004 29.4003 75.2004 29.3003C76.3004 28.5003 77.4004 27.7003 78.4004 26.9003C78.5004 27.0003 78.5004 27.0003 78.6004 27.1003C80.0004 29.2003 77.8004 31.9003 75.7004 34.7003C73.5004 37.4003 71.4004 40.1003 72.8004 42.2003C73.0004 42.5003 78.5004 48.1003 87.1004 40.7003C84.9004 44.2003 82.7004 48.1003 80.6004 52.0003Z" fill="#404041"/>
</svg>
