<svg width="131" height="72" viewBox="0 0 131 72" fill="none" xmlns="http://www.w3.org/2000/svg">
<path fill-rule="evenodd" clip-rule="evenodd" d="M92.0004 26.9996C90.3004 24.5996 88.6004 22.1996 86.9004 19.7996L86.4004 19.0996C86.3004 18.9996 86.2004 18.7996 86.1004 18.6996C85.8004 18.3996 85.5004 18.3996 85.1004 18.5996C84.8004 18.7996 84.6004 19.1996 84.8004 19.5996C84.9004 19.7996 85.0004 19.9996 85.1004 20.0996C86.7004 22.3996 88.3004 24.6996 90.0004 26.9996C90.0004 27.0996 90.1004 27.0996 90.1004 27.1996C90.2004 27.2996 90.2004 27.3996 90.3004 27.4996C89.5004 27.4996 88.8004 27.4996 88.1004 27.4996C86.6004 27.4996 85.1004 27.3996 83.7004 27.3996C82.5004 27.3996 81.3004 27.2996 80.1004 27.2996C80.0004 27.2996 79.9004 27.2996 79.8004 27.1996C79.7004 27.0996 79.6004 27.0996 79.5004 26.9996C78.8004 25.9996 78.1004 24.9996 77.4004 23.9996C76.9004 23.1996 76.3004 22.4996 75.8004 21.6996C75.7004 21.4996 75.6004 21.1996 75.7004 21.0996C76.2004 20.1996 76.7004 19.1996 77.1004 18.2996C78.0004 16.5996 78.9004 14.8996 79.8004 13.1996C79.8004 13.0996 79.9004 13.0996 80.0004 12.9996L82.5004 16.5996V16.6996C82.6004 16.7996 82.6004 16.8996 82.7004 16.9996C83.0004 17.2996 83.4004 17.3996 83.7004 17.0996C84.1004 16.8996 84.2004 16.3996 83.9004 15.9996C83.6004 15.4996 83.3004 15.0996 83.0004 14.6996C82.7004 14.1996 82.3004 13.7996 82.0004 13.2996C81.6004 12.6996 81.2004 12.0996 80.8004 11.5996C80.4004 10.9996 79.8004 10.5996 79.0004 10.5996C69.9004 10.5996 60.8004 10.5996 51.7004 10.5996C50.9004 10.5996 50.3004 10.8996 49.9004 11.5996C46.2004 16.7996 42.6004 21.9996 38.9004 27.0996C38.7004 27.3996 38.5004 27.5996 38.4004 27.8996V28.7996C38.5004 28.8996 38.6004 28.9996 38.6004 29.1996C38.8004 29.4996 38.9004 29.6996 39.1004 29.9996C44.5004 36.7996 49.9004 43.4996 55.3004 50.1996L56.2004 51.2996C56.3004 51.4996 56.4004 51.5996 56.6004 51.6996C56.9004 51.8996 57.1004 51.8996 57.4004 51.6996C57.9004 51.3996 57.9004 50.8996 57.5004 50.3996C56.9004 49.6996 56.3004 48.8996 55.7004 48.1996C55.1004 47.4996 54.5004 46.7996 54.0004 46.0996L41.0004 29.4996C41.0004 29.3996 40.9004 29.3996 40.8004 29.2996L40.7004 29.1996C40.8004 29.1996 40.9004 29.1996 40.9004 29.1996C41.1004 29.1996 41.2004 29.1996 41.3004 29.1996C44.5004 29.0996 47.7004 28.9996 50.9004 28.9996C51.1004 28.9996 51.4004 29.1996 51.6004 29.2996C53.2004 31.1996 54.7004 33.1996 56.3004 35.0996C58.8004 38.1996 61.3004 41.3996 63.9004 44.4996C64.4004 45.1996 64.7004 45.7996 64.7004 46.6996C64.7004 50.5996 64.7004 54.4996 64.7004 58.2996V58.8996L64.6004 58.9996C64.5004 58.8996 64.5004 58.7996 64.4004 58.6996C63.0004 56.9996 61.7004 55.2996 60.3004 53.5996C60.0004 53.2996 59.7004 53.0996 59.3004 53.1996C58.8004 53.3996 58.6004 53.9996 59.0004 54.4996C59.9004 55.5996 60.8004 56.6996 61.7004 57.8996C62.5004 58.8996 63.4004 59.9996 64.2004 60.9996C65.0004 61.9996 66.3004 61.8996 67.2004 60.7996C68.2004 59.5996 69.2004 58.3996 70.1004 57.0996L72.6004 53.9996L92.0004 29.7996C92.7004 28.6996 92.7004 27.9996 92.0004 26.9996ZM78.5004 12.0996L78.4004 12.2996C78.4004 12.3996 78.4004 12.3996 78.3004 12.4996C76.9004 15.0996 75.6004 17.6996 74.2004 20.2996C74.0004 20.5996 73.8004 20.5996 73.6004 20.5996H73.1004C67.9004 20.5996 62.6004 20.5996 57.3004 20.5996C57.0004 20.5996 56.8004 20.4996 56.6004 20.1996C55.3004 17.6996 54.0004 15.0996 52.6004 12.5996C52.5004 12.4996 52.5004 12.2996 52.4004 12.0996H78.5004ZM51.5004 26.8996C51.3004 27.1996 51.1004 27.2996 50.8004 27.2996C49.4004 27.2996 47.9004 27.3996 46.5004 27.3996C45.4004 27.3996 44.3004 27.4996 43.3004 27.4996C42.8004 27.4996 42.2004 27.4996 41.6004 27.4996H40.8004L51.0004 12.7996C51.0004 12.7996 51.0004 12.8996 51.1004 12.8996L51.2004 12.9996C52.6004 15.6996 54.0004 18.2996 55.3004 20.9996C55.4004 21.1996 55.3004 21.4996 55.2004 21.5996C54.0004 23.3996 52.7004 25.1996 51.5004 26.8996ZM65.5004 43.8996L52.7004 27.9996L53.7004 26.5996C54.7004 25.2996 55.6004 23.8996 56.5004 22.5996C56.7004 22.2996 57.0004 22.1996 57.4004 22.1996C62.6004 22.1996 67.8004 22.1996 73.1004 22.1996C74.0004 22.1996 74.5004 22.3996 75.0004 23.1996C76.1004 24.8996 77.3004 26.3996 78.4004 28.0996L65.5004 43.8996ZM66.4004 58.8996L66.3004 58.3996C66.3004 56.3996 66.3004 54.4996 66.3004 52.4996C66.3004 50.4996 66.3004 48.5996 66.3004 46.6996C66.3004 45.8996 66.5004 45.2996 67.0004 44.5996C70.9004 39.7996 74.7004 34.9996 78.5004 30.1996L79.2004 29.2996C79.4004 28.9996 79.7004 28.8996 80.1004 28.8996C81.7004 28.8996 83.3004 28.9996 85.0004 28.9996C86.4004 28.9996 87.8004 29.0996 89.2004 29.0996C89.5004 29.0996 89.9004 29.0996 90.3004 29.0996L66.4004 58.8996Z" fill="#404041"/>
</svg>
