<svg width="131" height="72" viewBox="0 0 131 72" fill="none" xmlns="http://www.w3.org/2000/svg">
<path fill-rule="evenodd" clip-rule="evenodd" d="M92.9001 34.8005C92.8001 34.6005 92.7001 34.4005 92.5001 34.2005C84.1001 26.0005 75.8001 17.7005 67.4001 9.50052C67.0001 9.10052 66.5001 9.00052 66.0001 9.10052C58.8001 10.8005 51.5001 12.4005 44.3001 14.1005C43.7001 14.2005 43.4001 14.6005 43.2001 15.2005C41.5001 22.3005 39.8001 29.4005 38.1001 36.5005C37.9001 37.2005 38.1001 37.6005 38.6001 38.0005C46.9001 46.2005 55.3001 54.4005 63.6001 62.6005C64.1001 63.1005 64.5001 63.2005 65.1001 63.0005C72.3001 61.3005 79.5001 59.7005 86.7001 58.0005C87.4001 57.8005 87.7001 57.5005 87.9001 56.8005C89.3001 50.9005 90.7001 44.9005 92.1001 39.0005C92.3001 38.2005 92.5001 37.3005 92.7001 36.4005L93.0001 35.0005C93.0001 34.9005 92.9001 34.8005 92.9001 34.8005ZM66.9001 13.1005L67.0001 12.2005L89.6001 34.4005L88.6001 34.5005C87.6001 34.6005 86.5001 34.8005 85.4001 34.9005C85.2001 34.9005 85.0001 34.8005 84.8001 34.7005L80.7001 30.7005C76.0001 26.1005 71.3001 21.4005 66.6001 16.8005C66.5001 16.7005 66.4001 16.4005 66.4001 16.2005C66.6001 15.2005 66.8001 14.1005 66.9001 13.1005ZM65.1001 11.2005C65.0001 12.1005 64.9001 13.0005 64.8001 13.8005C64.8001 14.0005 64.8001 14.2005 64.7001 14.4005C64.7001 14.8005 64.6001 15.1005 64.6001 15.5005C64.6001 15.9005 64.4001 16.1005 64.0001 16.2005C61.6001 16.7005 59.2001 17.1005 56.8001 17.6005C54.6001 18.0005 52.4001 18.5005 50.2001 18.9005C50.0001 18.9005 49.6001 18.9005 49.5001 18.8005C48.7001 18.0005 47.9001 17.3005 47.0001 16.4005C46.7001 16.1005 46.5001 15.9005 46.2001 15.6005L65.1001 11.2005ZM44.7001 17.0005L45.5001 17.8005C46.4001 18.6005 47.2001 19.5005 48.0001 20.3005C48.1001 20.4005 48.1001 20.5005 48.1001 20.6005C48.1001 20.7005 48.1001 20.8005 48.1001 20.9005C47.2001 25.5005 46.2001 30.1005 45.3001 34.7005C45.3001 34.8005 45.2001 35.0005 45.1001 35.1005H45.0001C43.8001 35.3005 42.6001 35.4005 41.4001 35.6005L40.3001 35.7005L44.7001 17.0005ZM63.8001 59.8005L41.2001 37.6005C42.5001 37.4005 43.9001 37.2005 45.3001 37.1005C45.5001 37.1005 45.9001 37.2005 46.0001 37.4005C52.0001 43.3005 58.1001 49.2005 64.1001 55.2005C64.2001 55.3005 64.3001 55.4005 64.3001 55.5005C64.4001 55.6005 64.4001 55.8005 64.4001 55.9005C64.2001 57.2005 64.0001 58.5005 63.8001 59.8005ZM55.3001 43.7005C52.7001 41.1005 50.1001 38.6005 47.5001 36.0005C47.3001 35.8005 47.2001 35.5005 47.3001 35.3005C48.1001 31.3005 48.9001 27.3005 49.8001 23.2005L50.3001 20.9005L52.6001 20.4005C56.8001 19.6005 60.9001 18.8005 65.0001 18.0005C65.2001 18.0005 65.5001 18.1005 65.7001 18.3005C67.3001 19.8005 68.8001 21.3005 70.4001 22.9005C71.6001 24.1005 72.8001 25.3005 74.0001 26.5005L76.3001 28.8005C78.7001 31.1005 81.0001 33.5005 83.4001 35.8005C83.6001 36.0005 83.8001 36.2005 83.8001 36.5005C83.8001 36.7005 83.8001 36.8005 83.8001 37.0005C83.1001 40.5005 82.4001 44.0005 81.6001 47.5005L80.9001 50.9005C80.9001 50.9005 80.9001 50.9005 80.9001 51.0005V51.1005C78.7001 51.5005 76.4001 52.0005 74.2001 52.4005L73.5001 52.5005C71.2001 53.0005 68.8001 53.4005 66.5001 53.9005C66.3001 53.9005 65.9001 53.8005 65.7001 53.7005C62.1001 50.4005 58.7001 47.0005 55.3001 43.7005ZM65.7001 60.8005V60.5005C65.7001 60.3005 65.7001 60.1005 65.8001 59.9005C65.9001 59.5005 65.9001 59.2005 66.0001 58.8005C66.1001 58.0005 66.2001 57.2005 66.3001 56.4005C66.3001 56.1005 66.5001 55.9005 66.8001 55.9005L73.3001 54.6005C75.8001 54.1005 78.3001 53.6005 80.9001 53.1005C81.0001 53.1005 81.0001 53.1005 81.1001 53.1005C81.2001 53.1005 81.4001 53.1005 81.4001 53.2005C82.2001 54.0005 83.1001 54.8005 83.9001 55.7005L84.7001 56.5005L65.7001 60.8005ZM86.2001 55.0005L85.4001 54.2005C84.6001 53.4005 83.7001 52.6005 82.9001 51.7005C82.8001 51.6005 82.8001 51.2005 82.8001 51.0005C83.3001 48.7005 83.8001 46.3005 84.2001 44.0005C84.7001 41.8005 85.1001 39.6005 85.6001 37.4005C85.6001 37.2005 85.8001 36.9005 86.0001 36.9005C87.2001 36.7005 88.3001 36.6005 89.5001 36.4005C89.9001 36.4005 90.2001 36.3005 90.6001 36.2005L86.2001 55.0005Z" fill="#404041"/>
</svg>
