<svg width="131" height="72" viewBox="0 0 131 72" fill="none" xmlns="http://www.w3.org/2000/svg">
<path fill-rule="evenodd" clip-rule="evenodd" d="M86.6007 45.3996C86.3007 45.1996 85.9007 45.0995 85.6007 44.9995C84.2007 44.5995 82.8007 44.1996 81.4007 43.6996L81.2007 43.5995L79.7007 43.1996L80.1007 42.9995H80.2007C80.4007 42.8995 80.7007 42.7996 80.9007 42.6996C81.5007 42.4996 82.2007 42.1995 82.8007 41.9995C84.2007 41.4995 85.7007 40.8995 87.1007 40.2995C90.6007 38.6995 92.9007 34.4995 92.1007 30.8995C91.4007 27.4995 89.6007 24.8995 86.3007 23.6995C85.6007 23.3995 85.3007 23.1995 85.2007 22.3995C84.6007 17.2995 79.2007 13.6995 74.2007 14.8995C74.0007 14.8995 73.8007 14.8995 73.7007 14.8995C73.7007 14.8995 73.6007 14.8995 73.6007 14.7995C73.5007 14.6995 73.5007 14.5995 73.4007 14.5995C71.0007 8.89956 63.0007 7.69956 58.9007 12.3995C58.4007 12.8995 58.0007 13.5995 57.6007 14.1995C57.4007 14.4995 57.2007 14.7995 57.0007 15.0995C54.5007 14.3995 52.1007 14.7995 49.8007 16.2995C47.5007 17.7995 46.0007 19.7995 45.7007 22.4995C45.6007 23.2995 45.4007 23.5995 44.7007 23.8995C41.2007 25.1995 39.3007 27.8995 38.9007 31.4995C38.4007 35.1995 40.1007 38.0995 43.3007 40.0995C44.4007 40.7995 45.6007 41.1996 46.8007 41.6996C47.0007 41.7996 47.1007 41.7996 47.3007 41.8996C47.5007 41.9996 47.7007 42.0995 47.9007 42.0995C48.7007 42.3995 49.5007 42.6995 50.4007 42.9995C50.8007 43.0995 51.2007 43.2996 51.6007 43.3996C51.5007 43.3996 51.4007 43.4995 51.3007 43.4995C51.1007 43.4995 51.0007 43.5995 50.9007 43.5995L49.3007 44.0995C47.8007 44.4995 46.3007 44.9996 44.8007 45.3996C43.1007 45.8996 42.1007 47.0995 41.7007 48.7995C41.0007 51.1995 41.7007 53.2995 43.9007 54.4995C44.6007 54.8995 45.3007 55.0996 46.0007 55.3996C46.4007 55.4996 46.8007 55.5995 47.1007 55.7995C47.3007 55.8995 47.5007 55.9995 47.6007 56.0995C48.2007 57.7995 49.5007 58.7996 51.1007 59.3996C53.2007 60.1996 55.5007 60.1995 57.7007 60.0995C58.0007 60.0995 58.2007 60.1996 58.5007 60.3996C58.7007 60.4996 58.9007 60.6995 59.1007 60.7995C59.4007 60.9995 59.7007 61.1996 60.0007 61.3996C62.4007 62.5996 64.9007 62.8995 67.5007 62.4995C69.5007 62.1995 71.3007 61.5996 72.8007 60.1996C72.9007 60.0996 73.1007 60.0995 73.3007 60.0995C75.1007 60.1995 76.9007 60.1995 78.7007 59.7995C80.9007 59.2995 82.6007 58.2995 83.4007 56.0995C83.5007 55.8995 83.7007 55.7995 83.9007 55.7995C84.3007 55.5995 84.7007 55.4996 85.1007 55.3996C85.9007 55.0996 86.7007 54.7995 87.4007 54.4995C88.5007 53.8995 89.3007 52.9996 89.6007 51.6996C90.1007 49.1996 88.8007 46.3996 86.6007 45.3996ZM88.7007 27.6995C91.6007 31.2995 90.6007 36.5995 86.4007 38.5995C84.5007 39.4995 82.5007 40.1995 80.5007 40.8995C79.4007 41.2995 78.2007 41.6996 77.1007 42.1996C76.2007 42.4996 75.4007 42.5995 74.4007 42.2995C74.6007 42.0995 74.7007 41.8996 74.9007 41.6996C75.2007 41.1996 75.6007 40.7995 75.9007 40.2995L77.4007 38.1995C79.2007 35.5995 81.1007 33.0995 82.9007 30.4995C83.9007 28.9995 84.9007 27.3995 85.2007 25.4995C86.6007 25.7995 87.8007 26.5995 88.7007 27.6995ZM73.9007 24.8995C74.2007 23.0995 74.4007 21.3995 74.5007 19.5995C74.6007 18.9995 74.5007 18.3995 74.5007 17.7995C74.5007 17.4995 74.5007 17.1995 74.5007 16.8995C75.4007 16.4995 76.4007 16.4995 77.4007 16.6995C81.1007 17.1995 83.6007 20.1995 83.5007 23.8995C83.5007 25.1995 83.2007 26.3995 82.5007 27.3995C81.5007 28.8995 80.5007 30.3995 79.5007 31.8995C78.3007 33.5995 77.1007 35.3995 75.9007 37.0995L75.5007 37.5995C75.0007 38.3995 74.4007 39.0995 73.9007 39.7995C73.2007 38.7995 72.6007 37.8995 72.0007 36.9995C72.0007 36.8995 71.9007 36.7995 71.9007 36.6995C71.9007 36.5995 71.9007 36.4995 71.9007 36.3995C72.1007 34.9995 72.4007 33.5995 72.7007 32.1995C73.0007 29.6995 73.4007 27.2995 73.9007 24.8995ZM72.3007 42.6996C72.3007 46.4996 69.5007 49.2996 65.7007 49.3996C62.0007 49.3996 59.1007 46.5995 59.1007 42.7995C59.1007 39.1995 62.1007 36.1995 65.7007 36.1995C69.3007 36.1995 72.2007 39.1996 72.3007 42.6996ZM58.6007 16.8995C59.3007 13.7995 62.1007 11.4995 65.2007 11.3995C69.8007 11.1995 73.0007 15.1995 72.6007 19.2995C72.3007 22.2995 71.8007 25.2995 71.4007 28.2995C71.3007 28.8995 71.2007 29.3995 71.1007 29.9995C70.9007 30.9995 70.7007 32.0995 70.5007 33.0995C70.4007 33.7995 70.2007 34.3995 70.1007 35.0995C70.1007 35.1995 70.1007 35.1995 70.0007 35.2995V35.3995C67.1007 33.7995 63.8007 33.9995 61.3007 35.4995C61.3007 35.3995 61.2007 35.3995 61.2007 35.2995C60.4007 30.8995 59.5007 26.4995 58.8007 22.0995C58.5007 20.2995 58.2007 18.5995 58.6007 16.8995ZM53.3007 16.7995C53.7007 16.6995 54.0007 16.6995 54.4007 16.6995C54.8007 16.6995 55.2007 16.6995 55.5007 16.6995H55.9007C56.0007 16.6995 56.1007 16.6995 56.2007 16.6995C56.3007 16.6995 56.6007 16.9995 56.6007 17.0995C56.4007 19.4995 56.8007 21.8995 57.2007 24.1995L57.3007 24.5995C57.3007 24.7995 57.4007 24.9995 57.4007 25.2995C57.8007 27.6995 58.3007 30.0995 58.8007 32.3995C59.1007 33.6995 59.3007 34.9995 59.6007 36.2995C59.6007 36.3995 59.6007 36.5995 59.6007 36.6995C59.6007 36.7995 59.5007 36.8995 59.5007 36.9995C59.3007 37.2995 59.1007 37.6995 58.9007 37.9995C58.6007 38.3995 58.4007 38.7995 58.1007 39.1995L58.0007 39.3995L57.6007 40.0995C57.6007 40.0995 57.6007 39.9995 57.5007 39.8995C56.7007 38.6995 55.9007 37.5995 55.1007 36.3995C54.0007 34.8995 52.9007 33.2995 51.8007 31.7995C51.0007 30.6995 50.3007 29.5995 49.5007 28.4995C48.7007 27.3995 48.1007 26.1995 47.9007 24.8995C46.9007 21.0995 49.3007 17.5995 53.3007 16.7995ZM50.6007 40.8995C48.7007 40.1995 46.8007 39.4995 44.9007 38.6995C42.5007 37.6995 41.1007 35.7995 40.7007 33.2995C40.1007 30.0995 42.7007 26.0995 45.7007 25.3995C46.8007 28.8995 49.0007 31.8995 51.1007 34.7995C51.7007 35.5995 52.3007 36.4995 52.9007 37.3995C53.7007 38.4995 54.5007 39.5995 55.4007 40.7995C55.8007 41.2995 56.2007 41.7995 56.6007 42.2995C56.1007 42.4995 55.7007 42.4995 55.2007 42.4995C54.8007 42.4995 54.4007 42.3996 54.0007 42.1996C52.9007 41.7996 51.7007 41.2995 50.6007 40.8995ZM47.3007 53.5995C45.3007 53.7995 43.1007 51.7996 43.3007 49.8996C44.5007 51.0996 46.1007 51.3995 47.7007 51.5995L47.3007 53.5995ZM50.8007 56.9995C49.6007 56.2995 49.0007 54.9995 49.3007 53.7995C51.5007 55.6995 54.1007 55.3995 56.6007 55.0995L56.8007 58.0995C54.7007 58.0995 52.7007 58.0995 50.8007 56.9995ZM72.5007 56.8996C72.4007 57.1996 72.4007 57.3995 72.2007 57.5995C71.8007 57.9995 71.5007 58.4995 71.1007 58.7995C70.9007 58.9995 70.6007 59.1995 70.4007 59.2995C67.2007 60.9995 64.0007 60.9995 60.8007 59.2995C60.6007 59.1995 60.4007 58.9996 60.2007 58.8996C59.8007 58.5996 59.5007 58.1995 59.1007 57.7995L58.9007 57.5995C58.8007 57.3995 58.7007 57.1995 58.6007 56.9995C58.5007 56.7995 58.5007 56.5995 58.4007 56.4995C62.3007 59.1995 69.4007 59.1995 72.6007 56.4995C72.6007 56.6995 72.5007 56.7996 72.5007 56.8996ZM80.4007 56.8996C79.6007 57.3996 78.6007 57.6996 77.7007 57.8996C76.9007 57.9996 76.1007 58.0995 75.3007 58.0995C75.0007 58.0995 74.6007 58.0996 74.3007 58.1996L74.5007 55.0995C77.0007 55.3995 79.5007 55.6996 81.7007 53.8996C82.0007 54.8996 81.5007 56.2996 80.4007 56.8996ZM82.0007 49.6996C81.4007 49.6996 81.0007 50.0996 81.0007 50.6996C80.9007 52.2996 80.0007 53.0995 78.4007 53.2995C76.6007 53.4995 74.8007 53.0995 73.1007 52.7995C72.1007 52.5995 71.7007 52.8995 71.7007 53.7995C71.6007 54.8995 71.1007 55.5995 70.0007 55.9995C68.4007 56.5995 66.6007 56.6995 64.9007 56.5995C63.7007 56.4995 62.6007 56.3995 61.5007 56.0995C60.3007 55.7995 59.7007 54.8996 59.6007 53.6996C59.5007 52.8996 59.1007 52.5995 58.3007 52.7995C56.5007 53.1995 54.8007 53.4995 53.0007 53.2995C51.2007 53.0995 50.4007 52.3995 50.2007 50.5995C50.1007 49.9995 49.8007 49.6996 49.2007 49.6996H48.7007C47.9007 49.6996 47.2007 49.5995 46.4007 49.4995C45.6007 49.3995 44.9007 48.9996 44.5007 48.1996C44.3007 47.8996 44.4007 47.5995 44.7007 47.4995C45.1007 47.3995 45.5007 47.1995 45.9007 46.9995C46.8007 46.6995 47.7007 46.2995 48.7007 46.0995C50.7007 45.5995 52.8007 45.0996 54.8007 44.6996H55.0007C55.8007 44.4996 56.5007 44.3996 57.3007 44.1996C58.4007 49.3996 62.4007 51.2995 65.3007 51.4995C67.5007 51.5995 69.4007 50.9995 71.1007 49.5995C72.8007 48.1995 73.8007 46.4995 74.2007 44.2995C75.1007 44.4995 76.0007 44.5995 76.9007 44.7995C79.7007 45.4995 82.5007 46.2995 85.3007 46.9995C85.6007 47.0995 85.9007 47.1996 86.2007 47.3996L86.3007 47.4995C86.9007 47.7995 86.9007 47.8995 86.6007 48.4995C86.0007 49.3995 85.1007 49.5995 84.2007 49.7995C83.7007 49.8995 83.1007 49.8996 82.6007 49.8996C82.4007 49.6996 82.2007 49.6996 82.0007 49.6996ZM83.7007 53.5995L83.3007 51.4995C84.9007 51.2995 86.4007 50.9996 87.6007 49.8996C88.2007 51.9996 85.8007 53.2995 83.7007 53.5995Z" fill="#404041"/>
<path fill-rule="evenodd" clip-rule="evenodd" d="M66.6012 38.2998C66.6012 38.8998 66.3012 39.2998 65.6012 39.2998C63.6012 39.3998 62.4012 40.6998 62.1012 42.5998V42.6998C62.1012 42.6998 62.1012 42.7998 62.1012 42.8998C62.0012 43.4998 61.6012 43.8998 61.1012 43.7998C60.6012 43.7998 60.2012 43.2998 60.2012 42.6998C60.2012 39.8998 62.7012 37.4998 65.5012 37.4998C66.2012 37.3998 66.6012 37.7998 66.6012 38.2998Z" fill="#404041"/>
</svg>
