<svg width="131" height="72" viewBox="0 0 131 72" fill="none" xmlns="http://www.w3.org/2000/svg">
<path fill-rule="evenodd" clip-rule="evenodd" d="M81.5004 25.1C81.5004 24.2 81.4004 23.2 81.2004 22.3C79.4004 13.8 70.5004 6.99999 60.3004 10.4C54.1004 12.5 49.6004 18.7 49.5004 25.3C49.5004 26.7 49.5004 28.1 49.5004 29.5V37.2C49.5004 38.4 49.5004 39.7 49.5004 40.9C49.5004 41.2 49.7004 41.7 50.0004 41.9C50.6004 42.4 51.4004 41.8 51.4004 40.9C51.4004 35.9 51.4004 30.9 51.4004 25.9C51.4004 25 51.5004 24.1 51.6004 23.2C52.8004 15.6 60.2004 10.2 67.8004 11.5C74.4004 12.7 79.2004 18.5 79.6004 24.5C79.6004 24.9 79.5004 25.1 79.2004 25.3C78.4004 25.7 77.7004 26.1 76.9004 26.4C75.8004 27 74.7004 27.5 73.5004 28.1C73.1004 28.3 72.6004 28.5 72.1004 28.8C72.1004 28.5 72.1004 28.2 72.1004 28C72.1004 26.7 72.1004 25.4 71.9004 24.1C71.2004 20.7 68.2004 18.7 64.8004 19C61.4004 19.4 59.0004 22.1 58.9004 25.5C58.9004 26.2 58.9004 26.9 58.9004 27.7V28.8C58.2004 28.4 57.5004 28.1 56.8004 27.8C56.4004 27.6 56.1004 27.5 55.7004 27.3C55.0004 27 54.5004 27.1 54.2004 27.6C53.9004 28.2 54.1004 28.6 54.8004 29C56.0004 29.6 57.1004 30.2 58.3004 30.8C58.7004 31 58.8004 31.2 58.8004 31.6C58.8004 34.6 58.8004 37.6 58.8004 40.6C58.8004 41.1 58.7004 41.3 58.3004 41.5C56.8004 42.3 55.2004 43 53.6004 43.8C52.5004 44.4 51.3004 45 50.2004 45.5C49.7004 45.8 49.4004 46.1 49.4004 46.7C49.5004 47.7 49.5004 48.6 49.7004 49.6C51.4004 58.1 59.7004 63.8 68.1004 62.3C75.8004 60.9 81.3004 54.3 81.4004 46.5C81.5004 39.3 81.5004 32.2 81.5004 25.1ZM67.4004 60.4C60.2004 61.4 53.5004 56.9 51.8004 49.7C51.7004 49.1 51.6004 48.5 51.5004 47.9C51.5004 47.7 51.5004 47.5 51.4004 47.3C51.4004 47.2 51.5004 46.9 51.6004 46.8C53.4004 45.9 55.2004 45 57.1004 44L58.9004 43.1C58.9004 44.3 58.9004 45.3 58.9004 46.4C58.9004 49.3 60.8004 51.8 63.6004 52.6C66.5004 53.4 69.5004 52.3 71.0004 49.9C71.7004 48.8 72.0004 47.6 72.0004 46.3C72.0004 45.6 72.0004 44.9 72.0004 44.1C72.0004 43.8 72.0004 43.4 72.0004 43.1L73.4004 43.8C73.8004 44 74.1004 44.2 74.5004 44.3C75.0004 44.5 75.4004 44.8 75.9004 45C77.0004 45.5 78.0004 46.1 79.1004 46.6C79.4004 46.8 79.5004 46.9 79.5004 47.3C79.1004 54.1 74.0004 59.5 67.4004 60.4ZM79.6004 44.8L79.4004 44.7C79.3004 44.7 79.2004 44.6 79.1004 44.6C76.9004 43.5 74.7004 42.4 72.5004 41.3C72.2004 41.1 72.0004 40.9 72.0004 40.5C72.0004 38.7 72.0004 37 72.0004 35.2C72.0004 34.4 71.7004 34.1 71.0004 34.1C70.4004 34.1 70.1004 34.5 70.1004 35.2V38.9C70.1004 41.3 70.1004 43.7 70.1004 46.1C70.1004 47.6 69.7004 49 68.4004 50C66.9004 51.2 65.1004 51.4 63.3004 50.6C61.4004 49.8 60.6004 48.1 60.6004 46.2C60.6004 42.6 60.6004 39 60.6004 35.3V29.4C60.6004 28.2 60.6004 26.9 60.6004 25.7C60.6004 23.1 62.3004 21.2 64.9004 20.9C67.6004 20.6 69.9004 22.7 70.0004 25.5C70.0004 26.5 70.0004 27.6 70.0004 28.6C70.0004 29.1 70.0004 29.6 70.0004 30.1C70.0004 31.2 70.6004 31.6 71.6004 31.1C73.2004 30.3 74.8004 29.5 76.5004 28.6L78.8004 27.4C78.9004 27.3 79.0004 27.3 79.2004 27.2L79.4004 27.1V44.8H79.6004Z" fill="#404041"/>
</svg>
