<svg width="131" height="72" viewBox="0 0 131 72" fill="none" xmlns="http://www.w3.org/2000/svg">
<path fill-rule="evenodd" clip-rule="evenodd" d="M107.1 33.8C101.2 26.3 94.4005 19.8 86.2005 14.9C79.9005 11 73.1005 8.6 65.6005 8.5C60.7005 8.5 56.1005 9.6 51.7005 11.5C48.5005 12.9 44.5005 13.1 40.6005 13.4C30.5005 14.1 20.6005 14.8 23.6005 34.4C22.7005 35.5 22.7005 36.9 23.7005 38.1C30.3005 46.2 37.8005 53.4 47.0005 58.4C52.3005 61.3 57.8005 63.2 63.9005 63.6C69.8005 63.9 75.5005 62.6 80.8005 60.1C91.6005 55.1 100.1 47.2 107.4 38C108.4 36.6 108.3 35.2 107.1 33.8ZM55.2005 47C-0.999516 25.2 41.5005 20.9 60.5005 19C62.5005 18.8 64.3005 18.6 65.7005 18.4C86.3005 21.7 98.7005 32 103.4 37.8C98.9005 43.9 73.4005 60 55.2005 47Z" fill="#404041"/>
</svg>
