<svg width="131" height="72" viewBox="0 0 131 72" fill="none" xmlns="http://www.w3.org/2000/svg">
<path fill-rule="evenodd" clip-rule="evenodd" d="M56.9004 23.5L57.3004 60H59.6004L61.6004 23.5H56.9004Z" fill="#404041"/>
<path fill-rule="evenodd" clip-rule="evenodd" d="M76.4996 55.8992L75.2996 58.6992L74.3996 58.2992C74.3996 58.1992 74.4996 58.0992 74.4996 57.9992C74.4996 57.8992 74.5996 57.7992 74.5996 57.7992L75.4996 55.7992C77.2996 51.7992 78.9996 47.7992 80.7996 43.7992C80.9996 43.4992 80.9996 43.1992 80.6996 42.8992C80.0996 41.9992 79.4996 41.0992 78.8996 40.1992C78.7996 40.3992 78.7996 40.4992 78.6996 40.5992L77.9996 42.0992C76.0996 46.0992 74.1996 50.1992 72.2996 54.1992C72.1996 54.3992 72.1996 54.6992 72.2996 54.9992C72.5996 55.8992 72.9996 56.7992 73.3996 57.6992C73.6996 58.3992 73.8996 58.9992 74.1996 59.6992C74.2996 59.9992 74.3996 60.0992 74.6996 60.0992C75.8996 60.0992 76.9996 60.0992 78.1996 60.0992C78.4996 60.0992 78.5996 59.9992 78.6996 59.7992C80.5996 55.3992 82.5996 51.0992 84.4996 46.6992L85.8996 43.4992C85.8996 43.4992 85.8996 43.3992 85.9996 43.2992V43.1992L85.2996 43.2992C84.7996 43.3992 84.2996 43.4992 83.6996 43.4992C83.4996 43.4992 83.2996 43.5992 83.1996 43.5992C82.8996 43.6992 82.5996 43.6992 82.1996 43.6992C81.7996 43.6992 81.6996 43.8992 81.4996 44.1992C80.0996 47.3992 78.6996 50.5992 77.2996 53.7992L76.4996 55.8992Z" fill="#404041"/>
<path fill-rule="evenodd" clip-rule="evenodd" d="M56.1996 58.9004H56.3996C56.2996 53.5004 56.1996 48.1004 56.1996 42.7004C56.0996 34.5004 55.9996 26.4004 55.6996 18.4004H55.4996C55.3996 18.8004 55.2996 19.2004 55.0996 19.6004C54.8996 20.3004 54.6996 21.0004 54.4996 21.7004C53.8996 23.9004 53.2996 26.0004 52.6996 28.2004C52.5996 28.5004 52.5996 28.9004 52.5996 29.2004C52.5996 29.5004 52.5996 29.8004 52.6996 30.1004C52.8996 32.9004 52.9996 35.7004 53.1996 38.5004V39.1004C53.3996 42.4004 53.5996 45.7004 53.7996 49.0004C53.8996 51.3004 54.0996 53.6004 54.1996 55.9004C54.1996 56.4004 54.2996 56.7004 54.5996 57.1004C54.8996 57.5004 55.2996 57.9004 55.5996 58.4004C55.8996 58.5004 55.9996 58.7004 56.1996 58.9004Z" fill="#404041"/>
<path fill-rule="evenodd" clip-rule="evenodd" d="M73.0996 50.0008C76.6996 41.8008 80.8996 34.1008 85.2996 26.3008L79.9996 23.8008L79.8996 24.0008L79.2996 25.0008C78.1996 26.7008 77.0996 28.4008 75.9996 30.1008C75.9996 30.2008 75.8996 30.2008 75.8996 30.3008C75.8996 30.4008 75.8996 30.5008 75.9996 30.7008C76.7996 31.7008 76.6996 32.7008 76.4996 33.9008C75.5996 37.8008 74.7996 41.8008 73.9996 45.7008C73.6996 47.1008 73.3996 48.4008 73.1996 49.8008C73.0996 49.8008 73.0996 49.8008 73.0996 50.0008C73.0996 49.9008 73.0996 49.9008 73.0996 50.0008Z" fill="#404041"/>
<path fill-rule="evenodd" clip-rule="evenodd" d="M70.9004 33.4992C69.7004 32.6992 68.6004 31.9992 67.4004 31.1992C67.1004 33.0992 66.8004 34.8992 66.6004 36.6992L65.7004 42.4992L65.2004 45.4992C64.8004 48.4992 64.3004 51.4992 63.8004 54.4992C63.7004 55.1992 63.9004 55.4992 64.4004 55.8992C65.1004 56.3992 65.8004 56.8992 66.6004 57.4992C66.8004 56.2992 67.0004 55.0992 67.2004 53.9992C68.0004 49.3992 68.9004 44.8992 69.7004 40.2992C70.1004 38.1992 70.5004 35.9992 70.8004 33.8992C71.0004 33.7992 71.0004 33.4992 70.9004 33.4992Z" fill="#404041"/>
<path fill-rule="evenodd" clip-rule="evenodd" d="M75.5988 32.9004C75.2988 32.9004 74.9988 33.0004 74.6988 33.1004C73.8988 33.3004 73.1988 33.5004 72.3988 33.7004C72.0988 33.8004 71.9988 34.0004 71.9988 34.2004C71.6988 36.1004 71.2988 37.9004 70.9988 39.8004C70.3988 43.1004 69.7988 46.3004 69.1988 49.6004L68.6988 52.4004L67.7988 57.1004C67.8988 57.1004 67.8988 57.0004 67.8988 57.0004C67.9988 57.0004 67.9988 56.9004 68.0988 56.9004L68.5988 56.5004C69.3988 55.9004 70.0988 55.3004 70.7988 54.6004C70.9988 54.5004 71.0988 54.2004 71.1988 54.0004C72.0988 49.8004 72.9988 45.6004 73.8988 41.3004L75.5988 32.9004Z" fill="#404041"/>
<path fill-rule="evenodd" clip-rule="evenodd" d="M65.5004 16.5L66.3004 15.2L62.4004 12C61.5004 12.5 60.6004 13 59.8004 13.5L59.1004 13.9C58.3004 14.4 57.5004 14.8 56.7004 15.3C56.6004 15.4 56.4004 15.6 56.4004 15.7C56.5004 17.9 56.7004 20.2 56.9004 22.5H58.2004H59.0004C59.8004 22.5 60.7004 22.5 61.5004 22.5C61.7004 22.5 61.9004 22.4 62.0004 22.2C63.1004 20.3 64.3004 18.4 65.5004 16.5Z" fill="#404041"/>
<path fill-rule="evenodd" clip-rule="evenodd" d="M51.7004 55.8004C52.1004 55.9004 52.5004 56.0004 52.9004 56.0004L52.8004 55.8004C52.7004 55.7004 52.7004 55.6004 52.6004 55.5004C50.6004 51.8004 48.6004 48.0004 46.6004 44.3004C46.5004 44.2004 46.4004 44.0004 46.3004 44.0004C46.2004 43.9004 46.0004 43.9004 45.8004 43.9004C44.9004 44.0004 43.9004 44.1004 43.0004 44.2004C42.6004 44.2004 42.2004 44.3004 41.9004 44.3004L42.1004 44.6004C42.1004 44.7004 42.2004 44.8004 42.2004 44.8004L43.6004 47.2004C45.1004 49.7004 46.5004 52.2004 48.0004 54.8004C48.2004 55.1004 48.3004 55.2004 48.7004 55.3004C49.6004 55.4004 50.7004 55.6004 51.7004 55.8004Z" fill="#404041"/>
<path fill-rule="evenodd" clip-rule="evenodd" d="M86.0988 26.9004L79.7988 38.3004C80.2988 38.2004 80.6988 38.1004 81.1988 37.9004C82.1988 37.6004 83.0988 37.4004 84.0988 37.2004C85.1988 37.0004 85.8988 36.5004 86.3988 35.5004C87.0988 34.2004 87.8988 33.0004 88.5988 31.8004C88.7988 31.5004 88.9988 31.1004 89.1988 30.8004C89.3988 30.5004 89.3988 30.4004 89.0988 30.1004C88.4988 29.5004 87.8988 28.9004 87.3988 28.3004C86.9988 27.8004 86.5988 27.4004 86.0988 26.9004Z" fill="#404041"/>
<path fill-rule="evenodd" clip-rule="evenodd" d="M52.9996 54.1C52.9996 54.2 53.0996 54.2 53.1996 54.3L53.0996 52.5C52.8996 49.7 52.6996 47 52.5996 44.3C52.5996 44.2 52.5996 44 52.4996 43.9C51.5996 42.2 50.6996 40.5 49.8996 38.7C49.8996 38.7 49.8996 38.7 49.7996 38.6C49.7996 38.6 49.7996 38.6 49.6996 38.5C49.6996 38.5 49.6996 38.6 49.5996 38.6C49.5996 38.7 49.4996 38.7 49.4996 38.8C48.7996 40.2 47.9996 41.6 47.2996 42.9C47.1996 43.1 47.1996 43.3 47.2996 43.5C48.9996 46.7 50.6996 49.8 52.3996 53L52.9996 54.1Z" fill="#404041"/>
<path fill-rule="evenodd" clip-rule="evenodd" d="M51.3 23.8004L51.1 22.9004C50.5 23.6004 49.9 24.3004 49.4 25.0004C49.1 25.3004 48.8 25.7004 48.6 26.0004C48.5 26.1004 48.5 26.3004 48.5 26.4004C48.8 28.4004 49.1 30.3004 49.5 32.3004L49.8 34.0004C49.8 34.2004 49.9 34.3004 49.9 34.5004C50 34.9004 50 35.3004 50.1 35.7004C50.2 36.7004 50.5 37.6004 51.1 38.5004C51.4 39.1004 51.8 39.7004 52.1 40.3004C52.3 40.6004 52.4 40.9004 52.6 41.2004V41.1004C52.6 41.0004 52.6 41.0004 52.6 40.9004L52.2 34.0004C52.2 33.5004 52.1 33.0004 52.1 32.5004C52 31.2004 51.9 29.9004 51.9 28.6004C51.9 28.2004 52 27.8004 52.1 27.4004C52.2 27.2004 52.2 27.0004 52.3 26.8004C52.3 26.6004 52.4 26.3004 52.3 26.1004C51.8 25.5004 51.6 24.7004 51.3 23.8004Z" fill="#404041"/>
<path fill-rule="evenodd" clip-rule="evenodd" d="M42.7996 36.0996L41.5996 43.2996C43.0996 43.0996 44.5996 42.9996 45.9996 42.7996C46.0996 42.7996 46.2996 42.6996 46.3996 42.5996C47.1996 40.9996 48.0996 39.4996 48.8996 37.8996V37.7996C48.8996 37.7996 48.8996 37.7996 48.8996 37.6996L42.7996 36.0996Z" fill="#404041"/>
<path fill-rule="evenodd" clip-rule="evenodd" d="M45.6992 26.1008C45.1992 26.0008 44.6992 25.9008 44.1992 25.8008C44.3992 26.8008 44.5992 27.7008 44.6992 28.7008C45.0992 31.0008 45.5992 33.3008 46.0992 35.6008C46.0992 35.8008 46.2992 36.0008 46.3992 36.0008C47.2992 36.3008 48.0992 36.5008 49.0992 36.7008C48.9992 35.9008 48.8992 35.2008 48.6992 34.4008L48.1992 31.7008C47.8992 30.1008 47.6992 28.5008 47.3992 26.9008C47.3992 26.6008 47.2992 26.4008 46.8992 26.4008C46.5992 26.3008 46.1992 26.2008 45.6992 26.1008Z" fill="#404041"/>
<path fill-rule="evenodd" clip-rule="evenodd" d="M75.4988 31.8008L72.5988 26.8008L67.7988 30.3008L69.0988 31.2008L69.5988 31.6008C69.8988 31.8008 70.0988 31.9008 70.3988 32.1008C70.6988 32.3008 70.9988 32.5008 71.2988 32.7008C71.3988 32.7008 71.4988 32.8008 71.5988 32.8008C71.6988 32.8008 71.7988 32.8008 71.7988 32.8008C72.6988 32.6008 73.5988 32.4008 74.5988 32.1008L75.4988 31.8008Z" fill="#404041"/>
<path fill-rule="evenodd" clip-rule="evenodd" d="M81.9996 42.7004C83.3996 42.5004 84.7996 42.2004 86.2996 42.0004L85.3996 37.9004L79.5996 39.4004L80.5996 40.9004C80.8996 41.4004 81.2996 42.0004 81.5996 42.5004C81.6996 42.6004 81.8996 42.7004 81.9996 42.7004Z" fill="#404041"/>
<path fill-rule="evenodd" clip-rule="evenodd" d="M47.6004 19.8008L44.4004 24.8008L45.1004 25.0008C45.9004 25.2008 46.7004 25.4008 47.5004 25.5008C47.6004 25.5008 47.8004 25.5008 47.8004 25.4008C48.5004 24.5008 49.3004 23.6008 50.0004 22.7008L50.5004 22.0008L47.6004 19.8008Z" fill="#404041"/>
</svg>
