<svg width="131" height="72" viewBox="0 0 131 72" fill="none" xmlns="http://www.w3.org/2000/svg">
<path fill-rule="evenodd" clip-rule="evenodd" d="M96.4996 20.9996C96.4996 20.5996 96.3996 20.1996 96.0996 19.7996C94.8996 18.0996 93.5996 16.4996 92.3996 14.7996C91.1996 13.2996 90.0996 11.6996 88.8996 10.0996L86.9996 7.69961L85.4996 5.69961C85.1996 5.29961 84.7996 5.09961 84.1996 5.09961C71.6996 5.09961 59.2996 5.09961 46.8996 5.09961C46.2996 5.09961 45.8996 5.29961 45.4996 5.79961C44.3996 7.29961 43.2996 8.79961 42.1996 10.1996C40.7996 11.9996 39.4996 13.7996 38.0996 15.5996L34.9996 19.7996C34.7996 19.9996 34.6996 20.1996 34.5996 20.3996V30.7996C35.0996 31.3996 35.5996 31.9996 36.0996 32.5996C37.1996 33.8996 38.2996 35.2996 39.3996 36.5996C47.6996 46.4996 55.9996 56.3996 64.3996 66.1996C64.5996 66.3996 64.7996 66.5996 64.9996 66.6996L65.0996 66.7996L65.1996 66.8996L65.2996 66.9996H65.9996C66.2996 66.6996 66.6996 66.3996 66.9996 66.0996C76.5996 54.4996 86.2996 42.9996 95.9996 31.3996C96.0996 31.1996 96.1996 30.9996 96.2996 30.7996C96.2996 30.6996 96.3996 30.4996 96.3996 30.3996V30.2996C96.3996 30.1996 96.3996 30.1996 96.3996 30.0996C96.4996 27.0996 96.4996 23.9996 96.4996 20.9996ZM84.4996 8.49961L92.7996 19.4996H77.2996L84.4996 8.49961ZM82.2996 7.49961L75.0996 18.4996L67.8996 7.49961H82.2996ZM71.9996 26.7996H73.7996V29.1996H57.3996V21.9996H73.8996V24.3996H71.9996C71.1996 24.3996 70.5996 24.8996 70.5996 25.5996C70.5996 26.2996 71.1996 26.7996 71.9996 26.7996ZM72.7996 19.4996H58.3996L65.5996 8.49961L72.7996 19.4996ZM63.2996 7.49961L56.0996 18.4996L48.8996 7.49961H63.2996ZM46.4996 8.29961L53.7996 19.4996H38.1996L46.4996 8.29961ZM36.8996 21.9996H54.7996V29.1996H36.8996V21.9996ZM62.6996 60.5996L38.2996 31.5996H54.9996L62.6996 60.5996ZM65.5996 60.7996H65.3996L57.5996 31.6996H73.3996L65.5996 60.7996ZM68.2996 60.5996L75.9996 31.6996H92.6996L68.2996 60.5996ZM93.9996 29.1996H76.2996V21.9996H93.9996V24.3996H84.7996C84.1996 24.3996 83.7996 24.5996 83.5996 25.1996C83.3996 25.6996 83.4996 26.0996 83.7996 26.3996C84.0996 26.5996 84.5996 26.7996 84.8996 26.7996C87.6996 26.7996 90.3996 26.7996 93.1996 26.7996H93.9996V29.1996Z" fill="#404041"/>
<path fill-rule="evenodd" clip-rule="evenodd" d="M81.0992 25.6004C81.0992 26.3004 80.4992 26.8004 79.8992 26.8004C79.1992 26.8004 78.6992 26.3004 78.6992 25.6004C78.6992 24.9004 79.2992 24.4004 79.8992 24.4004C80.5992 24.4004 81.0992 24.9004 81.0992 25.6004Z" fill="#404041"/>
<path fill-rule="evenodd" clip-rule="evenodd" d="M68.2 25.6991C68.2 26.3991 67.6 26.8991 66.9 26.7991C66.3 26.7991 65.7 26.1991 65.8 25.5991C65.8 24.8991 66.4 24.3991 67.1 24.4991C67.7 24.3991 68.2 24.9991 68.2 25.6991Z" fill="#404041"/>
<path fill-rule="evenodd" clip-rule="evenodd" d="M44.3004 25.6004C44.3004 26.3004 43.7004 26.8004 43.1004 26.8004C42.4004 26.8004 41.9004 26.3004 41.9004 25.6004C41.9004 24.9004 42.4004 24.4004 43.1004 24.4004C43.7004 24.4004 44.3004 24.9004 44.3004 25.6004Z" fill="#404041"/>
<path fill-rule="evenodd" clip-rule="evenodd" d="M52.2988 25.6004C52.2988 26.3004 51.7988 26.8004 51.0988 26.8004C50.5988 26.8004 50.0988 26.8004 49.4988 26.8004H48.8988C48.5988 26.8004 48.2988 26.8004 47.9988 26.8004C47.2988 26.8004 46.7988 26.3004 46.7988 25.6004C46.7988 24.9004 47.2988 24.4004 47.9988 24.4004C48.9988 24.4004 50.0988 24.4004 51.1988 24.4004C51.7988 24.4004 52.2988 24.9004 52.2988 25.6004Z" fill="#404041"/>
</svg>
