<svg width="131" height="72" viewBox="0 0 131 72" fill="none" xmlns="http://www.w3.org/2000/svg">
<path fill-rule="evenodd" clip-rule="evenodd" d="M65.5008 60.4992C65.0008 60.4992 64.5008 61.2992 64.5008 61.9992C64.5008 62.7992 65.1008 63.1992 65.6008 63.1992C66.0008 63.1992 66.6008 62.8992 66.6008 61.9992C66.6008 61.1992 66.0008 60.4992 65.5008 60.4992ZM65.6008 62.3992C65.6008 62.3992 65.3008 62.3992 65.3008 61.8992C65.3008 61.4992 65.5008 61.1992 65.6008 61.0992C65.7008 61.1992 65.9008 61.4992 65.9008 61.8992C65.9008 62.3992 65.7008 62.3992 65.6008 62.3992ZM65.5008 60.4992C65.0008 60.4992 64.5008 61.2992 64.5008 61.9992C64.5008 62.7992 65.1008 63.1992 65.6008 63.1992C66.0008 63.1992 66.6008 62.8992 66.6008 61.9992C66.6008 61.1992 66.0008 60.4992 65.5008 60.4992ZM65.6008 62.3992C65.6008 62.3992 65.3008 62.3992 65.3008 61.8992C65.3008 61.4992 65.5008 61.1992 65.6008 61.0992C65.7008 61.1992 65.9008 61.4992 65.9008 61.8992C65.9008 62.3992 65.7008 62.3992 65.6008 62.3992ZM65.5008 60.4992C65.0008 60.4992 64.5008 61.2992 64.5008 61.9992C64.5008 62.7992 65.1008 63.1992 65.6008 63.1992C66.0008 63.1992 66.6008 62.8992 66.6008 61.9992C66.6008 61.1992 66.0008 60.4992 65.5008 60.4992ZM65.6008 62.3992C65.6008 62.3992 65.3008 62.3992 65.3008 61.8992C65.3008 61.4992 65.5008 61.1992 65.6008 61.0992C65.7008 61.1992 65.9008 61.4992 65.9008 61.8992C65.9008 62.3992 65.7008 62.3992 65.6008 62.3992ZM65.5008 60.4992C65.0008 60.4992 64.5008 61.2992 64.5008 61.9992C64.5008 62.7992 65.1008 63.1992 65.6008 63.1992C66.0008 63.1992 66.6008 62.8992 66.6008 61.9992C66.6008 61.1992 66.0008 60.4992 65.5008 60.4992ZM65.6008 62.3992C65.6008 62.3992 65.3008 62.3992 65.3008 61.8992C65.3008 61.4992 65.5008 61.1992 65.6008 61.0992C65.7008 61.1992 65.9008 61.4992 65.9008 61.8992C65.9008 62.3992 65.7008 62.3992 65.6008 62.3992ZM65.5008 60.4992C65.0008 60.4992 64.5008 61.2992 64.5008 61.9992C64.5008 62.7992 65.1008 63.1992 65.6008 63.1992C66.0008 63.1992 66.6008 62.8992 66.6008 61.9992C66.6008 61.1992 66.0008 60.4992 65.5008 60.4992ZM65.6008 62.3992C65.6008 62.3992 65.3008 62.3992 65.3008 61.8992C65.3008 61.4992 65.5008 61.1992 65.6008 61.0992C65.7008 61.1992 65.9008 61.4992 65.9008 61.8992C65.9008 62.3992 65.7008 62.3992 65.6008 62.3992ZM65.5008 60.4992C65.0008 60.4992 64.5008 61.2992 64.5008 61.9992C64.5008 62.7992 65.1008 63.1992 65.6008 63.1992C66.0008 63.1992 66.6008 62.8992 66.6008 61.9992C66.6008 61.1992 66.0008 60.4992 65.5008 60.4992ZM65.6008 62.3992C65.6008 62.3992 65.3008 62.3992 65.3008 61.8992C65.3008 61.4992 65.5008 61.1992 65.6008 61.0992C65.7008 61.1992 65.9008 61.4992 65.9008 61.8992C65.9008 62.3992 65.7008 62.3992 65.6008 62.3992ZM66.1008 56.9992L65.9008 56.8992C67.2008 56.6992 68.2008 55.6992 68.2008 54.2992C68.2008 52.8992 67.0008 51.6992 65.6008 51.6992C64.1008 51.6992 63.0008 52.8992 63.0008 54.2992C63.0008 55.5992 64.0008 56.5992 65.2008 56.7992L65.0008 56.9992C64.9008 57.0992 62.3008 59.1992 62.3008 61.9992C62.3008 64.7992 64.3008 65.8992 65.6008 65.8992C66.9008 65.8992 69.0008 64.8992 69.0008 61.9992C68.9008 59.2992 66.3008 57.1992 66.1008 56.9992ZM64.7008 54.3992C64.7008 53.8992 65.1008 53.4992 65.6008 53.4992C66.1008 53.4992 66.5008 53.8992 66.5008 54.3992C66.5008 54.8992 66.1008 55.2992 65.6008 55.2992C65.1008 55.1992 64.7008 54.7992 64.7008 54.3992ZM65.5008 64.0992C65.5008 64.0992 64.0008 64.0992 64.0008 61.9992C64.0008 60.6992 64.9008 59.4992 65.5008 58.8992C66.1008 59.4992 67.1008 60.6992 67.1008 61.9992C67.1008 64.0992 65.5008 64.0992 65.5008 64.0992ZM64.6008 61.9992C64.6008 62.7992 65.2008 63.1992 65.7008 63.1992C66.1008 63.1992 66.7008 62.8992 66.7008 61.9992C66.7008 61.1992 66.1008 60.4992 65.7008 60.4992C65.1008 60.4992 64.6008 61.1992 64.6008 61.9992ZM65.6008 61.1992C65.7008 61.2992 65.9008 61.5992 65.9008 61.9992C65.9008 62.3992 65.7008 62.4992 65.6008 62.4992C65.6008 62.4992 65.3008 62.4992 65.3008 61.9992C65.3008 61.5992 65.4008 61.2992 65.6008 61.1992ZM65.5008 60.4992C65.0008 60.4992 64.5008 61.2992 64.5008 61.9992C64.5008 62.7992 65.1008 63.1992 65.6008 63.1992C66.0008 63.1992 66.6008 62.8992 66.6008 61.9992C66.6008 61.1992 66.0008 60.4992 65.5008 60.4992ZM65.6008 62.3992C65.6008 62.3992 65.3008 62.3992 65.3008 61.8992C65.3008 61.4992 65.5008 61.1992 65.6008 61.0992C65.7008 61.1992 65.9008 61.4992 65.9008 61.8992C65.9008 62.3992 65.7008 62.3992 65.6008 62.3992ZM65.5008 60.4992C65.0008 60.4992 64.5008 61.2992 64.5008 61.9992C64.5008 62.7992 65.1008 63.1992 65.6008 63.1992C66.0008 63.1992 66.6008 62.8992 66.6008 61.9992C66.6008 61.1992 66.0008 60.4992 65.5008 60.4992ZM65.6008 62.3992C65.6008 62.3992 65.3008 62.3992 65.3008 61.8992C65.3008 61.4992 65.5008 61.1992 65.6008 61.0992C65.7008 61.1992 65.9008 61.4992 65.9008 61.8992C65.9008 62.3992 65.7008 62.3992 65.6008 62.3992ZM65.5008 60.4992C65.0008 60.4992 64.5008 61.2992 64.5008 61.9992C64.5008 62.7992 65.1008 63.1992 65.6008 63.1992C66.0008 63.1992 66.6008 62.8992 66.6008 61.9992C66.6008 61.1992 66.0008 60.4992 65.5008 60.4992ZM65.6008 62.3992C65.6008 62.3992 65.3008 62.3992 65.3008 61.8992C65.3008 61.4992 65.5008 61.1992 65.6008 61.0992C65.7008 61.1992 65.9008 61.4992 65.9008 61.8992C65.9008 62.3992 65.7008 62.3992 65.6008 62.3992ZM65.5008 60.4992C65.0008 60.4992 64.5008 61.2992 64.5008 61.9992C64.5008 62.7992 65.1008 63.1992 65.6008 63.1992C66.0008 63.1992 66.6008 62.8992 66.6008 61.9992C66.6008 61.1992 66.0008 60.4992 65.5008 60.4992ZM65.6008 62.3992C65.6008 62.3992 65.3008 62.3992 65.3008 61.8992C65.3008 61.4992 65.5008 61.1992 65.6008 61.0992C65.7008 61.1992 65.9008 61.4992 65.9008 61.8992C65.9008 62.3992 65.7008 62.3992 65.6008 62.3992ZM65.5008 60.4992C65.0008 60.4992 64.5008 61.2992 64.5008 61.9992C64.5008 62.7992 65.1008 63.1992 65.6008 63.1992C66.0008 63.1992 66.6008 62.8992 66.6008 61.9992C66.6008 61.1992 66.0008 60.4992 65.5008 60.4992ZM65.6008 62.3992C65.6008 62.3992 65.3008 62.3992 65.3008 61.8992C65.3008 61.4992 65.5008 61.1992 65.6008 61.0992C65.7008 61.1992 65.9008 61.4992 65.9008 61.8992C65.9008 62.3992 65.7008 62.3992 65.6008 62.3992ZM65.5008 60.4992C65.0008 60.4992 64.5008 61.2992 64.5008 61.9992C64.5008 62.7992 65.1008 63.1992 65.6008 63.1992C66.0008 63.1992 66.6008 62.8992 66.6008 61.9992C66.6008 61.1992 66.0008 60.4992 65.5008 60.4992ZM65.6008 62.3992C65.6008 62.3992 65.3008 62.3992 65.3008 61.8992C65.3008 61.4992 65.5008 61.1992 65.6008 61.0992C65.7008 61.1992 65.9008 61.4992 65.9008 61.8992C65.9008 62.3992 65.7008 62.3992 65.6008 62.3992Z" fill="#404041"/>
<path fill-rule="evenodd" clip-rule="evenodd" d="M65.5 60.5C65 60.5 64.5 61.3 64.5 62C64.5 62.8 65.1 63.2 65.6 63.2C66 63.2 66.6 62.9 66.6 62C66.6 61.2 66 60.5 65.5 60.5ZM65.6 62.4C65.6 62.4 65.3 62.4 65.3 61.9C65.3 61.5 65.5 61.2 65.6 61.1C65.7 61.2 65.9 61.5 65.9 61.9C65.9 62.4 65.7 62.4 65.6 62.4Z" fill="#404041"/>
<path fill-rule="evenodd" clip-rule="evenodd" d="M65.5 60.5C65 60.5 64.5 61.3 64.5 62C64.5 62.8 65.1 63.2 65.6 63.2C66 63.2 66.6 62.9 66.6 62C66.6 61.2 66 60.5 65.5 60.5ZM65.6 62.4C65.6 62.4 65.3 62.4 65.3 61.9C65.3 61.5 65.5 61.2 65.6 61.1C65.7 61.2 65.9 61.5 65.9 61.9C65.9 62.4 65.7 62.4 65.6 62.4Z" fill="#404041"/>
<path fill-rule="evenodd" clip-rule="evenodd" d="M68.0012 43.3C67.8012 41.7 66.4012 40.5 65.4012 40.5C64.4012 40.5 63.0012 41.9 63.0012 43.7C63.0012 45.5 64.5012 46.3 65.6012 46.3C66.2012 46.3 66.9012 46 67.4012 45.4C67.9012 44.8 68.1012 44 68.0012 43.3ZM66.1012 44.1C65.9012 44.3 65.7012 44.4 65.6012 44.5C65.5012 44.5 64.7012 44.4 64.7012 43.7C64.7012 43.1 65.2012 42.6 65.4012 42.3C65.7012 42.5 66.1012 42.9 66.2012 43.6C66.3012 43.8 66.3012 44 66.1012 44.1ZM68.0012 43.3C67.8012 41.7 66.4012 40.5 65.4012 40.5C64.4012 40.5 63.0012 41.9 63.0012 43.7C63.0012 45.5 64.5012 46.3 65.6012 46.3C66.2012 46.3 66.9012 46 67.4012 45.4C67.9012 44.8 68.1012 44 68.0012 43.3ZM66.1012 44.1C65.9012 44.3 65.7012 44.4 65.6012 44.5C65.5012 44.5 64.7012 44.4 64.7012 43.7C64.7012 43.1 65.2012 42.6 65.4012 42.3C65.7012 42.5 66.1012 42.9 66.2012 43.6C66.3012 43.8 66.3012 44 66.1012 44.1ZM68.0012 43.3C67.8012 41.7 66.4012 40.5 65.4012 40.5C64.4012 40.5 63.0012 41.9 63.0012 43.7C63.0012 45.5 64.5012 46.3 65.6012 46.3C66.2012 46.3 66.9012 46 67.4012 45.4C67.9012 44.8 68.1012 44 68.0012 43.3ZM66.1012 44.1C65.9012 44.3 65.7012 44.4 65.6012 44.5C65.5012 44.5 64.7012 44.4 64.7012 43.7C64.7012 43.1 65.2012 42.6 65.4012 42.3C65.7012 42.5 66.1012 42.9 66.2012 43.6C66.3012 43.8 66.3012 44 66.1012 44.1ZM68.0012 43.3C67.8012 41.7 66.4012 40.5 65.4012 40.5C64.4012 40.5 63.0012 41.9 63.0012 43.7C63.0012 45.5 64.5012 46.3 65.6012 46.3C66.2012 46.3 66.9012 46 67.4012 45.4C67.9012 44.8 68.1012 44 68.0012 43.3ZM66.1012 44.1C65.9012 44.3 65.7012 44.4 65.6012 44.5C65.5012 44.5 64.7012 44.4 64.7012 43.7C64.7012 43.1 65.2012 42.6 65.4012 42.3C65.7012 42.5 66.1012 42.9 66.2012 43.6C66.3012 43.8 66.3012 44 66.1012 44.1ZM65.9012 36.4L65.4012 36L64.9012 36.4C64.7012 36.5 60.2012 40 60.2012 43.9C60.2012 47.5 63.2012 49.1 65.9012 49.1C66.4012 49.1 68.3012 49 69.7012 47.6C70.6012 46.7 71.1012 45.4 71.0012 43.9C70.8012 40 66.2012 36.6 65.9012 36.4ZM68.3012 46.3C67.6012 47 66.5012 47.3 65.8012 47.3C65.4012 47.3 61.8012 47.2 61.8012 43.8C61.8012 41.4 64.2012 39.1 65.3012 38.1C66.4012 39 69.0012 41.4 69.1012 43.8C69.2012 44.9 68.9012 45.7 68.3012 46.3ZM63.0012 43.7C63.0012 45.5 64.5012 46.3 65.6012 46.3C66.2012 46.3 66.9012 46 67.4012 45.4C67.9012 44.8 68.1012 44.1 68.0012 43.4C67.8012 41.8 66.4012 40.6 65.4012 40.6C64.4012 40.6 63.0012 41.9 63.0012 43.7ZM66.3012 43.6C66.3012 43.8 66.3012 44 66.1012 44.2C65.9012 44.4 65.7012 44.5 65.6012 44.6C65.5012 44.6 64.7012 44.5 64.7012 43.8C64.7012 43.2 65.2012 42.7 65.4012 42.4C65.7012 42.5 66.2012 42.9 66.3012 43.6ZM68.0012 43.3C67.8012 41.7 66.4012 40.5 65.4012 40.5C64.4012 40.5 63.0012 41.9 63.0012 43.7C63.0012 45.5 64.5012 46.3 65.6012 46.3C66.2012 46.3 66.9012 46 67.4012 45.4C67.9012 44.8 68.1012 44 68.0012 43.3ZM66.1012 44.1C65.9012 44.3 65.7012 44.4 65.6012 44.5C65.5012 44.5 64.7012 44.4 64.7012 43.7C64.7012 43.1 65.2012 42.6 65.4012 42.3C65.7012 42.5 66.1012 42.9 66.2012 43.6C66.3012 43.8 66.3012 44 66.1012 44.1ZM68.0012 43.3C67.8012 41.7 66.4012 40.5 65.4012 40.5C64.4012 40.5 63.0012 41.9 63.0012 43.7C63.0012 45.5 64.5012 46.3 65.6012 46.3C66.2012 46.3 66.9012 46 67.4012 45.4C67.9012 44.8 68.1012 44 68.0012 43.3ZM66.1012 44.1C65.9012 44.3 65.7012 44.4 65.6012 44.5C65.5012 44.5 64.7012 44.4 64.7012 43.7C64.7012 43.1 65.2012 42.6 65.4012 42.3C65.7012 42.5 66.1012 42.9 66.2012 43.6C66.3012 43.8 66.3012 44 66.1012 44.1Z" fill="#404041"/>
<path fill-rule="evenodd" clip-rule="evenodd" d="M68 43.3C67.8 41.7 66.4 40.5 65.4 40.5C64.4 40.5 63 41.9 63 43.7C63 45.5 64.5 46.3 65.6 46.3C66.2 46.3 66.9 46 67.4 45.4C67.9 44.8 68.1 44 68 43.3ZM66.1 44.1C65.9 44.3 65.7 44.4 65.6 44.5C65.5 44.5 64.7 44.4 64.7 43.7C64.7 43.1 65.2 42.6 65.4 42.3C65.7 42.5 66.1 42.9 66.2 43.6C66.3 43.8 66.3 44 66.1 44.1Z" fill="#404041"/>
<path fill-rule="evenodd" clip-rule="evenodd" d="M68 43.3C67.8 41.7 66.4 40.5 65.4 40.5C64.4 40.5 63 41.9 63 43.7C63 45.5 64.5 46.3 65.6 46.3C66.2 46.3 66.9 46 67.4 45.4C67.9 44.8 68.1 44 68 43.3ZM66.1 44.1C65.9 44.3 65.7 44.4 65.6 44.5C65.5 44.5 64.7 44.4 64.7 43.7C64.7 43.1 65.2 42.6 65.4 42.3C65.7 42.5 66.1 42.9 66.2 43.6C66.3 43.8 66.3 44 66.1 44.1Z" fill="#404041"/>
<path fill-rule="evenodd" clip-rule="evenodd" d="M65.6008 51.6C66.3008 51.6 66.9008 51 66.9008 50.3C66.9008 49.6 66.3008 49 65.6008 49C64.9008 49 64.3008 49.6 64.3008 50.3C64.3008 51.1 64.9008 51.6 65.6008 51.6Z" fill="#404041"/>
<path fill-rule="evenodd" clip-rule="evenodd" d="M66.6004 34.6C66.6004 35.2 66.1004 35.7 65.5004 35.7C64.9004 35.7 64.4004 35.2 64.4004 34.6C64.4004 34 64.9004 33.5 65.5004 33.5C66.1004 33.5 66.6004 34 66.6004 34.6Z" fill="#404041"/>
<path fill-rule="evenodd" clip-rule="evenodd" d="M76.4 44.7004C77.2 44.7004 77.8 44.1004 77.8 43.3004C77.8 42.5004 77.2 41.9004 76.4 41.9004C75.6 41.9004 75 42.5004 75 43.3004C75.1 44.1004 75.7 44.7004 76.4 44.7004Z" fill="#404041"/>
<path fill-rule="evenodd" clip-rule="evenodd" d="M81.2004 41.4996C81.2004 42.1996 80.6004 42.8996 79.8004 42.8996C79.0004 42.8996 78.4004 42.2996 78.4004 41.4996C78.4004 40.7996 79.0004 40.0996 79.8004 40.0996C80.6004 40.0996 81.2004 40.6996 81.2004 41.4996Z" fill="#404041"/>
<path fill-rule="evenodd" clip-rule="evenodd" d="M82.8004 40.2004C83.6004 40.2004 84.2004 39.6004 84.2004 38.8004C84.2004 38.0004 83.6004 37.4004 82.8004 37.4004C82.0004 37.4004 81.4004 38.0004 81.4004 38.8004C81.5004 39.6004 82.1004 40.2004 82.8004 40.2004Z" fill="#404041"/>
<path fill-rule="evenodd" clip-rule="evenodd" d="M87.3 36.0992C87.3 36.7992 86.7 37.4992 85.9 37.4992C85.1 37.4992 84.5 36.8992 84.5 36.0992C84.5 35.2992 85.1 34.6992 85.9 34.6992C86.7 34.7992 87.3 35.3992 87.3 36.0992Z" fill="#404041"/>
<path fill-rule="evenodd" clip-rule="evenodd" d="M88.6012 34.3996C89.4012 34.3996 90.0012 33.7996 90.0012 32.9996C90.0012 32.1996 89.4012 31.5996 88.6012 31.5996C87.8012 31.5996 87.2012 32.1996 87.2012 32.9996C87.2012 33.7996 87.8012 34.3996 88.6012 34.3996Z" fill="#404041"/>
<path fill-rule="evenodd" clip-rule="evenodd" d="M92.7004 29.9996C92.7004 30.7996 92.1004 31.3996 91.3004 31.3996C90.5004 31.3996 89.9004 30.7996 89.9004 29.9996C89.9004 29.2996 90.5004 28.5996 91.3004 28.5996C92.1004 28.6996 92.7004 29.2996 92.7004 29.9996Z" fill="#404041"/>
<path fill-rule="evenodd" clip-rule="evenodd" d="M93.8004 28.0988C94.6004 28.0988 95.2004 27.4988 95.2004 26.6988C95.2004 25.8988 94.6004 25.2988 93.8004 25.2988C93.0004 25.2988 92.4004 25.8988 92.4004 26.6988C92.4004 27.4988 93.0004 28.0988 93.8004 28.0988Z" fill="#404041"/>
<path fill-rule="evenodd" clip-rule="evenodd" d="M97.2004 23.0992C97.2004 23.8992 96.6004 24.4992 95.8004 24.4992C95.0004 24.4992 94.4004 23.8992 94.4004 23.0992C94.4004 22.2992 95.0004 21.6992 95.8004 21.6992C96.6004 21.7992 97.2004 22.3992 97.2004 23.0992Z" fill="#404041"/>
<path fill-rule="evenodd" clip-rule="evenodd" d="M97.4 20.8C98.2 20.8 98.8 20.2 98.8 19.4C98.8 18.6 98.2 18 97.4 18C96.6 18 96 18.6 96 19.4C96.1 20.2 96.7 20.8 97.4 20.8Z" fill="#404041"/>
<path fill-rule="evenodd" clip-rule="evenodd" d="M100.001 15.4996C100.001 16.1996 99.4012 16.8996 98.6012 16.8996C97.8012 16.8996 97.2012 16.2996 97.2012 15.4996C97.2012 14.6996 97.8012 14.0996 98.6012 14.0996C99.3012 14.1996 100.001 14.7996 100.001 15.4996Z" fill="#404041"/>
<path fill-rule="evenodd" clip-rule="evenodd" d="M99.1012 12.8996C99.9012 12.8996 100.501 12.2996 100.501 11.4996C100.501 10.6996 99.9012 10.0996 99.1012 10.0996C98.3012 10.0996 97.7012 10.6996 97.7012 11.4996C97.7012 12.2996 98.3012 12.8996 99.1012 12.8996Z" fill="#404041"/>
<path fill-rule="evenodd" clip-rule="evenodd" d="M100.601 7.49961C100.601 8.29961 100.001 8.89961 99.2008 8.89961C98.4008 8.89961 97.8008 8.29961 97.8008 7.49961C97.8008 6.79961 98.4008 6.09961 99.2008 6.09961C100.001 6.09961 100.601 6.79961 100.601 7.49961Z" fill="#404041"/>
<path fill-rule="evenodd" clip-rule="evenodd" d="M54.4996 44.7004C53.6996 44.7004 53.0996 44.1004 53.0996 43.3004C53.0996 42.5004 53.6996 41.9004 54.4996 41.9004C55.2996 41.9004 55.8996 42.5004 55.8996 43.3004C55.8996 44.1004 55.2996 44.7004 54.4996 44.7004Z" fill="#404041"/>
<path fill-rule="evenodd" clip-rule="evenodd" d="M49.8008 41.4996C49.8008 42.2996 50.4008 42.8996 51.2008 42.8996C52.0008 42.8996 52.6008 42.2996 52.6008 41.4996C52.6008 40.7996 52.0008 40.0996 51.2008 40.0996C50.4008 40.0996 49.8008 40.6996 49.8008 41.4996Z" fill="#404041"/>
<path fill-rule="evenodd" clip-rule="evenodd" d="M48.2008 40.2004C47.4008 40.2004 46.8008 39.6004 46.8008 38.8004C46.8008 38.1004 47.4008 37.4004 48.2008 37.4004C49.0008 37.4004 49.6008 38.0004 49.6008 38.8004C49.5008 39.6004 48.9008 40.2004 48.2008 40.2004Z" fill="#404041"/>
<path fill-rule="evenodd" clip-rule="evenodd" d="M43.7012 36.0992C43.7012 36.8992 44.3012 37.4992 45.1012 37.4992C45.9012 37.4992 46.5012 36.8992 46.5012 36.0992C46.5012 35.2992 45.9012 34.6992 45.1012 34.6992C44.3012 34.6992 43.7012 35.3992 43.7012 36.0992Z" fill="#404041"/>
<path fill-rule="evenodd" clip-rule="evenodd" d="M42.4 34.3996C41.6 34.3996 41 33.7996 41 32.9996C41 32.1996 41.6 31.5996 42.4 31.5996C43.2 31.5996 43.8 32.1996 43.8 32.9996C43.8 33.7996 43.2 34.3996 42.4 34.3996Z" fill="#404041"/>
<path fill-rule="evenodd" clip-rule="evenodd" d="M38.3008 29.9996C38.3008 30.6996 38.9008 31.3996 39.7008 31.3996C40.5008 31.3996 41.1008 30.7996 41.1008 29.9996C41.1008 29.1996 40.5008 28.5996 39.7008 28.5996C38.9008 28.6996 38.3008 29.2996 38.3008 29.9996Z" fill="#404041"/>
<path fill-rule="evenodd" clip-rule="evenodd" d="M37.2008 27.9992C36.4008 27.9992 35.8008 27.3992 35.8008 26.5992C35.8008 25.7992 36.4008 25.1992 37.2008 25.1992C38.0008 25.1992 38.6008 25.7992 38.6008 26.5992C38.6008 27.3992 38.0008 27.9992 37.2008 27.9992Z" fill="#404041"/>
<path fill-rule="evenodd" clip-rule="evenodd" d="M33.8008 23.0992C33.8008 23.8992 34.4008 24.4992 35.2008 24.4992C36.0008 24.4992 36.6008 23.8992 36.6008 23.0992C36.6008 22.2992 36.0008 21.6992 35.2008 21.6992C34.4008 21.7992 33.8008 22.3992 33.8008 23.0992Z" fill="#404041"/>
<path fill-rule="evenodd" clip-rule="evenodd" d="M33.6012 20.7996C32.8012 20.7996 32.2012 20.1996 32.2012 19.4996C32.2012 18.6996 32.8012 18.0996 33.6012 18.0996C34.4012 18.0996 35.0012 18.6996 35.0012 19.4996C34.9012 20.1996 34.3012 20.7996 33.6012 20.7996Z" fill="#404041"/>
<path fill-rule="evenodd" clip-rule="evenodd" d="M31.0996 15.4996C31.0996 16.1996 31.6996 16.8996 32.4996 16.8996C33.2996 16.8996 33.8996 16.2996 33.8996 15.4996C33.8996 14.6996 33.2996 14.0996 32.4996 14.0996C31.6996 14.1996 31.0996 14.7996 31.0996 15.4996Z" fill="#404041"/>
<path fill-rule="evenodd" clip-rule="evenodd" d="M31.9 12.8996C31.1 12.8996 30.5 12.2996 30.5 11.4996C30.5 10.7996 31.1 10.0996 31.9 10.0996C32.7 10.0996 33.3 10.6996 33.3 11.4996C33.3 12.2996 32.7 12.8996 31.9 12.8996Z" fill="#404041"/>
<path fill-rule="evenodd" clip-rule="evenodd" d="M30.4004 7.49961C30.4004 8.29961 31.0004 8.89961 31.8004 8.89961C32.6004 8.89961 33.2004 8.29961 33.2004 7.49961C33.2004 6.79961 32.6004 6.09961 31.8004 6.09961C31.0004 6.09961 30.4004 6.69961 30.4004 7.49961Z" fill="#404041"/>
<path fill-rule="evenodd" clip-rule="evenodd" d="M69.0004 36.9988C69.6004 36.9988 70.1004 36.4988 70.1004 35.8988C70.1004 35.2988 69.6004 34.7988 69.0004 34.7988C68.4004 34.7988 67.9004 35.2988 67.9004 35.8988C67.9004 36.4988 68.4004 36.9988 69.0004 36.9988Z" fill="#404041"/>
<path fill-rule="evenodd" clip-rule="evenodd" d="M72.1004 38.1C72.1004 38.7 71.6004 39.2 71.0004 39.2C70.4004 39.2 69.9004 38.7 69.9004 38.1C69.9004 37.5 70.4004 37 71.0004 37C71.7004 37 72.1004 37.5 72.1004 38.1Z" fill="#404041"/>
<path fill-rule="evenodd" clip-rule="evenodd" d="M72.6 41.9988C73.2 41.9988 73.7 41.4988 73.7 40.8988C73.7 40.2988 73.2 39.7988 72.6 39.7988C72 39.7988 71.5 40.2988 71.5 40.8988C71.5 41.4988 72 41.9988 72.6 41.9988Z" fill="#404041"/>
<path fill-rule="evenodd" clip-rule="evenodd" d="M74.0008 43.7992C74.0008 44.3992 73.5008 44.8992 72.9008 44.8992C72.3008 44.8992 71.8008 44.3992 71.8008 43.7992C71.8008 43.1992 72.3008 42.6992 72.9008 42.6992C73.5008 42.6992 74.0008 43.1992 74.0008 43.7992Z" fill="#404041"/>
<path fill-rule="evenodd" clip-rule="evenodd" d="M72.0004 47.7996C72.6004 47.7996 73.1004 47.2996 73.1004 46.6996C73.1004 46.0996 72.6004 45.5996 72.0004 45.5996C71.4004 45.5996 70.9004 46.0996 70.9004 46.6996C70.9004 47.2996 71.4004 47.7996 72.0004 47.7996Z" fill="#404041"/>
<path fill-rule="evenodd" clip-rule="evenodd" d="M71.0008 49.1C71.0008 49.7 70.5008 50.2 69.9008 50.2C69.3008 50.2 68.8008 49.7 68.8008 49.1C68.8008 48.5 69.3008 48 69.9008 48C70.6008 48 71.0008 48.5 71.0008 49.1Z" fill="#404041"/>
<path fill-rule="evenodd" clip-rule="evenodd" d="M62.0004 36.9988C61.4004 36.9988 60.9004 36.4988 60.9004 35.8988C60.9004 35.2988 61.4004 34.7988 62.0004 34.7988C62.6004 34.7988 63.1004 35.2988 63.1004 35.8988C63.1004 36.4988 62.6004 36.9988 62.0004 36.9988Z" fill="#404041"/>
<path fill-rule="evenodd" clip-rule="evenodd" d="M58.9004 38.1C58.9004 38.7 59.4004 39.2 60.0004 39.2C60.6004 39.2 61.1004 38.7 61.1004 38.1C61.1004 37.5 60.6004 37 60.0004 37C59.4004 37 58.9004 37.5 58.9004 38.1Z" fill="#404041"/>
<path fill-rule="evenodd" clip-rule="evenodd" d="M58.5004 41.9988C57.9004 41.9988 57.4004 41.4988 57.4004 40.8988C57.4004 40.2988 57.9004 39.7988 58.5004 39.7988C59.1004 39.7988 59.6004 40.2988 59.6004 40.8988C59.6004 41.4988 59.1004 41.9988 58.5004 41.9988Z" fill="#404041"/>
<path fill-rule="evenodd" clip-rule="evenodd" d="M57.0996 43.7992C57.0996 44.3992 57.5996 44.8992 58.1996 44.8992C58.7996 44.8992 59.2996 44.3992 59.2996 43.7992C59.2996 43.1992 58.7996 42.6992 58.1996 42.6992C57.5996 42.6992 57.0996 43.1992 57.0996 43.7992Z" fill="#404041"/>
<path fill-rule="evenodd" clip-rule="evenodd" d="M59.0004 47.7996C58.4004 47.7996 57.9004 47.2996 57.9004 46.6996C57.9004 46.0996 58.4004 45.5996 59.0004 45.5996C59.6004 45.5996 60.1004 46.0996 60.1004 46.6996C60.1004 47.2996 59.6004 47.7996 59.0004 47.7996Z" fill="#404041"/>
<path fill-rule="evenodd" clip-rule="evenodd" d="M60 49.1C60 49.7 60.5 50.2 61.1 50.2C61.7 50.2 62.2 49.7 62.2 49.1C62.2 48.5 61.7 48 61.1 48C60.5 48 60 48.5 60 49.1Z" fill="#404041"/>
<path fill-rule="evenodd" clip-rule="evenodd" d="M65.5004 29.0996C64.3004 29.0996 63.4004 29.9996 63.4004 31.0996C63.4004 32.1996 64.3004 33.0996 65.5004 33.0996C66.6004 33.0996 67.6004 32.1996 67.6004 31.0996C67.6004 29.9996 66.7004 29.0996 65.5004 29.0996ZM65.5004 31.7996C65.1004 31.7996 64.8004 31.4996 64.8004 31.0996C64.8004 30.6996 65.1004 30.3996 65.5004 30.3996C65.9004 30.3996 66.2004 30.6996 66.2004 31.0996C66.2004 31.4996 65.9004 31.7996 65.5004 31.7996Z" fill="#404041"/>
<path fill-rule="evenodd" clip-rule="evenodd" d="M65.5004 24.9004C64.3004 24.9004 63.4004 25.8004 63.4004 26.9004C63.4004 28.0004 64.3004 28.9004 65.5004 28.9004C66.6004 28.9004 67.6004 28.0004 67.6004 26.9004C67.6004 25.8004 66.7004 24.9004 65.5004 24.9004ZM65.5004 27.7004C65.1004 27.7004 64.8004 27.4004 64.8004 27.0004C64.8004 26.6004 65.1004 26.3004 65.5004 26.3004C65.9004 26.3004 66.2004 26.6004 66.2004 27.0004C66.2004 27.4004 65.9004 27.7004 65.5004 27.7004Z" fill="#404041"/>
<path fill-rule="evenodd" clip-rule="evenodd" d="M65.5004 20.7988C64.3004 20.7988 63.4004 21.6988 63.4004 22.7988C63.4004 23.8988 64.3004 24.7988 65.5004 24.7988C66.6004 24.7988 67.6004 23.8988 67.6004 22.7988C67.6004 21.6988 66.7004 20.7988 65.5004 20.7988ZM65.5004 23.4988C65.1004 23.4988 64.8004 23.1988 64.8004 22.7988C64.8004 22.3988 65.1004 22.0988 65.5004 22.0988C65.9004 22.0988 66.2004 22.3988 66.2004 22.7988C66.2004 23.1988 65.9004 23.4988 65.5004 23.4988Z" fill="#404041"/>
</svg>
