<svg width="131" height="72" viewBox="0 0 131 72" fill="none" xmlns="http://www.w3.org/2000/svg">
<path fill-rule="evenodd" clip-rule="evenodd" d="M90.5008 29.5004L66.3008 11.9004C65.6008 11.4004 65.4008 11.4004 64.7008 11.9004L62.9008 13.2004C55.4008 18.6004 48.0008 24.1004 40.5008 29.5004C40.4008 29.5004 40.4008 29.6004 40.3008 29.7004C40.1008 29.8004 40.0008 30.0004 39.8008 30.1004V30.8004C39.9008 31.0004 40.0008 31.1004 40.0008 31.3004C42.9008 40.1004 45.7008 48.9004 48.6008 57.8004L49.2008 59.7004C49.5008 60.5004 49.6008 60.6004 50.5008 60.6004H80.5008C81.3008 60.6004 81.5008 60.5004 81.7008 59.7004L91.0008 31.0004C91.3008 30.2004 91.2008 30.0004 90.5008 29.5004ZM69.3008 16.2004L85.7008 28.2004C85.5008 28.2004 85.5008 28.2004 85.4008 28.2004C84.1008 27.8004 82.7008 27.4004 81.4008 27.1004C79.4008 26.5004 77.4008 26.0004 75.4008 25.4004C75.2008 25.3004 75.0008 25.2004 74.9008 25.0004C73.3008 22.6004 71.7008 20.2004 70.1008 17.8004L69.4008 16.8004C69.3008 16.7004 69.3008 16.6004 69.2008 16.5004L69.3008 16.2004ZM65.6008 25.0004C66.9008 26.9004 68.2008 26.1004 69.4008 25.2004C70.6008 24.3004 71.9008 23.5004 73.2008 25.4004C72.2008 25.6004 71.3008 25.8004 70.4008 26.0004C69.9008 26.1004 69.6008 26.5004 69.7008 27.0004C69.8008 27.5004 70.2008 27.7004 70.7008 27.6004C70.8008 27.6004 70.9008 27.6004 71.1008 27.5004C71.2008 27.5004 71.3008 27.5004 71.4008 27.4004L72.1008 27.3004L73.9008 27.0004L74.6008 33.2004L74.3008 33.0004C74.2008 33.0004 74.1008 32.9004 74.1008 32.9004C73.4008 32.4004 72.8008 31.9004 72.1008 31.5004C70.4008 30.3004 68.8008 29.1004 67.2008 27.9004C66.2008 27.1004 65.2008 26.7004 63.9008 26.6004C62.5008 26.4004 61.0008 26.1004 59.6008 25.8004C59.0008 25.7004 58.4008 25.6004 57.7008 25.4004C59.0008 23.5004 60.3008 24.3004 61.6008 25.2004C63.0008 26.0004 64.3008 26.9004 65.6008 25.0004ZM69.8008 48.1004L65.5008 52.5004L61.2008 48.1004H69.8008ZM56.4008 33.3004L57.1008 27.0004L63.4008 28.2004L56.4008 33.3004ZM61.7008 16.2004C61.7008 16.3004 57.3008 20.3004 54.6008 22.6004C53.5008 23.6004 52.7008 24.3004 52.7008 24.4004C51.8008 25.8004 53.0008 25.2004 54.3008 24.7004C55.6008 24.2004 56.9008 23.6004 55.9008 25.0004C55.8008 25.2004 55.6008 25.3004 55.4008 25.4004C53.8008 25.9004 52.2008 26.3004 50.5008 26.8004L49.7008 27.0004C48.7008 27.3004 47.7008 27.6004 46.8008 27.8004L45.3008 28.2004V28.1004L61.7008 16.2004ZM49.8008 51.0004C49.7008 52.2004 49.7008 53.4004 49.6008 54.6004H49.5008L43.0008 34.7004L43.1008 34.6004C43.2008 34.6004 44.7008 38.3004 46.3008 41.9004C48.0008 45.7004 49.7008 49.6004 49.8008 49.7004C49.8008 50.2004 49.8008 50.6004 49.8008 51.0004ZM50.0008 47.0004C49.9008 46.7004 49.9008 46.5004 49.8008 46.2004C49.3008 43.8004 48.7008 41.3004 49.8008 42.6004C50.1008 43.0004 50.2008 43.3004 50.2008 43.8004C50.1008 44.9004 50.0008 46.0004 50.0008 47.0004ZM51.8008 37.3004C53.0008 36.2004 54.2008 35.0004 52.7008 33.3004L42.2008 30.9004L55.3008 27.2004C55.3008 27.3004 55.3008 27.4004 55.3008 27.5004C55.3008 27.7004 55.3008 27.8004 55.3008 28.0004C55.1008 29.6004 54.9008 31.1004 54.8008 32.7004C54.7008 34.2004 54.3008 35.6004 53.5008 36.9004C53.4008 37.0004 53.3008 37.2004 53.3008 37.3004C53.2008 37.5004 53.0008 37.8004 52.9008 38.1004L51.1008 41.4004C49.5008 39.6004 50.6008 38.4004 51.8008 37.3004ZM64.0008 55.5004L55.0008 58.8004C55.1008 58.8004 55.2008 58.7004 55.2008 58.7004C55.3008 58.7004 55.4008 58.6004 55.5008 58.6004L58.9008 57.3004L60.6008 56.7004C61.0008 56.5004 61.5008 56.4004 61.9008 56.2004C62.4008 56.0004 62.6008 55.6004 62.4008 55.1004C62.2008 54.7004 61.8008 54.4004 61.3008 54.6004C61.2008 54.6004 61.1008 54.7004 61.0008 54.7004L54.0008 57.2004L52.1008 57.9004L51.1008 58.3004L51.8008 44.2004C51.9008 44.2004 53.3008 47.9004 54.5008 50.8004C55.3008 52.8004 55.9008 54.4004 56.0008 54.4004C57.1008 55.0004 57.1008 53.0004 57.2008 51.1004C57.3008 49.1004 57.4008 47.2004 58.4008 47.8004C58.5008 47.9004 58.7008 48.0004 58.8008 48.1004C59.4008 48.7004 60.0008 49.3004 60.6008 50.0004C61.9008 51.3004 63.2008 52.7004 64.5008 54.0004C64.8008 54.3004 65.2008 54.6004 65.6008 54.7004C68.9008 56.0004 72.2008 57.2004 75.4008 58.5004C75.5008 58.5004 75.7008 58.6004 75.9008 58.7004L64.0008 55.5004ZM73.3008 45.4004L75.9008 37.3004L78.7008 42.4004L73.3008 45.4004ZM80.8008 43.5004C80.8008 43.4004 80.8008 43.3004 80.8008 43.2004C80.8008 43.1004 80.9008 42.9004 81.0008 42.8004C82.0008 41.6004 83.0008 40.4004 84.0008 39.2004C83.8008 39.7004 83.5008 40.2004 83.2008 40.7004C82.1008 43.1004 80.9008 45.4004 80.8008 43.5004ZM81.5008 54.7004C81.5008 54.7004 82.5008 50.5004 83.6008 46.4004C84.6008 42.3004 85.7008 38.1004 85.7008 38.1004C85.7008 37.8004 85.6008 37.6004 85.6008 37.5004C85.9008 37.1004 86.3008 36.7004 86.6008 36.3004L87.6008 35.1004C87.7008 35.0004 87.7008 34.9004 87.8008 34.8004L87.9008 34.7004L88.0008 34.8004L81.5008 54.7004ZM84.6008 31.8004C83.3008 31.4004 81.9008 30.9004 80.5008 32.7004C79.9008 31.6004 79.2008 32.8004 78.5008 33.9004C77.8008 35.0004 77.2008 36.1004 76.6008 35.1004C76.5008 34.9004 76.5008 34.7004 76.5008 34.5004C76.3008 32.9004 76.1008 31.3004 75.9008 29.8004C75.8008 29.0004 75.7008 28.1004 75.6008 27.2004L88.7008 30.9004C87.3008 32.6004 86.0008 32.2004 84.6008 31.8004Z" fill="#404041"/>
</svg>
