<svg width="131" height="72" viewBox="0 0 131 72" fill="none" xmlns="http://www.w3.org/2000/svg">
<path fill-rule="evenodd" clip-rule="evenodd" d="M83.3004 38.2996C83.3004 38.8996 82.8004 39.4996 82.1004 39.4996C81.5004 39.4996 80.9004 38.9996 80.9004 38.2996C80.9004 37.6996 81.4004 37.1996 82.0004 37.0996C82.7004 37.1996 83.3004 37.6996 83.3004 38.2996Z" fill="#404041"/>
<path fill-rule="evenodd" clip-rule="evenodd" d="M84.6004 22.5C82.0004 18.9 79.4004 15.2 76.8004 11.6C75.7004 10.1 74.6004 8.50001 73.5004 7.00001C73.0004 6.30001 72.5004 6.10001 71.7004 6.60001C67.4004 8.80001 63.2004 11.1 58.9004 13.4C58.6004 13.5 58.4004 13.8 58.2004 14C54.3004 18.8 50.4004 23.7 46.5004 28.5C46.3004 28.8 46.1004 29.3 46.2004 29.7C46.4004 32.1 46.6004 34.4 46.8004 36.8C46.8004 37.4 46.9004 38 46.9004 38.6C47.1004 41 47.3004 43.5 47.5004 45.9C47.6004 46.7 47.6004 47.6 47.7004 48.4C47.9004 50.5 48.1004 52.7 48.2004 54.8C48.3004 55.4 48.4004 55.9 48.9004 56.4C50.3004 57.8 51.8004 59.3 53.2004 60.7L56.0004 63.5C56.5004 64 57.1004 64.6 57.6004 65.1C57.8004 65.3 58.1004 65.6 58.3004 65.8H59.1004C59.1004 65.8 59.2004 65.8 59.2004 65.7C59.3004 65.6 59.3004 65.6 59.4004 65.6L62.3004 64.2C68.4004 61.4 74.4004 58.5 80.5004 55.7C81.2004 55.4 81.5004 54.9 81.6004 54.2C81.7004 53 81.8004 51.9 82.0004 50.7C82.1004 50.2 82.1004 49.8 82.2004 49.3L82.4004 47.7C82.6004 46.4 82.7004 45.1 82.8004 43.8C82.9004 43.1 82.4004 42.6 81.8004 42.5C81.2004 42.4 80.6004 42.8 80.5004 43.5C80.5004 43.7 80.4004 43.9 80.4004 44.1V44.2C80.3004 45.4 80.1004 46.6 80.0004 47.9L79.9004 48.5C79.9004 48.4 79.8004 48.4 79.8004 48.3C79.8004 48.2 79.7004 48.2 79.7004 48.1L79.3004 46.9C78.2004 43.2 77.1004 39.5 76.0004 35.8C75.9004 35.6 76.0004 35.3 76.2004 35.1C77.1004 33.9 78.1004 32.7 79.0004 31.5C79.2004 31.2 79.5004 30.9 79.7004 30.6C80.2004 29.9 80.8004 29.2 81.3004 28.5L82.1004 27.5V27.8C82.1004 27.9 82.1004 28 82.1004 28.2L82.0004 28.6C81.9004 30 81.7004 31.4 81.5004 32.9C81.4004 33.7 81.8004 34.3 82.6004 34.4C83.3004 34.5 83.8004 33.9 83.9004 33C84.0004 31.8 84.1004 30.7 84.3004 29.6C84.5004 27.9 84.7004 26.3 84.8004 24.6C84.8004 24.5 84.8004 24.4 84.8004 24.3C84.9004 23.6 85.0004 23 84.6004 22.5ZM50.3004 50.9C50.3004 50.7 50.3004 50.5 50.2004 50.3C50.2004 49.9 50.1004 49.5 50.1004 49C49.9004 46.3 49.6004 43.5 49.4004 40.8C49.3004 39.5 49.2004 38.3 49.1004 37C49.1004 36.5 49.0004 36 49.0004 35.5C48.8004 33.7 48.7004 31.9 48.5004 30C48.5004 29.8 48.5004 29.6 48.7004 29.4C51.3004 26.2 53.8004 23 56.4004 19.8C57.2004 18.8 58.1004 17.7 58.9004 16.7L59.0004 16.6C59.0004 16.6 59.0004 16.5 59.1004 16.5C59.2004 16.6 59.3004 16.7 59.3004 16.8C59.4004 17 59.5004 17.1 59.6004 17.3C60.1004 18.1 60.6004 18.9 61.1004 19.7C63.2004 23.1 65.4004 26.5 67.5004 29.9C67.7004 30.2 67.8004 30.6 67.7004 31C67.5004 33 67.3004 35 67.1004 37C67.0004 37.6 67.0004 38.2 66.9004 38.7C66.9004 39.2 66.8004 39.7 66.8004 40.2C66.8004 40.3 66.8004 40.5 66.7004 40.6C66.7004 40.7 66.7004 40.8 66.7004 40.9C66.6004 40.8 66.4004 40.7 66.3004 40.6C66.1004 40.5 66.0004 40.5 65.9004 40.4C65.4004 40 64.9004 39.7 64.4004 39.3C63.8004 38.9 63.3004 38.5 62.7004 38.1C61.8004 37.5 61.0004 36.8 60.1004 36.2C59.1004 35.5 58.5004 35.7 57.9004 36.7C56.3004 39.6 54.7004 42.6 53.2004 45.5C52.3004 47.1 51.5004 48.7 50.6004 50.3C50.6004 50.5 50.5004 50.7 50.3004 50.9ZM58.4004 62.3L50.8004 55L59.5004 38.7L66.1004 43.5L58.4004 62.3ZM78.9004 53.6V53.8C73.0004 56.6 67.0004 59.3 60.9004 62.2C60.9004 62.1 61.0004 62 61.0004 61.9C61.1004 61.7 61.1004 61.6 61.2004 61.5C61.8004 60 62.5004 58.4 63.1004 56.9C64.9004 52.6 66.7004 48.4 68.4004 44.1C68.7004 43.2 68.8004 42.2 68.9004 41.2C68.9004 40.9 68.9004 40.7 69.0004 40.4C69.2004 38.7 69.3004 37 69.5004 35.3C69.6004 34.5 69.7004 33.7 69.7004 32.9C69.7004 32.8 69.7004 32.8 69.8004 32.7V32.6C70.1004 32.8 70.3004 33.1 70.6004 33.3C71.5004 34.2 72.5004 35 73.4004 35.9C73.5004 36 73.5004 36.1 73.6004 36.3C75.4004 42 77.2004 47.8 78.9004 53.6ZM74.5004 33.5C74.3004 33.3 74.1004 33.2 74.0004 33C73.5004 32.6 73.1004 32.2 72.7004 31.8C71.9004 31 71.0004 30.3 70.2004 29.5C70.1004 29.4 69.9004 29.2 69.8004 29.1C67.0004 24.7 64.3004 20.3 61.5004 15.9L61.0004 15.1C61.0004 15.1 61.0004 15 60.9004 15V14.9L72.0004 9.00001L82.3004 23.4C79.7004 26.7 77.1004 30.1 74.5004 33.5Z" fill="#404041"/>
</svg>
