<svg width="131" height="72" viewBox="0 0 131 72" fill="none" xmlns="http://www.w3.org/2000/svg">
<path d="M75.3004 20.5H56.4004V60.3H75.3004V20.5Z" fill="#404041"/>
<path d="M54.5 20.5H46V60.3H54.5V20.5Z" fill="#404041"/>
<path d="M85.8008 20.5H77.3008V60.3H85.8008V20.5Z" fill="#404041"/>
<path fill-rule="evenodd" clip-rule="evenodd" d="M73.9004 18.6H57.9004L65.9004 11.5L73.9004 18.6Z" fill="#404041"/>
<path fill-rule="evenodd" clip-rule="evenodd" d="M71.4004 13.9008L71.5004 13.8008L82.1004 18.5008V18.6008C81.8004 18.6008 81.5004 18.6008 81.2004 18.6008C80.5004 18.6008 79.9004 18.6008 79.2004 18.6008C77.4004 18.8008 76.1004 18.3008 74.9004 17.0008C74.0004 16.0008 72.9004 15.2008 71.9004 14.3008C71.7004 14.2008 71.6004 14.0008 71.4004 13.9008Z" fill="#404041"/>
<path fill-rule="evenodd" clip-rule="evenodd" d="M60.2992 13.8008L60.3992 13.9008C59.9992 14.3008 59.4992 14.7008 59.0992 15.0008C58.0992 15.9008 56.9992 16.8008 55.9992 17.8008C55.3992 18.4008 54.6992 18.7008 53.7992 18.6008C52.3992 18.5008 51.0992 18.6008 49.6992 18.4008L60.2992 13.8008Z" fill="#404041"/>
</svg>
