<svg width="131" height="72" viewBox="0 0 131 72" fill="none" xmlns="http://www.w3.org/2000/svg">
<path fill-rule="evenodd" clip-rule="evenodd" d="M105.799 44.2C105.799 43.7 105.599 43.1 105.299 42.7C103.799 40.8 102.199 38.8 100.499 37C99.5994 36 98.9994 35 98.7994 33.6C98.6994 32.6 98.3994 31.7 98.0994 30.8C97.9994 30.6 97.8994 30.4 97.7994 30.2C97.6994 30 97.5994 29.8 97.3994 29.7C94.5994 27.2 91.6994 24.8 88.7994 22.4C88.3994 22.1 87.7994 21.9 87.3994 21.9C86.9994 21.9 86.5994 21.9 86.1994 21.9C85.7994 21.9 85.3994 21.9 84.9994 21.9C83.8994 21.9 82.7994 21.9 81.6994 21.9C79.9994 21.8 78.6994 22.1 77.6994 23.5C77.5994 23.6 77.3994 23.7 77.1994 23.9C75.8994 22.6 74.6994 21.4 73.3994 20.1C71.5994 18.3 69.7994 16.5 67.9994 14.7C67.4994 14.2 66.9994 14 66.2994 14C64.0994 14 61.9994 14 59.7994 14C56.5994 14 53.3994 14 50.1994 14C49.8994 14 49.5994 14.1 49.3994 14.2C49.0994 14.3 48.8994 14.4 48.5994 14.6C43.5994 18.7 38.5994 22.9 33.5994 27.1C33.3994 27.3 33.1994 27.5 32.9994 27.8C32.8994 28 32.7994 28.1 32.6994 28.3C32.3994 28.8 32.1994 29.3 31.8994 29.8C31.5994 30.5 31.1994 31.2 30.8994 31.8C29.6994 34.2 28.5994 36.7 27.1994 39C25.3994 42.1 24.5994 45.2 24.9994 48.7C25.0994 49.2 25.1994 49.7 25.3994 50.1C25.7994 50.7 26.1994 51.2 26.4994 51.8L27.0994 52.7L27.7994 53.8V53.9L28.5994 55C28.8994 55.4 29.0994 55.8 29.3994 56.2C29.5994 56.5 29.7994 56.9 30.0994 57.2C30.5994 57.9 31.0994 58.1 31.8994 58.1C42.5994 58.1 53.1994 58.1 63.8994 58.1H75.2994C75.3994 58.1 75.4994 58.1 75.5994 58.1C75.7994 58.1 75.9994 58.1 76.0994 58.1C80.1994 57.3 84.1994 56.5 88.2994 55.7C89.5994 55.4 89.8994 55.1 89.8994 53.7V49H90.8994H94.2994C97.4994 49 100.699 49 103.999 49C105.099 49 105.499 48.5 105.499 47.5C105.499 47.2 105.499 47 105.499 46.7C105.899 45.8 105.899 45 105.799 44.2ZM87.5994 52.6C87.5994 52.8 87.3994 53.2 87.1994 53.2C84.2994 53.8 81.2994 54.4 78.3994 55L77.2994 55.2C77.1994 55.2 77.1994 55.2 77.0994 55.2H76.7994C76.5994 54.6 76.3994 54 76.1994 53.5C75.6994 52.1 75.1994 50.7 74.7994 49.3C74.4994 48.4 73.9994 47.9 73.0994 47.6C72.0994 47.3 71.1994 47 70.1994 46.6C69.2994 46.3 68.3994 46 67.4994 45.7C66.8994 45.5 66.6994 45.2 66.6994 44.6C66.4994 42.2 66.2994 39.8 65.9994 37.4L65.6994 34C65.6994 33.9 65.6994 33.8 65.5994 33.6V33.4C65.5994 33.3 65.5994 33.2 65.4994 33.1L62.8994 33.5L62.9994 34.6V34.7C63.0994 35.6 63.1994 36.4 63.1994 37.2C63.2994 38.4 63.3994 39.6 63.5994 40.8L63.7994 42.5C63.8994 43.8 64.0994 45.1 64.1994 46.3C64.2994 47 64.5994 47.4 65.2994 47.6C65.5994 47.7 65.8994 47.8 66.2994 47.9C66.7994 48 67.1994 48.2 67.5994 48.3L67.8994 48.4C68.6994 48.7 69.5994 49 70.3994 49.2C70.7994 49.3 71.1994 49.4 71.4994 49.6C71.6994 49.7 71.8994 49.8 72.0994 49.9C72.1994 50 72.3994 50.2 72.3994 50.5C72.6994 51.4 72.9994 52.4 73.2994 53.3L73.4994 53.9C73.5994 54.3 73.7994 54.8 73.8994 55.2H51.2994C50.9994 53.8 51.2994 52.7 52.0994 51.7C52.4994 51.2 52.7994 50.7 53.0994 50.2C53.2994 50 53.3994 49.7 53.5994 49.5L51.3994 48C51.0994 48.4 50.8994 48.8 50.5994 49.1C49.8994 50.1 49.2994 51 48.6994 52C48.4994 52.3 48.4994 52.8 48.4994 53.2C48.4994 53.4 48.4994 53.6 48.4994 53.7C48.4994 54.2 48.4994 54.6 48.4994 55.1H34.1994C34.2994 54.9 34.3994 54.8 34.4994 54.6C34.7994 54.1 35.0994 53.6 35.8994 53.3C38.8994 52.3 41.7994 51.1 44.6994 50C45.3994 49.7 45.8994 49.3 46.0994 48.5C46.6994 46.1 47.2994 43.7 47.8994 41.3V41.2C48.0994 40.3 48.3994 39.4 48.5994 38.5L46.0994 37.9L45.7994 38.9V39L45.4994 40C45.3994 40.4 45.2994 40.7 45.1994 41.1L44.8994 42.3C44.7994 42.8 44.5994 43.4 44.4994 43.9C44.1994 44.9 43.9994 45.9 43.7994 46.9C43.6994 47.4 43.3994 47.7 42.8994 47.9C42.2994 48.1 41.6994 48.3 41.0994 48.6C40.5994 48.8 40.0994 49 39.5994 49.2C37.9994 49.8 36.4994 50.4 34.8994 51C33.8994 51.3 33.0994 51.9 32.5994 52.8C32.4994 53.1 32.2994 53.3 32.0994 53.6C31.9994 53.7 31.8994 53.9 31.7994 54C31.6994 53.9 31.6994 53.9 31.5994 53.8L31.4994 53.7L31.3994 53.6L31.2994 53.5C30.1994 51.9 29.1994 50.3 28.0994 48.7C27.8994 48.4 27.7994 48 27.7994 47.7C27.4994 45.1 28.0994 42.8 29.3994 40.5C30.6994 38 31.9994 35.5 33.1994 33C33.7994 31.7 34.3994 30.5 35.0994 29.2C35.2994 28.8 35.5994 28.5 35.8994 28.2C40.5994 24.3 45.2994 20.4 49.8994 16.5C50.1994 16.3 50.6994 16.1 51.0994 16.1C55.9994 16.1 60.7994 16.1 65.6994 16.1C66.0994 16.1 66.4994 16.3 66.7994 16.6C71.0994 20.8 75.2994 25.1 79.4994 29.3C79.7994 29.6 79.9994 30 80.0994 30.4C80.7994 33.4 81.3994 36.4 82.0994 39.4C80.7994 39.7 80.6994 39.7 79.9994 38.6L79.4994 37.8L78.7994 36.8L78.3994 36.2L76.1994 37.6C76.3994 37.9 76.6994 38.3 76.8994 38.6C77.5994 39.6 78.2994 40.6 78.9994 41.6C79.1994 41.8 79.5994 41.9 79.7994 42C79.8994 42 79.9994 42 80.0994 42C80.1994 42 80.1994 42 80.2994 42C82.3994 41.6 83.7994 42.4 84.8994 44.2C85.2994 44.9 85.8994 45.5 86.3994 46.2C86.6994 46.6 86.9994 46.9 87.2994 47.3C87.4994 47.5 87.5994 47.9 87.6994 48.1C87.6994 49.9 87.6994 51.3 87.5994 52.6ZM103.199 46.4H100.799C100.399 46.4 99.8994 46.4 99.4994 46.4C99.2994 46.4 98.9994 46.4 98.7994 46.4C98.6994 46.4 98.5994 46.4 98.5994 46.3C98.4994 46.2 98.2994 46.1 98.1994 46L97.9994 45.7C97.2994 45 96.4994 44.2 95.7994 43.5C94.8994 42.6 93.9994 41.7 93.1994 40.8C92.8994 40.5 92.7994 40.1 92.6994 39.7C92.3994 38.7 92.1994 37.8 91.9994 36.8C91.8994 36.4 91.7994 36 91.6994 35.6L88.9994 36.5L89.2994 37.8C89.5994 39.1 89.8994 40.3 90.2994 41.6C90.3994 41.9 90.6994 42.1 90.8994 42.4L91.4994 43L92.2994 43.8C92.7994 44.3 93.3994 44.8 93.8994 45.4L94.8994 46.4H92.5994C92.2994 46.4 91.9994 46.4 91.6994 46.4C90.9994 46.4 90.1994 46.5 89.6994 46.2C89.5994 46.2 89.4994 46.1 89.3994 46C89.1994 45.9 89.0994 45.7 88.8994 45.6C88.7994 45.5 88.6994 45.4 88.5994 45.3C88.4994 45.2 88.3994 45.1 88.3994 45C88.1994 44.7 87.9994 44.3 87.6994 44.1C85.5994 42 84.3994 39.4 83.9994 36.4C83.6994 34.6 83.2994 32.8 82.7994 31.1C82.6994 30.6 82.5994 30.1 82.3994 29.6C82.3994 29.5 82.3994 29.4 82.2994 29.3C82.2994 29.2 82.1994 29.1 82.1994 29.1C82.0994 28.9 82.0994 28.8 81.9994 28.7C81.8994 28.6 81.7994 28.5 81.7994 28.4C81.6994 28.3 81.5994 28.2 81.4994 28.1C81.2994 27.9 81.1994 27.8 80.9994 27.6C80.7994 27.4 80.5994 27.2 80.3994 27.1L80.1994 26.9L79.9994 26.5L79.8994 26.4C79.5994 26.2 79.3994 25.9 79.0994 25.7C79.7994 24.7 80.4994 24.2 81.6994 24.3C82.6994 24.4 83.6994 24.4 84.6994 24.3C85.2994 24.3 85.9994 24.3 86.5994 24.3C86.6994 24.3 86.8994 24.3 87.0994 24.4C87.1994 24.4 87.1994 24.4 87.2994 24.5C87.2994 24.5 87.3994 24.5 87.3994 24.6C87.4994 24.6 87.4994 24.7 87.5994 24.7C88.8994 25.8 90.1994 26.9 91.4994 28.1C92.0994 28.6 92.6994 29.1 93.2994 29.6L93.8994 30.1L95.1994 31.2C95.1994 31.2 95.2994 31.3 95.3994 31.4C95.4994 31.6 95.5994 31.7 95.6994 31.9L95.7994 32.1C95.7994 32.2 95.8994 32.3 95.8994 32.4C95.8994 32.5 95.8994 32.6 95.8994 32.7C96.0994 35.9 98.0994 38.2 99.9994 40.5C100.399 40.9 100.699 41.3 101.099 41.7C101.499 42.2 101.899 42.8 102.399 43.3C103.299 44 103.399 45.1 103.199 46.4Z" fill="#404041"/>
<path fill-rule="evenodd" clip-rule="evenodd" d="M36.7996 43.1004L35.4996 45.7004L33.0996 44.5004L34.4996 41.9004L36.7996 43.1004Z" fill="#404041"/>
<path fill-rule="evenodd" clip-rule="evenodd" d="M45.4992 30.5C43.9992 31.6 42.5992 32.7 41.1992 33.8C40.7992 34.1 40.4992 34.5 40.2992 34.9C39.6992 36.2 39.1992 37.5 38.6992 38.9L38.3992 39.7L38.0992 40.4L35.6992 39.4C35.9992 38.6 36.3992 37.8 36.5992 37C37.3992 33.7 39.2992 31.3 42.1992 29.7C42.7992 29.4 43.2992 28.9 43.8992 28.5L45.4992 30.5Z" fill="#404041"/>
<path fill-rule="evenodd" clip-rule="evenodd" d="M65.3999 23.2992L63.8999 30.7992H61.6999C61.3999 28.6992 61.8999 26.7992 62.3999 24.7992C62.5999 24.0992 62.7999 23.3992 62.8999 22.6992L65.3999 23.2992Z" fill="#404041"/>
</svg>
