<svg width="131" height="72" viewBox="0 0 131 72" fill="none" xmlns="http://www.w3.org/2000/svg">
<path fill-rule="evenodd" clip-rule="evenodd" d="M93.9001 58.5001C93.8001 58.3001 93.7001 58.1001 93.6001 58.0001L70.5001 19.4001C69.6001 17.9001 68.8001 16.5001 67.9001 15.0001C67.4001 14.2001 67.0001 13.5001 66.5001 12.7001C66.1001 12.1001 65.6001 11.8001 65.0001 12.1001C64.7001 12.3001 64.5001 12.6001 64.3001 12.8001C56.9001 25.3001 49.5001 37.8001 42.0001 50.2001L39.9001 53.8001C39.6001 54.3001 39.4001 54.7001 39.1001 55.1001L37.2001 58.3001C36.7001 59.1001 37.2001 59.9001 38.1001 59.9001C38.3001 59.9001 38.4001 59.9001 38.6001 59.9001H92.3001C92.5001 59.9001 92.8001 59.9001 93.1001 59.9001C93.8001 59.9001 94.2001 59.2001 93.9001 58.5001ZM66.1001 32.3001V29.4001C66.1001 29.4001 66.1001 29.3001 66.1001 29.2001C66.1001 29.2001 66.1001 29.1001 66.1001 29.0001L77.7001 49.2001C77.4001 49.1001 77.3001 49.0001 77.2001 48.9001C73.7001 46.8001 70.1001 44.7001 66.6001 42.6001C66.4001 42.5001 66.3001 42.4001 66.2001 42.3001C66.1001 42.2001 66.1001 42.1001 66.1001 41.9001C66.1001 38.7001 66.1001 35.5001 66.1001 32.3001ZM65.1001 43.5001C65.3001 43.3001 65.5001 43.3001 65.8001 43.5001C68.6001 45.2001 71.4001 46.8001 74.2001 48.5001L76.8001 50.1001C76.8001 50.1001 76.9001 50.1001 76.9001 50.2001C76.9001 50.2001 77.0001 50.2001 77.0001 50.3001V50.4001L53.5001 50.5001C53.6001 50.4001 53.6001 50.4001 53.7001 50.3001C53.8001 50.2001 53.9001 50.2001 53.9001 50.1001L58.2001 47.5001C60.5001 46.3001 62.8001 44.9001 65.1001 43.5001ZM64.6001 42.5001C61.7001 44.2001 58.7001 46.0001 55.8001 47.7001L53.3001 49.2001C53.3001 49.2001 53.2001 49.2001 53.0001 49.3001L64.9001 28.9001C64.9001 29.0001 64.9001 29.1001 64.9001 29.2001C64.9001 29.3001 64.9001 29.4001 64.9001 29.5001V33.2001C64.9001 36.0001 64.9001 38.9001 64.9001 41.7001C64.9001 42.1001 64.9001 42.3001 64.6001 42.5001ZM39.1001 57.6001L64.8001 14.4001H64.9001V15.0001C64.9001 18.7001 64.9001 22.3001 64.9001 26.0001C64.9001 26.4001 64.8001 26.8001 64.6001 27.1001C60.1001 34.9001 55.6001 42.6001 51.0001 50.4001C50.9001 50.6001 50.7001 50.8001 50.5001 50.9001C47.0001 53.0001 43.6001 55.0001 40.1001 57.1001L39.5001 57.5001C39.4001 57.5001 39.3001 57.6001 39.1001 57.6001ZM39.5001 58.8001C39.7001 58.7001 39.8001 58.6001 39.9001 58.5001C43.6001 56.3001 47.3001 54.1001 50.9001 52.0001C51.1001 51.8001 51.5001 51.8001 51.8001 51.8001C57.8001 51.7001 63.9001 51.7001 69.9001 51.6001C72.8001 51.6001 75.7001 51.5001 78.6001 51.5001C78.8001 51.5001 79.1001 51.5001 79.4001 51.7001C82.9001 53.8001 86.4001 55.8001 89.8001 57.9001L91.2001 58.7001C91.2001 58.7001 91.3001 58.7001 91.3001 58.8001L91.4001 58.9001L39.5001 58.8001ZM91.8001 57.6001L91.5001 57.4001C91.4001 57.4001 91.4001 57.3001 91.3001 57.3001L89.7001 56.3001C86.5001 54.4001 83.3001 52.5001 80.2001 50.6001C80.1001 50.6001 80.1001 50.5001 80.0001 50.4001C79.9001 50.3001 79.8001 50.1001 79.7001 50.0001C75.2001 42.3001 70.8001 34.5001 66.3001 26.8001C66.2001 26.6001 66.1001 26.5001 66.1001 26.3001C66.1001 22.3001 66.1001 18.4001 66.1001 14.4001C66.1001 14.4001 66.1001 14.4001 66.1001 14.3001V14.2001L92.0001 57.5001L91.8001 57.6001Z" fill="#404041"/>
</svg>
