<svg width="131" height="72" viewBox="0 0 131 72" fill="none" xmlns="http://www.w3.org/2000/svg">
<path fill-rule="evenodd" clip-rule="evenodd" d="M96.3999 24.1C93.6999 20.5 90.9999 16.9 88.2999 13.3C87.9999 12.9 87.5999 12.5 87.1999 12.3C83.6999 10.5 80.0999 8.7 76.4999 6.9C76.0999 6.7 75.4999 6.5 74.9999 6.5C72.5999 6.5 70.2999 6.5 67.8999 6.5H63.1999C60.7999 6.5 58.3999 6.5 55.9999 6.5C55.4999 6.5 54.9999 6.6 54.6999 6.8C50.9999 8.6 47.2999 10.5 43.6999 12.4C43.3999 12.6 43.0999 12.8 42.7999 13.1C40.0999 16.7 37.3999 20.3 34.6999 24C33.6999 25.3 33.7999 25.6 34.7999 26.9C38.0999 31 41.3999 35.2 44.6999 39.3L48.5999 44.2L52.2999 48.8C56.2999 53.8 60.1999 58.7 64.1999 63.7C65.0999 64.8 65.9999 64.8 66.8999 63.7C70.5999 59 74.3999 54.4 78.0999 49.7L83.6999 42.7L89.8999 35C92.0999 32.2 94.2999 29.5 96.4999 26.8C97.1999 25.6 97.1999 25.2 96.3999 24.1ZM47.5999 13.7C47.6999 13.6 47.7999 13.5 47.9999 13.5C50.4999 12.2 52.9999 11 55.4999 9.7C55.7999 9.5 56.1999 9.5 56.4999 9.5C62.4999 9.5 68.5999 9.5 74.5999 9.5C74.8999 9.5 75.1999 9.5 75.3999 9.6C77.6999 10.8 79.9999 11.9 82.2999 13.1L83.3999 13.7C83.4999 13.7 83.4999 13.8 83.5999 13.9C83.3999 14 83.2999 14.1 83.0999 14.2L81.8999 14.8C79.7999 15.8 77.6999 16.9 75.6999 17.9C75.3999 18 74.9999 18.1 74.6999 18.1C68.5999 18.1 62.5999 18.1 56.4999 18.1C56.1999 18.1 55.9999 18.1 55.6999 18C52.9999 16.6 50.2999 15.3 47.3999 13.8L47.5999 13.7ZM73.9999 21.1V35.5H56.9999V21.1H73.9999ZM44.4999 15.7C47.5999 17.3 50.6999 18.8 53.6999 20.4C53.8999 20.5 53.9999 20.8 53.9999 21C53.9999 25.4 53.9999 29.8 53.9999 34.2V34.3C53.9999 34.3 53.9999 34.4 53.9999 34.5L37.6999 25L44.4999 15.7ZM60.4999 54.3L41.6999 30.8L41.7999 30.7L42.4999 31.1C42.9999 31.4 43.4999 31.7 43.9999 31.9L45.8999 33C48.5999 34.5 51.2999 36.1 53.8999 37.7C54.1999 37.9 54.3999 38.1 54.4999 38.4C56.4999 43.5 58.4999 48.7 60.3999 53.8C60.3999 53.9 60.3999 53.9 60.3999 54C60.3999 54.1 60.4999 54.2 60.4999 54.3ZM65.5999 58.8H65.3999L57.5999 38.5H73.3999L65.5999 58.8ZM70.4999 54.3C70.3999 54.2 70.3999 54.1 70.4999 54.1C70.4999 54 70.5999 53.9 70.5999 53.7C71.7999 50.7 72.8999 47.6 74.0999 44.6C74.8999 42.6 75.6999 40.5 76.4999 38.4C76.5999 38.1 76.7999 37.8 76.9999 37.7C80.9999 35.4 84.9999 33.1 88.9999 30.8C89.0999 30.8 89.1999 30.7 89.2999 30.8L70.4999 54.3ZM76.9999 34.4V33.6C76.9999 29.5 76.9999 25.3 76.9999 21.2C76.9999 20.7 77.0999 20.4 77.5999 20.2C80.3999 18.8 83.1999 17.4 85.9999 16C86.0999 15.9 86.1999 15.9 86.3999 15.8L86.5999 15.7L93.4999 25L76.9999 34.4Z" fill="#404041"/>
</svg>
