<svg width="131" height="72" viewBox="0 0 131 72" fill="none" xmlns="http://www.w3.org/2000/svg">
<path fill-rule="evenodd" clip-rule="evenodd" d="M96.8005 28.5992C96.6005 28.3992 96.4005 28.2992 96.2005 28.0992C86.3005 20.9992 76.4005 13.9992 66.5005 6.89922C65.7005 6.29922 65.4005 6.29922 64.6005 6.89922L34.8005 28.1992C34.0005 28.7992 33.9005 28.9992 34.2005 29.9992L45.6005 64.3992C45.9005 65.2992 46.1005 65.4992 47.1005 65.4992H83.9005C84.9005 65.4992 85.1005 65.2992 85.4005 64.3992L87.0005 59.5992C90.2005 49.7992 93.5005 40.0992 96.7005 30.2992C96.8005 30.0992 96.9005 29.8992 97.0005 29.6992V28.8992C96.9005 28.7992 96.8005 28.6992 96.8005 28.5992ZM90.2005 26.4992V26.5992C88.4005 26.0992 86.6005 25.5992 84.8005 25.0992L83.7005 24.7992C81.7005 24.2992 79.8005 23.6992 77.9005 23.1992C77.7005 23.0992 77.4005 22.9992 77.2005 22.6992C75.1005 19.6992 73.1005 16.6992 71.0005 13.6992L70.2005 12.4992C70.1005 12.3992 70.1005 12.2992 70.1005 12.0992L90.2005 26.4992ZM77.3005 39.4992C77.1005 39.1992 76.7005 38.9992 76.3005 38.8992C75.8005 38.8992 75.5005 39.1992 75.3005 39.6992L74.3005 42.7992L74.0005 43.7992L73.0005 46.6992L72.5005 48.4992H58.5005C57.7005 46.1992 57.0005 43.8992 56.2005 41.5992L55.9005 40.4992C55.4005 38.9992 54.9005 37.4992 54.4005 35.8992C54.3005 35.4992 54.3005 35.2992 54.6005 35.0992C58.1005 32.5992 61.6005 30.0992 65.1005 27.5992C65.4005 27.3992 65.6005 27.3992 65.9005 27.5992C68.3005 29.3992 70.8005 31.0992 73.2005 32.7992C74.4005 33.6992 75.7005 34.5992 77.0005 35.4992C77.1005 35.5992 77.3005 35.6992 77.3005 35.7992C78.0005 36.9992 78.7005 38.2992 79.4005 39.4992L81.8005 43.6992L75.2005 47.1992C75.2005 47.0992 75.2005 46.9992 75.2005 46.9992C75.2005 46.8992 75.3005 46.7992 75.3005 46.6992C76.0005 44.5992 76.7005 42.5992 77.3005 40.4992C77.4005 40.1992 77.5005 39.7992 77.3005 39.4992ZM70.7005 50.5992L65.5005 55.8992L60.3005 50.5992H70.7005ZM55.9005 47.2992L49.2005 43.6992L52.7005 37.4992L55.9005 47.2992ZM68.1005 26.5992L75.8005 25.1992L76.7005 32.6992L68.1005 26.5992ZM65.5005 9.39922L75.0005 23.2992C74.2005 23.4992 73.4005 23.5992 72.7005 23.6992C70.9005 23.9992 69.2005 24.3992 67.4005 24.5992C65.9005 24.7992 64.6005 25.2992 63.4005 26.1992C61.4005 27.6992 59.4005 29.0992 57.3005 30.5992C56.5005 31.1992 55.7005 31.6992 54.9005 32.2992C54.7005 32.3992 54.6005 32.4992 54.3005 32.6992L55.2005 25.1992L55.9005 25.2992C56.7005 25.3992 57.5005 25.5992 58.3005 25.6992C58.4005 25.6992 58.5005 25.6992 58.6005 25.7992C58.7005 25.7992 58.9005 25.8992 59.0005 25.8992C59.6005 25.9992 60.2005 25.6992 60.3005 25.0992C60.4005 24.4992 60.1005 23.9992 59.5005 23.7992C58.4005 23.5992 57.3005 23.3992 56.0005 23.0992L65.5005 9.39922ZM60.9005 12.1992L61.0005 12.2992C61.0005 12.3992 60.9005 12.3992 60.9005 12.4992C60.8005 12.5992 60.8005 12.6992 60.7005 12.7992C58.4005 16.0992 56.2005 19.3992 53.9005 22.6992C53.7005 22.8992 53.5005 23.0992 53.3005 23.1992C49.7005 24.1992 46.1005 25.1992 42.5005 26.1992L41.0005 26.5992H40.9005H40.7005L60.9005 12.1992ZM46.1005 55.8992L45.9005 58.4992H45.8005L37.9005 34.4992L38.0005 34.3992C38.1005 34.4992 38.2005 34.5992 38.2005 34.5992C38.3005 34.6992 38.3005 34.6992 38.4005 34.7992C40.1005 36.6992 41.7005 38.6992 43.4005 40.5992C44.4005 41.7992 45.4005 42.8992 46.4005 44.0992C46.6005 44.2992 46.7005 44.6992 46.7005 44.9992C46.5005 48.6992 46.3005 52.2992 46.1005 55.8992ZM36.9005 29.8992L53.0005 25.3992C52.9005 26.4992 52.8005 27.4992 52.7005 28.4992C52.6005 29.6992 52.4005 30.8992 52.3005 32.0992C52.2005 32.7992 52.1005 33.4992 52.0005 34.1992C52.0005 34.3992 51.9005 34.6992 51.8005 34.8992C50.4005 37.3992 49.0005 39.7992 47.6005 42.3992L36.9005 29.8992ZM48.7005 45.8992L49.0005 45.9992C49.2005 46.0992 49.3005 46.0992 49.4005 46.1992L50.9005 46.9992C52.8005 47.9992 54.7005 48.9992 56.6005 49.9992C56.9005 50.1992 57.2005 50.3992 57.4005 50.5992C58.9005 52.1992 60.5005 53.6992 62.0005 55.2992L63.1005 56.3992C63.2005 56.4992 63.3005 56.5992 63.4005 56.6992L63.6005 56.8992L47.8005 62.7992L48.7005 45.8992ZM81.7005 62.3992C81.0005 62.0992 80.3005 61.8992 79.6005 61.5992L71.1005 58.3992C71.0005 58.2992 70.8005 58.2992 70.7005 58.2992C70.1005 58.0992 69.5005 58.3992 69.3005 58.8992C69.1005 59.3992 69.3005 59.9992 70.0005 60.1992C70.5005 60.3992 71.0005 60.5992 71.5005 60.7992L73.3005 61.4992C74.8005 61.9992 76.3005 62.5992 77.8005 63.1992C77.9005 63.1992 78.0005 63.2992 78.1005 63.2992C78.2005 63.2992 78.3005 63.3992 78.4005 63.3992H52.7005C53.0005 63.2992 53.1005 63.1992 53.3005 63.0992C55.0005 62.4992 56.7005 61.7992 58.4005 61.1992C60.7005 60.2992 63.0005 59.4992 65.4005 58.5992C65.9005 58.3992 66.3005 58.0992 66.7005 57.7992C69.0005 55.4992 71.3005 53.0992 73.7005 50.6992C73.8005 50.5992 73.8005 50.5992 73.9005 50.4992C74.0005 50.3992 74.1005 50.2992 74.2005 50.2992C76.7005 48.9992 79.1005 47.6992 81.6005 46.3992L82.0005 46.1992C82.1005 46.1992 82.2005 46.0992 82.4005 46.0992L83.3005 62.9992L81.7005 62.3992ZM85.2005 58.4992C85.0005 57.0992 84.9005 55.5992 84.9005 54.0992C84.7005 51.1992 84.6005 48.2992 84.4005 45.3992C84.4005 44.7992 84.5005 44.3992 84.9005 43.8992C86.9005 41.5992 88.9005 39.1992 90.9005 36.8992L92.7005 34.7992C92.8005 34.6992 92.8005 34.5992 92.9005 34.4992L93.0005 34.3992L93.1005 34.4992L85.2005 58.4992ZM83.4005 42.3992L81.2005 38.3992C81.1005 38.1992 81.0005 38.0992 81.0005 37.8992C80.8005 37.5992 80.7005 37.1992 80.4005 36.8992C79.3005 35.3992 78.9005 33.6992 78.8005 31.8992C78.7005 30.5992 78.5005 29.2992 78.4005 27.9992C78.3005 27.3992 78.2005 26.7992 78.2005 26.1992C78.2005 26.0992 78.2005 25.9992 78.2005 25.7992C78.2005 25.5992 78.2005 25.4992 78.2005 25.2992L94.3005 29.6992L83.4005 42.3992Z" fill="#404041"/>
</svg>
