<svg width="131" height="72" viewBox="0 0 131 72" fill="none" xmlns="http://www.w3.org/2000/svg">
<path fill-rule="evenodd" clip-rule="evenodd" d="M91 21.0992L66 6.79922L65 6.19922L64 6.69922L40 20.0992L39 20.6992V49.8992L40 50.4992L64 64.2992L65 64.7992L66 64.2992L89.9 51.7992L90.9 51.2992V50.0992L92 22.8992V21.6992L91 21.0992ZM87 48.7992L65.1 60.1992L43 47.5992V22.9992L65 10.7992L88 23.9992L87 48.7992Z" fill="#404041"/>
<path fill-rule="evenodd" clip-rule="evenodd" d="M75.5 28.7992L66.1 22.8992L65 22.1992L64 22.7992L54.9 28.6992L54 29.3992V41.5992L54.9 42.1992L65.4 48.8992L66.5 49.5992L67.6 48.8992L75.6 43.4992L76.5 42.8992V29.2992L75.5 28.7992ZM72.5 40.7992L66.5 44.7992L58 39.3992V31.4992L65.1 26.8992L72.5 31.4992V40.7992Z" fill="#404041"/>
</svg>
