<svg width="131" height="72" viewBox="0 0 131 72" fill="none" xmlns="http://www.w3.org/2000/svg">
<path fill-rule="evenodd" clip-rule="evenodd" d="M99.2 5C85.3 5 71.4 5 57.5 5C57.3 5 57 5 56.7 5.1C56.2 5.2 55.9 5.6 55.9 6.1C55.9 6.6 56.2 7 56.7 7.1C56.9 7.1 57 7.1 57.2 7.2C57.4 7.3 57.5 7.2 57.7 7.2H93.3C93.2 7.4 93.1 7.4 93 7.4L89.2 8.5C81.5 10.8 73.7 13.1 66 15.3C65.7 15.4 65.3 15.3 65 15.3C56.2 12.7 47.5 10.2 38.7 7.6C38.5 7.5 38.3 7.5 38.1 7.4C38 7.4 37.9 7.3 37.8 7.3V7.2H51.4C52.5 7.2 53.1 6.8 53.1 6.1C53.1 5.4 52.5 5 51.4 5C49.7 5 48 5 46.3 5C41.5 5 36.7 5 32 5C30.8 5 30 5.3 29.5 6.3V7.5L29.7 7.8C29.8 8 29.9 8.2 30.1 8.4L49.9 42.1C54.5 50 59.1 57.8 63.7 65.7C64.8 67.5 66.4 67.5 67.5 65.7C67.7 65.3 68 64.9 68.2 64.5L68.7 63.6C79.4 45.1 90.2 26.7 101 8.2C101.2 7.8 101.4 7.4 101.5 7.1C101.6 5.8 100.7 5 99.2 5ZM65.5 18.7L72.2 30.1H58.8L65.5 18.7ZM34.2 8.4L63.9 17.1L56.7 29.5L34.1 8.5L34.2 8.4ZM62.4 59.4L34.8 12.3L34.9 12.2C35 12.3 35.1 12.4 35.2 12.5C35.3 12.6 35.4 12.7 35.4 12.7C42.1 18.9 48.8 25.1 55.4 31.3C55.7 31.5 55.9 31.9 56 32.3C57.9 40.1 59.8 47.9 61.7 55.8L62.4 58.7C62.4 58.8 62.5 59 62.5 59.1L62.4 59.4ZM68.6 59.4L68.4 59.3L68.6 58.6C68.7 58.1 68.8 57.6 69 57C69.4 55.6 69.7 54.2 70 52.7L70.7 49.8C70.7 49.8 70.7 49.7 70.7 49.6V49.5C70.8 48.8 70.6 48.3 70 48.1C69.4 47.9 68.8 48.3 68.7 49C68.3 50.4 68 51.9 67.7 53.3C67 56.1 66.4 58.9 65.5 61.7L58.4 32.2H72.8L72.4 33.8C72.1 35 71.9 36.1 71.6 37.2C71.4 37.8 71.3 38.4 71.1 39.1C70.7 40.7 70.3 42.2 70 43.8C69.9 44.2 70 44.7 70.2 45.1C70.3 45.3 70.9 45.5 71.2 45.4C71.5 45.2 71.9 44.9 72 44.5C72.3 43.4 72.6 42.2 72.9 41C73 40.6 73.1 40.1 73.2 39.7C73.8 37.2 74.4 34.6 75 32C75.1 31.8 75.2 31.5 75.4 31.3C82.2 24.9 89.1 18.5 95.9 12.2C96 12.1 96 12.1 96.1 12L96.2 12.1L68.6 59.4ZM74.3 29.5L67.1 17.2L96.8 8.4L96.9 8.5L74.3 29.5Z" fill="#404041"/>
</svg>
