<svg width="131" height="72" viewBox="0 0 131 72" fill="none" xmlns="http://www.w3.org/2000/svg">
<path fill-rule="evenodd" clip-rule="evenodd" d="M77.7996 63.3004L75.3996 63.5004L75.0996 61.1004L77.5996 60.9004L77.7996 63.3004Z" fill="#404041"/>
<path fill-rule="evenodd" clip-rule="evenodd" d="M93.5004 36.4C93.4004 34.5 93.2004 32.5 93.0004 30.6C92.9004 29.8 92.8004 29 92.7004 28.2L92.4004 25.2L91.9004 19.8L91.5004 15.8C91.4004 14.7 91.3004 13.6 91.2004 12.6L91.0004 11C87.7004 10.7 84.4004 10.3 81.2004 10L79.4004 9.8L76.8004 9.5H76.1004C74.3004 9.3 72.5004 9.1 70.7004 9C70.2004 9 69.7004 8.9 69.2004 8.8C67.9004 8.6 66.6004 8.5 65.4004 8.5C63.9004 8.5 62.3004 8.7 60.8004 8.9C60.1004 9 59.4004 9.1 58.8004 9.1L52.6004 9.7L46.5004 10.3C44.4004 10.5 42.2004 10.7 40.0004 11C39.7004 14.3 39.3004 17.5 39.0004 20.7C38.6004 24.3 38.3004 27.9 37.9004 31.4C37.9004 31.9 37.8004 32.4 37.7004 32.9C37.5004 34.1 37.4004 35.3 37.4004 36.5C37.5004 38.4 37.7004 40.4 37.9004 42.3C37.9004 42.7 38.0004 43.1 38.0004 43.6C38.0004 44 38.1004 44.4 38.1004 44.8L38.6004 50.1L38.9004 52.7L39.4004 57.2C39.6004 58.8 39.7004 60.5 39.9004 62.1L43.0004 62.4C44.1004 62.5 45.2004 62.6 46.3004 62.7C50.3004 63.1 54.4004 63.5 58.4004 63.9C59.2004 64 60.0004 64.1 60.8004 64.2C63.2004 64.5 65.7004 64.8 68.2004 64.4C68.6004 64.3 69.1004 64.3 69.5004 64.2C70.1004 64.1 70.7004 64.1 71.3004 64C71.8004 63.9 72.3004 63.9 72.8004 63.9L72.5004 61.5L65.6004 62.2L71.8004 52.9L87.7004 59.8V60L80.0004 60.7L80.3004 63.1L91.0004 62C91.3004 58.7 91.7004 55.5 92.0004 52.3C92.4004 48.7 92.7004 45.1 93.1004 41.6C93.1004 41.1 93.2004 40.6 93.3004 40C93.4004 38.8 93.5004 37.6 93.5004 36.4ZM88.0004 13.2V13.4L72.0004 20.4L65.7004 11L88.0004 13.2ZM79.8004 28L74.0004 22.2L84.3004 17.7L79.8004 28ZM81.4004 32.8L87.0004 36.5L81.5004 40.2L81.4004 32.8ZM65.5004 15L69.2004 20.5H61.8004L65.5004 15ZM43.0004 13.2L65.2004 11C65.0004 11.3 64.9004 11.5 64.8004 11.7C64.0004 12.9 63.2004 14.1 62.4004 15.4L60.4004 18.3L59.4004 19.8C59.2004 20.1 59.0004 20.4 58.5004 20.1C53.4004 17.9 48.4004 15.7 43.3004 13.5C43.2004 13.5 43.1004 13.4 43.0004 13.2ZM51.2004 44.9L57.0004 50.9L46.9004 55.3L46.8004 55.2L51.2004 44.9ZM49.5004 40.2L44.0004 36.5L49.5004 32.8V40.2ZM51.2004 28.1L46.7004 17.7L57.2004 22.2L51.2004 28.1ZM42.2004 14.1H42.4004L43.3004 16.2L43.5004 16.7L43.6004 17C44.2004 18.3 44.7004 19.6 45.3004 21L45.7004 21.9C46.8004 24.4 47.9004 26.9 49.0004 29.5C49.0004 29.6 49.0004 29.6 49.1004 29.7C49.1004 29.8 49.2004 29.9 49.2004 29.9C49.2004 30.1 49.1004 30.3 48.9004 30.4C47.7004 31.2 46.4004 32 45.2004 32.8C44.4004 33.4 43.5004 33.9 42.7004 34.5L42.1004 34.9L40.3004 36.1C40.2004 36.1 40.2004 36.2 40.0004 36.3L42.2004 14.1ZM42.2004 59L40.0004 36.8C40.1004 36.9 40.2004 36.9 40.3004 37C40.5004 37.1 40.6004 37.2 40.7004 37.2C43.4004 39 46.1004 40.8 48.8004 42.6C49.2004 42.8 49.4004 43 49.2004 43.6C47.0004 48.6 44.8004 53.7 42.6004 58.7C42.5004 58.8 42.4004 58.9 42.2004 59ZM43.1004 59.8V59.6L59.1004 52.7L65.3004 62L43.1004 59.8ZM65.5004 58L61.8004 52.5H69.2004L65.5004 58ZM71.5004 49.5C71.2004 49.7 70.8004 49.9 70.4004 49.9C69.6004 49.9 68.8004 49.9 68.0004 49.9H63.3004C62.8004 49.9 62.2004 49.9 61.7004 49.9H61.2004H60.5004C60.1004 49.9 59.7004 49.7 59.4004 49.4C57.1004 47.1 54.8004 44.8 52.5004 42.5C52.2004 42.2 52.1004 41.8 52.0004 41.4C52.0004 40.2 52.0004 39 52.0004 37.8V35.2C52.0004 34 52.0004 32.8 52.0004 31.6C52.0004 31.2 52.2004 30.8 52.4004 30.6C54.7004 28.3 57.0004 25.9 59.4004 23.6C59.6004 23.4 60.0004 23.2 60.4004 23.2C63.7004 23.2 67.1004 23.2 70.4004 23.2C70.8004 23.2 71.2004 23.4 71.4004 23.7C73.7004 26 76.0004 28.3 78.3004 30.6C78.5004 30.8 78.7004 31.3 78.8004 31.6C78.8004 34.9 78.8004 38.2 78.8004 41.5C78.8004 41.8 78.6004 42.3 78.4004 42.5C76.1004 44.8 73.8004 47.2 71.5004 49.5ZM73.9004 50.9L79.8004 45L84.3004 55.4L73.9004 50.9ZM88.8004 59.1H88.6004L81.6004 43L91.0004 36.7L88.8004 59.1ZM81.6004 30L88.6004 14H88.8004L91.0004 36.3L81.6004 30Z" fill="#404041"/>
<path d="M61.8004 26.8008H59.4004V29.2008H61.8004V26.8008Z" fill="#404041"/>
<path d="M66.7008 26.8008H64.3008V29.1008H66.7008V26.8008Z" fill="#404041"/>
</svg>
