<svg width="131" height="72" viewBox="0 0 131 72" fill="none" xmlns="http://www.w3.org/2000/svg">
<path d="M93.5994 16.0992C93.5994 14.6992 92.6994 13.5992 91.4994 13.1992C91.7994 10.8992 91.9994 8.49922 92.0994 6.19922C92.1994 5.19922 90.6994 5.19922 90.5994 6.19922C90.3994 8.49922 90.2994 10.7992 89.9994 13.0992C88.4994 13.2992 87.3994 14.5992 87.3994 16.0992C87.3994 17.3992 88.0994 18.3992 89.1994 18.8992C88.8994 21.0992 88.4994 23.1992 88.0994 25.3992C86.4994 25.4992 85.2994 26.7992 85.2994 28.3992C85.2994 29.4992 85.9994 30.4992 86.8994 30.9992C86.7994 31.7992 86.5994 32.4992 86.3994 33.2992C86.1994 34.0992 85.9994 34.8992 85.7994 35.6992H85.6994C83.9994 35.6992 82.5994 36.9992 82.5994 38.6992C82.5994 39.7992 83.2994 40.7992 84.1994 41.2992C83.3994 43.7992 82.3994 46.2992 81.2994 48.7992C80.9994 48.6992 80.6994 48.5992 80.3994 48.5992C78.6994 48.5992 77.2994 49.8992 77.2994 51.5992C77.2994 52.4992 77.6994 53.2992 78.3994 53.8992C76.1994 57.2992 73.3994 60.0992 69.9994 61.5992C69.3994 60.7992 68.4994 60.2992 67.4994 60.2992C65.9994 60.2992 64.6994 61.4992 64.4994 62.8992C61.5994 62.6992 59.0994 61.6992 56.8994 60.1992C57.1994 59.7992 57.2994 59.2992 57.2994 58.7992C57.2994 57.1992 55.8994 55.7992 54.1994 55.7992C53.6994 55.7992 53.1994 55.8992 52.6994 56.1992C49.8994 52.6992 47.7994 48.2992 46.1994 43.8992C47.0994 43.3992 47.5994 42.3992 47.5994 41.3992C47.5994 39.7992 46.1994 38.3992 44.4994 38.3992C44.3994 38.3992 44.3994 38.3992 44.3994 38.3992C43.8994 36.5992 43.3994 34.8992 42.9994 33.2992C42.4994 31.2992 41.9994 29.2992 41.5994 27.1992C42.5994 26.6992 43.3994 25.5992 43.3994 24.3992C43.3994 22.7992 42.0994 21.4992 40.4994 21.3992C39.6994 16.3992 39.0994 11.2992 38.7994 6.29922C38.7994 5.29922 37.1994 5.29922 37.2994 6.29922C37.5994 11.3992 38.1994 16.5992 39.0994 21.6992C37.9994 22.1992 37.2994 23.1992 37.2994 24.3992C37.2994 25.9992 38.4994 27.2992 40.0994 27.3992C40.6994 30.2992 41.2994 33.0992 42.0994 35.8992C42.2994 36.7992 42.5994 37.7992 42.8994 38.7992C41.8994 39.2992 41.2994 40.2992 41.2994 41.3992C41.2994 42.9992 42.6994 44.3992 44.3994 44.3992H44.6994C46.2994 48.8992 48.4994 53.4992 51.4994 57.1992C51.1994 57.6992 50.9994 58.2992 50.9994 58.8992C50.9994 60.4992 52.3994 61.8992 54.0994 61.8992C54.7994 61.8992 55.3994 61.6992 55.8994 61.3992C58.2994 63.0992 61.0994 64.2992 64.2994 64.4992C64.2994 64.4992 64.3994 64.4992 64.4994 64.4992H64.5994C64.9994 65.6992 66.1994 66.4992 67.4994 66.4992C69.1994 66.4992 70.5994 65.1992 70.5994 63.4992V63.0992C74.3994 61.3992 77.3994 58.2992 79.7994 54.5992C79.9994 54.6992 80.2994 54.6992 80.4994 54.6992C82.1994 54.6992 83.5994 53.3992 83.5994 51.6992C83.5994 50.7992 83.2994 50.0992 82.6994 49.4992C83.8994 46.8992 84.8994 44.2992 85.6994 41.6992H85.7994C87.4994 41.6992 88.8994 40.3992 88.8994 38.6992C88.8994 37.5992 88.2994 36.5992 87.3994 36.0992C87.3994 35.9992 87.3994 35.9992 87.3994 35.8992C87.7994 34.3992 88.0994 32.8992 88.4994 31.3992C90.1994 31.3992 91.5994 30.0992 91.5994 28.3992C91.5994 27.0992 90.8994 26.0992 89.7994 25.5992C90.1994 23.3992 90.5994 21.2992 90.8994 19.0992C92.4994 18.9992 93.6994 17.6992 93.5994 16.0992ZM91.4994 14.7992C91.8994 15.0992 92.1994 15.4992 92.1994 16.0992C92.1994 16.7992 91.7994 17.3992 91.1994 17.5992C91.2994 16.6992 91.3994 15.6992 91.4994 14.7992ZM38.7994 24.3992C38.7994 23.8992 38.9994 23.4992 39.2994 23.1992C39.4994 24.0992 39.5994 24.8992 39.7994 25.7992C39.1994 25.5992 38.7994 25.0992 38.7994 24.3992ZM41.1994 25.5992C40.9994 24.6992 40.8994 23.7992 40.6994 22.8992C41.3994 23.0992 41.8994 23.6992 41.8994 24.3992C41.8994 24.8992 41.6994 25.2992 41.1994 25.5992ZM42.8994 41.3992C42.8994 40.9992 43.0994 40.5992 43.3994 40.1992C43.6994 41.0992 43.9994 41.9992 44.2994 42.8992C43.4994 42.7992 42.8994 42.1992 42.8994 41.3992ZM45.5994 42.3992C45.2994 41.5992 45.0994 40.6992 44.7994 39.8992C45.4994 40.0992 45.9994 40.6992 45.9994 41.3992C45.9994 41.7992 45.7994 42.0992 45.5994 42.3992ZM54.1994 60.3992C53.2994 60.3992 52.5994 59.7992 52.5994 58.8992C52.5994 58.7992 52.6994 58.5992 52.6994 58.4992C53.2994 59.0992 53.9994 59.7992 54.5994 60.2992C54.4994 60.3992 54.3994 60.3992 54.1994 60.3992ZM55.6994 59.2992C54.9994 58.6992 54.2994 58.0992 53.6994 57.3992C53.7994 57.2992 53.9994 57.2992 54.1994 57.2992C55.0994 57.2992 55.7994 57.9992 55.7994 58.7992C55.7994 58.9992 55.7994 59.0992 55.6994 59.2992ZM67.5994 61.8992C67.9994 61.8992 68.2994 62.0992 68.5994 62.2992C67.7994 62.5992 66.9994 62.7992 66.0994 62.8992C66.3994 62.2992 66.8994 61.8992 67.5994 61.8992ZM67.5994 64.9992C66.9994 64.9992 66.5994 64.6992 66.2994 64.2992C67.2994 64.0992 68.1994 63.8992 69.0994 63.5992C68.9994 64.3992 68.3994 64.9992 67.5994 64.9992ZM79.2994 52.6992C79.0994 52.4992 78.8994 52.0992 78.8994 51.6992C78.8994 50.7992 79.5994 50.0992 80.4994 50.0992C80.4994 50.0992 80.5994 50.0992 80.6994 50.0992C80.2994 50.9992 79.7994 51.8992 79.2994 52.6992ZM80.6994 53.1992C81.0994 52.4992 81.4994 51.7992 81.8994 50.9992C81.9994 51.1992 82.0994 51.4992 82.0994 51.6992C82.0994 52.4992 81.3994 53.0992 80.6994 53.1992ZM84.6994 39.7992C84.3994 39.5992 84.1994 39.1992 84.1994 38.6992C84.1994 37.8992 84.7994 37.2992 85.4994 37.0992C85.1994 37.9992 84.9994 38.8992 84.6994 39.7992ZM86.1994 40.1992C86.4994 39.2992 86.7994 38.3992 86.9994 37.5992C87.1994 37.8992 87.3994 38.2992 87.3994 38.6992C87.3994 39.3992 86.8994 39.9992 86.1994 40.1992ZM87.3994 29.4992C87.1994 29.1992 86.9994 28.7992 86.9994 28.3992C86.9994 27.6992 87.3994 27.1992 87.8994 26.9992C87.7994 27.7992 87.5994 28.6992 87.3994 29.4992ZM90.0994 28.3992C90.0994 29.0992 89.5994 29.6992 88.8994 29.9992C89.0994 28.9992 89.2994 28.0992 89.4994 27.1992C89.7994 27.3992 90.0994 27.8992 90.0994 28.3992ZM89.5994 17.2992C89.2994 16.9992 89.0994 16.5992 89.0994 16.0992C89.0994 15.4992 89.3994 14.9992 89.8994 14.7992C89.7994 15.5992 89.6994 16.4992 89.5994 17.2992Z" fill="#404041"/>
</svg>
