<svg width="131" height="72" viewBox="0 0 131 72" fill="none" xmlns="http://www.w3.org/2000/svg">
<path fill-rule="evenodd" clip-rule="evenodd" d="M101.699 35.9008C90.699 27.3008 79.699 18.7008 68.699 10.1008C66.699 8.60077 64.799 7.00077 62.799 5.50077C61.999 4.90077 61.299 5.00077 60.699 5.60077C58.999 7.50077 57.299 9.40077 55.499 11.3008C50.699 16.5008 45.899 21.8008 41.199 27.1008C40.199 28.3008 39.399 29.6008 38.599 31.0008C38.299 31.5008 37.999 32.0008 37.699 32.5008C36.399 34.5008 35.199 36.6008 33.899 38.7008C32.199 41.4008 30.599 44.1008 28.899 46.8008C28.399 47.6008 28.499 48.3008 28.999 49.0008L30.099 50.6008C32.499 53.9008 34.799 57.1008 37.099 60.5008C37.999 61.8008 39.099 62.3008 40.499 62.4008C42.999 62.6008 45.499 62.9008 47.999 63.2008C49.299 63.3008 50.699 63.5008 51.999 63.7008C55.099 64.0008 58.299 64.3008 61.399 64.7008C62.999 64.9008 64.699 65.1008 66.399 65.3008C67.799 65.5008 69.299 65.6008 70.699 65.8008C71.799 65.9008 72.899 66.0008 73.999 66.2008C75.399 66.3008 76.799 66.5008 78.299 66.7008C78.999 66.8008 79.799 66.9008 80.499 66.9008C81.599 67.0008 82.699 67.1008 83.999 67.3008C84.499 67.4008 84.999 67.0008 85.399 66.2008C90.099 58.2008 94.899 50.3008 99.599 42.3008L101.999 38.2008C102.699 36.9008 102.599 36.6008 101.699 35.9008ZM31.999 46.2008C32.099 46.0008 32.199 45.8008 32.299 45.7008C33.799 43.2008 35.399 40.6008 36.899 38.1008C37.999 36.3008 39.099 34.6008 40.099 32.8008C40.299 32.4008 40.499 32.1008 40.799 31.7008C41.599 30.4008 42.399 29.1008 43.299 28.0008C46.199 24.7008 49.199 21.5008 52.099 18.3008C53.199 17.1008 54.299 15.9008 55.399 14.8008C56.499 13.6008 57.699 12.3008 58.899 11.0008L60.799 8.90077L65.099 47.5008C64.699 47.5008 64.399 47.5008 64.099 47.5008C62.999 47.5008 61.999 47.4008 60.899 47.4008C58.699 47.3008 56.499 47.2008 54.299 47.2008C51.099 47.1008 47.999 47.0008 44.799 47.0008C41.899 46.9008 39.099 46.9008 36.199 46.8008C34.699 46.8008 33.299 46.6008 31.799 46.6008L31.999 46.2008ZM79.999 64.1008C79.599 64.1008 79.199 64.1008 78.899 64.0008C76.299 63.7008 73.699 63.4008 71.099 63.1008C69.799 63.0008 68.499 62.8008 67.199 62.7008C65.999 62.6008 64.699 62.5008 63.499 62.3008C61.999 62.1008 60.399 62.0008 58.899 61.8008C57.799 61.7008 56.599 61.5008 55.499 61.4008C54.599 61.3008 53.599 61.2008 52.699 61.1008C51.799 61.0008 50.799 60.9008 49.899 60.8008C48.999 60.7008 48.199 60.6008 47.299 60.5008C45.499 60.3008 43.699 60.1008 41.899 59.9008C40.399 59.8008 39.199 59.5008 38.299 58.0008C36.999 56.0008 35.699 54.1008 34.299 52.2008C33.699 51.4008 33.099 50.6008 32.499 49.8008C32.299 49.6008 32.199 49.3008 31.899 48.9008C32.499 48.9008 33.099 49.0008 33.699 49.0008C34.899 49.1008 36.099 49.1008 37.299 49.2008C40.899 49.3008 44.499 49.4008 48.099 49.5008L50.299 49.6008C51.599 49.6008 52.999 49.7008 54.299 49.7008C57.899 49.8008 61.499 49.9008 65.099 50.0008C65.499 50.0008 65.999 50.2008 66.199 50.5008C68.399 52.6008 70.699 54.7008 72.899 56.9008C74.599 58.6008 76.299 60.4008 77.999 62.1008C78.699 62.8008 79.299 63.5008 79.999 64.1008C80.099 64.1008 80.099 64.1008 79.999 64.1008ZM83.899 63.8008L68.699 49.2008L98.599 39.2008L83.899 63.8008ZM67.499 47.1008L63.399 8.90077L98.799 36.6008L67.499 47.1008Z" fill="#404041"/>
</svg>
