<svg width="131" height="72" viewBox="0 0 131 72" fill="none" xmlns="http://www.w3.org/2000/svg">
<path fill-rule="evenodd" clip-rule="evenodd" d="M90.9 44.1996C90.8 44.0996 90.8 43.9996 90.7 43.8996C88.3 39.7996 85.8 35.6996 83.4 31.6996C82.9 30.8996 82.4 30.7996 81.7 31.3996L78.4 34.1996L75.5 36.5996C75.4 36.6996 75.3 36.7996 75.2 36.7996L75 36.8996C75.1 35.4996 75.2 34.0996 75.3 32.7996C75.5 30.4996 75.7 28.1996 75.9 25.8996C75.9 25.1996 76 24.5996 76.1 23.8996C76.2 22.2996 76.3 20.6996 76.5 18.9996C76.6 18.1996 76.4 17.6996 75.7 17.1996C73.3 15.5996 70.9 13.9996 68.4 12.3996C67.5 11.7996 66.6 11.1996 65.8 10.5996H65.2L65.1 10.6996L61.7 12.4996C59.5 13.7996 57.3 15.0996 55.1 16.3996C54.5 16.7996 54.3 16.9996 54.4 17.7996C54.4 17.8996 54.4 18.0996 54.5 18.1996C54.8 20.5996 55.1 22.9996 55.3 25.3996C55.5 27.3996 55.8 29.3996 56 31.3996L56.2 32.6996C56.5 35.0996 56.8 37.4996 57 39.8996L57.1 40.6996C57.2 41.3996 57.3 42.0996 57.3 42.7996C57.2 42.6996 57.1 42.4996 57 42.3996C56.8 41.9996 56.7 41.5996 56.5 41.2996C56.1 40.3996 55.7 39.4996 55.2 38.5996C55 38.2996 54.8 37.9996 54.5 37.7996C53.1 36.6996 51.7 35.6996 50.3 34.5996L49 33.6996L48 32.6996C47 31.8996 45.9 31.0996 44.9 30.3996C44.2 29.8996 43.6 30.0996 43.4 30.8996C43.4 30.8996 43.4 30.9996 43.3 31.0996V31.2996L42.5 34.2996C41.7 37.1996 40.9 40.1996 40.1 43.0996C39.9 43.6996 40 44.1996 40.4 44.6996C42.4 47.3996 44.5 50.0996 46.5 52.7996C48.2 54.9996 49.9 57.2996 51.6 59.4996C51.7 59.5996 51.7 59.6996 51.8 59.7996C51.8 59.8996 51.9 59.8996 51.9 59.9996H50.2V61.4996H87.6V59.7996H85.5C85.6 59.5996 85.6 59.3996 85.7 59.2996C87.4 54.5996 89.1 49.9996 90.9 45.2996C90.9 45.2996 90.9 45.1996 91 45.1996C91 45.0996 91.1 44.9996 91.2 44.8996V44.2996L90.9 44.1996ZM56.9 17.2996L59.1 15.9996C61.1 14.7996 63.1 13.6996 65.1 12.4996C65.4 12.2996 65.5 12.3996 65.7 12.5996L70.1 15.4996L73.9 18.0996C74 18.1996 74.1 18.2996 74.3 18.3996L73.3 19.4996C72.3 20.6996 71.3 21.7996 70.3 22.9996C70.1 23.1996 69.9 23.2996 69.6 23.2996C67.3 23.2996 65 23.2996 62.7 23.2996C62.5 23.2996 62.2 23.1996 62 22.9996C61.1 22.0996 60.2 21.1996 59.2 20.1996C58.7 19.6996 58.2 19.1996 57.7 18.6996C57.4 18.3996 57.2 18.1996 56.9 17.8996C56.8 17.7996 56.6 17.5996 56.5 17.4996C56.8 17.3996 56.9 17.3996 56.9 17.2996ZM63.3 55.6996C63.2 55.4996 63.1 55.3996 63.1 55.2996C62.8 54.6996 62.6 54.0996 62.3 53.5996C61.7 52.2996 61.1 50.9996 60.5 49.6996C59.9 48.4996 59.7 47.1996 59.5 45.8996C59.2 43.4996 59 41.0996 58.7 38.6996C58.4 36.2996 58.1 33.8996 57.8 31.3996L57 24.1996L56.9 23.5996C56.7 22.2996 56.6 20.9996 56.4 19.6996L56.6 19.8996C56.7 19.9996 56.8 20.0996 56.8 20.0996C57 20.2996 57.3 20.5996 57.6 20.8996C58.7 21.9996 59.7 22.9996 60.8 24.0996C61.2 24.3996 61.3 24.7996 61.3 25.2996C61.3 26.2996 61.4 27.2996 61.5 28.2996V28.8996C61.6 30.0996 61.7 31.2996 61.8 32.4996C61.9 33.8996 62 35.2996 62.1 36.6996C62.3 39.2996 62.4 41.8996 62.6 44.4996C62.8 47.5996 63 50.6996 63.3 53.6996C63.3 54.1996 63.4 54.5996 63.4 55.0996L63.3 55.6996ZM65.4 59.7996L63 24.9996H69.7L67.3 59.7996H65.4ZM74.5 21.9996C74.4 23.4996 74.3 24.9996 74.1 26.4996L73.8 29.9996C73.8 30.6996 73.7 31.2996 73.6 31.9996C73.4 33.6996 73.3 35.3996 73.2 37.0996C73.2 38.0996 72.8 38.6996 72 39.1996C71.4 39.5996 71.3 40.0996 71.3 40.7996C71.3 44.3996 71.3 47.9996 71.3 51.5996V59.6996H69C69 59.4996 69 59.1996 69 58.9996C69.2 56.3996 69.4 53.6996 69.6 51.0996C69.7 49.8996 69.8 48.5996 69.9 47.2996C70 45.9996 70.1 44.5996 70.2 43.2996C70.4 40.1996 70.7 37.0996 70.9 33.9996C71 32.4996 71.1 30.8996 71.2 29.3996C71.3 27.8996 71.4 26.2996 71.5 24.7996C71.5 24.5996 71.5 24.3996 71.6 24.2996C72.2 23.5996 72.7 22.8996 73.3 22.2996L74.5 20.8996H74.6C74.6 21.2996 74.5 21.5996 74.5 21.9996Z" fill="#404041"/>
</svg>
