<svg width="131" height="72" viewBox="0 0 131 72" fill="none" xmlns="http://www.w3.org/2000/svg">
<path fill-rule="evenodd" clip-rule="evenodd" d="M65.7008 63.8009C66.1008 63.8009 66.5008 63.9009 66.9008 64.0009H67.5008H68.1008H69.5008H70.0008H70.7008C71.0008 63.9009 71.3008 63.9009 71.7008 63.9009C71.9008 63.9009 72.0008 63.9009 72.2008 63.9009C72.3008 63.9009 72.4008 63.9009 72.5008 63.9009C74.7008 63.6009 76.7008 62.9009 78.7008 62.1009C81.8008 60.8009 84.4008 58.8009 86.6008 56.3009C89.9008 52.4009 91.5008 47.9009 92.3008 42.9009C92.4008 42.3009 92.4008 41.8009 92.5008 41.2009C92.5008 40.7009 92.6008 40.2009 92.6008 39.8009V39.3009V39.0009V38.6009V36.9009V36.4009C92.4008 35.6009 92.3008 34.8009 92.1008 34.0009C90.7008 28.0009 87.8008 22.7009 83.8008 17.9009C80.6008 14.0009 76.7008 11.1009 71.8008 9.70087C66.3008 8.10087 60.8008 7.60087 55.2008 9.00087C52.3008 9.70087 49.7008 10.9009 47.4008 12.8009C43.5008 16.2009 40.8008 20.3009 39.4008 25.3009C38.4008 28.5009 38.1008 31.8009 38.6008 35.2009C39.0008 38.3009 40.0008 41.2009 41.0008 44.1009C41.7008 46.2009 42.8008 48.2009 44.2008 50.0009C46.0008 52.2009 47.8008 54.3009 49.9008 56.2009C54.2008 60.3009 59.2008 63.0009 65.1008 63.9009C65.3008 63.7009 65.5008 63.7009 65.7008 63.8009Z" fill="#404041"/>
</svg>
