<svg width="131" height="72" viewBox="0 0 131 72" fill="none" xmlns="http://www.w3.org/2000/svg">
<path fill-rule="evenodd" clip-rule="evenodd" d="M90.4996 20.7C90.4996 20.6 90.4996 20.4 90.3996 20.3C90.3996 20.2 90.2996 20.2 90.2996 20.1C89.5996 19.4 88.9996 18.8 88.2996 18.1C85.9996 15.8 83.6996 13.5 81.3996 11.2C81.2996 11.1 80.9996 11 80.8996 11C75.7996 11 70.6996 11 65.5996 11H63.1996C58.8996 11 54.5996 11 50.2996 11C50.0996 11 49.8996 11.1 49.6996 11.2C46.6996 14.2 43.7996 17.1 40.7996 20.1L40.6996 20.2C40.5996 20.3 40.5996 20.5 40.5996 20.6C40.5996 27 40.5996 33.3 40.5996 39.7C40.5996 43.5 40.5996 47.4 40.5996 51.2C40.5996 51.4 40.6996 51.6 40.7996 51.8C41.7996 52.8 42.7996 53.8 43.7996 54.8C45.7996 56.8 47.6996 58.7 49.6996 60.7C49.7996 60.8 50.0996 60.9 50.2996 60.9C52.2996 60.9 54.2996 60.9 56.1996 60.9H62.8996C68.6996 60.9 74.4996 60.9 80.3996 60.9C81.0996 60.9 81.4996 60.7 81.8996 60.2C84.6996 57.4 87.4996 54.6 90.2996 51.8C90.5996 51.5 90.5996 51.1 90.5996 50.8V33.6C90.4996 29.3 90.4996 25 90.4996 20.7ZM80.9996 12.3L89.1996 20.5L88.2996 20.8C87.2996 21.2 86.2996 21.6 85.2996 22H85.1996C85.0996 22 84.8996 22 84.7996 21.9C83.5996 20.8 82.4996 19.6 81.2996 18.5C80.6996 17.9 80.0996 17.3 79.4996 16.6C79.3996 16.5 79.2996 16.3 79.3996 16.2C79.7996 15.1 80.1996 14.1 80.6996 13.1L80.9996 12.3ZM83.3996 24.1C83.3996 24 83.3996 24 83.3996 23.9V23.8C83.3996 23.7 83.4996 23.7 83.4996 23.7C83.7996 23.6 84.1996 23.4 84.4996 23.3V48.7C83.3996 48.5 83.2996 48.4 83.2996 47.3V24.4C83.3996 24.3 83.3996 24.2 83.3996 24.1ZM47.5996 24.6L46.7996 23.4C47.7996 23.8 47.5996 23.5 47.5996 24.6ZM47.0996 22.6C46.9996 22.6 46.9996 22.5 46.8996 22.5L52.0996 17.3C52.0996 17.4 52.1996 17.4 52.1996 17.5C52.2996 17.7 52.3996 17.9 52.3996 18.1C52.3996 18.3 52.3996 18.5 52.2996 18.6C50.9996 20 49.5996 21.3 48.1996 22.7C48.0996 22.8 47.8996 22.9 47.6996 22.8C47.4996 22.8 47.2996 22.7 47.0996 22.6ZM58.3996 32C58.3996 30.8 58.5996 30 59.4996 29.3C59.7996 29.1 59.9996 28.9 60.3996 28.9C63.3996 28.9 66.3996 29 69.3996 28.9C70.5996 28.9 71.5996 29.1 72.1996 30.1C72.2996 30.3 72.4996 30.6 72.4996 30.8C72.4996 32.1 72.4996 33.4 72.4996 34.7V36C72.4996 36.4 72.4996 36.8 72.4996 37.2C72.4996 38.1 72.4996 39.1 72.4996 40C72.5996 41.1 72.2996 42 71.3996 42.7C71.0996 42.9 70.8996 43 70.4996 43C69.8996 43 69.2996 43 68.6996 43C66.2996 43 63.8996 43 61.4996 43C60.3996 43 59.4996 42.8 58.7996 41.9C58.7996 41.9 58.6996 41.8 58.6996 41.7C58.5996 41.5 58.4996 41.3 58.4996 41C58.4996 39.6 58.4996 38.3 58.4996 36.9C58.4996 35.3 58.4996 33.7 58.3996 32ZM71.5996 28.2L72.5996 26.8C73.6996 25.3 74.7996 23.7 75.8996 22.2C76.0996 21.9 76.4996 21.9 76.6996 22.1C77.2996 22.7 77.9996 23.3 78.5996 24L79.2996 24.7L72.9996 29.6L71.5996 28.2ZM70.7996 27.9C70.6996 28 70.3996 28.1 70.1996 28.1H66.3996C64.3996 28.1 62.3996 28.1 60.3996 28.1C60.0996 28.1 59.8996 28 59.6996 27.8C58.6996 26.6 57.7996 25.3 56.7996 24.1C56.3996 23.6 56.0996 23.2 55.6996 22.7L55.1996 22H74.9996C73.5996 24 72.1996 26 70.7996 27.9ZM59.0996 28.5L57.9996 29.7L51.6996 24.8L54.1996 22.3L59.0996 28.5ZM52.5996 26.4C54.2996 27.7 55.8996 29 57.4996 30.3C57.5996 30.4 57.6996 30.6 57.6996 30.8C57.6996 34.3 57.6996 37.7 57.6996 41.2C57.6996 41.4 57.6996 41.5 57.5996 41.6C57.5996 41.7 57.4996 41.8 57.3996 41.8C55.8996 43 54.2996 44.2 52.7996 45.4C52.5996 45.6 52.2996 45.8 51.9996 46L51.5996 46.3V25.6L52.5996 26.4ZM57.9996 42.4L59.1996 43.5L54.2996 49.8L51.7996 47.3L57.9996 42.4ZM55.8996 49C57.1996 47.3 58.4996 45.7 59.7996 44.1C59.8996 44 60.0996 43.9 60.2996 43.9C61.9996 43.9 63.5996 43.9 65.2996 43.9C67.0996 43.9 68.8996 43.9 70.7996 43.9C70.9996 43.9 71.2996 44.1 71.3996 44.2C72.2996 45.3 73.1996 46.5 74.0996 47.6L75.9996 50H55.0996L55.8996 49ZM71.8996 43.5L73.0996 42.3L79.2996 47.2L76.7996 49.7L71.8996 43.5ZM79.2996 46.2L78.2996 45.4C76.6996 44.2 75.1996 43 73.6996 41.7C73.4996 41.6 73.3996 41.3 73.3996 41.1C73.3996 37.6 73.3996 34.2 73.3996 30.7C73.3996 30.5 73.5996 30.2 73.6996 30.1C75.1996 28.9 76.7996 27.7 78.2996 26.5L79.0996 25.9C79.1996 25.8 79.2996 25.7 79.4996 25.6V46.3L79.3996 46.2C79.2996 46.3 79.2996 46.2 79.2996 46.2ZM77.2996 21.5C77.1996 21.4 77.0996 21.3 76.8996 21.2C76.7996 21.2 76.7996 21.1 76.6996 21.1L77.9996 19.3L82.0996 23.4C81.8996 23.5 81.7996 23.5 81.5996 23.6C81.1996 23.8 80.6996 24 80.2996 24.1C80.0996 24.2 79.8996 24.1 79.6996 24C78.8996 23.2 78.0996 22.3 77.2996 21.5ZM76.6996 19.7C76.3996 20.1 76.1996 20.4 75.8996 20.8C75.6996 21.1 75.3996 21.3 74.9996 21.3C68.2996 21.3 61.5996 21.3 54.9996 21.3C54.8996 21.3 54.7996 21.3 54.6996 21.3C54.5996 21.3 54.4996 21.2 54.4996 21.2C54.2996 20.7 53.9996 20.2 53.7996 19.6L53.5996 19.1H77.1996C76.9996 19.2 76.8996 19.4 76.6996 19.7ZM53.6996 21.3V21.4C53.6996 21.5 53.5996 21.6 53.5996 21.6C52.7996 22.4 51.9996 23.2 51.1996 24C51.0996 24.1 50.9996 24.2 50.8996 24.1C50.1996 23.8 49.5996 23.6 48.8996 23.3L52.8996 19.3L53.0996 19.8C53.2996 20.3 53.4996 20.8 53.6996 21.3ZM48.4996 24.1C49.0996 24.3 49.5996 24.6 50.0996 24.8C50.4996 24.9 50.6996 25.2 50.6996 25.6C50.6996 28.1 50.6996 30.7 50.6996 33.2V46.4V46.5C50.6996 46.6 50.6996 46.7 50.6996 46.8V46.9C50.6996 47 50.5996 47 50.5996 47C50.0996 47.2 49.5996 47.4 48.9996 47.7L48.4996 47.9V24.1ZM50.7996 47.8C50.8996 47.8 50.9996 47.8 51.0996 47.9C51.8996 48.7 52.6996 49.5 53.4996 50.3C53.5996 50.4 53.6996 50.6 53.5996 50.7C53.3996 51.3 53.0996 52 52.7996 52.6L48.7996 48.6C49.4996 48.4 50.1996 48.1 50.7996 47.8ZM53.7996 52.5C53.9996 52.1 54.0996 51.7 54.2996 51.3C54.3996 51 54.5996 50.9 54.9996 50.9C60.5996 50.9 66.2996 50.9 71.8996 50.9H75.9996C76.0996 50.9 76.1996 50.9 76.2996 50.9C76.2996 50.9 76.2996 50.9 76.3996 50.9C76.4996 50.9 76.5996 51 76.5996 51.1L76.6996 51.4C76.8996 51.9 77.1996 52.5 77.3996 53.1H53.5996C53.6996 52.8 53.6996 52.7 53.7996 52.5ZM77.3996 50.8C77.3996 50.7 77.3996 50.5 77.4996 50.4C78.2996 49.6 79.0996 48.8 79.8996 48L79.9996 47.9C80.0996 47.9 80.1996 47.9 80.1996 47.9C80.6996 48.1 81.1996 48.3 81.6996 48.5L82.0996 48.7L78.0996 52.7C77.9996 52.4 77.8996 52.2 77.7996 51.9C77.5996 51.5 77.4996 51.1 77.3996 50.8ZM81.6996 47.5C81.3996 47.4 81.0996 47.3 80.7996 47.2C80.3996 47.1 80.2996 46.8 80.2996 46.4C80.2996 42 80.2996 37.5 80.2996 33.1V29.7C80.2996 28.2 80.2996 26.8 80.2996 25.3C80.2996 25.1 80.3996 24.9 80.4996 24.8C81.0996 24.5 81.7996 24.2 82.4996 23.9V47.7C82.1996 47.8 81.9996 47.7 81.6996 47.5ZM78.6996 18.7C78.5996 18.6 78.5996 18.4 78.5996 18.3C78.6996 18.1 78.7996 17.9 78.8996 17.6C78.8996 17.5 78.9996 17.4 78.9996 17.4L84.1996 22.6C84.0996 22.7 83.8996 22.7 83.7996 22.8C83.5996 22.9 83.4996 22.9 83.2996 23C83.1996 23 83.0996 23 83.0996 23C82.9996 23 82.9996 22.9 82.8996 22.9C81.4996 21.4 80.0996 20 78.6996 18.7ZM80.2996 11.9C79.7996 13.2 79.2996 14.4 78.7996 15.6C78.5996 16 78.3996 16.1 77.9996 16.1C69.5996 16.1 61.2996 16.1 52.9996 16.1C52.9996 16.1 52.8996 16.1 52.7996 16.1H52.6996C52.5996 16 52.3996 16 52.2996 15.9C51.8996 14.9 51.3996 13.8 50.9996 12.8L50.6996 12L80.2996 11.9ZM49.8996 12.3L50.1996 13.1C50.5996 14.1 50.9996 15.1 51.3996 16.2C51.4996 16.3 51.3996 16.6 51.2996 16.7C50.7996 17.2 50.3996 17.6 49.8996 18.1C48.5996 19.4 47.2996 20.7 45.9996 22C45.8996 22.1 45.6996 22.2 45.5996 22.1C44.2996 21.6 42.8996 21 41.5996 20.5L49.8996 12.3ZM41.3996 21.2C41.7996 21.4 42.1996 21.5 42.5996 21.7C43.3996 22 44.1996 22.4 44.9996 22.7C45.4996 22.9 45.5996 23.1 45.5996 23.6C45.5996 30.4 45.5996 37.3 45.5996 44.1V48.5C45.5996 48.6 45.5996 48.6 45.5996 48.7V48.8C45.5996 48.9 45.4996 49.1 45.3996 49.1C44.2996 49.5 43.2996 50 42.1996 50.4L41.3996 50.7V21.2ZM51.4996 55.8C50.9996 57.1 50.3996 58.4 49.8996 59.7L41.6996 51.5L43.3996 50.8C44.1996 50.5 44.9996 50.2 45.6996 49.8C45.7996 49.8 45.9996 49.8 46.0996 49.9C47.8996 51.7 49.5996 53.4 51.3996 55.2C51.3996 55.2 51.4996 55.3 51.4996 55.4C51.5996 55.7 51.5996 55.8 51.4996 55.8ZM46.7996 49.5C46.8996 49.5 46.9996 49.4 46.9996 49.4C47.1996 49.3 47.3996 49.2 47.6996 49.1C47.7996 49.1 47.9996 49.1 48.0996 49.2C49.4996 50.6 50.7996 51.9 52.1996 53.3C52.2996 53.4 52.2996 53.6 52.2996 53.7C52.1996 54 52.0996 54.3 51.8996 54.6L46.7996 49.5ZM52.7996 55.1C52.7996 54.9 52.8996 54.8 52.8996 54.7C53.0996 54.2 53.0996 54 53.2996 53.9C53.3996 53.8 53.5996 53.9 54.0996 53.9H75.6996C76.2996 53.9 76.8996 53.9 77.3996 53.9C77.3996 53.9 77.4996 53.9 77.5996 53.9C77.6996 53.9 77.7996 54 77.8996 54.1C77.9996 54.3 78.0996 54.6 78.1996 54.8C78.1996 54.9 78.2996 55 78.2996 55.1H52.7996ZM78.5996 53.8C78.5996 53.7 78.5996 53.5 78.6996 53.4C79.2996 52.8 79.8996 52.2 80.4996 51.6C81.2996 50.8 81.9996 50.1 82.7996 49.3C82.8996 49.2 83.0996 49.1 83.1996 49.2C83.4996 49.3 83.8996 49.5 84.1996 49.6L78.9996 54.7C78.8996 54.4 78.6996 54.1 78.5996 53.8ZM81.0996 59.7C80.8996 59.1 80.5996 58.5 80.3996 58C80.0996 57.3 79.7996 56.5 79.4996 55.8C79.3996 55.7 79.4996 55.4 79.5996 55.3C81.3996 53.5 83.0996 51.8 84.8996 50C84.9996 49.9 85.1996 49.8 85.2996 49.9C86.5996 50.4 87.9996 51 89.2996 51.5L81.0996 59.7ZM89.5996 50.8C89.1996 50.6 88.8996 50.5 88.4996 50.4C87.5996 50 86.6996 49.7 85.7996 49.3C85.3996 49.1 85.2996 49 85.2996 48.5V37.6C85.2996 32.9 85.2996 28.2 85.2996 23.5C85.2996 23.4 85.2996 23.3 85.2996 23.1C85.2996 23.1 85.2996 23 85.3996 22.9C85.3996 22.8 85.4996 22.7 85.5996 22.7C86.8996 22.2 88.1996 21.6 89.5996 21.1V50.8Z" fill="#404041"/>
</svg>
