<svg width="131" height="72" viewBox="0 0 131 72" fill="none" xmlns="http://www.w3.org/2000/svg">
<path fill-rule="evenodd" clip-rule="evenodd" d="M87.3007 30.5992C87.1007 30.5992 83.7007 30.7992 80.0007 30.9992C75.3007 31.2992 70.0007 31.5992 69.9007 31.5992C67.1007 30.7992 68.4007 30.0992 70.5007 29.0992C71.6007 28.4992 73.0007 27.8992 74.1007 26.9992C73.8007 26.8992 73.6007 26.7992 73.5007 26.4992C72.6007 23.2992 71.7007 20.1992 70.9007 16.9992L69.9007 13.4992C69.9007 13.3992 69.9007 13.2992 69.9007 13.2992V13.1992L87.3007 30.5992Z" fill="#404041"/>
<path fill-rule="evenodd" clip-rule="evenodd" d="M72 26.6996C72 26.7996 72 26.7996 72 26.7996C67.4 27.8996 62.7 27.8996 58 26.7996L60 19.4996L60.5 17.7996C61.1 15.6996 61.7 13.5996 62.3 11.4996C62.4 11.1996 62.5 11.0996 62.8 11.0996C64.3 11.0996 65.8 11.0996 67.3 11.0996C67.6 11.0996 67.7 11.0996 67.8 11.3996C68.9 15.3996 70 19.3996 71.1 23.3996L72 26.6996Z" fill="#404041"/>
<path fill-rule="evenodd" clip-rule="evenodd" d="M60.0996 57.9008L42.5996 40.3008C42.8996 40.4008 43.0996 40.4008 43.3996 40.5008C43.5996 40.6008 43.7996 40.6008 43.8996 40.7008C46.3996 41.4008 48.8996 42.1008 51.4996 42.8008C52.9996 43.2008 54.3996 43.6008 55.8996 44.0008C56.1996 44.1008 56.3996 44.2008 56.4996 44.5008C57.0996 46.7008 57.6996 48.9008 58.2996 51.1008C58.8996 53.2008 59.4996 55.4008 60.0996 57.5008C60.0996 57.7008 60.0996 57.8008 60.0996 57.9008Z" fill="#404041"/>
<path fill-rule="evenodd" clip-rule="evenodd" d="M56.2996 42.5C53.7996 41.8 51.2996 41.1 48.8996 40.4C47.5996 40 46.3996 39.7 45.0996 39.3C43.6996 38.9 42.2996 38.5 40.9996 38.2C40.6996 38.1 40.5996 38 40.5996 37.7C40.5996 36.2 40.5996 34.7 40.5996 33.2C40.5996 32.9 40.5996 32.8 40.8996 32.7C45.9996 31.3 50.9996 29.9 56.1996 28.5H56.2996C57.3996 33.2 57.3996 37.8 56.2996 42.5Z" fill="#404041"/>
</svg>
