<svg width="131" height="72" viewBox="0 0 131 72" fill="none" xmlns="http://www.w3.org/2000/svg">
<path fill-rule="evenodd" clip-rule="evenodd" d="M90.4 15.8996C85.4 9.69957 78.9 5.79957 71.1 4.49957C56.2 1.89957 41.8 9.79957 35.9 23.6996C34.6 26.7996 33.8 29.9996 33.6 33.3996C33.6 33.5996 33.5 33.7996 33.5 33.8996V38.0996C33.5 38.4996 33.6 38.7996 33.7 39.1996C33.8 39.9996 33.9 40.7996 34 41.5996C34.9 46.7996 37 51.4996 40.2 55.5996C45.1 61.8996 51.6 65.8996 59.4 67.3996C60.1 67.4996 60.7 67.5996 61.4 67.6996C61.9 67.7996 62.3 67.7996 62.8 67.8996C62.9 67.8996 63 67.8996 63.1 67.8996C63.2 67.8996 63.3 67.8996 63.4 67.9996H67.7C68.1 67.9996 68.4 67.8996 68.8 67.7996C69.6 67.6996 70.4 67.5996 71.2 67.3996C75.4 66.6996 79.3 65.0996 83 62.7996C83.7 62.3996 83.8 61.9996 83.6 61.1996C83.6 61.0996 83.6 60.7996 83.8 60.6996C84.6 60.0996 85.3 59.3996 86.1 58.7996C86.2 58.7996 86.2 58.6996 86.3 58.6996C86.4 58.6996 86.6 58.6996 86.7 58.6996C87.3 58.8996 87.9 58.8996 88.2 58.4996C88.6 57.9996 88.6 57.4996 88.4 56.9996C88.3 56.8996 88.3 56.6996 88.4 56.4996C88.4 56.3996 88.4 56.3996 88.5 56.2996C88.8 55.8996 89.1 55.4996 89.5 55.1996C89.8 54.6996 90.1 54.2996 90.8 54.5996C91.3 54.7996 91.7 54.3996 92 53.9996C94.5 50.1996 96.3 46.0996 97 41.5996C98.6 32.0996 96.5 23.4996 90.4 15.8996ZM78.9 35.3996C78.1 35.6996 77.3 35.8996 76.5 36.1996C75.5 36.4996 74.5 36.8996 73.5 37.1996C72.2 37.5996 72 38.3996 72.8 39.4996C74 41.1996 75.3 42.9996 76.6 44.6996L78.6 47.4996C78.7 47.5996 78.7 47.6996 78.8 47.7996L78.9 47.9996L73 52.2996C72 50.8996 70.9 49.4996 69.9 48.0996L68.7 46.3996C68.2 45.5996 67.6 44.8996 67.1 44.0996C66.3 42.9996 65.4 42.9996 64.6 44.0996C63.4 45.6996 62.2 47.2996 61.1 48.9996L59 51.8996C58.9 52.0996 58.8 52.1996 58.6 52.4996L52.7 48.1996L56.2 43.3996C57 42.1996 57.9 41.0996 58.7 39.9996C59.4 38.9996 59.2 38.1996 58 37.7996C54.9 36.7996 51.7 35.6996 48.6 34.6996C48.5 34.6996 48.4 34.5996 48.3 34.5996C48.2 34.5996 48.2 34.4996 48.1 34.4996L50.3 27.5996C50.5 27.6996 50.7 27.6996 50.9 27.7996C52.1 28.1996 53.3 28.5996 54.5 28.9996C56.3 29.5996 58.2 30.1996 60 30.7996C61.3 31.1996 62 30.6996 62 29.2996V18.5996H69V28.5996C69 30.0996 69.7 30.5996 71.1 30.0996C74.3 29.0996 77.5 27.9996 80.8 26.8996L83.1 33.8996C81.7 34.4996 80.3 34.8996 78.9 35.3996Z" fill="#404041"/>
</svg>
