<svg width="131" height="72" viewBox="0 0 131 72" fill="none" xmlns="http://www.w3.org/2000/svg">
<path fill-rule="evenodd" clip-rule="evenodd" d="M101.6 14.1H96.9996V13.5C96.9996 8.5 92.9996 4.5 88.0996 4.5H41.6996H34.5996H30.9996C25.9996 4.5 21.9996 8.5 21.9996 13.4V16.6C19.5996 18.5 18.0996 21.3 18.0996 24.4V57.2C18.0996 62.8 23.1996 67.5 29.3996 67.5H74.4996H101.6C107.8 67.5 112.9 62.9 112.9 57.2V24.4C112.9 18.7 107.8 14.1 101.6 14.1ZM25.5996 13.4C25.5996 10.5 27.9996 8.1 30.9996 8.1H41.6996H88.0996C90.9996 8.1 93.3996 10.5 93.3996 13.5V14.2H42.8996H29.3996C28.0996 14.2 26.7996 14.4 25.5996 14.8V13.4ZM25.5996 19.3C26.6996 18.6 27.9996 18.2 29.3996 18.2H33.8996H42.8996H93.3996V42C93.3996 45 90.9996 47.4 87.9996 47.4H84.3996H66.4996H30.8996C27.8996 47.4 25.4996 45 25.4996 42V19.3H25.5996ZM108.4 57.2C108.4 60.6 105.4 63.4 101.6 63.4H97.0996H74.4996H29.3996C25.6996 63.4 22.5996 60.6 22.5996 57.2V45.1C23.8996 48.5 27.0996 50.8 30.8996 50.8H66.5996H84.4996H88.0996C92.9996 50.8 96.9996 46.8 96.9996 41.9V18.1H101.6C105.3 18.1 108.4 20.9 108.4 24.3V57.2Z" fill="#404041"/>
</svg>
