<svg width="131" height="72" viewBox="0 0 131 72" fill="none" xmlns="http://www.w3.org/2000/svg">
<path fill-rule="evenodd" clip-rule="evenodd" d="M98.9002 63.7002C98.8002 63.5002 98.7002 63.3002 98.5002 63.0002L71.4002 16.4002C69.8002 13.7002 68.3002 11.0002 66.7002 8.30023C66.3002 7.50023 65.6002 7.20023 65.0002 7.60023C64.7002 7.80023 64.4002 8.10023 64.2002 8.50023C55.5002 23.5002 46.8002 38.5002 38.0002 53.5002L35.4002 58.0002C35.1002 58.5002 34.8002 59.1002 34.4002 59.6002C33.6002 60.9002 32.9002 62.1002 32.2002 63.4002C31.6002 64.4002 32.2002 65.3002 33.3002 65.4002C33.5002 65.4002 33.7002 65.4002 33.9002 65.4002H97.0002C97.3002 65.4002 97.6002 65.4002 97.9002 65.4002C98.8002 65.3002 99.2002 64.5002 98.9002 63.7002ZM34.7002 62.5002C34.6002 62.5002 34.6002 62.6002 34.5002 62.6002L34.4002 62.5002L64.7002 10.4002H64.8002V14.0002C64.8002 17.5002 64.8002 20.9002 64.8002 24.4002C64.8002 24.8002 64.4002 25.7002 64.4002 25.7002C59.1002 35.1002 53.7002 44.4002 48.4002 53.8002C48.3002 53.9002 48.2002 54.1002 48.1002 54.2002C48.0002 54.3002 47.9002 54.4002 47.8002 54.4002C45.6002 55.8002 43.3002 57.2002 41.0002 58.6002C38.9002 59.9002 36.9002 61.1002 34.7002 62.5002C34.8002 62.5002 34.8002 62.5002 34.7002 62.5002ZM35.0002 64.1002C35.3002 63.9002 35.4002 63.8002 35.5002 63.7002L36.5002 63.1002C40.5002 60.7002 44.5002 58.2002 48.4002 55.8002C48.7002 55.6002 49.1002 55.5002 49.4002 55.5002C55.7002 55.4002 62.0002 55.3002 68.4002 55.3002C72.6002 55.3002 76.8002 55.2002 80.9002 55.2002C81.2002 55.2002 81.5002 55.2002 81.8002 55.4002C85.8002 57.9002 89.8002 60.3002 93.9002 62.8002L95.7002 63.9002C95.8002 63.9002 95.8002 64.0002 96.0002 64.1002H35.0002ZM96.5002 62.6002L96.3002 62.5002C96.2002 62.4002 96.0002 62.3002 95.9002 62.3002L94.0002 61.1002C90.3002 58.8002 86.5002 56.5002 82.8002 54.2002C82.5002 54.0002 82.3002 53.8002 82.2002 53.5002C76.9002 44.2002 71.6002 34.9002 66.4002 25.5002C66.3002 25.4002 66.3002 25.3002 66.2002 25.1002C66.2002 25.0002 66.2002 24.9002 66.2002 24.8002C66.2002 20.1002 66.2002 15.3002 66.2002 10.6002V10.5002C66.2002 10.5002 66.2002 10.4002 66.3002 10.3002L96.5002 62.6002Z" fill="#404041"/>
</svg>
