<svg width="131" height="72" viewBox="0 0 131 72" fill="none" xmlns="http://www.w3.org/2000/svg">
<path fill-rule="evenodd" clip-rule="evenodd" d="M119.201 15.8004C104.401 15.6004 89.6007 15.5004 74.8007 15.4004C74.3007 15.4004 73.7007 15.5004 73.3007 15.8004C67.9007 19.1004 62.5007 22.5004 57.1007 25.8004L53.0007 28.2004C39.1007 36.8004 25.2007 45.4004 11.4007 54.0004C10.7007 54.4004 10.1007 54.9004 10.3007 55.8004C10.5007 56.7004 11.3007 56.8004 12.1007 56.8004C36.8007 56.5004 61.6007 56.2004 86.3007 55.9004C87.2007 55.9004 87.9007 55.6004 88.5007 54.9004C97.9007 44.0004 107.301 33.1004 116.701 22.3004C117.401 21.5004 118.201 20.6004 118.901 19.8004L120.401 18.0004C121.101 16.7004 120.501 15.8004 119.201 15.8004ZM75.4007 17.9004L106.601 18.2004V18.4004C96.0007 20.7004 85.4007 23.0004 74.7007 25.3004L75.4007 17.9004ZM72.7007 19.2004C72.7007 19.7004 72.6007 20.3004 72.6007 20.8004C72.4007 22.5004 72.3007 24.2004 72.1007 25.8004C72.1007 26.1004 71.8007 26.4004 71.5007 26.5004C66.1007 29.0004 60.7007 31.5004 55.3007 33.9004C52.7007 35.1004 50.1007 36.3004 47.6007 37.4004C42.6007 39.7004 37.7007 42.0004 32.7007 44.3004C32.5007 44.4004 32.2007 44.5004 31.9007 44.4004L72.7007 19.2004ZM31.5007 53.8004L31.4007 53.5004C33.8007 53.1004 36.3007 52.7004 38.7007 52.3004L45.2007 51.3004C56.1007 49.5004 66.9007 47.8004 77.7007 46.0004C78.3007 45.9004 78.7007 46.0004 79.1007 46.5004C80.3007 48.1004 81.6007 49.6004 82.9007 51.2004C83.4007 51.8004 83.9007 52.4004 84.4007 53.1004L31.5007 53.8004ZM87.1007 52.4004L81.0007 44.8004L111.001 24.4004L111.201 24.6004L87.1007 52.4004Z" fill="#404041"/>
</svg>
