<svg width="131" height="72" viewBox="0 0 131 72" fill="none" xmlns="http://www.w3.org/2000/svg">
<path fill-rule="evenodd" clip-rule="evenodd" d="M94.6 39.7C93.6 31.8 92.7 23.8 91.8 15.9C91.7 15.2 91.4 14.8 90.8 14.6C83.3 11.9 75.9 9.3 68.4 6.6C67.7 6.4 67.2 6.5 66.7 6.9C56.9 14.8 47 22.8 37.2 30.7C36.7 31.1 36.5 31.6 36.5 32.3C37.5 40.2 38.4 48.1 39.3 56C39.4 56.8 39.7 57.2 40.4 57.4C44.9 59 49.4 60.6 53.9 62.2L59.1 64.1C60 64.4 60.9 64.7 61.9 65.1L63.4 65.6C63.7 65.5 64.1 65.4 64.4 65.1C70.1 60.5 75.8 56 81.4 51.4C85.6 48 89.8 44.6 94 41.2C94.5 40.7 94.6 40.3 94.6 39.7ZM88.5 16.1L87.6 16.8C86.6 17.6 85.6 18.4 84.6 19.2C84.5 19.3 84.1 19.3 83.9 19.2C79 17.7 74.2 16.1 69.4 14.6C69.2 14.5 68.9 14.3 68.9 14.2C68.9 12.5 68.9 10.9 68.8 9.1L88.5 16.1ZM41.2 54.2L38.7 33.2C38.9 33.3 39.1 33.3 39.3 33.3C39.5 33.3 39.6 33.4 39.8 33.4C41 33.7 42.2 34.1 43.5 34.3C43.9 34.4 44 34.5 44 34.9C44.2 37 44.3 39 44.5 41.1C44.8 44.2 45 47.2 45.3 50.3C45.3 50.5 45.3 50.8 45.1 50.9C44.1 51.7 43.1 52.5 42.1 53.3L41.2 54.2ZM42.5 55.8C43.9 54.7 45.1 53.7 46.4 52.7C46.6 52.6 46.9 52.6 47.1 52.7C51.9 54.2 56.7 55.8 61.6 57.3C61.8 57.4 62.1 57.6 62.1 57.8C62.1 58.7 62.2 59.7 62.2 60.7C62.2 61.4 62.2 62.1 62.2 62.9L42.5 55.8ZM45 32.2C44.8 32.4 44.4 32.4 44.2 32.4C43.3 32.2 42.3 31.9 41.4 31.7C40.9 31.6 40.5 31.5 40 31.3L66.7 9.8C66.7 10.2 66.7 10.5 66.7 10.9C66.7 12 66.7 13.1 66.7 14.2C66.7 14.5 66.5 14.8 66.3 15C59.2 20.7 52.1 26.5 45 32.2ZM64.4 62C64.4 61.3 64.4 60.6 64.4 59.9C64.4 59.1 64.4 58.3 64.4 57.5C64.4 57.3 64.5 57.1 64.7 56.9C71.9 51.1 79 45.3 86.2 39.6C86.3 39.5 86.4 39.5 86.5 39.4C86.6 39.4 86.7 39.4 86.8 39.4C87.6 39.6 88.4 39.8 89.2 40C89.9 40.2 90.5 40.3 91.2 40.5L64.4 62ZM90.7 38.2C90.3 38.1 89.9 38 89.6 37.9C89.3 37.8 88.9 37.7 88.6 37.7C88.2 37.6 88 37.5 87.7 37.5C87.3 37.4 87.1 37.2 87.1 36.8C86.9 34.2 86.7 31.5 86.4 28.9C86.2 26.5 86 24.1 85.8 21.7C85.8 21.6 85.8 21.4 85.9 21.2C85.9 21.1 86 21 86.1 20.9C87.3 19.9 88.6 18.9 89.9 17.8L92.4 38.7L90.7 38.2Z" fill="#404041"/>
</svg>
