<svg width="131" height="72" viewBox="0 0 131 72" fill="none" xmlns="http://www.w3.org/2000/svg">
<path d="M92.2004 38.3C92.2004 37.7 92.0004 37.1 91.6004 36.6L91.5004 36.5L91.7004 36.4C92.3004 35.9 92.6004 35.2 92.6004 34.4C92.6004 33.7 92.2004 33 91.7004 32.5L91.5004 32.4L91.6004 32.2C92.0004 31.7 92.2004 31.1 92.2004 30.5C92.2004 29.6 91.7004 28.8 91.0004 28.3L90.8004 28.2L90.9004 28C91.2004 27.6 91.3004 27.1 91.3004 26.6C91.3004 25.6 90.7004 24.7 89.8004 24.2L89.6004 24.1L89.7004 23.9C89.8004 23.6 89.9004 23.3 89.9004 22.9C89.9004 21.7 89.1004 20.7 88.0004 20.3L87.8004 20.2L87.9004 20C88.0004 19.8 88.0004 19.5 88.0004 19.3C88.0004 17.9 87.0004 16.8 85.7004 16.6H85.5004V16.1C85.5004 14.6 84.3004 13.4 82.8004 13.4H82.6004V13.2C82.5004 11.8 81.3004 10.7 79.9004 10.7C79.3004 10.7 78.8004 10.9 78.3004 11.2L78.2004 11.3L78.0004 11.2C74.4004 9 70.4004 7.8 66.3004 7.6H66.1004V7.2C66.1004 6.8 65.8004 6.5 65.4004 6.5C65.0004 6.5 64.7004 6.8 64.7004 7.2V7.6H64.5004C60.4004 7.7 56.3004 9 52.8004 11.2L52.7004 11.3L52.6004 11.2C52.1004 10.9 51.6004 10.7 51.0004 10.7C49.6004 10.7 48.4004 11.8 48.3004 13.2V13.4H48.1004C46.6004 13.4 45.4004 14.6 45.4004 16.1V16.6H45.2004C44.0004 16.9 43.0004 18 43.0004 19.3C43.0004 19.5 43.0004 19.8 43.1004 20L43.2004 20.1L43.0004 20.2C41.8004 20.6 41.1004 21.6 41.1004 22.8C41.1004 23.1 41.2004 23.5 41.3004 23.8L41.4004 24L41.2004 24.1C40.3004 24.6 39.7004 25.5 39.7004 26.5C39.7004 27 39.8004 27.5 40.1004 27.9L40.2004 28.2L40.0004 28.3C39.2004 28.8 38.8004 29.6 38.8004 30.5C38.8004 31.1 39.0004 31.7 39.4004 32.2L39.5004 32.4L39.3004 32.5C38.7004 33 38.4004 33.7 38.4004 34.4C38.4004 35.2 38.7004 35.9 39.3004 36.4L39.5004 36.5L39.4004 36.7C39.0004 37.2 38.8004 37.8 38.8004 38.4C38.8004 39.2 39.2004 40 39.9004 40.5V40.6L39.8004 40.8C39.4004 41.4 39.1004 42.2 39.1004 42.9C39.1004 44.2 40.0004 45.5 41.3004 46L41.6004 46.1L41.5004 46.3C41.2004 46.9 41.0004 47.6 41.0004 48.3C41.0004 50.5 42.8004 52.2 45.0004 52.3H45.3004L45.2004 52.6C45.1004 53 45.0004 53.4 45.0004 53.9C45.0004 56.5 47.1004 58.5 49.5004 58.6C50.1004 58.6 50.6004 58.5 51.1004 58.3L51.4004 58.2V58.5C51.4004 61.3 53.7004 63.5 56.5004 63.5C57.8004 63.5 59.0004 63 60.0004 62.1L60.2004 61.9L60.3004 62.2C61.2004 64.2 63.1004 65.5 65.3004 65.5C67.5004 65.5 69.5004 64.2 70.3004 62.2L70.4004 61.9L70.6004 62.1C71.5004 63 72.8004 63.5 74.1004 63.5C76.9004 63.5 79.2004 61.3 79.2004 58.5V58L79.5004 58.1C80.0004 58.3 80.6004 58.4 81.1004 58.4C83.7004 58.4 85.8004 56.3 85.8004 53.8C85.8004 53.4 85.7004 52.9 85.6004 52.5L85.5004 52.2H85.8004C88.1004 52.2 89.8004 50.4 89.8004 48.2C89.8004 47.5 89.6004 46.8 89.3004 46.2L89.2004 46L89.5004 45.9C90.8004 45.4 91.7004 44.2 91.7004 42.8C91.7004 42 91.5004 41.3 91.0004 40.7V40.5L91.2004 40.4C91.8004 39.9 92.2004 39.1 92.2004 38.3ZM90.8004 30.4C90.8004 31.1 90.2004 31.7 89.5004 31.7C88.8004 31.7 88.2004 31.1 88.2004 30.4C88.2004 29.7 88.7004 29.1 89.5004 29.1C90.2004 29.1 90.8004 29.7 90.8004 30.4ZM90.0004 26.5C90.0004 27.2 89.4004 27.8 88.7004 27.8C88.0004 27.8 87.4004 27.2 87.4004 26.5C87.4004 25.8 88.0004 25.2 88.7004 25.2C89.3004 25.2 90.0004 25.8 90.0004 26.5ZM88.5004 22.8C88.5004 23.5 87.9004 24.1 87.2004 24.1C86.5004 24.1 86.0004 23.5 86.0004 22.8C86.0004 22.1 86.6004 21.5 87.3004 21.5C88.0004 21.5 88.5004 22.1 88.5004 22.8ZM85.3004 18C86.0004 18 86.6004 18.6 86.6004 19.3C86.6004 20 86.0004 20.6 85.3004 20.6C84.6004 20.6 84.0004 20 84.0004 19.3C84.0004 18.6 84.6004 18 85.3004 18ZM83.0004 14.8C83.7004 14.8 84.3004 15.4 84.3004 16.1C84.3004 16.8 83.7004 17.4 83.0004 17.4C82.2004 17.4 81.7004 16.8 81.7004 16.1C81.6004 15.4 82.2004 14.8 83.0004 14.8ZM80.0004 12.1C80.7004 12.1 81.3004 12.7 81.3004 13.4C81.3004 14.1 80.7004 14.7 80.0004 14.7C79.3004 14.7 78.7004 14.1 78.7004 13.4C78.6004 12.7 79.2004 12.1 80.0004 12.1ZM51.1004 12.1C51.8004 12.1 52.4004 12.7 52.4004 13.4C52.4004 14.1 51.8004 14.7 51.1004 14.7C50.3004 14.7 49.8004 14.1 49.8004 13.4C49.8004 12.7 50.5004 12.1 51.1004 12.1ZM48.1004 14.8C48.8004 14.8 49.4004 15.4 49.4004 16.1C49.4004 16.8 48.8004 17.4 48.1004 17.4C47.4004 17.4 46.8004 16.8 46.8004 16.1C46.8004 15.4 47.5004 14.8 48.1004 14.8ZM45.8004 18C46.5004 18 47.1004 18.6 47.1004 19.3C47.1004 20 46.5004 20.6 45.8004 20.6C45.1004 20.6 44.5004 20 44.5004 19.3C44.5004 18.6 45.0004 18 45.8004 18ZM43.8004 21.5C44.5004 21.5 45.1004 22.1 45.1004 22.8C45.1004 23.5 44.5004 24.1 43.8004 24.1C43.0004 24.1 42.5004 23.5 42.5004 22.8C42.5004 22.1 43.1004 21.5 43.8004 21.5ZM42.5004 25.2C43.2004 25.2 43.8004 25.8 43.8004 26.5C43.8004 27.2 43.2004 27.8 42.5004 27.8C41.7004 27.8 41.2004 27.2 41.2004 26.5C41.2004 25.8 41.8004 25.2 42.5004 25.2ZM41.5004 29.1C42.2004 29.1 42.8004 29.7 42.8004 30.4C42.8004 31.1 42.2004 31.7 41.5004 31.7C40.8004 31.7 40.2004 31.1 40.2004 30.4C40.2004 29.7 40.8004 29.1 41.5004 29.1ZM40.0004 34.3C40.0004 33.6 40.6004 33 41.3004 33C42.0004 33 42.6004 33.6 42.6004 34.3C42.6004 35 42.0004 35.6 41.3004 35.6C40.6004 35.6 40.0004 35.1 40.0004 34.3ZM40.2004 38.4C40.2004 37.7 40.8004 37.1 41.5004 37.1C42.2004 37.1 42.8004 37.7 42.8004 38.4C42.8004 38.9 42.4004 39.4 41.9004 39.6H41.8004C41.8004 39.6 41.7004 39.6 41.5004 39.7C40.8004 39.7 40.2004 39.1 40.2004 38.4ZM40.6004 42.9C40.6004 42 41.1004 41.2 42.0004 41C42.1004 41 42.1004 41 42.1004 41H42.6004C43.7004 41 44.6004 41.8 44.6004 42.9C44.6004 43.6 44.1004 44.3 43.5004 44.6C43.4004 44.7 43.4004 44.7 43.3004 44.7C43.1004 44.7 42.9004 44.8 42.6004 44.8C41.5004 44.8 40.6004 44 40.6004 42.9ZM45.1004 50.9C43.7004 50.9 42.5004 49.7 42.5004 48.3C42.5004 47.3 43.1004 46.4 44.0004 46L44.2004 45.9C44.5004 45.8 44.9004 45.7 45.2004 45.7C46.6004 45.7 47.8004 46.9 47.8004 48.3C47.8004 49.7 46.6004 50.9 45.1004 50.9ZM49.8004 57.1C48.1004 57.1 46.6004 55.7 46.6004 53.9C46.6004 52.1 48.0004 50.7 49.8004 50.7C51.5004 50.7 53.0004 52.2 53.0004 53.9C53.0004 55.7 51.5004 57.1 49.8004 57.1ZM56.6004 62C54.6004 62 52.9004 60.4 52.9004 58.4C52.9004 56.4 54.6004 54.8 56.6004 54.8C58.7004 54.8 60.3004 56.5 60.3004 58.4C60.3004 60.4 58.6004 62 56.6004 62ZM65.5004 64.2C63.4004 64.2 61.6004 62.4 61.6004 60.3C61.6004 58.1 63.3004 56.4 65.5004 56.4C67.6004 56.4 69.4004 58.1 69.4004 60.3C69.4004 62.5 67.8004 64.2 65.5004 64.2ZM69.5004 56.5L69.4004 56.8L69.2004 56.6C68.2004 55.6 66.8004 55.1 65.4004 55.1C64.0004 55.1 62.6004 55.6 61.6004 56.6L61.4004 56.8L61.3004 56.5C60.5004 54.7 58.6004 53.5 56.6004 53.5C55.9004 53.5 55.2004 53.6 54.6004 53.9L54.3004 54V53.7C54.1004 51.3 52.1004 49.4 49.6004 49.4H49.0004L49.2004 49.1C49.3004 48.8 49.3004 48.6 49.3004 48.3C49.3004 46.5 48.0004 44.8 46.1004 44.4L45.8004 44.3L45.9004 44.1C46.0004 43.7 46.1004 43.3 46.1004 42.9C46.1004 41.6 45.4004 40.5 44.2004 39.9L44.0004 39.8L44.1004 39.6C44.3004 39.2 44.4004 38.8 44.4004 38.4C44.4004 37.6 44.1004 36.9 43.5004 36.4L43.3004 36.3L43.4004 36.1C43.8004 35.6 44.0004 35 44.0004 34.4C44.0004 33.8 43.8004 33.2 43.4004 32.7L43.3004 32.5L43.2004 32.4C43.7004 31.8 44.0004 31.1 44.0004 30.4C44.0004 29.9 43.9004 29.4 43.6004 29L43.5004 28.8L43.7004 28.7C44.5004 28.2 44.9004 27.4 44.9004 26.5C44.9004 26.2 44.8004 25.8 44.7004 25.5L44.6004 25.3L44.8004 25.2C45.7004 24.7 46.3004 23.8 46.3004 22.8C46.3004 22.5 46.3004 22.3 46.2004 22.1L46.1004 21.9L46.3004 21.8C47.5004 21.4 48.2004 20.4 48.2004 19.2V18.7H48.4004C49.7004 18.5 50.6004 17.4 50.7004 16.2V16H51.0004C52.5004 16 53.7004 14.8 53.7004 13.3C53.7004 13 53.7004 12.8 53.6004 12.5V12.3L53.7004 12.2C57.0004 10.2 60.7004 9.1 64.5004 8.9H64.7004V9.1C64.7004 9.5 65.0004 9.8 65.4004 9.8C65.8004 9.8 66.0004 9.5 66.0004 9.1V8.9H66.2004C70.0004 9 73.8004 10.2 77.0004 12.2L77.2004 12.3V12.5C77.1004 12.8 77.1004 13 77.1004 13.3C77.1004 14.8 78.3004 16 79.8004 16H80.0004V16.2C80.1004 17.4 81.1004 18.5 82.3004 18.7H82.5004V19.2C82.5004 20.4 83.3004 21.4 84.4004 21.8L84.6004 21.9V22.1C84.5004 22.4 84.5004 22.6 84.5004 22.8C84.5004 23.8 85.1004 24.7 86.0004 25.2L86.1004 25.3L86.0004 25.5C85.9004 25.8 85.8004 26.1 85.8004 26.5C85.8004 27.4 86.3004 28.2 87.0004 28.7H87.4004L87.3004 28.9C87.0004 29.3 87.0004 29.8 87.0004 30.3C87.0004 31.1 87.3004 31.8 87.8004 32.3L87.9004 32.4L87.8004 32.6C87.4004 33.1 87.2004 33.7 87.2004 34.3C87.2004 34.9 87.4004 35.5 87.8004 36L87.9004 36.2L87.7004 36.3C87.1004 36.9 86.8004 37.6 86.8004 38.3C86.8004 38.7 86.9004 39.1 87.1004 39.5L87.2004 39.7L87.0004 39.8C85.8004 40.4 85.1004 41.5 85.1004 42.8C85.1004 43.2 85.1004 43.6 85.3004 44L85.4004 44.2L85.0004 44.3C83.2004 44.7 81.8004 46.3 81.8004 48.2C81.8004 48.5 81.9004 48.8 81.9004 49L82.0004 49.3H81.4004C78.9004 49.3 76.9004 51.2 76.7004 53.6V53.9L76.4004 53.8C75.8004 53.5 75.1004 53.4 74.4004 53.4C72.3004 53.4 70.5004 54.6 69.5004 56.5ZM74.5004 62C72.4004 62 70.8004 60.4 70.8004 58.4C70.8004 56.4 72.5004 54.8 74.5004 54.8C76.5004 54.8 78.1004 56.5 78.2004 58.4C78.1004 60.4 76.5004 62 74.5004 62ZM81.3004 57.1C79.6004 57.1 78.1004 55.7 78.1004 53.9C78.1004 52.1 79.5004 50.7 81.3004 50.7C83.1004 50.7 84.6004 52.2 84.5004 53.9C84.5004 55.7 83.1004 57.1 81.3004 57.1ZM86.0004 50.9C84.6004 50.9 83.4004 49.7 83.4004 48.3C83.4004 46.9 84.5004 45.7 86.0004 45.7C86.3004 45.7 86.7004 45.8 87.0004 45.9L87.2004 46C88.1004 46.4 88.6004 47.3 88.6004 48.3C88.5004 49.7 87.5004 50.9 86.0004 50.9ZM88.5004 44.8C88.3004 44.8 88.0004 44.8 87.8004 44.7C87.7004 44.7 87.7004 44.6 87.6004 44.6C86.9004 44.3 86.5004 43.6 86.5004 42.9C86.5004 41.9 87.4004 41 88.5004 41H89.0004C89.8004 41.2 90.4004 42 90.5004 42.9C90.5004 43.9 89.5004 44.8 88.5004 44.8ZM89.5004 39.6H89.0004C88.5004 39.5 88.1004 39 88.1004 38.4C88.1004 37.7 88.7004 37.1 89.4004 37.1C90.1004 37.1 90.7004 37.6 90.7004 38.3C90.7004 39 90.1004 39.6 89.5004 39.6ZM89.8004 35.7C89.1004 35.7 88.5004 35.1 88.5004 34.4C88.5004 33.7 89.1004 33.1 89.8004 33.1C90.5004 33.1 91.1004 33.7 91.1004 34.4C91.0004 35.1 90.5004 35.7 89.8004 35.7Z" fill="#404041"/>
</svg>
