<svg width="131" height="72" viewBox="0 0 131 72" fill="none" xmlns="http://www.w3.org/2000/svg">
<path fill-rule="evenodd" clip-rule="evenodd" d="M111.8 33.9007C109.6 36.2007 107.1 37.7007 104.3 38.8007C99.2004 40.8007 93.8004 41.7007 88.4004 41.7007C74.1004 41.8007 59.8004 41.9007 45.5004 41.7007C38.9004 41.6007 32.2004 41.1007 25.9004 39.0007C24.4004 38.5007 23.1004 37.7007 21.7004 36.9007C21.2004 36.6007 20.8004 36.4007 20.4004 36.1007C19.9004 35.9007 19.6004 35.3007 19.4004 34.7007C21.0004 35.0007 22.5004 35.2007 24.1004 35.5007C29.9004 36.5007 35.5004 35.7007 41.0004 33.9007C44.6004 32.7007 48.2004 31.6007 51.9004 30.8007C57.9004 29.5007 63.9004 30.2007 69.7004 31.6007C70.9004 31.9007 72.2004 32.3007 73.4004 32.6007C75.0004 33.1007 76.6004 33.6007 78.2004 33.9007C83.5004 35.0007 88.9004 34.9007 94.2004 34.8007C98.1004 34.7007 102 34.4007 106 34.1007C107.8 34.0007 109.5 33.9007 111.2 33.7007C111.3 33.7007 111.4 33.7007 111.5 33.7007C111.5 33.9007 111.6 33.9007 111.8 33.9007Z" fill="#404041"/>
</svg>
