<svg width="131" height="72" viewBox="0 0 131 72" fill="none" xmlns="http://www.w3.org/2000/svg">
<path fill-rule="evenodd" clip-rule="evenodd" d="M64 60.4993H67.2L67.7 60.3993C68.4 60.2993 69.1 60.1993 69.9 60.0993C73.1 59.4993 76 58.2993 78.8 56.5993C79.3 56.2993 79.4 55.9993 79.3 55.3993C79.3 55.2993 79.3 55.0993 79.4 54.9993C80 54.4993 80.6 53.9993 81.2 53.5993C81.3 53.4993 81.5 53.4993 81.7 53.5993C82.2 53.7993 82.6 53.7993 82.9 53.3993C83.1 53.1993 83.2 52.9993 83.2 52.7993C83.2 52.5993 83.2 52.4993 83.1 52.2993C83 52.1993 83.1 51.8993 83.1 51.7993C83.2 51.5993 83.4 51.4993 83.5 51.2993C83.6 51.1993 83.7 51.0993 83.8 50.8993C84.1 50.5993 84.2 50.1993 84.8 50.4993C85 50.5993 85.2 50.4993 85.4 50.3993C85.5 50.2993 85.6 50.1993 85.7 49.9993C87.6 47.0993 88.9 43.9993 89.5 40.5993C90.3 35.8993 86.3 33.1993 82.1 30.2993C79.7 28.6993 77.3 26.9993 75.6 24.8993C74 22.7993 73.8 20.3993 73.6 18.1993C73.4 15.2993 73.2 12.7993 69.9 12.1993C58.7 10.1993 55.7 13.7993 51.3 24.4993C50.9 25.4993 48.9 27.0993 46.9 28.6993C44.4 30.6993 41.7 32.7993 41.6 34.1993C41.6 34.2993 41.6 34.3993 41.5 34.4993V34.5993V37.7993C41.5 38.0993 41.6 38.3993 41.6 38.5993C41.7 39.1993 41.8 39.7993 41.9 40.3993C42.3 42.8993 44.1 44.1993 46 45.5993C47.2 46.4993 48.4 47.3993 49.3 48.5993C50.2 49.6993 51 50.8993 51.8 52.0993C54.3 55.7993 56.6 59.1993 61.1 60.0993C61.9 60.2993 62.8 60.2993 63.7 60.3993C63.8 60.3993 63.9 60.4993 64 60.4993Z" fill="#404041"/>
</svg>
