<svg width="131" height="72" viewBox="0 0 131 72" fill="none" xmlns="http://www.w3.org/2000/svg">
<path fill-rule="evenodd" clip-rule="evenodd" d="M86.5004 55.1992C85.7004 49.9992 84.8004 44.7992 84.0004 39.6992L83.2004 34.8992L82.6004 31.2992C82.0004 27.3992 81.4004 23.3992 80.7004 19.4992C80.7004 19.3992 80.7004 19.2992 80.6004 19.1992C80.6004 19.0992 80.6004 19.0992 80.5004 18.9992C80.5004 18.8992 80.5004 18.8992 80.4004 18.8992C80.3004 18.7992 80.2004 18.6992 80.2004 18.4992C80.1004 18.3992 80.0004 18.2992 79.9004 18.1992C77.7004 16.4992 75.4004 14.7992 73.2004 13.0992C71.9004 12.0992 70.6004 11.0992 69.3004 10.0992L66.4004 7.89922C65.6004 7.29922 65.4004 7.29922 64.5004 7.89922L61.7004 9.99922C58.1004 12.6992 54.5004 15.4992 50.9004 18.1992C50.4004 18.5992 50.2004 18.9992 50.1004 19.4992C49.3004 24.5992 48.5004 29.6992 47.7004 34.7992C46.9004 40.0992 46.0004 45.2992 45.2004 50.5992C44.9004 52.2992 44.6004 53.9992 44.4004 55.7992C44.4004 56.0992 44.4004 56.4992 44.6004 56.7992C46.0004 59.1992 47.3004 61.5992 48.7004 63.9992C48.7004 64.0992 48.8004 64.0992 48.9004 64.1992C49.0004 64.2992 49.0004 64.2992 49.1004 64.3992C49.2004 64.4992 49.2004 64.4992 49.3004 64.5992H81.6004C81.7004 64.4992 81.8004 64.3992 81.8004 64.2992C82.0004 64.0992 82.1004 63.8992 82.3004 63.6992C82.8004 62.8992 83.3004 62.0992 83.7004 61.1992C84.5004 59.8992 85.2004 58.5992 86.0004 57.2992C86.5004 56.5992 86.6004 55.9992 86.5004 55.1992ZM66.5004 10.3992L78.0004 19.0992L76.9004 19.6992L76.8004 19.7992C75.1004 20.6992 73.5004 21.4992 71.9004 22.2992C71.8004 22.3992 71.5004 22.2992 71.4004 22.1992C69.9004 21.0992 68.3004 19.9992 66.8004 18.8992C66.7004 18.7992 66.6004 18.6992 66.6004 18.5992C66.6004 18.4992 66.6004 18.4992 66.6004 18.3992C66.6004 16.2992 66.6004 14.1992 66.6004 11.9992V10.3992H66.5004ZM65.1004 20.4992C65.4004 20.2992 65.6004 20.2992 65.8004 20.4992C67.3004 21.5992 68.7004 22.5992 70.2004 23.6992C70.5004 23.8992 70.7004 24.1992 70.8004 24.5992C71.2004 26.3992 71.6004 28.2992 72.0004 30.0992C73.6004 37.3992 75.3004 44.7992 77.0004 52.0992C77.4004 53.5992 77.4004 54.8992 76.3004 55.9992C76.3004 55.9992 76.3004 56.0992 76.2004 56.0992V56.1992C76.1004 56.3992 76.0004 56.4992 75.9004 56.4992C75.8004 56.5992 75.6004 56.5992 75.3004 56.5992C72.8004 56.5992 70.4004 56.5992 67.9004 56.5992H62.9004H60.8004H59.8004H58.0004C57.3004 56.5992 56.7004 56.5992 56.0004 56.5992C55.3004 56.5992 54.9004 56.4992 54.6004 55.7992C54.4004 55.3992 54.1004 54.9992 53.9004 54.6992C53.8004 54.5992 53.8004 54.4992 53.7004 54.3992C53.7004 54.2992 53.6004 54.1992 53.6004 54.0992C53.6004 53.9992 53.6004 53.8992 53.6004 53.7992C53.6004 53.6992 53.6004 53.6992 53.6004 53.5992C53.6004 53.4992 53.6004 53.4992 53.6004 53.3992C54.1004 51.0992 54.6004 48.7992 55.2004 46.4992L56.2004 41.9992L56.8004 39.1992C57.9004 34.1992 59.0004 29.1992 60.2004 24.1992C60.3004 23.8992 60.4004 23.5992 60.7004 23.4992C62.1004 22.5992 63.7004 21.5992 65.1004 20.4992ZM46.9004 52.7992C47.2004 50.5992 47.6004 48.3992 48.0004 46.1992L48.1004 45.2992L48.5004 42.8992C48.8004 41.1992 49.1004 39.3992 49.3004 37.6992V37.4992C49.7004 34.6992 50.2004 31.9992 50.6004 29.1992C51.1004 26.1992 51.5004 23.1992 52.0004 20.1992C52.1004 19.7992 52.2004 19.5992 52.5004 19.3992C55.2004 17.3992 57.8004 15.3992 60.5004 13.3992C61.3004 12.7992 62.1004 12.1992 63.0004 11.4992L64.4004 10.3992C64.4004 13.1992 64.4004 15.7992 64.4004 18.3992C64.4004 18.4992 64.4004 18.5992 64.3004 18.5992L64.2004 18.6992L64.1004 18.7992C62.6004 19.8992 61.0004 20.9992 59.5004 22.1992C59.3004 22.3992 59.1004 22.3992 58.8004 22.1992C57.8004 21.6992 56.8004 21.1992 55.8004 20.5992C55.2004 20.2992 54.6004 20.3992 54.3004 20.8992C54.0004 21.3992 54.2004 21.9992 54.9004 22.2992C55.8004 22.7992 56.7004 23.2992 57.7004 23.6992C58.1004 23.8992 58.1004 24.0992 58.1004 24.4992C57.2004 28.4992 56.3004 32.4992 55.4004 36.4992L54.4004 41.1992C53.5004 45.1992 52.6004 49.2992 51.7004 53.2992C51.7004 53.3992 51.7004 53.3992 51.6004 53.4992L51.5004 53.5992C51.5004 53.6992 51.4004 53.6992 51.3004 53.6992C50.5004 53.8992 49.8004 54.0992 49.0004 54.1992C48.2004 54.3992 47.3004 54.5992 46.5004 54.7992C46.7004 54.0992 46.8004 53.4992 46.9004 52.7992ZM46.9004 56.7992L47.9004 56.5992C48.9004 56.3992 49.8004 56.0992 50.8004 55.8992C51.1004 55.7992 51.4004 55.7992 51.7004 55.6992C51.8004 55.6992 52.0004 55.6992 52.1004 55.7992C52.4004 56.1992 52.7004 56.6992 53.0004 57.1992C53.1004 57.3992 53.2004 57.4992 53.3004 57.6992L49.8004 61.8992L46.9004 56.7992ZM84.0004 56.8992C83.9004 56.9992 83.9004 57.0992 83.8004 57.1992C83.5004 57.6992 83.2004 58.1992 83.0004 58.6992C82.3004 59.8992 81.6004 61.0992 81.0004 62.2992C80.8004 62.5992 80.6004 62.6992 80.3004 62.6992H52.3004C52.2004 62.6992 52.1004 62.6992 52.1004 62.6992H52.0004H51.8004C52.0004 62.4992 52.2004 62.1992 52.4004 61.9992L52.5004 61.8992L52.6004 61.7992C53.3004 60.9992 53.9004 60.1992 54.6004 59.3992C54.9004 58.9992 55.2004 58.8992 55.6004 58.8992C61.8004 58.8992 68.1004 58.8992 74.3004 58.8992C75.5004 58.8992 76.5004 59.0992 77.1004 60.1992C77.1004 60.1992 77.1004 60.2992 77.2004 60.2992C77.2004 60.2992 77.2004 60.2992 77.3004 60.3992H77.4004C77.8004 60.7992 78.3004 60.8992 78.7004 60.4992C79.1004 60.1992 79.2004 59.5992 78.8004 59.0992C78.4004 58.6992 78.1004 58.1992 77.7004 57.6992C77.8004 57.5992 77.9004 57.3992 78.0004 57.1992C78.3004 56.6992 78.6004 56.2992 78.9004 55.8992C79.0004 55.7992 79.2004 55.6992 79.4004 55.7992C80.1004 55.9992 80.8004 56.0992 81.5004 56.2992L83.0004 56.5992H83.1004L84.2004 56.7992L84.0004 56.8992ZM82.8004 54.4992C81.9004 54.2992 81.0004 54.0992 80.1004 53.8992C79.6004 53.7992 79.4004 53.5992 79.3004 53.0992C79.0004 51.5992 78.6004 50.0992 78.3004 48.5992C78.0004 47.3992 77.8004 46.1992 77.5004 44.9992L76.9004 42.2992C75.6004 36.2992 74.2004 30.3992 72.9004 24.4992C72.9004 24.2992 72.9004 24.0992 72.9004 23.9992L73.0004 23.8992C73.1004 23.8992 73.1004 23.7992 73.2004 23.7992C74.5004 23.0992 75.8004 22.4992 77.1004 21.7992L78.0004 21.3992L78.7004 20.9992C78.8004 20.9992 78.8004 20.8992 78.9004 20.8992C79.0004 20.8992 79.1004 20.7992 79.2004 20.7992L84.6004 54.9992C83.9004 54.7992 83.3004 54.5992 82.8004 54.4992Z" fill="#404041"/>
<path fill-rule="evenodd" clip-rule="evenodd" d="M63.8008 51.7984C63.4008 52.0984 62.8008 51.9984 62.4008 51.4984C61.3008 50.1984 60.3008 48.9984 59.2008 47.6984C59.2008 47.5984 59.1008 47.5984 59.1008 47.4984C59.1008 47.3984 59.0008 47.2984 59.0008 47.1984L58.9008 46.9984C58.9008 46.8984 58.8008 46.8984 58.8008 46.7984L58.9008 46.6984C58.9008 46.5984 59.0008 46.5984 59.0008 46.4984C59.2008 46.2984 59.3008 46.0984 59.5008 45.9984C59.7008 45.8984 59.8008 45.8984 60.0008 45.8984C60.2008 45.8984 60.5008 46.0984 60.6008 46.2984C61.7008 47.5984 62.8008 48.8984 63.8008 50.1984C64.3008 50.7984 64.3008 51.3984 63.8008 51.7984Z" fill="#404041"/>
<path fill-rule="evenodd" clip-rule="evenodd" d="M70.8008 49.2996C70.7008 49.4996 70.3008 49.7996 70.1008 49.7996C69.7008 49.7996 69.3008 49.4996 69.1008 49.2996C67.2008 47.0996 65.4008 44.7996 63.6008 42.5996L62.0008 40.7996C61.9008 40.6996 61.8008 40.4996 61.6008 40.3996C61.3008 39.9996 61.0008 39.6996 60.7008 39.2996C60.5008 38.9996 60.5008 38.5996 60.6008 38.2996C60.6008 38.1996 60.8008 37.9996 61.0008 37.8996L61.1008 37.7996C61.2008 37.6996 61.3008 37.6996 61.4008 37.5996C61.5008 37.6996 61.6008 37.6996 61.6008 37.7996L61.7008 37.8996C61.8008 37.9996 61.9008 38.0996 62.0008 38.0996C62.1008 38.1996 62.2008 38.2996 62.2008 38.2996C63.8008 40.1996 65.4008 42.0996 67.0008 44.0996C67.2008 44.2996 67.4008 44.5996 67.5008 44.7996L67.8008 45.1996C68.7008 46.1996 69.5008 47.2996 70.3008 48.2996C70.8008 48.3996 70.9008 48.8996 70.8008 49.2996Z" fill="#404041"/>
<path fill-rule="evenodd" clip-rule="evenodd" d="M70.2002 40.6984C70.1002 40.5984 69.8002 40.5984 69.6002 40.3984C68.6002 39.1984 67.6002 37.9984 66.6002 36.6984C66.3002 36.2984 66.4002 35.7984 66.8002 35.4984C67.2002 35.1984 67.7002 35.1984 68.1002 35.4984C68.8002 36.2984 69.5002 37.1984 70.2002 37.9984C70.5002 38.3984 70.8002 38.7984 71.2002 39.1984C71.6002 39.7984 71.1002 40.6984 70.2002 40.6984Z" fill="#404041"/>
</svg>
