<svg width="131" height="72" viewBox="0 0 131 72" fill="none" xmlns="http://www.w3.org/2000/svg">
<path fill-rule="evenodd" clip-rule="evenodd" d="M81.3998 27.5992C78.3998 21.8992 74.3998 16.8992 69.8998 12.3992C67.5998 9.99922 63.8998 9.79922 61.5998 12.1992C55.5998 18.1992 50.4998 24.7992 47.4998 32.7992C45.6998 37.6992 44.9998 42.7992 46.7998 47.7992C49.5998 55.6992 55.0998 60.2992 63.3998 61.3992C74.5998 62.8992 83.6998 54.1992 85.1998 44.9992C85.2998 44.6992 85.2998 44.3992 85.2998 43.9992C85.2998 43.4992 85.3998 43.0992 85.3998 42.6992C85.3998 42.4992 85.3998 42.2992 85.3998 42.0992C85.2998 36.5992 83.6998 31.9992 81.3998 27.5992ZM81.2998 43.8992C80.0998 52.3992 71.7998 58.6992 63.0998 57.4992C55.3998 56.3992 49.4998 49.4992 49.4998 41.4992C49.5998 38.8992 50.1998 36.0992 51.1998 33.4992C53.9998 26.3992 58.5998 20.5992 63.8998 15.1992C64.8998 14.1992 66.1998 14.1992 67.0998 15.2992C68.3998 16.5992 69.6998 17.9992 70.8998 19.3992C74.5998 23.7992 77.8998 28.4992 79.8998 33.8992C81.0998 37.0992 81.7998 40.3992 81.2998 43.8992Z" fill="#404041"/>
<path fill-rule="evenodd" clip-rule="evenodd" d="M65.4996 50.3993C65.4996 51.5993 64.3996 52.5993 63.1996 52.3993C58.5996 51.5993 54.6996 47.7993 53.6996 43.2993C53.6996 43.1993 53.5996 42.9993 53.5996 42.8993C53.5996 42.7993 53.5996 42.5993 53.5996 42.4993C53.6996 41.5993 54.4996 40.8993 55.2996 40.8993C56.1996 40.7993 56.9996 41.2993 57.2996 42.1993C57.7996 43.2993 58.1996 44.4993 58.7996 45.4993C59.9996 47.2993 61.7996 48.2993 63.7996 48.6993C64.9996 48.7993 65.4996 49.3993 65.4996 50.3993Z" fill="#404041"/>
</svg>
