<svg width="131" height="72" viewBox="0 0 131 72" fill="none" xmlns="http://www.w3.org/2000/svg">
<path fill-rule="evenodd" clip-rule="evenodd" d="M35 56.5996C35.4 55.2996 35.7 53.8996 36.1 52.5996L35 56.5996Z" fill="#404041"/>
<path fill-rule="evenodd" clip-rule="evenodd" d="M36.0996 52.5996C37.4996 47.2996 38.8996 41.8996 40.1996 36.5996L36.0996 52.5996Z" fill="#404041"/>
<path fill-rule="evenodd" clip-rule="evenodd" d="M40.9004 33.7996C41.3004 32.0996 42.3004 31.0996 44.0004 30.5996L40.9004 33.7996Z" fill="#404041"/>
<path fill-rule="evenodd" clip-rule="evenodd" d="M44 30.5988C45.5 30.1988 46.9 29.6988 48.3 29.2988L44 30.5988Z" fill="#404041"/>
<path fill-rule="evenodd" clip-rule="evenodd" d="M48.4004 29.2996C49.8004 28.8996 51.1004 28.4996 52.5004 28.0996L48.4004 29.2996Z" fill="#404041"/>
<path fill-rule="evenodd" clip-rule="evenodd" d="M52.5 28.0984C53.4 27.7984 54 27.2984 54.4 26.3984L52.5 28.0984Z" fill="#404041"/>
<path fill-rule="evenodd" clip-rule="evenodd" d="M54.3008 26.3984C54.8008 25.1984 55.3008 23.9984 55.9008 22.8984L54.3008 26.3984Z" fill="#404041"/>
<path fill-rule="evenodd" clip-rule="evenodd" d="M55.9004 22.8988C56.8004 20.8988 57.7004 18.7988 58.6004 16.7988L55.9004 22.8988Z" fill="#404041"/>
<path fill-rule="evenodd" clip-rule="evenodd" d="M58.5996 16.7C58.8996 16 59.2996 15.4 59.9996 15L58.5996 16.7Z" fill="#404041"/>
<path fill-rule="evenodd" clip-rule="evenodd" d="M60.0996 14.9987C60.5996 14.6987 61.0996 14.7987 61.3996 15.1987L60.0996 14.9987Z" fill="#404041"/>
<path fill-rule="evenodd" clip-rule="evenodd" d="M61.3996 15.1992C61.6996 15.5992 61.4996 16.1992 61.0996 16.4992L61.3996 15.1992Z" fill="#404041"/>
<path fill-rule="evenodd" clip-rule="evenodd" d="M61.1004 16.5996C61.0004 16.6996 60.9004 16.6996 60.9004 16.7996L61.1004 16.5996Z" fill="#404041"/>
<path fill-rule="evenodd" clip-rule="evenodd" d="M60.8 16.7988C60.7 16.8988 60.6 16.9988 60.5 17.0988L60.8 16.7988Z" fill="#404041"/>
<path fill-rule="evenodd" clip-rule="evenodd" d="M60.6004 17.0996C60.0004 18.2996 59.5004 19.4996 58.9004 20.6996L60.6004 17.0996Z" fill="#404041"/>
<path fill-rule="evenodd" clip-rule="evenodd" d="M65.6992 25.2988C66.3992 25.7988 67.1992 26.2988 67.8992 26.7988L65.6992 25.2988Z" fill="#404041"/>
<path fill-rule="evenodd" clip-rule="evenodd" d="M67.9004 26.6992C69.4004 27.6992 71.0004 27.7992 72.6004 27.0992L67.9004 26.6992Z" fill="#404041"/>
<path fill-rule="evenodd" clip-rule="evenodd" d="M72.5996 27.1996C74.0996 26.4996 75.5996 25.7996 77.1996 25.0996L72.5996 27.1996Z" fill="#404041"/>
<path fill-rule="evenodd" clip-rule="evenodd" d="M77.2004 25.0992C76.9004 24.5992 76.7004 24.1992 76.4004 23.6992L77.2004 25.0992Z" fill="#404041"/>
<path fill-rule="evenodd" clip-rule="evenodd" d="M70.2 12.899C69.5 11.799 69.1 11.599 68 12.299L70.2 12.899Z" fill="#404041"/>
<path fill-rule="evenodd" clip-rule="evenodd" d="M67.1008 12.7988C66.2008 13.3988 65.2008 13.9988 64.3008 14.4988L67.1008 12.7988Z" fill="#404041"/>
<path fill-rule="evenodd" clip-rule="evenodd" d="M64.3008 14.5996C63.7008 14.9996 63.0008 14.6996 62.8008 14.0996L64.3008 14.5996Z" fill="#404041"/>
<path fill-rule="evenodd" clip-rule="evenodd" d="M62.8993 14.0996C62.7993 13.6996 62.8994 13.2996 63.2994 13.0996L62.8993 14.0996Z" fill="#404041"/>
<path fill-rule="evenodd" clip-rule="evenodd" d="M63.3008 12.9984C64.7008 12.0984 66.1008 11.1984 67.6008 10.3984L63.3008 12.9984Z" fill="#404041"/>
<path fill-rule="evenodd" clip-rule="evenodd" d="M67.5996 10.3994C68.9996 9.59937 70.6996 10.0994 71.5996 11.4994L67.5996 10.3994Z" fill="#404041"/>
<path fill-rule="evenodd" clip-rule="evenodd" d="M71.5996 11.5C72.7996 13.5 73.8996 15.4 74.9996 17.4L71.5996 11.5Z" fill="#404041"/>
<path fill-rule="evenodd" clip-rule="evenodd" d="M75 17.3984C75.4 18.0984 75.8 18.8984 76.2 19.5984L75 17.3984Z" fill="#404041"/>
<path fill-rule="evenodd" clip-rule="evenodd" d="M76.1992 19.5996C76.6992 20.4996 77.2992 21.4996 77.7992 22.3996L76.1992 19.5996Z" fill="#404041"/>
<path fill-rule="evenodd" clip-rule="evenodd" d="M77.8008 22.3984C79.3008 25.0984 80.9008 27.7984 82.4008 30.4984L77.8008 22.3984Z" fill="#404041"/>
<path fill-rule="evenodd" clip-rule="evenodd" d="M82.5 30.5C82.7 30.9 83.2 31.3 83.6 31.6L82.5 30.5Z" fill="#404041"/>
<path fill-rule="evenodd" clip-rule="evenodd" d="M83.5 31.5C85.6 32.6 87.6 33.7 89.8 34.7L83.5 31.5Z" fill="#404041"/>
<path fill-rule="evenodd" clip-rule="evenodd" d="M89.8008 34.6992C91.4008 35.4992 92.3008 36.6992 92.6008 38.3992L89.8008 34.6992Z" fill="#404041"/>
<path fill-rule="evenodd" clip-rule="evenodd" d="M92.5996 38.3984C92.9996 40.7984 93.4996 43.1984 93.9996 45.6984L92.5996 38.3984Z" fill="#404041"/>
<path fill-rule="evenodd" clip-rule="evenodd" d="M94 45.6992C94.2 46.5992 94.4 47.4992 94.5 48.4992L94 45.6992Z" fill="#404041"/>
<path fill-rule="evenodd" clip-rule="evenodd" d="M94.4996 48.5C94.5996 49 94.5996 49.4 94.0996 49.7L94.4996 48.5Z" fill="#404041"/>
<path fill-rule="evenodd" clip-rule="evenodd" d="M94.0992 49.5996C93.7992 49.6996 93.3992 49.7996 93.1992 49.5996H94.0992Z" fill="#404041"/>
<path fill-rule="evenodd" clip-rule="evenodd" d="M93.1992 49.6984C92.9992 49.5984 92.7992 49.1984 92.6992 48.8984L93.1992 49.6984Z" fill="#404041"/>
<path fill-rule="evenodd" clip-rule="evenodd" d="M92.7004 48.8992C92.2004 46.6992 91.8004 44.4992 91.4004 42.1992L92.7004 48.8992Z" fill="#404041"/>
<path fill-rule="evenodd" clip-rule="evenodd" d="M91.4 42.1988C91.3 41.5988 91.2 40.8988 91 40.2988L91.4 42.1988Z" fill="#404041"/>
<path fill-rule="evenodd" clip-rule="evenodd" d="M91.0992 40.2992C90.9992 39.5992 90.7992 38.8992 90.6992 38.1992L91.0992 40.2992Z" fill="#404041"/>
<path fill-rule="evenodd" clip-rule="evenodd" d="M90.6996 38.1992C90.5996 37.4992 90.1996 36.9992 89.5996 36.6992L90.6996 38.1992Z" fill="#404041"/>
<path fill-rule="evenodd" clip-rule="evenodd" d="M89.6 36.6984C87.4 35.5984 85.2 34.4984 83 33.3984L89.6 36.6984Z" fill="#404041"/>
<path fill-rule="evenodd" clip-rule="evenodd" d="M83.0008 33.3988C82.9008 33.3988 82.9008 33.3988 82.8008 33.2988L83.0008 33.3988Z" fill="#404041"/>
<path fill-rule="evenodd" clip-rule="evenodd" d="M81.9 37.5C81.8 38.1 81.7 38.7 81.5 39.3L81.9 37.5Z" fill="#404041"/>
<path fill-rule="evenodd" clip-rule="evenodd" d="M81.4992 39.2988C81.1992 40.5988 80.9992 41.9988 80.6992 43.2988L81.4992 39.2988Z" fill="#404041"/>
<path fill-rule="evenodd" clip-rule="evenodd" d="M80.6992 43.2988C80.2992 45.1988 80.5992 46.9988 81.4992 48.6988L80.6992 43.2988Z" fill="#404041"/>
<path fill-rule="evenodd" clip-rule="evenodd" d="M81.5 48.6992C82.1 49.8992 82.8 51.1992 83.4 52.2992L81.5 48.6992Z" fill="#404041"/>
<path fill-rule="evenodd" clip-rule="evenodd" d="M83.4004 52.2988C84.6004 54.3988 86.3004 55.3988 88.7004 55.0988L83.4004 52.2988Z" fill="#404041"/>
<path fill-rule="evenodd" clip-rule="evenodd" d="M88.8008 55.1984C89.9008 55.0984 91.1008 54.9984 92.2008 54.8984L88.8008 55.1984Z" fill="#404041"/>
<path fill-rule="evenodd" clip-rule="evenodd" d="M92.1992 54.8988C92.6992 54.8988 93.2992 54.7988 93.7992 54.7988L92.1992 54.8988Z" fill="#404041"/>
<path fill-rule="evenodd" clip-rule="evenodd" d="M93.8 54.7988C93.7 54.0988 93.6 53.4988 93.5 52.7988L93.8 54.7988Z" fill="#404041"/>
<path fill-rule="evenodd" clip-rule="evenodd" d="M93.4996 52.7996C93.3996 52.0996 93.6996 51.5996 94.1996 51.5996L93.4996 52.7996Z" fill="#404041"/>
<path fill-rule="evenodd" clip-rule="evenodd" d="M94.1992 51.5993C94.6992 51.4993 95.1992 51.8993 95.2992 52.4993L94.1992 51.5993Z" fill="#404041"/>
<path fill-rule="evenodd" clip-rule="evenodd" d="M95.3008 52.5C95.7008 54.5 96.1008 56.6 96.5008 58.6L95.3008 52.5Z" fill="#404041"/>
<path fill-rule="evenodd" clip-rule="evenodd" d="M96.4 58.5996C96.7 60.1996 95.6 61.6996 94 61.8996L96.4 58.5996Z" fill="#404041"/>
<path fill-rule="evenodd" clip-rule="evenodd" d="M93.9996 61.8984C93.6996 61.8984 93.3996 61.9984 93.0996 61.9984L93.9996 61.8984Z" fill="#404041"/>
<path fill-rule="evenodd" clip-rule="evenodd" d="M49.7004 61.9C49.2004 61.8 49.0004 61.5 48.9004 61L49.7004 61.9Z" fill="#404041"/>
<path fill-rule="evenodd" clip-rule="evenodd" d="M48.9004 60.9996C48.9004 60.4996 49.2004 60.1996 49.7004 60.0996L48.9004 60.9996Z" fill="#404041"/>
<path fill-rule="evenodd" clip-rule="evenodd" d="M72.8996 60.0984C72.4996 57.0984 71.1996 54.5984 68.5996 52.8984L72.8996 60.0984Z" fill="#404041"/>
<path fill-rule="evenodd" clip-rule="evenodd" d="M68.6 52.8984C65.4 50.8984 62.3 48.8984 59 46.8984L68.6 52.8984Z" fill="#404041"/>
<path fill-rule="evenodd" clip-rule="evenodd" d="M58.9992 46.9995C56.4992 45.4995 53.8992 45.4995 51.1992 46.0995L58.9992 46.9995Z" fill="#404041"/>
<path fill-rule="evenodd" clip-rule="evenodd" d="M51.1996 46.0996C48.1996 46.7996 45.0996 47.4996 42.0996 48.1996L51.1996 46.0996Z" fill="#404041"/>
<path fill-rule="evenodd" clip-rule="evenodd" d="M42.0996 48.1992C41.2996 48.3992 40.3996 48.5992 39.5996 48.7992L42.0996 48.1992Z" fill="#404041"/>
<path fill-rule="evenodd" clip-rule="evenodd" d="M39.5008 48.7988C39.1008 48.8988 38.9008 49.0988 38.8008 49.4988L39.5008 48.7988Z" fill="#404041"/>
<path fill-rule="evenodd" clip-rule="evenodd" d="M38.8008 49.5C38.3008 51.5 37.8008 53.5 37.3008 55.5L38.8008 49.5Z" fill="#404041"/>
<path fill-rule="evenodd" clip-rule="evenodd" d="M37.3 55.3984C37 56.4984 36.7 57.4984 36.5 58.4984L37.3 55.3984Z" fill="#404041"/>
<path fill-rule="evenodd" clip-rule="evenodd" d="M36.5007 58.5C36.2007 59.6 36.6007 60.1 37.7007 60.1L36.5007 58.5Z" fill="#404041"/>
<path fill-rule="evenodd" clip-rule="evenodd" d="M45.8008 60.0996C46.0008 60.0996 46.4008 60.0996 46.5008 60.1996L45.8008 60.0996Z" fill="#404041"/>
<path fill-rule="evenodd" clip-rule="evenodd" d="M46.5 60.1992C46.8 60.3992 47.1 60.7992 47.1 61.0992L46.5 60.1992Z" fill="#404041"/>
<path fill-rule="evenodd" clip-rule="evenodd" d="M47.0004 61.0996C47.0004 61.3996 46.6004 61.6996 46.4004 61.8996L47.0004 61.0996Z" fill="#404041"/>
<path fill-rule="evenodd" clip-rule="evenodd" d="M46.3992 61.8984C46.1992 61.9984 45.8992 61.9984 45.6992 61.9984L46.3992 61.8984Z" fill="#404041"/>
<path fill-rule="evenodd" clip-rule="evenodd" d="M38.1 61.9992C36.3 61.9992 35.1 61.3992 34.5 59.6992L38.1 61.9992Z" fill="#404041"/>
<path fill-rule="evenodd" clip-rule="evenodd" d="M94 56.7C94.1 56.7 94.1 56.7 94.2 56.7C94.2 56.9 94.3 57.2 94.3 57.4C94.4 57.9 94.5 58.5 94.6 59C94.7 59.6 94.3 60.1 93.7 60.1C93.6 60.1 93.5 60.1 93.4 60.1H93.3H89.4C84.8 60.1 80.1 60.1 75.5 60.1C75 60.1 74.8 60 74.7 59.5C74.2 56.8 73.2 54.4 71.1 52.5C70.8 52.2 70.5 52 70.1 51.7C69.6 51.3 69 50.9 68.4 50.6C65.8 48.9 63.1 47.3 60.5 45.7C57.4 43.7 54.2 43.4 50.7 44.3C48.2 44.9 45.6 45.5 43 46.1C42 46.3 41 46.5 39.9 46.8C39.8 46.8 39.8 46.8 39.7 46.8C39.6 46.8 39.6 46.8 39.5 46.8C39.8 45.7 40.1 44.6 40.3 43.5C40.6 42.2 41 40.8 41.3 39.5C41.7 37.8 42.2 36.1 42.6 34.3C42.9 33.2 43.4 32.6 44.5 32.3C46.5 31.7 48.6 31.1 50.6 30.5C51.3 30.3 52 30.1 52.8 29.9C54.3 29.5 55.4 28.6 56 27.1C56.3 26.3 56.7 25.4 57.1 24.6C57.3 24.1 57.6 23.5 57.8 23C57.9 22.9 57.9 22.7 58 22.6L58.1 22.5L64 26.5L64.7 27C65.3 27.4 66 27.9 66.6 28.3C68.8 29.8 71.1 30 73.5 28.9C74.5 28.4 75.6 28 76.6 27.5L78.1 26.8C78.6 27.6 79.1 28.5 79.5 29.3C80 30.1 80.5 31 80.9 31.8C81 32 81 32.2 80.9 32.4C80.2 36 79.5 39.5 78.8 43.1C78.3 45.5 78.8 47.8 79.9 49.9C80.3 50.6 80.6 51.3 81 52C81.2 52.5 81.5 52.9 81.8 53.4C82.9 55.3 84.4 56.6 86.5 57C87.4 57.2 88.3 57.1 89.3 57C90.3 57 91.2 56.9 92.2 56.8C92.7 56.8 93.1 56.7 93.6 56.7C93.8 56.7 93.9 56.7 94 56.7Z" fill="#404041"/>
</svg>
