<svg width="131" height="72" viewBox="0 0 131 72" fill="none" xmlns="http://www.w3.org/2000/svg">
<path fill-rule="evenodd" clip-rule="evenodd" d="M69.2996 59.3003C69.5996 59.3003 69.7996 59.3003 70.1996 59.2003C67.7996 52.6003 71.5996 45.6003 79.1996 43.0003C83.7996 41.4003 88.0996 42.1003 92.2996 44.3003C92.4996 44.4003 92.5996 44.5003 92.7996 44.6003L93.0996 44.7003C93.1996 42.9003 92.8996 41.3003 92.2996 39.7003C91.9996 38.8003 91.5996 37.9003 91.0996 37.1003C88.3996 32.6003 85.5996 28.3003 81.9996 24.4003C80.1996 22.4003 78.1996 20.7003 75.7996 19.4003C72.8996 17.8003 69.7996 17.4003 66.4996 17.6003C60.7996 18.1003 56.1996 20.5003 52.1996 24.3003C50.8996 25.6003 49.5996 26.9003 48.2996 28.2003C45.7996 31.0003 42.8996 33.1003 39.2996 34.4003C35.6996 35.7003 33.0996 38.3003 31.7996 41.8003C29.9996 46.8003 32.3996 52.7003 37.2996 55.5003C40.1996 57.1003 43.2996 57.9003 46.5996 58.5003C52.1996 59.5003 57.8996 59.7003 63.4996 59.5003C65.6996 59.4003 67.4996 59.4003 69.2996 59.3003Z" fill="#404041"/>
<path fill-rule="evenodd" clip-rule="evenodd" d="M83.2998 61.4995C84.1998 61.4995 84.9998 61.4995 85.8998 61.3995C88.0998 61.2995 90.2998 61.0995 92.4998 60.8995C93.4998 60.7995 94.4998 60.4995 95.3998 60.0995C99.7998 58.3995 100.8 53.7995 97.6998 50.2995C95.8998 48.2995 93.3998 46.9995 90.9998 45.6995C89.0998 44.6995 87.1998 44.0995 85.0998 43.9995C79.9998 43.5995 72.3998 47.0995 71.5998 54.2995C71.4998 55.2995 71.5998 56.2995 71.7998 57.2995C72.2998 59.4995 73.9998 60.7995 76.4998 61.0995C77.5998 61.1995 78.7998 61.2995 79.8998 61.2995C80.6998 61.2995 81.4998 61.2995 82.1998 61.2995C82.5998 61.4995 82.8998 61.4995 83.2998 61.4995Z" fill="#404041"/>
<path fill-rule="evenodd" clip-rule="evenodd" d="M52.7004 10.8004C52.7004 10.8004 52.7004 10.7004 52.9004 10.4004C52.0004 10.8004 51.3004 11.1004 50.7004 11.5004C47.1004 13.8004 44.8004 17.2004 43.2004 21.1004C43.2004 21.1004 43.2004 21.1004 43.2004 21.2004C42.5004 22.7004 42.2004 24.2004 42.9004 25.8004C43.2004 26.5004 43.4004 27.3004 43.5004 28.1004C43.6004 28.7004 43.7004 29.3004 43.9004 30.0004C44.1004 29.9004 44.2004 29.7004 44.4004 29.6004C44.7004 29.3004 45.1004 29.0004 45.4004 28.7004C46.9004 27.4004 47.9004 26.0004 48.0004 23.8004C48.2004 19.0004 49.8004 14.6004 52.7004 10.8004Z" fill="#404041"/>
<path fill-rule="evenodd" clip-rule="evenodd" d="M32.7996 15.3008C32.7996 15.3008 32.6996 15.3008 32.5996 15.3008C36.5996 20.8008 36.8996 27.1008 36.5996 33.4008L37.5996 33.0008C38.9996 32.4008 40.2996 31.8008 41.6996 31.2008C41.7996 31.1008 41.9996 30.9008 41.8996 30.7008C41.2996 26.5008 40.0996 22.5008 37.4996 19.0008C36.3996 17.6008 34.9996 16.3008 33.3996 15.4008C33.1996 15.5008 32.9996 15.4008 32.7996 15.3008Z" fill="#404041"/>
</svg>
