<svg width="131" height="72" viewBox="0 0 131 72" fill="none" xmlns="http://www.w3.org/2000/svg">
<path fill-rule="evenodd" clip-rule="evenodd" d="M110.4 45.7005C110.5 44.6005 110.6 43.1005 111.3 41.0005L119 35.2005C118.1 31.3005 115.5 28.5005 112.4 26.2005C110.7 24.9005 104.9 24.4005 99.6998 24.0005C95.8998 23.7005 92.3998 23.4005 90.9998 22.8005C87.0998 21.3005 84.6998 19.9005 82.6998 18.7005C79.3998 16.7005 77.0998 15.3005 69.9998 15.1005C65.6998 14.9005 63.5998 16.8005 61.3998 18.7005C59.3998 20.4005 57.3998 22.2005 53.6998 22.8005C51.1998 23.2005 48.9998 23.3005 46.8998 23.5005C42.6998 23.8005 38.8998 24.0005 34.2998 26.2005C32.7998 26.9005 29.5998 27.1005 26.1998 27.4005C21.4998 27.7005 16.2998 28.0005 14.6998 29.9005C11.4998 33.6005 11.0998 38.3005 13.8998 42.3005C14.7998 43.6005 15.8998 44.7005 16.9998 45.8005C20.2998 48.8005 24.2998 50.7005 28.4998 52.3005C34.4998 54.6005 39.3998 53.9005 44.6998 53.1005C47.9998 52.6005 51.4998 52.1005 55.5998 52.3005C59.0998 52.5005 63.1998 53.5005 67.3998 54.6005C73.2998 56.1005 79.3998 57.7005 84.2998 56.9005C91.9998 55.7005 99.4998 54.0005 106.5 50.6005C110.1 48.7005 110.2 47.9005 110.4 45.7005Z" fill="#404041"/>
</svg>
