<svg width="131" height="72" viewBox="0 0 131 72" fill="none" xmlns="http://www.w3.org/2000/svg">
<path fill-rule="evenodd" clip-rule="evenodd" d="M103.701 35.9007C92.1009 26.7007 80.5009 17.5007 68.9009 8.40072C66.8009 6.80072 64.8009 5.10072 62.7009 3.50072C61.9009 2.90072 61.1009 2.90072 60.5009 3.60072C58.7009 5.60072 56.8009 7.60072 55.0009 9.60072C49.9009 15.2007 44.9009 20.7007 39.9009 26.4007C38.8009 27.6007 38.0009 29.1007 37.1009 30.6007C36.8009 31.2007 36.5009 31.7007 36.1009 32.2007C33.0009 37.2007 29.9009 42.3007 26.8009 47.3007C26.3009 48.2007 26.3009 48.8007 26.9009 49.7007L28.1009 51.4007C30.6009 54.9007 33.1009 58.3007 35.4009 61.9007C36.3009 63.3007 37.5009 63.8007 39.0009 63.9007C41.6009 64.2007 44.3009 64.5007 46.9009 64.8007C48.3009 65.0007 49.8009 65.1007 51.2009 65.3007C52.7009 65.5007 54.3009 65.6007 55.8009 65.8007C57.6009 66.0007 59.3009 66.2007 61.1009 66.4007C62.8009 66.6007 64.6009 66.8007 66.3009 67.0007C67.8009 67.2007 69.4009 67.4007 70.9009 67.5007C72.5009 67.7007 74.0009 67.9007 75.6009 68.0007C76.7009 68.1007 77.8009 68.2007 78.9009 68.4007C80.8009 68.6007 82.6009 68.8007 84.9009 69.1007C85.5009 69.3007 86.0009 68.8007 86.4009 68.0007C91.4009 59.5007 96.4009 50.9007 101.501 42.4007L104.001 38.2007C104.701 37.0007 104.601 36.6007 103.701 35.9007ZM64.7009 48.2007C64.5009 48.2007 64.2009 48.2007 64.0009 48.2007C62.7009 48.2007 61.4009 48.1007 60.1009 48.1007C58.0009 48.0007 55.8009 47.9007 53.7009 47.9007C47.4009 47.7007 41.0009 47.6007 34.6009 47.4007C33.6009 47.4007 32.5009 47.3007 31.5009 47.2007C31.0009 47.2007 30.5009 47.1007 30.0009 47.1007L30.2009 46.8007C30.3009 46.6007 30.4009 46.4007 30.5009 46.2007C33.3009 41.6007 36.0009 37.1007 38.8009 32.5007C39.0009 32.1007 39.3009 31.7007 39.5009 31.4007C40.3009 30.0007 41.1009 28.6007 42.2009 27.5007C46.4009 22.7007 50.7009 18.1007 55.0009 13.4007C56.2009 12.1007 57.4009 10.8007 58.6009 9.40072L60.7009 7.20072L65.1009 48.2007C64.9009 48.2007 64.8009 48.2007 64.7009 48.2007ZM84.9009 65.7007L68.9009 50.1007L100.401 39.5007L84.9009 65.7007Z" fill="#404041"/>
</svg>
