<svg width="131" height="72" viewBox="0 0 131 72" fill="none" xmlns="http://www.w3.org/2000/svg">
<path fill-rule="evenodd" clip-rule="evenodd" d="M98.5 64.5C98.5 64.1 98.5 63.8 98.5 63.5C98.5 62.3 97.6 61.4 96.4 61.3C95.9 61.3 95.4 61.3 95 61.3C95 60.9 95.1 60.6 95.1 60.2C95.2 59.4 95.3 58.6 95.3 57.9C95.5 52.8 95.6 47.6 95.7 42.5C95.7 41.4 95.8 40.3 95.8 39.2C95.9 35.3 96 31.3 96.2 27.4C96.3 25.6 95.9 24.1 94.8 22.7C94.1 21.8 93.4 20.9 92.7 19.9C92.4 19.4 92.1 19 91.7 18.5H93C93.9 18.5 94.8 18.5 95.6 18.4C97.3 18.2 98.4 16.8 98.4 15.2C98.4 14.3 98.4 13.4 98.4 12.4C98.4 10.8 97.7 9.7 96.2 9.1C93.2 7.9 90.2 6.7 87.2 5.5C85.8 5 84.4 4.4 83.1 3.8L81.2 3H35.1C33.8 3.4 32.9 4.3 32.5 5.6V13.8C33.2 15.3 35 17.2 36.6 18.2L36.3 18.5C36.1 18.7 35.8 19 35.6 19.2C35.4 19.4 35.2 19.6 34.9 19.8C34.4 20.3 34 20.7 33.5 21.2C33.1 21.7 32.8 22.3 32.5 22.8V41.8C33 43.4 33.4 45 33.9 46.5C34.5 48.3 34.7 50.2 34.7 52.1C34.6 54.5 34.7 56.9 34.7 59.3V61.1C33.7 61.1 32.9 61.8 32.5 62.8V67.3C33.1 68.6 34.1 68.9 35.5 68.9C55.6 68.9 75.7 68.9 95.9 68.9C97.6 68.9 98.7 67.8 98.5 66.3C98.4 65.7 98.4 65.1 98.5 64.5ZM93.5 24.7C93.8 25.2 94 25.8 94 26.3C93.7 36.6 93.4 46.9 93.1 57.2C93.1 57.8 93.1 58.4 93.1 59.1C93.1 60.4 92.1 61.3 90.9 61.3C87.6 61.3 84.3 61.3 81 61.3C80 61.3 79.3 60.8 78.9 59.9C77.7 56.7 76.5 53.6 75.2 50.4L74.4 48.2C74.4 48.1 74.3 48 74.3 47.9C74.3 47.9 74.3 47.8 74.3 47.7C74.3 46.7 74.3 45.7 74.3 44.6V43.6C76.1 43.5 76.5 43.3 76.5 42.5C76.5 41.9 76.3 41.5 75.7 41.4C75.4 41.3 75.1 41.3 74.7 41.3C74.6 41.3 74.4 41.3 74.2 41.3V34.8H78C78.2 34.8 78.4 34.8 78.6 34.8C79.3 34.7 79.8 34.3 79.7 33.6C79.7 33 79.2 32.6 78.6 32.5C78.1 32.5 77.6 32.5 77.1 32.5H74.2C74.2 32.3 74.2 32.1 74.2 31.8C74.2 30 74.2 28.2 74.2 26.4C74.2 25.5 74.2 24.6 74.2 23.8C74.2 23.3 74.4 22.7 74.6 22.2C74.9 21.5 75.3 20.9 75.7 20.3C75.9 20 76.1 19.7 76.2 19.4C76.7 18.6 77.3 18.2 78.3 18.2C81.5 18.2 84.6 18.2 87.8 18.2C88.6 18.2 89.2 18.5 89.7 19.2C90 19.6 90.3 20 90.6 20.4C91.6 21.9 92.6 23.3 93.5 24.7ZM56.6 47.5C56.6 47 56.5 46.5 56.5 46C56.4 42 56.2 38 56 34C55.9 31.9 55.8 29.8 55.8 27.7C55.7 26.1 55.7 24.5 55.6 22.8C55.6 21.6 55.1 20.7 54.2 20C53.6 19.5 53 19 52.2 18.4H74.4C74.2 18.7 74.1 19 73.9 19.3C73.5 19.9 73.2 20.5 72.8 21.1C72.3 22 72 22.9 72 23.9V31.5C72 36.7 72 41.9 72 47C72 47.7 72.2 48.5 72.4 49.2C73.9 53.1 75.4 57 76.9 60.8C76.9 60.9 76.9 60.9 76.9 61H53.8L54.1 59.7C54.3 58.8 54.6 57.9 54.8 57C55.3 55 55.9 53.1 56.4 51.1C56.8 50 56.7 48.8 56.6 47.5ZM36 14.9C35.7 14.6 35.4 14.3 35.2 14C34.9 13.7 34.7 13.2 34.7 12.8C34.7 11.1 34.7 9.4 34.7 7.7V6.6C34.7 5.6 35.1 5.2 36.1 5.2C40.8 5.2 45.5 5.2 50.2 5.2C50.5 5.2 50.8 5.3 51 5.5C52.4 6.9 53.8 8.2 55.1 9.7C55.2 9.8 55.2 9.8 55.3 9.9C55.4 10.1 55.5 10.3 55.5 10.6C55.6 11 55.5 11.4 55.5 11.8C55.5 12.4 56 12.9 56.6 12.9C57.2 12.9 57.6 12.5 57.7 11.8V11.7C57.8 10.8 58.2 10.2 59.1 10C59.8 9.8 60.5 9.7 61.1 9.5C61.8 9.3 62.1 8.8 62 8.1C62 7.6 61.4 7.3 60.7 7.5C59.9 7.7 59.2 7.9 58.4 8.1C58.1 8.2 57.8 8.2 57.5 8.3C57.2 8.4 56.9 8.3 56.7 8.1C56 7.5 55.4 6.8 54.7 6.1C54.5 5.8 54.2 5.6 53.9 5.3H59.3C66.2 5.3 73.1 5.3 80 5.3C80.5 5.3 80.9 5.4 81.4 5.6C85.1 7.1 88.9 8.6 92.6 10.1L95.3 11.2C96.2 11.6 96.4 11.8 96.4 12.8C96.4 13.3 96.4 13.7 96.4 14.2C96.4 14.5 96.4 14.9 96.4 15.2C96.4 16 96 16.4 95.2 16.4C91.9 16.4 88.7 16.4 85.4 16.4H83.5H83.4C83.4 16.4 83.3 16.4 83.2 16.4V13.4C83.2 13 83.2 12.6 83.2 12.2C83.2 11.4 82.7 10.9 82.1 10.9C81.4 10.9 81 11.4 81 12.1C81 13.5 81 14.8 81 16.3H77.7V15.5C77.7 15 77.7 14.6 77.7 14.1C77.7 13.3 77.3 12.9 76.6 12.9C75.9 12.9 75.5 13.3 75.5 14.2C75.5 14.5 75.5 14.8 75.5 15.1C75.5 15.4 75.5 15.8 75.5 16.2H74.7C62.6 16.2 50.4 16.2 38.3 16.2C37.7 16.2 37.2 16 36.8 15.6C36.5 15.3 36.3 15.1 36 14.9ZM34.7 36.7C34.7 35.7 34.7 34.7 34.7 33.6C35.8 33.3 37 33 38.2 32.7C39.4 32.4 40.6 32.1 41.8 31.8C42 31.8 42.4 31.8 42.6 31.9C43.1 32.2 43.6 32.6 44.1 32.9C44.4 33.1 44.6 33.2 44.9 33.4C45.6 33.9 46.3 33.8 46.7 33.3C47.1 32.7 46.9 32.1 46.2 31.6C45.5 31.1 44.7 30.6 44 30.1C44.1 29.9 44.2 29.6 44.3 29.4C44.4 29.2 44.5 29 44.6 28.8C44.9 28.2 44.7 27.6 44.2 27.3C43.6 27 43 27.2 42.7 27.8V27.9C42.4 29.3 41.4 29.8 40.1 30C38.5 30.3 37 30.7 35.5 31.1C35.4 31.1 35.3 31.1 35.2 31.1C35.1 31.1 35.1 31.1 35 31.1C35 30.6 35 30 35 29.5C35 28.3 35.1 27.1 34.9 26C34.7 24 35.3 22.4 36.9 21.2C37.2 21 37.5 20.7 37.8 20.3C38 20 38.3 19.7 38.6 19.5C39.4 18.8 40.2 18.3 41.3 18.3H47.5C48.5 18.3 49.3 18.7 50 19.2C51 20 52 20.8 53 21.6C53.3 21.9 53.6 22.3 53.6 22.7C53.8 25.9 53.9 29 54 32.2L54.1 34.8V36.1C54.2 37.5 54.2 38.8 54.3 40.2C54.3 40.5 54.3 40.8 54.3 41.2C53.4 41.2 52.5 41.2 51.6 41.2C50.8 41.2 50.2 41.7 50.3 42.3C50.3 43 50.8 43.4 51.6 43.4H54.5V48.5C54.1 48.5 53.7 48.4 53.3 48.3C52.9 48.3 52.5 48.2 52.1 48.1C51 47.9 50.4 48.2 50.3 49C50.2 49.7 50.7 50.1 51.8 50.3C52.4 50.4 52.9 50.5 53.5 50.5C53.9 50.5 54.2 50.6 54.6 50.6L54.1 52.5C53.7 54.1 53.3 55.6 52.8 57.1C52.5 58.1 52.3 59.1 52 60.1C51.8 60.9 51.5 61.1 50.6 61.1C48 61.1 45.5 61.1 42.9 61.1H38.6C37.6 61.1 37.2 60.7 37.2 59.7C37.2 58.9 37.2 58.1 37.2 57.3C37.2 54.9 37.2 52.4 37.2 50C37.2 48.9 36.9 47.8 36.6 46.8C36.5 46.4 36.3 45.9 36.2 45.5C36 44.5 35.6 43.5 35.4 42.5C35.2 41.6 35 40.6 35 39.7C34.7 38.8 34.7 37.7 34.7 36.7ZM96.3 66.7H34.7V63.5H96.2V66.7H96.3Z" fill="#404041"/>
</svg>
