<svg width="131" height="72" viewBox="0 0 131 72" fill="none" xmlns="http://www.w3.org/2000/svg">
<path fill-rule="evenodd" clip-rule="evenodd" d="M85.9008 44.0996L75.9008 44.2996C76.1008 43.3996 76.2008 42.4996 76.3008 41.5996L85.8008 41.3996C89.1008 41.2996 91.7008 38.5996 91.7008 35.2996C91.6008 31.9996 88.9008 29.3996 85.6008 29.3996L76.6008 29.5996C76.5008 28.6996 76.4008 27.7996 76.3008 26.9996L85.5008 26.7996C88.8008 26.6996 91.5008 23.9996 91.4008 20.5996C91.3008 17.2996 88.6008 14.5996 85.2008 14.6996L72.6008 14.9996C70.8008 11.5996 68.5008 8.79961 65.9008 7.09961C63.8008 9.29961 61.8008 12.0996 60.2008 15.2996L44.9008 15.4996C41.5008 15.5996 38.9008 18.2996 39.0008 21.6996C39.1008 25.0996 41.8008 27.6996 45.2008 27.5996L56.3008 27.3996C56.1008 28.2996 56.0008 29.1996 55.9008 30.0996L45.2008 30.2996C41.9008 30.3996 39.3008 33.0996 39.3008 36.3996C39.3008 39.6996 42.1008 42.2996 45.4008 42.2996L55.5008 42.0996C55.6008 42.9996 55.7008 43.8996 55.8008 44.6996L45.6008 44.8996C42.3008 44.9996 39.6008 47.6996 39.7008 51.0996C39.8008 54.3996 42.5008 57.0996 45.9008 56.9996L59.5008 56.6996C61.3008 60.1996 63.6008 63.0996 66.3008 64.8996C68.5008 62.5996 70.5008 59.7996 72.1008 56.3996L86.3008 56.0996C89.6008 55.9996 92.3008 53.2996 92.2008 49.8996C92.1008 46.4996 89.2008 43.9996 85.9008 44.0996ZM76.6008 39.5996C76.9008 36.8996 76.9008 34.1996 76.8008 31.5996L85.7008 31.3996C87.9008 31.3996 89.7008 33.0996 89.8008 35.2996C89.8008 37.4996 88.1008 39.2996 85.9008 39.3996L76.6008 39.5996ZM55.5008 32.3996C55.2008 34.9996 55.2008 37.5996 55.3008 40.0996L45.3008 40.2996C43.1008 40.2996 41.3008 38.5996 41.2008 36.3996C41.2008 34.1996 42.9008 32.3996 45.1008 32.2996L55.5008 32.0996C55.5008 32.1996 55.5008 32.2996 55.5008 32.3996ZM45.7008 55.0996C43.5008 55.0996 41.6008 53.3996 41.5008 51.0996C41.5008 48.8996 43.2008 46.9996 45.5008 46.9996L56.0008 46.6996C56.5008 49.5996 57.4008 52.3996 58.4008 54.7996L45.7008 55.0996ZM56.6008 25.3996L45.0008 25.5996C42.8008 25.5996 40.9008 23.8996 40.8008 21.5996C40.8008 19.3996 42.5008 17.4996 44.8008 17.3996L59.2008 17.0996C58.2008 19.6996 57.3008 22.4996 56.6008 25.3996ZM85.3008 16.6996C87.5008 16.6996 89.4008 18.3996 89.5008 20.6996C89.5008 22.8996 87.8008 24.7996 85.5008 24.7996L76.0008 24.9996C75.4008 22.0996 74.6008 19.3996 73.6008 16.8996L85.3008 16.6996ZM86.1008 54.1996L72.9008 54.4996C74.0008 51.9996 74.9008 49.1996 75.6008 46.2996L86.0008 46.0996C88.2008 46.0996 90.1008 47.7996 90.2008 50.0996C90.1008 52.2996 88.4008 54.1996 86.1008 54.1996Z" fill="#404041"/>
</svg>
