<svg width="131" height="72" viewBox="0 0 131 72" fill="none" xmlns="http://www.w3.org/2000/svg">
<path d="M65.4992 66.9295C56.8992 66.9295 48.1992 66.9295 39.5992 66.9295C38.1992 66.9295 37.1992 66.0168 37.1992 64.4957C37.1992 61.1492 37.1992 57.9041 37.1992 54.5576C37.1992 54.152 37.3992 53.7464 37.5992 53.4421C38.9992 50.9069 40.3992 48.3717 41.8992 45.8365C41.9992 45.6337 42.0992 45.3295 42.0992 45.1266C42.0992 32.552 42.0992 19.9774 42.0992 7.40271C42.0992 6.18581 42.7992 5.27313 43.7992 5.07031C43.8992 5.07031 44.0992 5.07031 44.2992 5.07031C58.4992 5.07031 72.5992 5.07031 86.7992 5.07031C88.0992 5.07031 88.9992 6.0844 88.9992 7.40271C88.9992 19.9774 88.9992 32.552 88.9992 45.1266C88.9992 45.4309 89.0992 45.6337 89.1992 45.8365C90.5992 48.3717 91.9992 50.8055 93.3992 53.3407C93.6992 53.7464 93.7992 54.2534 93.7992 54.7605C93.7992 58.0055 93.7992 61.1492 93.7992 64.3943C93.7992 65.814 92.6992 66.8281 91.3992 66.8281C82.6992 66.9295 74.0992 66.9295 65.4992 66.9295ZM44.0992 44.8224C44.2992 44.8224 44.3992 44.8224 44.4992 44.8224C45.6992 44.8224 46.7992 44.8224 47.9992 44.8224C48.2992 44.8224 48.3992 44.721 48.5992 44.5182C51.3992 40.6647 54.9992 37.9266 59.4992 36.5069C59.5992 36.5069 59.6992 36.4055 59.7992 36.4055C59.6992 36.3041 59.5992 36.2027 59.4992 36.1013C57.5992 34.4788 55.7992 32.9576 53.8992 31.3351C53.0992 30.7266 53.0992 29.9154 53.6992 29.2055C54.9992 27.6844 56.2992 26.1633 57.5992 24.5407C57.9992 24.0337 58.3992 23.8309 58.9992 23.8309C59.9992 23.8309 60.9992 23.8309 61.9992 23.8309C65.2992 23.8309 68.5992 23.8309 71.8992 23.8309C72.3992 23.8309 72.7992 23.9323 73.1992 24.3379C74.5992 25.9605 75.8992 27.583 77.2992 29.2055C77.8992 29.9154 77.7992 30.7266 77.0992 31.2337C75.3992 32.6534 73.6992 34.0731 72.0992 35.4928C71.7992 35.7971 71.4992 35.9999 71.1992 36.2027V36.3041C71.1992 36.3041 71.2992 36.3041 71.2992 36.4055C75.8992 37.8252 79.5992 40.5633 82.3992 44.5182C82.4992 44.6196 82.6992 44.721 82.7992 44.721C83.9992 44.721 85.1992 44.721 86.3992 44.721C86.4992 44.721 86.5992 44.721 86.7992 44.721C86.7992 44.6196 86.7992 44.4168 86.7992 44.3154C86.7992 32.045 86.7992 19.8759 86.7992 7.60552C86.7992 7.09848 86.7992 7.09848 86.2992 7.09848C72.3992 7.09848 58.3992 7.09848 44.4992 7.09848C43.9992 7.09848 43.9992 7.09848 43.9992 7.60552C43.9992 19.8759 43.9992 32.045 43.9992 44.3154C44.0992 44.5182 44.0992 44.6196 44.0992 44.8224ZM39.2992 55.5717C39.2992 55.6731 39.2992 55.7745 39.2992 55.9774C39.2992 58.8168 39.2992 61.5548 39.2992 64.3943C39.2992 64.7999 39.3992 64.7999 39.7992 64.7999C56.9992 64.7999 74.0992 64.7999 91.2992 64.7999C91.6992 64.7999 91.6992 64.6985 91.6992 64.2928C91.6992 61.4534 91.6992 58.7154 91.6992 55.8759C91.6992 55.7745 91.6992 55.6731 91.6992 55.4703C74.1992 55.5717 56.7992 55.5717 39.2992 55.5717ZM50.9992 53.3407C60.6992 53.3407 70.3992 53.3407 79.9992 53.3407V53.2393C79.4992 51.0083 78.4992 48.9802 77.0992 47.2562C76.9992 47.1548 76.7992 47.0534 76.5992 47.0534C69.1992 47.0534 61.7992 47.0534 54.3992 47.0534C54.1992 47.0534 53.9992 47.1548 53.8992 47.2562C53.4992 47.7633 53.0992 48.3717 52.6992 48.9802C51.8992 50.2985 51.2992 51.7182 50.9992 53.3407ZM83.7992 53.3407C82.2992 44.721 74.4992 37.1154 64.1992 37.8252C54.0992 38.5351 48.1992 46.6478 47.1992 53.3407C47.5992 53.3407 47.9992 53.3407 48.3992 53.3407C48.6992 53.3407 48.7992 53.2393 48.7992 53.0365C49.4992 49.9943 50.8992 47.2562 52.9992 44.9238C57.1992 40.3605 62.4992 38.5351 68.5992 39.5492C72.9992 40.3605 76.5992 42.7943 79.1992 46.445C80.5992 48.4731 81.5992 50.6027 82.1992 53.0365C82.1992 53.1379 82.2992 53.3407 82.3992 53.3407C82.7992 53.3407 83.2992 53.3407 83.7992 53.3407ZM56.2992 44.8224C62.3992 44.8224 68.4992 44.8224 74.5992 44.8224C71.9992 42.5914 68.9992 41.4759 65.4992 41.4759C62.0992 41.4759 58.9992 42.5914 56.2992 44.8224ZM40.0992 53.3407C40.2992 53.3407 40.3992 53.3407 40.4992 53.3407C41.8992 53.3407 43.1992 53.3407 44.5992 53.3407C44.8992 53.3407 44.9992 53.2393 45.0992 52.9351C45.3992 51.0083 45.9992 49.2844 46.8992 47.5605C46.9992 47.3576 47.0992 47.2562 47.1992 47.0534C47.0992 47.0534 46.8992 47.0534 46.7992 47.0534C45.8992 47.0534 44.9992 47.0534 44.0992 47.0534C43.7992 47.0534 43.6992 47.1548 43.5992 47.3576C42.7992 48.7774 41.9992 50.1971 41.1992 51.6168C40.7992 52.1238 40.4992 52.7323 40.0992 53.3407ZM90.8992 53.3407C90.8992 53.2393 90.7992 53.2393 90.7992 53.1379C89.6992 51.2112 88.5992 49.183 87.4992 47.2562C87.3992 47.1548 87.2992 47.0534 87.0992 47.0534C86.2992 47.0534 85.5992 47.0534 84.7992 47.0534C84.4992 47.0534 84.2992 47.0534 83.8992 47.0534C84.9992 49.0816 85.5992 51.2112 85.9992 53.3407C87.5992 53.3407 89.1992 53.3407 90.8992 53.3407ZM67.7992 31.3351C66.1992 31.3351 64.6992 31.3351 63.1992 31.3351C63.2992 31.5379 63.2992 31.6393 63.2992 31.7407C63.6992 32.7548 64.1992 33.8703 64.5992 34.8844C64.8992 35.6957 64.8992 35.6957 65.7992 35.6957C65.9992 35.6957 66.0992 35.5943 66.1992 35.3914C66.5992 34.2759 67.0992 33.2619 67.4992 32.1464C67.5992 31.8421 67.6992 31.6393 67.7992 31.3351ZM67.8992 29.1041C67.5992 28.09 67.2992 27.1774 66.8992 26.2647C66.8992 26.1633 66.6992 26.1633 66.5992 26.1633C65.7992 26.1633 65.0992 26.1633 64.2992 26.1633C63.9992 26.1633 63.8992 26.2647 63.8992 26.4675C63.5992 27.2788 63.3992 28.09 63.0992 28.7999C63.0992 28.9013 62.9992 29.0027 62.9992 29.1041C64.6992 29.1041 66.2992 29.1041 67.8992 29.1041ZM56.5992 29.2055C57.9992 29.2055 59.2992 29.2055 60.5992 29.2055C60.6992 29.2055 60.7992 29.1041 60.7992 29.0027C60.8992 28.5971 61.0992 28.2928 61.1992 27.8872C61.3992 27.3802 61.5992 26.7717 61.7992 26.1633C61.5992 26.1633 61.4992 26.1633 61.3992 26.1633C60.7992 26.1633 60.0992 26.1633 59.4992 26.1633C59.2992 26.1633 59.0992 26.2647 58.8992 26.4675C58.2992 27.1774 57.6992 27.8872 57.0992 28.5971C56.9992 28.6985 56.7992 28.9013 56.5992 29.2055ZM69.1992 26.0619C69.1992 26.1633 69.1992 26.2647 69.1992 26.2647C69.4992 27.0759 69.7992 27.9886 70.0992 28.7999C70.1992 29.0027 70.2992 29.0027 70.4992 29.0027C71.6992 29.0027 72.8992 29.0027 74.0992 29.0027C74.1992 29.0027 74.1992 29.0027 74.2992 29.0027C74.1992 28.9013 74.0992 28.7999 74.0992 28.6985C73.4992 27.9886 72.7992 27.1774 72.1992 26.4675C71.8992 26.0619 71.5992 25.9605 71.1992 25.9605C70.4992 26.1633 69.8992 26.0619 69.1992 26.0619ZM57.1992 31.3351C57.9992 32.2478 62.2992 35.7971 62.5992 35.7971C62.5992 35.6957 62.5992 35.6957 62.5992 35.5943C61.9992 34.2759 61.4992 32.8562 60.8992 31.5379C60.8992 31.4365 60.6992 31.3351 60.5992 31.3351C59.9992 31.3351 59.3992 31.3351 58.7992 31.3351C58.2992 31.3351 57.7992 31.3351 57.1992 31.3351ZM68.2992 35.7971C68.5992 35.7971 73.3992 31.7407 73.6992 31.3351H73.5992C72.5992 31.3351 71.4992 31.3351 70.4992 31.3351C70.2992 31.3351 70.1992 31.4365 70.0992 31.6393C69.7992 32.4506 69.3992 33.2619 69.0992 34.0731C68.7992 34.6816 68.5992 35.1886 68.2992 35.7971Z" fill="#404041"/>
<path d="M65.5008 61.9601C64.4008 61.9601 63.4008 61.9601 62.3008 61.9601C61.7008 61.9601 61.3008 61.5545 61.3008 61.0474C61.3008 60.439 61.7008 60.1348 62.3008 60.1348C64.4008 60.1348 66.6008 60.1348 68.7008 60.1348C69.2008 60.1348 69.6008 60.439 69.6008 60.946C69.7008 61.4531 69.4008 61.8587 69.0008 61.9601C68.9008 61.9601 68.8008 61.9601 68.7008 61.9601C67.6008 61.9601 66.6008 61.9601 65.5008 61.9601Z" fill="#404041"/>
</svg>
